# MagicaVoxel @ Ephtracy

# group
g chair

# material
mtllib chair.mtl
usemtl palette

# normals
vn -1 0 0
vn 1 0 0
vn 0 0 1
vn 0 0 -1
vn 0 -1 0
vn 0 1 0

# texcoords
vt 0.392578 0.5
vt 0.396484 0.5
vt 0.865234 0.5

# verts
v -20 1 25
v -20 1 21
v -20 1 -16
v -20 1 -20
v -20 39 21
v -20 39 -16
v -20 47 25
v -20 47 -15
v -20 111 -20
v -20 111 -21
v -20 119 -15
v -20 119 -21
v -17 47 24
v -17 47 -14
v -17 47 -16
v -17 48 24
v -17 48 -14
v -17 48 -15
v -17 111 -21
v -17 111 -22
v -17 118 -15
v -17 118 -16
v -17 119 -14
v -17 119 -15
v -17 119 -16
v -17 119 -21
v -17 119 -22
v -14 48 -14
v -14 48 -15
v -14 48 -16
v -14 118 -15
v -14 118 -16
v -14 119 -14
v -14 119 -15
v -14 119 -16
v 15 47 -15
v 15 47 -16
v 15 48 -14
v 15 48 -15
v 15 118 -15
v 15 118 -16
v 15 119 -14
v 15 119 -15
v 15 119 -16
v 16 1 25
v 16 1 21
v 16 1 -16
v 16 1 -20
v 16 39 25
v 16 39 21
v 16 39 -16
v 16 39 -20
v 18 47 -15
v 18 47 -16
v 18 119 -15
v 18 119 -16
v -18 47 -15
v -18 47 -16
v -18 119 -15
v -18 119 -16
v -16 1 25
v -16 1 21
v -16 1 -16
v -16 1 -20
v -16 39 25
v -16 39 21
v -16 39 -16
v -16 39 -20
v -15 48 -14
v -15 48 -15
v -15 48 -16
v -15 118 -15
v -15 118 -16
v -15 119 -14
v -15 119 -15
v -15 119 -16
v 14 47 -15
v 14 47 -16
v 14 48 -14
v 14 48 -15
v 14 118 -15
v 14 118 -16
v 14 119 -14
v 14 119 -15
v 14 119 -16
v 17 47 24
v 17 47 -14
v 17 47 -16
v 17 48 24
v 17 48 -14
v 17 48 -15
v 17 111 -21
v 17 111 -22
v 17 118 -15
v 17 118 -16
v 17 119 -14
v 17 119 -15
v 17 119 -16
v 17 119 -21
v 17 119 -22
v 20 1 25
v 20 1 21
v 20 1 -16
v 20 1 -20
v 20 39 21
v 20 39 -16
v 20 47 25
v 20 47 -15
v 20 111 -20
v 20 111 -21
v 20 119 -15
v 20 119 -21
v -20 1 25
v -20 47 25
v -16 1 25
v -16 39 25
v 16 1 25
v 16 39 25
v 20 1 25
v 20 47 25
v -17 47 24
v -17 48 24
v 17 47 24
v 17 48 24
v -17 48 -14
v -17 119 -14
v -15 48 -14
v -15 119 -14
v -14 48 -14
v -14 119 -14
v 14 48 -14
v 14 119 -14
v 15 48 -14
v 15 119 -14
v 17 48 -14
v 17 119 -14
v -20 47 -15
v -20 119 -15
v -18 47 -15
v -18 119 -15
v 18 47 -15
v 18 119 -15
v 20 47 -15
v 20 119 -15
v -20 1 -16
v -20 39 -16
v -18 47 -16
v -18 119 -16
v -17 47 -16
v -17 118 -16
v -17 119 -16
v -16 1 -16
v -16 39 -16
v -15 48 -16
v -15 118 -16
v -15 119 -16
v -14 48 -16
v -14 118 -16
v -14 119 -16
v 14 47 -16
v 14 118 -16
v 14 119 -16
v 15 47 -16
v 15 118 -16
v 15 119 -16
v 16 1 -16
v 16 39 -16
v 17 47 -16
v 17 118 -16
v 17 119 -16
v 18 47 -16
v 18 119 -16
v 20 1 -16
v 20 39 -16
v -20 1 21
v -20 39 21
v -16 1 21
v -16 39 21
v 16 1 21
v 16 39 21
v 20 1 21
v 20 39 21
v 14 47 -15
v 14 48 -15
v 15 47 -15
v 15 48 -15
v -20 1 -20
v -20 111 -20
v -17 111 -20
v -16 1 -20
v -16 39 -20
v 16 1 -20
v 16 39 -20
v 17 111 -20
v 20 1 -20
v 20 111 -20
v -20 111 -21
v -20 119 -21
v -17 111 -21
v -17 119 -21
v 17 111 -21
v 17 119 -21
v 20 111 -21
v 20 119 -21
v -17 111 -22
v -17 119 -22
v 17 111 -22
v 17 119 -22
v -20 1 25
v -16 1 25
v 16 1 25
v 20 1 25
v -20 1 21
v -16 1 21
v 16 1 21
v 20 1 21
v -20 1 -16
v -16 1 -16
v 16 1 -16
v 20 1 -16
v -20 1 -20
v -16 1 -20
v 16 1 -20
v 20 1 -20
v -16 39 25
v 16 39 25
v -20 39 21
v -16 39 21
v 16 39 21
v 20 39 21
v -20 39 -16
v -16 39 -16
v 16 39 -16
v 20 39 -16
v -16 39 -20
v 16 39 -20
v -20 111 -20
v -17 111 -20
v 17 111 -20
v 20 111 -20
v -20 111 -21
v -17 111 -21
v 17 111 -21
v 20 111 -21
v -17 111 -22
v 17 111 -22
v -20 47 25
v 20 47 25
v -17 47 24
v 17 47 24
v -17 47 -14
v 17 47 -14
v -20 47 -15
v -18 47 -15
v 14 47 -15
v 15 47 -15
v 18 47 -15
v 20 47 -15
v -18 47 -16
v -17 47 -16
v 14 47 -16
v 15 47 -16
v 17 47 -16
v 18 47 -16
v -17 48 24
v 17 48 24
v -17 48 -14
v -15 48 -14
v -14 48 -14
v 14 48 -14
v 15 48 -14
v 17 48 -14
v -15 48 -15
v -14 48 -15
v 14 48 -15
v 15 48 -15
v -15 48 -16
v -14 48 -16
v -17 119 -14
v -15 119 -14
v -14 119 -14
v 14 119 -14
v 15 119 -14
v 17 119 -14
v -20 119 -15
v -18 119 -15
v -17 119 -15
v -15 119 -15
v -14 119 -15
v 14 119 -15
v 15 119 -15
v 17 119 -15
v 18 119 -15
v 20 119 -15
v -18 119 -16
v -17 119 -16
v -15 119 -16
v -14 119 -16
v 14 119 -16
v 15 119 -16
v 17 119 -16
v 18 119 -16
v -20 119 -21
v -17 119 -21
v 17 119 -21
v 20 119 -21
v -17 119 -22
v 17 119 -22

# faces
f 5/2/1 2/2/1 1/2/1
f 6/2/1 4/2/1 3/2/1
f 7/2/1 5/2/1 1/2/1
f 7/2/1 6/2/1 5/2/1
f 8/2/1 6/2/1 7/2/1
f 9/2/1 4/2/1 6/2/1
f 9/2/1 6/2/1 8/2/1
f 11/2/1 9/2/1 8/2/1
f 11/2/1 10/2/1 9/2/1
f 12/2/1 10/2/1 11/2/1
f 16/1/1 14/1/1 13/1/1
f 17/2/1 15/2/1 14/2/1
f 17/1/1 14/1/1 16/1/1
f 18/2/1 15/2/1 17/2/1
f 21/2/1 15/2/1 18/2/1
f 21/1/1 18/1/1 17/1/1
f 22/2/1 15/2/1 21/2/1
f 23/1/1 21/1/1 17/1/1
f 24/3/1 22/3/1 21/3/1
f 24/1/1 21/1/1 23/1/1
f 25/3/1 22/3/1 24/3/1
f 26/3/1 20/3/1 19/3/1
f 27/3/1 20/3/1 26/3/1
f 31/1/1 29/1/1 28/1/1
f 31/2/1 30/2/1 29/2/1
f 32/2/1 30/2/1 31/2/1
f 33/1/1 31/1/1 28/1/1
f 34/3/1 32/3/1 31/3/1
f 34/1/1 31/1/1 33/1/1
f 35/3/1 32/3/1 34/3/1
f 39/2/1 37/2/1 36/2/1
f 40/2/1 37/2/1 39/2/1
f 40/1/1 39/1/1 38/1/1
f 41/2/1 37/2/1 40/2/1
f 42/1/1 40/1/1 38/1/1
f 43/3/1 41/3/1 40/3/1
f 43/1/1 40/1/1 42/1/1
f 44/3/1 41/3/1 43/3/1
f 49/2/1 46/2/1 45/2/1
f 50/2/1 46/2/1 49/2/1
f 51/2/1 48/2/1 47/2/1
f 52/2/1 48/2/1 51/2/1
f 55/2/1 54/2/1 53/2/1
f 56/2/1 54/2/1 55/2/1
f 57/2/2 58/2/2 59/2/2
f 59/2/2 58/2/2 60/2/2
f 61/2/2 62/2/2 65/2/2
f 65/2/2 62/2/2 66/2/2
f 63/2/2 64/2/2 67/2/2
f 67/2/2 64/2/2 68/2/2
f 69/1/2 70/1/2 72/1/2
f 70/2/2 71/2/2 72/2/2
f 72/2/2 71/2/2 73/2/2
f 69/1/2 72/1/2 74/1/2
f 72/3/2 73/3/2 75/3/2
f 74/1/2 72/1/2 75/1/2
f 75/3/2 73/3/2 76/3/2
f 77/2/2 78/2/2 80/2/2
f 80/2/2 78/2/2 81/2/2
f 79/1/2 80/1/2 81/1/2
f 81/2/2 78/2/2 82/2/2
f 79/1/2 81/1/2 83/1/2
f 81/3/2 82/3/2 84/3/2
f 83/1/2 81/1/2 84/1/2
f 84/3/2 82/3/2 85/3/2
f 86/1/2 87/1/2 89/1/2
f 87/2/2 88/2/2 90/2/2
f 89/1/2 87/1/2 90/1/2
f 90/2/2 88/2/2 91/2/2
f 91/2/2 88/2/2 94/2/2
f 90/1/2 91/1/2 94/1/2
f 94/2/2 88/2/2 95/2/2
f 90/1/2 94/1/2 96/1/2
f 94/3/2 95/3/2 97/3/2
f 96/1/2 94/1/2 97/1/2
f 97/3/2 95/3/2 98/3/2
f 92/3/2 93/3/2 99/3/2
f 99/3/2 93/3/2 100/3/2
f 101/2/2 102/2/2 105/2/2
f 103/2/2 104/2/2 106/2/2
f 101/2/2 105/2/2 107/2/2
f 105/2/2 106/2/2 107/2/2
f 107/2/2 106/2/2 108/2/2
f 106/2/2 104/2/2 109/2/2
f 108/2/2 106/2/2 109/2/2
f 108/2/2 109/2/2 111/2/2
f 109/2/2 110/2/2 111/2/2
f 111/2/2 110/2/2 112/2/2
f 115/2/3 114/2/3 113/2/3
f 116/2/3 114/2/3 115/2/3
f 118/2/3 114/2/3 116/2/3
f 119/2/3 118/2/3 117/2/3
f 120/2/3 114/2/3 118/2/3
f 120/2/3 118/2/3 119/2/3
f 123/1/3 122/1/3 121/1/3
f 124/1/3 122/1/3 123/1/3
f 127/1/3 126/1/3 125/1/3
f 128/1/3 126/1/3 127/1/3
f 131/1/3 130/1/3 129/1/3
f 132/1/3 130/1/3 131/1/3
f 135/1/3 134/1/3 133/1/3
f 136/1/3 134/1/3 135/1/3
f 139/2/3 138/2/3 137/2/3
f 140/2/3 138/2/3 139/2/3
f 143/2/3 142/2/3 141/2/3
f 144/2/3 142/2/3 143/2/3
f 149/2/3 148/2/3 147/2/3
f 150/2/3 148/2/3 149/2/3
f 151/2/3 148/2/3 150/2/3
f 152/2/3 146/2/3 145/2/3
f 153/2/3 146/2/3 152/2/3
f 157/2/3 155/2/3 154/2/3
f 158/3/3 156/3/3 155/3/3
f 158/2/3 155/2/3 157/2/3
f 159/3/3 156/3/3 158/3/3
f 163/2/3 161/2/3 160/2/3
f 164/3/3 162/3/3 161/3/3
f 164/2/3 161/2/3 163/2/3
f 165/3/3 162/3/3 164/3/3
f 171/2/3 169/2/3 168/2/3
f 171/2/3 170/2/3 169/2/3
f 172/2/3 170/2/3 171/2/3
f 173/2/3 167/2/3 166/2/3
f 174/2/3 167/2/3 173/2/3
f 175/2/4 176/2/4 177/2/4
f 177/2/4 176/2/4 178/2/4
f 179/2/4 180/2/4 181/2/4
f 181/2/4 180/2/4 182/2/4
f 183/1/4 184/1/4 185/1/4
f 185/1/4 184/1/4 186/1/4
f 187/2/4 188/2/4 189/2/4
f 187/2/4 189/2/4 190/2/4
f 190/2/4 189/2/4 191/2/4
f 191/2/4 189/2/4 193/2/4
f 193/2/4 189/2/4 194/2/4
f 192/2/4 193/2/4 194/2/4
f 192/2/4 194/2/4 195/2/4
f 195/2/4 194/2/4 196/2/4
f 197/2/4 198/2/4 199/2/4
f 199/2/4 198/2/4 200/2/4
f 201/2/4 202/2/4 203/2/4
f 203/2/4 202/2/4 204/2/4
f 205/3/4 206/3/4 207/3/4
f 207/3/4 206/3/4 208/3/4
f 213/2/5 210/2/5 209/2/5
f 214/2/5 210/2/5 213/2/5
f 215/2/5 212/2/5 211/2/5
f 216/2/5 212/2/5 215/2/5
f 221/2/5 218/2/5 217/2/5
f 222/2/5 218/2/5 221/2/5
f 223/2/5 220/2/5 219/2/5
f 224/2/5 220/2/5 223/2/5
f 228/2/5 226/2/5 225/2/5
f 229/2/5 226/2/5 228/2/5
f 231/2/5 228/2/5 227/2/5
f 231/2/5 230/2/5 229/2/5
f 231/2/5 229/2/5 228/2/5
f 232/2/5 230/2/5 231/2/5
f 233/2/5 230/2/5 232/2/5
f 234/2/5 230/2/5 233/2/5
f 235/2/5 233/2/5 232/2/5
f 236/2/5 233/2/5 235/2/5
f 241/2/5 238/2/5 237/2/5
f 242/3/5 239/3/5 238/3/5
f 242/2/5 238/2/5 241/2/5
f 243/2/5 240/2/5 239/2/5
f 243/3/5 239/3/5 242/3/5
f 244/2/5 240/2/5 243/2/5
f 245/3/5 243/3/5 242/3/5
f 246/3/5 243/3/5 245/3/5
f 247/2/6 248/2/6 249/2/6
f 249/2/6 248/2/6 250/2/6
f 247/2/6 249/2/6 251/2/6
f 250/2/6 248/2/6 252/2/6
f 247/2/6 251/2/6 253/2/6
f 253/2/6 251/2/6 254/2/6
f 252/2/6 248/2/6 257/2/6
f 257/2/6 248/2/6 258/2/6
f 254/2/6 251/2/6 259/2/6
f 259/2/6 251/2/6 260/2/6
f 255/2/6 256/2/6 261/2/6
f 261/2/6 256/2/6 262/2/6
f 252/2/6 257/2/6 263/2/6
f 263/2/6 257/2/6 264/2/6
f 265/1/6 266/1/6 267/1/6
f 267/1/6 266/1/6 268/1/6
f 268/1/6 266/1/6 269/1/6
f 269/1/6 266/1/6 270/1/6
f 270/1/6 266/1/6 271/1/6
f 271/1/6 266/1/6 272/1/6
f 268/1/6 269/1/6 273/1/6
f 273/1/6 269/1/6 274/1/6
f 270/1/6 271/1/6 275/1/6
f 275/1/6 271/1/6 276/1/6
f 273/1/6 274/1/6 277/1/6
f 277/1/6 274/1/6 278/1/6
f 279/1/6 280/1/6 287/1/6
f 287/1/6 280/1/6 288/1/6
f 281/1/6 282/1/6 289/1/6
f 289/1/6 282/1/6 290/1/6
f 283/1/6 284/1/6 291/1/6
f 291/1/6 284/1/6 292/1/6
f 285/2/6 286/2/6 295/2/6
f 287/3/6 288/3/6 296/3/6
f 296/3/6 288/3/6 297/3/6
f 289/3/6 290/3/6 298/3/6
f 298/3/6 290/3/6 299/3/6
f 291/3/6 292/3/6 300/3/6
f 300/3/6 292/3/6 301/3/6
f 293/2/6 294/2/6 302/2/6
f 285/2/6 295/2/6 303/2/6
f 295/2/6 296/2/6 303/2/6
f 300/3/6 301/3/6 304/3/6
f 303/2/6 296/2/6 304/2/6
f 296/3/6 297/3/6 304/3/6
f 298/3/6 299/3/6 304/3/6
f 299/3/6 300/3/6 304/3/6
f 297/3/6 298/3/6 304/3/6
f 301/2/6 302/2/6 305/2/6
f 304/3/6 301/3/6 305/3/6
f 302/2/6 294/2/6 306/2/6
f 305/2/6 302/2/6 306/2/6
f 304/3/6 305/3/6 307/3/6
f 307/3/6 305/3/6 308/3/6
