# MagicaVoxel @ Ephtracy

# group
g table

# material
mtllib table.mtl
usemtl palette

# normals
vn -1 0 0
vn 1 0 0
vn 0 0 1
vn 0 0 -1
vn 0 -1 0
vn 0 1 0

# texcoords
vt 0.533203 0.5
vt 0.560547 0.5
vt 0.701172 0.5

# verts
v -49.5 0 30.5
v -49.5 0 24.5
v -49.5 0 -24.5
v -49.5 0 -30.5
v -49.5 28 29.5
v -49.5 28 28.5
v -49.5 29 29.5
v -49.5 29 28.5
v -49.5 42 24.5
v -49.5 42 -24.5
v -49.5 60 30.5
v -49.5 60 -30.5
v -26.5 49 30.5
v -26.5 49 29.5
v -26.5 52 30.5
v -26.5 52 29.5
v -25.5 48 30.5
v -25.5 48 29.5
v -25.5 49 30.5
v -25.5 49 29.5
v -25.5 52 30.5
v -25.5 52 29.5
v -25.5 53 30.5
v -25.5 53 29.5
v -23.5 50 30.5
v -23.5 50 29.5
v -23.5 51 30.5
v -23.5 51 29.5
v -1.5 46 30.5
v -1.5 46 29.5
v -1.5 55 30.5
v -1.5 55 29.5
v 21.5 49 30.5
v 21.5 49 29.5
v 21.5 52 30.5
v 21.5 52 29.5
v 22.5 48 30.5
v 22.5 48 29.5
v 22.5 49 30.5
v 22.5 49 29.5
v 22.5 52 30.5
v 22.5 52 29.5
v 22.5 53 30.5
v 22.5 53 29.5
v 24.5 50 30.5
v 24.5 50 29.5
v 24.5 51 30.5
v 24.5 51 29.5
v 46.5 0 30.5
v 46.5 0 24.5
v 46.5 0 -24.5
v 46.5 0 -30.5
v 46.5 42 30.5
v 46.5 42 24.5
v 46.5 42 -24.5
v 46.5 42 -30.5
v 47.5 46 30.5
v 47.5 46 29.5
v 47.5 55 30.5
v 47.5 55 29.5
v -46.5 46 30.5
v -46.5 46 29.5
v -46.5 55 30.5
v -46.5 55 29.5
v -45.5 0 30.5
v -45.5 0 24.5
v -45.5 0 -24.5
v -45.5 0 -30.5
v -45.5 42 30.5
v -45.5 42 24.5
v -45.5 42 -24.5
v -45.5 42 -30.5
v -24.5 50 30.5
v -24.5 50 29.5
v -24.5 51 30.5
v -24.5 51 29.5
v -22.5 48 30.5
v -22.5 48 29.5
v -22.5 49 30.5
v -22.5 49 29.5
v -22.5 52 30.5
v -22.5 52 29.5
v -22.5 53 30.5
v -22.5 53 29.5
v -21.5 49 30.5
v -21.5 49 29.5
v -21.5 52 30.5
v -21.5 52 29.5
v 2.5 46 30.5
v 2.5 46 29.5
v 2.5 55 30.5
v 2.5 55 29.5
v 23.5 50 30.5
v 23.5 50 29.5
v 23.5 51 30.5
v 23.5 51 29.5
v 25.5 48 30.5
v 25.5 48 29.5
v 25.5 49 30.5
v 25.5 49 29.5
v 25.5 52 30.5
v 25.5 52 29.5
v 25.5 53 30.5
v 25.5 53 29.5
v 26.5 49 30.5
v 26.5 49 29.5
v 26.5 52 30.5
v 26.5 52 29.5
v 50.5 0 30.5
v 50.5 0 24.5
v 50.5 0 -24.5
v 50.5 0 -30.5
v 50.5 42 24.5
v 50.5 42 -24.5
v 50.5 60 30.5
v 50.5 60 -30.5
v -49.5 0 30.5
v -49.5 60 30.5
v -46.5 46 30.5
v -46.5 55 30.5
v -45.5 0 30.5
v -45.5 42 30.5
v -26.5 49 30.5
v -26.5 52 30.5
v -25.5 48 30.5
v -25.5 49 30.5
v -25.5 52 30.5
v -25.5 53 30.5
v -24.5 50 30.5
v -24.5 51 30.5
v -23.5 50 30.5
v -23.5 51 30.5
v -22.5 48 30.5
v -22.5 49 30.5
v -22.5 52 30.5
v -22.5 53 30.5
v -21.5 49 30.5
v -21.5 52 30.5
v -1.5 46 30.5
v -1.5 55 30.5
v 2.5 46 30.5
v 2.5 55 30.5
v 21.5 49 30.5
v 21.5 52 30.5
v 22.5 48 30.5
v 22.5 49 30.5
v 22.5 52 30.5
v 22.5 53 30.5
v 23.5 50 30.5
v 23.5 51 30.5
v 24.5 50 30.5
v 24.5 51 30.5
v 25.5 48 30.5
v 25.5 49 30.5
v 25.5 52 30.5
v 25.5 53 30.5
v 26.5 49 30.5
v 26.5 52 30.5
v 46.5 0 30.5
v 46.5 42 30.5
v 47.5 46 30.5
v 47.5 55 30.5
v 50.5 0 30.5
v 50.5 60 30.5
v -46.5 46 29.5
v -46.5 55 29.5
v -26.5 49 29.5
v -26.5 52 29.5
v -25.5 48 29.5
v -25.5 49 29.5
v -25.5 52 29.5
v -25.5 53 29.5
v -24.5 50 29.5
v -24.5 51 29.5
v -23.5 50 29.5
v -23.5 51 29.5
v -22.5 48 29.5
v -22.5 49 29.5
v -22.5 52 29.5
v -22.5 53 29.5
v -21.5 49 29.5
v -21.5 52 29.5
v -1.5 46 29.5
v -1.5 55 29.5
v 2.5 46 29.5
v 2.5 55 29.5
v 21.5 49 29.5
v 21.5 52 29.5
v 22.5 48 29.5
v 22.5 49 29.5
v 22.5 52 29.5
v 22.5 53 29.5
v 23.5 50 29.5
v 23.5 51 29.5
v 24.5 50 29.5
v 24.5 51 29.5
v 25.5 48 29.5
v 25.5 49 29.5
v 25.5 52 29.5
v 25.5 53 29.5
v 26.5 49 29.5
v 26.5 52 29.5
v 47.5 46 29.5
v 47.5 55 29.5
v -49.5 0 -24.5
v -49.5 42 -24.5
v -45.5 0 -24.5
v -45.5 42 -24.5
v 46.5 0 -24.5
v 46.5 42 -24.5
v 50.5 0 -24.5
v 50.5 42 -24.5
v -49.5 0 24.5
v -49.5 42 24.5
v -45.5 0 24.5
v -45.5 42 24.5
v 46.5 0 24.5
v 46.5 42 24.5
v 50.5 0 24.5
v 50.5 42 24.5
v -49.5 0 -30.5
v -49.5 60 -30.5
v -45.5 0 -30.5
v -45.5 42 -30.5
v -27.5 51 -30.5
v -27.5 54 -30.5
v -26.5 49 -30.5
v -26.5 51 -30.5
v -26.5 54 -30.5
v -26.5 55 -30.5
v -25.5 48 -30.5
v -25.5 49 -30.5
v -23.5 54 -30.5
v -23.5 55 -30.5
v -22.5 48 -30.5
v -22.5 49 -30.5
v -22.5 52 -30.5
v -22.5 54 -30.5
v -21.5 49 -30.5
v -21.5 52 -30.5
v 21.5 49 -30.5
v 21.5 52 -30.5
v 22.5 48 -30.5
v 22.5 49 -30.5
v 22.5 52 -30.5
v 22.5 53 -30.5
v 23.5 50 -30.5
v 23.5 51 -30.5
v 24.5 50 -30.5
v 24.5 51 -30.5
v 25.5 48 -30.5
v 25.5 49 -30.5
v 25.5 52 -30.5
v 25.5 53 -30.5
v 26.5 49 -30.5
v 26.5 52 -30.5
v 46.5 0 -30.5
v 46.5 42 -30.5
v 50.5 0 -30.5
v 50.5 60 -30.5
v -49.5 0 30.5
v -45.5 0 30.5
v 46.5 0 30.5
v 50.5 0 30.5
v -49.5 0 24.5
v -45.5 0 24.5
v 46.5 0 24.5
v 50.5 0 24.5
v -49.5 0 -24.5
v -45.5 0 -24.5
v 46.5 0 -24.5
v 50.5 0 -24.5
v -49.5 0 -30.5
v -45.5 0 -30.5
v 46.5 0 -30.5
v 50.5 0 -30.5
v -45.5 42 30.5
v 46.5 42 30.5
v -49.5 42 24.5
v -45.5 42 24.5
v 46.5 42 24.5
v 50.5 42 24.5
v -49.5 42 -24.5
v -45.5 42 -24.5
v 46.5 42 -24.5
v 50.5 42 -24.5
v -45.5 42 -30.5
v 46.5 42 -30.5
v -25.5 48 30.5
v -22.5 48 30.5
v 22.5 48 30.5
v 25.5 48 30.5
v -25.5 48 29.5
v -22.5 48 29.5
v 22.5 48 29.5
v 25.5 48 29.5
v -26.5 49 30.5
v -25.5 49 30.5
v -22.5 49 30.5
v -21.5 49 30.5
v 21.5 49 30.5
v 22.5 49 30.5
v 25.5 49 30.5
v 26.5 49 30.5
v -26.5 49 29.5
v -25.5 49 29.5
v -22.5 49 29.5
v -21.5 49 29.5
v 21.5 49 29.5
v 22.5 49 29.5
v 25.5 49 29.5
v 26.5 49 29.5
v -24.5 51 30.5
v -23.5 51 30.5
v 23.5 51 30.5
v 24.5 51 30.5
v -24.5 51 29.5
v -23.5 51 29.5
v 23.5 51 29.5
v 24.5 51 29.5
v -46.5 55 30.5
v -1.5 55 30.5
v 2.5 55 30.5
v 47.5 55 30.5
v -46.5 55 29.5
v -1.5 55 29.5
v 2.5 55 29.5
v 47.5 55 29.5
v -46.5 46 30.5
v -1.5 46 30.5
v 2.5 46 30.5
v 47.5 46 30.5
v -46.5 46 29.5
v -1.5 46 29.5
v 2.5 46 29.5
v 47.5 46 29.5
v -24.5 50 30.5
v -23.5 50 30.5
v 23.5 50 30.5
v 24.5 50 30.5
v -24.5 50 29.5
v -23.5 50 29.5
v 23.5 50 29.5
v 24.5 50 29.5
v -26.5 52 30.5
v -25.5 52 30.5
v -22.5 52 30.5
v -21.5 52 30.5
v 21.5 52 30.5
v 22.5 52 30.5
v 25.5 52 30.5
v 26.5 52 30.5
v -26.5 52 29.5
v -25.5 52 29.5
v -22.5 52 29.5
v -21.5 52 29.5
v 21.5 52 29.5
v 22.5 52 29.5
v 25.5 52 29.5
v 26.5 52 29.5
v -25.5 53 30.5
v -22.5 53 30.5
v 22.5 53 30.5
v 25.5 53 30.5
v -25.5 53 29.5
v -22.5 53 29.5
v 22.5 53 29.5
v 25.5 53 29.5
v -49.5 60 30.5
v 50.5 60 30.5
v -49.5 60 -30.5
v 50.5 60 -30.5

# faces
f 5/1/1 2/1/1 1/1/1
f 6/1/1 2/1/1 5/1/1
f 7/1/1 5/1/1 1/1/1
f 7/2/1 6/2/1 5/2/1
f 8/1/1 2/1/1 6/1/1
f 8/2/1 6/2/1 7/2/1
f 9/1/1 8/1/1 7/1/1
f 9/1/1 2/1/1 8/1/1
f 10/1/1 4/1/1 3/1/1
f 11/1/1 9/1/1 7/1/1
f 11/1/1 10/1/1 9/1/1
f 11/1/1 7/1/1 1/1/1
f 12/1/1 4/1/1 10/1/1
f 12/1/1 10/1/1 11/1/1
f 15/3/1 14/3/1 13/3/1
f 16/3/1 14/3/1 15/3/1
f 19/3/1 18/3/1 17/3/1
f 20/3/1 18/3/1 19/3/1
f 23/3/1 22/3/1 21/3/1
f 24/3/1 22/3/1 23/3/1
f 27/3/1 26/3/1 25/3/1
f 28/3/1 26/3/1 27/3/1
f 31/1/1 30/1/1 29/1/1
f 32/1/1 30/1/1 31/1/1
f 35/3/1 34/3/1 33/3/1
f 36/3/1 34/3/1 35/3/1
f 39/3/1 38/3/1 37/3/1
f 40/3/1 38/3/1 39/3/1
f 43/3/1 42/3/1 41/3/1
f 44/3/1 42/3/1 43/3/1
f 47/3/1 46/3/1 45/3/1
f 48/3/1 46/3/1 47/3/1
f 53/1/1 50/1/1 49/1/1
f 54/1/1 50/1/1 53/1/1
f 55/1/1 52/1/1 51/1/1
f 56/1/1 52/1/1 55/1/1
f 59/1/1 58/1/1 57/1/1
f 60/1/1 58/1/1 59/1/1
f 61/1/2 62/1/2 63/1/2
f 63/1/2 62/1/2 64/1/2
f 65/1/2 66/1/2 69/1/2
f 69/1/2 66/1/2 70/1/2
f 67/1/2 68/1/2 71/1/2
f 71/1/2 68/1/2 72/1/2
f 73/3/2 74/3/2 75/3/2
f 75/3/2 74/3/2 76/3/2
f 77/3/2 78/3/2 79/3/2
f 79/3/2 78/3/2 80/3/2
f 81/3/2 82/3/2 83/3/2
f 83/3/2 82/3/2 84/3/2
f 85/3/2 86/3/2 87/3/2
f 87/3/2 86/3/2 88/3/2
f 89/1/2 90/1/2 91/1/2
f 91/1/2 90/1/2 92/1/2
f 93/3/2 94/3/2 95/3/2
f 95/3/2 94/3/2 96/3/2
f 97/3/2 98/3/2 99/3/2
f 99/3/2 98/3/2 100/3/2
f 101/3/2 102/3/2 103/3/2
f 103/3/2 102/3/2 104/3/2
f 105/3/2 106/3/2 107/3/2
f 107/3/2 106/3/2 108/3/2
f 109/1/2 110/1/2 113/1/2
f 111/1/2 112/1/2 114/1/2
f 109/1/2 113/1/2 115/1/2
f 113/1/2 114/1/2 115/1/2
f 114/1/2 112/1/2 116/1/2
f 115/1/2 114/1/2 116/1/2
f 119/1/3 118/1/3 117/1/3
f 120/1/3 118/1/3 119/1/3
f 121/1/3 119/1/3 117/1/3
f 122/1/3 119/1/3 121/1/3
f 126/3/3 124/3/3 123/3/3
f 127/3/3 124/3/3 126/3/3
f 129/3/3 126/3/3 125/3/3
f 129/3/3 128/3/3 127/3/3
f 129/3/3 127/3/3 126/3/3
f 130/3/3 128/3/3 129/3/3
f 131/3/3 129/3/3 125/3/3
f 132/3/3 128/3/3 130/3/3
f 133/3/3 131/3/3 125/3/3
f 133/3/3 132/3/3 131/3/3
f 134/3/3 132/3/3 133/3/3
f 135/3/3 128/3/3 132/3/3
f 135/3/3 132/3/3 134/3/3
f 136/3/3 128/3/3 135/3/3
f 137/3/3 135/3/3 134/3/3
f 138/3/3 135/3/3 137/3/3
f 139/1/3 119/1/3 122/1/3
f 140/1/3 118/1/3 120/1/3
f 141/1/3 139/1/3 122/1/3
f 141/1/3 140/1/3 139/1/3
f 142/1/3 118/1/3 140/1/3
f 142/1/3 140/1/3 141/1/3
f 146/3/3 144/3/3 143/3/3
f 147/3/3 144/3/3 146/3/3
f 149/3/3 146/3/3 145/3/3
f 149/3/3 148/3/3 147/3/3
f 149/3/3 147/3/3 146/3/3
f 150/3/3 148/3/3 149/3/3
f 151/3/3 149/3/3 145/3/3
f 152/3/3 148/3/3 150/3/3
f 153/3/3 151/3/3 145/3/3
f 153/3/3 152/3/3 151/3/3
f 154/3/3 152/3/3 153/3/3
f 155/3/3 148/3/3 152/3/3
f 155/3/3 152/3/3 154/3/3
f 156/3/3 148/3/3 155/3/3
f 157/3/3 155/3/3 154/3/3
f 158/3/3 155/3/3 157/3/3
f 160/1/3 141/1/3 122/1/3
f 161/1/3 141/1/3 160/1/3
f 161/1/3 160/1/3 159/1/3
f 162/1/3 118/1/3 142/1/3
f 163/1/3 161/1/3 159/1/3
f 163/1/3 162/1/3 161/1/3
f 164/1/3 118/1/3 162/1/3
f 164/1/3 162/1/3 163/1/3
f 167/1/3 166/1/3 165/1/3
f 168/1/3 166/1/3 167/1/3
f 169/1/3 167/1/3 165/1/3
f 170/1/3 167/1/3 169/1/3
f 171/1/3 166/1/3 168/1/3
f 172/1/3 166/1/3 171/1/3
f 175/1/3 174/1/3 173/1/3
f 176/1/3 174/1/3 175/1/3
f 177/1/3 169/1/3 165/1/3
f 180/1/3 166/1/3 172/1/3
f 181/1/3 178/1/3 177/1/3
f 182/1/3 180/1/3 179/1/3
f 183/1/3 177/1/3 165/1/3
f 183/1/3 182/1/3 181/1/3
f 183/1/3 181/1/3 177/1/3
f 184/1/3 180/1/3 182/1/3
f 184/1/3 182/1/3 183/1/3
f 184/1/3 166/1/3 180/1/3
f 187/1/3 186/1/3 185/1/3
f 188/1/3 186/1/3 187/1/3
f 189/1/3 187/1/3 185/1/3
f 190/1/3 187/1/3 189/1/3
f 191/1/3 186/1/3 188/1/3
f 192/1/3 186/1/3 191/1/3
f 195/1/3 194/1/3 193/1/3
f 196/1/3 194/1/3 195/1/3
f 197/1/3 189/1/3 185/1/3
f 200/1/3 186/1/3 192/1/3
f 201/1/3 198/1/3 197/1/3
f 202/1/3 200/1/3 199/1/3
f 203/1/3 197/1/3 185/1/3
f 203/1/3 202/1/3 201/1/3
f 203/1/3 201/1/3 197/1/3
f 204/1/3 200/1/3 202/1/3
f 204/1/3 202/1/3 203/1/3
f 204/1/3 186/1/3 200/1/3
f 207/1/3 206/1/3 205/1/3
f 208/1/3 206/1/3 207/1/3
f 211/1/3 210/1/3 209/1/3
f 212/1/3 210/1/3 211/1/3
f 213/1/4 214/1/4 215/1/4
f 215/1/4 214/1/4 216/1/4
f 217/1/4 218/1/4 219/1/4
f 219/1/4 218/1/4 220/1/4
f 221/1/4 222/1/4 223/1/4
f 223/1/4 222/1/4 224/1/4
f 224/1/4 222/1/4 225/1/4
f 225/1/4 222/1/4 226/1/4
f 224/1/4 225/1/4 227/1/4
f 225/3/4 226/3/4 228/3/4
f 227/1/4 225/1/4 228/1/4
f 226/1/4 222/1/4 229/1/4
f 228/3/4 226/3/4 229/3/4
f 229/1/4 222/1/4 230/1/4
f 224/1/4 227/1/4 231/1/4
f 227/3/4 228/3/4 232/3/4
f 231/1/4 227/1/4 232/1/4
f 228/3/4 229/3/4 232/3/4
f 229/3/4 230/3/4 232/3/4
f 231/3/4 232/3/4 233/3/4
f 232/3/4 230/3/4 233/3/4
f 230/1/4 222/1/4 234/1/4
f 233/3/4 230/3/4 234/3/4
f 224/1/4 231/1/4 235/1/4
f 231/3/4 233/3/4 235/3/4
f 235/3/4 233/3/4 236/3/4
f 236/3/4 233/3/4 237/3/4
f 233/1/4 234/1/4 238/1/4
f 237/3/4 233/3/4 238/3/4
f 236/3/4 237/3/4 239/3/4
f 235/1/4 236/1/4 239/1/4
f 237/1/4 238/1/4 240/1/4
f 239/3/4 237/3/4 240/3/4
f 235/1/4 239/1/4 241/1/4
f 239/1/4 240/1/4 241/1/4
f 240/1/4 238/1/4 242/1/4
f 241/1/4 240/1/4 242/1/4
f 224/1/4 235/1/4 243/1/4
f 235/1/4 241/1/4 243/1/4
f 241/3/4 242/3/4 244/3/4
f 243/1/4 241/1/4 244/1/4
f 242/1/4 238/1/4 245/1/4
f 244/3/4 242/3/4 245/3/4
f 245/1/4 238/1/4 246/1/4
f 243/3/4 244/3/4 247/3/4
f 244/3/4 245/3/4 247/3/4
f 245/3/4 246/3/4 247/3/4
f 247/3/4 246/3/4 248/3/4
f 243/3/4 247/3/4 249/3/4
f 247/1/4 248/1/4 249/1/4
f 248/3/4 246/3/4 250/3/4
f 249/1/4 248/1/4 250/1/4
f 224/1/4 243/1/4 251/1/4
f 243/3/4 249/3/4 251/3/4
f 249/3/4 250/3/4 251/3/4
f 251/3/4 250/3/4 252/3/4
f 250/3/4 246/3/4 253/3/4
f 252/3/4 250/3/4 253/3/4
f 246/1/4 238/1/4 254/1/4
f 253/3/4 246/3/4 254/3/4
f 252/3/4 253/3/4 255/3/4
f 251/1/4 252/1/4 255/1/4
f 253/1/4 254/1/4 256/1/4
f 255/3/4 253/3/4 256/3/4
f 251/1/4 255/1/4 258/1/4
f 224/1/4 251/1/4 258/1/4
f 255/1/4 256/1/4 258/1/4
f 257/1/4 258/1/4 259/1/4
f 234/1/4 222/1/4 260/1/4
f 259/1/4 258/1/4 260/1/4
f 238/1/4 234/1/4 260/1/4
f 258/1/4 256/1/4 260/1/4
f 254/1/4 238/1/4 260/1/4
f 256/1/4 254/1/4 260/1/4
f 265/1/5 262/1/5 261/1/5
f 266/1/5 262/1/5 265/1/5
f 267/1/5 264/1/5 263/1/5
f 268/1/5 264/1/5 267/1/5
f 273/1/5 270/1/5 269/1/5
f 274/1/5 270/1/5 273/1/5
f 275/1/5 272/1/5 271/1/5
f 276/1/5 272/1/5 275/1/5
f 280/1/5 278/1/5 277/1/5
f 281/1/5 278/1/5 280/1/5
f 283/1/5 280/1/5 279/1/5
f 283/1/5 282/1/5 281/1/5
f 283/1/5 281/1/5 280/1/5
f 284/1/5 282/1/5 283/1/5
f 285/1/5 282/1/5 284/1/5
f 286/1/5 282/1/5 285/1/5
f 287/1/5 285/1/5 284/1/5
f 288/1/5 285/1/5 287/1/5
f 293/3/5 290/3/5 289/3/5
f 294/3/5 290/3/5 293/3/5
f 295/3/5 292/3/5 291/3/5
f 296/3/5 292/3/5 295/3/5
f 305/3/5 298/3/5 297/3/5
f 306/3/5 298/3/5 305/3/5
f 307/3/5 300/3/5 299/3/5
f 308/3/5 300/3/5 307/3/5
f 309/3/5 302/3/5 301/3/5
f 310/3/5 302/3/5 309/3/5
f 311/3/5 304/3/5 303/3/5
f 312/3/5 304/3/5 311/3/5
f 317/3/5 314/3/5 313/3/5
f 318/3/5 314/3/5 317/3/5
f 319/3/5 316/3/5 315/3/5
f 320/3/5 316/3/5 319/3/5
f 325/1/5 322/1/5 321/1/5
f 326/1/5 322/1/5 325/1/5
f 327/1/5 324/1/5 323/1/5
f 328/1/5 324/1/5 327/1/5
f 329/1/6 330/1/6 333/1/6
f 333/1/6 330/1/6 334/1/6
f 331/1/6 332/1/6 335/1/6
f 335/1/6 332/1/6 336/1/6
f 337/3/6 338/3/6 341/3/6
f 341/3/6 338/3/6 342/3/6
f 339/3/6 340/3/6 343/3/6
f 343/3/6 340/3/6 344/3/6
f 345/3/6 346/3/6 353/3/6
f 353/3/6 346/3/6 354/3/6
f 347/3/6 348/3/6 355/3/6
f 355/3/6 348/3/6 356/3/6
f 349/3/6 350/3/6 357/3/6
f 357/3/6 350/3/6 358/3/6
f 351/3/6 352/3/6 359/3/6
f 359/3/6 352/3/6 360/3/6
f 361/3/6 362/3/6 365/3/6
f 365/3/6 362/3/6 366/3/6
f 363/3/6 364/3/6 367/3/6
f 367/3/6 364/3/6 368/3/6
f 369/1/6 370/1/6 371/1/6
f 371/1/6 370/1/6 372/1/6
