# MagicaVoxel @ Ephtracy

# group
g PuzzleCube5

# material
mtllib PuzzleCube5.mtl
usemtl palette

# normals
vn -1 0 0
vn 1 0 0
vn 0 0 1
vn 0 0 -1
vn 0 -1 0
vn 0 1 0

# texcoords
vt 0.958984 0.5
vt 0.994141 0.5

# verts
v -5.5 0 5.5
v -5.5 0 -5.5
v -5.5 5 0.5
v -5.5 5 -0.5
v -5.5 6 0.5
v -5.5 6 -0.5
v -5.5 11 5.5
v -5.5 11 -5.5
v 5.5 0 5.5
v 5.5 0 -5.5
v 5.5 5 0.5
v 5.5 5 -0.5
v 5.5 6 0.5
v 5.5 6 -0.5
v 5.5 11 5.5
v 5.5 11 -5.5
v -5.5 0 5.5
v -5.5 11 5.5
v -3.5 8 5.5
v -3.5 9 5.5
v -0.5 2 5.5
v -0.5 8 5.5
v 0.5 2 5.5
v 0.5 8 5.5
v 3.5 8 5.5
v 3.5 9 5.5
v 5.5 0 5.5
v 5.5 11 5.5
v -5.5 0 -5.5
v -5.5 11 -5.5
v -3.5 2 -5.5
v -3.5 9 -5.5
v -2.5 1 -5.5
v -2.5 2 -5.5
v -2.5 9 -5.5
v -2.5 10 -5.5
v 2.5 1 -5.5
v 2.5 2 -5.5
v 2.5 9 -5.5
v 2.5 10 -5.5
v 3.5 2 -5.5
v 3.5 9 -5.5
v 5.5 0 -5.5
v 5.5 11 -5.5
v -5.5 0 5.5
v 5.5 0 5.5
v -2.5 0 3.5
v 1.5 0 3.5
v -1.5 0 2.5
v 1.5 0 2.5
v 2.5 0 2.5
v -1.5 0 0.5
v 1.5 0 0.5
v 2.5 0 0.5
v -0.5 0 -0.5
v 1.5 0 -0.5
v -1.5 0 -1.5
v -0.5 0 -1.5
v 0.5 0 -1.5
v -0.5 0 -2.5
v 0.5 0 -2.5
v 1.5 0 -2.5
v 0.5 0 -3.5
v 1.5 0 -3.5
v 2.5 0 -3.5
v -2.5 0 -4.5
v -1.5 0 -4.5
v 1.5 0 -4.5
v 2.5 0 -4.5
v -5.5 0 -5.5
v 5.5 0 -5.5
v -5.5 11 5.5
v 5.5 11 5.5
v -3.5 11 4.5
v -2.5 11 4.5
v -2.5 11 0.5
v 1.5 11 0.5
v -2.5 11 -0.5
v 1.5 11 -0.5
v -2.5 11 -3.5
v 2.5 11 -3.5
v -3.5 11 -4.5
v 2.5 11 -4.5
v -5.5 11 -5.5
v 5.5 11 -5.5

# faces
f 3/1/1 2/1/1 1/1/1
f 4/1/1 2/1/1 3/1/1
f 5/1/1 3/1/1 1/1/1
f 5/2/1 4/2/1 3/2/1
f 6/1/1 2/1/1 4/1/1
f 6/2/1 4/2/1 5/2/1
f 7/1/1 5/1/1 1/1/1
f 7/1/1 6/1/1 5/1/1
f 8/1/1 2/1/1 6/1/1
f 8/1/1 6/1/1 7/1/1
f 9/1/2 10/1/2 11/1/2
f 11/1/2 10/1/2 12/1/2
f 9/1/2 11/1/2 13/1/2
f 11/2/2 12/2/2 13/2/2
f 12/1/2 10/1/2 14/1/2
f 13/2/2 12/2/2 14/2/2
f 9/1/2 13/1/2 15/1/2
f 13/1/2 14/1/2 15/1/2
f 14/1/2 10/1/2 16/1/2
f 15/1/2 14/1/2 16/1/2
f 19/1/3 18/1/3 17/1/3
f 20/1/3 18/1/3 19/1/3
f 21/1/3 19/1/3 17/1/3
f 22/2/3 20/2/3 19/2/3
f 22/1/3 19/1/3 21/1/3
f 23/1/3 21/1/3 17/1/3
f 23/2/3 22/2/3 21/2/3
f 24/2/3 20/2/3 22/2/3
f 24/2/3 22/2/3 23/2/3
f 25/1/3 24/1/3 23/1/3
f 25/2/3 20/2/3 24/2/3
f 26/1/3 18/1/3 20/1/3
f 26/2/3 20/2/3 25/2/3
f 27/1/3 25/1/3 23/1/3
f 27/1/3 23/1/3 17/1/3
f 27/1/3 26/1/3 25/1/3
f 28/1/3 18/1/3 26/1/3
f 28/1/3 26/1/3 27/1/3
f 29/1/4 30/1/4 31/1/4
f 31/1/4 30/1/4 32/1/4
f 29/1/4 31/1/4 33/1/4
f 31/2/4 32/2/4 34/2/4
f 33/1/4 31/1/4 34/1/4
f 32/1/4 30/1/4 35/1/4
f 34/2/4 32/2/4 35/2/4
f 35/1/4 30/1/4 36/1/4
f 33/2/4 34/2/4 37/2/4
f 29/1/4 33/1/4 37/1/4
f 34/1/4 35/1/4 38/1/4
f 37/2/4 34/2/4 38/2/4
f 35/2/4 36/2/4 39/2/4
f 38/1/4 35/1/4 39/1/4
f 36/1/4 30/1/4 40/1/4
f 39/2/4 36/2/4 40/2/4
f 38/2/4 39/2/4 41/2/4
f 37/1/4 38/1/4 41/1/4
f 39/1/4 40/1/4 42/1/4
f 41/2/4 39/2/4 42/2/4
f 37/1/4 41/1/4 43/1/4
f 29/1/4 37/1/4 43/1/4
f 41/1/4 42/1/4 43/1/4
f 40/1/4 30/1/4 44/1/4
f 43/1/4 42/1/4 44/1/4
f 42/1/4 40/1/4 44/1/4
f 47/1/5 46/1/5 45/1/5
f 48/1/5 46/1/5 47/1/5
f 49/2/5 48/2/5 47/2/5
f 50/1/5 46/1/5 48/1/5
f 50/2/5 48/2/5 49/2/5
f 51/1/5 46/1/5 50/1/5
f 52/2/5 49/2/5 47/2/5
f 52/1/5 50/1/5 49/1/5
f 53/2/5 51/2/5 50/2/5
f 53/1/5 50/1/5 52/1/5
f 54/1/5 46/1/5 51/1/5
f 54/2/5 51/2/5 53/2/5
f 55/2/5 53/2/5 52/2/5
f 56/1/5 54/1/5 53/1/5
f 56/2/5 53/2/5 55/2/5
f 57/2/5 52/2/5 47/2/5
f 57/2/5 55/2/5 52/2/5
f 58/1/5 56/1/5 55/1/5
f 58/2/5 55/2/5 57/2/5
f 59/1/5 56/1/5 58/1/5
f 60/1/5 58/1/5 57/1/5
f 60/2/5 59/2/5 58/2/5
f 61/1/5 56/1/5 59/1/5
f 61/2/5 59/2/5 60/2/5
f 62/1/5 54/1/5 56/1/5
f 62/1/5 56/1/5 61/1/5
f 63/1/5 61/1/5 60/1/5
f 63/2/5 62/2/5 61/2/5
f 64/1/5 54/1/5 62/1/5
f 64/2/5 62/2/5 63/2/5
f 65/1/5 46/1/5 54/1/5
f 65/1/5 54/1/5 64/1/5
f 66/1/5 47/1/5 45/1/5
f 66/2/5 57/2/5 47/2/5
f 67/1/5 64/1/5 63/1/5
f 67/2/5 57/2/5 66/2/5
f 67/1/5 63/1/5 60/1/5
f 67/1/5 60/1/5 57/1/5
f 68/2/5 65/2/5 64/2/5
f 68/1/5 64/1/5 67/1/5
f 69/1/5 46/1/5 65/1/5
f 69/2/5 65/2/5 68/2/5
f 70/1/5 68/1/5 67/1/5
f 70/1/5 66/1/5 45/1/5
f 70/1/5 69/1/5 68/1/5
f 70/1/5 67/1/5 66/1/5
f 71/1/5 46/1/5 69/1/5
f 71/1/5 69/1/5 70/1/5
f 72/1/6 73/1/6 74/1/6
f 74/1/6 73/1/6 75/1/6
f 74/2/6 75/2/6 76/2/6
f 75/1/6 73/1/6 76/1/6
f 76/1/6 73/1/6 77/1/6
f 74/2/6 76/2/6 78/2/6
f 76/2/6 77/2/6 78/2/6
f 77/1/6 73/1/6 79/1/6
f 78/2/6 77/2/6 79/2/6
f 74/2/6 78/2/6 80/2/6
f 78/1/6 79/1/6 80/1/6
f 79/1/6 73/1/6 81/1/6
f 80/1/6 79/1/6 81/1/6
f 72/1/6 74/1/6 82/1/6
f 74/2/6 80/2/6 82/2/6
f 80/2/6 81/2/6 82/2/6
f 81/1/6 73/1/6 83/1/6
f 82/2/6 81/2/6 83/2/6
f 72/1/6 82/1/6 84/1/6
f 82/1/6 83/1/6 84/1/6
f 83/1/6 73/1/6 85/1/6
f 84/1/6 83/1/6 85/1/6
