# MagicaVoxel @ Ephtracy

# group
g PuzzleCubeContraption

# material
mtllib PuzzleCubeContraption.mtl
usemtl palette

# normals
vn -1 0 0
vn 1 0 0
vn 0 0 1
vn 0 0 -1
vn 0 -1 0
vn 0 1 0

# texcoords
vt 0.986328 0.5

# verts
v -30.5 0 15.5
v -30.5 0 -15.5
v -30.5 20 15.5
v -30.5 20 14.5
v -30.5 21 14.5
v -30.5 21 13.5
v -30.5 22 13.5
v -30.5 22 -15.5
v -18.5 11 15.5
v -18.5 11 4.5
v -18.5 20 15.5
v -18.5 20 14.5
v -18.5 21 14.5
v -18.5 21 13.5
v -18.5 22 13.5
v -18.5 22 4.5
v -6.5 11 15.5
v -6.5 11 4.5
v -6.5 20 15.5
v -6.5 20 14.5
v -6.5 21 14.5
v -6.5 21 13.5
v -6.5 22 13.5
v -6.5 22 4.5
v 5.5 11 15.5
v 5.5 11 4.5
v 5.5 20 15.5
v 5.5 20 14.5
v 5.5 21 14.5
v 5.5 21 13.5
v 5.5 22 13.5
v 5.5 22 4.5
v 17.5 11 15.5
v 17.5 11 4.5
v 17.5 20 15.5
v 17.5 20 14.5
v 17.5 21 14.5
v 17.5 21 13.5
v 17.5 22 13.5
v 17.5 22 4.5
v 29.5 11 15.5
v 29.5 11 4.5
v 29.5 20 15.5
v 29.5 20 14.5
v 29.5 21 14.5
v 29.5 21 13.5
v 29.5 22 13.5
v 29.5 22 4.5
v -29.5 11 15.5
v -29.5 11 4.5
v -29.5 20 15.5
v -29.5 20 14.5
v -29.5 21 14.5
v -29.5 21 13.5
v -29.5 22 13.5
v -29.5 22 4.5
v -17.5 11 15.5
v -17.5 11 4.5
v -17.5 20 15.5
v -17.5 20 14.5
v -17.5 21 14.5
v -17.5 21 13.5
v -17.5 22 13.5
v -17.5 22 4.5
v -5.5 11 15.5
v -5.5 11 4.5
v -5.5 20 15.5
v -5.5 20 14.5
v -5.5 21 14.5
v -5.5 21 13.5
v -5.5 22 13.5
v -5.5 22 4.5
v 6.5 11 15.5
v 6.5 11 4.5
v 6.5 20 15.5
v 6.5 20 14.5
v 6.5 21 14.5
v 6.5 21 13.5
v 6.5 22 13.5
v 6.5 22 4.5
v 18.5 11 15.5
v 18.5 11 4.5
v 18.5 20 15.5
v 18.5 20 14.5
v 18.5 21 14.5
v 18.5 21 13.5
v 18.5 22 13.5
v 18.5 22 4.5
v 30.5 0 15.5
v 30.5 0 -15.5
v 30.5 20 15.5
v 30.5 20 14.5
v 30.5 21 14.5
v 30.5 21 13.5
v 30.5 22 13.5
v 30.5 22 -15.5
v -30.5 0 15.5
v -30.5 20 15.5
v -29.5 11 15.5
v -29.5 20 15.5
v -18.5 11 15.5
v -18.5 20 15.5
v -17.5 11 15.5
v -17.5 20 15.5
v -6.5 11 15.5
v -6.5 20 15.5
v -5.5 11 15.5
v -5.5 20 15.5
v 5.5 11 15.5
v 5.5 20 15.5
v 6.5 11 15.5
v 6.5 20 15.5
v 17.5 11 15.5
v 17.5 20 15.5
v 18.5 11 15.5
v 18.5 20 15.5
v 29.5 11 15.5
v 29.5 20 15.5
v 30.5 0 15.5
v 30.5 20 15.5
v -30.5 20 14.5
v -30.5 21 14.5
v -29.5 20 14.5
v -29.5 21 14.5
v -18.5 20 14.5
v -18.5 21 14.5
v -17.5 20 14.5
v -17.5 21 14.5
v -6.5 20 14.5
v -6.5 21 14.5
v -5.5 20 14.5
v -5.5 21 14.5
v 5.5 20 14.5
v 5.5 21 14.5
v 6.5 20 14.5
v 6.5 21 14.5
v 17.5 20 14.5
v 17.5 21 14.5
v 18.5 20 14.5
v 18.5 21 14.5
v 29.5 20 14.5
v 29.5 21 14.5
v 30.5 20 14.5
v 30.5 21 14.5
v -30.5 21 13.5
v -30.5 22 13.5
v -29.5 21 13.5
v -29.5 22 13.5
v -18.5 21 13.5
v -18.5 22 13.5
v -17.5 21 13.5
v -17.5 22 13.5
v -6.5 21 13.5
v -6.5 22 13.5
v -5.5 21 13.5
v -5.5 22 13.5
v 5.5 21 13.5
v 5.5 22 13.5
v 6.5 21 13.5
v 6.5 22 13.5
v 17.5 21 13.5
v 17.5 22 13.5
v 18.5 21 13.5
v 18.5 22 13.5
v 29.5 21 13.5
v 29.5 22 13.5
v 30.5 21 13.5
v 30.5 22 13.5
v -29.5 11 4.5
v -29.5 22 4.5
v -18.5 11 4.5
v -18.5 22 4.5
v -17.5 11 4.5
v -17.5 22 4.5
v -6.5 11 4.5
v -6.5 22 4.5
v -5.5 11 4.5
v -5.5 22 4.5
v 5.5 11 4.5
v 5.5 22 4.5
v 6.5 11 4.5
v 6.5 22 4.5
v 17.5 11 4.5
v 17.5 22 4.5
v 18.5 11 4.5
v 18.5 22 4.5
v 29.5 11 4.5
v 29.5 22 4.5
v -30.5 0 -15.5
v -30.5 22 -15.5
v 30.5 0 -15.5
v 30.5 22 -15.5
v -30.5 0 15.5
v 30.5 0 15.5
v -30.5 0 -15.5
v 30.5 0 -15.5
v -29.5 11 15.5
v -18.5 11 15.5
v -17.5 11 15.5
v -6.5 11 15.5
v -5.5 11 15.5
v 5.5 11 15.5
v 6.5 11 15.5
v 17.5 11 15.5
v 18.5 11 15.5
v 29.5 11 15.5
v -29.5 11 4.5
v -18.5 11 4.5
v -17.5 11 4.5
v -6.5 11 4.5
v -5.5 11 4.5
v 5.5 11 4.5
v 6.5 11 4.5
v 17.5 11 4.5
v 18.5 11 4.5
v 29.5 11 4.5
v -30.5 20 15.5
v -29.5 20 15.5
v -18.5 20 15.5
v -17.5 20 15.5
v -6.5 20 15.5
v -5.5 20 15.5
v 5.5 20 15.5
v 6.5 20 15.5
v 17.5 20 15.5
v 18.5 20 15.5
v 29.5 20 15.5
v 30.5 20 15.5
v -30.5 20 14.5
v -29.5 20 14.5
v -18.5 20 14.5
v -17.5 20 14.5
v -6.5 20 14.5
v -5.5 20 14.5
v 5.5 20 14.5
v 6.5 20 14.5
v 17.5 20 14.5
v 18.5 20 14.5
v 29.5 20 14.5
v 30.5 20 14.5
v -30.5 21 14.5
v -29.5 21 14.5
v -18.5 21 14.5
v -17.5 21 14.5
v -6.5 21 14.5
v -5.5 21 14.5
v 5.5 21 14.5
v 6.5 21 14.5
v 17.5 21 14.5
v 18.5 21 14.5
v 29.5 21 14.5
v 30.5 21 14.5
v -30.5 21 13.5
v -29.5 21 13.5
v -18.5 21 13.5
v -17.5 21 13.5
v -6.5 21 13.5
v -5.5 21 13.5
v 5.5 21 13.5
v 6.5 21 13.5
v 17.5 21 13.5
v 18.5 21 13.5
v 29.5 21 13.5
v 30.5 21 13.5
v -30.5 22 13.5
v -29.5 22 13.5
v -18.5 22 13.5
v -17.5 22 13.5
v -6.5 22 13.5
v -5.5 22 13.5
v 5.5 22 13.5
v 6.5 22 13.5
v 17.5 22 13.5
v 18.5 22 13.5
v 29.5 22 13.5
v 30.5 22 13.5
v -29.5 22 4.5
v -18.5 22 4.5
v -17.5 22 4.5
v -6.5 22 4.5
v -5.5 22 4.5
v 5.5 22 4.5
v 6.5 22 4.5
v 17.5 22 4.5
v 18.5 22 4.5
v 29.5 22 4.5
v -30.5 22 -15.5
v 30.5 22 -15.5

# faces
f 3/1/1 2/1/1 1/1/1
f 4/1/1 2/1/1 3/1/1
f 5/1/1 2/1/1 4/1/1
f 6/1/1 2/1/1 5/1/1
f 7/1/1 2/1/1 6/1/1
f 8/1/1 2/1/1 7/1/1
f 11/1/1 10/1/1 9/1/1
f 12/1/1 10/1/1 11/1/1
f 13/1/1 10/1/1 12/1/1
f 14/1/1 10/1/1 13/1/1
f 15/1/1 10/1/1 14/1/1
f 16/1/1 10/1/1 15/1/1
f 19/1/1 18/1/1 17/1/1
f 20/1/1 18/1/1 19/1/1
f 21/1/1 18/1/1 20/1/1
f 22/1/1 18/1/1 21/1/1
f 23/1/1 18/1/1 22/1/1
f 24/1/1 18/1/1 23/1/1
f 27/1/1 26/1/1 25/1/1
f 28/1/1 26/1/1 27/1/1
f 29/1/1 26/1/1 28/1/1
f 30/1/1 26/1/1 29/1/1
f 31/1/1 26/1/1 30/1/1
f 32/1/1 26/1/1 31/1/1
f 35/1/1 34/1/1 33/1/1
f 36/1/1 34/1/1 35/1/1
f 37/1/1 34/1/1 36/1/1
f 38/1/1 34/1/1 37/1/1
f 39/1/1 34/1/1 38/1/1
f 40/1/1 34/1/1 39/1/1
f 43/1/1 42/1/1 41/1/1
f 44/1/1 42/1/1 43/1/1
f 45/1/1 42/1/1 44/1/1
f 46/1/1 42/1/1 45/1/1
f 47/1/1 42/1/1 46/1/1
f 48/1/1 42/1/1 47/1/1
f 49/1/2 50/1/2 51/1/2
f 51/1/2 50/1/2 52/1/2
f 52/1/2 50/1/2 53/1/2
f 53/1/2 50/1/2 54/1/2
f 54/1/2 50/1/2 55/1/2
f 55/1/2 50/1/2 56/1/2
f 57/1/2 58/1/2 59/1/2
f 59/1/2 58/1/2 60/1/2
f 60/1/2 58/1/2 61/1/2
f 61/1/2 58/1/2 62/1/2
f 62/1/2 58/1/2 63/1/2
f 63/1/2 58/1/2 64/1/2
f 65/1/2 66/1/2 67/1/2
f 67/1/2 66/1/2 68/1/2
f 68/1/2 66/1/2 69/1/2
f 69/1/2 66/1/2 70/1/2
f 70/1/2 66/1/2 71/1/2
f 71/1/2 66/1/2 72/1/2
f 73/1/2 74/1/2 75/1/2
f 75/1/2 74/1/2 76/1/2
f 76/1/2 74/1/2 77/1/2
f 77/1/2 74/1/2 78/1/2
f 78/1/2 74/1/2 79/1/2
f 79/1/2 74/1/2 80/1/2
f 81/1/2 82/1/2 83/1/2
f 83/1/2 82/1/2 84/1/2
f 84/1/2 82/1/2 85/1/2
f 85/1/2 82/1/2 86/1/2
f 86/1/2 82/1/2 87/1/2
f 87/1/2 82/1/2 88/1/2
f 89/1/2 90/1/2 91/1/2
f 91/1/2 90/1/2 92/1/2
f 92/1/2 90/1/2 93/1/2
f 93/1/2 90/1/2 94/1/2
f 94/1/2 90/1/2 95/1/2
f 95/1/2 90/1/2 96/1/2
f 99/1/3 98/1/3 97/1/3
f 100/1/3 98/1/3 99/1/3
f 101/1/3 99/1/3 97/1/3
f 103/1/3 101/1/3 97/1/3
f 103/1/3 102/1/3 101/1/3
f 104/1/3 102/1/3 103/1/3
f 105/1/3 103/1/3 97/1/3
f 107/1/3 105/1/3 97/1/3
f 107/1/3 106/1/3 105/1/3
f 108/1/3 106/1/3 107/1/3
f 109/1/3 107/1/3 97/1/3
f 111/1/3 109/1/3 97/1/3
f 111/1/3 110/1/3 109/1/3
f 112/1/3 110/1/3 111/1/3
f 113/1/3 111/1/3 97/1/3
f 115/1/3 113/1/3 97/1/3
f 115/1/3 114/1/3 113/1/3
f 116/1/3 114/1/3 115/1/3
f 117/1/3 115/1/3 97/1/3
f 119/1/3 117/1/3 97/1/3
f 119/1/3 118/1/3 117/1/3
f 120/1/3 118/1/3 119/1/3
f 123/1/3 122/1/3 121/1/3
f 124/1/3 122/1/3 123/1/3
f 127/1/3 126/1/3 125/1/3
f 128/1/3 126/1/3 127/1/3
f 131/1/3 130/1/3 129/1/3
f 132/1/3 130/1/3 131/1/3
f 135/1/3 134/1/3 133/1/3
f 136/1/3 134/1/3 135/1/3
f 139/1/3 138/1/3 137/1/3
f 140/1/3 138/1/3 139/1/3
f 143/1/3 142/1/3 141/1/3
f 144/1/3 142/1/3 143/1/3
f 147/1/3 146/1/3 145/1/3
f 148/1/3 146/1/3 147/1/3
f 151/1/3 150/1/3 149/1/3
f 152/1/3 150/1/3 151/1/3
f 155/1/3 154/1/3 153/1/3
f 156/1/3 154/1/3 155/1/3
f 159/1/3 158/1/3 157/1/3
f 160/1/3 158/1/3 159/1/3
f 163/1/3 162/1/3 161/1/3
f 164/1/3 162/1/3 163/1/3
f 167/1/3 166/1/3 165/1/3
f 168/1/3 166/1/3 167/1/3
f 171/1/3 170/1/3 169/1/3
f 172/1/3 170/1/3 171/1/3
f 175/1/3 174/1/3 173/1/3
f 176/1/3 174/1/3 175/1/3
f 179/1/3 178/1/3 177/1/3
f 180/1/3 178/1/3 179/1/3
f 183/1/3 182/1/3 181/1/3
f 184/1/3 182/1/3 183/1/3
f 187/1/3 186/1/3 185/1/3
f 188/1/3 186/1/3 187/1/3
f 189/1/4 190/1/4 191/1/4
f 191/1/4 190/1/4 192/1/4
f 195/1/5 194/1/5 193/1/5
f 196/1/5 194/1/5 195/1/5
f 197/1/6 198/1/6 207/1/6
f 207/1/6 198/1/6 208/1/6
f 199/1/6 200/1/6 209/1/6
f 209/1/6 200/1/6 210/1/6
f 201/1/6 202/1/6 211/1/6
f 211/1/6 202/1/6 212/1/6
f 203/1/6 204/1/6 213/1/6
f 213/1/6 204/1/6 214/1/6
f 205/1/6 206/1/6 215/1/6
f 215/1/6 206/1/6 216/1/6
f 217/1/6 218/1/6 229/1/6
f 229/1/6 218/1/6 230/1/6
f 219/1/6 220/1/6 231/1/6
f 231/1/6 220/1/6 232/1/6
f 221/1/6 222/1/6 233/1/6
f 233/1/6 222/1/6 234/1/6
f 223/1/6 224/1/6 235/1/6
f 235/1/6 224/1/6 236/1/6
f 225/1/6 226/1/6 237/1/6
f 237/1/6 226/1/6 238/1/6
f 227/1/6 228/1/6 239/1/6
f 239/1/6 228/1/6 240/1/6
f 241/1/6 242/1/6 253/1/6
f 253/1/6 242/1/6 254/1/6
f 243/1/6 244/1/6 255/1/6
f 255/1/6 244/1/6 256/1/6
f 245/1/6 246/1/6 257/1/6
f 257/1/6 246/1/6 258/1/6
f 247/1/6 248/1/6 259/1/6
f 259/1/6 248/1/6 260/1/6
f 249/1/6 250/1/6 261/1/6
f 261/1/6 250/1/6 262/1/6
f 251/1/6 252/1/6 263/1/6
f 263/1/6 252/1/6 264/1/6
f 265/1/6 266/1/6 277/1/6
f 267/1/6 268/1/6 278/1/6
f 278/1/6 268/1/6 279/1/6
f 269/1/6 270/1/6 280/1/6
f 280/1/6 270/1/6 281/1/6
f 271/1/6 272/1/6 282/1/6
f 282/1/6 272/1/6 283/1/6
f 273/1/6 274/1/6 284/1/6
f 284/1/6 274/1/6 285/1/6
f 275/1/6 276/1/6 286/1/6
f 284/1/6 285/1/6 287/1/6
f 285/1/6 286/1/6 287/1/6
f 265/1/6 277/1/6 287/1/6
f 278/1/6 279/1/6 287/1/6
f 283/1/6 284/1/6 287/1/6
f 280/1/6 281/1/6 287/1/6
f 281/1/6 282/1/6 287/1/6
f 282/1/6 283/1/6 287/1/6
f 279/1/6 280/1/6 287/1/6
f 277/1/6 278/1/6 287/1/6
f 286/1/6 276/1/6 288/1/6
f 287/1/6 286/1/6 288/1/6
