# MagicaVoxel @ Ephtracy

# group
g foam-dart-gun

# material
mtllib foam-dart-gun.mtl
usemtl palette

# normals
vn -1 0 0
vn 1 0 0
vn 0 0 1
vn 0 0 -1
vn 0 -1 0
vn 0 1 0

# texcoords
vt 0.0175781 0.5
vt 0.0214844 0.5
vt 0.0683594 0.5
vt 0.0878906 0.5
vt 0.982422 0.5

# verts
v -14 2 12
v -14 2 9
v -14 2 8
v -14 2 5
v -14 3 11
v -14 3 10
v -14 3 7
v -14 3 6
v -14 4 11
v -14 4 10
v -14 4 7
v -14 4 6
v -14 5 12
v -14 5 9
v -14 5 8
v -14 5 5
v -14 6 12
v -14 6 9
v -14 6 8
v -14 6 5
v -14 7 11
v -14 7 10
v -14 7 7
v -14 7 6
v -14 8 11
v -14 8 10
v -14 8 7
v -14 8 6
v -14 9 12
v -14 9 9
v -14 9 8
v -14 9 5
v -13 3 11
v -13 3 10
v -13 3 7
v -13 3 6
v -13 4 11
v -13 4 10
v -13 4 7
v -13 4 6
v -13 7 11
v -13 7 10
v -13 7 7
v -13 7 6
v -13 8 11
v -13 8 10
v -13 8 7
v -13 8 6
v -11 1 13
v -11 1 9
v -11 1 8
v -11 1 4
v -11 2 12
v -11 2 9
v -11 2 8
v -11 2 5
v -11 5 13
v -11 5 12
v -11 5 9
v -11 5 8
v -11 5 5
v -11 5 4
v -11 6 13
v -11 6 12
v -11 6 9
v -11 6 8
v -11 6 5
v -11 6 4
v -11 9 12
v -11 9 9
v -11 9 8
v -11 9 5
v -11 10 13
v -11 10 9
v -11 10 8
v -11 10 4
v -7 4 4
v -7 4 1
v -7 5 5
v -7 5 4
v -7 6 5
v -7 6 4
v -7 7 4
v -7 7 1
v -6 4 1
v -6 4 -1
v -6 7 1
v -6 7 -1
v -5 4 -1
v -5 4 -2
v -5 7 -1
v -5 7 -2
v -4 4 -2
v -4 4 -5
v -4 7 -2
v -4 7 -5
v -3 4 -5
v -3 4 -7
v -3 7 -5
v -3 7 -7
v 4 5 4
v 4 5 -1
v 4 6 4
v 4 6 -1
v 5 0 13
v 5 0 4
v 5 1 14
v 5 1 13
v 5 1 9
v 5 1 8
v 5 1 4
v 5 1 3
v 5 2 9
v 5 2 8
v 5 5 13
v 5 5 12
v 5 5 4
v 5 5 3
v 5 6 13
v 5 6 12
v 5 6 4
v 5 6 3
v 5 9 9
v 5 9 8
v 5 10 14
v 5 10 13
v 5 10 9
v 5 10 8
v 5 10 4
v 5 10 3
v 5 11 13
v 5 11 4
v 6 3 3
v 6 3 -0
v 6 5 3
v 6 5 -0
v 6 6 3
v 6 6 -0
v 6 8 3
v 6 8 -0
v 7 3 -0
v 7 3 -1
v 7 5 -0
v 7 5 -1
v 7 6 -0
v 7 6 -1
v 7 8 -0
v 7 8 -1
v 8 3 -1
v 8 3 -3
v 8 4 -3
v 8 4 -6
v 8 5 -4
v 8 5 -6
v 8 5 -10
v 8 6 -4
v 8 6 -6
v 8 6 -10
v 8 7 -3
v 8 7 -6
v 8 8 -1
v 8 8 -3
v 9 4 -6
v 9 4 -10
v 9 5 -6
v 9 5 -10
v 9 6 -6
v 9 6 -10
v 9 7 -6
v 9 7 -10
v 11 5 -10
v 11 5 -12
v 11 6 -10
v 11 6 -12
v 12 3 -13
v 12 3 -14
v 12 5 -12
v 12 5 -13
v 12 6 -12
v 12 6 -13
v 12 8 -13
v 12 8 -14
v -3 4 4
v -3 4 1
v -3 7 4
v -3 7 1
v -2 4 1
v -2 4 -1
v -2 7 1
v -2 7 -1
v -1 4 -1
v -1 4 -4
v -1 7 -1
v -1 7 -4
v 0 4 -4
v 0 4 -7
v 0 5 -4
v 0 5 -6
v 0 6 -4
v 0 6 -6
v 0 7 -4
v 0 7 -7
v 11 3 3
v 11 3 -3
v 11 4 1
v 11 4 -3
v 11 7 1
v 11 7 -3
v 11 8 3
v 11 8 -3
v 12 0 13
v 12 0 4
v 12 1 14
v 12 1 13
v 12 1 4
v 12 1 3
v 12 5 -10
v 12 5 -11
v 12 6 -10
v 12 6 -11
v 12 10 14
v 12 10 13
v 12 10 4
v 12 10 3
v 12 11 13
v 12 11 4
v 13 1 13
v 13 1 4
v 13 3 -13
v 13 3 -14
v 13 4 1
v 13 4 -5
v 13 5 -11
v 13 5 -13
v 13 6 -11
v 13 6 -13
v 13 7 1
v 13 7 -5
v 13 8 -13
v 13 8 -14
v 13 10 13
v 13 10 4
v 14 4 -5
v 14 4 -10
v 14 7 -5
v 14 7 -10
v 5 1 14
v 5 10 14
v 12 1 14
v 12 10 14
v -11 1 13
v -11 5 13
v -11 6 13
v -11 10 13
v 5 0 13
v 5 1 13
v 5 5 13
v 5 6 13
v 5 10 13
v 5 11 13
v 12 0 13
v 12 1 13
v 12 10 13
v 12 11 13
v 13 1 13
v 13 10 13
v -14 2 12
v -14 5 12
v -14 6 12
v -14 9 12
v -12 2 12
v -12 5 12
v -12 6 12
v -12 9 12
v -11 2 12
v -11 5 12
v -11 6 12
v -11 9 12
v 5 5 12
v 5 6 12
v -14 3 10
v -14 4 10
v -14 7 10
v -14 8 10
v -13 3 10
v -13 4 10
v -13 7 10
v -13 8 10
v -14 2 8
v -14 5 8
v -14 6 8
v -14 9 8
v -12 2 8
v -12 5 8
v -12 6 8
v -12 9 8
v -11 1 8
v -11 2 8
v -11 5 8
v -11 6 8
v -11 9 8
v -11 10 8
v 5 1 8
v 5 2 8
v 5 9 8
v 5 10 8
v -14 3 6
v -14 4 6
v -14 7 6
v -14 8 6
v -13 3 6
v -13 4 6
v -13 7 6
v -13 8 6
v -3 4 1
v -3 7 1
v -2 4 1
v -2 7 1
v 11 4 1
v 11 7 1
v 13 4 1
v 13 7 1
v -2 4 -1
v -2 7 -1
v -1 4 -1
v -1 7 -1
v -1 4 -4
v -1 7 -4
v 0 4 -4
v 0 5 -4
v 0 6 -4
v 0 7 -4
v 8 5 -4
v 8 6 -4
v 13 4 -5
v 13 7 -5
v 14 4 -5
v 14 7 -5
v 12 5 -11
v 12 6 -11
v 13 5 -11
v 13 6 -11
v 12 3 -13
v 12 5 -13
v 12 6 -13
v 12 8 -13
v 13 3 -13
v 13 5 -13
v 13 6 -13
v 13 8 -13
v -14 3 11
v -14 4 11
v -14 7 11
v -14 8 11
v -13 3 11
v -13 4 11
v -13 7 11
v -13 8 11
v -14 2 9
v -14 5 9
v -14 6 9
v -14 9 9
v -12 2 9
v -12 5 9
v -12 6 9
v -12 9 9
v -11 1 9
v -11 2 9
v -11 5 9
v -11 6 9
v -11 9 9
v -11 10 9
v 5 1 9
v 5 2 9
v 5 9 9
v 5 10 9
v -14 3 7
v -14 4 7
v -14 7 7
v -14 8 7
v -13 3 7
v -13 4 7
v -13 7 7
v -13 8 7
v -14 2 5
v -14 5 5
v -14 6 5
v -14 9 5
v -12 2 5
v -12 5 5
v -12 6 5
v -12 9 5
v -11 2 5
v -11 5 5
v -11 6 5
v -11 9 5
v -7 5 5
v -7 6 5
v -11 1 4
v -11 5 4
v -11 6 4
v -11 10 4
v -7 4 4
v -7 5 4
v -7 6 4
v -7 7 4
v -3 4 4
v -3 7 4
v 4 5 4
v 4 6 4
v 5 0 4
v 5 1 4
v 5 5 4
v 5 6 4
v 5 10 4
v 5 11 4
v 12 0 4
v 12 1 4
v 12 10 4
v 12 11 4
v 13 1 4
v 13 10 4
v 5 1 3
v 5 5 3
v 5 6 3
v 5 10 3
v 6 3 3
v 6 5 3
v 6 6 3
v 6 8 3
v 11 3 3
v 11 8 3
v 12 1 3
v 12 10 3
v -7 4 1
v -7 7 1
v -6 4 1
v -6 7 1
v 6 3 -0
v 6 5 -0
v 6 6 -0
v 6 8 -0
v 7 3 -0
v 7 5 -0
v 7 6 -0
v 7 8 -0
v -6 4 -1
v -6 7 -1
v -5 4 -1
v -5 7 -1
v 4 5 -1
v 4 6 -1
v 7 3 -1
v 7 5 -1
v 7 6 -1
v 7 8 -1
v 8 3 -1
v 8 8 -1
v -5 4 -2
v -5 7 -2
v -4 4 -2
v -4 7 -2
v 8 3 -3
v 8 4 -3
v 8 7 -3
v 8 8 -3
v 11 3 -3
v 11 4 -3
v 11 7 -3
v 11 8 -3
v -4 4 -5
v -4 7 -5
v -3 4 -5
v -3 7 -5
v 0 5 -6
v 0 6 -6
v 8 4 -6
v 8 5 -6
v 8 6 -6
v 8 7 -6
v 9 4 -6
v 9 5 -6
v 9 6 -6
v 9 7 -6
v -3 4 -7
v -3 7 -7
v 0 4 -7
v 0 7 -7
v 8 5 -10
v 8 6 -10
v 9 4 -10
v 9 5 -10
v 9 6 -10
v 9 7 -10
v 11 5 -10
v 11 6 -10
v 12 5 -10
v 12 6 -10
v 14 4 -10
v 14 7 -10
v 11 5 -12
v 11 6 -12
v 12 5 -12
v 12 6 -12
v 12 3 -14
v 12 8 -14
v 13 3 -14
v 13 8 -14
v 5 0 13
v 12 0 13
v 5 0 4
v 12 0 4
v 5 1 14
v 12 1 14
v -11 1 13
v 5 1 13
v 12 1 13
v 13 1 13
v -11 1 9
v 5 1 9
v -11 1 8
v 5 1 8
v -11 1 4
v 5 1 4
v 12 1 4
v 13 1 4
v 5 1 3
v 12 1 3
v -14 2 12
v -12 2 12
v -11 2 12
v -14 2 9
v -12 2 9
v -11 2 9
v 5 2 9
v -14 2 8
v -12 2 8
v -11 2 8
v 5 2 8
v -14 2 5
v -12 2 5
v -11 2 5
v 6 3 3
v 11 3 3
v 6 3 -0
v 7 3 -0
v 7 3 -1
v 8 3 -1
v 8 3 -3
v 11 3 -3
v 12 3 -13
v 13 3 -13
v 12 3 -14
v 13 3 -14
v -14 4 11
v -13 4 11
v -14 4 10
v -13 4 10
v -14 4 7
v -13 4 7
v -14 4 6
v -13 4 6
v -7 4 4
v -3 4 4
v -7 4 1
v -6 4 1
v -3 4 1
v -2 4 1
v 11 4 1
v 13 4 1
v -6 4 -1
v -5 4 -1
v -2 4 -1
v -1 4 -1
v -5 4 -2
v -4 4 -2
v 8 4 -3
v 11 4 -3
v -1 4 -4
v 0 4 -4
v -4 4 -5
v -3 4 -5
v 13 4 -5
v 14 4 -5
v 8 4 -6
v 9 4 -6
v -3 4 -7
v 0 4 -7
v 9 4 -10
v 14 4 -10
v 4 5 4
v 5 5 4
v 5 5 3
v 6 5 3
v 6 5 -0
v 7 5 -0
v 4 5 -1
v 7 5 -1
v 0 5 -4
v 8 5 -4
v 0 5 -6
v 8 5 -6
v 9 5 -6
v 8 5 -10
v 9 5 -10
v 11 5 -10
v 12 5 -10
v 12 5 -11
v 13 5 -11
v 11 5 -12
v 12 5 -12
v 12 5 -13
v 13 5 -13
v -11 6 13
v 5 6 13
v -14 6 12
v -12 6 12
v -11 6 12
v 5 6 12
v -14 6 9
v -12 6 9
v -11 6 9
v -14 6 8
v -12 6 8
v -11 6 8
v -14 6 5
v -12 6 5
v -11 6 5
v -7 6 5
v -11 6 4
v -7 6 4
v -14 8 11
v -13 8 11
v -14 8 10
v -13 8 10
v -14 8 7
v -13 8 7
v -14 8 6
v -13 8 6
v -14 3 11
v -13 3 11
v -14 3 10
v -13 3 10
v -14 3 7
v -13 3 7
v -14 3 6
v -13 3 6
v -11 5 13
v 5 5 13
v -14 5 12
v -12 5 12
v -11 5 12
v 5 5 12
v -14 5 9
v -12 5 9
v -11 5 9
v -14 5 8
v -12 5 8
v -11 5 8
v -14 5 5
v -12 5 5
v -11 5 5
v -7 5 5
v -11 5 4
v -7 5 4
v 4 6 4
v 5 6 4
v 5 6 3
v 6 6 3
v 6 6 -0
v 7 6 -0
v 4 6 -1
v 7 6 -1
v 0 6 -4
v 8 6 -4
v 0 6 -6
v 8 6 -6
v 9 6 -6
v 8 6 -10
v 9 6 -10
v 11 6 -10
v 12 6 -10
v 12 6 -11
v 13 6 -11
v 11 6 -12
v 12 6 -12
v 12 6 -13
v 13 6 -13
v -14 7 11
v -13 7 11
v -14 7 10
v -13 7 10
v -14 7 7
v -13 7 7
v -14 7 6
v -13 7 6
v -7 7 4
v -3 7 4
v -7 7 1
v -6 7 1
v -3 7 1
v -2 7 1
v 11 7 1
v 13 7 1
v -6 7 -1
v -5 7 -1
v -2 7 -1
v -1 7 -1
v -5 7 -2
v -4 7 -2
v 8 7 -3
v 11 7 -3
v -1 7 -4
v 0 7 -4
v -4 7 -5
v -3 7 -5
v 13 7 -5
v 14 7 -5
v 8 7 -6
v 9 7 -6
v -3 7 -7
v 0 7 -7
v 9 7 -10
v 14 7 -10
v 6 8 3
v 11 8 3
v 6 8 -0
v 7 8 -0
v 7 8 -1
v 8 8 -1
v 8 8 -3
v 11 8 -3
v 12 8 -13
v 13 8 -13
v 12 8 -14
v 13 8 -14
v -14 9 12
v -12 9 12
v -11 9 12
v -14 9 9
v -12 9 9
v -11 9 9
v 5 9 9
v -14 9 8
v -12 9 8
v -11 9 8
v 5 9 8
v -14 9 5
v -12 9 5
v -11 9 5
v 5 10 14
v 12 10 14
v -11 10 13
v 5 10 13
v 12 10 13
v 13 10 13
v -11 10 9
v 5 10 9
v -11 10 8
v 5 10 8
v -11 10 4
v 5 10 4
v 12 10 4
v 13 10 4
v 5 10 3
v 12 10 3
v 5 11 13
v 12 11 13
v 5 11 4
v 12 11 4

# faces
f 5/3/1 2/3/1 1/3/1
f 6/3/1 2/3/1 5/3/1
f 7/3/1 4/3/1 3/3/1
f 8/3/1 4/3/1 7/3/1
f 9/3/1 5/3/1 1/3/1
f 10/3/1 2/3/1 6/3/1
f 11/3/1 7/3/1 3/3/1
f 12/3/1 4/3/1 8/3/1
f 13/3/1 9/3/1 1/3/1
f 13/3/1 10/3/1 9/3/1
f 14/3/1 2/3/1 10/3/1
f 14/3/1 10/3/1 13/3/1
f 15/3/1 12/3/1 11/3/1
f 15/3/1 11/3/1 3/3/1
f 16/3/1 4/3/1 12/3/1
f 16/3/1 12/3/1 15/3/1
f 21/3/1 18/3/1 17/3/1
f 22/3/1 18/3/1 21/3/1
f 23/3/1 20/3/1 19/3/1
f 24/3/1 20/3/1 23/3/1
f 25/3/1 21/3/1 17/3/1
f 26/3/1 18/3/1 22/3/1
f 27/3/1 23/3/1 19/3/1
f 28/3/1 20/3/1 24/3/1
f 29/3/1 25/3/1 17/3/1
f 29/3/1 26/3/1 25/3/1
f 30/3/1 18/3/1 26/3/1
f 30/3/1 26/3/1 29/3/1
f 31/3/1 28/3/1 27/3/1
f 31/3/1 27/3/1 19/3/1
f 32/3/1 20/3/1 28/3/1
f 32/3/1 28/3/1 31/3/1
f 37/3/1 34/3/1 33/3/1
f 38/3/1 34/3/1 37/3/1
f 39/3/1 36/3/1 35/3/1
f 40/3/1 36/3/1 39/3/1
f 45/3/1 42/3/1 41/3/1
f 46/3/1 42/3/1 45/3/1
f 47/3/1 44/3/1 43/3/1
f 48/3/1 44/3/1 47/3/1
f 53/5/1 50/5/1 49/5/1
f 54/5/1 50/5/1 53/5/1
f 55/5/1 52/5/1 51/5/1
f 56/5/1 52/5/1 55/5/1
f 57/5/1 53/5/1 49/5/1
f 58/5/1 53/5/1 57/5/1
f 59/5/1 55/5/1 54/5/1
f 60/5/1 55/5/1 59/5/1
f 61/5/1 52/5/1 56/5/1
f 62/5/1 52/5/1 61/5/1
f 64/5/1 60/5/1 59/5/1
f 64/5/1 61/5/1 60/5/1
f 64/5/1 59/5/1 58/5/1
f 65/5/1 61/5/1 64/5/1
f 66/5/1 61/5/1 65/5/1
f 67/5/1 61/5/1 66/5/1
f 69/5/1 64/5/1 63/5/1
f 70/5/1 66/5/1 65/5/1
f 71/5/1 66/5/1 70/5/1
f 72/5/1 68/5/1 67/5/1
f 73/5/1 69/5/1 63/5/1
f 73/5/1 70/5/1 69/5/1
f 74/5/1 70/5/1 73/5/1
f 75/5/1 72/5/1 71/5/1
f 76/5/1 68/5/1 72/5/1
f 76/5/1 72/5/1 75/5/1
f 80/1/1 78/1/1 77/1/1
f 81/5/1 80/5/1 79/5/1
f 82/1/1 78/1/1 80/1/1
f 82/5/1 80/5/1 81/5/1
f 83/1/1 78/1/1 82/1/1
f 84/1/1 78/1/1 83/1/1
f 87/1/1 86/1/1 85/1/1
f 88/1/1 86/1/1 87/1/1
f 91/1/1 90/1/1 89/1/1
f 92/1/1 90/1/1 91/1/1
f 95/1/1 94/1/1 93/1/1
f 96/1/1 94/1/1 95/1/1
f 99/1/1 98/1/1 97/1/1
f 100/1/1 98/1/1 99/1/1
f 103/4/1 102/4/1 101/4/1
f 104/4/1 102/4/1 103/4/1
f 108/1/1 106/1/1 105/1/1
f 109/1/1 106/1/1 108/1/1
f 110/1/1 106/1/1 109/1/1
f 111/1/1 106/1/1 110/1/1
f 113/1/1 110/1/1 109/1/1
f 114/1/1 110/1/1 113/1/1
f 115/1/1 108/1/1 107/1/1
f 117/1/1 112/1/1 111/1/1
f 118/1/1 112/1/1 117/1/1
f 119/1/1 116/1/1 115/1/1
f 119/1/1 115/1/1 107/1/1
f 120/1/1 116/1/1 119/1/1
f 125/1/1 119/1/1 107/1/1
f 126/1/1 119/1/1 125/1/1
f 127/1/1 124/1/1 123/1/1
f 128/1/1 124/1/1 127/1/1
f 129/1/1 122/1/1 121/1/1
f 130/1/1 122/1/1 129/1/1
f 131/1/1 128/1/1 127/1/1
f 131/1/1 129/1/1 128/1/1
f 131/1/1 127/1/1 126/1/1
f 132/1/1 129/1/1 131/1/1
f 135/2/1 134/2/1 133/2/1
f 136/2/1 134/2/1 135/2/1
f 139/2/1 138/2/1 137/2/1
f 140/2/1 138/2/1 139/2/1
f 143/2/1 142/2/1 141/2/1
f 144/2/1 142/2/1 143/2/1
f 147/2/1 146/2/1 145/2/1
f 148/2/1 146/2/1 147/2/1
f 151/2/1 150/2/1 149/2/1
f 153/2/1 152/2/1 151/2/1
f 154/2/1 152/2/1 153/2/1
f 156/2/1 153/2/1 151/2/1
f 157/2/1 155/2/1 154/2/1
f 158/2/1 155/2/1 157/2/1
f 159/2/1 151/2/1 149/2/1
f 159/2/1 156/2/1 151/2/1
f 159/2/1 157/2/1 156/2/1
f 160/2/1 157/2/1 159/2/1
f 161/2/1 159/2/1 149/2/1
f 162/2/1 159/2/1 161/2/1
f 165/2/1 164/2/1 163/2/1
f 166/2/1 164/2/1 165/2/1
f 169/2/1 168/2/1 167/2/1
f 170/2/1 168/2/1 169/2/1
f 173/4/1 172/4/1 171/4/1
f 174/4/1 172/4/1 173/4/1
f 178/4/1 176/4/1 175/4/1
f 179/4/1 178/4/1 177/4/1
f 180/4/1 176/4/1 178/4/1
f 180/4/1 178/4/1 179/4/1
f 181/4/1 176/4/1 180/4/1
f 182/4/1 176/4/1 181/4/1
f 183/1/2 184/1/2 185/1/2
f 185/1/2 184/1/2 186/1/2
f 187/1/2 188/1/2 189/1/2
f 189/1/2 188/1/2 190/1/2
f 191/1/2 192/1/2 193/1/2
f 193/1/2 192/1/2 194/1/2
f 195/1/2 196/1/2 197/1/2
f 197/1/2 196/1/2 198/1/2
f 198/1/2 196/1/2 200/1/2
f 199/1/2 200/1/2 201/1/2
f 200/1/2 196/1/2 202/1/2
f 201/1/2 200/1/2 202/1/2
f 203/2/2 204/2/2 205/2/2
f 205/2/2 204/2/2 206/2/2
f 203/2/2 205/2/2 207/2/2
f 203/2/2 207/2/2 209/2/2
f 207/2/2 208/2/2 209/2/2
f 209/2/2 208/2/2 210/2/2
f 211/1/2 212/1/2 214/1/2
f 214/1/2 212/1/2 215/1/2
f 217/4/2 218/4/2 219/4/2
f 219/4/2 218/4/2 220/4/2
f 213/1/2 214/1/2 221/1/2
f 221/1/2 214/1/2 222/1/2
f 215/1/2 216/1/2 223/1/2
f 223/1/2 216/1/2 224/1/2
f 222/1/2 223/1/2 225/1/2
f 225/1/2 223/1/2 226/1/2
f 229/4/2 230/4/2 234/4/2
f 233/4/2 234/4/2 235/4/2
f 234/4/2 230/4/2 236/4/2
f 235/4/2 234/4/2 236/4/2
f 231/2/2 232/2/2 237/2/2
f 237/2/2 232/2/2 238/2/2
f 236/4/2 230/4/2 239/4/2
f 239/4/2 230/4/2 240/4/2
f 227/2/2 228/2/2 241/2/2
f 241/2/2 228/2/2 242/2/2
f 243/2/2 244/2/2 245/2/2
f 245/2/2 244/2/2 246/2/2
f 249/1/3 248/1/3 247/1/3
f 250/1/3 248/1/3 249/1/3
f 256/5/3 252/5/3 251/5/3
f 257/5/3 252/5/3 256/5/3
f 258/5/3 254/5/3 253/5/3
f 259/5/3 254/5/3 258/5/3
f 261/1/3 256/1/3 255/1/3
f 262/1/3 256/1/3 261/1/3
f 263/1/3 260/1/3 259/1/3
f 264/1/3 260/1/3 263/1/3
f 265/2/3 263/2/3 262/2/3
f 266/2/3 263/2/3 265/2/3
f 271/3/3 268/3/3 267/3/3
f 272/3/3 268/3/3 271/3/3
f 273/3/3 270/3/3 269/3/3
f 274/3/3 270/3/3 273/3/3
f 275/2/3 272/2/3 271/2/3
f 276/2/3 272/2/3 275/2/3
f 277/2/3 274/2/3 273/2/3
f 278/2/3 274/2/3 277/2/3
f 279/5/3 277/5/3 276/5/3
f 280/5/3 277/5/3 279/5/3
f 285/3/3 282/3/3 281/3/3
f 286/3/3 282/3/3 285/3/3
f 287/3/3 284/3/3 283/3/3
f 288/3/3 284/3/3 287/3/3
f 293/3/3 290/3/3 289/3/3
f 294/3/3 290/3/3 293/3/3
f 295/3/3 292/3/3 291/3/3
f 296/3/3 292/3/3 295/3/3
f 298/2/3 294/2/3 293/2/3
f 299/2/3 294/2/3 298/2/3
f 300/2/3 296/2/3 295/2/3
f 301/2/3 296/2/3 300/2/3
f 303/5/3 298/5/3 297/5/3
f 304/5/3 298/5/3 303/5/3
f 305/5/3 302/5/3 301/5/3
f 306/5/3 302/5/3 305/5/3
f 311/3/3 308/3/3 307/3/3
f 312/3/3 308/3/3 311/3/3
f 313/3/3 310/3/3 309/3/3
f 314/3/3 310/3/3 313/3/3
f 317/1/3 316/1/3 315/1/3
f 318/1/3 316/1/3 317/1/3
f 321/2/3 320/2/3 319/2/3
f 322/2/3 320/2/3 321/2/3
f 325/1/3 324/1/3 323/1/3
f 326/1/3 324/1/3 325/1/3
f 329/1/3 328/1/3 327/1/3
f 330/1/3 328/1/3 329/1/3
f 331/1/3 328/1/3 330/1/3
f 332/1/3 328/1/3 331/1/3
f 333/2/3 331/2/3 330/2/3
f 334/2/3 331/2/3 333/2/3
f 337/2/3 336/2/3 335/2/3
f 338/2/3 336/2/3 337/2/3
f 341/4/3 340/4/3 339/4/3
f 342/4/3 340/4/3 341/4/3
f 347/4/3 344/4/3 343/4/3
f 348/4/3 344/4/3 347/4/3
f 349/4/3 346/4/3 345/4/3
f 350/4/3 346/4/3 349/4/3
f 351/3/4 352/3/4 355/3/4
f 355/3/4 352/3/4 356/3/4
f 353/3/4 354/3/4 357/3/4
f 357/3/4 354/3/4 358/3/4
f 359/3/4 360/3/4 363/3/4
f 363/3/4 360/3/4 364/3/4
f 361/3/4 362/3/4 365/3/4
f 365/3/4 362/3/4 366/3/4
f 363/2/4 364/2/4 368/2/4
f 368/2/4 364/2/4 369/2/4
f 365/2/4 366/2/4 370/2/4
f 370/2/4 366/2/4 371/2/4
f 367/5/4 368/5/4 373/5/4
f 373/5/4 368/5/4 374/5/4
f 371/5/4 372/5/4 375/5/4
f 375/5/4 372/5/4 376/5/4
f 377/3/4 378/3/4 381/3/4
f 381/3/4 378/3/4 382/3/4
f 379/3/4 380/3/4 383/3/4
f 383/3/4 380/3/4 384/3/4
f 385/3/4 386/3/4 389/3/4
f 389/3/4 386/3/4 390/3/4
f 387/3/4 388/3/4 391/3/4
f 391/3/4 388/3/4 392/3/4
f 389/2/4 390/2/4 393/2/4
f 393/2/4 390/2/4 394/2/4
f 391/2/4 392/2/4 395/2/4
f 395/2/4 392/2/4 396/2/4
f 394/5/4 395/5/4 397/5/4
f 397/5/4 395/5/4 398/5/4
f 399/5/4 400/5/4 403/5/4
f 403/5/4 400/5/4 404/5/4
f 401/5/4 402/5/4 405/5/4
f 405/5/4 402/5/4 406/5/4
f 399/5/4 403/5/4 407/5/4
f 406/5/4 402/5/4 408/5/4
f 407/5/4 408/5/4 409/5/4
f 409/5/4 408/5/4 410/5/4
f 399/5/4 407/5/4 412/5/4
f 407/5/4 409/5/4 412/5/4
f 412/5/4 409/5/4 413/5/4
f 410/5/4 408/5/4 414/5/4
f 408/5/4 402/5/4 415/5/4
f 414/5/4 408/5/4 415/5/4
f 411/1/4 412/1/4 417/1/4
f 417/1/4 412/1/4 418/1/4
f 415/1/4 416/1/4 419/1/4
f 419/1/4 416/1/4 420/1/4
f 418/2/4 419/2/4 421/2/4
f 421/2/4 419/2/4 422/2/4
f 423/1/4 424/1/4 427/1/4
f 427/1/4 424/1/4 428/1/4
f 425/1/4 426/1/4 429/1/4
f 429/1/4 426/1/4 430/1/4
f 423/1/4 427/1/4 431/1/4
f 430/1/4 426/1/4 432/1/4
f 423/1/4 431/1/4 433/1/4
f 431/1/4 432/1/4 433/1/4
f 432/1/4 426/1/4 434/1/4
f 433/1/4 432/1/4 434/1/4
f 435/1/4 436/1/4 437/1/4
f 437/1/4 436/1/4 438/1/4
f 439/2/4 440/2/4 443/2/4
f 443/2/4 440/2/4 444/2/4
f 441/2/4 442/2/4 445/2/4
f 445/2/4 442/2/4 446/2/4
f 447/1/4 448/1/4 449/1/4
f 449/1/4 448/1/4 450/1/4
f 451/4/4 452/4/4 454/4/4
f 454/4/4 452/4/4 455/4/4
f 454/2/4 455/2/4 457/2/4
f 455/2/4 456/2/4 457/2/4
f 453/2/4 454/2/4 457/2/4
f 457/2/4 456/2/4 458/2/4
f 459/1/4 460/1/4 461/1/4
f 461/1/4 460/1/4 462/1/4
f 463/2/4 464/2/4 467/2/4
f 467/2/4 464/2/4 468/2/4
f 465/2/4 466/2/4 469/2/4
f 469/2/4 466/2/4 470/2/4
f 471/1/4 472/1/4 473/1/4
f 473/1/4 472/1/4 474/1/4
f 475/2/4 476/2/4 478/2/4
f 478/2/4 476/2/4 479/2/4
f 477/2/4 478/2/4 481/2/4
f 481/2/4 478/2/4 482/2/4
f 479/2/4 480/2/4 483/2/4
f 483/2/4 480/2/4 484/2/4
f 485/1/4 486/1/4 487/1/4
f 487/1/4 486/1/4 488/1/4
f 489/2/4 490/2/4 492/2/4
f 492/2/4 490/2/4 493/2/4
f 491/2/4 492/2/4 495/2/4
f 493/2/4 494/2/4 495/2/4
f 492/2/4 493/2/4 495/2/4
f 495/2/4 494/2/4 496/2/4
f 491/2/4 495/2/4 497/2/4
f 496/2/4 494/2/4 498/2/4
f 491/2/4 497/2/4 499/2/4
f 497/2/4 498/2/4 499/2/4
f 498/2/4 494/2/4 500/2/4
f 499/2/4 498/2/4 500/2/4
f 501/4/4 502/4/4 503/4/4
f 503/4/4 502/4/4 504/4/4
f 505/4/4 506/4/4 507/4/4
f 507/4/4 506/4/4 508/4/4
f 511/1/5 510/1/5 509/1/5
f 512/1/5 510/1/5 511/1/5
f 516/1/5 514/1/5 513/1/5
f 517/1/5 514/1/5 516/1/5
f 519/5/5 516/5/5 515/5/5
f 520/5/5 516/5/5 519/5/5
f 523/5/5 522/5/5 521/5/5
f 524/5/5 522/5/5 523/5/5
f 525/2/5 518/2/5 517/2/5
f 526/2/5 518/2/5 525/2/5
f 527/1/5 525/1/5 524/1/5
f 528/1/5 525/1/5 527/1/5
f 532/3/5 530/3/5 529/3/5
f 533/2/5 531/2/5 530/2/5
f 533/3/5 530/3/5 532/3/5
f 534/2/5 531/2/5 533/2/5
f 538/5/5 535/5/5 534/5/5
f 539/5/5 535/5/5 538/5/5
f 540/3/5 537/3/5 536/3/5
f 541/2/5 538/2/5 537/2/5
f 541/3/5 537/3/5 540/3/5
f 542/2/5 538/2/5 541/2/5
f 545/2/5 544/2/5 543/2/5
f 546/2/5 544/2/5 545/2/5
f 547/2/5 544/2/5 546/2/5
f 548/2/5 544/2/5 547/2/5
f 549/2/5 544/2/5 548/2/5
f 550/2/5 544/2/5 549/2/5
f 553/4/5 552/4/5 551/4/5
f 554/4/5 552/4/5 553/4/5
f 557/3/5 556/3/5 555/3/5
f 558/3/5 556/3/5 557/3/5
f 561/3/5 560/3/5 559/3/5
f 562/3/5 560/3/5 561/3/5
f 565/1/5 564/1/5 563/1/5
f 566/1/5 564/1/5 565/1/5
f 567/1/5 564/1/5 566/1/5
f 571/1/5 567/1/5 566/1/5
f 571/1/5 568/1/5 567/1/5
f 572/1/5 568/1/5 571/1/5
f 573/1/5 568/1/5 572/1/5
f 575/1/5 574/1/5 573/1/5
f 575/1/5 573/1/5 572/1/5
f 576/1/5 574/1/5 575/1/5
f 578/2/5 570/2/5 569/2/5
f 579/1/5 574/1/5 576/1/5
f 581/1/5 579/1/5 576/1/5
f 581/1/5 580/1/5 579/1/5
f 582/1/5 580/1/5 581/1/5
f 583/2/5 578/2/5 577/2/5
f 583/2/5 570/2/5 578/2/5
f 585/2/5 584/2/5 583/2/5
f 585/2/5 583/2/5 577/2/5
f 586/2/5 584/2/5 585/2/5
f 587/1/5 580/1/5 582/1/5
f 588/1/5 580/1/5 587/1/5
f 589/2/5 584/2/5 586/2/5
f 590/2/5 584/2/5 589/2/5
f 593/4/5 592/4/5 591/4/5
f 595/4/5 594/4/5 593/4/5
f 597/4/5 593/4/5 591/4/5
f 597/4/5 596/4/5 595/4/5
f 597/4/5 595/4/5 593/4/5
f 598/4/5 596/4/5 597/4/5
f 601/2/5 600/2/5 599/2/5
f 602/2/5 600/2/5 601/2/5
f 604/2/5 603/2/5 602/2/5
f 605/2/5 603/2/5 604/2/5
f 608/4/5 607/4/5 606/4/5
f 610/4/5 608/4/5 606/4/5
f 610/4/5 609/4/5 608/4/5
f 611/4/5 609/4/5 610/4/5
f 612/4/5 609/4/5 611/4/5
f 613/4/5 609/4/5 612/4/5
f 618/5/5 615/5/5 614/5/5
f 619/5/5 615/5/5 618/5/5
f 620/3/5 617/3/5 616/3/5
f 621/2/5 618/2/5 617/2/5
f 621/3/5 617/3/5 620/3/5
f 622/2/5 618/2/5 621/2/5
f 626/3/5 624/3/5 623/3/5
f 627/2/5 625/2/5 624/2/5
f 627/3/5 624/3/5 626/3/5
f 628/2/5 625/2/5 627/2/5
f 630/5/5 629/5/5 628/5/5
f 631/5/5 629/5/5 630/5/5
f 634/3/5 633/3/5 632/3/5
f 635/3/5 633/3/5 634/3/5
f 638/3/5 637/3/5 636/3/5
f 639/3/5 637/3/5 638/3/5
f 640/3/6 641/3/6 642/3/6
f 642/3/6 641/3/6 643/3/6
f 644/3/6 645/3/6 646/3/6
f 646/3/6 645/3/6 647/3/6
f 648/5/6 649/5/6 652/5/6
f 652/5/6 649/5/6 653/5/6
f 650/3/6 651/3/6 654/3/6
f 651/2/6 652/2/6 655/2/6
f 654/3/6 651/3/6 655/3/6
f 655/2/6 652/2/6 656/2/6
f 657/3/6 658/3/6 660/3/6
f 658/2/6 659/2/6 661/2/6
f 660/3/6 658/3/6 661/3/6
f 661/2/6 659/2/6 662/2/6
f 662/5/6 663/5/6 664/5/6
f 664/5/6 663/5/6 665/5/6
f 666/4/6 667/4/6 668/4/6
f 668/4/6 669/4/6 670/4/6
f 666/4/6 668/4/6 672/4/6
f 670/4/6 671/4/6 672/4/6
f 668/4/6 670/4/6 672/4/6
f 672/4/6 671/4/6 673/4/6
f 674/2/6 675/2/6 676/2/6
f 676/2/6 675/2/6 677/2/6
f 677/2/6 678/2/6 679/2/6
f 679/2/6 678/2/6 680/2/6
f 681/4/6 682/4/6 683/4/6
f 681/4/6 683/4/6 685/4/6
f 683/4/6 684/4/6 685/4/6
f 685/4/6 684/4/6 686/4/6
f 686/4/6 684/4/6 687/4/6
f 687/4/6 684/4/6 688/4/6
f 689/3/6 690/3/6 691/3/6
f 691/3/6 690/3/6 692/3/6
f 693/3/6 694/3/6 695/3/6
f 695/3/6 694/3/6 696/3/6
f 697/1/6 698/1/6 699/1/6
f 699/1/6 698/1/6 700/1/6
f 700/1/6 698/1/6 701/1/6
f 700/1/6 701/1/6 705/1/6
f 701/1/6 702/1/6 705/1/6
f 705/1/6 702/1/6 706/1/6
f 706/1/6 702/1/6 707/1/6
f 707/1/6 708/1/6 709/1/6
f 706/1/6 707/1/6 709/1/6
f 709/1/6 708/1/6 710/1/6
f 703/2/6 704/2/6 712/2/6
f 710/1/6 708/1/6 713/1/6
f 710/1/6 713/1/6 715/1/6
f 713/1/6 714/1/6 715/1/6
f 715/1/6 714/1/6 716/1/6
f 711/2/6 712/2/6 717/2/6
f 712/2/6 704/2/6 717/2/6
f 717/2/6 718/2/6 719/2/6
f 711/2/6 717/2/6 719/2/6
f 719/2/6 718/2/6 720/2/6
f 716/1/6 714/1/6 721/1/6
f 721/1/6 714/1/6 722/1/6
f 720/2/6 718/2/6 723/2/6
f 723/2/6 718/2/6 724/2/6
f 725/2/6 726/2/6 727/2/6
f 727/2/6 726/2/6 728/2/6
f 728/2/6 726/2/6 729/2/6
f 729/2/6 726/2/6 730/2/6
f 730/2/6 726/2/6 731/2/6
f 731/2/6 726/2/6 732/2/6
f 733/4/6 734/4/6 735/4/6
f 735/4/6 734/4/6 736/4/6
f 737/3/6 738/3/6 740/3/6
f 738/2/6 739/2/6 741/2/6
f 740/3/6 738/3/6 741/3/6
f 741/2/6 739/2/6 742/2/6
f 742/5/6 743/5/6 746/5/6
f 746/5/6 743/5/6 747/5/6
f 744/3/6 745/3/6 748/3/6
f 745/2/6 746/2/6 749/2/6
f 748/3/6 745/3/6 749/3/6
f 749/2/6 746/2/6 750/2/6
f 751/1/6 752/1/6 754/1/6
f 754/1/6 752/1/6 755/1/6
f 753/5/6 754/5/6 757/5/6
f 757/5/6 754/5/6 758/5/6
f 759/5/6 760/5/6 761/5/6
f 761/5/6 760/5/6 762/5/6
f 755/2/6 756/2/6 763/2/6
f 763/2/6 756/2/6 764/2/6
f 762/1/6 763/1/6 765/1/6
f 765/1/6 763/1/6 766/1/6
f 767/1/6 768/1/6 769/1/6
f 769/1/6 768/1/6 770/1/6
