# MagicaVoxel @ Ephtracy

# group
g gamkedo-book

# material
mtllib gamkedo-book.mtl
usemtl palette

# normals
vn -1 0 0
vn 1 0 0
vn 0 0 1
vn 0 0 -1
vn 0 -1 0
vn 0 1 0

# texcoords
vt 0.0292969 0.5
vt 0.958984 0.5
vt 0.966797 0.5

# verts
v -19.5 0 4
v -19.5 0 -4
v -19.5 3 2
v -19.5 3 -1
v -19.5 4 1
v -19.5 4 -0
v -19.5 5 1
v -19.5 5 -0
v -19.5 6 2
v -19.5 6 -1
v -19.5 7 3
v -19.5 7 -1
v -19.5 8 3
v -19.5 8 2
v -19.5 8 1
v -19.5 8 -0
v -19.5 9 2
v -19.5 9 1
v -19.5 9 -0
v -19.5 10 1
v -19.5 10 -1
v -19.5 12 2
v -19.5 12 1
v -19.5 12 -0
v -19.5 12 -1
v -19.5 13 3
v -19.5 13 2
v -19.5 14 3
v -19.5 14 2
v -19.5 14 1
v -19.5 14 -0
v -19.5 15 2
v -19.5 15 -1
v -19.5 16 2
v -19.5 16 1
v -19.5 16 -0
v -19.5 16 -1
v -19.5 17 2
v -19.5 17 1
v -19.5 17 -0
v -19.5 17 -1
v -19.5 18 3
v -19.5 18 1
v -19.5 18 -0
v -19.5 18 -1
v -19.5 19 3
v -19.5 19 -1
v -19.5 21 1
v -19.5 21 -1
v -19.5 22 -0
v -19.5 22 -1
v -19.5 23 -0
v -19.5 23 -1
v -19.5 24 -0
v -19.5 24 -1
v -19.5 25 2
v -19.5 25 1
v -19.5 25 -0
v -19.5 25 -1
v -19.5 26 2
v -19.5 26 -1
v -19.5 27 -0
v -19.5 27 -1
v -19.5 28 2
v -19.5 28 -0
v -19.5 29 1
v -19.5 29 -0
v -19.5 30 1
v -19.5 30 -0
v -19.5 31 2
v -19.5 31 -1
v -19.5 32 2
v -19.5 32 -3
v -19.5 33 1
v -19.5 33 -0
v -19.5 33 -1
v -19.5 33 -2
v -19.5 34 1
v -19.5 34 -0
v -19.5 35 2
v -19.5 35 -1
v -19.5 35 -2
v -19.5 35 -3
v -19.5 39 4
v -19.5 39 -4
v -18.5 0 3
v -18.5 0 -3
v -18.5 1 3
v -18.5 1 2
v -18.5 1 1
v -18.5 1 -0
v -18.5 1 -1
v -18.5 1 -2
v -18.5 1 -3
v -18.5 38 3
v -18.5 38 2
v -18.5 38 1
v -18.5 38 -0
v -18.5 38 -1
v -18.5 38 -2
v -18.5 38 -3
v -18.5 39 3
v -18.5 39 -3
v 18.5 1 3
v 18.5 1 2
v 18.5 1 1
v 18.5 1 -0
v 18.5 1 -1
v 18.5 1 -2
v 18.5 1 -3
v 18.5 38 3
v 18.5 38 2
v 18.5 38 1
v 18.5 38 -0
v 18.5 38 -1
v 18.5 38 -2
v 18.5 38 -3
v 19.5 0 4
v 19.5 0 3
v 19.5 0 -3
v 19.5 0 -4
v 19.5 39 4
v 19.5 39 3
v 19.5 39 -3
v 19.5 39 -4
v -19.5 0 4
v -19.5 39 4
v -13.5 10 4
v -13.5 29 4
v -12.5 9 4
v -12.5 10 4
v -12.5 29 4
v -12.5 30 4
v -11.5 8 4
v -11.5 9 4
v -11.5 30 4
v -11.5 31 4
v -10.5 9 4
v -10.5 31 4
v -9.5 9 4
v -9.5 10 4
v -8.5 10 4
v -8.5 11 4
v -7.5 11 4
v -7.5 12 4
v -7.5 15 4
v -7.5 29 4
v -6.5 8 4
v -6.5 9 4
v -6.5 12 4
v -6.5 13 4
v -6.5 15 4
v -6.5 16 4
v -5.5 9 4
v -5.5 10 4
v -5.5 13 4
v -5.5 14 4
v -5.5 16 4
v -5.5 17 4
v -4.5 10 4
v -4.5 11 4
v -4.5 14 4
v -4.5 15 4
v -4.5 17 4
v -4.5 18 4
v -4.5 22 4
v -4.5 26 4
v -3.5 11 4
v -3.5 12 4
v -3.5 15 4
v -3.5 16 4
v -3.5 18 4
v -3.5 19 4
v -3.5 22 4
v -3.5 23 4
v -2.5 12 4
v -2.5 13 4
v -2.5 16 4
v -2.5 17 4
v -2.5 19 4
v -2.5 20 4
v -2.5 23 4
v -2.5 24 4
v -1.5 13 4
v -1.5 14 4
v -1.5 17 4
v -1.5 18 4
v -1.5 20 4
v -1.5 21 4
v -0.5 14 4
v -0.5 15 4
v -0.5 18 4
v -0.5 19 4
v -0.5 21 4
v -0.5 22 4
v 0.5 15 4
v 0.5 16 4
v 0.5 19 4
v 0.5 20 4
v 0.5 22 4
v 0.5 23 4
v 1.5 15 4
v 1.5 16 4
v 1.5 20 4
v 1.5 21 4
v 1.5 23 4
v 1.5 24 4
v 2.5 14 4
v 2.5 15 4
v 2.5 21 4
v 2.5 22 4
v 3.5 13 4
v 3.5 14 4
v 3.5 17 4
v 3.5 19 4
v 3.5 22 4
v 3.5 23 4
v 4.5 12 4
v 4.5 13 4
v 4.5 16 4
v 4.5 17 4
v 4.5 19 4
v 4.5 20 4
v 4.5 23 4
v 4.5 24 4
v 5.5 11 4
v 5.5 12 4
v 5.5 15 4
v 5.5 16 4
v 5.5 20 4
v 5.5 21 4
v 5.5 24 4
v 5.5 25 4
v 6.5 10 4
v 6.5 11 4
v 6.5 14 4
v 6.5 15 4
v 6.5 21 4
v 6.5 22 4
v 6.5 25 4
v 6.5 26 4
v 7.5 9 4
v 7.5 10 4
v 7.5 13 4
v 7.5 14 4
v 7.5 22 4
v 7.5 23 4
v 8.5 8 4
v 8.5 9 4
v 8.5 12 4
v 8.5 13 4
v 8.5 23 4
v 8.5 24 4
v 9.5 11 4
v 9.5 12 4
v 9.5 24 4
v 9.5 25 4
v 10.5 10 4
v 10.5 11 4
v 10.5 25 4
v 10.5 26 4
v 11.5 9 4
v 11.5 10 4
v 11.5 26 4
v 11.5 27 4
v 12.5 8 4
v 12.5 9 4
v 12.5 27 4
v 12.5 28 4
v 13.5 28 4
v 13.5 29 4
v 19.5 0 4
v 19.5 39 4
v -18.5 0 -3
v -18.5 1 -3
v -18.5 38 -3
v -18.5 39 -3
v 18.5 1 -3
v 18.5 38 -3
v 19.5 0 -3
v 19.5 39 -3
v -18.5 0 3
v -18.5 1 3
v -18.5 38 3
v -18.5 39 3
v 18.5 1 3
v 18.5 38 3
v 19.5 0 3
v 19.5 39 3
v -19.5 0 -4
v -19.5 39 -4
v 19.5 0 -4
v 19.5 39 -4
v -19.5 0 4
v 19.5 0 4
v -18.5 0 3
v 19.5 0 3
v -18.5 0 -3
v 19.5 0 -3
v -19.5 0 -4
v 19.5 0 -4
v -18.5 1 3
v 18.5 1 3
v -18.5 1 2
v 18.5 1 2
v -18.5 1 1
v 18.5 1 1
v -18.5 1 -0
v 18.5 1 -0
v -18.5 1 -1
v 18.5 1 -1
v -18.5 1 -2
v 18.5 1 -2
v -18.5 1 -3
v 18.5 1 -3
v -18.5 38 3
v 18.5 38 3
v -18.5 38 2
v 18.5 38 2
v -18.5 38 1
v 18.5 38 1
v -18.5 38 -0
v 18.5 38 -0
v -18.5 38 -1
v 18.5 38 -1
v -18.5 38 -2
v 18.5 38 -2
v -18.5 38 -3
v 18.5 38 -3
v -19.5 39 4
v 19.5 39 4
v -18.5 39 3
v 19.5 39 3
v -18.5 39 -3
v 19.5 39 -3
v -19.5 39 -4
v 19.5 39 -4

# faces
f 3/2/1 2/2/1 1/2/1
f 4/2/1 2/2/1 3/2/1
f 5/1/1 4/1/1 3/1/1
f 6/1/1 4/1/1 5/1/1
f 7/1/1 5/1/1 3/1/1
f 7/2/1 6/2/1 5/2/1
f 8/1/1 4/1/1 6/1/1
f 8/2/1 6/2/1 7/2/1
f 9/2/1 3/2/1 1/2/1
f 9/1/1 7/1/1 3/1/1
f 9/1/1 8/1/1 7/1/1
f 10/1/1 4/1/1 8/1/1
f 10/1/1 8/1/1 9/1/1
f 10/2/1 2/2/1 4/2/1
f 11/2/1 9/2/1 1/2/1
f 11/2/1 10/2/1 9/2/1
f 12/2/1 2/2/1 10/2/1
f 12/2/1 10/2/1 11/2/1
f 13/2/1 11/2/1 1/2/1
f 13/1/1 12/1/1 11/1/1
f 14/1/1 12/1/1 13/1/1
f 15/1/1 12/1/1 14/1/1
f 16/1/1 12/1/1 15/1/1
f 17/2/1 14/2/1 13/2/1
f 17/1/1 15/1/1 14/1/1
f 18/2/1 16/2/1 15/2/1
f 18/1/1 15/1/1 17/1/1
f 19/1/1 12/1/1 16/1/1
f 19/2/1 16/2/1 18/2/1
f 20/2/1 18/2/1 17/2/1
f 20/1/1 19/1/1 18/1/1
f 21/2/1 2/2/1 12/2/1
f 21/1/1 19/1/1 20/1/1
f 21/1/1 12/1/1 19/1/1
f 22/2/1 20/2/1 17/2/1
f 22/2/1 17/2/1 13/2/1
f 22/2/1 21/2/1 20/2/1
f 23/2/1 21/2/1 22/2/1
f 24/2/1 21/2/1 23/2/1
f 25/2/1 2/2/1 21/2/1
f 25/2/1 21/2/1 24/2/1
f 26/2/1 13/2/1 1/2/1
f 26/2/1 22/2/1 13/2/1
f 27/1/1 23/1/1 22/1/1
f 27/2/1 22/2/1 26/2/1
f 28/2/1 26/2/1 1/2/1
f 28/1/1 27/1/1 26/1/1
f 29/1/1 23/1/1 27/1/1
f 29/1/1 27/1/1 28/1/1
f 30/2/1 24/2/1 23/2/1
f 30/1/1 23/1/1 29/1/1
f 31/1/1 25/1/1 24/1/1
f 31/2/1 24/2/1 30/2/1
f 32/2/1 29/2/1 28/2/1
f 32/1/1 30/1/1 29/1/1
f 32/1/1 31/1/1 30/1/1
f 33/1/1 25/1/1 31/1/1
f 33/1/1 31/1/1 32/1/1
f 33/2/1 2/2/1 25/2/1
f 34/2/1 32/2/1 28/2/1
f 34/2/1 33/2/1 32/2/1
f 35/2/1 33/2/1 34/2/1
f 36/2/1 33/2/1 35/2/1
f 37/2/1 2/2/1 33/2/1
f 37/2/1 33/2/1 36/2/1
f 38/2/1 34/2/1 28/2/1
f 38/1/1 35/1/1 34/1/1
f 39/2/1 36/2/1 35/2/1
f 39/1/1 35/1/1 38/1/1
f 40/1/1 37/1/1 36/1/1
f 40/2/1 36/2/1 39/2/1
f 41/2/1 2/2/1 37/2/1
f 41/1/1 37/1/1 40/1/1
f 42/2/1 38/2/1 28/2/1
f 42/2/1 28/2/1 1/2/1
f 42/2/1 39/2/1 38/2/1
f 43/1/1 40/1/1 39/1/1
f 43/2/1 39/2/1 42/2/1
f 44/2/1 41/2/1 40/2/1
f 44/1/1 40/1/1 43/1/1
f 45/2/1 2/2/1 41/2/1
f 45/2/1 41/2/1 44/2/1
f 46/1/1 44/1/1 43/1/1
f 46/1/1 43/1/1 42/1/1
f 46/1/1 45/1/1 44/1/1
f 46/2/1 42/2/1 1/2/1
f 47/2/1 2/2/1 45/2/1
f 47/1/1 45/1/1 46/1/1
f 48/2/1 47/2/1 46/2/1
f 49/2/1 2/2/1 47/2/1
f 49/2/1 47/2/1 48/2/1
f 50/1/1 49/1/1 48/1/1
f 51/2/1 2/2/1 49/2/1
f 51/1/1 49/1/1 50/1/1
f 52/1/1 50/1/1 48/1/1
f 52/2/1 51/2/1 50/2/1
f 53/2/1 2/2/1 51/2/1
f 53/2/1 51/2/1 52/2/1
f 54/1/1 52/1/1 48/1/1
f 54/1/1 53/1/1 52/1/1
f 55/2/1 2/2/1 53/2/1
f 55/1/1 53/1/1 54/1/1
f 56/2/1 48/2/1 46/2/1
f 57/1/1 54/1/1 48/1/1
f 57/2/1 48/2/1 56/2/1
f 58/2/1 55/2/1 54/2/1
f 58/1/1 54/1/1 57/1/1
f 59/2/1 2/2/1 55/2/1
f 59/2/1 55/2/1 58/2/1
f 60/1/1 58/1/1 57/1/1
f 60/2/1 56/2/1 46/2/1
f 60/1/1 59/1/1 58/1/1
f 60/1/1 57/1/1 56/1/1
f 61/2/1 2/2/1 59/2/1
f 61/1/1 59/1/1 60/1/1
f 62/2/1 61/2/1 60/2/1
f 63/2/1 2/2/1 61/2/1
f 63/2/1 61/2/1 62/2/1
f 64/2/1 60/2/1 46/2/1
f 64/2/1 62/2/1 60/2/1
f 65/1/1 63/1/1 62/1/1
f 65/2/1 62/2/1 64/2/1
f 66/1/1 65/1/1 64/1/1
f 67/1/1 63/1/1 65/1/1
f 67/1/1 65/1/1 66/1/1
f 68/1/1 66/1/1 64/1/1
f 68/2/1 67/2/1 66/2/1
f 69/1/1 63/1/1 67/1/1
f 69/2/1 67/2/1 68/2/1
f 70/2/1 64/2/1 46/2/1
f 70/1/1 68/1/1 64/1/1
f 70/1/1 69/1/1 68/1/1
f 71/2/1 2/2/1 63/2/1
f 71/1/1 69/1/1 70/1/1
f 71/1/1 63/1/1 69/1/1
f 72/2/1 70/2/1 46/2/1
f 72/2/1 71/2/1 70/2/1
f 73/2/1 2/2/1 71/2/1
f 73/2/1 71/2/1 72/2/1
f 74/1/1 73/1/1 72/1/1
f 75/1/1 73/1/1 74/1/1
f 76/1/1 73/1/1 75/1/1
f 77/1/1 73/1/1 76/1/1
f 78/1/1 74/1/1 72/1/1
f 78/2/1 75/2/1 74/2/1
f 79/1/1 76/1/1 75/1/1
f 79/2/1 75/2/1 78/2/1
f 80/2/1 72/2/1 46/2/1
f 80/1/1 78/1/1 72/1/1
f 80/1/1 79/1/1 78/1/1
f 81/1/1 76/1/1 79/1/1
f 81/1/1 79/1/1 80/1/1
f 81/2/1 77/2/1 76/2/1
f 82/1/1 73/1/1 77/1/1
f 82/2/1 77/2/1 81/2/1
f 83/2/1 2/2/1 73/2/1
f 83/1/1 73/1/1 82/1/1
f 84/2/1 46/2/1 1/2/1
f 84/2/1 80/2/1 46/2/1
f 84/2/1 83/2/1 82/2/1
f 84/2/1 81/2/1 80/2/1
f 84/2/1 82/2/1 81/2/1
f 85/2/1 2/2/1 83/2/1
f 85/2/1 83/2/1 84/2/1
f 86/2/2 87/2/2 88/2/2
f 88/2/2 87/2/2 89/2/2
f 89/2/2 87/2/2 90/2/2
f 90/2/2 87/2/2 91/2/2
f 91/2/2 87/2/2 92/2/2
f 92/2/2 87/2/2 93/2/2
f 93/2/2 87/2/2 94/2/2
f 95/2/2 96/2/2 102/2/2
f 100/2/2 101/2/2 102/2/2
f 99/2/2 100/2/2 102/2/2
f 98/2/2 99/2/2 102/2/2
f 97/2/2 98/2/2 102/2/2
f 96/2/2 97/2/2 102/2/2
f 102/2/2 101/2/2 103/2/2
f 104/3/2 105/3/2 111/3/2
f 105/2/2 106/2/2 112/2/2
f 111/3/2 105/3/2 112/3/2
f 106/3/2 107/3/2 113/3/2
f 112/2/2 106/2/2 113/2/2
f 107/2/2 108/2/2 114/2/2
f 113/3/2 107/3/2 114/3/2
f 108/3/2 109/3/2 115/3/2
f 114/2/2 108/2/2 115/2/2
f 109/2/2 110/2/2 116/2/2
f 115/3/2 109/3/2 116/3/2
f 116/2/2 110/2/2 117/2/2
f 118/2/2 119/2/2 122/2/2
f 122/2/2 119/2/2 123/2/2
f 120/2/2 121/2/2 124/2/2
f 124/2/2 121/2/2 125/2/2
f 128/2/3 127/2/3 126/2/3
f 129/2/3 127/2/3 128/2/3
f 130/2/3 128/2/3 126/2/3
f 131/1/3 129/1/3 128/1/3
f 131/2/3 128/2/3 130/2/3
f 132/2/3 127/2/3 129/2/3
f 132/1/3 129/1/3 131/1/3
f 133/2/3 127/2/3 132/2/3
f 134/2/3 130/2/3 126/2/3
f 135/1/3 131/1/3 130/1/3
f 135/2/3 130/2/3 134/2/3
f 135/1/3 132/1/3 131/1/3
f 135/1/3 133/1/3 132/1/3
f 136/2/3 127/2/3 133/2/3
f 136/1/3 133/1/3 135/1/3
f 137/2/3 127/2/3 136/2/3
f 138/1/3 135/1/3 134/1/3
f 138/1/3 136/1/3 135/1/3
f 138/1/3 137/1/3 136/1/3
f 139/2/3 127/2/3 137/2/3
f 139/1/3 137/1/3 138/1/3
f 140/1/3 138/1/3 134/1/3
f 140/2/3 139/2/3 138/2/3
f 141/2/3 139/2/3 140/2/3
f 142/1/3 141/1/3 140/1/3
f 142/2/3 139/2/3 141/2/3
f 143/2/3 139/2/3 142/2/3
f 144/1/3 143/1/3 142/1/3
f 144/2/3 139/2/3 143/2/3
f 145/2/3 139/2/3 144/2/3
f 146/2/3 139/2/3 145/2/3
f 147/2/3 139/2/3 146/2/3
f 148/2/3 134/2/3 126/2/3
f 148/1/3 140/1/3 134/1/3
f 148/1/3 142/1/3 140/1/3
f 148/1/3 144/1/3 142/1/3
f 148/1/3 145/1/3 144/1/3
f 149/1/3 145/1/3 148/1/3
f 150/2/3 146/2/3 145/2/3
f 150/1/3 145/1/3 149/1/3
f 151/2/3 146/2/3 150/2/3
f 152/1/3 147/1/3 146/1/3
f 152/2/3 146/2/3 151/2/3
f 153/1/3 147/1/3 152/1/3
f 154/1/3 151/1/3 150/1/3
f 154/2/3 149/2/3 148/2/3
f 154/1/3 150/1/3 149/1/3
f 155/1/3 151/1/3 154/1/3
f 156/2/3 153/2/3 152/2/3
f 156/1/3 151/1/3 155/1/3
f 156/2/3 152/2/3 151/2/3
f 157/2/3 153/2/3 156/2/3
f 158/1/3 147/1/3 153/1/3
f 158/2/3 153/2/3 157/2/3
f 159/1/3 147/1/3 158/1/3
f 160/1/3 157/1/3 156/1/3
f 160/2/3 155/2/3 154/2/3
f 160/1/3 156/1/3 155/1/3
f 161/1/3 157/1/3 160/1/3
f 162/2/3 159/2/3 158/2/3
f 162/1/3 157/1/3 161/1/3
f 162/2/3 158/2/3 157/2/3
f 163/2/3 159/2/3 162/2/3
f 164/1/3 147/1/3 159/1/3
f 164/2/3 159/2/3 163/2/3
f 165/1/3 147/1/3 164/1/3
f 166/1/3 147/1/3 165/1/3
f 167/1/3 147/1/3 166/1/3
f 168/1/3 163/1/3 162/1/3
f 168/2/3 161/2/3 160/2/3
f 168/1/3 162/1/3 161/1/3
f 169/1/3 163/1/3 168/1/3
f 170/2/3 164/2/3 163/2/3
f 170/1/3 163/1/3 169/1/3
f 170/2/3 165/2/3 164/2/3
f 171/2/3 165/2/3 170/2/3
f 172/1/3 166/1/3 165/1/3
f 172/2/3 165/2/3 171/2/3
f 173/1/3 166/1/3 172/1/3
f 174/2/3 167/2/3 166/2/3
f 174/1/3 166/1/3 173/1/3
f 175/2/3 167/2/3 174/2/3
f 176/1/3 171/1/3 170/1/3
f 176/2/3 169/2/3 168/2/3
f 176/1/3 170/1/3 169/1/3
f 177/1/3 171/1/3 176/1/3
f 178/2/3 173/2/3 172/2/3
f 178/1/3 171/1/3 177/1/3
f 178/2/3 172/2/3 171/2/3
f 179/2/3 173/2/3 178/2/3
f 180/1/3 175/1/3 174/1/3
f 180/2/3 173/2/3 179/2/3
f 180/1/3 174/1/3 173/1/3
f 181/1/3 175/1/3 180/1/3
f 182/2/3 167/2/3 175/2/3
f 182/1/3 175/1/3 181/1/3
f 183/2/3 167/2/3 182/2/3
f 184/2/3 177/2/3 176/2/3
f 184/1/3 179/1/3 178/1/3
f 184/1/3 178/1/3 177/1/3
f 185/1/3 179/1/3 184/1/3
f 186/2/3 181/2/3 180/2/3
f 186/1/3 179/1/3 185/1/3
f 186/2/3 180/2/3 179/2/3
f 187/2/3 181/2/3 186/2/3
f 188/1/3 183/1/3 182/1/3
f 188/2/3 181/2/3 187/2/3
f 188/1/3 182/1/3 181/1/3
f 189/1/3 183/1/3 188/1/3
f 190/2/3 185/2/3 184/2/3
f 190/1/3 187/1/3 186/1/3
f 190/1/3 186/1/3 185/1/3
f 191/1/3 187/1/3 190/1/3
f 192/2/3 189/2/3 188/2/3
f 192/1/3 187/1/3 191/1/3
f 192/2/3 188/2/3 187/2/3
f 193/2/3 189/2/3 192/2/3
f 194/1/3 183/1/3 189/1/3
f 194/2/3 189/2/3 193/2/3
f 195/1/3 183/1/3 194/1/3
f 196/1/3 193/1/3 192/1/3
f 196/2/3 191/2/3 190/2/3
f 196/1/3 192/1/3 191/1/3
f 197/1/3 193/1/3 196/1/3
f 198/2/3 195/2/3 194/2/3
f 198/1/3 193/1/3 197/1/3
f 198/2/3 194/2/3 193/2/3
f 199/2/3 195/2/3 198/2/3
f 200/1/3 183/1/3 195/1/3
f 200/2/3 195/2/3 199/2/3
f 201/1/3 183/1/3 200/1/3
f 202/2/3 197/2/3 196/2/3
f 202/2/3 196/2/3 190/2/3
f 203/1/3 199/1/3 198/1/3
f 203/2/3 197/2/3 202/2/3
f 203/1/3 198/1/3 197/1/3
f 204/2/3 201/2/3 200/2/3
f 204/1/3 199/1/3 203/1/3
f 204/2/3 200/2/3 199/2/3
f 205/2/3 201/2/3 204/2/3
f 206/1/3 183/1/3 201/1/3
f 206/2/3 201/2/3 205/2/3
f 207/2/3 167/2/3 183/2/3
f 207/1/3 183/1/3 206/1/3
f 208/2/3 202/2/3 190/2/3
f 208/2/3 190/2/3 184/2/3
f 209/1/3 205/1/3 204/1/3
f 209/2/3 202/2/3 208/2/3
f 209/1/3 203/1/3 202/1/3
f 209/1/3 204/1/3 203/1/3
f 210/2/3 206/2/3 205/2/3
f 210/1/3 205/1/3 209/1/3
f 210/2/3 207/2/3 206/2/3
f 211/2/3 207/2/3 210/2/3
f 212/2/3 208/2/3 184/2/3
f 212/2/3 184/2/3 176/2/3
f 213/1/3 209/1/3 208/1/3
f 213/2/3 208/2/3 212/2/3
f 213/1/3 211/1/3 210/1/3
f 213/1/3 210/1/3 209/1/3
f 214/1/3 211/1/3 213/1/3
f 215/1/3 211/1/3 214/1/3
f 216/2/3 207/2/3 211/2/3
f 216/1/3 211/1/3 215/1/3
f 217/2/3 207/2/3 216/2/3
f 218/2/3 212/2/3 176/2/3
f 218/2/3 176/2/3 168/2/3
f 219/1/3 213/1/3 212/1/3
f 219/2/3 212/2/3 218/2/3
f 219/1/3 214/1/3 213/1/3
f 220/1/3 214/1/3 219/1/3
f 221/2/3 215/2/3 214/2/3
f 221/1/3 214/1/3 220/1/3
f 222/1/3 217/1/3 216/1/3
f 222/2/3 215/2/3 221/2/3
f 222/1/3 216/1/3 215/1/3
f 223/1/3 217/1/3 222/1/3
f 224/2/3 207/2/3 217/2/3
f 224/1/3 217/1/3 223/1/3
f 225/2/3 167/2/3 207/2/3
f 225/2/3 207/2/3 224/2/3
f 226/2/3 168/2/3 160/2/3
f 226/2/3 218/2/3 168/2/3
f 227/1/3 220/1/3 219/1/3
f 227/2/3 218/2/3 226/2/3
f 227/1/3 219/1/3 218/1/3
f 228/1/3 220/1/3 227/1/3
f 229/2/3 223/2/3 222/2/3
f 229/1/3 220/1/3 228/1/3
f 229/2/3 221/2/3 220/2/3
f 229/2/3 222/2/3 221/2/3
f 230/1/3 224/1/3 223/1/3
f 230/2/3 223/2/3 229/2/3
f 230/1/3 225/1/3 224/1/3
f 231/1/3 225/1/3 230/1/3
f 232/2/3 167/2/3 225/2/3
f 232/1/3 225/1/3 231/1/3
f 233/2/3 167/2/3 232/2/3
f 234/2/3 160/2/3 154/2/3
f 234/2/3 226/2/3 160/2/3
f 235/1/3 228/1/3 227/1/3
f 235/2/3 226/2/3 234/2/3
f 235/1/3 227/1/3 226/1/3
f 236/1/3 228/1/3 235/1/3
f 237/2/3 229/2/3 228/2/3
f 237/1/3 228/1/3 236/1/3
f 237/2/3 231/2/3 230/2/3
f 237/2/3 230/2/3 229/2/3
f 238/1/3 233/1/3 232/1/3
f 238/2/3 231/2/3 237/2/3
f 238/1/3 232/1/3 231/1/3
f 239/1/3 233/1/3 238/1/3
f 240/2/3 167/2/3 233/2/3
f 240/1/3 233/1/3 239/1/3
f 241/1/3 147/1/3 167/1/3
f 241/2/3 167/2/3 240/2/3
f 242/2/3 234/2/3 154/2/3
f 242/2/3 154/2/3 148/2/3
f 243/1/3 236/1/3 235/1/3
f 243/2/3 234/2/3 242/2/3
f 243/1/3 235/1/3 234/1/3
f 244/1/3 236/1/3 243/1/3
f 245/2/3 239/2/3 238/2/3
f 245/1/3 236/1/3 244/1/3
f 245/2/3 237/2/3 236/2/3
f 245/2/3 238/2/3 237/2/3
f 246/1/3 240/1/3 239/1/3
f 246/2/3 239/2/3 245/2/3
f 246/1/3 241/1/3 240/1/3
f 247/1/3 241/1/3 246/1/3
f 248/2/3 148/2/3 126/2/3
f 248/2/3 242/2/3 148/2/3
f 249/1/3 243/1/3 242/1/3
f 249/2/3 242/2/3 248/2/3
f 249/1/3 244/1/3 243/1/3
f 250/1/3 244/1/3 249/1/3
f 251/2/3 245/2/3 244/2/3
f 251/1/3 244/1/3 250/1/3
f 251/2/3 246/2/3 245/2/3
f 251/2/3 247/2/3 246/2/3
f 252/1/3 241/1/3 247/1/3
f 252/2/3 247/2/3 251/2/3
f 253/1/3 241/1/3 252/1/3
f 254/1/3 250/1/3 249/1/3
f 254/1/3 249/1/3 248/1/3
f 255/2/3 251/2/3 250/2/3
f 255/1/3 250/1/3 254/1/3
f 255/2/3 253/2/3 252/2/3
f 255/2/3 252/2/3 251/2/3
f 256/1/3 241/1/3 253/1/3
f 256/2/3 253/2/3 255/2/3
f 257/1/3 241/1/3 256/1/3
f 258/1/3 254/1/3 248/1/3
f 259/2/3 255/2/3 254/2/3
f 259/1/3 254/1/3 258/1/3
f 259/2/3 256/2/3 255/2/3
f 259/2/3 257/2/3 256/2/3
f 260/1/3 241/1/3 257/1/3
f 260/2/3 257/2/3 259/2/3
f 261/1/3 147/1/3 241/1/3
f 261/1/3 241/1/3 260/1/3
f 262/1/3 258/1/3 248/1/3
f 263/2/3 260/2/3 259/2/3
f 263/1/3 258/1/3 262/1/3
f 263/2/3 259/2/3 258/2/3
f 263/2/3 261/2/3 260/2/3
f 264/1/3 147/1/3 261/1/3
f 264/2/3 261/2/3 263/2/3
f 265/1/3 147/1/3 264/1/3
f 266/1/3 262/1/3 248/1/3
f 266/2/3 248/2/3 126/2/3
f 267/2/3 263/2/3 262/2/3
f 267/1/3 262/1/3 266/1/3
f 267/2/3 265/2/3 264/2/3
f 267/2/3 264/2/3 263/2/3
f 268/1/3 147/1/3 265/1/3
f 268/2/3 265/2/3 267/2/3
f 269/1/3 147/1/3 268/1/3
f 270/2/3 267/2/3 266/2/3
f 270/1/3 147/1/3 269/1/3
f 270/2/3 269/2/3 268/2/3
f 270/2/3 268/2/3 267/2/3
f 271/2/3 139/2/3 147/2/3
f 271/1/3 147/1/3 270/1/3
f 272/2/3 270/2/3 266/2/3
f 272/2/3 266/2/3 126/2/3
f 272/2/3 271/2/3 270/2/3
f 273/2/3 139/2/3 271/2/3
f 273/2/3 271/2/3 272/2/3
f 273/2/3 127/2/3 139/2/3
f 278/2/3 275/2/3 274/2/3
f 279/2/3 277/2/3 276/2/3
f 280/2/3 278/2/3 274/2/3
f 280/2/3 279/2/3 278/2/3
f 281/2/3 277/2/3 279/2/3
f 281/2/3 279/2/3 280/2/3
f 282/2/4 283/2/4 286/2/4
f 284/2/4 285/2/4 287/2/4
f 282/2/4 286/2/4 288/2/4
f 286/2/4 287/2/4 288/2/4
f 287/2/4 285/2/4 289/2/4
f 288/2/4 287/2/4 289/2/4
f 290/2/4 291/2/4 292/2/4
f 292/2/4 291/2/4 293/2/4
f 296/2/5 295/2/5 294/2/5
f 297/2/5 295/2/5 296/2/5
f 298/2/5 296/2/5 294/2/5
f 300/2/5 298/2/5 294/2/5
f 300/2/5 299/2/5 298/2/5
f 301/2/5 299/2/5 300/2/5
f 304/3/5 303/3/5 302/3/5
f 305/3/5 303/3/5 304/3/5
f 306/2/5 305/2/5 304/2/5
f 307/2/5 305/2/5 306/2/5
f 308/3/5 307/3/5 306/3/5
f 309/3/5 307/3/5 308/3/5
f 310/2/5 309/2/5 308/2/5
f 311/2/5 309/2/5 310/2/5
f 312/3/5 311/3/5 310/3/5
f 313/3/5 311/3/5 312/3/5
f 314/2/5 313/2/5 312/2/5
f 315/2/5 313/2/5 314/2/5
f 316/3/6 317/3/6 318/3/6
f 318/3/6 317/3/6 319/3/6
f 318/2/6 319/2/6 320/2/6
f 320/2/6 319/2/6 321/2/6
f 320/3/6 321/3/6 322/3/6
f 322/3/6 321/3/6 323/3/6
f 322/2/6 323/2/6 324/2/6
f 324/2/6 323/2/6 325/2/6
f 324/3/6 325/3/6 326/3/6
f 326/3/6 325/3/6 327/3/6
f 326/2/6 327/2/6 328/2/6
f 328/2/6 327/2/6 329/2/6
f 330/2/6 331/2/6 332/2/6
f 332/2/6 331/2/6 333/2/6
f 330/2/6 332/2/6 334/2/6
f 330/2/6 334/2/6 336/2/6
f 334/2/6 335/2/6 336/2/6
f 336/2/6 335/2/6 337/2/6
