# MagicaVoxel @ Ephtracy

# group
g school_bus

# material
mtllib school_bus.mtl
usemtl palette

# normals
vn -1 0 0
vn 1 0 0
vn 0 0 1
vn 0 0 -1
vn 0 -1 0
vn 0 1 0

# texcoords
vt 0.146484 0.5
vt 0.283203 0.5
vt 0.291016 0.5
vt 0.427734 0.5
vt 0.916016 0.5
vt 0.927734 0.5
vt 0.994141 0.5

# verts
v -15 2 4
v -15 2 -5
v -15 3 4
v -15 3 -5
v -14 3 4
v -14 3 -5
v -14 4 3
v -14 4 2
v -14 4 -3
v -14 4 -4
v -14 5 3
v -14 5 2
v -14 5 -3
v -14 5 -4
v -14 6 4
v -14 6 -5
v -13 6 2
v -13 6 -3
v -13 7 2
v -13 7 -3
v -12 1 4
v -12 1 3
v -12 1 -4
v -12 1 -5
v -12 2 4
v -12 2 3
v -12 2 -4
v -12 2 -5
v -12 6 3
v -12 6 2
v -12 6 -3
v -12 6 -4
v -12 7 3
v -12 7 2
v -12 7 -3
v -12 7 -4
v -11 0 4
v -11 0 3
v -11 0 -4
v -11 0 -5
v -11 1 4
v -11 1 3
v -11 1 -4
v -11 1 -5
v -9 6 4
v -9 6 3
v -9 6 -4
v -9 6 -5
v -9 7 3
v -9 7 -4
v -9 10 4
v -9 10 -5
v -9 11 4
v -9 11 3
v -9 11 2
v -9 11 -3
v -9 11 -4
v -9 11 -5
v -9 12 4
v -9 12 3
v -9 12 2
v -9 12 -3
v -9 12 -4
v -9 12 -5
v -9 13 3
v -9 13 -4
v -7 5 5
v -7 5 4
v -7 6 4
v -7 7 5
v -7 7 4
v 7 1 4
v 7 1 3
v 7 2 4
v 7 2 3
v 8 0 4
v 8 0 3
v 8 1 4
v 8 1 3
v 8 1 -4
v 8 1 -5
v 8 2 -4
v 8 2 -5
v 9 0 -4
v 9 0 -5
v 9 1 -4
v 9 1 -5
v -8 0 4
v -8 0 3
v -8 0 -4
v -8 0 -5
v -8 1 4
v -8 1 3
v -8 1 -4
v -8 1 -5
v -7 1 4
v -7 1 3
v -7 1 -4
v -7 1 -5
v -7 2 4
v -7 2 3
v -7 2 -4
v -7 2 -5
v -5 5 5
v -5 5 4
v -5 6 4
v -5 7 5
v -5 7 4
v 11 0 4
v 11 0 3
v 11 1 4
v 11 1 3
v 12 0 -4
v 12 0 -5
v 12 1 4
v 12 1 3
v 12 1 -4
v 12 1 -5
v 12 2 4
v 12 2 3
v 13 1 -4
v 13 1 -5
v 13 2 -4
v 13 2 -5
v 18 3 4
v 18 3 -5
v 18 4 3
v 18 4 2
v 18 4 -3
v 18 4 -4
v 18 5 4
v 18 5 3
v 18 5 2
v 18 5 -3
v 18 5 -4
v 18 5 -5
v 18 6 4
v 18 6 3
v 18 6 -0
v 18 6 -1
v 18 6 -4
v 18 6 -5
v 18 10 3
v 18 10 -0
v 18 10 -1
v 18 10 -4
v 18 11 4
v 18 11 3
v 18 11 2
v 18 11 -3
v 18 11 -4
v 18 11 -5
v 18 12 4
v 18 12 3
v 18 12 2
v 18 12 -3
v 18 12 -4
v 18 12 -5
v 18 13 3
v 18 13 -4
v 19 2 4
v 19 2 -5
v 19 3 4
v 19 3 -5
v -7 5 5
v -7 7 5
v -5 5 5
v -5 7 5
v -15 2 4
v -15 3 4
v -14 3 4
v -14 6 4
v -12 1 4
v -12 2 4
v -12 3 4
v -12 4 4
v -11 0 4
v -11 1 4
v -11 4 4
v -11 5 4
v -10 2 4
v -10 3 4
v -9 2 4
v -9 3 4
v -9 6 4
v -9 10 4
v -9 11 4
v -9 12 4
v -8 0 4
v -8 1 4
v -8 4 4
v -8 5 4
v -8 11 4
v -8 12 4
v -7 1 4
v -7 2 4
v -7 3 4
v -7 4 4
v -7 5 4
v -7 6 4
v -7 7 4
v -7 10 4
v -6 7 4
v -6 10 4
v -5 5 4
v -5 6 4
v -5 7 4
v -3 6 4
v -3 10 4
v -2 6 4
v -2 10 4
v 1 6 4
v 1 10 4
v 2 6 4
v 2 10 4
v 5 6 4
v 5 10 4
v 6 6 4
v 6 10 4
v 7 1 4
v 7 2 4
v 7 3 4
v 7 4 4
v 8 0 4
v 8 1 4
v 8 4 4
v 8 5 4
v 9 2 4
v 9 3 4
v 9 6 4
v 9 10 4
v 10 2 4
v 10 3 4
v 10 6 4
v 10 10 4
v 11 0 4
v 11 1 4
v 11 4 4
v 11 5 4
v 12 1 4
v 12 2 4
v 12 3 4
v 12 4 4
v 13 6 4
v 13 10 4
v 14 6 4
v 14 10 4
v 17 5 4
v 17 6 4
v 17 10 4
v 17 11 4
v 17 12 4
v 18 3 4
v 18 5 4
v 18 6 4
v 18 11 4
v 18 12 4
v 19 2 4
v 19 3 4
v -12 6 3
v -12 7 3
v -9 6 3
v -9 7 3
v -9 12 3
v -9 13 3
v -8 12 3
v 17 12 3
v 18 12 3
v 18 13 3
v -13 6 2
v -13 7 2
v -12 6 2
v -12 7 2
v -12 1 -4
v -12 2 -4
v -11 0 -4
v -11 1 -4
v -8 0 -4
v -8 1 -4
v -7 1 -4
v -7 2 -4
v 8 1 -4
v 8 2 -4
v 9 0 -4
v 9 1 -4
v 12 0 -4
v 12 1 -4
v 13 1 -4
v 13 2 -4
v -12 1 3
v -12 2 3
v -11 0 3
v -11 1 3
v -8 0 3
v -8 1 3
v -7 1 3
v -7 2 3
v 7 1 3
v 7 2 3
v 8 0 3
v 8 1 3
v 11 0 3
v 11 1 3
v 12 1 3
v 12 2 3
v -13 6 -3
v -13 7 -3
v -12 6 -3
v -12 7 -3
v -12 6 -4
v -12 7 -4
v -9 6 -4
v -9 7 -4
v -9 12 -4
v -9 13 -4
v -8 12 -4
v 17 12 -4
v 18 12 -4
v 18 13 -4
v -15 2 -5
v -15 3 -5
v -14 3 -5
v -14 6 -5
v -12 1 -5
v -12 2 -5
v -12 3 -5
v -12 4 -5
v -11 0 -5
v -11 1 -5
v -11 4 -5
v -11 5 -5
v -10 2 -5
v -10 3 -5
v -9 2 -5
v -9 3 -5
v -9 6 -5
v -9 10 -5
v -9 11 -5
v -9 12 -5
v -8 0 -5
v -8 1 -5
v -8 4 -5
v -8 5 -5
v -8 11 -5
v -8 12 -5
v -7 1 -5
v -7 2 -5
v -7 3 -5
v -7 4 -5
v -7 6 -5
v -4 3 -5
v -4 6 -5
v -3 6 -5
v -3 10 -5
v -2 6 -5
v -2 10 -5
v 1 6 -5
v 1 10 -5
v 2 6 -5
v 2 10 -5
v 5 6 -5
v 5 10 -5
v 6 6 -5
v 6 10 -5
v 8 1 -5
v 8 2 -5
v 8 3 -5
v 8 4 -5
v 9 0 -5
v 9 1 -5
v 9 4 -5
v 9 5 -5
v 9 6 -5
v 9 10 -5
v 10 2 -5
v 10 3 -5
v 10 6 -5
v 10 10 -5
v 11 2 -5
v 11 3 -5
v 12 0 -5
v 12 1 -5
v 12 4 -5
v 12 5 -5
v 13 1 -5
v 13 2 -5
v 13 3 -5
v 13 4 -5
v 13 6 -5
v 13 10 -5
v 14 6 -5
v 14 10 -5
v 17 5 -5
v 17 6 -5
v 17 10 -5
v 17 11 -5
v 17 12 -5
v 18 3 -5
v 18 5 -5
v 18 6 -5
v 18 11 -5
v 18 12 -5
v 19 2 -5
v 19 3 -5
v -11 0 4
v -8 0 4
v 8 0 4
v 11 0 4
v -11 0 3
v -8 0 3
v 8 0 3
v 11 0 3
v -11 0 -4
v -8 0 -4
v 9 0 -4
v 12 0 -4
v -11 0 -5
v -8 0 -5
v 9 0 -5
v 12 0 -5
v -12 1 4
v -11 1 4
v -8 1 4
v -7 1 4
v 7 1 4
v 8 1 4
v 11 1 4
v 12 1 4
v -12 1 3
v -11 1 3
v -8 1 3
v -7 1 3
v 7 1 3
v 8 1 3
v 11 1 3
v 12 1 3
v -12 1 -4
v -11 1 -4
v -8 1 -4
v -7 1 -4
v 8 1 -4
v 9 1 -4
v 12 1 -4
v 13 1 -4
v -12 1 -5
v -11 1 -5
v -8 1 -5
v -7 1 -5
v 8 1 -5
v 9 1 -5
v 12 1 -5
v 13 1 -5
v -15 2 4
v -12 2 4
v -7 2 4
v 7 2 4
v 12 2 4
v 19 2 4
v -12 2 3
v -7 2 3
v 7 2 3
v 12 2 3
v -12 2 -4
v -7 2 -4
v 8 2 -4
v 13 2 -4
v -15 2 -5
v -12 2 -5
v -7 2 -5
v 8 2 -5
v 13 2 -5
v 19 2 -5
v -7 5 5
v -5 5 5
v -7 5 4
v -5 5 4
v -15 3 4
v -14 3 4
v 18 3 4
v 19 3 4
v -15 3 -5
v -14 3 -5
v 18 3 -5
v 19 3 -5
v -14 6 4
v -9 6 4
v -12 6 3
v -9 6 3
v -13 6 2
v -12 6 2
v -13 6 -3
v -12 6 -3
v -12 6 -4
v -9 6 -4
v -14 6 -5
v -9 6 -5
v -7 7 5
v -5 7 5
v -7 7 4
v -6 7 4
v -5 7 4
v -12 7 3
v -9 7 3
v -13 7 2
v -12 7 2
v -13 7 -3
v -12 7 -3
v -12 7 -4
v -9 7 -4
v -9 12 4
v -8 12 4
v 17 12 4
v 18 12 4
v -9 12 3
v -8 12 3
v 17 12 3
v 18 12 3
v -9 12 -4
v -8 12 -4
v 17 12 -4
v 18 12 -4
v -9 12 -5
v -8 12 -5
v 17 12 -5
v 18 12 -5
v -9 13 3
v 18 13 3
v -9 13 -4
v 18 13 -4

# faces
f 3/6/1 2/6/1 1/6/1
f 4/6/1 2/6/1 3/6/1
f 7/4/1 6/4/1 5/4/1
f 8/4/1 6/4/1 7/4/1
f 9/4/1 6/4/1 8/4/1
f 10/4/1 6/4/1 9/4/1
f 11/4/1 7/4/1 5/4/1
f 11/5/1 8/5/1 7/5/1
f 12/4/1 9/4/1 8/4/1
f 12/5/1 8/5/1 11/5/1
f 13/5/1 10/5/1 9/5/1
f 13/4/1 9/4/1 12/4/1
f 14/4/1 6/4/1 10/4/1
f 14/5/1 10/5/1 13/5/1
f 15/4/1 13/4/1 12/4/1
f 15/4/1 12/4/1 11/4/1
f 15/4/1 14/4/1 13/4/1
f 15/4/1 11/4/1 5/4/1
f 16/4/1 6/4/1 14/4/1
f 16/4/1 14/4/1 15/4/1
f 19/4/1 18/4/1 17/4/1
f 20/4/1 18/4/1 19/4/1
f 25/7/1 22/7/1 21/7/1
f 26/7/1 22/7/1 25/7/1
f 27/7/1 24/7/1 23/7/1
f 28/7/1 24/7/1 27/7/1
f 33/4/1 30/4/1 29/4/1
f 34/4/1 30/4/1 33/4/1
f 35/4/1 32/4/1 31/4/1
f 36/4/1 32/4/1 35/4/1
f 41/7/1 38/7/1 37/7/1
f 42/7/1 38/7/1 41/7/1
f 43/7/1 40/7/1 39/7/1
f 44/7/1 40/7/1 43/7/1
f 49/7/1 46/7/1 45/7/1
f 50/7/1 48/7/1 47/7/1
f 51/7/1 49/7/1 45/7/1
f 51/7/1 50/7/1 49/7/1
f 52/7/1 48/7/1 50/7/1
f 52/7/1 50/7/1 51/7/1
f 53/4/1 52/4/1 51/4/1
f 54/4/1 52/4/1 53/4/1
f 55/4/1 52/4/1 54/4/1
f 56/4/1 52/4/1 55/4/1
f 57/4/1 52/4/1 56/4/1
f 58/4/1 52/4/1 57/4/1
f 59/1/1 54/1/1 53/1/1
f 60/3/1 55/3/1 54/3/1
f 60/1/1 54/1/1 59/1/1
f 61/4/1 56/4/1 55/4/1
f 61/3/1 55/3/1 60/3/1
f 62/3/1 57/3/1 56/3/1
f 62/4/1 56/4/1 61/4/1
f 63/1/1 58/1/1 57/1/1
f 63/3/1 57/3/1 62/3/1
f 64/1/1 58/1/1 63/1/1
f 65/4/1 61/4/1 60/4/1
f 65/4/1 63/4/1 62/4/1
f 65/4/1 62/4/1 61/4/1
f 66/4/1 63/4/1 65/4/1
f 69/1/1 68/1/1 67/1/1
f 70/1/1 69/1/1 67/1/1
f 71/1/1 69/1/1 70/1/1
f 74/7/1 73/7/1 72/7/1
f 75/7/1 73/7/1 74/7/1
f 78/7/1 77/7/1 76/7/1
f 79/7/1 77/7/1 78/7/1
f 82/7/1 81/7/1 80/7/1
f 83/7/1 81/7/1 82/7/1
f 86/7/1 85/7/1 84/7/1
f 87/7/1 85/7/1 86/7/1
f 88/7/2 89/7/2 92/7/2
f 92/7/2 89/7/2 93/7/2
f 90/7/2 91/7/2 94/7/2
f 94/7/2 91/7/2 95/7/2
f 96/7/2 97/7/2 100/7/2
f 100/7/2 97/7/2 101/7/2
f 98/7/2 99/7/2 102/7/2
f 102/7/2 99/7/2 103/7/2
f 104/1/2 105/1/2 106/1/2
f 104/1/2 106/1/2 107/1/2
f 107/1/2 106/1/2 108/1/2
f 109/7/2 110/7/2 111/7/2
f 111/7/2 110/7/2 112/7/2
f 113/7/2 114/7/2 117/7/2
f 117/7/2 114/7/2 118/7/2
f 115/7/2 116/7/2 119/7/2
f 119/7/2 116/7/2 120/7/2
f 121/7/2 122/7/2 123/7/2
f 123/7/2 122/7/2 124/7/2
f 125/4/2 126/4/2 127/4/2
f 127/4/2 126/4/2 128/4/2
f 128/4/2 126/4/2 129/4/2
f 129/4/2 126/4/2 130/4/2
f 125/4/2 127/4/2 131/4/2
f 127/5/2 128/5/2 132/5/2
f 131/4/2 127/4/2 132/4/2
f 128/4/2 129/4/2 133/4/2
f 132/5/2 128/5/2 133/5/2
f 129/5/2 130/5/2 134/5/2
f 133/4/2 129/4/2 134/4/2
f 130/4/2 126/4/2 135/4/2
f 134/5/2 130/5/2 135/5/2
f 135/4/2 126/4/2 136/4/2
f 131/2/2 132/2/2 137/2/2
f 133/4/2 134/4/2 138/4/2
f 137/2/2 132/2/2 138/2/2
f 132/4/2 133/4/2 138/4/2
f 134/4/2 135/4/2 138/4/2
f 138/4/2 135/4/2 139/4/2
f 139/4/2 135/4/2 140/4/2
f 135/2/2 136/2/2 141/2/2
f 140/4/2 135/4/2 141/4/2
f 141/2/2 136/2/2 142/2/2
f 137/4/2 138/4/2 143/4/2
f 138/7/2 139/7/2 143/7/2
f 139/4/2 140/4/2 144/4/2
f 143/7/2 139/7/2 144/7/2
f 140/7/2 141/7/2 145/7/2
f 144/4/2 140/4/2 145/4/2
f 141/4/2 142/4/2 146/4/2
f 145/7/2 141/7/2 146/7/2
f 137/4/2 143/4/2 147/4/2
f 144/4/2 145/4/2 147/4/2
f 145/4/2 146/4/2 147/4/2
f 143/4/2 144/4/2 147/4/2
f 147/4/2 146/4/2 148/4/2
f 148/4/2 146/4/2 149/4/2
f 149/4/2 146/4/2 150/4/2
f 146/4/2 142/4/2 151/4/2
f 150/4/2 146/4/2 151/4/2
f 151/4/2 142/4/2 152/4/2
f 147/1/2 148/1/2 153/1/2
f 148/3/2 149/3/2 154/3/2
f 153/1/2 148/1/2 154/1/2
f 149/4/2 150/4/2 155/4/2
f 154/3/2 149/3/2 155/3/2
f 150/3/2 151/3/2 156/3/2
f 155/4/2 150/4/2 156/4/2
f 151/1/2 152/1/2 157/1/2
f 156/3/2 151/3/2 157/3/2
f 157/1/2 152/1/2 158/1/2
f 154/4/2 155/4/2 159/4/2
f 156/4/2 157/4/2 159/4/2
f 155/4/2 156/4/2 159/4/2
f 159/4/2 157/4/2 160/4/2
f 161/6/2 162/6/2 163/6/2
f 163/6/2 162/6/2 164/6/2
f 167/1/3 166/1/3 165/1/3
f 168/1/3 166/1/3 167/1/3
f 171/6/3 170/6/3 169/6/3
f 174/6/3 171/6/3 169/6/3
f 175/4/3 172/4/3 171/4/3
f 175/6/3 171/6/3 174/6/3
f 176/4/3 172/4/3 175/4/3
f 178/7/3 174/7/3 173/7/3
f 178/7/3 175/7/3 174/7/3
f 178/7/3 176/7/3 175/7/3
f 179/4/3 172/4/3 176/4/3
f 179/7/3 176/7/3 178/7/3
f 180/4/3 172/4/3 179/4/3
f 181/7/3 178/7/3 177/7/3
f 181/7/3 179/7/3 178/7/3
f 181/7/3 180/7/3 179/7/3
f 182/7/3 180/7/3 181/7/3
f 183/7/3 181/7/3 177/7/3
f 183/4/3 182/4/3 181/4/3
f 184/7/3 180/7/3 182/7/3
f 184/4/3 182/4/3 183/4/3
f 185/4/3 172/4/3 180/4/3
f 189/7/3 183/7/3 177/7/3
f 189/7/3 184/7/3 183/7/3
f 190/7/3 184/7/3 189/7/3
f 191/7/3 180/7/3 184/7/3
f 191/7/3 184/7/3 190/7/3
f 192/4/3 185/4/3 180/4/3
f 192/7/3 180/7/3 191/7/3
f 193/1/3 188/1/3 187/1/3
f 193/4/3 187/4/3 186/4/3
f 194/1/3 188/1/3 193/1/3
f 195/7/3 191/7/3 190/7/3
f 196/7/3 191/7/3 195/7/3
f 197/7/3 191/7/3 196/7/3
f 198/4/3 192/4/3 191/4/3
f 198/7/3 191/7/3 197/7/3
f 199/4/3 185/4/3 192/4/3
f 199/4/3 192/4/3 198/4/3
f 200/7/3 186/7/3 185/7/3
f 200/4/3 185/4/3 199/4/3
f 201/7/3 186/7/3 200/7/3
f 202/4/3 194/4/3 193/4/3
f 202/7/3 186/7/3 201/7/3
f 202/4/3 193/4/3 186/4/3
f 203/4/3 202/4/3 201/4/3
f 204/4/3 194/4/3 202/4/3
f 204/4/3 202/4/3 203/4/3
f 205/4/3 198/4/3 197/4/3
f 205/4/3 199/4/3 198/4/3
f 207/7/3 204/7/3 203/7/3
f 208/4/3 206/4/3 205/4/3
f 208/7/3 207/7/3 206/7/3
f 209/4/3 194/4/3 204/4/3
f 209/7/3 207/7/3 208/7/3
f 209/7/3 204/7/3 207/7/3
f 210/4/3 208/4/3 205/4/3
f 210/4/3 209/4/3 208/4/3
f 211/4/3 194/4/3 209/4/3
f 211/4/3 209/4/3 210/4/3
f 212/4/3 210/4/3 205/4/3
f 212/7/3 211/7/3 210/7/3
f 213/4/3 194/4/3 211/4/3
f 213/7/3 211/7/3 212/7/3
f 214/4/3 212/4/3 205/4/3
f 214/4/3 213/4/3 212/4/3
f 215/4/3 194/4/3 213/4/3
f 215/4/3 213/4/3 214/4/3
f 216/4/3 214/4/3 205/4/3
f 216/7/3 215/7/3 214/7/3
f 217/4/3 194/4/3 215/4/3
f 217/7/3 215/7/3 216/7/3
f 218/4/3 216/4/3 205/4/3
f 218/4/3 217/4/3 216/4/3
f 219/4/3 194/4/3 217/4/3
f 219/4/3 217/4/3 218/4/3
f 221/6/3 197/6/3 196/6/3
f 222/4/3 218/4/3 205/4/3
f 222/4/3 205/4/3 197/4/3
f 222/6/3 197/6/3 221/6/3
f 223/4/3 218/4/3 222/4/3
f 225/7/3 221/7/3 220/7/3
f 225/7/3 222/7/3 221/7/3
f 225/7/3 223/7/3 222/7/3
f 226/4/3 218/4/3 223/4/3
f 226/7/3 223/7/3 225/7/3
f 227/4/3 218/4/3 226/4/3
f 228/7/3 225/7/3 224/7/3
f 228/7/3 226/7/3 225/7/3
f 228/7/3 227/7/3 226/7/3
f 229/7/3 227/7/3 228/7/3
f 230/4/3 218/4/3 227/4/3
f 230/7/3 219/7/3 218/7/3
f 231/4/3 194/4/3 219/4/3
f 231/7/3 219/7/3 230/7/3
f 232/4/3 229/4/3 228/4/3
f 232/7/3 228/7/3 224/7/3
f 233/7/3 227/7/3 229/7/3
f 233/4/3 229/4/3 232/4/3
f 234/4/3 230/4/3 227/4/3
f 234/4/3 231/4/3 230/4/3
f 235/4/3 194/4/3 231/4/3
f 235/4/3 231/4/3 234/4/3
f 236/7/3 232/7/3 224/7/3
f 236/7/3 233/7/3 232/7/3
f 237/7/3 233/7/3 236/7/3
f 238/7/3 227/7/3 233/7/3
f 238/7/3 233/7/3 237/7/3
f 239/4/3 234/4/3 227/4/3
f 239/7/3 227/7/3 238/7/3
f 240/7/3 238/7/3 237/7/3
f 241/7/3 238/7/3 240/7/3
f 242/7/3 238/7/3 241/7/3
f 243/4/3 239/4/3 238/4/3
f 243/7/3 238/7/3 242/7/3
f 244/4/3 234/4/3 239/4/3
f 244/4/3 239/4/3 243/4/3
f 244/4/3 243/4/3 242/4/3
f 244/7/3 235/7/3 234/7/3
f 245/4/3 194/4/3 235/4/3
f 245/7/3 235/7/3 244/7/3
f 246/4/3 244/4/3 242/4/3
f 246/4/3 245/4/3 244/4/3
f 247/4/3 194/4/3 245/4/3
f 247/4/3 245/4/3 246/4/3
f 248/4/3 246/4/3 242/4/3
f 249/7/3 247/7/3 246/7/3
f 249/4/3 246/4/3 248/4/3
f 250/4/3 194/4/3 247/4/3
f 250/7/3 247/7/3 249/7/3
f 251/4/3 194/4/3 250/4/3
f 252/4/3 194/4/3 251/4/3
f 253/6/3 242/6/3 241/6/3
f 253/4/3 248/4/3 242/4/3
f 254/2/3 249/2/3 248/2/3
f 254/4/3 248/4/3 253/4/3
f 255/4/3 250/4/3 249/4/3
f 255/2/3 249/2/3 254/2/3
f 255/4/3 251/4/3 250/4/3
f 256/1/3 252/1/3 251/1/3
f 256/4/3 251/4/3 255/4/3
f 257/1/3 252/1/3 256/1/3
f 258/6/3 253/6/3 241/6/3
f 259/6/3 253/6/3 258/6/3
f 262/4/3 261/4/3 260/4/3
f 263/4/3 261/4/3 262/4/3
f 266/4/3 265/4/3 264/4/3
f 267/4/3 265/4/3 266/4/3
f 268/4/3 265/4/3 267/4/3
f 269/4/3 265/4/3 268/4/3
f 272/4/3 271/4/3 270/4/3
f 273/4/3 271/4/3 272/4/3
f 277/7/3 275/7/3 274/7/3
f 278/7/3 277/7/3 276/7/3
f 279/7/3 275/7/3 277/7/3
f 279/7/3 277/7/3 278/7/3
f 280/7/3 275/7/3 279/7/3
f 281/7/3 275/7/3 280/7/3
f 285/7/3 283/7/3 282/7/3
f 286/7/3 285/7/3 284/7/3
f 287/7/3 283/7/3 285/7/3
f 287/7/3 285/7/3 286/7/3
f 288/7/3 283/7/3 287/7/3
f 289/7/3 283/7/3 288/7/3
f 290/7/4 291/7/4 293/7/4
f 292/7/4 293/7/4 294/7/4
f 293/7/4 291/7/4 295/7/4
f 294/7/4 293/7/4 295/7/4
f 295/7/4 291/7/4 296/7/4
f 296/7/4 291/7/4 297/7/4
f 298/7/4 299/7/4 301/7/4
f 300/7/4 301/7/4 302/7/4
f 301/7/4 299/7/4 303/7/4
f 302/7/4 301/7/4 303/7/4
f 303/7/4 299/7/4 304/7/4
f 304/7/4 299/7/4 305/7/4
f 306/4/4 307/4/4 308/4/4
f 308/4/4 307/4/4 309/4/4
f 310/4/4 311/4/4 312/4/4
f 312/4/4 311/4/4 313/4/4
f 314/4/4 315/4/4 316/4/4
f 316/4/4 315/4/4 317/4/4
f 317/4/4 315/4/4 318/4/4
f 318/4/4 315/4/4 319/4/4
f 320/6/4 321/6/4 322/6/4
f 320/6/4 322/6/4 325/6/4
f 322/4/4 323/4/4 326/4/4
f 325/6/4 322/6/4 326/6/4
f 326/4/4 323/4/4 327/4/4
f 324/7/4 325/7/4 329/7/4
f 325/7/4 326/7/4 329/7/4
f 326/7/4 327/7/4 329/7/4
f 327/4/4 323/4/4 330/4/4
f 329/7/4 327/7/4 330/7/4
f 330/4/4 323/4/4 331/4/4
f 328/7/4 329/7/4 332/7/4
f 329/7/4 330/7/4 332/7/4
f 330/7/4 331/7/4 332/7/4
f 332/7/4 331/7/4 333/7/4
f 328/7/4 332/7/4 334/7/4
f 332/4/4 333/4/4 334/4/4
f 333/7/4 331/7/4 335/7/4
f 334/4/4 333/4/4 335/4/4
f 331/4/4 323/4/4 336/4/4
f 328/7/4 334/7/4 340/7/4
f 334/7/4 335/7/4 340/7/4
f 340/7/4 335/7/4 341/7/4
f 335/7/4 331/7/4 342/7/4
f 341/7/4 335/7/4 342/7/4
f 331/4/4 336/4/4 343/4/4
f 342/7/4 331/7/4 343/7/4
f 338/1/4 339/1/4 344/1/4
f 337/4/4 338/4/4 344/4/4
f 344/1/4 339/1/4 345/1/4
f 341/7/4 342/7/4 346/7/4
f 346/7/4 342/7/4 347/7/4
f 347/7/4 342/7/4 348/7/4
f 342/4/4 343/4/4 349/4/4
f 348/7/4 342/7/4 349/7/4
f 343/4/4 336/4/4 350/4/4
f 349/4/4 343/4/4 350/4/4
f 336/7/4 337/7/4 350/7/4
f 348/7/4 349/7/4 351/7/4
f 347/6/4 348/6/4 351/6/4
f 349/7/4 350/7/4 351/7/4
f 350/7/4 337/7/4 352/7/4
f 351/7/4 350/7/4 352/7/4
f 351/4/4 352/4/4 353/4/4
f 352/7/4 337/7/4 353/7/4
f 344/4/4 345/4/4 354/4/4
f 353/7/4 337/7/4 354/7/4
f 337/4/4 344/4/4 354/4/4
f 351/4/4 353/4/4 355/4/4
f 353/4/4 354/4/4 355/4/4
f 354/4/4 345/4/4 356/4/4
f 355/4/4 354/4/4 356/4/4
f 351/4/4 355/4/4 357/4/4
f 355/7/4 356/7/4 357/7/4
f 356/4/4 345/4/4 358/4/4
f 357/7/4 356/7/4 358/7/4
f 351/4/4 357/4/4 359/4/4
f 357/4/4 358/4/4 359/4/4
f 358/4/4 345/4/4 360/4/4
f 359/4/4 358/4/4 360/4/4
f 351/4/4 359/4/4 361/4/4
f 359/7/4 360/7/4 361/7/4
f 360/4/4 345/4/4 362/4/4
f 361/7/4 360/7/4 362/7/4
f 351/4/4 361/4/4 363/4/4
f 361/4/4 362/4/4 363/4/4
f 362/4/4 345/4/4 364/4/4
f 363/4/4 362/4/4 364/4/4
f 347/6/4 351/6/4 366/6/4
f 351/4/4 363/4/4 367/4/4
f 366/6/4 351/6/4 367/6/4
f 367/4/4 363/4/4 368/4/4
f 365/7/4 366/7/4 370/7/4
f 366/7/4 367/7/4 370/7/4
f 367/7/4 368/7/4 370/7/4
f 368/4/4 363/4/4 371/4/4
f 370/7/4 368/7/4 371/7/4
f 371/4/4 363/4/4 372/4/4
f 363/7/4 364/7/4 373/7/4
f 372/4/4 363/4/4 373/4/4
f 364/4/4 345/4/4 374/4/4
f 373/7/4 364/7/4 374/7/4
f 369/7/4 370/7/4 375/7/4
f 371/7/4 372/7/4 375/7/4
f 370/7/4 371/7/4 375/7/4
f 375/7/4 372/7/4 376/7/4
f 372/4/4 373/4/4 377/4/4
f 373/4/4 374/4/4 377/4/4
f 374/4/4 345/4/4 378/4/4
f 377/4/4 374/4/4 378/4/4
f 375/4/4 376/4/4 379/4/4
f 369/7/4 375/7/4 379/7/4
f 376/7/4 372/7/4 380/7/4
f 379/4/4 376/4/4 380/4/4
f 369/7/4 379/7/4 381/7/4
f 379/7/4 380/7/4 381/7/4
f 381/7/4 380/7/4 382/7/4
f 380/7/4 372/7/4 383/7/4
f 382/7/4 380/7/4 383/7/4
f 372/4/4 377/4/4 384/4/4
f 383/7/4 372/7/4 384/7/4
f 382/7/4 383/7/4 385/7/4
f 385/7/4 383/7/4 386/7/4
f 386/7/4 383/7/4 387/7/4
f 383/4/4 384/4/4 388/4/4
f 387/7/4 383/7/4 388/7/4
f 384/4/4 377/4/4 389/4/4
f 388/4/4 384/4/4 389/4/4
f 377/7/4 378/7/4 389/7/4
f 378/4/4 345/4/4 390/4/4
f 389/7/4 378/7/4 390/7/4
f 387/4/4 388/4/4 391/4/4
f 388/4/4 389/4/4 391/4/4
f 389/4/4 390/4/4 391/4/4
f 390/4/4 345/4/4 392/4/4
f 391/4/4 390/4/4 392/4/4
f 387/4/4 391/4/4 393/4/4
f 391/7/4 392/7/4 394/7/4
f 393/4/4 391/4/4 394/4/4
f 392/4/4 345/4/4 395/4/4
f 394/7/4 392/7/4 395/7/4
f 395/4/4 345/4/4 396/4/4
f 396/4/4 345/4/4 397/4/4
f 386/6/4 387/6/4 398/6/4
f 387/4/4 393/4/4 398/4/4
f 393/2/4 394/2/4 399/2/4
f 398/4/4 393/4/4 399/4/4
f 394/4/4 395/4/4 400/4/4
f 399/2/4 394/2/4 400/2/4
f 395/4/4 396/4/4 400/4/4
f 396/1/4 397/1/4 401/1/4
f 400/4/4 396/4/4 401/4/4
f 401/1/4 397/1/4 402/1/4
f 386/6/4 398/6/4 403/6/4
f 403/6/4 398/6/4 404/6/4
f 409/7/5 406/7/5 405/7/5
f 410/7/5 406/7/5 409/7/5
f 411/7/5 408/7/5 407/7/5
f 412/7/5 408/7/5 411/7/5
f 417/7/5 414/7/5 413/7/5
f 418/7/5 414/7/5 417/7/5
f 419/7/5 416/7/5 415/7/5
f 420/7/5 416/7/5 419/7/5
f 429/7/5 422/7/5 421/7/5
f 430/7/5 422/7/5 429/7/5
f 431/7/5 424/7/5 423/7/5
f 432/7/5 424/7/5 431/7/5
f 433/7/5 426/7/5 425/7/5
f 434/7/5 426/7/5 433/7/5
f 435/7/5 428/7/5 427/7/5
f 436/7/5 428/7/5 435/7/5
f 445/7/5 438/7/5 437/7/5
f 446/7/5 438/7/5 445/7/5
f 447/7/5 440/7/5 439/7/5
f 448/7/5 440/7/5 447/7/5
f 449/7/5 442/7/5 441/7/5
f 450/7/5 442/7/5 449/7/5
f 451/7/5 444/7/5 443/7/5
f 452/7/5 444/7/5 451/7/5
f 459/6/5 454/6/5 453/6/5
f 460/6/5 456/6/5 455/6/5
f 461/6/5 456/6/5 460/6/5
f 462/6/5 458/6/5 457/6/5
f 463/6/5 461/6/5 460/6/5
f 463/6/5 462/6/5 461/6/5
f 463/6/5 459/6/5 453/6/5
f 463/6/5 460/6/5 459/6/5
f 464/6/5 462/6/5 463/6/5
f 465/6/5 462/6/5 464/6/5
f 466/6/5 458/6/5 462/6/5
f 466/6/5 462/6/5 465/6/5
f 467/6/5 463/6/5 453/6/5
f 468/6/5 463/6/5 467/6/5
f 469/6/5 465/6/5 464/6/5
f 470/6/5 465/6/5 469/6/5
f 471/6/5 458/6/5 466/6/5
f 472/6/5 458/6/5 471/6/5
f 475/1/5 474/1/5 473/1/5
f 476/1/5 474/1/5 475/1/5
f 477/6/6 478/6/6 481/6/6
f 481/6/6 478/6/6 482/6/6
f 479/6/6 480/6/6 483/6/6
f 483/6/6 480/6/6 484/6/6
f 485/4/6 486/4/6 487/4/6
f 487/4/6 486/4/6 488/4/6
f 485/4/6 487/4/6 489/4/6
f 489/4/6 487/4/6 490/4/6
f 485/4/6 489/4/6 491/4/6
f 491/4/6 492/4/6 493/4/6
f 491/4/6 493/4/6 495/4/6
f 493/4/6 494/4/6 495/4/6
f 485/4/6 491/4/6 495/4/6
f 495/4/6 494/4/6 496/4/6
f 497/1/6 498/1/6 499/1/6
f 499/1/6 498/1/6 500/1/6
f 500/1/6 498/1/6 501/1/6
f 502/4/6 503/4/6 505/4/6
f 504/4/6 505/4/6 506/4/6
f 505/4/6 503/4/6 507/4/6
f 506/4/6 505/4/6 507/4/6
f 507/4/6 503/4/6 508/4/6
f 508/4/6 503/4/6 509/4/6
f 510/1/6 511/1/6 514/1/6
f 511/4/6 512/4/6 515/4/6
f 514/1/6 511/1/6 515/1/6
f 512/1/6 513/1/6 516/1/6
f 515/4/6 512/4/6 516/4/6
f 516/1/6 513/1/6 517/1/6
f 518/1/6 519/1/6 522/1/6
f 519/4/6 520/4/6 523/4/6
f 522/1/6 519/1/6 523/1/6
f 520/1/6 521/1/6 524/1/6
f 523/4/6 520/4/6 524/4/6
f 524/1/6 521/1/6 525/1/6
f 526/4/6 527/4/6 528/4/6
f 528/4/6 527/4/6 529/4/6
