# MagicaVoxel @ Ephtracy

# group
g Bookshelf1

# material
mtllib Bookshelf1.mtl
usemtl palette

# normals
vn -1 0 0
vn 1 0 0
vn 0 0 1
vn 0 0 -1
vn 0 -1 0
vn 0 1 0

# texcoords
vt 0.939453 0.5
vt 0.943359 0.5
vt 0.970703 0.5
vt 0.974609 0.5
vt 0.978516 0.5
vt 0.982422 0.5
vt 0.986328 0.5
vt 0.990234 0.5

# verts
v -6 0 -2
v -6 0 -4
v -6 12 -2
v -6 12 -4
v -2 7 -2
v -2 7 -3
v -2 8 -2
v -2 8 -3
v -2 9 -2
v -2 9 -3
v -2 10 -2
v -2 10 -3
v 1 1 -2
v 1 1 -3
v 1 4 -2
v 1 4 -3
v 1 5 -2
v 1 5 -3
v 1 6 -2
v 1 6 -3
v 5 1 -2
v 5 1 -3
v 5 6 -2
v 5 6 -3
v 5 7 -2
v 5 7 -3
v 5 11 -2
v 5 11 -3
v -5 1 -2
v -5 1 -3
v -5 6 -2
v -5 6 -3
v -4 10 -2
v -4 10 -3
v -4 11 -2
v -4 11 -3
v -3 7 -2
v -3 7 -3
v -3 8 -2
v -3 8 -3
v -3 9 -2
v -3 9 -3
v -3 10 -2
v -3 10 -3
v -1 7 -2
v -1 7 -3
v -1 8 -2
v -1 8 -3
v -1 9 -2
v -1 9 -3
v -1 10 -2
v -1 10 -3
v 0 8 -2
v 0 8 -3
v 0 9 -2
v 0 9 -3
v 3 1 -2
v 3 1 -3
v 3 4 -2
v 3 4 -3
v 3 5 -2
v 3 5 -3
v 3 6 -2
v 3 6 -3
v 6 0 -2
v 6 0 -4
v 6 12 -2
v 6 12 -4
v -6 0 -2
v -6 12 -2
v -5 1 -2
v -5 6 -2
v -5 7 -2
v -5 9 -2
v -5 10 -2
v -5 11 -2
v -4 7 -2
v -4 9 -2
v -4 10 -2
v -4 11 -2
v -3 7 -2
v -3 8 -2
v -3 9 -2
v -3 10 -2
v -2 7 -2
v -2 8 -2
v -2 9 -2
v -2 10 -2
v -1 7 -2
v -1 8 -2
v -1 9 -2
v -1 10 -2
v 0 8 -2
v 0 9 -2
v 1 1 -2
v 1 4 -2
v 1 5 -2
v 1 6 -2
v 3 1 -2
v 3 4 -2
v 3 5 -2
v 3 6 -2
v 5 1 -2
v 5 6 -2
v 5 7 -2
v 5 11 -2
v 6 0 -2
v 6 12 -2
v -5 1 -3
v -5 6 -3
v -4 10 -3
v -4 11 -3
v -3 7 -3
v -3 8 -3
v -3 9 -3
v -3 10 -3
v -2 7 -3
v -2 8 -3
v -2 9 -3
v -2 10 -3
v -1 7 -3
v -1 8 -3
v -1 9 -3
v -1 10 -3
v 0 8 -3
v 0 9 -3
v 1 1 -3
v 1 4 -3
v 1 5 -3
v 1 6 -3
v 3 1 -3
v 3 4 -3
v 3 5 -3
v 3 6 -3
v 5 1 -3
v 5 6 -3
v 5 7 -3
v 5 11 -3
v -6 0 -4
v -6 12 -4
v -5 1 -4
v -5 6 -4
v -5 7 -4
v -5 9 -4
v -5 10 -4
v -5 11 -4
v -4 7 -4
v -4 9 -4
v -4 10 -4
v -4 11 -4
v -3 7 -4
v -3 8 -4
v -3 9 -4
v -3 10 -4
v -2 7 -4
v -2 8 -4
v -2 9 -4
v -2 10 -4
v -1 7 -4
v -1 8 -4
v -1 9 -4
v -1 10 -4
v 0 8 -4
v 0 9 -4
v 1 1 -4
v 1 4 -4
v 1 5 -4
v 1 6 -4
v 3 1 -4
v 3 4 -4
v 3 5 -4
v 3 6 -4
v 5 1 -4
v 5 6 -4
v 5 7 -4
v 5 11 -4
v 6 0 -4
v 6 12 -4
v -6 0 -2
v 6 0 -2
v -6 0 -4
v 6 0 -4
v -5 6 -2
v 1 6 -2
v 3 6 -2
v 5 6 -2
v -5 6 -3
v 1 6 -3
v 3 6 -3
v 5 6 -3
v -3 8 -2
v -2 8 -2
v -1 8 -2
v 0 8 -2
v -3 8 -3
v -2 8 -3
v -1 8 -3
v 0 8 -3
v -4 11 -2
v 5 11 -2
v -4 11 -3
v 5 11 -3
v -5 1 -2
v 1 1 -2
v 3 1 -2
v 5 1 -2
v -5 1 -3
v 1 1 -3
v 3 1 -3
v 5 1 -3
v -3 7 -2
v -2 7 -2
v -1 7 -2
v 5 7 -2
v -3 7 -3
v -2 7 -3
v -1 7 -3
v 5 7 -3
v -3 9 -2
v -2 9 -2
v -1 9 -2
v 0 9 -2
v -3 9 -3
v -2 9 -3
v -1 9 -3
v 0 9 -3
v -4 10 -2
v -3 10 -2
v -2 10 -2
v -1 10 -2
v -4 10 -3
v -3 10 -3
v -2 10 -3
v -1 10 -3
v -6 12 -2
v 6 12 -2
v -6 12 -4
v 6 12 -4

# faces
f 3/3/1 2/3/1 1/3/1
f 4/3/1 2/3/1 3/3/1
f 7/1/1 6/1/1 5/1/1
f 8/1/1 6/1/1 7/1/1
f 11/2/1 10/2/1 9/2/1
f 12/2/1 10/2/1 11/2/1
f 15/7/1 14/7/1 13/7/1
f 16/7/1 14/7/1 15/7/1
f 17/8/1 16/8/1 15/8/1
f 18/8/1 16/8/1 17/8/1
f 19/7/1 18/7/1 17/7/1
f 20/7/1 18/7/1 19/7/1
f 23/3/1 22/3/1 21/3/1
f 24/3/1 22/3/1 23/3/1
f 27/3/1 26/3/1 25/3/1
f 28/3/1 26/3/1 27/3/1
f 29/3/2 30/3/2 31/3/2
f 31/3/2 30/3/2 32/3/2
f 33/5/2 34/5/2 35/5/2
f 35/5/2 34/5/2 36/5/2
f 37/7/2 38/7/2 39/7/2
f 39/7/2 38/7/2 40/7/2
f 41/7/2 42/7/2 43/7/2
f 43/7/2 42/7/2 44/7/2
f 45/1/2 46/1/2 47/1/2
f 47/1/2 46/1/2 48/1/2
f 49/2/2 50/2/2 51/2/2
f 51/2/2 50/2/2 52/2/2
f 53/2/2 54/2/2 55/2/2
f 55/2/2 54/2/2 56/2/2
f 57/7/2 58/7/2 59/7/2
f 59/7/2 58/7/2 60/7/2
f 59/8/2 60/8/2 61/8/2
f 61/8/2 60/8/2 62/8/2
f 61/7/2 62/7/2 63/7/2
f 63/7/2 62/7/2 64/7/2
f 65/3/2 66/3/2 67/3/2
f 67/3/2 66/3/2 68/3/2
f 71/3/3 70/3/3 69/3/3
f 72/3/3 70/3/3 71/3/3
f 73/3/3 70/3/3 72/3/3
f 74/3/3 70/3/3 73/3/3
f 75/3/3 70/3/3 74/3/3
f 76/3/3 70/3/3 75/3/3
f 77/3/3 73/3/3 72/3/3
f 77/5/3 74/5/3 73/5/3
f 78/6/3 75/6/3 74/6/3
f 78/5/3 74/5/3 77/5/3
f 79/5/3 76/5/3 75/5/3
f 79/6/3 75/6/3 78/6/3
f 80/3/3 70/3/3 76/3/3
f 80/5/3 76/5/3 79/5/3
f 81/7/3 79/7/3 78/7/3
f 81/7/3 78/7/3 77/7/3
f 81/3/3 77/3/3 72/3/3
f 82/7/3 79/7/3 81/7/3
f 83/7/3 79/7/3 82/7/3
f 84/7/3 79/7/3 83/7/3
f 85/3/3 81/3/3 72/3/3
f 86/2/3 83/2/3 82/2/3
f 87/2/3 83/2/3 86/2/3
f 89/3/3 85/3/3 72/3/3
f 89/1/3 86/1/3 85/1/3
f 90/2/3 88/2/3 87/2/3
f 90/1/3 86/1/3 89/1/3
f 90/2/3 87/2/3 86/2/3
f 91/2/3 88/2/3 90/2/3
f 92/2/3 88/2/3 91/2/3
f 93/2/3 91/2/3 90/2/3
f 94/2/3 91/2/3 93/2/3
f 95/3/3 71/3/3 69/3/3
f 98/3/3 89/3/3 72/3/3
f 99/3/3 95/3/3 69/3/3
f 99/7/3 96/7/3 95/7/3
f 100/8/3 97/8/3 96/8/3
f 100/7/3 96/7/3 99/7/3
f 101/7/3 98/7/3 97/7/3
f 101/8/3 97/8/3 100/8/3
f 102/3/3 89/3/3 98/3/3
f 102/7/3 98/7/3 101/7/3
f 103/3/3 99/3/3 69/3/3
f 104/3/3 89/3/3 102/3/3
f 105/3/3 89/3/3 104/3/3
f 106/3/3 70/3/3 80/3/3
f 107/3/3 105/3/3 104/3/3
f 107/3/3 106/3/3 105/3/3
f 107/3/3 104/3/3 103/3/3
f 107/3/3 103/3/3 69/3/3
f 108/3/3 70/3/3 106/3/3
f 108/3/3 106/3/3 107/3/3
f 116/4/3 112/4/3 111/4/3
f 117/4/3 114/4/3 113/4/3
f 118/4/3 114/4/3 117/4/3
f 119/4/3 116/4/3 115/4/3
f 120/4/3 112/4/3 116/4/3
f 120/4/3 116/4/3 119/4/3
f 124/4/3 112/4/3 120/4/3
f 125/4/3 122/4/3 121/4/3
f 126/4/3 124/4/3 123/4/3
f 127/4/3 110/4/3 109/4/3
f 128/4/3 110/4/3 127/4/3
f 129/4/3 110/4/3 128/4/3
f 130/4/3 110/4/3 129/4/3
f 135/4/3 132/4/3 131/4/3
f 135/4/3 134/4/3 133/4/3
f 135/4/3 133/4/3 132/4/3
f 136/4/3 134/4/3 135/4/3
f 137/4/3 126/4/3 125/4/3
f 137/4/3 125/4/3 121/4/3
f 138/4/3 112/4/3 124/4/3
f 138/4/3 126/4/3 137/4/3
f 138/4/3 124/4/3 126/4/3
f 139/3/4 140/3/4 141/3/4
f 141/3/4 140/3/4 142/3/4
f 142/3/4 140/3/4 143/3/4
f 143/3/4 140/3/4 144/3/4
f 144/3/4 140/3/4 145/3/4
f 145/3/4 140/3/4 146/3/4
f 142/3/4 143/3/4 147/3/4
f 143/5/4 144/5/4 147/5/4
f 144/6/4 145/6/4 148/6/4
f 147/5/4 144/5/4 148/5/4
f 145/5/4 146/5/4 149/5/4
f 148/6/4 145/6/4 149/6/4
f 146/3/4 140/3/4 150/3/4
f 149/5/4 146/5/4 150/5/4
f 148/7/4 149/7/4 151/7/4
f 147/7/4 148/7/4 151/7/4
f 142/3/4 147/3/4 151/3/4
f 151/7/4 149/7/4 152/7/4
f 152/7/4 149/7/4 153/7/4
f 149/4/4 150/4/4 154/4/4
f 153/7/4 149/7/4 154/7/4
f 142/3/4 151/3/4 155/3/4
f 151/4/4 152/4/4 155/4/4
f 152/2/4 153/2/4 156/2/4
f 155/4/4 152/4/4 156/4/4
f 153/4/4 154/4/4 157/4/4
f 156/2/4 153/2/4 157/2/4
f 154/4/4 150/4/4 158/4/4
f 157/4/4 154/4/4 158/4/4
f 142/3/4 155/3/4 159/3/4
f 155/1/4 156/1/4 159/1/4
f 156/2/4 157/2/4 160/2/4
f 159/1/4 156/1/4 160/1/4
f 157/2/4 158/2/4 160/2/4
f 160/2/4 158/2/4 161/2/4
f 158/4/4 150/4/4 162/4/4
f 161/2/4 158/2/4 162/2/4
f 160/2/4 161/2/4 163/2/4
f 159/4/4 160/4/4 163/4/4
f 161/4/4 162/4/4 164/4/4
f 163/2/4 161/2/4 164/2/4
f 139/3/4 141/3/4 165/3/4
f 141/4/4 142/4/4 165/4/4
f 165/4/4 142/4/4 166/4/4
f 166/4/4 142/4/4 167/4/4
f 142/3/4 159/3/4 168/3/4
f 167/4/4 142/4/4 168/4/4
f 139/3/4 165/3/4 169/3/4
f 165/7/4 166/7/4 169/7/4
f 166/8/4 167/8/4 170/8/4
f 169/7/4 166/7/4 170/7/4
f 167/7/4 168/7/4 171/7/4
f 170/8/4 167/8/4 171/8/4
f 168/3/4 159/3/4 172/3/4
f 171/7/4 168/7/4 172/7/4
f 139/3/4 169/3/4 173/3/4
f 170/4/4 171/4/4 173/4/4
f 171/4/4 172/4/4 173/4/4
f 169/4/4 170/4/4 173/4/4
f 172/3/4 159/3/4 174/3/4
f 173/4/4 172/4/4 174/4/4
f 163/4/4 164/4/4 175/4/4
f 174/3/4 159/3/4 175/3/4
f 159/4/4 163/4/4 175/4/4
f 164/4/4 162/4/4 176/4/4
f 175/4/4 164/4/4 176/4/4
f 150/3/4 140/3/4 176/3/4
f 162/4/4 150/4/4 176/4/4
f 174/3/4 175/3/4 177/3/4
f 173/3/4 174/3/4 177/3/4
f 175/3/4 176/3/4 177/3/4
f 139/3/4 173/3/4 177/3/4
f 176/3/4 140/3/4 178/3/4
f 177/3/4 176/3/4 178/3/4
f 181/3/5 180/3/5 179/3/5
f 182/3/5 180/3/5 181/3/5
f 187/3/5 184/3/5 183/3/5
f 188/3/5 184/3/5 187/3/5
f 189/3/5 186/3/5 185/3/5
f 190/3/5 186/3/5 189/3/5
f 195/2/5 192/2/5 191/2/5
f 196/2/5 192/2/5 195/2/5
f 197/2/5 194/2/5 193/2/5
f 198/2/5 194/2/5 197/2/5
f 201/3/5 200/3/5 199/3/5
f 202/3/5 200/3/5 201/3/5
f 203/3/6 204/3/6 207/3/6
f 207/3/6 204/3/6 208/3/6
f 205/3/6 206/3/6 209/3/6
f 209/3/6 206/3/6 210/3/6
f 211/3/6 212/3/6 215/3/6
f 215/3/6 212/3/6 216/3/6
f 213/3/6 214/3/6 217/3/6
f 217/3/6 214/3/6 218/3/6
f 219/2/6 220/2/6 223/2/6
f 223/2/6 220/2/6 224/2/6
f 221/2/6 222/2/6 225/2/6
f 225/2/6 222/2/6 226/2/6
f 227/7/6 228/7/6 231/7/6
f 231/7/6 228/7/6 232/7/6
f 229/2/6 230/2/6 233/2/6
f 233/2/6 230/2/6 234/2/6
f 235/3/6 236/3/6 237/3/6
f 237/3/6 236/3/6 238/3/6
