# MagicaVoxel @ Ephtracy

# group
g crystal_light

# material
mtllib crystal_light.mtl
usemtl palette

# normals
vn -1 0 0
vn 1 0 0
vn 0 0 1
vn 0 0 -1
vn 0 -1 0
vn 0 1 0

# texcoords
vt 0.306641 0.5
vt 0.705078 0.5
vt 0.986328 0.5

# verts
v -6 23 1
v -6 23 -4
v -6 26 1
v -6 26 -4
v -5 20 1
v -5 20 -4
v -5 23 2
v -5 23 1
v -5 23 -4
v -5 23 -5
v -5 26 2
v -5 26 1
v -5 26 -4
v -5 26 -5
v -4 17 -0
v -4 17 -3
v -4 20 2
v -4 20 1
v -4 20 -0
v -4 20 -3
v -4 20 -4
v -4 20 -5
v -4 23 3
v -4 23 2
v -4 23 1
v -4 23 -4
v -4 23 -5
v -4 23 -6
v -4 26 3
v -4 26 2
v -4 26 -5
v -4 26 -6
v -3 17 1
v -3 17 -0
v -3 17 -3
v -3 17 -4
v -3 20 3
v -3 20 2
v -3 20 1
v -3 20 -0
v -3 20 -3
v -3 20 -4
v -3 20 -5
v -3 20 -6
v -3 23 4
v -3 23 3
v -3 23 2
v -3 23 -5
v -3 23 -6
v -3 23 -7
v -3 26 4
v -3 26 3
v -3 26 -0
v -3 26 -3
v -3 26 -6
v -3 26 -7
v -3 30 -0
v -3 30 -3
v -2 17 2
v -2 17 1
v -2 17 -4
v -2 17 -5
v -2 20 2
v -2 20 1
v -2 20 -4
v -2 20 -5
v -2 26 1
v -2 26 -0
v -2 26 -3
v -2 26 -4
v -2 30 1
v -2 30 -0
v -2 30 -3
v -2 30 -4
v -2 31 -0
v -2 31 -3
v -1 31 -1
v -1 31 -2
v -1 32 -1
v -1 32 -2
v 0 31 -1
v 0 31 -2
v 0 32 -1
v 0 32 -2
v 1 17 2
v 1 17 1
v 1 17 -4
v 1 17 -5
v 1 20 2
v 1 20 1
v 1 20 -4
v 1 20 -5
v 1 26 1
v 1 26 -0
v 1 26 -3
v 1 26 -4
v 1 30 1
v 1 30 -0
v 1 30 -3
v 1 30 -4
v 1 31 -0
v 1 31 -3
v 2 17 1
v 2 17 -0
v 2 17 -3
v 2 17 -4
v 2 20 3
v 2 20 2
v 2 20 1
v 2 20 -0
v 2 20 -3
v 2 20 -4
v 2 20 -5
v 2 20 -6
v 2 23 4
v 2 23 3
v 2 23 2
v 2 23 -5
v 2 23 -6
v 2 23 -7
v 2 26 4
v 2 26 3
v 2 26 -0
v 2 26 -3
v 2 26 -6
v 2 26 -7
v 2 30 -0
v 2 30 -3
v 3 17 -0
v 3 17 -3
v 3 20 2
v 3 20 1
v 3 20 -0
v 3 20 -3
v 3 20 -4
v 3 20 -5
v 3 23 3
v 3 23 2
v 3 23 1
v 3 23 -4
v 3 23 -5
v 3 23 -6
v 3 26 3
v 3 26 2
v 3 26 -5
v 3 26 -6
v 4 20 1
v 4 20 -4
v 4 23 2
v 4 23 1
v 4 23 -4
v 4 23 -5
v 4 26 2
v 4 26 1
v 4 26 -4
v 4 26 -5
v 5 23 1
v 5 23 -4
v 5 26 1
v 5 26 -4
v -3 23 4
v -3 26 4
v 2 23 4
v 2 26 4
v -4 23 3
v -4 26 3
v -3 20 3
v -3 23 3
v -3 26 3
v 2 20 3
v 2 23 3
v 2 26 3
v 3 23 3
v 3 26 3
v -5 23 2
v -5 26 2
v -4 20 2
v -4 23 2
v -4 26 2
v -3 20 2
v -3 23 2
v -2 17 2
v -2 20 2
v 1 17 2
v 1 20 2
v 2 20 2
v 2 23 2
v 3 20 2
v 3 23 2
v 3 26 2
v 4 23 2
v 4 26 2
v -6 23 1
v -6 26 1
v -5 20 1
v -5 23 1
v -5 26 1
v -4 20 1
v -4 23 1
v -3 17 1
v -3 20 1
v -2 17 1
v -2 20 1
v -2 26 1
v -2 30 1
v 1 17 1
v 1 20 1
v 1 26 1
v 1 30 1
v 2 17 1
v 2 20 1
v 3 20 1
v 3 23 1
v 4 20 1
v 4 23 1
v 4 26 1
v 5 23 1
v 5 26 1
v -4 17 -0
v -4 20 -0
v -3 17 -0
v -3 20 -0
v -3 26 -0
v -3 30 -0
v -2 26 -0
v -2 30 -0
v -2 31 -0
v 1 26 -0
v 1 30 -0
v 1 31 -0
v 2 17 -0
v 2 20 -0
v 2 26 -0
v 2 30 -0
v 3 17 -0
v 3 20 -0
v -1 31 -1
v -1 32 -1
v 0 31 -1
v 0 32 -1
v -1 31 -2
v -1 32 -2
v 0 31 -2
v 0 32 -2
v -4 17 -3
v -4 20 -3
v -3 17 -3
v -3 20 -3
v -3 26 -3
v -3 30 -3
v -2 26 -3
v -2 30 -3
v -2 31 -3
v 1 26 -3
v 1 30 -3
v 1 31 -3
v 2 17 -3
v 2 20 -3
v 2 26 -3
v 2 30 -3
v 3 17 -3
v 3 20 -3
v -6 23 -4
v -6 26 -4
v -5 20 -4
v -5 23 -4
v -5 26 -4
v -4 20 -4
v -4 23 -4
v -3 17 -4
v -3 20 -4
v -2 17 -4
v -2 20 -4
v -2 26 -4
v -2 30 -4
v 1 17 -4
v 1 20 -4
v 1 26 -4
v 1 30 -4
v 2 17 -4
v 2 20 -4
v 3 20 -4
v 3 23 -4
v 4 20 -4
v 4 23 -4
v 4 26 -4
v 5 23 -4
v 5 26 -4
v -5 23 -5
v -5 26 -5
v -4 20 -5
v -4 23 -5
v -4 26 -5
v -3 20 -5
v -3 23 -5
v -2 17 -5
v -2 20 -5
v 1 17 -5
v 1 20 -5
v 2 20 -5
v 2 23 -5
v 3 20 -5
v 3 23 -5
v 3 26 -5
v 4 23 -5
v 4 26 -5
v -4 23 -6
v -4 26 -6
v -3 20 -6
v -3 23 -6
v -3 26 -6
v 2 20 -6
v 2 23 -6
v 2 26 -6
v 3 23 -6
v 3 26 -6
v -3 23 -7
v -3 26 -7
v 2 23 -7
v 2 26 -7
v -2 17 2
v 1 17 2
v -3 17 1
v -2 17 1
v 1 17 1
v 2 17 1
v -4 17 -0
v -3 17 -0
v 2 17 -0
v 3 17 -0
v -4 17 -3
v -3 17 -3
v 2 17 -3
v 3 17 -3
v -3 17 -4
v -2 17 -4
v 1 17 -4
v 2 17 -4
v -2 17 -5
v 1 17 -5
v -3 20 3
v 2 20 3
v -4 20 2
v -3 20 2
v -2 20 2
v 1 20 2
v 2 20 2
v 3 20 2
v -5 20 1
v -4 20 1
v -3 20 1
v -2 20 1
v 1 20 1
v 2 20 1
v 3 20 1
v 4 20 1
v -4 20 -0
v -3 20 -0
v 2 20 -0
v 3 20 -0
v -4 20 -3
v -3 20 -3
v 2 20 -3
v 3 20 -3
v -5 20 -4
v -4 20 -4
v -3 20 -4
v -2 20 -4
v 1 20 -4
v 2 20 -4
v 3 20 -4
v 4 20 -4
v -4 20 -5
v -3 20 -5
v -2 20 -5
v 1 20 -5
v 2 20 -5
v 3 20 -5
v -3 20 -6
v 2 20 -6
v -3 23 4
v 2 23 4
v -4 23 3
v -3 23 3
v 2 23 3
v 3 23 3
v -5 23 2
v -4 23 2
v -3 23 2
v 2 23 2
v 3 23 2
v 4 23 2
v -6 23 1
v -5 23 1
v -4 23 1
v 3 23 1
v 4 23 1
v 5 23 1
v -6 23 -4
v -5 23 -4
v -4 23 -4
v 3 23 -4
v 4 23 -4
v 5 23 -4
v -5 23 -5
v -4 23 -5
v -3 23 -5
v 2 23 -5
v 3 23 -5
v 4 23 -5
v -4 23 -6
v -3 23 -6
v 2 23 -6
v 3 23 -6
v -3 23 -7
v 2 23 -7
v -3 26 4
v 2 26 4
v -4 26 3
v -3 26 3
v 2 26 3
v 3 26 3
v -5 26 2
v -4 26 2
v 3 26 2
v 4 26 2
v -6 26 1
v -5 26 1
v -2 26 1
v 1 26 1
v 4 26 1
v 5 26 1
v -3 26 -0
v -2 26 -0
v 1 26 -0
v 2 26 -0
v -3 26 -3
v -2 26 -3
v 1 26 -3
v 2 26 -3
v -6 26 -4
v -5 26 -4
v -2 26 -4
v 1 26 -4
v 4 26 -4
v 5 26 -4
v -5 26 -5
v -4 26 -5
v 3 26 -5
v 4 26 -5
v -4 26 -6
v -3 26 -6
v 2 26 -6
v 3 26 -6
v -3 26 -7
v 2 26 -7
v -2 30 1
v 1 30 1
v -3 30 -0
v -2 30 -0
v 1 30 -0
v 2 30 -0
v -3 30 -3
v -2 30 -3
v 1 30 -3
v 2 30 -3
v -2 30 -4
v 1 30 -4
v -2 31 -0
v 1 31 -0
v -1 31 -1
v 0 31 -1
v -1 31 -2
v 0 31 -2
v -2 31 -3
v 1 31 -3
v -1 32 -1
v 0 32 -1
v -1 32 -2
v 0 32 -2

# faces
f 3/3/1 2/3/1 1/3/1
f 4/3/1 2/3/1 3/3/1
f 8/3/1 6/3/1 5/3/1
f 9/3/1 6/3/1 8/3/1
f 11/3/1 8/3/1 7/3/1
f 12/3/1 8/3/1 11/3/1
f 13/3/1 10/3/1 9/3/1
f 14/3/1 10/3/1 13/3/1
f 19/3/1 16/3/1 15/3/1
f 20/3/1 16/3/1 19/3/1
f 24/3/1 18/3/1 17/3/1
f 25/3/1 18/3/1 24/3/1
f 26/3/1 22/3/1 21/3/1
f 27/3/1 22/3/1 26/3/1
f 29/3/1 24/3/1 23/3/1
f 30/3/1 24/3/1 29/3/1
f 31/3/1 28/3/1 27/3/1
f 32/3/1 28/3/1 31/3/1
f 39/3/1 34/3/1 33/3/1
f 40/3/1 34/3/1 39/3/1
f 41/3/1 36/3/1 35/3/1
f 42/3/1 36/3/1 41/3/1
f 46/3/1 38/3/1 37/3/1
f 47/3/1 38/3/1 46/3/1
f 48/3/1 44/3/1 43/3/1
f 49/3/1 44/3/1 48/3/1
f 51/3/1 46/3/1 45/3/1
f 52/3/1 46/3/1 51/3/1
f 55/3/1 50/3/1 49/3/1
f 56/3/1 50/3/1 55/3/1
f 57/2/1 54/2/1 53/2/1
f 58/2/1 54/2/1 57/2/1
f 63/3/1 60/3/1 59/3/1
f 64/3/1 60/3/1 63/3/1
f 65/3/1 62/3/1 61/3/1
f 66/3/1 62/3/1 65/3/1
f 71/2/1 68/2/1 67/2/1
f 72/2/1 68/2/1 71/2/1
f 73/2/1 70/2/1 69/2/1
f 74/2/1 70/2/1 73/2/1
f 75/2/1 73/2/1 72/2/1
f 76/2/1 73/2/1 75/2/1
f 79/2/1 78/2/1 77/2/1
f 80/2/1 78/2/1 79/2/1
f 81/2/2 82/2/2 83/2/2
f 83/2/2 82/2/2 84/2/2
f 85/3/2 86/3/2 89/3/2
f 89/3/2 86/3/2 90/3/2
f 87/3/2 88/3/2 91/3/2
f 91/3/2 88/3/2 92/3/2
f 93/2/2 94/2/2 97/2/2
f 97/2/2 94/2/2 98/2/2
f 95/2/2 96/2/2 99/2/2
f 99/2/2 96/2/2 100/2/2
f 98/2/2 99/2/2 101/2/2
f 101/2/2 99/2/2 102/2/2
f 103/3/2 104/3/2 109/3/2
f 109/3/2 104/3/2 110/3/2
f 105/3/2 106/3/2 111/3/2
f 111/3/2 106/3/2 112/3/2
f 107/3/2 108/3/2 116/3/2
f 116/3/2 108/3/2 117/3/2
f 113/3/2 114/3/2 118/3/2
f 118/3/2 114/3/2 119/3/2
f 115/3/2 116/3/2 121/3/2
f 121/3/2 116/3/2 122/3/2
f 119/3/2 120/3/2 125/3/2
f 125/3/2 120/3/2 126/3/2
f 123/2/2 124/2/2 127/2/2
f 127/2/2 124/2/2 128/2/2
f 129/3/2 130/3/2 133/3/2
f 133/3/2 130/3/2 134/3/2
f 131/3/2 132/3/2 138/3/2
f 138/3/2 132/3/2 139/3/2
f 135/3/2 136/3/2 140/3/2
f 140/3/2 136/3/2 141/3/2
f 137/3/2 138/3/2 143/3/2
f 143/3/2 138/3/2 144/3/2
f 141/3/2 142/3/2 145/3/2
f 145/3/2 142/3/2 146/3/2
f 147/3/2 148/3/2 150/3/2
f 150/3/2 148/3/2 151/3/2
f 149/3/2 150/3/2 153/3/2
f 153/3/2 150/3/2 154/3/2
f 151/3/2 152/3/2 155/3/2
f 155/3/2 152/3/2 156/3/2
f 157/3/2 158/3/2 159/3/2
f 159/3/2 158/3/2 160/3/2
f 163/3/3 162/3/3 161/3/3
f 164/3/3 162/3/3 163/3/3
f 168/3/3 166/3/3 165/3/3
f 169/3/3 166/3/3 168/3/3
f 170/3/3 168/3/3 167/3/3
f 171/3/3 168/3/3 170/3/3
f 173/3/3 172/3/3 171/3/3
f 174/3/3 172/3/3 173/3/3
f 178/3/3 176/3/3 175/3/3
f 179/3/3 176/3/3 178/3/3
f 180/3/3 178/3/3 177/3/3
f 181/3/3 178/3/3 180/3/3
f 184/3/3 183/3/3 182/3/3
f 185/3/3 183/3/3 184/3/3
f 188/3/3 187/3/3 186/3/3
f 189/3/3 187/3/3 188/3/3
f 191/3/3 190/3/3 189/3/3
f 192/3/3 190/3/3 191/3/3
f 196/3/3 194/3/3 193/3/3
f 197/3/3 194/3/3 196/3/3
f 198/3/3 196/3/3 195/3/3
f 199/3/3 196/3/3 198/3/3
f 202/3/3 201/3/3 200/3/3
f 203/3/3 201/3/3 202/3/3
f 208/2/3 205/2/3 204/2/3
f 209/2/3 205/2/3 208/2/3
f 210/3/3 207/3/3 206/3/3
f 211/3/3 207/3/3 210/3/3
f 214/3/3 213/3/3 212/3/3
f 215/3/3 213/3/3 214/3/3
f 217/3/3 216/3/3 215/3/3
f 218/3/3 216/3/3 217/3/3
f 221/3/3 220/3/3 219/3/3
f 222/3/3 220/3/3 221/3/3
f 225/2/3 224/2/3 223/2/3
f 226/2/3 224/2/3 225/2/3
f 229/2/3 227/2/3 226/2/3
f 230/2/3 227/2/3 229/2/3
f 233/2/3 229/2/3 228/2/3
f 234/2/3 229/2/3 233/2/3
f 235/3/3 232/3/3 231/3/3
f 236/3/3 232/3/3 235/3/3
f 239/2/3 238/2/3 237/2/3
f 240/2/3 238/2/3 239/2/3
f 241/2/4 242/2/4 243/2/4
f 243/2/4 242/2/4 244/2/4
f 245/3/4 246/3/4 247/3/4
f 247/3/4 246/3/4 248/3/4
f 249/2/4 250/2/4 251/2/4
f 251/2/4 250/2/4 252/2/4
f 252/2/4 253/2/4 255/2/4
f 255/2/4 253/2/4 256/2/4
f 254/2/4 255/2/4 259/2/4
f 259/2/4 255/2/4 260/2/4
f 257/3/4 258/3/4 261/3/4
f 261/3/4 258/3/4 262/3/4
f 263/3/4 264/3/4 266/3/4
f 266/3/4 264/3/4 267/3/4
f 265/3/4 266/3/4 268/3/4
f 268/3/4 266/3/4 269/3/4
f 270/3/4 271/3/4 272/3/4
f 272/3/4 271/3/4 273/3/4
f 274/2/4 275/2/4 278/2/4
f 278/2/4 275/2/4 279/2/4
f 276/3/4 277/3/4 280/3/4
f 280/3/4 277/3/4 281/3/4
f 282/3/4 283/3/4 284/3/4
f 284/3/4 283/3/4 285/3/4
f 285/3/4 286/3/4 287/3/4
f 287/3/4 286/3/4 288/3/4
f 289/3/4 290/3/4 292/3/4
f 292/3/4 290/3/4 293/3/4
f 291/3/4 292/3/4 294/3/4
f 294/3/4 292/3/4 295/3/4
f 296/3/4 297/3/4 298/3/4
f 298/3/4 297/3/4 299/3/4
f 300/3/4 301/3/4 302/3/4
f 302/3/4 301/3/4 303/3/4
f 303/3/4 304/3/4 305/3/4
f 305/3/4 304/3/4 306/3/4
f 307/3/4 308/3/4 310/3/4
f 310/3/4 308/3/4 311/3/4
f 309/3/4 310/3/4 312/3/4
f 312/3/4 310/3/4 313/3/4
f 313/3/4 314/3/4 315/3/4
f 315/3/4 314/3/4 316/3/4
f 317/3/4 318/3/4 319/3/4
f 319/3/4 318/3/4 320/3/4
f 324/3/5 322/3/5 321/3/5
f 325/3/5 322/3/5 324/3/5
f 328/3/5 324/3/5 323/3/5
f 328/3/5 326/3/5 325/3/5
f 328/3/5 325/3/5 324/3/5
f 329/3/5 326/3/5 328/3/5
f 331/3/5 328/3/5 327/3/5
f 331/3/5 330/3/5 329/3/5
f 331/3/5 329/3/5 328/3/5
f 332/3/5 330/3/5 331/3/5
f 333/3/5 330/3/5 332/3/5
f 334/3/5 330/3/5 333/3/5
f 335/3/5 333/3/5 332/3/5
f 336/3/5 333/3/5 335/3/5
f 337/3/5 333/3/5 336/3/5
f 338/3/5 333/3/5 337/3/5
f 339/3/5 337/3/5 336/3/5
f 340/3/5 337/3/5 339/3/5
f 344/3/5 342/3/5 341/3/5
f 345/3/5 342/3/5 344/3/5
f 346/3/5 342/3/5 345/3/5
f 347/3/5 342/3/5 346/3/5
f 350/3/5 344/3/5 343/3/5
f 350/3/5 345/3/5 344/3/5
f 351/3/5 345/3/5 350/3/5
f 352/3/5 345/3/5 351/3/5
f 353/3/5 347/3/5 346/3/5
f 353/3/5 348/3/5 347/3/5
f 354/3/5 348/3/5 353/3/5
f 355/3/5 348/3/5 354/3/5
f 357/3/5 351/3/5 350/3/5
f 357/3/5 350/3/5 349/3/5
f 358/3/5 351/3/5 357/3/5
f 359/3/5 356/3/5 355/3/5
f 359/3/5 355/3/5 354/3/5
f 360/3/5 356/3/5 359/3/5
f 361/3/5 357/3/5 349/3/5
f 364/3/5 356/3/5 360/3/5
f 365/3/5 362/3/5 361/3/5
f 365/3/5 361/3/5 349/3/5
f 366/3/5 362/3/5 365/3/5
f 367/3/5 362/3/5 366/3/5
f 370/3/5 364/3/5 363/3/5
f 371/3/5 356/3/5 364/3/5
f 371/3/5 364/3/5 370/3/5
f 372/3/5 356/3/5 371/3/5
f 373/3/5 368/3/5 367/3/5
f 373/3/5 367/3/5 366/3/5
f 374/3/5 368/3/5 373/3/5
f 375/3/5 368/3/5 374/3/5
f 376/3/5 370/3/5 369/3/5
f 376/3/5 371/3/5 370/3/5
f 377/3/5 371/3/5 376/3/5
f 378/3/5 371/3/5 377/3/5
f 379/3/5 375/3/5 374/3/5
f 379/3/5 377/3/5 376/3/5
f 379/3/5 376/3/5 375/3/5
f 380/3/5 377/3/5 379/3/5
f 384/3/5 382/3/5 381/3/5
f 385/3/5 382/3/5 384/3/5
f 388/3/5 384/3/5 383/3/5
f 389/3/5 384/3/5 388/3/5
f 390/3/5 386/3/5 385/3/5
f 391/3/5 386/3/5 390/3/5
f 394/3/5 388/3/5 387/3/5
f 395/3/5 388/3/5 394/3/5
f 396/3/5 392/3/5 391/3/5
f 397/3/5 392/3/5 396/3/5
f 399/3/5 394/3/5 393/3/5
f 400/3/5 394/3/5 399/3/5
f 403/3/5 398/3/5 397/3/5
f 404/3/5 398/3/5 403/3/5
f 405/3/5 401/3/5 400/3/5
f 406/3/5 401/3/5 405/3/5
f 409/3/5 403/3/5 402/3/5
f 410/3/5 403/3/5 409/3/5
f 411/3/5 407/3/5 406/3/5
f 412/3/5 407/3/5 411/3/5
f 413/3/5 409/3/5 408/3/5
f 414/3/5 409/3/5 413/3/5
f 415/3/5 413/3/5 412/3/5
f 416/3/5 413/3/5 415/3/5
f 417/3/6 418/3/6 420/3/6
f 420/3/6 418/3/6 421/3/6
f 419/3/6 420/3/6 424/3/6
f 421/3/6 422/3/6 424/3/6
f 420/3/6 421/3/6 424/3/6
f 424/3/6 422/3/6 425/3/6
f 423/3/6 424/3/6 428/3/6
f 425/3/6 426/3/6 428/3/6
f 424/3/6 425/3/6 428/3/6
f 428/3/6 426/3/6 429/3/6
f 429/3/6 426/3/6 430/3/6
f 430/3/6 426/3/6 431/3/6
f 427/3/6 428/3/6 433/3/6
f 428/3/6 429/3/6 433/3/6
f 433/3/6 429/3/6 434/3/6
f 431/3/6 432/3/6 435/3/6
f 430/3/6 431/3/6 435/3/6
f 435/3/6 432/3/6 436/3/6
f 427/3/6 433/3/6 437/3/6
f 436/3/6 432/3/6 440/3/6
f 437/3/6 438/3/6 441/3/6
f 427/3/6 437/3/6 441/3/6
f 441/3/6 438/3/6 442/3/6
f 442/3/6 438/3/6 443/3/6
f 439/3/6 440/3/6 444/3/6
f 440/3/6 432/3/6 445/3/6
f 444/3/6 440/3/6 445/3/6
f 445/3/6 432/3/6 446/3/6
f 442/3/6 443/3/6 447/3/6
f 443/3/6 444/3/6 447/3/6
f 444/3/6 445/3/6 447/3/6
f 447/3/6 445/3/6 448/3/6
f 448/3/6 445/3/6 449/3/6
f 449/3/6 445/3/6 450/3/6
f 448/3/6 449/3/6 451/3/6
f 451/3/6 449/3/6 452/3/6
f 452/3/6 449/3/6 453/3/6
f 453/3/6 449/3/6 454/3/6
f 452/3/6 453/3/6 455/3/6
f 455/3/6 453/3/6 456/3/6
f 457/2/6 458/2/6 460/2/6
f 460/2/6 458/2/6 461/2/6
f 459/2/6 460/2/6 463/2/6
f 463/2/6 460/2/6 464/2/6
f 461/2/6 462/2/6 465/2/6
f 465/2/6 462/2/6 466/2/6
f 464/2/6 465/2/6 467/2/6
f 467/2/6 465/2/6 468/2/6
f 469/2/6 470/2/6 471/2/6
f 471/2/6 470/2/6 472/2/6
f 469/2/6 471/2/6 473/2/6
f 472/2/6 470/2/6 474/2/6
f 469/2/6 473/2/6 475/2/6
f 473/2/6 474/2/6 475/2/6
f 474/2/6 470/2/6 476/2/6
f 475/2/6 474/2/6 476/2/6
f 477/2/6 478/2/6 479/2/6
f 479/2/6 478/2/6 480/2/6
