# MagicaVoxel @ Ephtracy

# group
g hedge_1

# material
mtllib hedge_1.mtl
usemtl palette

# normals
vn -1 0 0
vn 1 0 0
vn 0 0 1
vn 0 0 -1
vn 0 -1 0
vn 0 1 0

# texcoords
vt 0.896484 0.5
vt 0.904297 0.5
vt 0.908203 0.5

# verts
v -19 0 5
v -19 0 -6
v -19 2 5
v -19 2 -2
v -19 2 -4
v -19 2 -6
v -19 3 -2
v -19 3 -4
v -19 5 -3
v -19 5 -6
v -19 6 3
v -19 6 1
v -19 9 -3
v -19 9 -6
v -19 10 3
v -19 10 1
v -19 11 1
v -19 11 -1
v -19 13 -2
v -19 13 -4
v -19 14 5
v -19 14 3
v -19 14 1
v -19 14 -1
v -19 17 5
v -19 17 3
v -19 17 -2
v -19 17 -4
v -19 18 5
v -19 18 4
v -19 19 4
v -19 19 -1
v -19 20 5
v -19 20 -1
v -19 20 -6
v 17 0 5
v 17 0 -6
v 17 2 5
v 17 2 -6
v 17 3 -0
v 17 3 -3
v 17 6 -0
v 17 6 -3
v 17 10 5
v 17 10 3
v 17 12 5
v 17 12 3
v 17 15 -2
v 17 15 -5
v 17 18 4
v 17 18 1
v 17 18 -2
v 17 18 -5
v 17 19 5
v 17 19 4
v 17 19 1
v 17 19 -6
v 17 20 5
v 17 20 -6
v -19 0 5
v -19 2 5
v -19 14 5
v -19 17 5
v -19 18 5
v -19 20 5
v -18 2 5
v -18 4 5
v -18 14 5
v -18 17 5
v -16 2 5
v -16 4 5
v -14 8 5
v -14 13 5
v -14 18 5
v -14 20 5
v -13 17 5
v -13 19 5
v -10 8 5
v -10 13 5
v -9 17 5
v -9 19 5
v -6 4 5
v -6 8 5
v -6 17 5
v -6 19 5
v -4 17 5
v -4 19 5
v -2 4 5
v -2 8 5
v -2 12 5
v -2 16 5
v 1 12 5
v 1 16 5
v 2 4 5
v 2 6 5
v 5 4 5
v 5 6 5
v 5 15 5
v 5 19 5
v 8 15 5
v 8 19 5
v 9 7 5
v 9 12 5
v 12 7 5
v 12 12 5
v 12 16 5
v 12 19 5
v 16 10 5
v 16 12 5
v 16 16 5
v 16 19 5
v 16 20 5
v 17 0 5
v 17 2 5
v 17 10 5
v 17 12 5
v 17 19 5
v 17 20 5
v -19 0 -6
v -19 2 -6
v -19 5 -6
v -19 9 -6
v -19 20 -6
v -18 5 -6
v -18 9 -6
v -17 14 -6
v -17 17 -6
v -14 5 -6
v -14 9 -6
v -13 14 -6
v -13 17 -6
v -11 5 -6
v -11 9 -6
v -9 16 -6
v -9 19 -6
v -6 10 -6
v -6 12 -6
v -6 16 -6
v -6 19 -6
v -2 10 -6
v -2 12 -6
v -2 16 -6
v -2 18 -6
v -1 3 -6
v -1 6 -6
v 0 16 -6
v 0 18 -6
v 2 3 -6
v 2 6 -6
v 2 10 -6
v 2 13 -6
v 2 17 -6
v 2 19 -6
v 4 10 -6
v 4 13 -6
v 4 17 -6
v 4 19 -6
v 10 6 -6
v 10 9 -6
v 10 14 -6
v 10 18 -6
v 12 19 -6
v 12 20 -6
v 13 14 -6
v 13 18 -6
v 14 6 -6
v 14 9 -6
v 17 0 -6
v 17 2 -6
v 17 19 -6
v 17 20 -6
v -19 0 5
v 17 0 5
v -18 0 4
v -1 0 4
v -18 0 -5
v -1 0 -5
v -19 0 -6
v 17 0 -6
v -19 20 5
v -14 20 5
v 16 20 5
v 17 20 5
v -17 20 4
v -14 20 4
v -3 20 4
v 0 20 4
v -3 20 1
v 0 20 1
v 8 20 -0
v 11 20 -0
v -19 20 -1
v -17 20 -1
v -16 20 -1
v -11 20 -1
v -16 20 -3
v -11 20 -3
v -9 20 -4
v -6 20 -4
v 8 20 -4
v 11 20 -4
v -9 20 -5
v -6 20 -5
v 12 20 -5
v 16 20 -5
v -19 20 -6
v 12 20 -6
v 17 20 -6

# faces
f 3/3/1 2/3/1 1/3/1
f 4/3/1 2/3/1 3/3/1
f 5/3/1 2/3/1 4/3/1
f 6/3/1 2/3/1 5/3/1
f 7/2/1 4/2/1 3/2/1
f 7/1/1 5/1/1 4/1/1
f 8/2/1 6/2/1 5/2/1
f 8/1/1 5/1/1 7/1/1
f 9/2/1 8/2/1 7/2/1
f 10/2/1 6/2/1 8/2/1
f 10/2/1 8/2/1 9/2/1
f 11/2/1 7/2/1 3/2/1
f 11/2/1 9/2/1 7/2/1
f 12/2/1 9/2/1 11/2/1
f 13/1/1 10/1/1 9/1/1
f 13/2/1 9/2/1 12/2/1
f 14/1/1 10/1/1 13/1/1
f 15/1/1 12/1/1 11/1/1
f 15/2/1 11/2/1 3/2/1
f 16/2/1 14/2/1 13/2/1
f 16/1/1 12/1/1 15/1/1
f 16/2/1 13/2/1 12/2/1
f 17/2/1 16/2/1 15/2/1
f 17/2/1 14/2/1 16/2/1
f 18/2/1 14/2/1 17/2/1
f 19/2/1 14/2/1 18/2/1
f 20/2/1 14/2/1 19/2/1
f 21/2/1 15/2/1 3/2/1
f 21/2/1 17/2/1 15/2/1
f 22/2/1 17/2/1 21/2/1
f 23/1/1 18/1/1 17/1/1
f 23/2/1 17/2/1 22/2/1
f 24/2/1 19/2/1 18/2/1
f 24/1/1 18/1/1 23/1/1
f 25/1/1 22/1/1 21/1/1
f 26/2/1 23/2/1 22/2/1
f 26/1/1 22/1/1 25/1/1
f 26/2/1 24/2/1 23/2/1
f 27/1/1 20/1/1 19/1/1
f 27/2/1 24/2/1 26/2/1
f 27/2/1 19/2/1 24/2/1
f 28/2/1 14/2/1 20/2/1
f 28/1/1 20/1/1 27/1/1
f 29/2/1 27/2/1 26/2/1
f 29/2/1 26/2/1 25/2/1
f 29/2/1 28/2/1 27/2/1
f 30/2/1 28/2/1 29/2/1
f 31/1/1 30/1/1 29/1/1
f 31/2/1 28/2/1 30/2/1
f 32/2/1 28/2/1 31/2/1
f 33/1/1 31/1/1 29/1/1
f 33/1/1 32/1/1 31/1/1
f 34/2/1 28/2/1 32/2/1
f 34/1/1 32/1/1 33/1/1
f 35/2/1 14/2/1 28/2/1
f 35/2/1 28/2/1 34/2/1
f 36/3/2 37/3/2 38/3/2
f 38/3/2 37/3/2 39/3/2
f 38/2/2 39/2/2 40/2/2
f 40/2/2 39/2/2 41/2/2
f 38/2/2 40/2/2 42/2/2
f 40/1/2 41/1/2 42/1/2
f 41/2/2 39/2/2 43/2/2
f 42/1/2 41/1/2 43/1/2
f 38/2/2 42/2/2 44/2/2
f 42/2/2 43/2/2 44/2/2
f 44/2/2 43/2/2 45/2/2
f 44/1/2 45/1/2 46/1/2
f 45/2/2 43/2/2 47/2/2
f 46/1/2 45/1/2 47/1/2
f 46/2/2 47/2/2 48/2/2
f 47/2/2 43/2/2 48/2/2
f 43/2/2 39/2/2 49/2/2
f 48/2/2 43/2/2 49/2/2
f 46/2/2 48/2/2 50/2/2
f 50/2/2 48/2/2 51/2/2
f 48/1/2 49/1/2 52/1/2
f 51/2/2 48/2/2 52/2/2
f 49/2/2 39/2/2 53/2/2
f 52/1/2 49/1/2 53/1/2
f 46/2/2 50/2/2 54/2/2
f 50/1/2 51/1/2 55/1/2
f 54/2/2 50/2/2 55/2/2
f 51/2/2 52/2/2 56/2/2
f 55/1/2 51/1/2 56/1/2
f 52/2/2 53/2/2 56/2/2
f 53/2/2 39/2/2 57/2/2
f 56/2/2 53/2/2 57/2/2
f 54/1/2 55/1/2 58/1/2
f 55/1/2 56/1/2 58/1/2
f 56/1/2 57/1/2 58/1/2
f 58/1/2 57/1/2 59/1/2
f 66/3/3 61/3/3 60/3/3
f 66/2/3 62/2/3 61/2/3
f 67/2/3 62/2/3 66/2/3
f 68/1/3 63/1/3 62/1/3
f 68/2/3 62/2/3 67/2/3
f 69/2/3 64/2/3 63/2/3
f 69/1/3 63/1/3 68/1/3
f 70/1/3 67/1/3 66/1/3
f 70/3/3 66/3/3 60/3/3
f 71/2/3 68/2/3 67/2/3
f 71/1/3 67/1/3 70/1/3
f 71/2/3 69/2/3 68/2/3
f 72/2/3 71/2/3 70/2/3
f 72/2/3 69/2/3 71/2/3
f 73/2/3 69/2/3 72/2/3
f 74/1/3 65/1/3 64/1/3
f 74/2/3 69/2/3 73/2/3
f 74/2/3 64/2/3 69/2/3
f 75/1/3 65/1/3 74/1/3
f 76/2/3 74/2/3 73/2/3
f 76/2/3 75/2/3 74/2/3
f 77/2/3 75/2/3 76/2/3
f 78/1/3 73/1/3 72/1/3
f 78/2/3 72/2/3 70/2/3
f 79/2/3 76/2/3 73/2/3
f 79/1/3 73/1/3 78/1/3
f 80/1/3 77/1/3 76/1/3
f 80/2/3 76/2/3 79/2/3
f 80/2/3 79/2/3 78/2/3
f 81/2/3 75/2/3 77/2/3
f 81/1/3 77/1/3 80/1/3
f 82/2/3 80/2/3 78/2/3
f 82/2/3 78/2/3 70/2/3
f 82/2/3 81/2/3 80/2/3
f 83/2/3 81/2/3 82/2/3
f 84/2/3 81/2/3 83/2/3
f 85/2/3 75/2/3 81/2/3
f 85/2/3 81/2/3 84/2/3
f 86/2/3 84/2/3 83/2/3
f 86/1/3 85/1/3 84/1/3
f 87/2/3 75/2/3 85/2/3
f 87/1/3 85/1/3 86/1/3
f 88/2/3 82/2/3 70/2/3
f 88/1/3 83/1/3 82/1/3
f 89/2/3 86/2/3 83/2/3
f 89/1/3 83/1/3 88/1/3
f 89/2/3 87/2/3 86/2/3
f 90/2/3 87/2/3 89/2/3
f 91/2/3 87/2/3 90/2/3
f 92/2/3 89/2/3 88/2/3
f 92/2/3 90/2/3 89/2/3
f 92/1/3 91/1/3 90/1/3
f 93/2/3 87/2/3 91/2/3
f 93/1/3 91/1/3 92/1/3
f 94/2/3 88/2/3 70/2/3
f 94/2/3 92/2/3 88/2/3
f 94/2/3 93/2/3 92/2/3
f 95/2/3 93/2/3 94/2/3
f 96/2/3 94/2/3 70/2/3
f 96/1/3 95/1/3 94/1/3
f 97/2/3 93/2/3 95/2/3
f 97/1/3 95/1/3 96/1/3
f 98/2/3 93/2/3 97/2/3
f 99/2/3 87/2/3 93/2/3
f 99/2/3 93/2/3 98/2/3
f 99/2/3 75/2/3 87/2/3
f 100/2/3 98/2/3 97/2/3
f 100/2/3 97/2/3 96/2/3
f 100/1/3 99/1/3 98/1/3
f 101/2/3 75/2/3 99/2/3
f 101/1/3 99/1/3 100/1/3
f 102/2/3 100/2/3 96/2/3
f 102/2/3 101/2/3 100/2/3
f 103/2/3 101/2/3 102/2/3
f 104/2/3 102/2/3 96/2/3
f 104/1/3 103/1/3 102/1/3
f 105/2/3 101/2/3 103/2/3
f 105/1/3 103/1/3 104/1/3
f 106/2/3 101/2/3 105/2/3
f 107/2/3 75/2/3 101/2/3
f 107/2/3 101/2/3 106/2/3
f 108/2/3 106/2/3 105/2/3
f 108/2/3 105/2/3 104/2/3
f 109/2/3 106/2/3 108/2/3
f 110/1/3 107/1/3 106/1/3
f 110/2/3 106/2/3 109/2/3
f 111/2/3 75/2/3 107/2/3
f 111/1/3 107/1/3 110/1/3
f 112/2/3 75/2/3 111/2/3
f 113/3/3 70/3/3 60/3/3
f 114/2/3 96/2/3 70/2/3
f 114/3/3 70/3/3 113/3/3
f 114/2/3 104/2/3 96/2/3
f 114/2/3 108/2/3 104/2/3
f 115/1/3 109/1/3 108/1/3
f 115/2/3 108/2/3 114/2/3
f 116/2/3 110/2/3 109/2/3
f 116/1/3 109/1/3 115/1/3
f 116/2/3 111/2/3 110/2/3
f 117/1/3 112/1/3 111/1/3
f 117/2/3 111/2/3 116/2/3
f 118/1/3 112/1/3 117/1/3
f 120/2/4 121/2/4 124/2/4
f 121/1/4 122/1/4 124/1/4
f 122/2/4 123/2/4 125/2/4
f 124/1/4 122/1/4 125/1/4
f 124/2/4 125/2/4 126/2/4
f 125/2/4 123/2/4 126/2/4
f 126/2/4 123/2/4 127/2/4
f 120/2/4 124/2/4 128/2/4
f 124/2/4 126/2/4 128/2/4
f 128/2/4 126/2/4 129/2/4
f 126/1/4 127/1/4 130/1/4
f 129/2/4 126/2/4 130/2/4
f 127/2/4 123/2/4 131/2/4
f 130/1/4 127/1/4 131/1/4
f 128/1/4 129/1/4 132/1/4
f 120/2/4 128/2/4 132/2/4
f 129/2/4 130/2/4 133/2/4
f 132/1/4 129/1/4 133/1/4
f 130/2/4 131/2/4 133/2/4
f 132/2/4 133/2/4 134/2/4
f 133/2/4 131/2/4 134/2/4
f 131/2/4 123/2/4 135/2/4
f 134/2/4 131/2/4 135/2/4
f 132/2/4 134/2/4 136/2/4
f 136/2/4 134/2/4 137/2/4
f 134/1/4 135/1/4 138/1/4
f 137/2/4 134/2/4 138/2/4
f 135/2/4 123/2/4 139/2/4
f 138/1/4 135/1/4 139/1/4
f 136/1/4 137/1/4 140/1/4
f 132/2/4 136/2/4 140/2/4
f 137/2/4 138/2/4 141/2/4
f 140/1/4 137/1/4 141/1/4
f 138/2/4 139/2/4 141/2/4
f 141/2/4 139/2/4 142/2/4
f 142/2/4 139/2/4 143/2/4
f 120/2/4 132/2/4 144/2/4
f 132/2/4 140/2/4 144/2/4
f 140/2/4 141/2/4 144/2/4
f 141/2/4 142/2/4 144/2/4
f 144/2/4 142/2/4 145/2/4
f 142/1/4 143/1/4 146/1/4
f 145/2/4 142/2/4 146/2/4
f 143/2/4 139/2/4 147/2/4
f 146/1/4 143/1/4 147/1/4
f 144/1/4 145/1/4 148/1/4
f 120/2/4 144/2/4 148/2/4
f 145/2/4 146/2/4 149/2/4
f 148/1/4 145/1/4 149/1/4
f 146/2/4 147/2/4 149/2/4
f 149/2/4 147/2/4 150/2/4
f 150/2/4 147/2/4 151/2/4
f 151/2/4 147/2/4 152/2/4
f 147/2/4 139/2/4 153/2/4
f 152/2/4 147/2/4 153/2/4
f 139/2/4 123/2/4 153/2/4
f 150/1/4 151/1/4 154/1/4
f 148/2/4 149/2/4 154/2/4
f 149/2/4 150/2/4 154/2/4
f 151/2/4 152/2/4 155/2/4
f 154/1/4 151/1/4 155/1/4
f 152/1/4 153/1/4 156/1/4
f 155/2/4 152/2/4 156/2/4
f 153/2/4 123/2/4 157/2/4
f 156/1/4 153/1/4 157/1/4
f 148/2/4 154/2/4 158/2/4
f 155/2/4 156/2/4 158/2/4
f 156/2/4 157/2/4 158/2/4
f 154/2/4 155/2/4 158/2/4
f 158/2/4 157/2/4 159/2/4
f 159/2/4 157/2/4 160/2/4
f 160/2/4 157/2/4 161/2/4
f 157/2/4 123/2/4 162/2/4
f 161/2/4 157/2/4 162/2/4
f 162/2/4 123/2/4 163/2/4
f 160/1/4 161/1/4 164/1/4
f 159/2/4 160/2/4 164/2/4
f 161/2/4 162/2/4 165/2/4
f 164/1/4 161/1/4 165/1/4
f 148/2/4 158/2/4 166/2/4
f 158/1/4 159/1/4 166/1/4
f 164/2/4 165/2/4 167/2/4
f 166/1/4 159/1/4 167/1/4
f 159/2/4 164/2/4 167/2/4
f 119/3/4 120/3/4 168/3/4
f 120/2/4 148/2/4 169/2/4
f 168/3/4 120/3/4 169/3/4
f 148/2/4 166/2/4 169/2/4
f 166/2/4 167/2/4 169/2/4
f 167/2/4 165/2/4 170/2/4
f 169/2/4 167/2/4 170/2/4
f 165/2/4 162/2/4 170/2/4
f 162/1/4 163/1/4 170/1/4
f 170/1/4 163/1/4 171/1/4
f 174/3/5 173/3/5 172/3/5
f 175/3/5 173/3/5 174/3/5
f 176/3/5 174/3/5 172/3/5
f 176/2/5 175/2/5 174/2/5
f 177/3/5 173/3/5 175/3/5
f 177/2/5 175/2/5 176/2/5
f 178/3/5 176/3/5 172/3/5
f 178/3/5 177/3/5 176/3/5
f 179/3/5 173/3/5 177/3/5
f 179/3/5 177/3/5 178/3/5
f 180/1/6 181/1/6 184/1/6
f 181/2/6 182/2/6 185/2/6
f 184/1/6 181/1/6 185/1/6
f 185/2/6 182/2/6 186/2/6
f 186/2/6 182/2/6 187/2/6
f 184/2/6 185/2/6 188/2/6
f 185/2/6 186/2/6 188/2/6
f 186/1/6 187/1/6 188/1/6
f 187/2/6 182/2/6 189/2/6
f 188/1/6 187/1/6 189/1/6
f 188/2/6 189/2/6 190/2/6
f 189/2/6 182/2/6 190/2/6
f 190/2/6 182/2/6 191/2/6
f 180/1/6 184/1/6 192/1/6
f 184/2/6 188/2/6 193/2/6
f 192/1/6 184/1/6 193/1/6
f 188/2/6 190/2/6 193/2/6
f 193/2/6 190/2/6 194/2/6
f 194/2/6 190/2/6 195/2/6
f 192/2/6 193/2/6 196/2/6
f 193/2/6 194/2/6 196/2/6
f 194/1/6 195/1/6 196/1/6
f 195/2/6 190/2/6 197/2/6
f 196/1/6 195/1/6 197/1/6
f 196/2/6 197/2/6 198/2/6
f 197/2/6 190/2/6 198/2/6
f 198/2/6 190/2/6 199/2/6
f 190/1/6 191/1/6 200/1/6
f 199/2/6 190/2/6 200/2/6
f 191/2/6 182/2/6 201/2/6
f 200/1/6 191/1/6 201/1/6
f 198/1/6 199/1/6 202/1/6
f 196/2/6 198/2/6 202/2/6
f 199/2/6 200/2/6 203/2/6
f 202/1/6 199/1/6 203/1/6
f 200/2/6 201/2/6 203/2/6
f 201/2/6 182/2/6 204/2/6
f 203/2/6 201/2/6 204/2/6
f 182/1/6 183/1/6 205/1/6
f 204/2/6 182/2/6 205/2/6
f 203/2/6 204/2/6 206/2/6
f 196/2/6 202/2/6 206/2/6
f 202/2/6 203/2/6 206/2/6
f 192/2/6 196/2/6 206/2/6
f 204/1/6 205/1/6 207/1/6
f 206/2/6 204/2/6 207/2/6
f 205/1/6 183/1/6 208/1/6
f 207/1/6 205/1/6 208/1/6
