# MagicaVoxel @ Ephtracy

# group
g ship

# material
mtllib ship.mtl
usemtl palette

# normals
vn -1 0 0
vn 1 0 0
vn 0 0 1
vn 0 0 -1
vn 0 -1 0
vn 0 1 0

# texcoords
vt 0.373047 0.5
vt 0.841797 0.5

# verts
v -10 17 -0
v -10 17 -1
v -10 20 -0
v -10 20 -1
v -9 0 15
v -9 0 -14
v -9 4 15
v -9 4 -14
v -8 16 -1
v -8 16 -2
v -8 17 -1
v -8 20 -1
v -8 28 -1
v -8 28 -2
v -6 0 19
v -6 0 15
v -6 0 -14
v -6 0 -18
v -6 4 19
v -6 4 15
v -6 4 -14
v -6 4 -18
v -4 13 -1
v -4 13 -2
v -4 16 -1
v -4 16 -2
v -1 2 1
v -1 2 -1
v -1 13 -1
v -1 17 -0
v -1 17 -1
v -1 20 -0
v -1 20 -1
v -1 28 -1
v -1 30 1
v -1 30 -1
v 1 1 15
v 1 1 1
v 1 1 -1
v 1 1 -14
v 1 2 15
v 1 2 1
v 1 2 -1
v 1 2 -14
v 3 2 15
v 3 2 -14
v 3 3 15
v 3 3 -14
v 5 3 15
v 5 3 -14
v 5 4 15
v 5 4 -14
v -5 3 15
v -5 3 -14
v -5 4 15
v -5 4 -14
v -3 2 15
v -3 2 -14
v -3 3 15
v -3 3 -14
v -1 1 15
v -1 1 1
v -1 1 -1
v -1 1 -14
v -1 2 15
v -1 2 1
v -1 2 -1
v -1 2 -14
v 1 2 1
v 1 2 -1
v 1 13 -1
v 1 17 -0
v 1 17 -1
v 1 20 -0
v 1 20 -1
v 1 28 -1
v 1 30 1
v 1 30 -1
v 4 13 -1
v 4 13 -2
v 4 16 -1
v 4 16 -2
v 6 0 19
v 6 0 15
v 6 0 -14
v 6 0 -18
v 6 4 19
v 6 4 15
v 6 4 -14
v 6 4 -18
v 8 16 -1
v 8 16 -2
v 8 17 -1
v 8 20 -1
v 8 28 -1
v 8 28 -2
v 9 0 15
v 9 0 -14
v 9 4 15
v 9 4 -14
v 10 17 -0
v 10 17 -1
v 10 20 -0
v 10 20 -1
v -6 0 19
v -6 4 19
v 6 0 19
v 6 4 19
v -9 0 15
v -9 4 15
v -6 0 15
v -6 4 15
v 6 0 15
v 6 4 15
v 9 0 15
v 9 4 15
v -1 1 1
v -1 2 1
v -1 30 1
v 1 1 1
v 1 2 1
v 1 30 1
v -10 17 -0
v -10 20 -0
v -1 17 -0
v -1 20 -0
v 1 17 -0
v 1 20 -0
v 10 17 -0
v 10 20 -0
v -8 16 -1
v -8 17 -1
v -8 20 -1
v -8 28 -1
v -4 13 -1
v -4 16 -1
v -1 13 -1
v -1 17 -1
v -1 20 -1
v -1 28 -1
v 1 13 -1
v 1 17 -1
v 1 20 -1
v 1 28 -1
v 4 13 -1
v 4 16 -1
v 8 16 -1
v 8 17 -1
v 8 20 -1
v 8 28 -1
v -5 3 -14
v -5 4 -14
v -3 2 -14
v -3 3 -14
v -1 1 -14
v -1 2 -14
v 1 1 -14
v 1 2 -14
v 3 2 -14
v 3 3 -14
v 5 3 -14
v 5 4 -14
v -5 3 15
v -5 4 15
v -3 2 15
v -3 3 15
v -1 1 15
v -1 2 15
v 1 1 15
v 1 2 15
v 3 2 15
v 3 3 15
v 5 3 15
v 5 4 15
v -10 17 -1
v -10 20 -1
v -8 17 -1
v -8 20 -1
v -1 1 -1
v -1 2 -1
v -1 13 -1
v -1 28 -1
v -1 30 -1
v 1 1 -1
v 1 2 -1
v 1 13 -1
v 1 28 -1
v 1 30 -1
v 8 17 -1
v 8 20 -1
v 10 17 -1
v 10 20 -1
v -8 16 -2
v -8 28 -2
v -4 13 -2
v -4 16 -2
v 4 13 -2
v 4 16 -2
v 8 16 -2
v 8 28 -2
v -9 0 -14
v -9 4 -14
v -6 0 -14
v -6 4 -14
v 6 0 -14
v 6 4 -14
v 9 0 -14
v 9 4 -14
v -6 0 -18
v -6 4 -18
v 6 0 -18
v 6 4 -18
v -6 0 19
v 6 0 19
v -9 0 15
v -6 0 15
v 6 0 15
v 9 0 15
v -9 0 -14
v -6 0 -14
v 6 0 -14
v 9 0 -14
v -6 0 -18
v 6 0 -18
v -4 13 -1
v -1 13 -1
v 1 13 -1
v 4 13 -1
v -4 13 -2
v 4 13 -2
v -8 16 -1
v -4 16 -1
v 4 16 -1
v 8 16 -1
v -8 16 -2
v -4 16 -2
v 4 16 -2
v 8 16 -2
v -10 17 -0
v -1 17 -0
v 1 17 -0
v 10 17 -0
v -10 17 -1
v -8 17 -1
v -1 17 -1
v 1 17 -1
v 8 17 -1
v 10 17 -1
v -1 1 15
v 1 1 15
v -1 1 1
v 1 1 1
v -1 1 -1
v 1 1 -1
v -1 1 -14
v 1 1 -14
v -3 2 15
v -1 2 15
v 1 2 15
v 3 2 15
v -1 2 1
v 1 2 1
v -1 2 -1
v 1 2 -1
v -3 2 -14
v -1 2 -14
v 1 2 -14
v 3 2 -14
v -5 3 15
v -3 3 15
v 3 3 15
v 5 3 15
v -5 3 -14
v -3 3 -14
v 3 3 -14
v 5 3 -14
v -6 4 19
v 6 4 19
v -9 4 15
v -6 4 15
v -5 4 15
v 5 4 15
v 6 4 15
v 9 4 15
v -9 4 -14
v -6 4 -14
v -5 4 -14
v 5 4 -14
v 6 4 -14
v 9 4 -14
v -6 4 -18
v 6 4 -18
v -10 20 -0
v -1 20 -0
v 1 20 -0
v 10 20 -0
v -10 20 -1
v -8 20 -1
v -1 20 -1
v 1 20 -1
v 8 20 -1
v 10 20 -1
v -8 28 -1
v -1 28 -1
v 1 28 -1
v 8 28 -1
v -8 28 -2
v 8 28 -2
v -1 30 1
v 1 30 1
v -1 30 -1
v 1 30 -1

# faces
f 3/1/1 2/1/1 1/1/1
f 4/1/1 2/1/1 3/1/1
f 7/1/1 6/1/1 5/1/1
f 8/1/1 6/1/1 7/1/1
f 11/2/1 10/2/1 9/2/1
f 12/2/1 10/2/1 11/2/1
f 13/2/1 10/2/1 12/2/1
f 14/2/1 10/2/1 13/2/1
f 19/1/1 16/1/1 15/1/1
f 20/1/1 16/1/1 19/1/1
f 21/1/1 18/1/1 17/1/1
f 22/1/1 18/1/1 21/1/1
f 25/2/1 24/2/1 23/2/1
f 26/2/1 24/2/1 25/2/1
f 29/1/1 28/1/1 27/1/1
f 30/1/1 29/1/1 27/1/1
f 31/1/1 29/1/1 30/1/1
f 32/1/1 30/1/1 27/1/1
f 34/1/1 33/1/1 32/1/1
f 35/1/1 32/1/1 27/1/1
f 35/1/1 34/1/1 32/1/1
f 36/1/1 34/1/1 35/1/1
f 41/1/1 38/1/1 37/1/1
f 42/1/1 38/1/1 41/1/1
f 43/1/1 40/1/1 39/1/1
f 44/1/1 40/1/1 43/1/1
f 47/1/1 46/1/1 45/1/1
f 48/1/1 46/1/1 47/1/1
f 51/1/1 50/1/1 49/1/1
f 52/1/1 50/1/1 51/1/1
f 53/1/2 54/1/2 55/1/2
f 55/1/2 54/1/2 56/1/2
f 57/1/2 58/1/2 59/1/2
f 59/1/2 58/1/2 60/1/2
f 61/1/2 62/1/2 65/1/2
f 65/1/2 62/1/2 66/1/2
f 63/1/2 64/1/2 67/1/2
f 67/1/2 64/1/2 68/1/2
f 69/1/2 70/1/2 71/1/2
f 69/1/2 71/1/2 72/1/2
f 72/1/2 71/1/2 73/1/2
f 69/1/2 72/1/2 74/1/2
f 74/1/2 75/1/2 76/1/2
f 69/1/2 74/1/2 77/1/2
f 74/1/2 76/1/2 77/1/2
f 77/1/2 76/1/2 78/1/2
f 79/2/2 80/2/2 81/2/2
f 81/2/2 80/2/2 82/2/2
f 83/1/2 84/1/2 87/1/2
f 87/1/2 84/1/2 88/1/2
f 85/1/2 86/1/2 89/1/2
f 89/1/2 86/1/2 90/1/2
f 91/2/2 92/2/2 93/2/2
f 93/2/2 92/2/2 94/2/2
f 94/2/2 92/2/2 95/2/2
f 95/2/2 92/2/2 96/2/2
f 97/1/2 98/1/2 99/1/2
f 99/1/2 98/1/2 100/1/2
f 101/1/2 102/1/2 103/1/2
f 103/1/2 102/1/2 104/1/2
f 107/1/3 106/1/3 105/1/3
f 108/1/3 106/1/3 107/1/3
f 111/1/3 110/1/3 109/1/3
f 112/1/3 110/1/3 111/1/3
f 115/1/3 114/1/3 113/1/3
f 116/1/3 114/1/3 115/1/3
f 120/1/3 118/1/3 117/1/3
f 120/1/3 119/1/3 118/1/3
f 121/1/3 119/1/3 120/1/3
f 122/1/3 119/1/3 121/1/3
f 125/1/3 124/1/3 123/1/3
f 126/1/3 124/1/3 125/1/3
f 129/1/3 128/1/3 127/1/3
f 130/1/3 128/1/3 129/1/3
f 136/2/3 132/2/3 131/2/3
f 137/2/3 136/2/3 135/2/3
f 138/2/3 132/2/3 136/2/3
f 138/2/3 136/2/3 137/2/3
f 139/2/3 134/2/3 133/2/3
f 140/2/3 134/2/3 139/2/3
f 145/2/3 142/2/3 141/2/3
f 146/2/3 142/2/3 145/2/3
f 147/2/3 142/2/3 146/2/3
f 148/2/3 142/2/3 147/2/3
f 149/2/3 144/2/3 143/2/3
f 150/2/3 144/2/3 149/2/3
f 154/1/3 152/1/3 151/1/3
f 156/1/3 154/1/3 153/1/3
f 157/1/3 156/1/3 155/1/3
f 158/1/3 154/1/3 156/1/3
f 158/1/3 156/1/3 157/1/3
f 159/1/3 154/1/3 158/1/3
f 160/1/3 152/1/3 154/1/3
f 160/1/3 154/1/3 159/1/3
f 161/1/3 152/1/3 160/1/3
f 162/1/3 152/1/3 161/1/3
f 163/1/4 164/1/4 166/1/4
f 165/1/4 166/1/4 168/1/4
f 167/1/4 168/1/4 169/1/4
f 168/1/4 166/1/4 170/1/4
f 169/1/4 168/1/4 170/1/4
f 170/1/4 166/1/4 171/1/4
f 166/1/4 164/1/4 172/1/4
f 171/1/4 166/1/4 172/1/4
f 172/1/4 164/1/4 173/1/4
f 173/1/4 164/1/4 174/1/4
f 175/1/4 176/1/4 177/1/4
f 177/1/4 176/1/4 178/1/4
f 180/1/4 181/1/4 184/1/4
f 179/1/4 180/1/4 184/1/4
f 184/1/4 181/1/4 185/1/4
f 185/1/4 181/1/4 186/1/4
f 182/1/4 183/1/4 187/1/4
f 187/1/4 183/1/4 188/1/4
f 189/1/4 190/1/4 191/1/4
f 191/1/4 190/1/4 192/1/4
f 193/2/4 194/2/4 196/2/4
f 195/2/4 196/2/4 197/2/4
f 196/2/4 194/2/4 198/2/4
f 197/2/4 196/2/4 198/2/4
f 198/2/4 194/2/4 199/2/4
f 199/2/4 194/2/4 200/2/4
f 201/1/4 202/1/4 203/1/4
f 203/1/4 202/1/4 204/1/4
f 205/1/4 206/1/4 207/1/4
f 207/1/4 206/1/4 208/1/4
f 209/1/4 210/1/4 211/1/4
f 211/1/4 210/1/4 212/1/4
f 216/1/5 214/1/5 213/1/5
f 217/1/5 214/1/5 216/1/5
f 219/1/5 216/1/5 215/1/5
f 219/1/5 218/1/5 217/1/5
f 219/1/5 217/1/5 216/1/5
f 220/1/5 218/1/5 219/1/5
f 221/1/5 218/1/5 220/1/5
f 222/1/5 218/1/5 221/1/5
f 223/1/5 221/1/5 220/1/5
f 224/1/5 221/1/5 223/1/5
f 229/2/5 226/2/5 225/2/5
f 229/2/5 228/2/5 227/2/5
f 229/2/5 227/2/5 226/2/5
f 230/2/5 228/2/5 229/2/5
f 235/2/5 232/2/5 231/2/5
f 236/2/5 232/2/5 235/2/5
f 237/2/5 234/2/5 233/2/5
f 238/2/5 234/2/5 237/2/5
f 243/1/5 240/1/5 239/1/5
f 244/1/5 240/1/5 243/1/5
f 245/1/5 240/1/5 244/1/5
f 246/1/5 242/1/5 241/1/5
f 247/1/5 242/1/5 246/1/5
f 248/1/5 242/1/5 247/1/5
f 249/1/6 250/1/6 251/1/6
f 251/1/6 250/1/6 252/1/6
f 253/1/6 254/1/6 255/1/6
f 255/1/6 254/1/6 256/1/6
f 257/1/6 258/1/6 261/1/6
f 259/1/6 260/1/6 262/1/6
f 257/1/6 261/1/6 263/1/6
f 262/1/6 260/1/6 264/1/6
f 257/1/6 263/1/6 265/1/6
f 265/1/6 263/1/6 266/1/6
f 264/1/6 260/1/6 267/1/6
f 267/1/6 260/1/6 268/1/6
f 269/1/6 270/1/6 273/1/6
f 273/1/6 270/1/6 274/1/6
f 271/1/6 272/1/6 275/1/6
f 275/1/6 272/1/6 276/1/6
f 277/1/6 278/1/6 280/1/6
f 280/1/6 278/1/6 281/1/6
f 281/1/6 278/1/6 282/1/6
f 282/1/6 278/1/6 283/1/6
f 279/1/6 280/1/6 285/1/6
f 280/1/6 281/1/6 285/1/6
f 285/1/6 281/1/6 286/1/6
f 286/1/6 281/1/6 287/1/6
f 283/1/6 284/1/6 288/1/6
f 282/1/6 283/1/6 288/1/6
f 288/1/6 284/1/6 289/1/6
f 289/1/6 284/1/6 290/1/6
f 286/1/6 287/1/6 291/1/6
f 288/1/6 289/1/6 291/1/6
f 287/1/6 288/1/6 291/1/6
f 291/1/6 289/1/6 292/1/6
f 293/1/6 294/1/6 297/1/6
f 297/1/6 294/1/6 298/1/6
f 298/1/6 294/1/6 299/1/6
f 295/1/6 296/1/6 300/1/6
f 300/1/6 296/1/6 301/1/6
f 301/1/6 296/1/6 302/1/6
f 303/2/6 304/2/6 307/2/6
f 305/2/6 306/2/6 307/2/6
f 304/2/6 305/2/6 307/2/6
f 307/2/6 306/2/6 308/2/6
f 309/1/6 310/1/6 311/1/6
f 311/1/6 310/1/6 312/1/6
