# MagicaVoxel @ Ephtracy

# group
g FloatingPlatform3

# material
mtllib FloatingPlatform3.mtl
usemtl palette

# normals
vn -1 0 0
vn 1 0 0
vn 0 0 1
vn 0 0 -1
vn 0 -1 0
vn 0 1 0

# texcoords
vt 0.564453 0.5

# verts
v -8 10 1
v -8 10 -4
v -8 11 1
v -8 11 -4
v -7 10 3
v -7 10 1
v -7 10 -4
v -7 10 -6
v -7 11 3
v -7 11 1
v -7 11 -4
v -7 11 -6
v -6 10 4
v -6 10 3
v -6 10 -6
v -6 10 -7
v -6 11 4
v -6 11 3
v -6 11 -6
v -6 11 -7
v -5 10 5
v -5 10 4
v -5 10 -7
v -5 10 -8
v -5 11 5
v -5 11 4
v -5 11 -7
v -5 11 -8
v -3 10 6
v -3 10 5
v -3 10 -8
v -3 10 -9
v -3 11 6
v -3 11 5
v -3 11 -8
v -3 11 -9
v 1 10 -0
v 1 10 -3
v 1 11 -0
v 1 11 -3
v -2 10 -0
v -2 10 -3
v -2 11 -0
v -2 11 -3
v 2 10 6
v 2 10 5
v 2 10 -8
v 2 10 -9
v 2 11 6
v 2 11 5
v 2 11 -8
v 2 11 -9
v 4 10 5
v 4 10 4
v 4 10 -7
v 4 10 -8
v 4 11 5
v 4 11 4
v 4 11 -7
v 4 11 -8
v 5 10 4
v 5 10 3
v 5 10 -6
v 5 10 -7
v 5 11 4
v 5 11 3
v 5 11 -6
v 5 11 -7
v 6 10 3
v 6 10 1
v 6 10 -4
v 6 10 -6
v 6 11 3
v 6 11 1
v 6 11 -4
v 6 11 -6
v 7 10 1
v 7 10 -4
v 7 11 1
v 7 11 -4
v -3 10 6
v -3 11 6
v 2 10 6
v 2 11 6
v -5 10 5
v -5 11 5
v -3 10 5
v -3 11 5
v 2 10 5
v 2 11 5
v 4 10 5
v 4 11 5
v -6 10 4
v -6 11 4
v -5 10 4
v -5 11 4
v 4 10 4
v 4 11 4
v 5 10 4
v 5 11 4
v -7 10 3
v -7 11 3
v -6 10 3
v -6 11 3
v 5 10 3
v 5 11 3
v 6 10 3
v 6 11 3
v -8 10 1
v -8 11 1
v -7 10 1
v -7 11 1
v 6 10 1
v 6 11 1
v 7 10 1
v 7 11 1
v -2 10 -3
v -2 11 -3
v 1 10 -3
v 1 11 -3
v -2 10 -0
v -2 11 -0
v 1 10 -0
v 1 11 -0
v -8 10 -4
v -8 11 -4
v -7 10 -4
v -7 11 -4
v 6 10 -4
v 6 11 -4
v 7 10 -4
v 7 11 -4
v -7 10 -6
v -7 11 -6
v -6 10 -6
v -6 11 -6
v 5 10 -6
v 5 11 -6
v 6 10 -6
v 6 11 -6
v -6 10 -7
v -6 11 -7
v -5 10 -7
v -5 11 -7
v 4 10 -7
v 4 11 -7
v 5 10 -7
v 5 11 -7
v -5 10 -8
v -5 11 -8
v -3 10 -8
v -3 11 -8
v 2 10 -8
v 2 11 -8
v 4 10 -8
v 4 11 -8
v -3 10 -9
v -3 11 -9
v 2 10 -9
v 2 11 -9
v -3 10 6
v 2 10 6
v -5 10 5
v -3 10 5
v 2 10 5
v 4 10 5
v -6 10 4
v -5 10 4
v 4 10 4
v 5 10 4
v -7 10 3
v -6 10 3
v 5 10 3
v 6 10 3
v -8 10 1
v -7 10 1
v 6 10 1
v 7 10 1
v -2 10 -0
v 1 10 -0
v -2 10 -3
v 1 10 -3
v -8 10 -4
v -7 10 -4
v 6 10 -4
v 7 10 -4
v -7 10 -6
v -6 10 -6
v 5 10 -6
v 6 10 -6
v -6 10 -7
v -5 10 -7
v 4 10 -7
v 5 10 -7
v -5 10 -8
v -3 10 -8
v 2 10 -8
v 4 10 -8
v -3 10 -9
v 2 10 -9
v -3 11 6
v 2 11 6
v -5 11 5
v -3 11 5
v 2 11 5
v 4 11 5
v -6 11 4
v -5 11 4
v 4 11 4
v 5 11 4
v -7 11 3
v -6 11 3
v 5 11 3
v 6 11 3
v -8 11 1
v -7 11 1
v 6 11 1
v 7 11 1
v -2 11 -0
v 1 11 -0
v -2 11 -3
v 1 11 -3
v -8 11 -4
v -7 11 -4
v 6 11 -4
v 7 11 -4
v -7 11 -6
v -6 11 -6
v 5 11 -6
v 6 11 -6
v -6 11 -7
v -5 11 -7
v 4 11 -7
v 5 11 -7
v -5 11 -8
v -3 11 -8
v 2 11 -8
v 4 11 -8
v -3 11 -9
v 2 11 -9

# faces
f 3/1/1 2/1/1 1/1/1
f 4/1/1 2/1/1 3/1/1
f 9/1/1 6/1/1 5/1/1
f 10/1/1 6/1/1 9/1/1
f 11/1/1 8/1/1 7/1/1
f 12/1/1 8/1/1 11/1/1
f 17/1/1 14/1/1 13/1/1
f 18/1/1 14/1/1 17/1/1
f 19/1/1 16/1/1 15/1/1
f 20/1/1 16/1/1 19/1/1
f 25/1/1 22/1/1 21/1/1
f 26/1/1 22/1/1 25/1/1
f 27/1/1 24/1/1 23/1/1
f 28/1/1 24/1/1 27/1/1
f 33/1/1 30/1/1 29/1/1
f 34/1/1 30/1/1 33/1/1
f 35/1/1 32/1/1 31/1/1
f 36/1/1 32/1/1 35/1/1
f 39/1/1 38/1/1 37/1/1
f 40/1/1 38/1/1 39/1/1
f 41/1/2 42/1/2 43/1/2
f 43/1/2 42/1/2 44/1/2
f 45/1/2 46/1/2 49/1/2
f 49/1/2 46/1/2 50/1/2
f 47/1/2 48/1/2 51/1/2
f 51/1/2 48/1/2 52/1/2
f 53/1/2 54/1/2 57/1/2
f 57/1/2 54/1/2 58/1/2
f 55/1/2 56/1/2 59/1/2
f 59/1/2 56/1/2 60/1/2
f 61/1/2 62/1/2 65/1/2
f 65/1/2 62/1/2 66/1/2
f 63/1/2 64/1/2 67/1/2
f 67/1/2 64/1/2 68/1/2
f 69/1/2 70/1/2 73/1/2
f 73/1/2 70/1/2 74/1/2
f 71/1/2 72/1/2 75/1/2
f 75/1/2 72/1/2 76/1/2
f 77/1/2 78/1/2 79/1/2
f 79/1/2 78/1/2 80/1/2
f 83/1/3 82/1/3 81/1/3
f 84/1/3 82/1/3 83/1/3
f 87/1/3 86/1/3 85/1/3
f 88/1/3 86/1/3 87/1/3
f 91/1/3 90/1/3 89/1/3
f 92/1/3 90/1/3 91/1/3
f 95/1/3 94/1/3 93/1/3
f 96/1/3 94/1/3 95/1/3
f 99/1/3 98/1/3 97/1/3
f 100/1/3 98/1/3 99/1/3
f 103/1/3 102/1/3 101/1/3
f 104/1/3 102/1/3 103/1/3
f 107/1/3 106/1/3 105/1/3
f 108/1/3 106/1/3 107/1/3
f 111/1/3 110/1/3 109/1/3
f 112/1/3 110/1/3 111/1/3
f 115/1/3 114/1/3 113/1/3
f 116/1/3 114/1/3 115/1/3
f 119/1/3 118/1/3 117/1/3
f 120/1/3 118/1/3 119/1/3
f 121/1/4 122/1/4 123/1/4
f 123/1/4 122/1/4 124/1/4
f 125/1/4 126/1/4 127/1/4
f 127/1/4 126/1/4 128/1/4
f 129/1/4 130/1/4 131/1/4
f 131/1/4 130/1/4 132/1/4
f 133/1/4 134/1/4 135/1/4
f 135/1/4 134/1/4 136/1/4
f 137/1/4 138/1/4 139/1/4
f 139/1/4 138/1/4 140/1/4
f 141/1/4 142/1/4 143/1/4
f 143/1/4 142/1/4 144/1/4
f 145/1/4 146/1/4 147/1/4
f 147/1/4 146/1/4 148/1/4
f 149/1/4 150/1/4 151/1/4
f 151/1/4 150/1/4 152/1/4
f 153/1/4 154/1/4 155/1/4
f 155/1/4 154/1/4 156/1/4
f 157/1/4 158/1/4 159/1/4
f 159/1/4 158/1/4 160/1/4
f 164/1/5 162/1/5 161/1/5
f 165/1/5 162/1/5 164/1/5
f 168/1/5 164/1/5 163/1/5
f 168/1/5 166/1/5 165/1/5
f 168/1/5 165/1/5 164/1/5
f 169/1/5 166/1/5 168/1/5
f 172/1/5 168/1/5 167/1/5
f 172/1/5 170/1/5 169/1/5
f 172/1/5 169/1/5 168/1/5
f 173/1/5 170/1/5 172/1/5
f 176/1/5 172/1/5 171/1/5
f 176/1/5 174/1/5 173/1/5
f 176/1/5 173/1/5 172/1/5
f 177/1/5 174/1/5 176/1/5
f 179/1/5 176/1/5 175/1/5
f 179/1/5 178/1/5 177/1/5
f 179/1/5 177/1/5 176/1/5
f 180/1/5 178/1/5 179/1/5
f 181/1/5 179/1/5 175/1/5
f 182/1/5 178/1/5 180/1/5
f 183/1/5 181/1/5 175/1/5
f 183/1/5 182/1/5 181/1/5
f 184/1/5 182/1/5 183/1/5
f 185/1/5 178/1/5 182/1/5
f 185/1/5 182/1/5 184/1/5
f 186/1/5 178/1/5 185/1/5
f 187/1/5 185/1/5 184/1/5
f 188/1/5 185/1/5 187/1/5
f 189/1/5 185/1/5 188/1/5
f 190/1/5 185/1/5 189/1/5
f 191/1/5 189/1/5 188/1/5
f 192/1/5 189/1/5 191/1/5
f 193/1/5 189/1/5 192/1/5
f 194/1/5 189/1/5 193/1/5
f 195/1/5 193/1/5 192/1/5
f 196/1/5 193/1/5 195/1/5
f 197/1/5 193/1/5 196/1/5
f 198/1/5 193/1/5 197/1/5
f 199/1/5 197/1/5 196/1/5
f 200/1/5 197/1/5 199/1/5
f 201/1/6 202/1/6 204/1/6
f 204/1/6 202/1/6 205/1/6
f 203/1/6 204/1/6 208/1/6
f 205/1/6 206/1/6 208/1/6
f 204/1/6 205/1/6 208/1/6
f 208/1/6 206/1/6 209/1/6
f 207/1/6 208/1/6 212/1/6
f 209/1/6 210/1/6 212/1/6
f 208/1/6 209/1/6 212/1/6
f 212/1/6 210/1/6 213/1/6
f 211/1/6 212/1/6 216/1/6
f 213/1/6 214/1/6 216/1/6
f 212/1/6 213/1/6 216/1/6
f 216/1/6 214/1/6 217/1/6
f 215/1/6 216/1/6 219/1/6
f 217/1/6 218/1/6 219/1/6
f 216/1/6 217/1/6 219/1/6
f 219/1/6 218/1/6 220/1/6
f 215/1/6 219/1/6 221/1/6
f 220/1/6 218/1/6 222/1/6
f 215/1/6 221/1/6 223/1/6
f 221/1/6 222/1/6 223/1/6
f 223/1/6 222/1/6 224/1/6
f 222/1/6 218/1/6 225/1/6
f 224/1/6 222/1/6 225/1/6
f 225/1/6 218/1/6 226/1/6
f 224/1/6 225/1/6 227/1/6
f 227/1/6 225/1/6 228/1/6
f 228/1/6 225/1/6 229/1/6
f 229/1/6 225/1/6 230/1/6
f 228/1/6 229/1/6 231/1/6
f 231/1/6 229/1/6 232/1/6
f 232/1/6 229/1/6 233/1/6
f 233/1/6 229/1/6 234/1/6
f 232/1/6 233/1/6 235/1/6
f 235/1/6 233/1/6 236/1/6
f 236/1/6 233/1/6 237/1/6
f 237/1/6 233/1/6 238/1/6
f 236/1/6 237/1/6 239/1/6
f 239/1/6 237/1/6 240/1/6
