# MagicaVoxel @ Ephtracy

# group
g HandTorch

# material
mtllib HandTorch.mtl
usemtl palette

# normals
vn -1 0 0
vn 1 0 0
vn 0 0 1
vn 0 0 -1
vn 0 -1 0
vn 0 1 0

# texcoords
vt 0.501953 0.5
vt 0.572266 0.5

# verts
v -3 18 1
v -3 18 -1
v -3 19 2
v -3 19 1
v -3 19 -1
v -3 19 -2
v -3 22 2
v -3 22 1
v -3 22 -1
v -3 22 -2
v -3 23 1
v -3 23 -1
v -2 1 1
v -2 1 -1
v -2 16 1
v -2 16 -1
v -2 17 2
v -2 17 1
v -2 17 -1
v -2 17 -2
v -2 18 1
v -2 18 -1
v -2 19 3
v -2 19 2
v -2 19 1
v -2 19 -1
v -2 19 -2
v -2 19 -3
v -2 22 3
v -2 22 2
v -2 22 1
v -2 22 -1
v -2 22 -2
v -2 22 -3
v -2 23 2
v -2 23 1
v -2 23 -1
v -2 23 -2
v -2 24 1
v -2 24 -1
v -1 0 1
v -1 0 -1
v -1 1 2
v -1 1 1
v -1 1 -1
v -1 1 -2
v -1 16 2
v -1 16 1
v -1 16 -1
v -1 16 -2
v -1 17 2
v -1 17 1
v -1 17 -1
v -1 17 -2
v -1 18 3
v -1 18 2
v -1 18 -2
v -1 18 -3
v -1 19 3
v -1 19 2
v -1 19 -2
v -1 19 -3
v -1 22 3
v -1 22 2
v -1 22 -2
v -1 22 -3
v -1 23 3
v -1 23 2
v -1 23 1
v -1 23 -1
v -1 23 -2
v -1 23 -3
v -1 24 2
v -1 24 1
v -1 24 -1
v -1 24 -2
v -1 25 1
v -1 25 -1
v 1 0 1
v 1 0 -1
v 1 1 2
v 1 1 1
v 1 1 -1
v 1 1 -2
v 1 16 2
v 1 16 1
v 1 16 -1
v 1 16 -2
v 1 17 2
v 1 17 1
v 1 17 -1
v 1 17 -2
v 1 18 3
v 1 18 2
v 1 18 -2
v 1 18 -3
v 1 19 3
v 1 19 2
v 1 19 -2
v 1 19 -3
v 1 22 3
v 1 22 2
v 1 22 -2
v 1 22 -3
v 1 23 3
v 1 23 2
v 1 23 1
v 1 23 -1
v 1 23 -2
v 1 23 -3
v 1 24 2
v 1 24 1
v 1 24 -1
v 1 24 -2
v 1 25 1
v 1 25 -1
v 2 1 1
v 2 1 -1
v 2 16 1
v 2 16 -1
v 2 17 2
v 2 17 1
v 2 17 -1
v 2 17 -2
v 2 18 1
v 2 18 -1
v 2 19 3
v 2 19 2
v 2 19 1
v 2 19 -1
v 2 19 -2
v 2 19 -3
v 2 22 3
v 2 22 2
v 2 22 1
v 2 22 -1
v 2 22 -2
v 2 22 -3
v 2 23 2
v 2 23 1
v 2 23 -1
v 2 23 -2
v 2 24 1
v 2 24 -1
v 3 18 1
v 3 18 -1
v 3 19 2
v 3 19 1
v 3 19 -1
v 3 19 -2
v 3 22 2
v 3 22 1
v 3 22 -1
v 3 22 -2
v 3 23 1
v 3 23 -1
v -2 19 3
v -2 22 3
v -1 18 3
v -1 19 3
v -1 22 3
v -1 23 3
v 1 18 3
v 1 19 3
v 1 22 3
v 1 23 3
v 2 19 3
v 2 22 3
v -3 19 2
v -3 22 2
v -2 17 2
v -2 19 2
v -2 22 2
v -2 23 2
v -1 1 2
v -1 16 2
v -1 17 2
v -1 18 2
v -1 19 2
v -1 22 2
v -1 23 2
v -1 24 2
v 1 1 2
v 1 16 2
v 1 17 2
v 1 18 2
v 1 19 2
v 1 22 2
v 1 23 2
v 1 24 2
v 2 17 2
v 2 19 2
v 2 22 2
v 2 23 2
v 3 19 2
v 3 22 2
v -3 18 1
v -3 19 1
v -3 22 1
v -3 23 1
v -2 1 1
v -2 16 1
v -2 17 1
v -2 18 1
v -2 19 1
v -2 22 1
v -2 23 1
v -2 24 1
v -1 0 1
v -1 1 1
v -1 16 1
v -1 17 1
v -1 23 1
v -1 24 1
v -1 25 1
v 1 0 1
v 1 1 1
v 1 16 1
v 1 17 1
v 1 23 1
v 1 24 1
v 1 25 1
v 2 1 1
v 2 16 1
v 2 17 1
v 2 18 1
v 2 19 1
v 2 22 1
v 2 23 1
v 2 24 1
v 3 18 1
v 3 19 1
v 3 22 1
v 3 23 1
v -3 18 -1
v -3 19 -1
v -3 22 -1
v -3 23 -1
v -2 1 -1
v -2 16 -1
v -2 17 -1
v -2 18 -1
v -2 19 -1
v -2 22 -1
v -2 23 -1
v -2 24 -1
v -1 0 -1
v -1 1 -1
v -1 16 -1
v -1 17 -1
v -1 23 -1
v -1 24 -1
v -1 25 -1
v 1 0 -1
v 1 1 -1
v 1 16 -1
v 1 17 -1
v 1 23 -1
v 1 24 -1
v 1 25 -1
v 2 1 -1
v 2 16 -1
v 2 17 -1
v 2 18 -1
v 2 19 -1
v 2 22 -1
v 2 23 -1
v 2 24 -1
v 3 18 -1
v 3 19 -1
v 3 22 -1
v 3 23 -1
v -3 19 -2
v -3 22 -2
v -2 17 -2
v -2 19 -2
v -2 22 -2
v -2 23 -2
v -1 1 -2
v -1 16 -2
v -1 17 -2
v -1 18 -2
v -1 19 -2
v -1 22 -2
v -1 23 -2
v -1 24 -2
v 1 1 -2
v 1 16 -2
v 1 17 -2
v 1 18 -2
v 1 19 -2
v 1 22 -2
v 1 23 -2
v 1 24 -2
v 2 17 -2
v 2 19 -2
v 2 22 -2
v 2 23 -2
v 3 19 -2
v 3 22 -2
v -2 19 -3
v -2 22 -3
v -1 18 -3
v -1 19 -3
v -1 22 -3
v -1 23 -3
v 1 18 -3
v 1 19 -3
v 1 22 -3
v 1 23 -3
v 2 19 -3
v 2 22 -3
v -1 0 1
v 1 0 1
v -1 0 -1
v 1 0 -1
v -1 1 2
v 1 1 2
v -2 1 1
v -1 1 1
v 1 1 1
v 2 1 1
v -2 1 -1
v -1 1 -1
v 1 1 -1
v 2 1 -1
v -1 1 -2
v 1 1 -2
v -2 17 2
v -1 17 2
v 1 17 2
v 2 17 2
v -2 17 1
v -1 17 1
v 1 17 1
v 2 17 1
v -2 17 -1
v -1 17 -1
v 1 17 -1
v 2 17 -1
v -2 17 -2
v -1 17 -2
v 1 17 -2
v 2 17 -2
v -1 18 3
v 1 18 3
v -1 18 2
v 1 18 2
v -3 18 1
v -2 18 1
v 2 18 1
v 3 18 1
v -3 18 -1
v -2 18 -1
v 2 18 -1
v 3 18 -1
v -1 18 -2
v 1 18 -2
v -1 18 -3
v 1 18 -3
v -2 19 3
v -1 19 3
v 1 19 3
v 2 19 3
v -3 19 2
v -2 19 2
v -1 19 2
v 1 19 2
v 2 19 2
v 3 19 2
v -3 19 1
v -2 19 1
v 2 19 1
v 3 19 1
v -3 19 -1
v -2 19 -1
v 2 19 -1
v 3 19 -1
v -3 19 -2
v -2 19 -2
v -1 19 -2
v 1 19 -2
v 2 19 -2
v 3 19 -2
v -2 19 -3
v -1 19 -3
v 1 19 -3
v 2 19 -3
v -2 22 3
v -1 22 3
v 1 22 3
v 2 22 3
v -3 22 2
v -2 22 2
v -1 22 2
v 1 22 2
v 2 22 2
v 3 22 2
v -3 22 1
v -2 22 1
v 2 22 1
v 3 22 1
v -3 22 -1
v -2 22 -1
v 2 22 -1
v 3 22 -1
v -3 22 -2
v -2 22 -2
v -1 22 -2
v 1 22 -2
v 2 22 -2
v 3 22 -2
v -2 22 -3
v -1 22 -3
v 1 22 -3
v 2 22 -3
v -1 23 3
v 1 23 3
v -2 23 2
v -1 23 2
v 1 23 2
v 2 23 2
v -3 23 1
v -2 23 1
v -1 23 1
v 1 23 1
v 2 23 1
v 3 23 1
v -3 23 -1
v -2 23 -1
v -1 23 -1
v 1 23 -1
v 2 23 -1
v 3 23 -1
v -2 23 -2
v -1 23 -2
v 1 23 -2
v 2 23 -2
v -1 23 -3
v 1 23 -3
v -1 24 2
v 1 24 2
v -2 24 1
v -1 24 1
v 1 24 1
v 2 24 1
v -2 24 -1
v -1 24 -1
v 1 24 -1
v 2 24 -1
v -1 24 -2
v 1 24 -2
v -1 25 1
v 1 25 1
v -1 25 -1
v 1 25 -1

# faces
f 4/2/1 2/2/1 1/2/1
f 5/2/1 2/2/1 4/2/1
f 7/2/1 4/2/1 3/2/1
f 7/2/1 6/2/1 5/2/1
f 7/2/1 5/2/1 4/2/1
f 8/2/1 6/2/1 7/2/1
f 9/2/1 6/2/1 8/2/1
f 10/2/1 6/2/1 9/2/1
f 11/2/1 9/2/1 8/2/1
f 12/2/1 9/2/1 11/2/1
f 15/1/1 14/1/1 13/1/1
f 16/1/1 14/1/1 15/1/1
f 18/2/1 16/2/1 15/2/1
f 19/2/1 16/2/1 18/2/1
f 21/2/1 19/2/1 18/2/1
f 21/2/1 20/2/1 19/2/1
f 21/2/1 18/2/1 17/2/1
f 22/2/1 20/2/1 21/2/1
f 24/2/1 21/2/1 17/2/1
f 25/2/1 21/2/1 24/2/1
f 26/2/1 20/2/1 22/2/1
f 27/2/1 20/2/1 26/2/1
f 29/2/1 24/2/1 23/2/1
f 30/2/1 24/2/1 29/2/1
f 33/2/1 28/2/1 27/2/1
f 34/2/1 28/2/1 33/2/1
f 35/2/1 31/2/1 30/2/1
f 36/2/1 31/2/1 35/2/1
f 37/2/1 33/2/1 32/2/1
f 38/2/1 33/2/1 37/2/1
f 39/2/1 37/2/1 36/2/1
f 40/2/1 37/2/1 39/2/1
f 44/1/1 42/1/1 41/1/1
f 45/1/1 42/1/1 44/1/1
f 47/1/1 44/1/1 43/1/1
f 48/1/1 44/1/1 47/1/1
f 49/1/1 46/1/1 45/1/1
f 50/1/1 46/1/1 49/1/1
f 51/2/1 48/2/1 47/2/1
f 52/2/1 48/2/1 51/2/1
f 53/2/1 50/2/1 49/2/1
f 54/2/1 50/2/1 53/2/1
f 59/2/1 56/2/1 55/2/1
f 60/2/1 56/2/1 59/2/1
f 61/2/1 58/2/1 57/2/1
f 62/2/1 58/2/1 61/2/1
f 67/2/1 64/2/1 63/2/1
f 68/2/1 64/2/1 67/2/1
f 71/2/1 66/2/1 65/2/1
f 72/2/1 66/2/1 71/2/1
f 73/2/1 69/2/1 68/2/1
f 74/2/1 69/2/1 73/2/1
f 75/2/1 71/2/1 70/2/1
f 76/2/1 71/2/1 75/2/1
f 77/2/1 75/2/1 74/2/1
f 78/2/1 75/2/1 77/2/1
f 79/1/2 80/1/2 82/1/2
f 82/1/2 80/1/2 83/1/2
f 81/1/2 82/1/2 85/1/2
f 85/1/2 82/1/2 86/1/2
f 83/1/2 84/1/2 87/1/2
f 87/1/2 84/1/2 88/1/2
f 85/2/2 86/2/2 89/2/2
f 89/2/2 86/2/2 90/2/2
f 87/2/2 88/2/2 91/2/2
f 91/2/2 88/2/2 92/2/2
f 93/2/2 94/2/2 97/2/2
f 97/2/2 94/2/2 98/2/2
f 95/2/2 96/2/2 99/2/2
f 99/2/2 96/2/2 100/2/2
f 101/2/2 102/2/2 105/2/2
f 105/2/2 102/2/2 106/2/2
f 103/2/2 104/2/2 109/2/2
f 109/2/2 104/2/2 110/2/2
f 106/2/2 107/2/2 111/2/2
f 111/2/2 107/2/2 112/2/2
f 108/2/2 109/2/2 113/2/2
f 113/2/2 109/2/2 114/2/2
f 112/2/2 113/2/2 115/2/2
f 115/2/2 113/2/2 116/2/2
f 117/1/2 118/1/2 119/1/2
f 119/1/2 118/1/2 120/1/2
f 119/2/2 120/2/2 122/2/2
f 122/2/2 120/2/2 123/2/2
f 122/2/2 123/2/2 125/2/2
f 123/2/2 124/2/2 125/2/2
f 121/2/2 122/2/2 125/2/2
f 125/2/2 124/2/2 126/2/2
f 121/2/2 125/2/2 128/2/2
f 128/2/2 125/2/2 129/2/2
f 126/2/2 124/2/2 130/2/2
f 130/2/2 124/2/2 131/2/2
f 127/2/2 128/2/2 133/2/2
f 133/2/2 128/2/2 134/2/2
f 131/2/2 132/2/2 137/2/2
f 137/2/2 132/2/2 138/2/2
f 134/2/2 135/2/2 139/2/2
f 139/2/2 135/2/2 140/2/2
f 136/2/2 137/2/2 141/2/2
f 141/2/2 137/2/2 142/2/2
f 140/2/2 141/2/2 143/2/2
f 143/2/2 141/2/2 144/2/2
f 145/2/2 146/2/2 148/2/2
f 148/2/2 146/2/2 149/2/2
f 147/2/2 148/2/2 151/2/2
f 149/2/2 150/2/2 151/2/2
f 148/2/2 149/2/2 151/2/2
f 151/2/2 150/2/2 152/2/2
f 152/2/2 150/2/2 153/2/2
f 153/2/2 150/2/2 154/2/2
f 152/2/2 153/2/2 155/2/2
f 155/2/2 153/2/2 156/2/2
f 160/2/3 158/2/3 157/2/3
f 161/2/3 158/2/3 160/2/3
f 163/2/3 160/2/3 159/2/3
f 163/2/3 162/2/3 161/2/3
f 163/2/3 161/2/3 160/2/3
f 164/2/3 162/2/3 163/2/3
f 165/2/3 162/2/3 164/2/3
f 166/2/3 162/2/3 165/2/3
f 167/2/3 165/2/3 164/2/3
f 168/2/3 165/2/3 167/2/3
f 172/2/3 170/2/3 169/2/3
f 173/2/3 170/2/3 172/2/3
f 177/2/3 172/2/3 171/2/3
f 178/2/3 172/2/3 177/2/3
f 179/2/3 172/2/3 178/2/3
f 180/2/3 174/2/3 173/2/3
f 181/2/3 174/2/3 180/2/3
f 183/1/3 176/1/3 175/1/3
f 184/2/3 177/2/3 176/2/3
f 184/1/3 176/1/3 183/1/3
f 184/2/3 178/2/3 177/2/3
f 185/2/3 178/2/3 184/2/3
f 186/2/3 178/2/3 185/2/3
f 189/2/3 182/2/3 181/2/3
f 190/2/3 182/2/3 189/2/3
f 191/2/3 187/2/3 186/2/3
f 191/2/3 186/2/3 185/2/3
f 192/2/3 187/2/3 191/2/3
f 193/2/3 189/2/3 188/2/3
f 194/2/3 189/2/3 193/2/3
f 195/2/3 193/2/3 192/2/3
f 196/2/3 193/2/3 195/2/3
f 204/2/3 198/2/3 197/2/3
f 205/2/3 198/2/3 204/2/3
f 206/2/3 200/2/3 199/2/3
f 207/2/3 200/2/3 206/2/3
f 210/1/3 202/1/3 201/1/3
f 211/2/3 203/2/3 202/2/3
f 211/1/3 202/1/3 210/1/3
f 212/2/3 203/2/3 211/2/3
f 213/2/3 208/2/3 207/2/3
f 214/2/3 208/2/3 213/2/3
f 216/1/3 210/1/3 209/1/3
f 217/1/3 210/1/3 216/1/3
f 221/2/3 215/2/3 214/2/3
f 222/2/3 215/2/3 221/2/3
f 223/1/3 218/1/3 217/1/3
f 224/2/3 219/2/3 218/2/3
f 224/1/3 218/1/3 223/1/3
f 225/2/3 219/2/3 224/2/3
f 229/2/3 221/2/3 220/2/3
f 230/2/3 221/2/3 229/2/3
f 231/2/3 227/2/3 226/2/3
f 232/2/3 227/2/3 231/2/3
f 233/2/3 229/2/3 228/2/3
f 234/2/3 229/2/3 233/2/3
f 235/2/4 236/2/4 242/2/4
f 242/2/4 236/2/4 243/2/4
f 237/2/4 238/2/4 244/2/4
f 244/2/4 238/2/4 245/2/4
f 239/1/4 240/1/4 248/1/4
f 240/2/4 241/2/4 249/2/4
f 248/1/4 240/1/4 249/1/4
f 249/2/4 241/2/4 250/2/4
f 245/2/4 246/2/4 251/2/4
f 251/2/4 246/2/4 252/2/4
f 247/1/4 248/1/4 254/1/4
f 254/1/4 248/1/4 255/1/4
f 252/2/4 253/2/4 259/2/4
f 259/2/4 253/2/4 260/2/4
f 255/1/4 256/1/4 261/1/4
f 256/2/4 257/2/4 262/2/4
f 261/1/4 256/1/4 262/1/4
f 262/2/4 257/2/4 263/2/4
f 258/2/4 259/2/4 267/2/4
f 267/2/4 259/2/4 268/2/4
f 264/2/4 265/2/4 269/2/4
f 269/2/4 265/2/4 270/2/4
f 266/2/4 267/2/4 271/2/4
f 271/2/4 267/2/4 272/2/4
f 273/2/4 274/2/4 276/2/4
f 276/2/4 274/2/4 277/2/4
f 275/2/4 276/2/4 281/2/4
f 281/2/4 276/2/4 282/2/4
f 282/2/4 276/2/4 283/2/4
f 277/2/4 278/2/4 284/2/4
f 284/2/4 278/2/4 285/2/4
f 279/1/4 280/1/4 287/1/4
f 280/2/4 281/2/4 288/2/4
f 287/1/4 280/1/4 288/1/4
f 281/2/4 282/2/4 288/2/4
f 288/2/4 282/2/4 289/2/4
f 289/2/4 282/2/4 290/2/4
f 285/2/4 286/2/4 293/2/4
f 293/2/4 286/2/4 294/2/4
f 290/2/4 291/2/4 295/2/4
f 289/2/4 290/2/4 295/2/4
f 295/2/4 291/2/4 296/2/4
f 292/2/4 293/2/4 297/2/4
f 297/2/4 293/2/4 298/2/4
f 296/2/4 297/2/4 299/2/4
f 299/2/4 297/2/4 300/2/4
f 301/2/4 302/2/4 304/2/4
f 304/2/4 302/2/4 305/2/4
f 303/2/4 304/2/4 307/2/4
f 305/2/4 306/2/4 307/2/4
f 304/2/4 305/2/4 307/2/4
f 307/2/4 306/2/4 308/2/4
f 308/2/4 306/2/4 309/2/4
f 309/2/4 306/2/4 310/2/4
f 308/2/4 309/2/4 311/2/4
f 311/2/4 309/2/4 312/2/4
f 315/1/5 314/1/5 313/1/5
f 316/1/5 314/1/5 315/1/5
f 320/1/5 318/1/5 317/1/5
f 321/1/5 318/1/5 320/1/5
f 323/1/5 320/1/5 319/1/5
f 324/1/5 320/1/5 323/1/5
f 325/1/5 322/1/5 321/1/5
f 326/1/5 322/1/5 325/1/5
f 327/1/5 325/1/5 324/1/5
f 328/1/5 325/1/5 327/1/5
f 333/2/5 330/2/5 329/2/5
f 334/2/5 330/2/5 333/2/5
f 335/2/5 332/2/5 331/2/5
f 336/2/5 332/2/5 335/2/5
f 341/2/5 338/2/5 337/2/5
f 342/2/5 338/2/5 341/2/5
f 343/2/5 340/2/5 339/2/5
f 344/2/5 340/2/5 343/2/5
f 347/2/5 346/2/5 345/2/5
f 348/2/5 346/2/5 347/2/5
f 353/2/5 350/2/5 349/2/5
f 354/2/5 350/2/5 353/2/5
f 355/2/5 352/2/5 351/2/5
f 356/2/5 352/2/5 355/2/5
f 359/2/5 358/2/5 357/2/5
f 360/2/5 358/2/5 359/2/5
f 366/2/5 362/2/5 361/2/5
f 367/2/5 362/2/5 366/2/5
f 368/2/5 364/2/5 363/2/5
f 369/2/5 364/2/5 368/2/5
f 371/2/5 366/2/5 365/2/5
f 372/2/5 366/2/5 371/2/5
f 373/2/5 370/2/5 369/2/5
f 374/2/5 370/2/5 373/2/5
f 379/2/5 376/2/5 375/2/5
f 380/2/5 376/2/5 379/2/5
f 383/2/5 378/2/5 377/2/5
f 384/2/5 378/2/5 383/2/5
f 385/2/5 381/2/5 380/2/5
f 386/2/5 381/2/5 385/2/5
f 387/2/5 383/2/5 382/2/5
f 388/2/5 383/2/5 387/2/5
f 389/2/6 390/2/6 394/2/6
f 394/2/6 390/2/6 395/2/6
f 391/2/6 392/2/6 396/2/6
f 396/2/6 392/2/6 397/2/6
f 393/2/6 394/2/6 399/2/6
f 399/2/6 394/2/6 400/2/6
f 397/2/6 398/2/6 401/2/6
f 401/2/6 398/2/6 402/2/6
f 403/2/6 404/2/6 407/2/6
f 407/2/6 404/2/6 408/2/6
f 405/2/6 406/2/6 411/2/6
f 411/2/6 406/2/6 412/2/6
f 408/2/6 409/2/6 413/2/6
f 413/2/6 409/2/6 414/2/6
f 410/2/6 411/2/6 415/2/6
f 415/2/6 411/2/6 416/2/6
f 417/2/6 418/2/6 420/2/6
f 420/2/6 418/2/6 421/2/6
f 419/2/6 420/2/6 424/2/6
f 424/2/6 420/2/6 425/2/6
f 421/2/6 422/2/6 426/2/6
f 426/2/6 422/2/6 427/2/6
f 423/2/6 424/2/6 429/2/6
f 429/2/6 424/2/6 430/2/6
f 427/2/6 428/2/6 433/2/6
f 433/2/6 428/2/6 434/2/6
f 430/2/6 431/2/6 435/2/6
f 435/2/6 431/2/6 436/2/6
f 432/2/6 433/2/6 437/2/6
f 437/2/6 433/2/6 438/2/6
f 436/2/6 437/2/6 439/2/6
f 439/2/6 437/2/6 440/2/6
f 441/2/6 442/2/6 444/2/6
f 444/2/6 442/2/6 445/2/6
f 443/2/6 444/2/6 447/2/6
f 447/2/6 444/2/6 448/2/6
f 445/2/6 446/2/6 449/2/6
f 449/2/6 446/2/6 450/2/6
f 448/2/6 449/2/6 451/2/6
f 451/2/6 449/2/6 452/2/6
f 453/2/6 454/2/6 455/2/6
f 455/2/6 454/2/6 456/2/6
