# MagicaVoxel @ Ephtracy

# group
g MazeFalseWall

# material
mtllib MazeFalseWall.mtl
usemtl palette

# normals
vn -1 0 0
vn 1 0 0
vn 0 0 1
vn 0 0 -1
vn 0 -1 0
vn 0 1 0

# texcoords
vt 0.505859 0.5
vt 0.564453 0.5

# verts
v -6 0 9.5
v -6 0 8.5
v -6 0 7.5
v -6 0 -8.5
v -6 0 -9.5
v -6 2 9.5
v -6 2 8.5
v -6 2 7.5
v -6 2 -8.5
v -6 2 -9.5
v 6 0 9.5
v 6 0 8.5
v 6 0 7.5
v 6 0 -8.5
v 6 0 -9.5
v 6 2 9.5
v 6 2 8.5
v 6 2 7.5
v 6 2 -8.5
v 6 2 -9.5
v -6 0 9.5
v -6 2 9.5
v 6 0 9.5
v 6 2 9.5
v -6 0 -9.5
v -6 2 -9.5
v 6 0 -9.5
v 6 2 -9.5
v -6 0 9.5
v 6 0 9.5
v -6 0 8.5
v 6 0 8.5
v -6 0 7.5
v 6 0 7.5
v -6 0 -8.5
v 6 0 -8.5
v -6 0 -9.5
v 6 0 -9.5
v -6 2 9.5
v 6 2 9.5
v -6 2 8.5
v 6 2 8.5
v -6 2 7.5
v 6 2 7.5
v -6 2 -8.5
v 6 2 -8.5
v -6 2 -9.5
v 6 2 -9.5

# faces
f 6/2/1 2/2/1 1/2/1
f 7/1/1 3/1/1 2/1/1
f 7/2/1 2/2/1 6/2/1
f 8/2/1 4/2/1 3/2/1
f 8/1/1 3/1/1 7/1/1
f 9/1/1 5/1/1 4/1/1
f 9/2/1 4/2/1 8/2/1
f 10/1/1 5/1/1 9/1/1
f 11/2/2 12/2/2 16/2/2
f 12/1/2 13/1/2 17/1/2
f 16/2/2 12/2/2 17/2/2
f 13/2/2 14/2/2 18/2/2
f 17/1/2 13/1/2 18/1/2
f 14/1/2 15/1/2 19/1/2
f 18/2/2 14/2/2 19/2/2
f 19/1/2 15/1/2 20/1/2
f 23/2/3 22/2/3 21/2/3
f 24/2/3 22/2/3 23/2/3
f 25/1/4 26/1/4 27/1/4
f 27/1/4 26/1/4 28/1/4
f 31/2/5 30/2/5 29/2/5
f 32/2/5 30/2/5 31/2/5
f 33/1/5 32/1/5 31/1/5
f 34/1/5 32/1/5 33/1/5
f 35/2/5 34/2/5 33/2/5
f 36/2/5 34/2/5 35/2/5
f 37/1/5 36/1/5 35/1/5
f 38/1/5 36/1/5 37/1/5
f 39/2/6 40/2/6 41/2/6
f 41/2/6 40/2/6 42/2/6
f 41/1/6 42/1/6 43/1/6
f 43/1/6 42/1/6 44/1/6
f 43/2/6 44/2/6 45/2/6
f 45/2/6 44/2/6 46/2/6
f 45/1/6 46/1/6 47/1/6
f 47/1/6 46/1/6 48/1/6
