# MagicaVoxel @ Ephtracy

# group
g PaperScrapTorn

# material
mtllib PaperScrapTorn.mtl
usemtl palette

# normals
vn -1 0 0
vn 1 0 0
vn 0 0 1
vn 0 0 -1
vn 0 -1 0
vn 0 1 0

# texcoords
vt 0.439453 0.5
vt 0.470703 0.5

# verts
v -8.5 6 0.5
v -8.5 6 -0.5
v -8.5 20 0.5
v -8.5 20 -0.5
v -7.5 20 0.5
v -7.5 20 -0.5
v -7.5 21 0.5
v -7.5 21 -0.5
v -6.5 5 0.5
v -6.5 5 -0.5
v -6.5 8 0.5
v -6.5 8 -0.5
v -6.5 21 0.5
v -6.5 21 -0.5
v -6.5 22 0.5
v -6.5 22 -0.5
v -4.5 4 0.5
v -4.5 4 -0.5
v -4.5 6 0.5
v -4.5 6 -0.5
v -3.5 21 0.5
v -3.5 21 -0.5
v -3.5 22 0.5
v -3.5 22 -0.5
v -1.5 21 0.5
v -1.5 21 -0.5
v -1.5 22 0.5
v -1.5 22 -0.5
v -0.5 4 0.5
v -0.5 4 -0.5
v -0.5 5 0.5
v -0.5 5 -0.5
v -0.5 7 0.5
v -0.5 7 -0.5
v -0.5 8 0.5
v -0.5 8 -0.5
v -0.5 9 0.5
v -0.5 9 -0.5
v 1.5 5 0.5
v 1.5 5 -0.5
v 1.5 7 0.5
v 1.5 7 -0.5
v 1.5 20 0.5
v 1.5 20 -0.5
v 1.5 21 0.5
v 1.5 21 -0.5
v 2.5 4 0.5
v 2.5 4 -0.5
v 2.5 5 0.5
v 2.5 5 -0.5
v 3.5 19 0.5
v 3.5 19 -0.5
v 3.5 20 0.5
v 3.5 20 -0.5
v 4.5 5 0.5
v 4.5 5 -0.5
v 4.5 6 0.5
v 4.5 6 -0.5
v 4.5 20 0.5
v 4.5 20 -0.5
v 4.5 21 0.5
v 4.5 21 -0.5
v 5.5 3 0.5
v 5.5 3 -0.5
v 5.5 5 0.5
v 5.5 5 -0.5
v 5.5 21 0.5
v 5.5 21 -0.5
v 5.5 22 0.5
v 5.5 22 -0.5
v 7.5 4 0.5
v 7.5 4 -0.5
v 7.5 5 0.5
v 7.5 5 -0.5
v -7.5 6 0.5
v -7.5 6 -0.5
v -7.5 8 0.5
v -7.5 8 -0.5
v -5.5 5 0.5
v -5.5 5 -0.5
v -5.5 6 0.5
v -5.5 6 -0.5
v -5.5 21 0.5
v -5.5 21 -0.5
v -5.5 22 0.5
v -5.5 22 -0.5
v -3.5 4 0.5
v -3.5 4 -0.5
v -3.5 6 0.5
v -3.5 6 -0.5
v -3.5 8 0.5
v -3.5 8 -0.5
v -2.5 21 0.5
v -2.5 21 -0.5
v -2.5 22 0.5
v -2.5 22 -0.5
v -1.5 8 0.5
v -1.5 8 -0.5
v -1.5 9 0.5
v -1.5 9 -0.5
v 0.5 4 0.5
v 0.5 4 -0.5
v 0.5 5 0.5
v 0.5 5 -0.5
v 0.5 7 0.5
v 0.5 7 -0.5
v 0.5 20 0.5
v 0.5 20 -0.5
v 0.5 22 0.5
v 0.5 22 -0.5
v 2.5 19 0.5
v 2.5 19 -0.5
v 2.5 21 0.5
v 2.5 21 -0.5
v 3.5 4 0.5
v 3.5 4 -0.5
v 3.5 6 0.5
v 3.5 6 -0.5
v 6.5 3 0.5
v 6.5 3 -0.5
v 6.5 5 0.5
v 6.5 5 -0.5
v 6.5 21 0.5
v 6.5 21 -0.5
v 6.5 22 0.5
v 6.5 22 -0.5
v 7.5 20 0.5
v 7.5 20 -0.5
v 7.5 21 0.5
v 7.5 21 -0.5
v 8.5 4 0.5
v 8.5 4 -0.5
v 8.5 20 0.5
v 8.5 20 -0.5
v -8.5 6 0.5
v -8.5 20 0.5
v -7.5 6 0.5
v -7.5 8 0.5
v -7.5 20 0.5
v -7.5 21 0.5
v -6.5 5 0.5
v -6.5 8 0.5
v -6.5 9 0.5
v -6.5 13 0.5
v -6.5 14 0.5
v -6.5 17 0.5
v -6.5 19 0.5
v -6.5 21 0.5
v -6.5 22 0.5
v -5.5 5 0.5
v -5.5 6 0.5
v -5.5 9 0.5
v -5.5 10 0.5
v -5.5 18 0.5
v -5.5 19 0.5
v -5.5 21 0.5
v -5.5 22 0.5
v -4.5 4 0.5
v -4.5 6 0.5
v -4.5 14 0.5
v -4.5 15 0.5
v -4.5 18 0.5
v -4.5 19 0.5
v -3.5 4 0.5
v -3.5 6 0.5
v -3.5 8 0.5
v -3.5 9 0.5
v -3.5 10 0.5
v -3.5 17 0.5
v -3.5 18 0.5
v -3.5 19 0.5
v -3.5 20 0.5
v -3.5 21 0.5
v -3.5 22 0.5
v -2.5 12 0.5
v -2.5 13 0.5
v -2.5 14 0.5
v -2.5 15 0.5
v -2.5 17 0.5
v -2.5 18 0.5
v -2.5 19 0.5
v -2.5 20 0.5
v -2.5 21 0.5
v -2.5 22 0.5
v -1.5 8 0.5
v -1.5 9 0.5
v -1.5 21 0.5
v -1.5 22 0.5
v -0.5 4 0.5
v -0.5 5 0.5
v -0.5 7 0.5
v -0.5 8 0.5
v -0.5 9 0.5
v -0.5 12 0.5
v -0.5 13 0.5
v -0.5 14 0.5
v -0.5 15 0.5
v -0.5 17 0.5
v -0.5 18 0.5
v 0.5 4 0.5
v 0.5 5 0.5
v 0.5 7 0.5
v 0.5 12 0.5
v 0.5 13 0.5
v 0.5 20 0.5
v 0.5 22 0.5
v 1.5 5 0.5
v 1.5 7 0.5
v 1.5 14 0.5
v 1.5 15 0.5
v 1.5 17 0.5
v 1.5 18 0.5
v 1.5 20 0.5
v 1.5 21 0.5
v 2.5 4 0.5
v 2.5 5 0.5
v 2.5 12 0.5
v 2.5 13 0.5
v 2.5 16 0.5
v 2.5 17 0.5
v 2.5 18 0.5
v 2.5 19 0.5
v 2.5 21 0.5
v 3.5 4 0.5
v 3.5 6 0.5
v 3.5 16 0.5
v 3.5 17 0.5
v 3.5 19 0.5
v 3.5 20 0.5
v 4.5 5 0.5
v 4.5 6 0.5
v 4.5 8 0.5
v 4.5 9 0.5
v 4.5 16 0.5
v 4.5 17 0.5
v 4.5 20 0.5
v 4.5 21 0.5
v 5.5 3 0.5
v 5.5 5 0.5
v 5.5 7 0.5
v 5.5 8 0.5
v 5.5 13 0.5
v 5.5 14 0.5
v 5.5 17 0.5
v 5.5 18 0.5
v 5.5 21 0.5
v 5.5 22 0.5
v 6.5 3 0.5
v 6.5 5 0.5
v 6.5 8 0.5
v 6.5 9 0.5
v 6.5 16 0.5
v 6.5 17 0.5
v 6.5 21 0.5
v 6.5 22 0.5
v 7.5 4 0.5
v 7.5 5 0.5
v 7.5 20 0.5
v 7.5 21 0.5
v 8.5 4 0.5
v 8.5 20 0.5
v -8.5 6 -0.5
v -8.5 20 -0.5
v -7.5 6 -0.5
v -7.5 8 -0.5
v -7.5 20 -0.5
v -7.5 21 -0.5
v -6.5 5 -0.5
v -6.5 8 -0.5
v -6.5 9 -0.5
v -6.5 13 -0.5
v -6.5 14 -0.5
v -6.5 17 -0.5
v -6.5 19 -0.5
v -6.5 21 -0.5
v -6.5 22 -0.5
v -5.5 5 -0.5
v -5.5 6 -0.5
v -5.5 9 -0.5
v -5.5 10 -0.5
v -5.5 18 -0.5
v -5.5 19 -0.5
v -5.5 21 -0.5
v -5.5 22 -0.5
v -4.5 4 -0.5
v -4.5 6 -0.5
v -4.5 14 -0.5
v -4.5 15 -0.5
v -4.5 18 -0.5
v -4.5 19 -0.5
v -3.5 4 -0.5
v -3.5 6 -0.5
v -3.5 8 -0.5
v -3.5 9 -0.5
v -3.5 10 -0.5
v -3.5 17 -0.5
v -3.5 18 -0.5
v -3.5 19 -0.5
v -3.5 20 -0.5
v -3.5 21 -0.5
v -3.5 22 -0.5
v -2.5 12 -0.5
v -2.5 13 -0.5
v -2.5 14 -0.5
v -2.5 15 -0.5
v -2.5 17 -0.5
v -2.5 18 -0.5
v -2.5 19 -0.5
v -2.5 20 -0.5
v -2.5 21 -0.5
v -2.5 22 -0.5
v -1.5 8 -0.5
v -1.5 9 -0.5
v -1.5 21 -0.5
v -1.5 22 -0.5
v -0.5 4 -0.5
v -0.5 5 -0.5
v -0.5 7 -0.5
v -0.5 8 -0.5
v -0.5 9 -0.5
v -0.5 12 -0.5
v -0.5 13 -0.5
v -0.5 14 -0.5
v -0.5 15 -0.5
v -0.5 17 -0.5
v -0.5 18 -0.5
v 0.5 4 -0.5
v 0.5 5 -0.5
v 0.5 7 -0.5
v 0.5 12 -0.5
v 0.5 13 -0.5
v 0.5 20 -0.5
v 0.5 22 -0.5
v 1.5 5 -0.5
v 1.5 7 -0.5
v 1.5 14 -0.5
v 1.5 15 -0.5
v 1.5 17 -0.5
v 1.5 18 -0.5
v 1.5 20 -0.5
v 1.5 21 -0.5
v 2.5 4 -0.5
v 2.5 5 -0.5
v 2.5 12 -0.5
v 2.5 13 -0.5
v 2.5 16 -0.5
v 2.5 17 -0.5
v 2.5 18 -0.5
v 2.5 19 -0.5
v 2.5 21 -0.5
v 3.5 4 -0.5
v 3.5 6 -0.5
v 3.5 16 -0.5
v 3.5 17 -0.5
v 3.5 19 -0.5
v 3.5 20 -0.5
v 4.5 5 -0.5
v 4.5 6 -0.5
v 4.5 8 -0.5
v 4.5 9 -0.5
v 4.5 16 -0.5
v 4.5 17 -0.5
v 4.5 20 -0.5
v 4.5 21 -0.5
v 5.5 3 -0.5
v 5.5 5 -0.5
v 5.5 7 -0.5
v 5.5 8 -0.5
v 5.5 13 -0.5
v 5.5 14 -0.5
v 5.5 17 -0.5
v 5.5 18 -0.5
v 5.5 21 -0.5
v 5.5 22 -0.5
v 6.5 3 -0.5
v 6.5 5 -0.5
v 6.5 8 -0.5
v 6.5 9 -0.5
v 6.5 16 -0.5
v 6.5 17 -0.5
v 6.5 21 -0.5
v 6.5 22 -0.5
v 7.5 4 -0.5
v 7.5 5 -0.5
v 7.5 20 -0.5
v 7.5 21 -0.5
v 8.5 4 -0.5
v 8.5 20 -0.5
v 5.5 3 0.5
v 6.5 3 0.5
v 5.5 3 -0.5
v 6.5 3 -0.5
v -4.5 4 0.5
v -3.5 4 0.5
v -0.5 4 0.5
v 0.5 4 0.5
v 2.5 4 0.5
v 3.5 4 0.5
v 7.5 4 0.5
v 8.5 4 0.5
v -4.5 4 -0.5
v -3.5 4 -0.5
v -0.5 4 -0.5
v 0.5 4 -0.5
v 2.5 4 -0.5
v 3.5 4 -0.5
v 7.5 4 -0.5
v 8.5 4 -0.5
v -6.5 5 0.5
v -5.5 5 0.5
v 1.5 5 0.5
v 2.5 5 0.5
v 4.5 5 0.5
v 5.5 5 0.5
v 6.5 5 0.5
v 7.5 5 0.5
v -6.5 5 -0.5
v -5.5 5 -0.5
v 1.5 5 -0.5
v 2.5 5 -0.5
v 4.5 5 -0.5
v 5.5 5 -0.5
v 6.5 5 -0.5
v 7.5 5 -0.5
v -8.5 6 0.5
v -7.5 6 0.5
v -5.5 6 0.5
v -4.5 6 0.5
v 3.5 6 0.5
v 4.5 6 0.5
v -8.5 6 -0.5
v -7.5 6 -0.5
v -5.5 6 -0.5
v -4.5 6 -0.5
v 3.5 6 -0.5
v 4.5 6 -0.5
v 0.5 7 0.5
v 1.5 7 0.5
v 0.5 7 -0.5
v 1.5 7 -0.5
v -7.5 8 0.5
v -6.5 8 0.5
v -3.5 8 0.5
v -1.5 8 0.5
v -7.5 8 -0.5
v -6.5 8 -0.5
v -3.5 8 -0.5
v -1.5 8 -0.5
v -1.5 9 0.5
v -0.5 9 0.5
v -1.5 9 -0.5
v -0.5 9 -0.5
v 2.5 19 0.5
v 3.5 19 0.5
v 2.5 19 -0.5
v 3.5 19 -0.5
v -8.5 20 0.5
v -7.5 20 0.5
v 0.5 20 0.5
v 1.5 20 0.5
v 3.5 20 0.5
v 4.5 20 0.5
v 7.5 20 0.5
v 8.5 20 0.5
v -8.5 20 -0.5
v -7.5 20 -0.5
v 0.5 20 -0.5
v 1.5 20 -0.5
v 3.5 20 -0.5
v 4.5 20 -0.5
v 7.5 20 -0.5
v 8.5 20 -0.5
v -7.5 21 0.5
v -6.5 21 0.5
v -5.5 21 0.5
v -3.5 21 0.5
v -2.5 21 0.5
v -1.5 21 0.5
v 1.5 21 0.5
v 2.5 21 0.5
v 4.5 21 0.5
v 5.5 21 0.5
v 6.5 21 0.5
v 7.5 21 0.5
v -7.5 21 -0.5
v -6.5 21 -0.5
v -5.5 21 -0.5
v -3.5 21 -0.5
v -2.5 21 -0.5
v -1.5 21 -0.5
v 1.5 21 -0.5
v 2.5 21 -0.5
v 4.5 21 -0.5
v 5.5 21 -0.5
v 6.5 21 -0.5
v 7.5 21 -0.5
v -6.5 22 0.5
v -5.5 22 0.5
v -3.5 22 0.5
v -2.5 22 0.5
v -1.5 22 0.5
v 0.5 22 0.5
v 5.5 22 0.5
v 6.5 22 0.5
v -6.5 22 -0.5
v -5.5 22 -0.5
v -3.5 22 -0.5
v -2.5 22 -0.5
v -1.5 22 -0.5
v 0.5 22 -0.5
v 5.5 22 -0.5
v 6.5 22 -0.5

# faces
f 3/2/1 2/2/1 1/2/1
f 4/2/1 2/2/1 3/2/1
f 7/2/1 6/2/1 5/2/1
f 8/2/1 6/2/1 7/2/1
f 11/2/1 10/2/1 9/2/1
f 12/2/1 10/2/1 11/2/1
f 15/2/1 14/2/1 13/2/1
f 16/2/1 14/2/1 15/2/1
f 19/1/1 18/1/1 17/1/1
f 20/1/1 18/1/1 19/1/1
f 23/2/1 22/2/1 21/2/1
f 24/2/1 22/2/1 23/2/1
f 27/2/1 26/2/1 25/2/1
f 28/2/1 26/2/1 27/2/1
f 31/1/1 30/1/1 29/1/1
f 32/1/1 30/1/1 31/1/1
f 33/2/1 32/2/1 31/2/1
f 34/2/1 32/2/1 33/2/1
f 35/1/1 34/1/1 33/1/1
f 36/1/1 34/1/1 35/1/1
f 37/2/1 36/2/1 35/2/1
f 38/2/1 36/2/1 37/2/1
f 41/2/1 40/2/1 39/2/1
f 42/2/1 40/2/1 41/2/1
f 45/2/1 44/2/1 43/2/1
f 46/2/1 44/2/1 45/2/1
f 49/2/1 48/2/1 47/2/1
f 50/2/1 48/2/1 49/2/1
f 53/2/1 52/2/1 51/2/1
f 54/2/1 52/2/1 53/2/1
f 57/2/1 56/2/1 55/2/1
f 58/2/1 56/2/1 57/2/1
f 61/2/1 60/2/1 59/2/1
f 62/2/1 60/2/1 61/2/1
f 65/1/1 64/1/1 63/1/1
f 66/1/1 64/1/1 65/1/1
f 69/2/1 68/2/1 67/2/1
f 70/2/1 68/2/1 69/2/1
f 73/2/1 72/2/1 71/2/1
f 74/2/1 72/2/1 73/2/1
f 75/2/2 76/2/2 77/2/2
f 77/2/2 76/2/2 78/2/2
f 79/2/2 80/2/2 81/2/2
f 81/2/2 80/2/2 82/2/2
f 83/2/2 84/2/2 85/2/2
f 85/2/2 84/2/2 86/2/2
f 87/1/2 88/1/2 89/1/2
f 89/1/2 88/1/2 90/1/2
f 89/2/2 90/2/2 91/2/2
f 91/2/2 90/2/2 92/2/2
f 93/2/2 94/2/2 95/2/2
f 95/2/2 94/2/2 96/2/2
f 97/1/2 98/1/2 99/1/2
f 99/1/2 98/1/2 100/1/2
f 101/1/2 102/1/2 103/1/2
f 103/1/2 102/1/2 104/1/2
f 103/2/2 104/2/2 105/2/2
f 105/2/2 104/2/2 106/2/2
f 107/2/2 108/2/2 109/2/2
f 109/2/2 108/2/2 110/2/2
f 111/2/2 112/2/2 113/2/2
f 113/2/2 112/2/2 114/2/2
f 115/2/2 116/2/2 117/2/2
f 117/2/2 116/2/2 118/2/2
f 119/1/2 120/1/2 121/1/2
f 121/1/2 120/1/2 122/1/2
f 123/2/2 124/2/2 125/2/2
f 125/2/2 124/2/2 126/2/2
f 127/2/2 128/2/2 129/2/2
f 129/2/2 128/2/2 130/2/2
f 131/2/2 132/2/2 133/2/2
f 133/2/2 132/2/2 134/2/2
f 137/2/3 136/2/3 135/2/3
f 138/2/3 136/2/3 137/2/3
f 139/2/3 136/2/3 138/2/3
f 142/2/3 140/2/3 139/2/3
f 142/2/3 139/2/3 138/2/3
f 143/2/3 140/2/3 142/2/3
f 144/2/3 140/2/3 143/2/3
f 145/2/3 140/2/3 144/2/3
f 146/2/3 140/2/3 145/2/3
f 147/2/3 140/2/3 146/2/3
f 148/2/3 140/2/3 147/2/3
f 150/2/3 142/2/3 141/2/3
f 151/2/3 142/2/3 150/2/3
f 152/1/3 143/1/3 142/1/3
f 152/2/3 144/2/3 143/2/3
f 153/2/3 144/2/3 152/2/3
f 154/1/3 147/1/3 146/1/3
f 155/2/3 149/2/3 148/2/3
f 155/1/3 147/1/3 154/1/3
f 155/2/3 148/2/3 147/2/3
f 156/2/3 149/2/3 155/2/3
f 157/2/3 149/2/3 156/2/3
f 159/2/3 142/2/3 151/2/3
f 160/1/3 145/1/3 144/1/3
f 160/2/3 146/2/3 145/2/3
f 161/2/3 146/2/3 160/2/3
f 162/1/3 154/1/3 146/1/3
f 162/2/3 156/2/3 155/2/3
f 162/2/3 155/2/3 154/2/3
f 163/2/3 156/2/3 162/2/3
f 164/1/3 159/1/3 158/1/3
f 165/2/3 142/2/3 159/2/3
f 165/1/3 159/1/3 164/1/3
f 166/1/3 153/1/3 152/1/3
f 166/2/3 142/2/3 165/2/3
f 166/1/3 152/1/3 142/1/3
f 167/1/3 153/1/3 166/1/3
f 168/2/3 144/2/3 153/2/3
f 168/1/3 153/1/3 167/1/3
f 169/2/3 146/2/3 161/2/3
f 169/1/3 163/1/3 162/1/3
f 169/1/3 162/1/3 146/1/3
f 170/1/3 163/1/3 169/1/3
f 171/2/3 156/2/3 163/2/3
f 171/1/3 163/1/3 170/1/3
f 172/2/3 156/2/3 171/2/3
f 173/2/3 156/2/3 172/2/3
f 175/2/3 144/2/3 168/2/3
f 175/2/3 168/2/3 167/2/3
f 176/1/3 161/1/3 160/1/3
f 176/2/3 144/2/3 175/2/3
f 176/1/3 160/1/3 144/1/3
f 177/1/3 161/1/3 176/1/3
f 178/2/3 170/2/3 169/2/3
f 178/1/3 161/1/3 177/1/3
f 178/2/3 169/2/3 161/2/3
f 179/2/3 170/2/3 178/2/3
f 180/1/3 172/1/3 171/1/3
f 180/2/3 170/2/3 179/2/3
f 180/1/3 171/1/3 170/1/3
f 181/1/3 172/1/3 180/1/3
f 182/2/3 174/2/3 173/2/3
f 182/1/3 172/1/3 181/1/3
f 182/2/3 173/2/3 172/2/3
f 183/2/3 174/2/3 182/2/3
f 184/2/3 174/2/3 183/2/3
f 185/1/3 167/1/3 166/1/3
f 186/2/3 175/2/3 167/2/3
f 186/1/3 167/1/3 185/1/3
f 187/2/3 182/2/3 181/2/3
f 187/2/3 183/2/3 182/2/3
f 193/2/3 175/2/3 186/2/3
f 194/1/3 177/1/3 176/1/3
f 194/1/3 176/1/3 175/1/3
f 194/2/3 175/2/3 193/2/3
f 195/1/3 177/1/3 194/1/3
f 196/2/3 179/2/3 178/2/3
f 196/1/3 177/1/3 195/1/3
f 196/2/3 178/2/3 177/2/3
f 197/2/3 179/2/3 196/2/3
f 198/1/3 181/1/3 180/1/3
f 198/2/3 179/2/3 197/2/3
f 198/1/3 180/1/3 179/1/3
f 199/1/3 181/1/3 198/1/3
f 200/1/3 190/1/3 189/1/3
f 201/2/3 191/2/3 190/2/3
f 201/1/3 190/1/3 200/1/3
f 202/1/3 192/1/3 191/1/3
f 202/2/3 191/2/3 201/2/3
f 203/2/3 193/2/3 192/2/3
f 203/2/3 195/2/3 194/2/3
f 203/2/3 194/2/3 193/2/3
f 204/1/3 197/1/3 196/1/3
f 204/2/3 195/2/3 203/2/3
f 204/1/3 196/1/3 195/1/3
f 205/2/3 188/2/3 187/2/3
f 205/2/3 187/2/3 181/2/3
f 206/2/3 188/2/3 205/2/3
f 208/1/3 192/1/3 202/1/3
f 209/1/3 197/1/3 204/1/3
f 209/1/3 204/1/3 203/1/3
f 210/2/3 198/2/3 197/2/3
f 210/1/3 197/1/3 209/1/3
f 210/2/3 199/2/3 198/2/3
f 211/2/3 199/2/3 210/2/3
f 212/1/3 181/1/3 199/1/3
f 212/2/3 199/2/3 211/2/3
f 213/2/3 205/2/3 181/2/3
f 216/2/3 208/2/3 207/2/3
f 217/2/3 203/2/3 192/2/3
f 217/1/3 209/1/3 203/1/3
f 218/1/3 209/1/3 217/1/3
f 219/2/3 211/2/3 210/2/3
f 219/2/3 210/2/3 209/2/3
f 220/1/3 212/1/3 211/1/3
f 220/2/3 211/2/3 219/2/3
f 221/1/3 181/1/3 212/1/3
f 221/1/3 212/1/3 220/1/3
f 222/2/3 214/2/3 213/2/3
f 222/1/3 181/1/3 221/1/3
f 222/2/3 213/2/3 181/2/3
f 223/2/3 214/2/3 222/2/3
f 224/2/3 216/2/3 215/2/3
f 225/2/3 208/2/3 216/2/3
f 225/2/3 216/2/3 224/2/3
f 226/1/3 220/1/3 219/1/3
f 226/1/3 221/1/3 220/1/3
f 226/2/3 219/2/3 209/2/3
f 227/1/3 221/1/3 226/1/3
f 228/2/3 222/2/3 221/2/3
f 231/2/3 208/2/3 225/2/3
f 232/1/3 192/1/3 208/1/3
f 232/2/3 218/2/3 217/2/3
f 232/2/3 217/2/3 192/2/3
f 233/2/3 218/2/3 232/2/3
f 234/2/3 226/2/3 209/2/3
f 234/2/3 227/2/3 226/2/3
f 235/1/3 221/1/3 227/1/3
f 235/2/3 227/2/3 234/2/3
f 236/2/3 229/2/3 228/2/3
f 239/2/3 231/2/3 230/2/3
f 240/2/3 208/2/3 231/2/3
f 240/1/3 233/1/3 232/1/3
f 240/2/3 231/2/3 239/2/3
f 240/1/3 232/1/3 208/1/3
f 241/1/3 233/1/3 240/1/3
f 242/1/3 209/1/3 218/1/3
f 242/2/3 218/2/3 233/2/3
f 243/2/3 234/2/3 209/2/3
f 243/1/3 209/1/3 242/1/3
f 244/1/3 221/1/3 235/1/3
f 244/1/3 235/1/3 234/1/3
f 245/2/3 228/2/3 221/2/3
f 245/1/3 221/1/3 244/1/3
f 245/2/3 237/2/3 236/2/3
f 245/2/3 236/2/3 228/2/3
f 246/2/3 237/2/3 245/2/3
f 248/1/3 239/1/3 238/1/3
f 249/2/3 240/2/3 239/2/3
f 249/1/3 239/1/3 248/1/3
f 249/2/3 241/2/3 240/2/3
f 250/1/3 233/1/3 241/1/3
f 250/2/3 241/2/3 249/2/3
f 251/2/3 242/2/3 233/2/3
f 251/1/3 233/1/3 250/1/3
f 251/2/3 243/2/3 242/2/3
f 252/1/3 244/1/3 234/1/3
f 252/2/3 243/2/3 251/2/3
f 252/2/3 234/2/3 243/2/3
f 253/2/3 246/2/3 245/2/3
f 253/1/3 244/1/3 252/1/3
f 253/2/3 247/2/3 246/2/3
f 253/2/3 245/2/3 244/2/3
f 254/2/3 247/2/3 253/2/3
f 255/2/3 247/2/3 254/2/3
f 257/2/3 252/2/3 251/2/3
f 257/2/3 254/2/3 253/2/3
f 257/2/3 253/2/3 252/2/3
f 257/2/3 251/2/3 250/2/3
f 257/2/3 250/2/3 249/2/3
f 258/2/3 254/2/3 257/2/3
f 259/2/3 254/2/3 258/2/3
f 260/2/3 257/2/3 256/2/3
f 260/2/3 258/2/3 257/2/3
f 261/2/3 258/2/3 260/2/3
f 262/2/4 263/2/4 264/2/4
f 264/2/4 263/2/4 265/2/4
f 265/2/4 263/2/4 266/2/4
f 266/2/4 267/2/4 269/2/4
f 265/2/4 266/2/4 269/2/4
f 269/2/4 267/2/4 270/2/4
f 270/2/4 267/2/4 271/2/4
f 271/2/4 267/2/4 272/2/4
f 272/2/4 267/2/4 273/2/4
f 273/2/4 267/2/4 274/2/4
f 274/2/4 267/2/4 275/2/4
f 268/2/4 269/2/4 277/2/4
f 277/2/4 269/2/4 278/2/4
f 269/1/4 270/1/4 279/1/4
f 270/2/4 271/2/4 279/2/4
f 279/2/4 271/2/4 280/2/4
f 273/1/4 274/1/4 281/1/4
f 275/2/4 276/2/4 282/2/4
f 281/1/4 274/1/4 282/1/4
f 274/2/4 275/2/4 282/2/4
f 282/2/4 276/2/4 283/2/4
f 283/2/4 276/2/4 284/2/4
f 278/2/4 269/2/4 286/2/4
f 271/1/4 272/1/4 287/1/4
f 272/2/4 273/2/4 287/2/4
f 287/2/4 273/2/4 288/2/4
f 273/1/4 281/1/4 289/1/4
f 282/2/4 283/2/4 289/2/4
f 281/2/4 282/2/4 289/2/4
f 289/2/4 283/2/4 290/2/4
f 285/1/4 286/1/4 291/1/4
f 286/2/4 269/2/4 292/2/4
f 291/1/4 286/1/4 292/1/4
f 279/1/4 280/1/4 293/1/4
f 292/2/4 269/2/4 293/2/4
f 269/1/4 279/1/4 293/1/4
f 293/1/4 280/1/4 294/1/4
f 280/2/4 271/2/4 295/2/4
f 294/1/4 280/1/4 295/1/4
f 288/2/4 273/2/4 296/2/4
f 289/1/4 290/1/4 296/1/4
f 273/1/4 289/1/4 296/1/4
f 296/1/4 290/1/4 297/1/4
f 290/2/4 283/2/4 298/2/4
f 297/1/4 290/1/4 298/1/4
f 298/2/4 283/2/4 299/2/4
f 299/2/4 283/2/4 300/2/4
f 295/2/4 271/2/4 302/2/4
f 294/2/4 295/2/4 302/2/4
f 287/1/4 288/1/4 303/1/4
f 302/2/4 271/2/4 303/2/4
f 271/1/4 287/1/4 303/1/4
f 303/1/4 288/1/4 304/1/4
f 296/2/4 297/2/4 305/2/4
f 304/1/4 288/1/4 305/1/4
f 288/2/4 296/2/4 305/2/4
f 305/2/4 297/2/4 306/2/4
f 298/1/4 299/1/4 307/1/4
f 306/2/4 297/2/4 307/2/4
f 297/1/4 298/1/4 307/1/4
f 307/1/4 299/1/4 308/1/4
f 300/2/4 301/2/4 309/2/4
f 308/1/4 299/1/4 309/1/4
f 299/2/4 300/2/4 309/2/4
f 309/2/4 301/2/4 310/2/4
f 310/2/4 301/2/4 311/2/4
f 293/1/4 294/1/4 312/1/4
f 294/2/4 302/2/4 313/2/4
f 312/1/4 294/1/4 313/1/4
f 308/2/4 309/2/4 314/2/4
f 309/2/4 310/2/4 314/2/4
f 313/2/4 302/2/4 320/2/4
f 303/1/4 304/1/4 321/1/4
f 302/1/4 303/1/4 321/1/4
f 320/2/4 302/2/4 321/2/4
f 321/1/4 304/1/4 322/1/4
f 305/2/4 306/2/4 323/2/4
f 322/1/4 304/1/4 323/1/4
f 304/2/4 305/2/4 323/2/4
f 323/2/4 306/2/4 324/2/4
f 307/1/4 308/1/4 325/1/4
f 324/2/4 306/2/4 325/2/4
f 306/1/4 307/1/4 325/1/4
f 325/1/4 308/1/4 326/1/4
f 316/1/4 317/1/4 327/1/4
f 317/2/4 318/2/4 328/2/4
f 327/1/4 317/1/4 328/1/4
f 318/1/4 319/1/4 329/1/4
f 328/2/4 318/2/4 329/2/4
f 319/2/4 320/2/4 330/2/4
f 321/2/4 322/2/4 330/2/4
f 320/2/4 321/2/4 330/2/4
f 323/1/4 324/1/4 331/1/4
f 330/2/4 322/2/4 331/2/4
f 322/1/4 323/1/4 331/1/4
f 314/2/4 315/2/4 332/2/4
f 308/2/4 314/2/4 332/2/4
f 332/2/4 315/2/4 333/2/4
f 329/1/4 319/1/4 335/1/4
f 331/1/4 324/1/4 336/1/4
f 330/1/4 331/1/4 336/1/4
f 324/2/4 325/2/4 337/2/4
f 336/1/4 324/1/4 337/1/4
f 325/2/4 326/2/4 337/2/4
f 337/2/4 326/2/4 338/2/4
f 326/1/4 308/1/4 339/1/4
f 338/2/4 326/2/4 339/2/4
f 308/2/4 332/2/4 340/2/4
f 334/2/4 335/2/4 343/2/4
f 319/2/4 330/2/4 344/2/4
f 330/1/4 336/1/4 344/1/4
f 344/1/4 336/1/4 345/1/4
f 337/2/4 338/2/4 346/2/4
f 336/2/4 337/2/4 346/2/4
f 338/1/4 339/1/4 347/1/4
f 346/2/4 338/2/4 347/2/4
f 339/1/4 308/1/4 348/1/4
f 347/1/4 339/1/4 348/1/4
f 340/2/4 341/2/4 349/2/4
f 348/1/4 308/1/4 349/1/4
f 308/2/4 340/2/4 349/2/4
f 349/2/4 341/2/4 350/2/4
f 342/2/4 343/2/4 351/2/4
f 343/2/4 335/2/4 352/2/4
f 351/2/4 343/2/4 352/2/4
f 346/1/4 347/1/4 353/1/4
f 347/1/4 348/1/4 353/1/4
f 336/2/4 346/2/4 353/2/4
f 353/1/4 348/1/4 354/1/4
f 348/2/4 349/2/4 355/2/4
f 352/2/4 335/2/4 358/2/4
f 335/1/4 319/1/4 359/1/4
f 344/2/4 345/2/4 359/2/4
f 319/2/4 344/2/4 359/2/4
f 359/2/4 345/2/4 360/2/4
f 336/2/4 353/2/4 361/2/4
f 353/2/4 354/2/4 361/2/4
f 354/1/4 348/1/4 362/1/4
f 361/2/4 354/2/4 362/2/4
f 355/2/4 356/2/4 363/2/4
f 357/2/4 358/2/4 366/2/4
f 358/2/4 335/2/4 367/2/4
f 359/1/4 360/1/4 367/1/4
f 366/2/4 358/2/4 367/2/4
f 335/1/4 359/1/4 367/1/4
f 367/1/4 360/1/4 368/1/4
f 345/1/4 336/1/4 369/1/4
f 360/2/4 345/2/4 369/2/4
f 336/2/4 361/2/4 370/2/4
f 369/1/4 336/1/4 370/1/4
f 362/1/4 348/1/4 371/1/4
f 361/1/4 362/1/4 371/1/4
f 348/2/4 355/2/4 372/2/4
f 371/1/4 348/1/4 372/1/4
f 363/2/4 364/2/4 372/2/4
f 355/2/4 363/2/4 372/2/4
f 372/2/4 364/2/4 373/2/4
f 365/1/4 366/1/4 375/1/4
f 366/2/4 367/2/4 376/2/4
f 375/1/4 366/1/4 376/1/4
f 367/2/4 368/2/4 376/2/4
f 368/1/4 360/1/4 377/1/4
f 376/2/4 368/2/4 377/2/4
f 360/2/4 369/2/4 378/2/4
f 377/1/4 360/1/4 378/1/4
f 369/2/4 370/2/4 378/2/4
f 361/1/4 371/1/4 379/1/4
f 378/2/4 370/2/4 379/2/4
f 370/2/4 361/2/4 379/2/4
f 372/2/4 373/2/4 380/2/4
f 379/1/4 371/1/4 380/1/4
f 373/2/4 374/2/4 380/2/4
f 371/2/4 372/2/4 380/2/4
f 380/2/4 374/2/4 381/2/4
f 381/2/4 374/2/4 382/2/4
f 378/2/4 379/2/4 384/2/4
f 380/2/4 381/2/4 384/2/4
f 379/2/4 380/2/4 384/2/4
f 377/2/4 378/2/4 384/2/4
f 376/2/4 377/2/4 384/2/4
f 384/2/4 381/2/4 385/2/4
f 385/2/4 381/2/4 386/2/4
f 383/2/4 384/2/4 387/2/4
f 384/2/4 385/2/4 387/2/4
f 387/2/4 385/2/4 388/2/4
f 391/1/5 390/1/5 389/1/5
f 392/1/5 390/1/5 391/1/5
f 401/1/5 394/1/5 393/1/5
f 402/1/5 394/1/5 401/1/5
f 403/1/5 396/1/5 395/1/5
f 404/1/5 396/1/5 403/1/5
f 405/2/5 398/2/5 397/2/5
f 406/2/5 398/2/5 405/2/5
f 407/2/5 400/2/5 399/2/5
f 408/2/5 400/2/5 407/2/5
f 417/2/5 410/2/5 409/2/5
f 418/2/5 410/2/5 417/2/5
f 419/2/5 412/2/5 411/2/5
f 420/2/5 412/2/5 419/2/5
f 421/2/5 414/2/5 413/2/5
f 422/2/5 414/2/5 421/2/5
f 423/2/5 416/2/5 415/2/5
f 424/2/5 416/2/5 423/2/5
f 431/2/5 426/2/5 425/2/5
f 432/2/5 426/2/5 431/2/5
f 433/2/5 428/2/5 427/2/5
f 434/2/5 428/2/5 433/2/5
f 435/2/5 430/2/5 429/2/5
f 436/2/5 430/2/5 435/2/5
f 439/1/5 438/1/5 437/1/5
f 440/1/5 438/1/5 439/1/5
f 445/2/5 442/2/5 441/2/5
f 446/2/5 442/2/5 445/2/5
f 447/1/5 444/1/5 443/1/5
f 448/1/5 444/1/5 447/1/5
f 451/2/5 450/2/5 449/2/5
f 452/2/5 450/2/5 451/2/5
f 453/2/6 454/2/6 455/2/6
f 455/2/6 454/2/6 456/2/6
f 457/2/6 458/2/6 465/2/6
f 465/2/6 458/2/6 466/2/6
f 459/2/6 460/2/6 467/2/6
f 467/2/6 460/2/6 468/2/6
f 461/2/6 462/2/6 469/2/6
f 469/2/6 462/2/6 470/2/6
f 463/2/6 464/2/6 471/2/6
f 471/2/6 464/2/6 472/2/6
f 473/2/6 474/2/6 485/2/6
f 485/2/6 474/2/6 486/2/6
f 475/2/6 476/2/6 487/2/6
f 487/2/6 476/2/6 488/2/6
f 477/2/6 478/2/6 489/2/6
f 489/2/6 478/2/6 490/2/6
f 479/2/6 480/2/6 491/2/6
f 491/2/6 480/2/6 492/2/6
f 481/2/6 482/2/6 493/2/6
f 493/2/6 482/2/6 494/2/6
f 483/2/6 484/2/6 495/2/6
f 495/2/6 484/2/6 496/2/6
f 497/2/6 498/2/6 505/2/6
f 505/2/6 498/2/6 506/2/6
f 499/2/6 500/2/6 507/2/6
f 507/2/6 500/2/6 508/2/6
f 501/2/6 502/2/6 509/2/6
f 509/2/6 502/2/6 510/2/6
f 503/2/6 504/2/6 511/2/6
f 511/2/6 504/2/6 512/2/6
