# MagicaVoxel @ Ephtracy

# group
g Rock5

# material
mtllib Rock5.mtl
usemtl palette

# normals
vn -1 0 0
vn 1 0 0
vn 0 0 1
vn 0 0 -1
vn 0 -1 0
vn 0 1 0

# texcoords
vt 0.564453 0.5

# verts
v -4 0 3
v -4 0 1
v -4 1 3
v -4 1 1
v -3 0 4
v -3 0 3
v -3 0 1
v -3 0 -0
v -3 1 4
v -3 1 3
v -3 1 1
v -3 1 -0
v -3 2 3
v -3 2 1
v -2 0 5
v -2 0 4
v -2 1 5
v -2 1 4
v -2 1 3
v -2 2 3
v -2 2 2
v -2 3 5
v -2 3 4
v -2 5 5
v -2 5 2
v -2 5 -0
v -2 7 3
v -2 7 2
v -2 7 1
v -2 7 -0
v -2 9 3
v -2 9 1
v -1 1 5
v -1 1 4
v -1 1 1
v -1 1 -0
v -1 2 2
v -1 2 1
v -1 2 -0
v -1 2 -1
v -1 3 6
v -1 3 5
v -1 3 4
v -1 4 -0
v -1 4 -1
v -1 5 6
v -1 5 5
v -1 5 2
v -1 5 -0
v -1 5 -1
v -1 6 5
v -1 6 4
v -1 7 3
v -1 7 2
v -1 7 1
v -1 7 -0
v -1 7 -1
v -1 9 4
v -1 9 3
v -1 9 1
v -1 9 -0
v -1 10 3
v -1 10 1
v 0 0 -0
v 0 0 -1
v 0 2 -0
v 0 2 -1
v 0 2 -2
v 0 4 -0
v 0 4 -1
v 0 4 -2
v 0 5 -0
v 0 5 -1
v 0 6 5
v 0 6 4
v 0 7 -0
v 0 7 -1
v 0 8 5
v 0 8 4
v 0 9 1
v 0 9 -0
v 0 9 -1
v 0 10 1
v 0 10 -0
v 1 0 5
v 1 0 4
v 1 1 5
v 1 1 4
v 2 0 4
v 2 0 3
v 2 0 -0
v 2 0 -1
v 2 1 5
v 2 1 4
v 2 1 3
v 2 2 -0
v 2 2 -1
v 2 2 -2
v 2 3 6
v 2 3 5
v 2 3 4
v 2 3 3
v 2 3 2
v 2 4 3
v 2 4 2
v 2 4 -1
v 2 4 -2
v 2 5 6
v 2 5 5
v 2 5 3
v 2 6 4
v 2 6 3
v 2 8 5
v 2 8 4
v 2 8 3
v 2 8 -0
v 2 8 -1
v 2 9 4
v 2 9 3
v 2 9 -0
v 2 9 -1
v 2 10 3
v 2 10 -0
v 3 0 3
v 3 0 -0
v 3 1 4
v 3 1 3
v 3 2 -0
v 3 2 -1
v 3 3 5
v 3 3 4
v 3 3 3
v 3 3 2
v 3 4 3
v 3 4 2
v 3 4 -0
v 3 5 5
v 3 5 3
v 3 6 4
v 3 6 3
v 3 6 2
v 3 8 4
v 3 8 3
v 3 8 -0
v 3 8 -1
v 3 9 3
v 3 9 -0
v 4 4 2
v 4 4 -0
v 4 6 3
v 4 6 2
v 4 8 3
v 4 8 -0
v -1 3 6
v -1 5 6
v 2 3 6
v 2 5 6
v -2 0 5
v -2 1 5
v -2 3 5
v -2 5 5
v -1 1 5
v -1 3 5
v -1 5 5
v -1 6 5
v 0 6 5
v 0 8 5
v 1 0 5
v 1 1 5
v 2 1 5
v 2 3 5
v 2 5 5
v 2 8 5
v 3 3 5
v 3 5 5
v -3 0 4
v -3 1 4
v -2 0 4
v -2 1 4
v -2 3 4
v -1 1 4
v -1 3 4
v -1 6 4
v -1 9 4
v 0 6 4
v 0 8 4
v 1 0 4
v 1 1 4
v 2 0 4
v 2 1 4
v 2 3 4
v 2 6 4
v 2 8 4
v 2 9 4
v 3 1 4
v 3 3 4
v 3 6 4
v 3 8 4
v -4 0 3
v -4 1 3
v -3 0 3
v -3 1 3
v -3 2 3
v -2 1 3
v -2 2 3
v -2 7 3
v -2 9 3
v -1 7 3
v -1 9 3
v -1 10 3
v 2 0 3
v 2 1 3
v 2 5 3
v 2 6 3
v 2 8 3
v 2 9 3
v 2 10 3
v 3 0 3
v 3 1 3
v 3 5 3
v 3 6 3
v 3 8 3
v 3 9 3
v 4 6 3
v 4 8 3
v -2 5 2
v -2 7 2
v -1 5 2
v -1 7 2
v 2 3 2
v 2 4 2
v 3 3 2
v 3 4 2
v 3 6 2
v 4 4 2
v 4 6 2
v 2 3 3
v 2 4 3
v 3 3 3
v 3 4 3
v -2 2 2
v -2 5 2
v -1 2 2
v -1 5 2
v -4 0 1
v -4 1 1
v -3 0 1
v -3 1 1
v -3 2 1
v -2 7 1
v -2 9 1
v -1 1 1
v -1 2 1
v -1 7 1
v -1 9 1
v -1 10 1
v 0 9 1
v 0 10 1
v -3 0 -0
v -3 1 -0
v -2 5 -0
v -2 7 -0
v -1 1 -0
v -1 2 -0
v -1 4 -0
v -1 5 -0
v -1 7 -0
v -1 9 -0
v 0 0 -0
v 0 2 -0
v 0 4 -0
v 0 5 -0
v 0 7 -0
v 0 9 -0
v 0 10 -0
v 2 0 -0
v 2 2 -0
v 2 8 -0
v 2 9 -0
v 2 10 -0
v 3 0 -0
v 3 2 -0
v 3 4 -0
v 3 8 -0
v 3 9 -0
v 4 4 -0
v 4 8 -0
v -1 2 -1
v -1 4 -1
v -1 5 -1
v -1 7 -1
v 0 0 -1
v 0 2 -1
v 0 4 -1
v 0 5 -1
v 0 7 -1
v 0 9 -1
v 2 0 -1
v 2 2 -1
v 2 4 -1
v 2 8 -1
v 2 9 -1
v 3 2 -1
v 3 8 -1
v 0 2 -2
v 0 4 -2
v 2 2 -2
v 2 4 -2
v -2 0 5
v 1 0 5
v -3 0 4
v -2 0 4
v 1 0 4
v 2 0 4
v -4 0 3
v -3 0 3
v 2 0 3
v 3 0 3
v -4 0 1
v -3 0 1
v -3 0 -0
v 0 0 -0
v 2 0 -0
v 3 0 -0
v 0 0 -1
v 2 0 -1
v 1 1 5
v 2 1 5
v 1 1 4
v 2 1 4
v 3 1 4
v 2 1 3
v 3 1 3
v -1 2 -0
v 0 2 -0
v 2 2 -0
v 3 2 -0
v -1 2 -1
v 0 2 -1
v 2 2 -1
v 3 2 -1
v 0 2 -2
v 2 2 -2
v -1 3 6
v 2 3 6
v -2 3 5
v -1 3 5
v 2 3 5
v 3 3 5
v -2 3 4
v -1 3 4
v 2 3 4
v 3 3 4
v 2 4 3
v 3 4 3
v 2 4 2
v 3 4 2
v 4 4 2
v 3 4 -0
v 4 4 -0
v -2 5 2
v -1 5 2
v -2 5 -0
v -1 5 -0
v 0 5 -0
v -1 5 -1
v 0 5 -1
v 2 6 4
v 3 6 4
v 2 6 3
v 3 6 3
v 4 6 3
v 3 6 2
v 4 6 2
v -2 7 3
v -1 7 3
v -2 7 2
v -1 7 2
v -2 1 5
v -1 1 5
v -3 1 4
v -2 1 4
v -1 1 4
v -4 1 3
v -3 1 3
v -2 1 3
v -4 1 1
v -3 1 1
v -1 1 1
v -3 1 -0
v -1 1 -0
v -3 2 3
v -2 2 3
v -2 2 2
v -1 2 2
v -3 2 1
v -1 2 1
v 2 3 3
v 3 3 3
v 2 3 2
v 3 3 2
v -1 4 -0
v 0 4 -0
v -1 4 -1
v 0 4 -1
v 2 4 -1
v 0 4 -2
v 2 4 -2
v -1 5 6
v 2 5 6
v -2 5 5
v -1 5 5
v 2 5 5
v 3 5 5
v 2 5 3
v 3 5 3
v -2 5 2
v -1 5 2
v -1 6 5
v 0 6 5
v -1 6 4
v 0 6 4
v -2 7 1
v -1 7 1
v -2 7 -0
v -1 7 -0
v 0 7 -0
v -1 7 -1
v 0 7 -1
v 0 8 5
v 2 8 5
v 0 8 4
v 2 8 4
v 3 8 4
v 2 8 3
v 3 8 3
v 4 8 3
v 2 8 -0
v 3 8 -0
v 4 8 -0
v 2 8 -1
v 3 8 -1
v -1 9 4
v 2 9 4
v -2 9 3
v -1 9 3
v 2 9 3
v 3 9 3
v -2 9 1
v -1 9 1
v 0 9 1
v -1 9 -0
v 0 9 -0
v 2 9 -0
v 3 9 -0
v 0 9 -1
v 2 9 -1
v -1 10 3
v 2 10 3
v -1 10 1
v 0 10 1
v 0 10 -0
v 2 10 -0

# faces
f 3/1/1 2/1/1 1/1/1
f 4/1/1 2/1/1 3/1/1
f 9/1/1 6/1/1 5/1/1
f 10/1/1 6/1/1 9/1/1
f 11/1/1 8/1/1 7/1/1
f 12/1/1 8/1/1 11/1/1
f 13/1/1 11/1/1 10/1/1
f 14/1/1 11/1/1 13/1/1
f 17/1/1 16/1/1 15/1/1
f 18/1/1 16/1/1 17/1/1
f 20/1/1 19/1/1 18/1/1
f 23/1/1 20/1/1 18/1/1
f 23/1/1 21/1/1 20/1/1
f 24/1/1 23/1/1 22/1/1
f 25/1/1 21/1/1 23/1/1
f 25/1/1 23/1/1 24/1/1
f 28/1/1 26/1/1 25/1/1
f 29/1/1 26/1/1 28/1/1
f 30/1/1 26/1/1 29/1/1
f 31/1/1 28/1/1 27/1/1
f 31/1/1 29/1/1 28/1/1
f 32/1/1 29/1/1 31/1/1
f 38/1/1 36/1/1 35/1/1
f 39/1/1 36/1/1 38/1/1
f 42/1/1 34/1/1 33/1/1
f 43/1/1 34/1/1 42/1/1
f 44/1/1 40/1/1 39/1/1
f 44/1/1 38/1/1 37/1/1
f 44/1/1 39/1/1 38/1/1
f 45/1/1 40/1/1 44/1/1
f 46/1/1 42/1/1 41/1/1
f 47/1/1 42/1/1 46/1/1
f 48/1/1 44/1/1 37/1/1
f 49/1/1 44/1/1 48/1/1
f 51/1/1 48/1/1 47/1/1
f 52/1/1 48/1/1 51/1/1
f 53/1/1 48/1/1 52/1/1
f 54/1/1 48/1/1 53/1/1
f 56/1/1 50/1/1 49/1/1
f 57/1/1 50/1/1 56/1/1
f 58/1/1 53/1/1 52/1/1
f 59/1/1 53/1/1 58/1/1
f 60/1/1 56/1/1 55/1/1
f 61/1/1 56/1/1 60/1/1
f 62/1/1 60/1/1 59/1/1
f 63/1/1 60/1/1 62/1/1
f 66/1/1 65/1/1 64/1/1
f 67/1/1 65/1/1 66/1/1
f 70/1/1 68/1/1 67/1/1
f 71/1/1 68/1/1 70/1/1
f 72/1/1 70/1/1 69/1/1
f 73/1/1 70/1/1 72/1/1
f 78/1/1 75/1/1 74/1/1
f 79/1/1 75/1/1 78/1/1
f 81/1/1 77/1/1 76/1/1
f 82/1/1 77/1/1 81/1/1
f 83/1/1 81/1/1 80/1/1
f 84/1/1 81/1/1 83/1/1
f 85/1/2 86/1/2 87/1/2
f 87/1/2 86/1/2 88/1/2
f 89/1/2 90/1/2 94/1/2
f 94/1/2 90/1/2 95/1/2
f 91/1/2 92/1/2 96/1/2
f 96/1/2 92/1/2 97/1/2
f 93/1/2 94/1/2 100/1/2
f 100/1/2 94/1/2 101/1/2
f 102/1/2 103/1/2 104/1/2
f 104/1/2 103/1/2 105/1/2
f 97/1/2 98/1/2 106/1/2
f 106/1/2 98/1/2 107/1/2
f 99/1/2 100/1/2 108/1/2
f 108/1/2 100/1/2 109/1/2
f 109/1/2 110/1/2 111/1/2
f 111/1/2 110/1/2 112/1/2
f 109/1/2 111/1/2 113/1/2
f 113/1/2 111/1/2 114/1/2
f 114/1/2 115/1/2 118/1/2
f 118/1/2 115/1/2 119/1/2
f 116/1/2 117/1/2 120/1/2
f 120/1/2 117/1/2 121/1/2
f 119/1/2 120/1/2 122/1/2
f 122/1/2 120/1/2 123/1/2
f 124/1/2 125/1/2 127/1/2
f 127/1/2 125/1/2 128/1/2
f 126/1/2 127/1/2 128/1/2
f 126/1/2 128/1/2 131/1/2
f 128/1/2 129/1/2 131/1/2
f 131/1/2 129/1/2 132/1/2
f 132/1/2 129/1/2 133/1/2
f 130/1/2 131/1/2 134/1/2
f 131/1/2 132/1/2 134/1/2
f 133/1/2 129/1/2 135/1/2
f 135/1/2 129/1/2 136/1/2
f 130/1/2 134/1/2 137/1/2
f 134/1/2 135/1/2 137/1/2
f 137/1/2 135/1/2 138/1/2
f 138/1/2 135/1/2 140/1/2
f 140/1/2 135/1/2 141/1/2
f 139/1/2 140/1/2 142/1/2
f 142/1/2 140/1/2 143/1/2
f 136/1/2 129/1/2 144/1/2
f 144/1/2 129/1/2 145/1/2
f 143/1/2 144/1/2 146/1/2
f 146/1/2 144/1/2 147/1/2
f 148/1/2 149/1/2 151/1/2
f 150/1/2 151/1/2 152/1/2
f 151/1/2 149/1/2 153/1/2
f 152/1/2 151/1/2 153/1/2
f 156/1/3 155/1/3 154/1/3
f 157/1/3 155/1/3 156/1/3
f 162/1/3 159/1/3 158/1/3
f 163/1/3 161/1/3 160/1/3
f 164/1/3 161/1/3 163/1/3
f 166/1/3 165/1/3 164/1/3
f 168/1/3 162/1/3 158/1/3
f 168/1/3 163/1/3 162/1/3
f 169/1/3 163/1/3 168/1/3
f 170/1/3 163/1/3 169/1/3
f 171/1/3 163/1/3 170/1/3
f 172/1/3 167/1/3 166/1/3
f 172/1/3 166/1/3 164/1/3
f 173/1/3 167/1/3 172/1/3
f 174/1/3 172/1/3 171/1/3
f 175/1/3 172/1/3 174/1/3
f 178/1/3 177/1/3 176/1/3
f 179/1/3 177/1/3 178/1/3
f 181/1/3 180/1/3 179/1/3
f 182/1/3 180/1/3 181/1/3
f 185/1/3 184/1/3 183/1/3
f 186/1/3 184/1/3 185/1/3
f 189/1/3 188/1/3 187/1/3
f 190/1/3 188/1/3 189/1/3
f 193/1/3 184/1/3 186/1/3
f 194/1/3 184/1/3 193/1/3
f 195/1/3 191/1/3 190/1/3
f 196/1/3 191/1/3 195/1/3
f 197/1/3 193/1/3 192/1/3
f 198/1/3 193/1/3 197/1/3
f 201/1/3 200/1/3 199/1/3
f 202/1/3 200/1/3 201/1/3
f 204/1/3 203/1/3 202/1/3
f 205/1/3 203/1/3 204/1/3
f 208/1/3 207/1/3 206/1/3
f 209/1/3 207/1/3 208/1/3
f 216/1/3 210/1/3 209/1/3
f 217/1/3 210/1/3 216/1/3
f 218/1/3 212/1/3 211/1/3
f 219/1/3 212/1/3 218/1/3
f 220/1/3 214/1/3 213/1/3
f 221/1/3 214/1/3 220/1/3
f 222/1/3 216/1/3 215/1/3
f 223/1/3 216/1/3 222/1/3
f 224/1/3 222/1/3 221/1/3
f 225/1/3 222/1/3 224/1/3
f 228/1/3 227/1/3 226/1/3
f 229/1/3 227/1/3 228/1/3
f 232/1/3 231/1/3 230/1/3
f 233/1/3 231/1/3 232/1/3
f 235/1/3 234/1/3 233/1/3
f 236/1/3 234/1/3 235/1/3
f 237/1/4 238/1/4 239/1/4
f 239/1/4 238/1/4 240/1/4
f 241/1/4 242/1/4 243/1/4
f 243/1/4 242/1/4 244/1/4
f 245/1/4 246/1/4 247/1/4
f 247/1/4 246/1/4 248/1/4
f 248/1/4 249/1/4 252/1/4
f 252/1/4 249/1/4 253/1/4
f 250/1/4 251/1/4 254/1/4
f 254/1/4 251/1/4 255/1/4
f 255/1/4 256/1/4 257/1/4
f 257/1/4 256/1/4 258/1/4
f 259/1/4 260/1/4 263/1/4
f 261/1/4 262/1/4 266/1/4
f 266/1/4 262/1/4 267/1/4
f 263/1/4 264/1/4 269/1/4
f 259/1/4 263/1/4 269/1/4
f 269/1/4 264/1/4 270/1/4
f 265/1/4 266/1/4 271/1/4
f 271/1/4 266/1/4 272/1/4
f 267/1/4 268/1/4 273/1/4
f 273/1/4 268/1/4 274/1/4
f 274/1/4 275/1/4 279/1/4
f 279/1/4 275/1/4 280/1/4
f 276/1/4 277/1/4 281/1/4
f 281/1/4 277/1/4 282/1/4
f 278/1/4 279/1/4 284/1/4
f 284/1/4 279/1/4 285/1/4
f 283/1/4 284/1/4 286/1/4
f 286/1/4 284/1/4 287/1/4
f 288/1/4 289/1/4 293/1/4
f 293/1/4 289/1/4 294/1/4
f 290/1/4 291/1/4 295/1/4
f 295/1/4 291/1/4 296/1/4
f 292/1/4 293/1/4 298/1/4
f 298/1/4 293/1/4 299/1/4
f 296/1/4 297/1/4 300/1/4
f 295/1/4 296/1/4 300/1/4
f 294/1/4 295/1/4 300/1/4
f 300/1/4 297/1/4 301/1/4
f 301/1/4 297/1/4 302/1/4
f 299/1/4 300/1/4 303/1/4
f 300/1/4 301/1/4 303/1/4
f 303/1/4 301/1/4 304/1/4
f 305/1/4 306/1/4 307/1/4
f 307/1/4 306/1/4 308/1/4
f 312/1/5 310/1/5 309/1/5
f 313/1/5 310/1/5 312/1/5
f 316/1/5 312/1/5 311/1/5
f 316/1/5 314/1/5 313/1/5
f 316/1/5 313/1/5 312/1/5
f 317/1/5 314/1/5 316/1/5
f 319/1/5 316/1/5 315/1/5
f 319/1/5 318/1/5 317/1/5
f 319/1/5 317/1/5 316/1/5
f 320/1/5 318/1/5 319/1/5
f 321/1/5 318/1/5 320/1/5
f 322/1/5 318/1/5 321/1/5
f 323/1/5 318/1/5 322/1/5
f 324/1/5 318/1/5 323/1/5
f 325/1/5 323/1/5 322/1/5
f 326/1/5 323/1/5 325/1/5
f 329/1/5 328/1/5 327/1/5
f 330/1/5 328/1/5 329/1/5
f 332/1/5 331/1/5 330/1/5
f 333/1/5 331/1/5 332/1/5
f 338/1/5 335/1/5 334/1/5
f 339/1/5 335/1/5 338/1/5
f 340/1/5 337/1/5 336/1/5
f 341/1/5 337/1/5 340/1/5
f 342/1/5 340/1/5 339/1/5
f 343/1/5 340/1/5 342/1/5
f 347/1/5 345/1/5 344/1/5
f 348/1/5 345/1/5 347/1/5
f 350/1/5 347/1/5 346/1/5
f 351/1/5 347/1/5 350/1/5
f 352/1/5 349/1/5 348/1/5
f 353/1/5 349/1/5 352/1/5
f 356/1/5 355/1/5 354/1/5
f 357/1/5 355/1/5 356/1/5
f 359/1/5 358/1/5 357/1/5
f 360/1/5 358/1/5 359/1/5
f 363/1/5 362/1/5 361/1/5
f 364/1/5 362/1/5 363/1/5
f 366/1/5 365/1/5 364/1/5
f 367/1/5 365/1/5 366/1/5
f 370/1/5 369/1/5 368/1/5
f 371/1/5 369/1/5 370/1/5
f 373/1/5 372/1/5 371/1/5
f 374/1/5 372/1/5 373/1/5
f 377/1/5 376/1/5 375/1/5
f 378/1/5 376/1/5 377/1/5
f 379/1/6 380/1/6 382/1/6
f 382/1/6 380/1/6 383/1/6
f 381/1/6 382/1/6 385/1/6
f 385/1/6 382/1/6 386/1/6
f 384/1/6 385/1/6 387/1/6
f 387/1/6 385/1/6 388/1/6
f 388/1/6 389/1/6 390/1/6
f 390/1/6 389/1/6 391/1/6
f 392/1/6 393/1/6 394/1/6
f 392/1/6 394/1/6 396/1/6
f 394/1/6 395/1/6 396/1/6
f 396/1/6 395/1/6 397/1/6
f 398/1/6 399/1/6 400/1/6
f 400/1/6 399/1/6 401/1/6
f 402/1/6 403/1/6 404/1/6
f 404/1/6 403/1/6 405/1/6
f 405/1/6 406/1/6 407/1/6
f 407/1/6 406/1/6 408/1/6
f 409/1/6 410/1/6 412/1/6
f 412/1/6 410/1/6 413/1/6
f 413/1/6 414/1/6 415/1/6
f 415/1/6 414/1/6 416/1/6
f 411/1/6 412/1/6 417/1/6
f 417/1/6 412/1/6 418/1/6
f 419/1/6 420/1/6 421/1/6
f 421/1/6 420/1/6 422/1/6
f 423/1/6 424/1/6 425/1/6
f 425/1/6 424/1/6 426/1/6
f 426/1/6 427/1/6 428/1/6
f 428/1/6 427/1/6 429/1/6
f 430/1/6 431/1/6 432/1/6
f 432/1/6 431/1/6 433/1/6
f 433/1/6 434/1/6 435/1/6
f 435/1/6 434/1/6 436/1/6
f 436/1/6 437/1/6 439/1/6
f 439/1/6 437/1/6 440/1/6
f 438/1/6 439/1/6 441/1/6
f 441/1/6 439/1/6 442/1/6
f 443/1/6 444/1/6 446/1/6
f 446/1/6 444/1/6 447/1/6
f 445/1/6 446/1/6 449/1/6
f 449/1/6 446/1/6 450/1/6
f 450/1/6 451/1/6 452/1/6
f 452/1/6 451/1/6 453/1/6
f 447/1/6 448/1/6 454/1/6
f 454/1/6 448/1/6 455/1/6
f 453/1/6 454/1/6 456/1/6
f 456/1/6 454/1/6 457/1/6
f 458/1/6 459/1/6 460/1/6
f 460/1/6 459/1/6 461/1/6
f 461/1/6 459/1/6 462/1/6
f 462/1/6 459/1/6 463/1/6
