# MagicaVoxel @ Ephtracy

# group
g Shovel

# material
mtllib Shovel.mtl
usemtl palette

# normals
vn -1 0 0
vn 1 0 0
vn 0 0 1
vn 0 0 -1
vn 0 -1 0
vn 0 1 0

# texcoords
vt 0.501953 0.5
vt 0.505859 0.5

# verts
v -9 59 2
v -9 59 -2
v -9 67 2
v -9 67 -2
v -8 6 -1
v -8 6 -2
v -8 10 -0
v -8 10 -1
v -8 10 -2
v -8 17 -0
v -8 17 -1
v -8 58 2
v -8 58 -2
v -8 59 2
v -8 59 -2
v -7 4 -1
v -7 4 -2
v -7 6 -0
v -7 6 -1
v -7 6 -2
v -7 10 -0
v -7 10 -1
v -7 16 -1
v -7 16 -2
v -7 17 -1
v -7 17 -2
v -7 57 2
v -7 57 -2
v -7 58 2
v -7 58 -2
v -6 3 -1
v -6 3 -2
v -6 4 -0
v -6 4 -1
v -6 4 -2
v -6 6 -0
v -6 6 -1
v -6 56 2
v -6 56 -2
v -6 57 2
v -6 57 -2
v -5 2 -1
v -5 2 -2
v -5 3 -0
v -5 3 -1
v -5 3 -2
v -5 4 -0
v -5 4 -1
v -3 1 -1
v -3 1 -2
v -3 2 -0
v -3 2 -1
v -3 2 -2
v -3 3 -0
v -3 3 -1
v -3 16 1
v -3 16 -0
v -3 17 1
v -3 17 -0
v -3 55 1
v -3 55 -1
v -3 56 1
v -3 56 -1
v -2 14 1
v -2 14 -0
v -2 16 1
v -2 16 -0
v -2 16 -2
v -2 16 -3
v -2 17 1
v -2 17 -1
v -2 17 -2
v -2 17 -3
v -2 55 2
v -2 55 1
v -2 55 -1
v -2 55 -2
v -2 56 3
v -2 56 2
v -2 56 1
v -2 56 -1
v -2 56 -2
v -2 56 -3
v -2 58 3
v -2 58 2
v -2 58 -2
v -2 58 -3
v -1 0 -1
v -1 0 -2
v -1 1 -0
v -1 1 -1
v -1 1 -2
v -1 2 -0
v -1 2 -1
v -1 12 1
v -1 12 -0
v -1 14 1
v -1 14 -0
v -1 15 2
v -1 15 1
v -1 17 2
v -1 17 1
v -1 17 -1
v -1 17 -2
v -1 55 3
v -1 55 2
v -1 55 1
v -1 55 -1
v -1 55 -2
v -1 55 -3
v -1 56 3
v -1 56 2
v -1 56 -2
v -1 56 -3
v 1 1 -1
v 1 1 -2
v 1 2 -1
v 1 2 -2
v 3 2 -1
v 3 2 -2
v 3 3 -1
v 3 3 -2
v 5 3 -1
v 5 3 -2
v 5 4 -1
v 5 4 -2
v 5 58 2
v 5 58 -2
v 5 59 2
v 5 59 -2
v 6 4 -1
v 6 4 -2
v 6 6 -1
v 6 6 -2
v 6 59 2
v 6 59 -2
v 6 60 2
v 6 60 -2
v 7 6 -1
v 7 6 -2
v 7 10 -1
v 7 10 -2
v 7 60 2
v 7 60 -2
v 7 63 1
v 7 63 -1
v 7 66 1
v 7 66 -1
v 7 67 2
v 7 67 -2
v -7 6 -1
v -7 6 -2
v -7 10 -1
v -7 10 -2
v -7 60 2
v -7 60 -2
v -7 63 1
v -7 63 -1
v -7 66 1
v -7 66 -1
v -7 67 2
v -7 67 -2
v -6 4 -1
v -6 4 -2
v -6 6 -1
v -6 6 -2
v -6 59 2
v -6 59 -2
v -6 60 2
v -6 60 -2
v -5 3 -1
v -5 3 -2
v -5 4 -1
v -5 4 -2
v -5 58 2
v -5 58 -2
v -5 59 2
v -5 59 -2
v -3 2 -1
v -3 2 -2
v -3 3 -1
v -3 3 -2
v -1 1 -1
v -1 1 -2
v -1 2 -1
v -1 2 -2
v 1 0 -1
v 1 0 -2
v 1 1 -0
v 1 1 -1
v 1 1 -2
v 1 2 -0
v 1 2 -1
v 1 12 1
v 1 12 -0
v 1 14 1
v 1 14 -0
v 1 15 2
v 1 15 1
v 1 17 2
v 1 17 1
v 1 17 -1
v 1 17 -2
v 1 55 3
v 1 55 2
v 1 55 1
v 1 55 -1
v 1 55 -2
v 1 55 -3
v 1 56 3
v 1 56 2
v 1 56 -2
v 1 56 -3
v 2 14 1
v 2 14 -0
v 2 16 1
v 2 16 -0
v 2 16 -2
v 2 16 -3
v 2 17 1
v 2 17 -1
v 2 17 -2
v 2 17 -3
v 2 55 2
v 2 55 1
v 2 55 -1
v 2 55 -2
v 2 56 3
v 2 56 2
v 2 56 1
v 2 56 -1
v 2 56 -2
v 2 56 -3
v 2 58 3
v 2 58 2
v 2 58 -2
v 2 58 -3
v 3 1 -1
v 3 1 -2
v 3 2 -0
v 3 2 -1
v 3 2 -2
v 3 3 -0
v 3 3 -1
v 3 16 1
v 3 16 -0
v 3 17 1
v 3 17 -0
v 3 55 1
v 3 55 -1
v 3 56 1
v 3 56 -1
v 5 2 -1
v 5 2 -2
v 5 3 -0
v 5 3 -1
v 5 3 -2
v 5 4 -0
v 5 4 -1
v 6 3 -1
v 6 3 -2
v 6 4 -0
v 6 4 -1
v 6 4 -2
v 6 6 -0
v 6 6 -1
v 6 56 2
v 6 56 -2
v 6 57 2
v 6 57 -2
v 7 4 -1
v 7 4 -2
v 7 6 -0
v 7 6 -1
v 7 6 -2
v 7 10 -0
v 7 10 -1
v 7 16 -1
v 7 16 -2
v 7 17 -1
v 7 17 -2
v 7 57 2
v 7 57 -2
v 7 58 2
v 7 58 -2
v 8 6 -1
v 8 6 -2
v 8 10 -0
v 8 10 -1
v 8 10 -2
v 8 17 -0
v 8 17 -1
v 8 58 2
v 8 58 -2
v 8 59 2
v 8 59 -2
v 9 59 2
v 9 59 -2
v 9 67 2
v 9 67 -2
v -2 56 3
v -2 58 3
v -1 55 3
v -1 56 3
v 1 55 3
v 1 56 3
v 2 56 3
v 2 58 3
v -9 59 2
v -9 67 2
v -8 58 2
v -8 59 2
v -7 57 2
v -7 58 2
v -7 60 2
v -7 67 2
v -6 56 2
v -6 57 2
v -6 59 2
v -6 60 2
v -5 58 2
v -5 59 2
v -2 55 2
v -2 56 2
v -2 58 2
v -1 15 2
v -1 17 2
v -1 55 2
v -1 56 2
v 1 15 2
v 1 17 2
v 1 55 2
v 1 56 2
v 2 55 2
v 2 56 2
v 2 58 2
v 5 58 2
v 5 59 2
v 6 56 2
v 6 57 2
v 6 59 2
v 6 60 2
v 7 57 2
v 7 58 2
v 7 60 2
v 7 67 2
v 8 58 2
v 8 59 2
v 9 59 2
v 9 67 2
v -7 63 1
v -7 66 1
v -3 16 1
v -3 17 1
v -3 55 1
v -3 56 1
v -2 14 1
v -2 16 1
v -2 17 1
v -2 55 1
v -2 56 1
v -1 12 1
v -1 14 1
v -1 15 1
v -1 17 1
v -1 55 1
v 1 12 1
v 1 14 1
v 1 15 1
v 1 17 1
v 1 55 1
v 2 14 1
v 2 16 1
v 2 17 1
v 2 55 1
v 2 56 1
v 3 16 1
v 3 17 1
v 3 55 1
v 3 56 1
v 7 63 1
v 7 66 1
v -8 10 -0
v -8 17 -0
v -7 6 -0
v -7 10 -0
v -6 4 -0
v -6 6 -0
v -5 3 -0
v -5 4 -0
v -3 2 -0
v -3 3 -0
v -3 16 -0
v -3 17 -0
v -2 14 -0
v -2 16 -0
v -1 1 -0
v -1 2 -0
v -1 12 -0
v -1 14 -0
v 1 1 -0
v 1 2 -0
v 1 12 -0
v 1 14 -0
v 2 14 -0
v 2 16 -0
v 3 2 -0
v 3 3 -0
v 3 16 -0
v 3 17 -0
v 5 3 -0
v 5 4 -0
v 6 4 -0
v 6 6 -0
v 7 6 -0
v 7 10 -0
v 8 10 -0
v 8 17 -0
v -8 6 -1
v -8 10 -1
v -7 4 -1
v -7 6 -1
v -7 10 -1
v -6 3 -1
v -6 4 -1
v -6 6 -1
v -5 2 -1
v -5 3 -1
v -5 4 -1
v -3 1 -1
v -3 2 -1
v -3 3 -1
v -1 0 -1
v -1 1 -1
v -1 2 -1
v 1 0 -1
v 1 1 -1
v 1 2 -1
v 3 1 -1
v 3 2 -1
v 3 3 -1
v 5 2 -1
v 5 3 -1
v 5 4 -1
v 6 3 -1
v 6 4 -1
v 6 6 -1
v 7 4 -1
v 7 6 -1
v 7 10 -1
v 8 6 -1
v 8 10 -1
v -8 10 -1
v -8 17 -1
v -7 6 -1
v -7 10 -1
v -7 16 -1
v -7 17 -1
v -7 63 -1
v -7 66 -1
v -6 4 -1
v -6 6 -1
v -5 3 -1
v -5 4 -1
v -3 2 -1
v -3 3 -1
v -3 55 -1
v -3 56 -1
v -2 17 -1
v -2 55 -1
v -2 56 -1
v -1 1 -1
v -1 2 -1
v -1 17 -1
v -1 55 -1
v 1 1 -1
v 1 2 -1
v 1 17 -1
v 1 55 -1
v 2 17 -1
v 2 55 -1
v 2 56 -1
v 3 2 -1
v 3 3 -1
v 3 55 -1
v 3 56 -1
v 5 3 -1
v 5 4 -1
v 6 4 -1
v 6 6 -1
v 7 6 -1
v 7 10 -1
v 7 16 -1
v 7 17 -1
v 7 63 -1
v 7 66 -1
v 8 10 -1
v 8 17 -1
v -9 59 -2
v -9 67 -2
v -8 6 -2
v -8 10 -2
v -8 58 -2
v -8 59 -2
v -7 4 -2
v -7 6 -2
v -7 10 -2
v -7 16 -2
v -7 17 -2
v -7 57 -2
v -7 58 -2
v -7 60 -2
v -7 67 -2
v -6 3 -2
v -6 4 -2
v -6 6 -2
v -6 56 -2
v -6 57 -2
v -6 59 -2
v -6 60 -2
v -5 2 -2
v -5 3 -2
v -5 4 -2
v -5 58 -2
v -5 59 -2
v -3 1 -2
v -3 2 -2
v -3 3 -2
v -2 16 -2
v -2 17 -2
v -2 55 -2
v -2 56 -2
v -2 58 -2
v -1 0 -2
v -1 1 -2
v -1 2 -2
v -1 17 -2
v -1 55 -2
v -1 56 -2
v 1 0 -2
v 1 1 -2
v 1 2 -2
v 1 17 -2
v 1 55 -2
v 1 56 -2
v 2 16 -2
v 2 17 -2
v 2 55 -2
v 2 56 -2
v 2 58 -2
v 3 1 -2
v 3 2 -2
v 3 3 -2
v 5 2 -2
v 5 3 -2
v 5 4 -2
v 5 58 -2
v 5 59 -2
v 6 3 -2
v 6 4 -2
v 6 6 -2
v 6 56 -2
v 6 57 -2
v 6 59 -2
v 6 60 -2
v 7 4 -2
v 7 6 -2
v 7 10 -2
v 7 16 -2
v 7 17 -2
v 7 57 -2
v 7 58 -2
v 7 60 -2
v 7 67 -2
v 8 6 -2
v 8 10 -2
v 8 58 -2
v 8 59 -2
v 9 59 -2
v 9 67 -2
v -2 16 -3
v -2 17 -3
v -2 56 -3
v -2 58 -3
v -1 55 -3
v -1 56 -3
v 1 55 -3
v 1 56 -3
v 2 16 -3
v 2 17 -3
v 2 56 -3
v 2 58 -3
v -1 0 -1
v 1 0 -1
v -1 0 -2
v 1 0 -2
v -1 1 -0
v 1 1 -0
v -3 1 -1
v -1 1 -1
v 1 1 -1
v 3 1 -1
v -3 1 -2
v -1 1 -2
v 1 1 -2
v 3 1 -2
v -3 2 -0
v -1 2 -0
v 1 2 -0
v 3 2 -0
v -5 2 -1
v -3 2 -1
v -1 2 -1
v 1 2 -1
v 3 2 -1
v 5 2 -1
v -5 2 -2
v -3 2 -2
v 3 2 -2
v 5 2 -2
v -5 3 -0
v -3 3 -0
v 3 3 -0
v 5 3 -0
v -6 3 -1
v -5 3 -1
v -3 3 -1
v 3 3 -1
v 5 3 -1
v 6 3 -1
v -6 3 -2
v -5 3 -2
v 5 3 -2
v 6 3 -2
v -6 4 -0
v -5 4 -0
v 5 4 -0
v 6 4 -0
v -7 4 -1
v -6 4 -1
v -5 4 -1
v 5 4 -1
v 6 4 -1
v 7 4 -1
v -7 4 -2
v -6 4 -2
v 6 4 -2
v 7 4 -2
v -7 6 -0
v -6 6 -0
v 6 6 -0
v 7 6 -0
v -8 6 -1
v -7 6 -1
v -6 6 -1
v 6 6 -1
v 7 6 -1
v 8 6 -1
v -8 6 -2
v -7 6 -2
v 7 6 -2
v 8 6 -2
v -8 10 -0
v -7 10 -0
v 7 10 -0
v 8 10 -0
v -8 10 -1
v -7 10 -1
v 7 10 -1
v 8 10 -1
v -1 12 1
v 1 12 1
v -1 12 -0
v 1 12 -0
v -2 14 1
v -1 14 1
v 1 14 1
v 2 14 1
v -2 14 -0
v -1 14 -0
v 1 14 -0
v 2 14 -0
v -1 15 2
v 1 15 2
v -1 15 1
v 1 15 1
v -3 16 1
v -2 16 1
v 2 16 1
v 3 16 1
v -3 16 -0
v -2 16 -0
v 2 16 -0
v 3 16 -0
v -7 16 -1
v 7 16 -1
v -7 16 -2
v -2 16 -2
v 2 16 -2
v 7 16 -2
v -2 16 -3
v 2 16 -3
v -1 55 3
v 1 55 3
v -2 55 2
v -1 55 2
v 1 55 2
v 2 55 2
v -3 55 1
v -2 55 1
v -1 55 1
v 1 55 1
v 2 55 1
v 3 55 1
v -3 55 -1
v -2 55 -1
v -1 55 -1
v 1 55 -1
v 2 55 -1
v 3 55 -1
v -2 55 -2
v -1 55 -2
v 1 55 -2
v 2 55 -2
v -1 55 -3
v 1 55 -3
v -2 56 3
v -1 56 3
v 1 56 3
v 2 56 3
v -6 56 2
v -2 56 2
v -1 56 2
v 1 56 2
v 2 56 2
v 6 56 2
v -3 56 1
v -2 56 1
v 2 56 1
v 3 56 1
v -3 56 -1
v -2 56 -1
v 2 56 -1
v 3 56 -1
v -6 56 -2
v -2 56 -2
v -1 56 -2
v 1 56 -2
v 2 56 -2
v 6 56 -2
v -2 56 -3
v -1 56 -3
v 1 56 -3
v 2 56 -3
v -7 57 2
v -6 57 2
v 6 57 2
v 7 57 2
v -7 57 -2
v -6 57 -2
v 6 57 -2
v 7 57 -2
v -8 58 2
v -7 58 2
v 7 58 2
v 8 58 2
v -8 58 -2
v -7 58 -2
v 7 58 -2
v 8 58 -2
v -9 59 2
v -8 59 2
v 8 59 2
v 9 59 2
v -9 59 -2
v -8 59 -2
v 8 59 -2
v 9 59 -2
v -7 63 1
v 7 63 1
v -7 63 -1
v 7 63 -1
v -1 1 -1
v 1 1 -1
v -1 1 -2
v 1 1 -2
v -3 2 -1
v -1 2 -1
v 1 2 -1
v 3 2 -1
v -3 2 -2
v -1 2 -2
v 1 2 -2
v 3 2 -2
v -5 3 -1
v -3 3 -1
v 3 3 -1
v 5 3 -1
v -5 3 -2
v -3 3 -2
v 3 3 -2
v 5 3 -2
v -6 4 -1
v -5 4 -1
v 5 4 -1
v 6 4 -1
v -6 4 -2
v -5 4 -2
v 5 4 -2
v 6 4 -2
v -7 6 -1
v -6 6 -1
v 6 6 -1
v 7 6 -1
v -7 6 -2
v -6 6 -2
v 6 6 -2
v 7 6 -2
v -8 10 -1
v -7 10 -1
v 7 10 -1
v 8 10 -1
v -8 10 -2
v -7 10 -2
v 7 10 -2
v 8 10 -2
v -3 17 1
v -2 17 1
v 2 17 1
v 3 17 1
v -8 17 -0
v -3 17 -0
v 3 17 -0
v 8 17 -0
v -8 17 -1
v -7 17 -1
v -2 17 -1
v -1 17 -1
v 1 17 -1
v 2 17 -1
v 7 17 -1
v 8 17 -1
v -7 17 -2
v -2 17 -2
v -1 17 -2
v 1 17 -2
v 2 17 -2
v 7 17 -2
v -2 17 -3
v 2 17 -3
v -2 58 3
v 2 58 3
v -5 58 2
v -2 58 2
v 2 58 2
v 5 58 2
v -5 58 -2
v -2 58 -2
v 2 58 -2
v 5 58 -2
v -2 58 -3
v 2 58 -3
v -6 59 2
v -5 59 2
v 5 59 2
v 6 59 2
v -6 59 -2
v -5 59 -2
v 5 59 -2
v 6 59 -2
v -7 60 2
v -6 60 2
v 6 60 2
v 7 60 2
v -7 60 -2
v -6 60 -2
v 6 60 -2
v 7 60 -2
v -7 66 1
v 7 66 1
v -7 66 -1
v 7 66 -1
v -9 67 2
v -7 67 2
v 7 67 2
v 9 67 2
v -9 67 -2
v -7 67 -2
v 7 67 -2
v 9 67 -2

# faces
f 3/2/1 2/2/1 1/2/1
f 4/2/1 2/2/1 3/2/1
f 8/2/1 6/2/1 5/2/1
f 9/2/1 6/2/1 8/2/1
f 10/2/1 8/2/1 7/2/1
f 11/2/1 8/2/1 10/2/1
f 14/2/1 13/2/1 12/2/1
f 15/2/1 13/2/1 14/2/1
f 19/2/1 17/2/1 16/2/1
f 20/2/1 17/2/1 19/2/1
f 21/2/1 19/2/1 18/2/1
f 22/2/1 19/2/1 21/2/1
f 25/2/1 24/2/1 23/2/1
f 26/2/1 24/2/1 25/2/1
f 29/2/1 28/2/1 27/2/1
f 30/2/1 28/2/1 29/2/1
f 34/2/1 32/2/1 31/2/1
f 35/2/1 32/2/1 34/2/1
f 36/2/1 34/2/1 33/2/1
f 37/2/1 34/2/1 36/2/1
f 40/2/1 39/2/1 38/2/1
f 41/2/1 39/2/1 40/2/1
f 45/2/1 43/2/1 42/2/1
f 46/2/1 43/2/1 45/2/1
f 47/2/1 45/2/1 44/2/1
f 48/2/1 45/2/1 47/2/1
f 52/2/1 50/2/1 49/2/1
f 53/2/1 50/2/1 52/2/1
f 54/2/1 52/2/1 51/2/1
f 55/2/1 52/2/1 54/2/1
f 58/2/1 57/2/1 56/2/1
f 59/2/1 57/2/1 58/2/1
f 62/2/1 61/2/1 60/2/1
f 63/2/1 61/2/1 62/2/1
f 66/2/1 65/2/1 64/2/1
f 67/2/1 65/2/1 66/2/1
f 72/2/1 69/2/1 68/2/1
f 73/2/1 69/2/1 72/2/1
f 75/1/1 71/1/1 70/1/1
f 76/1/1 71/1/1 75/1/1
f 79/2/1 75/2/1 74/2/1
f 80/2/1 75/2/1 79/2/1
f 81/2/1 77/2/1 76/2/1
f 82/2/1 77/2/1 81/2/1
f 84/2/1 79/2/1 78/2/1
f 85/2/1 79/2/1 84/2/1
f 86/2/1 83/2/1 82/2/1
f 87/2/1 83/2/1 86/2/1
f 91/2/1 89/2/1 88/2/1
f 92/2/1 89/2/1 91/2/1
f 93/2/1 91/2/1 90/2/1
f 94/2/1 91/2/1 93/2/1
f 97/2/1 96/2/1 95/2/1
f 98/2/1 96/2/1 97/2/1
f 101/2/1 100/2/1 99/2/1
f 102/2/1 100/2/1 101/2/1
f 106/1/1 102/1/1 101/1/1
f 107/1/1 102/1/1 106/1/1
f 108/1/1 104/1/1 103/1/1
f 109/1/1 104/1/1 108/1/1
f 111/2/1 106/2/1 105/2/1
f 112/2/1 106/2/1 111/2/1
f 113/2/1 110/2/1 109/2/1
f 114/2/1 110/2/1 113/2/1
f 117/2/1 116/2/1 115/2/1
f 118/2/1 116/2/1 117/2/1
f 121/2/1 120/2/1 119/2/1
f 122/2/1 120/2/1 121/2/1
f 125/2/1 124/2/1 123/2/1
f 126/2/1 124/2/1 125/2/1
f 129/2/1 128/2/1 127/2/1
f 130/2/1 128/2/1 129/2/1
f 133/2/1 132/2/1 131/2/1
f 134/2/1 132/2/1 133/2/1
f 137/2/1 136/2/1 135/2/1
f 138/2/1 136/2/1 137/2/1
f 141/2/1 140/2/1 139/2/1
f 142/2/1 140/2/1 141/2/1
f 145/2/1 144/2/1 143/2/1
f 146/2/1 144/2/1 145/2/1
f 147/2/1 145/2/1 143/2/1
f 148/2/1 144/2/1 146/2/1
f 149/2/1 147/2/1 143/2/1
f 149/2/1 148/2/1 147/2/1
f 150/2/1 144/2/1 148/2/1
f 150/2/1 148/2/1 149/2/1
f 151/2/2 152/2/2 153/2/2
f 153/2/2 152/2/2 154/2/2
f 155/2/2 156/2/2 157/2/2
f 157/2/2 156/2/2 158/2/2
f 155/2/2 157/2/2 159/2/2
f 158/2/2 156/2/2 160/2/2
f 155/2/2 159/2/2 161/2/2
f 159/2/2 160/2/2 161/2/2
f 160/2/2 156/2/2 162/2/2
f 161/2/2 160/2/2 162/2/2
f 163/2/2 164/2/2 165/2/2
f 165/2/2 164/2/2 166/2/2
f 167/2/2 168/2/2 169/2/2
f 169/2/2 168/2/2 170/2/2
f 171/2/2 172/2/2 173/2/2
f 173/2/2 172/2/2 174/2/2
f 175/2/2 176/2/2 177/2/2
f 177/2/2 176/2/2 178/2/2
f 179/2/2 180/2/2 181/2/2
f 181/2/2 180/2/2 182/2/2
f 183/2/2 184/2/2 185/2/2
f 185/2/2 184/2/2 186/2/2
f 187/2/2 188/2/2 190/2/2
f 190/2/2 188/2/2 191/2/2
f 189/2/2 190/2/2 192/2/2
f 192/2/2 190/2/2 193/2/2
f 194/2/2 195/2/2 196/2/2
f 196/2/2 195/2/2 197/2/2
f 198/2/2 199/2/2 200/2/2
f 200/2/2 199/2/2 201/2/2
f 200/1/2 201/1/2 205/1/2
f 205/1/2 201/1/2 206/1/2
f 202/1/2 203/1/2 207/1/2
f 207/1/2 203/1/2 208/1/2
f 204/2/2 205/2/2 210/2/2
f 210/2/2 205/2/2 211/2/2
f 208/2/2 209/2/2 212/2/2
f 212/2/2 209/2/2 213/2/2
f 214/2/2 215/2/2 216/2/2
f 216/2/2 215/2/2 217/2/2
f 218/2/2 219/2/2 222/2/2
f 222/2/2 219/2/2 223/2/2
f 220/1/2 221/1/2 225/1/2
f 225/1/2 221/1/2 226/1/2
f 224/2/2 225/2/2 229/2/2
f 229/2/2 225/2/2 230/2/2
f 226/2/2 227/2/2 231/2/2
f 231/2/2 227/2/2 232/2/2
f 228/2/2 229/2/2 234/2/2
f 234/2/2 229/2/2 235/2/2
f 232/2/2 233/2/2 236/2/2
f 236/2/2 233/2/2 237/2/2
f 238/2/2 239/2/2 241/2/2
f 241/2/2 239/2/2 242/2/2
f 240/2/2 241/2/2 243/2/2
f 243/2/2 241/2/2 244/2/2
f 245/2/2 246/2/2 247/2/2
f 247/2/2 246/2/2 248/2/2
f 249/2/2 250/2/2 251/2/2
f 251/2/2 250/2/2 252/2/2
f 253/2/2 254/2/2 256/2/2
f 256/2/2 254/2/2 257/2/2
f 255/2/2 256/2/2 258/2/2
f 258/2/2 256/2/2 259/2/2
f 260/2/2 261/2/2 263/2/2
f 263/2/2 261/2/2 264/2/2
f 262/2/2 263/2/2 265/2/2
f 265/2/2 263/2/2 266/2/2
f 267/2/2 268/2/2 269/2/2
f 269/2/2 268/2/2 270/2/2
f 271/2/2 272/2/2 274/2/2
f 274/2/2 272/2/2 275/2/2
f 273/2/2 274/2/2 276/2/2
f 276/2/2 274/2/2 277/2/2
f 278/2/2 279/2/2 280/2/2
f 280/2/2 279/2/2 281/2/2
f 282/2/2 283/2/2 284/2/2
f 284/2/2 283/2/2 285/2/2
f 286/2/2 287/2/2 289/2/2
f 289/2/2 287/2/2 290/2/2
f 288/2/2 289/2/2 291/2/2
f 291/2/2 289/2/2 292/2/2
f 293/2/2 294/2/2 295/2/2
f 295/2/2 294/2/2 296/2/2
f 297/2/2 298/2/2 299/2/2
f 299/2/2 298/2/2 300/2/2
f 304/2/3 302/2/3 301/2/3
f 305/2/3 304/2/3 303/2/3
f 306/2/3 302/2/3 304/2/3
f 306/2/3 304/2/3 305/2/3
f 307/2/3 302/2/3 306/2/3
f 308/2/3 302/2/3 307/2/3
f 312/2/3 310/2/3 309/2/3
f 314/2/3 312/2/3 311/2/3
f 315/2/3 310/2/3 312/2/3
f 315/2/3 312/2/3 314/2/3
f 316/2/3 310/2/3 315/2/3
f 318/2/3 314/2/3 313/2/3
f 318/2/3 315/2/3 314/2/3
f 319/2/3 315/2/3 318/2/3
f 320/2/3 315/2/3 319/2/3
f 321/2/3 318/2/3 317/2/3
f 321/2/3 319/2/3 318/2/3
f 322/2/3 319/2/3 321/2/3
f 324/2/3 321/2/3 317/2/3
f 325/2/3 321/2/3 324/2/3
f 328/2/3 324/2/3 323/2/3
f 329/2/3 324/2/3 328/2/3
f 330/2/3 327/2/3 326/2/3
f 331/1/3 328/1/3 327/1/3
f 331/2/3 327/2/3 330/2/3
f 332/1/3 328/1/3 331/1/3
f 334/2/3 333/2/3 332/2/3
f 335/2/3 333/2/3 334/2/3
f 337/2/3 336/2/3 335/2/3
f 339/2/3 337/2/3 335/2/3
f 339/2/3 338/2/3 337/2/3
f 340/2/3 338/2/3 339/2/3
f 341/2/3 338/2/3 340/2/3
f 343/2/3 341/2/3 340/2/3
f 343/2/3 342/2/3 341/2/3
f 344/2/3 342/2/3 343/2/3
f 345/2/3 342/2/3 344/2/3
f 347/2/3 345/2/3 344/2/3
f 347/2/3 346/2/3 345/2/3
f 348/2/3 346/2/3 347/2/3
f 349/2/3 346/2/3 348/2/3
f 350/2/3 346/2/3 349/2/3
f 358/2/3 354/2/3 353/2/3
f 359/2/3 354/2/3 358/2/3
f 360/2/3 356/2/3 355/2/3
f 361/2/3 356/2/3 360/2/3
f 363/2/3 359/2/3 358/2/3
f 363/2/3 358/2/3 357/2/3
f 364/2/3 359/2/3 363/2/3
f 365/1/3 360/1/3 359/1/3
f 365/2/3 359/2/3 364/2/3
f 366/1/3 360/1/3 365/1/3
f 367/2/3 364/2/3 363/2/3
f 367/2/3 363/2/3 362/2/3
f 368/2/3 364/2/3 367/2/3
f 369/2/3 364/2/3 368/2/3
f 372/2/3 369/2/3 368/2/3
f 372/2/3 370/2/3 369/2/3
f 373/2/3 370/2/3 372/2/3
f 374/1/3 371/1/3 370/1/3
f 374/2/3 370/2/3 373/2/3
f 375/1/3 371/1/3 374/1/3
f 377/2/3 374/2/3 373/2/3
f 378/2/3 374/2/3 377/2/3
f 379/2/3 376/2/3 375/2/3
f 380/2/3 376/2/3 379/2/3
f 381/2/3 352/2/3 351/2/3
f 382/2/3 352/2/3 381/2/3
f 386/2/3 384/2/3 383/2/3
f 388/2/3 386/2/3 385/2/3
f 390/2/3 388/2/3 387/2/3
f 392/2/3 390/2/3 389/2/3
f 393/2/3 384/2/3 386/2/3
f 393/2/3 386/2/3 388/2/3
f 393/2/3 390/2/3 392/2/3
f 393/2/3 388/2/3 390/2/3
f 394/2/3 384/2/3 393/2/3
f 395/2/3 392/2/3 391/2/3
f 395/2/3 393/2/3 392/2/3
f 396/2/3 393/2/3 395/2/3
f 398/2/3 395/2/3 391/2/3
f 399/2/3 395/2/3 398/2/3
f 400/2/3 395/2/3 399/2/3
f 401/2/3 398/2/3 397/2/3
f 401/2/3 399/2/3 398/2/3
f 402/2/3 399/2/3 401/2/3
f 403/2/3 399/2/3 402/2/3
f 405/2/3 404/2/3 403/2/3
f 405/2/3 403/2/3 402/2/3
f 407/2/3 405/2/3 402/2/3
f 407/2/3 406/2/3 405/2/3
f 408/2/3 406/2/3 407/2/3
f 409/2/3 406/2/3 408/2/3
f 411/2/3 409/2/3 408/2/3
f 411/2/3 410/2/3 409/2/3
f 412/2/3 410/2/3 411/2/3
f 413/2/3 410/2/3 412/2/3
f 414/2/3 410/2/3 413/2/3
f 415/2/3 410/2/3 414/2/3
f 416/2/3 410/2/3 415/2/3
f 417/2/3 410/2/3 416/2/3
f 418/2/3 410/2/3 417/2/3
f 422/2/3 420/2/3 419/2/3
f 423/2/3 420/2/3 422/2/3
f 425/2/3 422/2/3 421/2/3
f 426/2/3 422/2/3 425/2/3
f 428/2/3 425/2/3 424/2/3
f 429/2/3 425/2/3 428/2/3
f 431/2/3 428/2/3 427/2/3
f 432/2/3 428/2/3 431/2/3
f 434/2/3 431/2/3 430/2/3
f 435/2/3 431/2/3 434/2/3
f 436/2/3 434/2/3 433/2/3
f 437/2/3 434/2/3 436/2/3
f 439/2/3 438/2/3 437/2/3
f 440/2/3 438/2/3 439/2/3
f 442/2/3 441/2/3 440/2/3
f 443/2/3 441/2/3 442/2/3
f 445/2/3 444/2/3 443/2/3
f 446/2/3 444/2/3 445/2/3
f 448/2/3 447/2/3 446/2/3
f 449/2/3 447/2/3 448/2/3
f 451/2/3 450/2/3 449/2/3
f 452/2/3 450/2/3 451/2/3
f 453/2/4 454/2/4 456/2/4
f 456/2/4 454/2/4 457/2/4
f 457/2/4 454/2/4 458/2/4
f 455/2/4 456/2/4 462/2/4
f 456/2/4 457/2/4 462/2/4
f 461/2/4 462/2/4 464/2/4
f 463/2/4 464/2/4 466/2/4
f 467/2/4 468/2/4 470/2/4
f 470/2/4 468/2/4 471/2/4
f 465/2/4 466/2/4 473/2/4
f 469/1/4 470/1/4 474/1/4
f 474/1/4 470/1/4 475/1/4
f 472/2/4 473/2/4 476/2/4
f 473/2/4 466/2/4 477/2/4
f 476/2/4 473/2/4 477/2/4
f 478/1/4 479/1/4 480/1/4
f 480/1/4 479/1/4 481/1/4
f 477/2/4 466/2/4 483/2/4
f 466/2/4 464/2/4 484/2/4
f 483/2/4 466/2/4 484/2/4
f 481/2/4 482/2/4 485/2/4
f 485/2/4 482/2/4 486/2/4
f 484/2/4 464/2/4 487/2/4
f 464/2/4 462/2/4 488/2/4
f 487/2/4 464/2/4 488/2/4
f 488/2/4 462/2/4 489/2/4
f 462/2/4 457/2/4 490/2/4
f 489/2/4 462/2/4 490/2/4
f 490/2/4 457/2/4 491/2/4
f 491/2/4 457/2/4 492/2/4
f 492/2/4 457/2/4 493/2/4
f 459/2/4 460/2/4 495/2/4
f 495/2/4 460/2/4 496/2/4
f 493/2/4 494/2/4 497/2/4
f 492/2/4 493/2/4 497/2/4
f 497/2/4 494/2/4 498/2/4
f 499/2/4 500/2/4 504/2/4
f 501/2/4 502/2/4 506/2/4
f 506/2/4 502/2/4 507/2/4
f 503/2/4 504/2/4 511/2/4
f 504/2/4 500/2/4 512/2/4
f 511/2/4 504/2/4 512/2/4
f 512/2/4 500/2/4 513/2/4
f 505/2/4 506/2/4 515/2/4
f 515/2/4 506/2/4 516/2/4
f 510/2/4 511/2/4 518/2/4
f 511/2/4 512/2/4 518/2/4
f 518/2/4 512/2/4 519/2/4
f 519/2/4 512/2/4 520/2/4
f 514/2/4 515/2/4 522/2/4
f 522/2/4 515/2/4 523/2/4
f 518/2/4 519/2/4 524/2/4
f 517/2/4 518/2/4 524/2/4
f 524/2/4 519/2/4 525/2/4
f 521/2/4 522/2/4 527/2/4
f 527/2/4 522/2/4 528/2/4
f 508/2/4 509/2/4 529/2/4
f 529/2/4 509/2/4 530/2/4
f 517/2/4 524/2/4 532/2/4
f 532/2/4 524/2/4 533/2/4
f 526/2/4 527/2/4 535/2/4
f 535/2/4 527/2/4 536/2/4
f 531/2/4 532/2/4 538/2/4
f 538/2/4 532/2/4 539/2/4
f 534/2/4 535/2/4 540/2/4
f 540/2/4 535/2/4 541/2/4
f 537/1/4 538/1/4 543/1/4
f 543/1/4 538/1/4 544/1/4
f 544/2/4 545/2/4 548/2/4
f 548/2/4 545/2/4 549/2/4
f 541/2/4 542/2/4 551/2/4
f 551/2/4 542/2/4 552/2/4
f 552/2/4 553/2/4 554/2/4
f 554/2/4 553/2/4 555/2/4
f 549/2/4 550/2/4 557/2/4
f 555/2/4 556/2/4 559/2/4
f 559/2/4 556/2/4 560/2/4
f 557/2/4 558/2/4 562/2/4
f 549/2/4 557/2/4 562/2/4
f 562/2/4 558/2/4 563/2/4
f 563/2/4 558/2/4 564/2/4
f 560/2/4 561/2/4 566/2/4
f 566/2/4 561/2/4 567/2/4
f 546/2/4 547/2/4 569/2/4
f 569/2/4 547/2/4 570/2/4
f 564/2/4 565/2/4 571/2/4
f 563/2/4 564/2/4 571/2/4
f 571/2/4 565/2/4 572/2/4
f 572/2/4 565/2/4 573/2/4
f 567/2/4 568/2/4 575/2/4
f 575/2/4 568/2/4 576/2/4
f 573/2/4 574/2/4 577/2/4
f 572/2/4 573/2/4 577/2/4
f 577/2/4 574/2/4 578/2/4
f 578/2/4 574/2/4 579/2/4
f 579/2/4 574/2/4 580/2/4
f 583/2/4 584/2/4 586/2/4
f 585/2/4 586/2/4 587/2/4
f 586/2/4 584/2/4 588/2/4
f 587/2/4 586/2/4 588/2/4
f 581/2/4 582/2/4 589/2/4
f 589/2/4 582/2/4 590/2/4
f 588/2/4 584/2/4 591/2/4
f 591/2/4 584/2/4 592/2/4
f 595/2/5 594/2/5 593/2/5
f 596/2/5 594/2/5 595/2/5
f 600/2/5 598/2/5 597/2/5
f 601/2/5 598/2/5 600/2/5
f 603/2/5 600/2/5 599/2/5
f 604/2/5 600/2/5 603/2/5
f 605/2/5 602/2/5 601/2/5
f 606/2/5 602/2/5 605/2/5
f 612/2/5 608/2/5 607/2/5
f 613/2/5 608/2/5 612/2/5
f 614/2/5 610/2/5 609/2/5
f 615/2/5 610/2/5 614/2/5
f 617/2/5 612/2/5 611/2/5
f 618/2/5 612/2/5 617/2/5
f 619/2/5 616/2/5 615/2/5
f 620/2/5 616/2/5 619/2/5
f 626/2/5 622/2/5 621/2/5
f 627/2/5 622/2/5 626/2/5
f 628/2/5 624/2/5 623/2/5
f 629/2/5 624/2/5 628/2/5
f 631/2/5 626/2/5 625/2/5
f 632/2/5 626/2/5 631/2/5
f 633/2/5 630/2/5 629/2/5
f 634/2/5 630/2/5 633/2/5
f 640/2/5 636/2/5 635/2/5
f 641/2/5 636/2/5 640/2/5
f 642/2/5 638/2/5 637/2/5
f 643/2/5 638/2/5 642/2/5
f 645/2/5 640/2/5 639/2/5
f 646/2/5 640/2/5 645/2/5
f 647/2/5 644/2/5 643/2/5
f 648/2/5 644/2/5 647/2/5
f 654/2/5 650/2/5 649/2/5
f 655/2/5 650/2/5 654/2/5
f 656/2/5 652/2/5 651/2/5
f 657/2/5 652/2/5 656/2/5
f 659/2/5 654/2/5 653/2/5
f 660/2/5 654/2/5 659/2/5
f 661/2/5 658/2/5 657/2/5
f 662/2/5 658/2/5 661/2/5
f 667/2/5 664/2/5 663/2/5
f 668/2/5 664/2/5 667/2/5
f 669/2/5 666/2/5 665/2/5
f 670/2/5 666/2/5 669/2/5
f 673/2/5 672/2/5 671/2/5
f 674/2/5 672/2/5 673/2/5
f 679/2/5 676/2/5 675/2/5
f 680/2/5 676/2/5 679/2/5
f 681/2/5 678/2/5 677/2/5
f 682/2/5 678/2/5 681/2/5
f 685/2/5 684/2/5 683/2/5
f 686/2/5 684/2/5 685/2/5
f 691/2/5 688/2/5 687/2/5
f 692/2/5 688/2/5 691/2/5
f 693/2/5 690/2/5 689/2/5
f 694/2/5 690/2/5 693/2/5
f 697/2/5 696/2/5 695/2/5
f 698/2/5 696/2/5 697/2/5
f 699/2/5 696/2/5 698/2/5
f 700/2/5 696/2/5 699/2/5
f 701/2/5 699/2/5 698/2/5
f 702/2/5 699/2/5 701/2/5
f 706/2/5 704/2/5 703/2/5
f 707/2/5 704/2/5 706/2/5
f 710/2/5 706/2/5 705/2/5
f 711/2/5 706/2/5 710/2/5
f 712/2/5 708/2/5 707/2/5
f 713/2/5 708/2/5 712/2/5
f 715/2/5 710/2/5 709/2/5
f 716/2/5 710/2/5 715/2/5
f 719/2/5 714/2/5 713/2/5
f 720/2/5 714/2/5 719/2/5
f 721/2/5 717/2/5 716/2/5
f 722/2/5 717/2/5 721/2/5
f 723/2/5 719/2/5 718/2/5
f 724/2/5 719/2/5 723/2/5
f 725/2/5 723/2/5 722/2/5
f 726/2/5 723/2/5 725/2/5
f 732/2/5 728/2/5 727/2/5
f 733/2/5 728/2/5 732/2/5
f 734/2/5 730/2/5 729/2/5
f 735/2/5 730/2/5 734/2/5
f 737/2/5 732/2/5 731/2/5
f 738/2/5 732/2/5 737/2/5
f 739/2/5 736/2/5 735/2/5
f 740/2/5 736/2/5 739/2/5
f 741/2/5 737/2/5 731/2/5
f 744/2/5 736/2/5 740/2/5
f 745/2/5 742/2/5 741/2/5
f 745/2/5 741/2/5 731/2/5
f 746/2/5 742/2/5 745/2/5
f 749/2/5 744/2/5 743/2/5
f 750/2/5 736/2/5 744/2/5
f 750/2/5 744/2/5 749/2/5
f 751/2/5 747/2/5 746/2/5
f 752/2/5 747/2/5 751/2/5
f 753/2/5 749/2/5 748/2/5
f 754/2/5 749/2/5 753/2/5
f 759/2/5 756/2/5 755/2/5
f 760/2/5 756/2/5 759/2/5
f 761/2/5 758/2/5 757/2/5
f 762/2/5 758/2/5 761/2/5
f 767/2/5 764/2/5 763/2/5
f 768/2/5 764/2/5 767/2/5
f 769/2/5 766/2/5 765/2/5
f 770/2/5 766/2/5 769/2/5
f 775/2/5 772/2/5 771/2/5
f 776/2/5 772/2/5 775/2/5
f 777/2/5 774/2/5 773/2/5
f 778/2/5 774/2/5 777/2/5
f 781/2/5 780/2/5 779/2/5
f 782/2/5 780/2/5 781/2/5
f 783/2/6 784/2/6 785/2/6
f 785/2/6 784/2/6 786/2/6
f 787/2/6 788/2/6 791/2/6
f 791/2/6 788/2/6 792/2/6
f 789/2/6 790/2/6 793/2/6
f 793/2/6 790/2/6 794/2/6
f 795/2/6 796/2/6 799/2/6
f 799/2/6 796/2/6 800/2/6
f 797/2/6 798/2/6 801/2/6
f 801/2/6 798/2/6 802/2/6
f 803/2/6 804/2/6 807/2/6
f 807/2/6 804/2/6 808/2/6
f 805/2/6 806/2/6 809/2/6
f 809/2/6 806/2/6 810/2/6
f 811/2/6 812/2/6 815/2/6
f 815/2/6 812/2/6 816/2/6
f 813/2/6 814/2/6 817/2/6
f 817/2/6 814/2/6 818/2/6
f 819/2/6 820/2/6 823/2/6
f 823/2/6 820/2/6 824/2/6
f 821/2/6 822/2/6 825/2/6
f 825/2/6 822/2/6 826/2/6
f 827/2/6 828/2/6 832/2/6
f 829/2/6 830/2/6 833/2/6
f 831/2/6 832/2/6 835/2/6
f 835/2/6 832/2/6 836/2/6
f 832/2/6 828/2/6 837/2/6
f 836/2/6 832/2/6 837/2/6
f 833/2/6 834/2/6 840/2/6
f 829/2/6 833/2/6 840/2/6
f 840/2/6 834/2/6 841/2/6
f 841/2/6 834/2/6 842/2/6
f 837/2/6 838/2/6 843/2/6
f 836/2/6 837/2/6 843/2/6
f 843/2/6 838/2/6 844/2/6
f 844/2/6 838/2/6 845/2/6
f 840/2/6 841/2/6 846/2/6
f 839/2/6 840/2/6 846/2/6
f 846/2/6 841/2/6 847/2/6
f 847/2/6 841/2/6 848/2/6
f 844/2/6 845/2/6 849/2/6
f 846/2/6 847/2/6 849/2/6
f 845/2/6 846/2/6 849/2/6
f 849/2/6 847/2/6 850/2/6
f 851/2/6 852/2/6 854/2/6
f 854/2/6 852/2/6 855/2/6
f 853/2/6 854/2/6 857/2/6
f 855/2/6 856/2/6 857/2/6
f 854/2/6 855/2/6 857/2/6
f 857/2/6 856/2/6 858/2/6
f 858/2/6 856/2/6 859/2/6
f 859/2/6 856/2/6 860/2/6
f 858/2/6 859/2/6 861/2/6
f 861/2/6 859/2/6 862/2/6
f 863/2/6 864/2/6 867/2/6
f 867/2/6 864/2/6 868/2/6
f 865/2/6 866/2/6 869/2/6
f 869/2/6 866/2/6 870/2/6
f 871/2/6 872/2/6 875/2/6
f 875/2/6 872/2/6 876/2/6
f 873/2/6 874/2/6 877/2/6
f 877/2/6 874/2/6 878/2/6
f 879/2/6 880/2/6 881/2/6
f 881/2/6 880/2/6 882/2/6
f 883/2/6 884/2/6 887/2/6
f 887/2/6 884/2/6 888/2/6
f 885/2/6 886/2/6 889/2/6
f 889/2/6 886/2/6 890/2/6
