# MagicaVoxel @ Ephtracy

# group
g TerrainPieces-7

# material
mtllib TerrainPieces-7.mtl
usemtl palette

# normals
vn -1 0 0
vn 1 0 0
vn 0 0 1
vn 0 0 -1
vn 0 -1 0
vn 0 1 0

# texcoords
vt 0.595703 0.5

# verts
v -50 0 50
v -50 0 -29
v -50 1 50
v -50 1 -29
v -46 0 -29
v -46 0 -30
v -46 1 -29
v -46 1 -30
v -38 0 -29
v -38 0 -30
v -38 1 -29
v -38 1 -30
v -33 0 -28
v -33 0 -29
v -33 1 -28
v -33 1 -29
v -31 0 -27
v -31 0 -28
v -31 1 -27
v -31 1 -28
v -28 0 -26
v -28 0 -27
v -28 1 -26
v -28 1 -27
v -26 0 -25
v -26 0 -26
v -26 1 -25
v -26 1 -26
v -24 0 -24
v -24 0 -25
v -24 1 -24
v -24 1 -25
v -22 0 -23
v -22 0 -24
v -22 1 -23
v -22 1 -24
v -20 0 -22
v -20 0 -23
v -20 1 -22
v -20 1 -23
v -19 0 -21
v -19 0 -22
v -19 1 -21
v -19 1 -22
v -17 0 -20
v -17 0 -21
v -17 1 -20
v -17 1 -21
v -15 0 -19
v -15 0 -20
v -15 1 -19
v -15 1 -20
v -14 0 -18
v -14 0 -19
v -14 1 -18
v -14 1 -19
v -13 0 -17
v -13 0 -18
v -13 1 -17
v -13 1 -18
v -12 0 -16
v -12 0 -17
v -12 1 -16
v -12 1 -17
v -11 0 -15
v -11 0 -16
v -11 1 -15
v -11 1 -16
v -10 0 -13
v -10 0 -15
v -10 1 -13
v -10 1 -15
v -9 0 -12
v -9 0 -13
v -9 1 -12
v -9 1 -13
v -8 0 -10
v -8 0 -12
v -8 1 -10
v -8 1 -12
v -7 0 -8
v -7 0 -10
v -7 1 -8
v -7 1 -10
v -6 0 -6
v -6 0 -8
v -6 1 -6
v -6 1 -8
v -5 0 -4
v -5 0 -6
v -5 1 -4
v -5 1 -6
v -4 0 -2
v -4 0 -4
v -4 1 -2
v -4 1 -4
v -3 0 1
v -3 0 -2
v -3 1 1
v -3 1 -2
v -2 0 3
v -2 0 1
v -2 1 3
v -2 1 1
v -1 0 6
v -1 0 3
v -1 1 6
v -1 1 3
v 0 0 9
v 0 0 6
v 0 1 9
v 0 1 6
v 1 0 11
v 1 0 9
v 1 1 11
v 1 1 9
v 2 0 13
v 2 0 11
v 2 1 13
v 2 1 11
v 3 0 15
v 3 0 13
v 3 1 15
v 3 1 13
v 4 0 18
v 4 0 15
v 4 1 18
v 4 1 15
v 5 0 50
v 5 0 45
v 5 0 19
v 5 0 18
v 5 1 50
v 5 1 45
v 5 1 19
v 5 1 18
v 6 0 45
v 6 0 43
v 6 0 21
v 6 0 19
v 6 1 45
v 6 1 43
v 6 1 21
v 6 1 19
v 7 0 43
v 7 0 42
v 7 0 22
v 7 0 21
v 7 1 43
v 7 1 42
v 7 1 22
v 7 1 21
v 8 0 24
v 8 0 22
v 8 1 24
v 8 1 22
v 9 0 25
v 9 0 24
v 9 1 25
v 9 1 24
v 10 0 42
v 10 0 41
v 10 0 26
v 10 0 25
v 10 1 42
v 10 1 41
v 10 1 26
v 10 1 25
v 11 0 41
v 11 0 40
v 11 0 27
v 11 0 26
v 11 1 41
v 11 1 40
v 11 1 27
v 11 1 26
v 12 0 40
v 12 0 38
v 12 0 28
v 12 0 27
v 12 1 40
v 12 1 38
v 12 1 28
v 12 1 27
v 13 0 38
v 13 0 37
v 13 0 30
v 13 0 28
v 13 1 38
v 13 1 37
v 13 1 30
v 13 1 28
v 14 0 37
v 14 0 35
v 14 0 33
v 14 0 30
v 14 1 37
v 14 1 35
v 14 1 33
v 14 1 30
v 15 0 35
v 15 0 33
v 15 1 35
v 15 1 33
v -50 0 50
v -50 1 50
v 5 0 50
v 5 1 50
v 5 0 45
v 5 1 45
v 6 0 45
v 6 1 45
v 6 0 43
v 6 1 43
v 7 0 43
v 7 1 43
v 7 0 42
v 7 1 42
v 10 0 42
v 10 1 42
v 10 0 41
v 10 1 41
v 11 0 41
v 11 1 41
v 11 0 40
v 11 1 40
v 12 0 40
v 12 1 40
v 12 0 38
v 12 1 38
v 13 0 38
v 13 1 38
v 13 0 37
v 13 1 37
v 14 0 37
v 14 1 37
v 14 0 35
v 14 1 35
v 15 0 35
v 15 1 35
v 14 0 33
v 14 1 33
v 15 0 33
v 15 1 33
v 13 0 30
v 13 1 30
v 14 0 30
v 14 1 30
v 12 0 28
v 12 1 28
v 13 0 28
v 13 1 28
v 11 0 27
v 11 1 27
v 12 0 27
v 12 1 27
v 10 0 26
v 10 1 26
v 11 0 26
v 11 1 26
v 9 0 25
v 9 1 25
v 10 0 25
v 10 1 25
v 8 0 24
v 8 1 24
v 9 0 24
v 9 1 24
v 7 0 22
v 7 1 22
v 8 0 22
v 8 1 22
v 6 0 21
v 6 1 21
v 7 0 21
v 7 1 21
v 5 0 19
v 5 1 19
v 6 0 19
v 6 1 19
v 4 0 18
v 4 1 18
v 5 0 18
v 5 1 18
v 3 0 15
v 3 1 15
v 4 0 15
v 4 1 15
v 2 0 13
v 2 1 13
v 3 0 13
v 3 1 13
v 1 0 11
v 1 1 11
v 2 0 11
v 2 1 11
v 0 0 9
v 0 1 9
v 1 0 9
v 1 1 9
v -1 0 6
v -1 1 6
v 0 0 6
v 0 1 6
v -2 0 3
v -2 1 3
v -1 0 3
v -1 1 3
v -3 0 1
v -3 1 1
v -2 0 1
v -2 1 1
v -4 0 -2
v -4 1 -2
v -3 0 -2
v -3 1 -2
v -5 0 -4
v -5 1 -4
v -4 0 -4
v -4 1 -4
v -6 0 -6
v -6 1 -6
v -5 0 -6
v -5 1 -6
v -7 0 -8
v -7 1 -8
v -6 0 -8
v -6 1 -8
v -8 0 -10
v -8 1 -10
v -7 0 -10
v -7 1 -10
v -9 0 -12
v -9 1 -12
v -8 0 -12
v -8 1 -12
v -10 0 -13
v -10 1 -13
v -9 0 -13
v -9 1 -13
v -11 0 -15
v -11 1 -15
v -10 0 -15
v -10 1 -15
v -12 0 -16
v -12 1 -16
v -11 0 -16
v -11 1 -16
v -13 0 -17
v -13 1 -17
v -12 0 -17
v -12 1 -17
v -14 0 -18
v -14 1 -18
v -13 0 -18
v -13 1 -18
v -15 0 -19
v -15 1 -19
v -14 0 -19
v -14 1 -19
v -17 0 -20
v -17 1 -20
v -15 0 -20
v -15 1 -20
v -19 0 -21
v -19 1 -21
v -17 0 -21
v -17 1 -21
v -20 0 -22
v -20 1 -22
v -19 0 -22
v -19 1 -22
v -22 0 -23
v -22 1 -23
v -20 0 -23
v -20 1 -23
v -24 0 -24
v -24 1 -24
v -22 0 -24
v -22 1 -24
v -26 0 -25
v -26 1 -25
v -24 0 -25
v -24 1 -25
v -28 0 -26
v -28 1 -26
v -26 0 -26
v -26 1 -26
v -31 0 -27
v -31 1 -27
v -28 0 -27
v -28 1 -27
v -33 0 -28
v -33 1 -28
v -31 0 -28
v -31 1 -28
v -50 0 -29
v -50 1 -29
v -46 0 -29
v -46 1 -29
v -38 0 -29
v -38 1 -29
v -33 0 -29
v -33 1 -29
v -46 0 -30
v -46 1 -30
v -38 0 -30
v -38 1 -30
v -50 0 50
v 5 0 50
v 5 0 45
v 6 0 45
v 6 0 43
v 7 0 43
v 7 0 42
v 10 0 42
v 10 0 41
v 11 0 41
v 11 0 40
v 12 0 40
v 12 0 38
v 13 0 38
v 13 0 37
v 14 0 37
v 14 0 35
v 15 0 35
v 14 0 33
v 15 0 33
v 13 0 30
v 14 0 30
v 12 0 28
v 13 0 28
v 11 0 27
v 12 0 27
v 10 0 26
v 11 0 26
v 9 0 25
v 10 0 25
v 8 0 24
v 9 0 24
v 7 0 22
v 8 0 22
v 6 0 21
v 7 0 21
v 5 0 19
v 6 0 19
v 4 0 18
v 5 0 18
v 3 0 15
v 4 0 15
v 2 0 13
v 3 0 13
v 1 0 11
v 2 0 11
v 0 0 9
v 1 0 9
v -1 0 6
v 0 0 6
v -2 0 3
v -1 0 3
v -3 0 1
v -2 0 1
v -4 0 -2
v -3 0 -2
v -5 0 -4
v -4 0 -4
v -6 0 -6
v -5 0 -6
v -7 0 -8
v -6 0 -8
v -8 0 -10
v -7 0 -10
v -9 0 -12
v -8 0 -12
v -10 0 -13
v -9 0 -13
v -11 0 -15
v -10 0 -15
v -12 0 -16
v -11 0 -16
v -13 0 -17
v -12 0 -17
v -14 0 -18
v -13 0 -18
v -15 0 -19
v -14 0 -19
v -17 0 -20
v -15 0 -20
v -19 0 -21
v -17 0 -21
v -20 0 -22
v -19 0 -22
v -22 0 -23
v -20 0 -23
v -24 0 -24
v -22 0 -24
v -26 0 -25
v -24 0 -25
v -28 0 -26
v -26 0 -26
v -31 0 -27
v -28 0 -27
v -33 0 -28
v -31 0 -28
v -50 0 -29
v -46 0 -29
v -38 0 -29
v -33 0 -29
v -46 0 -30
v -38 0 -30
v -50 1 50
v 5 1 50
v 5 1 45
v 6 1 45
v 6 1 43
v 7 1 43
v 7 1 42
v 10 1 42
v 10 1 41
v 11 1 41
v 11 1 40
v 12 1 40
v 12 1 38
v 13 1 38
v 13 1 37
v 14 1 37
v 14 1 35
v 15 1 35
v 14 1 33
v 15 1 33
v 13 1 30
v 14 1 30
v 12 1 28
v 13 1 28
v 11 1 27
v 12 1 27
v 10 1 26
v 11 1 26
v 9 1 25
v 10 1 25
v 8 1 24
v 9 1 24
v 7 1 22
v 8 1 22
v 6 1 21
v 7 1 21
v 5 1 19
v 6 1 19
v 4 1 18
v 5 1 18
v 3 1 15
v 4 1 15
v 2 1 13
v 3 1 13
v 1 1 11
v 2 1 11
v 0 1 9
v 1 1 9
v -1 1 6
v 0 1 6
v -2 1 3
v -1 1 3
v -3 1 1
v -2 1 1
v -4 1 -2
v -3 1 -2
v -5 1 -4
v -4 1 -4
v -6 1 -6
v -5 1 -6
v -7 1 -8
v -6 1 -8
v -8 1 -10
v -7 1 -10
v -9 1 -12
v -8 1 -12
v -10 1 -13
v -9 1 -13
v -11 1 -15
v -10 1 -15
v -12 1 -16
v -11 1 -16
v -13 1 -17
v -12 1 -17
v -14 1 -18
v -13 1 -18
v -15 1 -19
v -14 1 -19
v -17 1 -20
v -15 1 -20
v -19 1 -21
v -17 1 -21
v -20 1 -22
v -19 1 -22
v -22 1 -23
v -20 1 -23
v -24 1 -24
v -22 1 -24
v -26 1 -25
v -24 1 -25
v -28 1 -26
v -26 1 -26
v -31 1 -27
v -28 1 -27
v -33 1 -28
v -31 1 -28
v -50 1 -29
v -46 1 -29
v -38 1 -29
v -33 1 -29
v -46 1 -30
v -38 1 -30

# faces
f 3/1/1 2/1/1 1/1/1
f 4/1/1 2/1/1 3/1/1
f 7/1/1 6/1/1 5/1/1
f 8/1/1 6/1/1 7/1/1
f 9/1/2 10/1/2 11/1/2
f 11/1/2 10/1/2 12/1/2
f 13/1/2 14/1/2 15/1/2
f 15/1/2 14/1/2 16/1/2
f 17/1/2 18/1/2 19/1/2
f 19/1/2 18/1/2 20/1/2
f 21/1/2 22/1/2 23/1/2
f 23/1/2 22/1/2 24/1/2
f 25/1/2 26/1/2 27/1/2
f 27/1/2 26/1/2 28/1/2
f 29/1/2 30/1/2 31/1/2
f 31/1/2 30/1/2 32/1/2
f 33/1/2 34/1/2 35/1/2
f 35/1/2 34/1/2 36/1/2
f 37/1/2 38/1/2 39/1/2
f 39/1/2 38/1/2 40/1/2
f 41/1/2 42/1/2 43/1/2
f 43/1/2 42/1/2 44/1/2
f 45/1/2 46/1/2 47/1/2
f 47/1/2 46/1/2 48/1/2
f 49/1/2 50/1/2 51/1/2
f 51/1/2 50/1/2 52/1/2
f 53/1/2 54/1/2 55/1/2
f 55/1/2 54/1/2 56/1/2
f 57/1/2 58/1/2 59/1/2
f 59/1/2 58/1/2 60/1/2
f 61/1/2 62/1/2 63/1/2
f 63/1/2 62/1/2 64/1/2
f 65/1/2 66/1/2 67/1/2
f 67/1/2 66/1/2 68/1/2
f 69/1/2 70/1/2 71/1/2
f 71/1/2 70/1/2 72/1/2
f 73/1/2 74/1/2 75/1/2
f 75/1/2 74/1/2 76/1/2
f 77/1/2 78/1/2 79/1/2
f 79/1/2 78/1/2 80/1/2
f 81/1/2 82/1/2 83/1/2
f 83/1/2 82/1/2 84/1/2
f 85/1/2 86/1/2 87/1/2
f 87/1/2 86/1/2 88/1/2
f 89/1/2 90/1/2 91/1/2
f 91/1/2 90/1/2 92/1/2
f 93/1/2 94/1/2 95/1/2
f 95/1/2 94/1/2 96/1/2
f 97/1/2 98/1/2 99/1/2
f 99/1/2 98/1/2 100/1/2
f 101/1/2 102/1/2 103/1/2
f 103/1/2 102/1/2 104/1/2
f 105/1/2 106/1/2 107/1/2
f 107/1/2 106/1/2 108/1/2
f 109/1/2 110/1/2 111/1/2
f 111/1/2 110/1/2 112/1/2
f 113/1/2 114/1/2 115/1/2
f 115/1/2 114/1/2 116/1/2
f 117/1/2 118/1/2 119/1/2
f 119/1/2 118/1/2 120/1/2
f 121/1/2 122/1/2 123/1/2
f 123/1/2 122/1/2 124/1/2
f 125/1/2 126/1/2 127/1/2
f 127/1/2 126/1/2 128/1/2
f 129/1/2 130/1/2 133/1/2
f 133/1/2 130/1/2 134/1/2
f 131/1/2 132/1/2 135/1/2
f 135/1/2 132/1/2 136/1/2
f 137/1/2 138/1/2 141/1/2
f 141/1/2 138/1/2 142/1/2
f 139/1/2 140/1/2 143/1/2
f 143/1/2 140/1/2 144/1/2
f 145/1/2 146/1/2 149/1/2
f 149/1/2 146/1/2 150/1/2
f 147/1/2 148/1/2 151/1/2
f 151/1/2 148/1/2 152/1/2
f 153/1/2 154/1/2 155/1/2
f 155/1/2 154/1/2 156/1/2
f 157/1/2 158/1/2 159/1/2
f 159/1/2 158/1/2 160/1/2
f 161/1/2 162/1/2 165/1/2
f 165/1/2 162/1/2 166/1/2
f 163/1/2 164/1/2 167/1/2
f 167/1/2 164/1/2 168/1/2
f 169/1/2 170/1/2 173/1/2
f 173/1/2 170/1/2 174/1/2
f 171/1/2 172/1/2 175/1/2
f 175/1/2 172/1/2 176/1/2
f 177/1/2 178/1/2 181/1/2
f 181/1/2 178/1/2 182/1/2
f 179/1/2 180/1/2 183/1/2
f 183/1/2 180/1/2 184/1/2
f 185/1/2 186/1/2 189/1/2
f 189/1/2 186/1/2 190/1/2
f 187/1/2 188/1/2 191/1/2
f 191/1/2 188/1/2 192/1/2
f 193/1/2 194/1/2 197/1/2
f 197/1/2 194/1/2 198/1/2
f 195/1/2 196/1/2 199/1/2
f 199/1/2 196/1/2 200/1/2
f 201/1/2 202/1/2 203/1/2
f 203/1/2 202/1/2 204/1/2
f 207/1/3 206/1/3 205/1/3
f 208/1/3 206/1/3 207/1/3
f 211/1/3 210/1/3 209/1/3
f 212/1/3 210/1/3 211/1/3
f 215/1/3 214/1/3 213/1/3
f 216/1/3 214/1/3 215/1/3
f 219/1/3 218/1/3 217/1/3
f 220/1/3 218/1/3 219/1/3
f 223/1/3 222/1/3 221/1/3
f 224/1/3 222/1/3 223/1/3
f 227/1/3 226/1/3 225/1/3
f 228/1/3 226/1/3 227/1/3
f 231/1/3 230/1/3 229/1/3
f 232/1/3 230/1/3 231/1/3
f 235/1/3 234/1/3 233/1/3
f 236/1/3 234/1/3 235/1/3
f 239/1/3 238/1/3 237/1/3
f 240/1/3 238/1/3 239/1/3
f 241/1/4 242/1/4 243/1/4
f 243/1/4 242/1/4 244/1/4
f 245/1/4 246/1/4 247/1/4
f 247/1/4 246/1/4 248/1/4
f 249/1/4 250/1/4 251/1/4
f 251/1/4 250/1/4 252/1/4
f 253/1/4 254/1/4 255/1/4
f 255/1/4 254/1/4 256/1/4
f 257/1/4 258/1/4 259/1/4
f 259/1/4 258/1/4 260/1/4
f 261/1/4 262/1/4 263/1/4
f 263/1/4 262/1/4 264/1/4
f 265/1/4 266/1/4 267/1/4
f 267/1/4 266/1/4 268/1/4
f 269/1/4 270/1/4 271/1/4
f 271/1/4 270/1/4 272/1/4
f 273/1/4 274/1/4 275/1/4
f 275/1/4 274/1/4 276/1/4
f 277/1/4 278/1/4 279/1/4
f 279/1/4 278/1/4 280/1/4
f 281/1/4 282/1/4 283/1/4
f 283/1/4 282/1/4 284/1/4
f 285/1/4 286/1/4 287/1/4
f 287/1/4 286/1/4 288/1/4
f 289/1/4 290/1/4 291/1/4
f 291/1/4 290/1/4 292/1/4
f 293/1/4 294/1/4 295/1/4
f 295/1/4 294/1/4 296/1/4
f 297/1/4 298/1/4 299/1/4
f 299/1/4 298/1/4 300/1/4
f 301/1/4 302/1/4 303/1/4
f 303/1/4 302/1/4 304/1/4
f 305/1/4 306/1/4 307/1/4
f 307/1/4 306/1/4 308/1/4
f 309/1/4 310/1/4 311/1/4
f 311/1/4 310/1/4 312/1/4
f 313/1/4 314/1/4 315/1/4
f 315/1/4 314/1/4 316/1/4
f 317/1/4 318/1/4 319/1/4
f 319/1/4 318/1/4 320/1/4
f 321/1/4 322/1/4 323/1/4
f 323/1/4 322/1/4 324/1/4
f 325/1/4 326/1/4 327/1/4
f 327/1/4 326/1/4 328/1/4
f 329/1/4 330/1/4 331/1/4
f 331/1/4 330/1/4 332/1/4
f 333/1/4 334/1/4 335/1/4
f 335/1/4 334/1/4 336/1/4
f 337/1/4 338/1/4 339/1/4
f 339/1/4 338/1/4 340/1/4
f 341/1/4 342/1/4 343/1/4
f 343/1/4 342/1/4 344/1/4
f 345/1/4 346/1/4 347/1/4
f 347/1/4 346/1/4 348/1/4
f 349/1/4 350/1/4 351/1/4
f 351/1/4 350/1/4 352/1/4
f 353/1/4 354/1/4 355/1/4
f 355/1/4 354/1/4 356/1/4
f 357/1/4 358/1/4 359/1/4
f 359/1/4 358/1/4 360/1/4
f 361/1/4 362/1/4 363/1/4
f 363/1/4 362/1/4 364/1/4
f 365/1/4 366/1/4 367/1/4
f 367/1/4 366/1/4 368/1/4
f 369/1/4 370/1/4 371/1/4
f 371/1/4 370/1/4 372/1/4
f 373/1/4 374/1/4 375/1/4
f 375/1/4 374/1/4 376/1/4
f 377/1/4 378/1/4 379/1/4
f 379/1/4 378/1/4 380/1/4
f 381/1/4 382/1/4 383/1/4
f 383/1/4 382/1/4 384/1/4
f 385/1/4 386/1/4 387/1/4
f 387/1/4 386/1/4 388/1/4
f 389/1/4 390/1/4 391/1/4
f 391/1/4 390/1/4 392/1/4
f 393/1/4 394/1/4 395/1/4
f 395/1/4 394/1/4 396/1/4
f 397/1/4 398/1/4 399/1/4
f 399/1/4 398/1/4 400/1/4
f 401/1/4 402/1/4 403/1/4
f 403/1/4 402/1/4 404/1/4
f 405/1/4 406/1/4 407/1/4
f 407/1/4 406/1/4 408/1/4
f 411/1/5 410/1/5 409/1/5
f 413/1/5 412/1/5 411/1/5
f 415/1/5 414/1/5 413/1/5
f 417/1/5 416/1/5 415/1/5
f 419/1/5 418/1/5 417/1/5
f 421/1/5 420/1/5 419/1/5
f 423/1/5 422/1/5 421/1/5
f 425/1/5 424/1/5 423/1/5
f 427/1/5 425/1/5 423/1/5
f 427/1/5 426/1/5 425/1/5
f 428/1/5 426/1/5 427/1/5
f 429/1/5 423/1/5 421/1/5
f 429/1/5 427/1/5 423/1/5
f 430/1/5 427/1/5 429/1/5
f 431/1/5 421/1/5 419/1/5
f 431/1/5 429/1/5 421/1/5
f 432/1/5 429/1/5 431/1/5
f 433/1/5 419/1/5 417/1/5
f 433/1/5 431/1/5 419/1/5
f 434/1/5 431/1/5 433/1/5
f 435/1/5 417/1/5 415/1/5
f 435/1/5 433/1/5 417/1/5
f 436/1/5 433/1/5 435/1/5
f 437/1/5 435/1/5 415/1/5
f 438/1/5 435/1/5 437/1/5
f 439/1/5 437/1/5 415/1/5
f 440/1/5 437/1/5 439/1/5
f 441/1/5 415/1/5 413/1/5
f 441/1/5 439/1/5 415/1/5
f 442/1/5 439/1/5 441/1/5
f 443/1/5 413/1/5 411/1/5
f 443/1/5 441/1/5 413/1/5
f 444/1/5 441/1/5 443/1/5
f 445/1/5 411/1/5 409/1/5
f 445/1/5 443/1/5 411/1/5
f 446/1/5 443/1/5 445/1/5
f 447/1/5 445/1/5 409/1/5
f 448/1/5 445/1/5 447/1/5
f 449/1/5 447/1/5 409/1/5
f 450/1/5 447/1/5 449/1/5
f 451/1/5 449/1/5 409/1/5
f 452/1/5 449/1/5 451/1/5
f 453/1/5 451/1/5 409/1/5
f 454/1/5 451/1/5 453/1/5
f 455/1/5 453/1/5 409/1/5
f 456/1/5 453/1/5 455/1/5
f 457/1/5 455/1/5 409/1/5
f 458/1/5 455/1/5 457/1/5
f 459/1/5 457/1/5 409/1/5
f 460/1/5 457/1/5 459/1/5
f 461/1/5 459/1/5 409/1/5
f 462/1/5 459/1/5 461/1/5
f 463/1/5 461/1/5 409/1/5
f 464/1/5 461/1/5 463/1/5
f 465/1/5 463/1/5 409/1/5
f 466/1/5 463/1/5 465/1/5
f 467/1/5 465/1/5 409/1/5
f 468/1/5 465/1/5 467/1/5
f 469/1/5 467/1/5 409/1/5
f 470/1/5 467/1/5 469/1/5
f 471/1/5 469/1/5 409/1/5
f 472/1/5 469/1/5 471/1/5
f 473/1/5 471/1/5 409/1/5
f 474/1/5 471/1/5 473/1/5
f 475/1/5 473/1/5 409/1/5
f 476/1/5 473/1/5 475/1/5
f 477/1/5 475/1/5 409/1/5
f 478/1/5 475/1/5 477/1/5
f 479/1/5 477/1/5 409/1/5
f 480/1/5 477/1/5 479/1/5
f 481/1/5 479/1/5 409/1/5
f 482/1/5 479/1/5 481/1/5
f 483/1/5 481/1/5 409/1/5
f 484/1/5 481/1/5 483/1/5
f 485/1/5 483/1/5 409/1/5
f 486/1/5 483/1/5 485/1/5
f 487/1/5 485/1/5 409/1/5
f 488/1/5 485/1/5 487/1/5
f 489/1/5 487/1/5 409/1/5
f 490/1/5 487/1/5 489/1/5
f 491/1/5 489/1/5 409/1/5
f 492/1/5 489/1/5 491/1/5
f 493/1/5 491/1/5 409/1/5
f 494/1/5 491/1/5 493/1/5
f 495/1/5 493/1/5 409/1/5
f 496/1/5 493/1/5 495/1/5
f 497/1/5 495/1/5 409/1/5
f 498/1/5 495/1/5 497/1/5
f 499/1/5 497/1/5 409/1/5
f 500/1/5 497/1/5 499/1/5
f 501/1/5 499/1/5 409/1/5
f 502/1/5 499/1/5 501/1/5
f 503/1/5 501/1/5 409/1/5
f 504/1/5 501/1/5 503/1/5
f 505/1/5 503/1/5 409/1/5
f 506/1/5 503/1/5 505/1/5
f 507/1/5 503/1/5 506/1/5
f 508/1/5 503/1/5 507/1/5
f 509/1/5 507/1/5 506/1/5
f 510/1/5 507/1/5 509/1/5
f 511/1/6 512/1/6 513/1/6
f 513/1/6 514/1/6 515/1/6
f 515/1/6 516/1/6 517/1/6
f 517/1/6 518/1/6 519/1/6
f 519/1/6 520/1/6 521/1/6
f 521/1/6 522/1/6 523/1/6
f 523/1/6 524/1/6 525/1/6
f 525/1/6 526/1/6 527/1/6
f 525/1/6 527/1/6 529/1/6
f 527/1/6 528/1/6 529/1/6
f 529/1/6 528/1/6 530/1/6
f 523/1/6 525/1/6 531/1/6
f 525/1/6 529/1/6 531/1/6
f 531/1/6 529/1/6 532/1/6
f 521/1/6 523/1/6 533/1/6
f 523/1/6 531/1/6 533/1/6
f 533/1/6 531/1/6 534/1/6
f 519/1/6 521/1/6 535/1/6
f 521/1/6 533/1/6 535/1/6
f 535/1/6 533/1/6 536/1/6
f 517/1/6 519/1/6 537/1/6
f 519/1/6 535/1/6 537/1/6
f 537/1/6 535/1/6 538/1/6
f 517/1/6 537/1/6 539/1/6
f 539/1/6 537/1/6 540/1/6
f 517/1/6 539/1/6 541/1/6
f 541/1/6 539/1/6 542/1/6
f 515/1/6 517/1/6 543/1/6
f 517/1/6 541/1/6 543/1/6
f 543/1/6 541/1/6 544/1/6
f 513/1/6 515/1/6 545/1/6
f 515/1/6 543/1/6 545/1/6
f 545/1/6 543/1/6 546/1/6
f 511/1/6 513/1/6 547/1/6
f 513/1/6 545/1/6 547/1/6
f 547/1/6 545/1/6 548/1/6
f 511/1/6 547/1/6 549/1/6
f 549/1/6 547/1/6 550/1/6
f 511/1/6 549/1/6 551/1/6
f 551/1/6 549/1/6 552/1/6
f 511/1/6 551/1/6 553/1/6
f 553/1/6 551/1/6 554/1/6
f 511/1/6 553/1/6 555/1/6
f 555/1/6 553/1/6 556/1/6
f 511/1/6 555/1/6 557/1/6
f 557/1/6 555/1/6 558/1/6
f 511/1/6 557/1/6 559/1/6
f 559/1/6 557/1/6 560/1/6
f 511/1/6 559/1/6 561/1/6
f 561/1/6 559/1/6 562/1/6
f 511/1/6 561/1/6 563/1/6
f 563/1/6 561/1/6 564/1/6
f 511/1/6 563/1/6 565/1/6
f 565/1/6 563/1/6 566/1/6
f 511/1/6 565/1/6 567/1/6
f 567/1/6 565/1/6 568/1/6
f 511/1/6 567/1/6 569/1/6
f 569/1/6 567/1/6 570/1/6
f 511/1/6 569/1/6 571/1/6
f 571/1/6 569/1/6 572/1/6
f 511/1/6 571/1/6 573/1/6
f 573/1/6 571/1/6 574/1/6
f 511/1/6 573/1/6 575/1/6
f 575/1/6 573/1/6 576/1/6
f 511/1/6 575/1/6 577/1/6
f 577/1/6 575/1/6 578/1/6
f 511/1/6 577/1/6 579/1/6
f 579/1/6 577/1/6 580/1/6
f 511/1/6 579/1/6 581/1/6
f 581/1/6 579/1/6 582/1/6
f 511/1/6 581/1/6 583/1/6
f 583/1/6 581/1/6 584/1/6
f 511/1/6 583/1/6 585/1/6
f 585/1/6 583/1/6 586/1/6
f 511/1/6 585/1/6 587/1/6
f 587/1/6 585/1/6 588/1/6
f 511/1/6 587/1/6 589/1/6
f 589/1/6 587/1/6 590/1/6
f 511/1/6 589/1/6 591/1/6
f 591/1/6 589/1/6 592/1/6
f 511/1/6 591/1/6 593/1/6
f 593/1/6 591/1/6 594/1/6
f 511/1/6 593/1/6 595/1/6
f 595/1/6 593/1/6 596/1/6
f 511/1/6 595/1/6 597/1/6
f 597/1/6 595/1/6 598/1/6
f 511/1/6 597/1/6 599/1/6
f 599/1/6 597/1/6 600/1/6
f 511/1/6 599/1/6 601/1/6
f 601/1/6 599/1/6 602/1/6
f 511/1/6 601/1/6 603/1/6
f 603/1/6 601/1/6 604/1/6
f 511/1/6 603/1/6 605/1/6
f 605/1/6 603/1/6 606/1/6
f 511/1/6 605/1/6 607/1/6
f 607/1/6 605/1/6 608/1/6
f 608/1/6 605/1/6 609/1/6
f 609/1/6 605/1/6 610/1/6
f 608/1/6 609/1/6 611/1/6
f 611/1/6 609/1/6 612/1/6
