# MagicaVoxel @ Ephtracy

# group
g TerrainPieces-4

# material
mtllib TerrainPieces-4.mtl
usemtl palette

# normals
vn -1 0 0
vn 1 0 0
vn 0 0 1
vn 0 0 -1
vn 0 -1 0
vn 0 1 0

# texcoords
vt 0.595703 0.5

# verts
v -50 0 50
v -50 0 -50
v -50 2 50
v -50 2 -50
v -30 0 50
v -30 0 49
v -30 2 50
v -30 2 49
v -29 0 49
v -29 0 48
v -29 2 49
v -29 2 48
v -28 0 48
v -28 0 47
v -28 2 48
v -28 2 47
v -27 0 47
v -27 0 46
v -27 2 47
v -27 2 46
v -26 0 46
v -26 0 44
v -26 2 46
v -26 2 44
v -25 0 44
v -25 0 43
v -25 2 44
v -25 2 43
v -24 0 43
v -24 0 41
v -24 2 43
v -24 2 41
v -23 0 41
v -23 0 40
v -23 2 41
v -23 2 40
v -22 0 40
v -22 0 38
v -22 2 40
v -22 2 38
v -21 0 38
v -21 0 36
v -21 2 38
v -21 2 36
v -20 0 36
v -20 0 35
v -20 2 36
v -20 2 35
v -18 0 35
v -18 0 34
v -18 2 35
v -18 2 34
v -17 0 34
v -17 0 33
v -17 2 34
v -17 2 33
v -16 0 33
v -16 0 32
v -16 2 33
v -16 2 32
v -15 0 32
v -15 0 31
v -15 2 32
v -15 2 31
v -13 0 31
v -13 0 30
v -13 2 31
v -13 2 30
v -12 0 30
v -12 0 29
v -12 2 30
v -12 2 29
v -11 0 29
v -11 0 28
v -11 2 29
v -11 2 28
v -10 0 28
v -10 0 27
v -10 2 28
v -10 2 27
v -8 0 27
v -8 0 26
v -8 2 27
v -8 2 26
v -7 0 26
v -7 0 25
v -7 2 26
v -7 2 25
v -5 0 25
v -5 0 24
v -5 2 25
v -5 2 24
v -3 0 24
v -3 0 23
v -3 2 24
v -3 2 23
v -1 0 23
v -1 0 22
v -1 2 23
v -1 2 22
v 3 0 22
v 3 0 21
v 3 2 22
v 3 2 21
v 8 0 21
v 8 0 20
v 8 2 21
v 8 2 20
v 11 0 20
v 11 0 19
v 11 2 20
v 11 2 19
v 13 0 19
v 13 0 18
v 13 2 19
v 13 2 18
v 15 0 18
v 15 0 17
v 15 2 18
v 15 2 17
v 16 0 17
v 16 0 16
v 16 2 17
v 16 2 16
v 17 0 16
v 17 0 15
v 17 2 16
v 17 2 15
v 18 0 15
v 18 0 14
v 18 2 15
v 18 2 14
v 19 0 14
v 19 0 13
v 19 2 14
v 19 2 13
v 20 0 13
v 20 0 11
v 20 2 13
v 20 2 11
v 21 0 11
v 21 0 10
v 21 2 11
v 21 2 10
v 22 0 10
v 22 0 9
v 22 2 10
v 22 2 9
v 23 0 9
v 23 0 8
v 23 2 9
v 23 2 8
v 24 0 8
v 24 0 6
v 24 2 8
v 24 2 6
v 25 0 6
v 25 0 5
v 25 2 6
v 25 2 5
v 26 0 5
v 26 0 3
v 26 2 5
v 26 2 3
v 27 0 3
v 27 0 1
v 27 2 3
v 27 2 1
v 28 0 1
v 28 0 -1
v 28 2 1
v 28 2 -1
v 29 0 -1
v 29 0 -3
v 29 2 -1
v 29 2 -3
v 30 0 -3
v 30 0 -5
v 30 2 -3
v 30 2 -5
v 31 0 -5
v 31 0 -8
v 31 2 -5
v 31 2 -8
v 32 0 -8
v 32 0 -12
v 32 2 -8
v 32 2 -12
v 33 0 -12
v 33 0 -15
v 33 2 -12
v 33 2 -15
v 34 0 -15
v 34 0 -19
v 34 2 -15
v 34 2 -19
v 35 0 -19
v 35 0 -23
v 35 2 -19
v 35 2 -23
v 36 0 -23
v 36 0 -26
v 36 2 -23
v 36 2 -26
v 37 0 -26
v 37 0 -30
v 37 2 -26
v 37 2 -30
v 38 0 -30
v 38 0 -33
v 38 2 -30
v 38 2 -33
v 39 0 -33
v 39 0 -36
v 39 2 -33
v 39 2 -36
v 40 0 -36
v 40 0 -38
v 40 2 -36
v 40 2 -38
v 41 0 -38
v 41 0 -40
v 41 2 -38
v 41 2 -40
v 42 0 -40
v 42 0 -43
v 42 2 -40
v 42 2 -43
v 43 0 -43
v 43 0 -45
v 43 2 -43
v 43 2 -45
v 44 0 -45
v 44 0 -50
v 44 2 -45
v 44 2 -50
v -50 0 50
v -50 2 50
v -30 0 50
v -30 2 50
v -30 0 49
v -30 2 49
v -29 0 49
v -29 2 49
v -29 0 48
v -29 2 48
v -28 0 48
v -28 2 48
v -28 0 47
v -28 2 47
v -27 0 47
v -27 2 47
v -27 0 46
v -27 2 46
v -26 0 46
v -26 2 46
v -26 0 44
v -26 2 44
v -25 0 44
v -25 2 44
v -25 0 43
v -25 2 43
v -24 0 43
v -24 2 43
v -24 0 41
v -24 2 41
v -23 0 41
v -23 2 41
v -23 0 40
v -23 2 40
v -22 0 40
v -22 2 40
v -22 0 38
v -22 2 38
v -21 0 38
v -21 2 38
v -21 0 36
v -21 2 36
v -20 0 36
v -20 2 36
v -20 0 35
v -20 2 35
v -18 0 35
v -18 2 35
v -18 0 34
v -18 2 34
v -17 0 34
v -17 2 34
v -17 0 33
v -17 2 33
v -16 0 33
v -16 2 33
v -16 0 32
v -16 2 32
v -15 0 32
v -15 2 32
v -15 0 31
v -15 2 31
v -13 0 31
v -13 2 31
v -13 0 30
v -13 2 30
v -12 0 30
v -12 2 30
v -12 0 29
v -12 2 29
v -11 0 29
v -11 2 29
v -11 0 28
v -11 2 28
v -10 0 28
v -10 2 28
v -10 0 27
v -10 2 27
v -8 0 27
v -8 2 27
v -8 0 26
v -8 2 26
v -7 0 26
v -7 2 26
v -7 0 25
v -7 2 25
v -5 0 25
v -5 2 25
v -5 0 24
v -5 2 24
v -3 0 24
v -3 2 24
v -3 0 23
v -3 2 23
v -1 0 23
v -1 2 23
v -1 0 22
v -1 2 22
v 3 0 22
v 3 2 22
v 3 0 21
v 3 2 21
v 8 0 21
v 8 2 21
v 8 0 20
v 8 2 20
v 11 0 20
v 11 2 20
v 11 0 19
v 11 2 19
v 13 0 19
v 13 2 19
v 13 0 18
v 13 2 18
v 15 0 18
v 15 2 18
v 15 0 17
v 15 2 17
v 16 0 17
v 16 2 17
v 16 0 16
v 16 2 16
v 17 0 16
v 17 2 16
v 17 0 15
v 17 2 15
v 18 0 15
v 18 2 15
v 18 0 14
v 18 2 14
v 19 0 14
v 19 2 14
v 19 0 13
v 19 2 13
v 20 0 13
v 20 2 13
v 20 0 11
v 20 2 11
v 21 0 11
v 21 2 11
v 21 0 10
v 21 2 10
v 22 0 10
v 22 2 10
v 22 0 9
v 22 2 9
v 23 0 9
v 23 2 9
v 23 0 8
v 23 2 8
v 24 0 8
v 24 2 8
v 24 0 6
v 24 2 6
v 25 0 6
v 25 2 6
v 25 0 5
v 25 2 5
v 26 0 5
v 26 2 5
v 26 0 3
v 26 2 3
v 27 0 3
v 27 2 3
v 27 0 1
v 27 2 1
v 28 0 1
v 28 2 1
v 28 0 -1
v 28 2 -1
v 29 0 -1
v 29 2 -1
v 29 0 -3
v 29 2 -3
v 30 0 -3
v 30 2 -3
v 30 0 -5
v 30 2 -5
v 31 0 -5
v 31 2 -5
v 31 0 -8
v 31 2 -8
v 32 0 -8
v 32 2 -8
v 32 0 -12
v 32 2 -12
v 33 0 -12
v 33 2 -12
v 33 0 -15
v 33 2 -15
v 34 0 -15
v 34 2 -15
v 34 0 -19
v 34 2 -19
v 35 0 -19
v 35 2 -19
v 35 0 -23
v 35 2 -23
v 36 0 -23
v 36 2 -23
v 36 0 -26
v 36 2 -26
v 37 0 -26
v 37 2 -26
v 37 0 -30
v 37 2 -30
v 38 0 -30
v 38 2 -30
v 38 0 -33
v 38 2 -33
v 39 0 -33
v 39 2 -33
v 39 0 -36
v 39 2 -36
v 40 0 -36
v 40 2 -36
v 40 0 -38
v 40 2 -38
v 41 0 -38
v 41 2 -38
v 41 0 -40
v 41 2 -40
v 42 0 -40
v 42 2 -40
v 42 0 -43
v 42 2 -43
v 43 0 -43
v 43 2 -43
v 43 0 -45
v 43 2 -45
v 44 0 -45
v 44 2 -45
v -50 0 -50
v -50 2 -50
v 44 0 -50
v 44 2 -50
v -50 0 50
v -30 0 50
v -30 0 49
v -29 0 49
v -29 0 48
v -28 0 48
v -28 0 47
v -27 0 47
v -27 0 46
v -26 0 46
v -26 0 44
v -25 0 44
v -25 0 43
v -24 0 43
v -24 0 41
v -23 0 41
v -23 0 40
v -22 0 40
v -22 0 38
v -21 0 38
v -21 0 36
v -20 0 36
v -20 0 35
v -18 0 35
v -18 0 34
v -17 0 34
v -17 0 33
v -16 0 33
v -16 0 32
v -15 0 32
v -15 0 31
v -13 0 31
v -13 0 30
v -12 0 30
v -12 0 29
v -11 0 29
v -11 0 28
v -10 0 28
v -10 0 27
v -8 0 27
v -8 0 26
v -7 0 26
v -7 0 25
v -5 0 25
v -5 0 24
v -3 0 24
v -3 0 23
v -1 0 23
v -1 0 22
v 3 0 22
v 3 0 21
v 8 0 21
v 8 0 20
v 11 0 20
v 11 0 19
v 13 0 19
v 13 0 18
v 15 0 18
v 15 0 17
v 16 0 17
v 16 0 16
v 17 0 16
v 17 0 15
v 18 0 15
v 18 0 14
v 19 0 14
v 19 0 13
v 20 0 13
v 20 0 11
v 21 0 11
v 21 0 10
v 22 0 10
v 22 0 9
v 23 0 9
v 23 0 8
v 24 0 8
v 24 0 6
v 25 0 6
v 25 0 5
v 26 0 5
v 26 0 3
v 27 0 3
v 27 0 1
v 28 0 1
v 28 0 -1
v 29 0 -1
v 29 0 -3
v 30 0 -3
v 30 0 -5
v 31 0 -5
v 31 0 -8
v 32 0 -8
v 32 0 -12
v 33 0 -12
v 33 0 -15
v 34 0 -15
v 34 0 -19
v 35 0 -19
v 35 0 -23
v 36 0 -23
v 36 0 -26
v 37 0 -26
v 37 0 -30
v 38 0 -30
v 38 0 -33
v 39 0 -33
v 39 0 -36
v 40 0 -36
v 40 0 -38
v 41 0 -38
v 41 0 -40
v 42 0 -40
v 42 0 -43
v 43 0 -43
v 43 0 -45
v 44 0 -45
v -50 0 -50
v 44 0 -50
v -50 2 50
v -30 2 50
v -30 2 49
v -29 2 49
v -29 2 48
v -28 2 48
v -28 2 47
v -27 2 47
v -27 2 46
v -26 2 46
v -26 2 44
v -25 2 44
v -25 2 43
v -24 2 43
v -24 2 41
v -23 2 41
v -23 2 40
v -22 2 40
v -22 2 38
v -21 2 38
v -21 2 36
v -20 2 36
v -20 2 35
v -18 2 35
v -18 2 34
v -17 2 34
v -17 2 33
v -16 2 33
v -16 2 32
v -15 2 32
v -15 2 31
v -13 2 31
v -13 2 30
v -12 2 30
v -12 2 29
v -11 2 29
v -11 2 28
v -10 2 28
v -10 2 27
v -8 2 27
v -8 2 26
v -7 2 26
v -7 2 25
v -5 2 25
v -5 2 24
v -3 2 24
v -3 2 23
v -1 2 23
v -1 2 22
v 3 2 22
v 3 2 21
v 8 2 21
v 8 2 20
v 11 2 20
v 11 2 19
v 13 2 19
v 13 2 18
v 15 2 18
v 15 2 17
v 16 2 17
v 16 2 16
v 17 2 16
v 17 2 15
v 18 2 15
v 18 2 14
v 19 2 14
v 19 2 13
v 20 2 13
v 20 2 11
v 21 2 11
v 21 2 10
v 22 2 10
v 22 2 9
v 23 2 9
v 23 2 8
v 24 2 8
v 24 2 6
v 25 2 6
v 25 2 5
v 26 2 5
v 26 2 3
v 27 2 3
v 27 2 1
v 28 2 1
v 28 2 -1
v 29 2 -1
v 29 2 -3
v 30 2 -3
v 30 2 -5
v 31 2 -5
v 31 2 -8
v 32 2 -8
v 32 2 -12
v 33 2 -12
v 33 2 -15
v 34 2 -15
v 34 2 -19
v 35 2 -19
v 35 2 -23
v 36 2 -23
v 36 2 -26
v 37 2 -26
v 37 2 -30
v 38 2 -30
v 38 2 -33
v 39 2 -33
v 39 2 -36
v 40 2 -36
v 40 2 -38
v 41 2 -38
v 41 2 -40
v 42 2 -40
v 42 2 -43
v 43 2 -43
v 43 2 -45
v 44 2 -45
v -50 2 -50
v 44 2 -50

# faces
f 3/1/1 2/1/1 1/1/1
f 4/1/1 2/1/1 3/1/1
f 5/1/2 6/1/2 7/1/2
f 7/1/2 6/1/2 8/1/2
f 9/1/2 10/1/2 11/1/2
f 11/1/2 10/1/2 12/1/2
f 13/1/2 14/1/2 15/1/2
f 15/1/2 14/1/2 16/1/2
f 17/1/2 18/1/2 19/1/2
f 19/1/2 18/1/2 20/1/2
f 21/1/2 22/1/2 23/1/2
f 23/1/2 22/1/2 24/1/2
f 25/1/2 26/1/2 27/1/2
f 27/1/2 26/1/2 28/1/2
f 29/1/2 30/1/2 31/1/2
f 31/1/2 30/1/2 32/1/2
f 33/1/2 34/1/2 35/1/2
f 35/1/2 34/1/2 36/1/2
f 37/1/2 38/1/2 39/1/2
f 39/1/2 38/1/2 40/1/2
f 41/1/2 42/1/2 43/1/2
f 43/1/2 42/1/2 44/1/2
f 45/1/2 46/1/2 47/1/2
f 47/1/2 46/1/2 48/1/2
f 49/1/2 50/1/2 51/1/2
f 51/1/2 50/1/2 52/1/2
f 53/1/2 54/1/2 55/1/2
f 55/1/2 54/1/2 56/1/2
f 57/1/2 58/1/2 59/1/2
f 59/1/2 58/1/2 60/1/2
f 61/1/2 62/1/2 63/1/2
f 63/1/2 62/1/2 64/1/2
f 65/1/2 66/1/2 67/1/2
f 67/1/2 66/1/2 68/1/2
f 69/1/2 70/1/2 71/1/2
f 71/1/2 70/1/2 72/1/2
f 73/1/2 74/1/2 75/1/2
f 75/1/2 74/1/2 76/1/2
f 77/1/2 78/1/2 79/1/2
f 79/1/2 78/1/2 80/1/2
f 81/1/2 82/1/2 83/1/2
f 83/1/2 82/1/2 84/1/2
f 85/1/2 86/1/2 87/1/2
f 87/1/2 86/1/2 88/1/2
f 89/1/2 90/1/2 91/1/2
f 91/1/2 90/1/2 92/1/2
f 93/1/2 94/1/2 95/1/2
f 95/1/2 94/1/2 96/1/2
f 97/1/2 98/1/2 99/1/2
f 99/1/2 98/1/2 100/1/2
f 101/1/2 102/1/2 103/1/2
f 103/1/2 102/1/2 104/1/2
f 105/1/2 106/1/2 107/1/2
f 107/1/2 106/1/2 108/1/2
f 109/1/2 110/1/2 111/1/2
f 111/1/2 110/1/2 112/1/2
f 113/1/2 114/1/2 115/1/2
f 115/1/2 114/1/2 116/1/2
f 117/1/2 118/1/2 119/1/2
f 119/1/2 118/1/2 120/1/2
f 121/1/2 122/1/2 123/1/2
f 123/1/2 122/1/2 124/1/2
f 125/1/2 126/1/2 127/1/2
f 127/1/2 126/1/2 128/1/2
f 129/1/2 130/1/2 131/1/2
f 131/1/2 130/1/2 132/1/2
f 133/1/2 134/1/2 135/1/2
f 135/1/2 134/1/2 136/1/2
f 137/1/2 138/1/2 139/1/2
f 139/1/2 138/1/2 140/1/2
f 141/1/2 142/1/2 143/1/2
f 143/1/2 142/1/2 144/1/2
f 145/1/2 146/1/2 147/1/2
f 147/1/2 146/1/2 148/1/2
f 149/1/2 150/1/2 151/1/2
f 151/1/2 150/1/2 152/1/2
f 153/1/2 154/1/2 155/1/2
f 155/1/2 154/1/2 156/1/2
f 157/1/2 158/1/2 159/1/2
f 159/1/2 158/1/2 160/1/2
f 161/1/2 162/1/2 163/1/2
f 163/1/2 162/1/2 164/1/2
f 165/1/2 166/1/2 167/1/2
f 167/1/2 166/1/2 168/1/2
f 169/1/2 170/1/2 171/1/2
f 171/1/2 170/1/2 172/1/2
f 173/1/2 174/1/2 175/1/2
f 175/1/2 174/1/2 176/1/2
f 177/1/2 178/1/2 179/1/2
f 179/1/2 178/1/2 180/1/2
f 181/1/2 182/1/2 183/1/2
f 183/1/2 182/1/2 184/1/2
f 185/1/2 186/1/2 187/1/2
f 187/1/2 186/1/2 188/1/2
f 189/1/2 190/1/2 191/1/2
f 191/1/2 190/1/2 192/1/2
f 193/1/2 194/1/2 195/1/2
f 195/1/2 194/1/2 196/1/2
f 197/1/2 198/1/2 199/1/2
f 199/1/2 198/1/2 200/1/2
f 201/1/2 202/1/2 203/1/2
f 203/1/2 202/1/2 204/1/2
f 205/1/2 206/1/2 207/1/2
f 207/1/2 206/1/2 208/1/2
f 209/1/2 210/1/2 211/1/2
f 211/1/2 210/1/2 212/1/2
f 213/1/2 214/1/2 215/1/2
f 215/1/2 214/1/2 216/1/2
f 217/1/2 218/1/2 219/1/2
f 219/1/2 218/1/2 220/1/2
f 221/1/2 222/1/2 223/1/2
f 223/1/2 222/1/2 224/1/2
f 225/1/2 226/1/2 227/1/2
f 227/1/2 226/1/2 228/1/2
f 229/1/2 230/1/2 231/1/2
f 231/1/2 230/1/2 232/1/2
f 233/1/2 234/1/2 235/1/2
f 235/1/2 234/1/2 236/1/2
f 239/1/3 238/1/3 237/1/3
f 240/1/3 238/1/3 239/1/3
f 243/1/3 242/1/3 241/1/3
f 244/1/3 242/1/3 243/1/3
f 247/1/3 246/1/3 245/1/3
f 248/1/3 246/1/3 247/1/3
f 251/1/3 250/1/3 249/1/3
f 252/1/3 250/1/3 251/1/3
f 255/1/3 254/1/3 253/1/3
f 256/1/3 254/1/3 255/1/3
f 259/1/3 258/1/3 257/1/3
f 260/1/3 258/1/3 259/1/3
f 263/1/3 262/1/3 261/1/3
f 264/1/3 262/1/3 263/1/3
f 267/1/3 266/1/3 265/1/3
f 268/1/3 266/1/3 267/1/3
f 271/1/3 270/1/3 269/1/3
f 272/1/3 270/1/3 271/1/3
f 275/1/3 274/1/3 273/1/3
f 276/1/3 274/1/3 275/1/3
f 279/1/3 278/1/3 277/1/3
f 280/1/3 278/1/3 279/1/3
f 283/1/3 282/1/3 281/1/3
f 284/1/3 282/1/3 283/1/3
f 287/1/3 286/1/3 285/1/3
f 288/1/3 286/1/3 287/1/3
f 291/1/3 290/1/3 289/1/3
f 292/1/3 290/1/3 291/1/3
f 295/1/3 294/1/3 293/1/3
f 296/1/3 294/1/3 295/1/3
f 299/1/3 298/1/3 297/1/3
f 300/1/3 298/1/3 299/1/3
f 303/1/3 302/1/3 301/1/3
f 304/1/3 302/1/3 303/1/3
f 307/1/3 306/1/3 305/1/3
f 308/1/3 306/1/3 307/1/3
f 311/1/3 310/1/3 309/1/3
f 312/1/3 310/1/3 311/1/3
f 315/1/3 314/1/3 313/1/3
f 316/1/3 314/1/3 315/1/3
f 319/1/3 318/1/3 317/1/3
f 320/1/3 318/1/3 319/1/3
f 323/1/3 322/1/3 321/1/3
f 324/1/3 322/1/3 323/1/3
f 327/1/3 326/1/3 325/1/3
f 328/1/3 326/1/3 327/1/3
f 331/1/3 330/1/3 329/1/3
f 332/1/3 330/1/3 331/1/3
f 335/1/3 334/1/3 333/1/3
f 336/1/3 334/1/3 335/1/3
f 339/1/3 338/1/3 337/1/3
f 340/1/3 338/1/3 339/1/3
f 343/1/3 342/1/3 341/1/3
f 344/1/3 342/1/3 343/1/3
f 347/1/3 346/1/3 345/1/3
f 348/1/3 346/1/3 347/1/3
f 351/1/3 350/1/3 349/1/3
f 352/1/3 350/1/3 351/1/3
f 355/1/3 354/1/3 353/1/3
f 356/1/3 354/1/3 355/1/3
f 359/1/3 358/1/3 357/1/3
f 360/1/3 358/1/3 359/1/3
f 363/1/3 362/1/3 361/1/3
f 364/1/3 362/1/3 363/1/3
f 367/1/3 366/1/3 365/1/3
f 368/1/3 366/1/3 367/1/3
f 371/1/3 370/1/3 369/1/3
f 372/1/3 370/1/3 371/1/3
f 375/1/3 374/1/3 373/1/3
f 376/1/3 374/1/3 375/1/3
f 379/1/3 378/1/3 377/1/3
f 380/1/3 378/1/3 379/1/3
f 383/1/3 382/1/3 381/1/3
f 384/1/3 382/1/3 383/1/3
f 387/1/3 386/1/3 385/1/3
f 388/1/3 386/1/3 387/1/3
f 391/1/3 390/1/3 389/1/3
f 392/1/3 390/1/3 391/1/3
f 395/1/3 394/1/3 393/1/3
f 396/1/3 394/1/3 395/1/3
f 399/1/3 398/1/3 397/1/3
f 400/1/3 398/1/3 399/1/3
f 403/1/3 402/1/3 401/1/3
f 404/1/3 402/1/3 403/1/3
f 407/1/3 406/1/3 405/1/3
f 408/1/3 406/1/3 407/1/3
f 411/1/3 410/1/3 409/1/3
f 412/1/3 410/1/3 411/1/3
f 415/1/3 414/1/3 413/1/3
f 416/1/3 414/1/3 415/1/3
f 419/1/3 418/1/3 417/1/3
f 420/1/3 418/1/3 419/1/3
f 423/1/3 422/1/3 421/1/3
f 424/1/3 422/1/3 423/1/3
f 427/1/3 426/1/3 425/1/3
f 428/1/3 426/1/3 427/1/3
f 431/1/3 430/1/3 429/1/3
f 432/1/3 430/1/3 431/1/3
f 435/1/3 434/1/3 433/1/3
f 436/1/3 434/1/3 435/1/3
f 439/1/3 438/1/3 437/1/3
f 440/1/3 438/1/3 439/1/3
f 443/1/3 442/1/3 441/1/3
f 444/1/3 442/1/3 443/1/3
f 447/1/3 446/1/3 445/1/3
f 448/1/3 446/1/3 447/1/3
f 451/1/3 450/1/3 449/1/3
f 452/1/3 450/1/3 451/1/3
f 455/1/3 454/1/3 453/1/3
f 456/1/3 454/1/3 455/1/3
f 459/1/3 458/1/3 457/1/3
f 460/1/3 458/1/3 459/1/3
f 463/1/3 462/1/3 461/1/3
f 464/1/3 462/1/3 463/1/3
f 467/1/3 466/1/3 465/1/3
f 468/1/3 466/1/3 467/1/3
f 469/1/4 470/1/4 471/1/4
f 471/1/4 470/1/4 472/1/4
f 475/1/5 474/1/5 473/1/5
f 477/1/5 476/1/5 475/1/5
f 479/1/5 478/1/5 477/1/5
f 481/1/5 480/1/5 479/1/5
f 483/1/5 482/1/5 481/1/5
f 485/1/5 484/1/5 483/1/5
f 487/1/5 486/1/5 485/1/5
f 489/1/5 488/1/5 487/1/5
f 491/1/5 490/1/5 489/1/5
f 493/1/5 492/1/5 491/1/5
f 495/1/5 494/1/5 493/1/5
f 497/1/5 496/1/5 495/1/5
f 499/1/5 498/1/5 497/1/5
f 501/1/5 500/1/5 499/1/5
f 503/1/5 502/1/5 501/1/5
f 505/1/5 504/1/5 503/1/5
f 507/1/5 506/1/5 505/1/5
f 509/1/5 508/1/5 507/1/5
f 511/1/5 510/1/5 509/1/5
f 513/1/5 512/1/5 511/1/5
f 515/1/5 514/1/5 513/1/5
f 517/1/5 516/1/5 515/1/5
f 519/1/5 518/1/5 517/1/5
f 521/1/5 520/1/5 519/1/5
f 523/1/5 522/1/5 521/1/5
f 525/1/5 524/1/5 523/1/5
f 527/1/5 526/1/5 525/1/5
f 529/1/5 528/1/5 527/1/5
f 531/1/5 530/1/5 529/1/5
f 533/1/5 532/1/5 531/1/5
f 535/1/5 534/1/5 533/1/5
f 537/1/5 536/1/5 535/1/5
f 539/1/5 538/1/5 537/1/5
f 541/1/5 540/1/5 539/1/5
f 543/1/5 542/1/5 541/1/5
f 545/1/5 544/1/5 543/1/5
f 547/1/5 546/1/5 545/1/5
f 549/1/5 548/1/5 547/1/5
f 551/1/5 550/1/5 549/1/5
f 553/1/5 552/1/5 551/1/5
f 555/1/5 554/1/5 553/1/5
f 557/1/5 556/1/5 555/1/5
f 559/1/5 558/1/5 557/1/5
f 561/1/5 560/1/5 559/1/5
f 563/1/5 562/1/5 561/1/5
f 565/1/5 564/1/5 563/1/5
f 567/1/5 566/1/5 565/1/5
f 569/1/5 568/1/5 567/1/5
f 571/1/5 570/1/5 569/1/5
f 573/1/5 572/1/5 571/1/5
f 575/1/5 574/1/5 573/1/5
f 577/1/5 576/1/5 575/1/5
f 579/1/5 578/1/5 577/1/5
f 581/1/5 580/1/5 579/1/5
f 583/1/5 582/1/5 581/1/5
f 585/1/5 584/1/5 583/1/5
f 587/1/5 586/1/5 585/1/5
f 589/1/5 475/1/5 473/1/5
f 589/1/5 588/1/5 587/1/5
f 589/1/5 587/1/5 585/1/5
f 589/1/5 585/1/5 583/1/5
f 589/1/5 583/1/5 581/1/5
f 589/1/5 581/1/5 579/1/5
f 589/1/5 579/1/5 577/1/5
f 589/1/5 577/1/5 575/1/5
f 589/1/5 575/1/5 573/1/5
f 589/1/5 573/1/5 571/1/5
f 589/1/5 571/1/5 569/1/5
f 589/1/5 569/1/5 567/1/5
f 589/1/5 567/1/5 565/1/5
f 589/1/5 565/1/5 563/1/5
f 589/1/5 563/1/5 561/1/5
f 589/1/5 561/1/5 559/1/5
f 589/1/5 559/1/5 557/1/5
f 589/1/5 557/1/5 555/1/5
f 589/1/5 555/1/5 553/1/5
f 589/1/5 553/1/5 551/1/5
f 589/1/5 551/1/5 549/1/5
f 589/1/5 549/1/5 547/1/5
f 589/1/5 547/1/5 545/1/5
f 589/1/5 545/1/5 543/1/5
f 589/1/5 543/1/5 541/1/5
f 589/1/5 541/1/5 539/1/5
f 589/1/5 539/1/5 537/1/5
f 589/1/5 537/1/5 535/1/5
f 589/1/5 535/1/5 533/1/5
f 589/1/5 533/1/5 531/1/5
f 589/1/5 531/1/5 529/1/5
f 589/1/5 529/1/5 527/1/5
f 589/1/5 527/1/5 525/1/5
f 589/1/5 525/1/5 523/1/5
f 589/1/5 523/1/5 521/1/5
f 589/1/5 521/1/5 519/1/5
f 589/1/5 519/1/5 517/1/5
f 589/1/5 517/1/5 515/1/5
f 589/1/5 515/1/5 513/1/5
f 589/1/5 513/1/5 511/1/5
f 589/1/5 511/1/5 509/1/5
f 589/1/5 509/1/5 507/1/5
f 589/1/5 507/1/5 505/1/5
f 589/1/5 505/1/5 503/1/5
f 589/1/5 503/1/5 501/1/5
f 589/1/5 501/1/5 499/1/5
f 589/1/5 499/1/5 497/1/5
f 589/1/5 497/1/5 495/1/5
f 589/1/5 495/1/5 493/1/5
f 589/1/5 493/1/5 491/1/5
f 589/1/5 491/1/5 489/1/5
f 589/1/5 489/1/5 487/1/5
f 589/1/5 487/1/5 485/1/5
f 589/1/5 485/1/5 483/1/5
f 589/1/5 483/1/5 481/1/5
f 589/1/5 481/1/5 479/1/5
f 589/1/5 479/1/5 477/1/5
f 589/1/5 477/1/5 475/1/5
f 590/1/5 588/1/5 589/1/5
f 591/1/6 592/1/6 593/1/6
f 593/1/6 594/1/6 595/1/6
f 595/1/6 596/1/6 597/1/6
f 597/1/6 598/1/6 599/1/6
f 599/1/6 600/1/6 601/1/6
f 601/1/6 602/1/6 603/1/6
f 603/1/6 604/1/6 605/1/6
f 605/1/6 606/1/6 607/1/6
f 607/1/6 608/1/6 609/1/6
f 609/1/6 610/1/6 611/1/6
f 611/1/6 612/1/6 613/1/6
f 613/1/6 614/1/6 615/1/6
f 615/1/6 616/1/6 617/1/6
f 617/1/6 618/1/6 619/1/6
f 619/1/6 620/1/6 621/1/6
f 621/1/6 622/1/6 623/1/6
f 623/1/6 624/1/6 625/1/6
f 625/1/6 626/1/6 627/1/6
f 627/1/6 628/1/6 629/1/6
f 629/1/6 630/1/6 631/1/6
f 631/1/6 632/1/6 633/1/6
f 633/1/6 634/1/6 635/1/6
f 635/1/6 636/1/6 637/1/6
f 637/1/6 638/1/6 639/1/6
f 639/1/6 640/1/6 641/1/6
f 641/1/6 642/1/6 643/1/6
f 643/1/6 644/1/6 645/1/6
f 645/1/6 646/1/6 647/1/6
f 647/1/6 648/1/6 649/1/6
f 649/1/6 650/1/6 651/1/6
f 651/1/6 652/1/6 653/1/6
f 653/1/6 654/1/6 655/1/6
f 655/1/6 656/1/6 657/1/6
f 657/1/6 658/1/6 659/1/6
f 659/1/6 660/1/6 661/1/6
f 661/1/6 662/1/6 663/1/6
f 663/1/6 664/1/6 665/1/6
f 665/1/6 666/1/6 667/1/6
f 667/1/6 668/1/6 669/1/6
f 669/1/6 670/1/6 671/1/6
f 671/1/6 672/1/6 673/1/6
f 673/1/6 674/1/6 675/1/6
f 675/1/6 676/1/6 677/1/6
f 677/1/6 678/1/6 679/1/6
f 679/1/6 680/1/6 681/1/6
f 681/1/6 682/1/6 683/1/6
f 683/1/6 684/1/6 685/1/6
f 685/1/6 686/1/6 687/1/6
f 687/1/6 688/1/6 689/1/6
f 689/1/6 690/1/6 691/1/6
f 691/1/6 692/1/6 693/1/6
f 693/1/6 694/1/6 695/1/6
f 695/1/6 696/1/6 697/1/6
f 697/1/6 698/1/6 699/1/6
f 699/1/6 700/1/6 701/1/6
f 701/1/6 702/1/6 703/1/6
f 703/1/6 704/1/6 705/1/6
f 591/1/6 593/1/6 707/1/6
f 705/1/6 706/1/6 707/1/6
f 703/1/6 705/1/6 707/1/6
f 701/1/6 703/1/6 707/1/6
f 699/1/6 701/1/6 707/1/6
f 697/1/6 699/1/6 707/1/6
f 695/1/6 697/1/6 707/1/6
f 693/1/6 695/1/6 707/1/6
f 691/1/6 693/1/6 707/1/6
f 689/1/6 691/1/6 707/1/6
f 687/1/6 689/1/6 707/1/6
f 685/1/6 687/1/6 707/1/6
f 683/1/6 685/1/6 707/1/6
f 681/1/6 683/1/6 707/1/6
f 679/1/6 681/1/6 707/1/6
f 677/1/6 679/1/6 707/1/6
f 675/1/6 677/1/6 707/1/6
f 673/1/6 675/1/6 707/1/6
f 671/1/6 673/1/6 707/1/6
f 669/1/6 671/1/6 707/1/6
f 667/1/6 669/1/6 707/1/6
f 665/1/6 667/1/6 707/1/6
f 663/1/6 665/1/6 707/1/6
f 661/1/6 663/1/6 707/1/6
f 659/1/6 661/1/6 707/1/6
f 657/1/6 659/1/6 707/1/6
f 655/1/6 657/1/6 707/1/6
f 653/1/6 655/1/6 707/1/6
f 651/1/6 653/1/6 707/1/6
f 649/1/6 651/1/6 707/1/6
f 647/1/6 649/1/6 707/1/6
f 645/1/6 647/1/6 707/1/6
f 643/1/6 645/1/6 707/1/6
f 641/1/6 643/1/6 707/1/6
f 639/1/6 641/1/6 707/1/6
f 637/1/6 639/1/6 707/1/6
f 635/1/6 637/1/6 707/1/6
f 633/1/6 635/1/6 707/1/6
f 631/1/6 633/1/6 707/1/6
f 629/1/6 631/1/6 707/1/6
f 627/1/6 629/1/6 707/1/6
f 625/1/6 627/1/6 707/1/6
f 623/1/6 625/1/6 707/1/6
f 621/1/6 623/1/6 707/1/6
f 619/1/6 621/1/6 707/1/6
f 617/1/6 619/1/6 707/1/6
f 615/1/6 617/1/6 707/1/6
f 613/1/6 615/1/6 707/1/6
f 611/1/6 613/1/6 707/1/6
f 609/1/6 611/1/6 707/1/6
f 607/1/6 609/1/6 707/1/6
f 605/1/6 607/1/6 707/1/6
f 603/1/6 605/1/6 707/1/6
f 601/1/6 603/1/6 707/1/6
f 599/1/6 601/1/6 707/1/6
f 597/1/6 599/1/6 707/1/6
f 595/1/6 597/1/6 707/1/6
f 593/1/6 595/1/6 707/1/6
f 707/1/6 706/1/6 708/1/6
