# MagicaVoxel @ Ephtracy

# group
g TerrainPieces-11

# material
mtllib TerrainPieces-11.mtl
usemtl palette

# normals
vn -1 0 0
vn 1 0 0
vn 0 0 1
vn 0 0 -1
vn 0 -1 0
vn 0 1 0

# texcoords
vt 0.595703 0.5

# verts
v -50 0 17
v -50 0 -50
v -50 2 17
v -50 2 -50
v -49 0 17
v -49 0 16
v -49 2 17
v -49 2 16
v -48 0 16
v -48 0 14
v -48 2 16
v -48 2 14
v -47 0 14
v -47 0 10
v -47 2 14
v -47 2 10
v -46 0 10
v -46 0 7
v -46 2 10
v -46 2 7
v -45 0 7
v -45 0 4
v -45 2 7
v -45 2 4
v -44 0 4
v -44 0 -1
v -44 2 4
v -44 2 -1
v -43 0 -1
v -43 0 -12
v -43 0 -27
v -43 0 -34
v -43 2 -1
v -43 2 -12
v -43 2 -27
v -43 2 -34
v -42 0 -12
v -42 0 -27
v -42 0 -34
v -42 0 -37
v -42 2 -12
v -42 2 -27
v -42 2 -34
v -42 2 -37
v -41 0 -37
v -41 0 -38
v -41 2 -37
v -41 2 -38
v -40 0 -38
v -40 0 -39
v -40 2 -38
v -40 2 -39
v -39 0 -39
v -39 0 -40
v -39 2 -39
v -39 2 -40
v -38 0 -40
v -38 0 -41
v -38 2 -40
v -38 2 -41
v -37 0 -41
v -37 0 -42
v -37 2 -41
v -37 2 -42
v -36 0 -42
v -36 0 -43
v -36 2 -42
v -36 2 -43
v -35 0 -43
v -35 0 -44
v -35 2 -43
v -35 2 -44
v -34 0 -44
v -34 0 -46
v -34 2 -44
v -34 2 -46
v -33 0 -46
v -33 0 -49
v -33 2 -46
v -33 2 -49
v -32 0 -49
v -32 0 -50
v -32 2 -49
v -32 2 -50
v -50 0 17
v -50 2 17
v -49 0 17
v -49 2 17
v -49 0 16
v -49 2 16
v -48 0 16
v -48 2 16
v -48 0 14
v -48 2 14
v -47 0 14
v -47 2 14
v -47 0 10
v -47 2 10
v -46 0 10
v -46 2 10
v -46 0 7
v -46 2 7
v -45 0 7
v -45 2 7
v -45 0 4
v -45 2 4
v -44 0 4
v -44 2 4
v -44 0 -1
v -44 2 -1
v -43 0 -1
v -43 2 -1
v -43 0 -12
v -43 2 -12
v -42 0 -12
v -42 2 -12
v -43 0 -34
v -43 2 -34
v -42 0 -34
v -42 2 -34
v -42 0 -37
v -42 2 -37
v -41 0 -37
v -41 2 -37
v -41 0 -38
v -41 2 -38
v -40 0 -38
v -40 2 -38
v -40 0 -39
v -40 2 -39
v -39 0 -39
v -39 2 -39
v -39 0 -40
v -39 2 -40
v -38 0 -40
v -38 2 -40
v -38 0 -41
v -38 2 -41
v -37 0 -41
v -37 2 -41
v -37 0 -42
v -37 2 -42
v -36 0 -42
v -36 2 -42
v -36 0 -43
v -36 2 -43
v -35 0 -43
v -35 2 -43
v -35 0 -44
v -35 2 -44
v -34 0 -44
v -34 2 -44
v -34 0 -46
v -34 2 -46
v -33 0 -46
v -33 2 -46
v -33 0 -49
v -33 2 -49
v -32 0 -49
v -32 2 -49
v -43 0 -27
v -43 2 -27
v -42 0 -27
v -42 2 -27
v -50 0 -50
v -50 2 -50
v -32 0 -50
v -32 2 -50
v -50 0 17
v -49 0 17
v -49 0 16
v -48 0 16
v -48 0 14
v -47 0 14
v -47 0 10
v -46 0 10
v -46 0 7
v -45 0 7
v -45 0 4
v -44 0 4
v -44 0 -1
v -43 0 -1
v -43 0 -12
v -42 0 -12
v -43 0 -27
v -42 0 -27
v -43 0 -34
v -42 0 -34
v -42 0 -37
v -41 0 -37
v -41 0 -38
v -40 0 -38
v -40 0 -39
v -39 0 -39
v -39 0 -40
v -38 0 -40
v -38 0 -41
v -37 0 -41
v -37 0 -42
v -36 0 -42
v -36 0 -43
v -35 0 -43
v -35 0 -44
v -34 0 -44
v -34 0 -46
v -33 0 -46
v -33 0 -49
v -32 0 -49
v -50 0 -50
v -32 0 -50
v -50 2 17
v -49 2 17
v -49 2 16
v -48 2 16
v -48 2 14
v -47 2 14
v -47 2 10
v -46 2 10
v -46 2 7
v -45 2 7
v -45 2 4
v -44 2 4
v -44 2 -1
v -43 2 -1
v -43 2 -12
v -42 2 -12
v -43 2 -27
v -42 2 -27
v -43 2 -34
v -42 2 -34
v -42 2 -37
v -41 2 -37
v -41 2 -38
v -40 2 -38
v -40 2 -39
v -39 2 -39
v -39 2 -40
v -38 2 -40
v -38 2 -41
v -37 2 -41
v -37 2 -42
v -36 2 -42
v -36 2 -43
v -35 2 -43
v -35 2 -44
v -34 2 -44
v -34 2 -46
v -33 2 -46
v -33 2 -49
v -32 2 -49
v -50 2 -50
v -32 2 -50

# faces
f 3/1/1 2/1/1 1/1/1
f 4/1/1 2/1/1 3/1/1
f 5/1/2 6/1/2 7/1/2
f 7/1/2 6/1/2 8/1/2
f 9/1/2 10/1/2 11/1/2
f 11/1/2 10/1/2 12/1/2
f 13/1/2 14/1/2 15/1/2
f 15/1/2 14/1/2 16/1/2
f 17/1/2 18/1/2 19/1/2
f 19/1/2 18/1/2 20/1/2
f 21/1/2 22/1/2 23/1/2
f 23/1/2 22/1/2 24/1/2
f 25/1/2 26/1/2 27/1/2
f 27/1/2 26/1/2 28/1/2
f 29/1/2 30/1/2 33/1/2
f 33/1/2 30/1/2 34/1/2
f 31/1/2 32/1/2 35/1/2
f 35/1/2 32/1/2 36/1/2
f 37/1/2 38/1/2 41/1/2
f 41/1/2 38/1/2 42/1/2
f 39/1/2 40/1/2 43/1/2
f 43/1/2 40/1/2 44/1/2
f 45/1/2 46/1/2 47/1/2
f 47/1/2 46/1/2 48/1/2
f 49/1/2 50/1/2 51/1/2
f 51/1/2 50/1/2 52/1/2
f 53/1/2 54/1/2 55/1/2
f 55/1/2 54/1/2 56/1/2
f 57/1/2 58/1/2 59/1/2
f 59/1/2 58/1/2 60/1/2
f 61/1/2 62/1/2 63/1/2
f 63/1/2 62/1/2 64/1/2
f 65/1/2 66/1/2 67/1/2
f 67/1/2 66/1/2 68/1/2
f 69/1/2 70/1/2 71/1/2
f 71/1/2 70/1/2 72/1/2
f 73/1/2 74/1/2 75/1/2
f 75/1/2 74/1/2 76/1/2
f 77/1/2 78/1/2 79/1/2
f 79/1/2 78/1/2 80/1/2
f 81/1/2 82/1/2 83/1/2
f 83/1/2 82/1/2 84/1/2
f 87/1/3 86/1/3 85/1/3
f 88/1/3 86/1/3 87/1/3
f 91/1/3 90/1/3 89/1/3
f 92/1/3 90/1/3 91/1/3
f 95/1/3 94/1/3 93/1/3
f 96/1/3 94/1/3 95/1/3
f 99/1/3 98/1/3 97/1/3
f 100/1/3 98/1/3 99/1/3
f 103/1/3 102/1/3 101/1/3
f 104/1/3 102/1/3 103/1/3
f 107/1/3 106/1/3 105/1/3
f 108/1/3 106/1/3 107/1/3
f 111/1/3 110/1/3 109/1/3
f 112/1/3 110/1/3 111/1/3
f 115/1/3 114/1/3 113/1/3
f 116/1/3 114/1/3 115/1/3
f 119/1/3 118/1/3 117/1/3
f 120/1/3 118/1/3 119/1/3
f 123/1/3 122/1/3 121/1/3
f 124/1/3 122/1/3 123/1/3
f 127/1/3 126/1/3 125/1/3
f 128/1/3 126/1/3 127/1/3
f 131/1/3 130/1/3 129/1/3
f 132/1/3 130/1/3 131/1/3
f 135/1/3 134/1/3 133/1/3
f 136/1/3 134/1/3 135/1/3
f 139/1/3 138/1/3 137/1/3
f 140/1/3 138/1/3 139/1/3
f 143/1/3 142/1/3 141/1/3
f 144/1/3 142/1/3 143/1/3
f 147/1/3 146/1/3 145/1/3
f 148/1/3 146/1/3 147/1/3
f 151/1/3 150/1/3 149/1/3
f 152/1/3 150/1/3 151/1/3
f 155/1/3 154/1/3 153/1/3
f 156/1/3 154/1/3 155/1/3
f 159/1/3 158/1/3 157/1/3
f 160/1/3 158/1/3 159/1/3
f 161/1/4 162/1/4 163/1/4
f 163/1/4 162/1/4 164/1/4
f 165/1/4 166/1/4 167/1/4
f 167/1/4 166/1/4 168/1/4
f 171/1/5 170/1/5 169/1/5
f 173/1/5 172/1/5 171/1/5
f 175/1/5 174/1/5 173/1/5
f 177/1/5 176/1/5 175/1/5
f 179/1/5 178/1/5 177/1/5
f 181/1/5 180/1/5 179/1/5
f 183/1/5 182/1/5 181/1/5
f 185/1/5 183/1/5 181/1/5
f 185/1/5 184/1/5 183/1/5
f 186/1/5 184/1/5 185/1/5
f 187/1/5 185/1/5 181/1/5
f 189/1/5 188/1/5 187/1/5
f 191/1/5 190/1/5 189/1/5
f 193/1/5 192/1/5 191/1/5
f 195/1/5 194/1/5 193/1/5
f 197/1/5 196/1/5 195/1/5
f 199/1/5 198/1/5 197/1/5
f 201/1/5 200/1/5 199/1/5
f 203/1/5 202/1/5 201/1/5
f 205/1/5 204/1/5 203/1/5
f 207/1/5 206/1/5 205/1/5
f 209/1/5 171/1/5 169/1/5
f 209/1/5 208/1/5 207/1/5
f 209/1/5 207/1/5 205/1/5
f 209/1/5 205/1/5 203/1/5
f 209/1/5 203/1/5 201/1/5
f 209/1/5 201/1/5 199/1/5
f 209/1/5 199/1/5 197/1/5
f 209/1/5 197/1/5 195/1/5
f 209/1/5 195/1/5 193/1/5
f 209/1/5 193/1/5 191/1/5
f 209/1/5 191/1/5 189/1/5
f 209/1/5 187/1/5 181/1/5
f 209/1/5 189/1/5 187/1/5
f 209/1/5 181/1/5 179/1/5
f 209/1/5 179/1/5 177/1/5
f 209/1/5 177/1/5 175/1/5
f 209/1/5 175/1/5 173/1/5
f 209/1/5 173/1/5 171/1/5
f 210/1/5 208/1/5 209/1/5
f 211/1/6 212/1/6 213/1/6
f 213/1/6 214/1/6 215/1/6
f 215/1/6 216/1/6 217/1/6
f 217/1/6 218/1/6 219/1/6
f 219/1/6 220/1/6 221/1/6
f 221/1/6 222/1/6 223/1/6
f 223/1/6 224/1/6 225/1/6
f 223/1/6 225/1/6 227/1/6
f 225/1/6 226/1/6 227/1/6
f 227/1/6 226/1/6 228/1/6
f 223/1/6 227/1/6 229/1/6
f 229/1/6 230/1/6 231/1/6
f 231/1/6 232/1/6 233/1/6
f 233/1/6 234/1/6 235/1/6
f 235/1/6 236/1/6 237/1/6
f 237/1/6 238/1/6 239/1/6
f 239/1/6 240/1/6 241/1/6
f 241/1/6 242/1/6 243/1/6
f 243/1/6 244/1/6 245/1/6
f 245/1/6 246/1/6 247/1/6
f 247/1/6 248/1/6 249/1/6
f 211/1/6 213/1/6 251/1/6
f 249/1/6 250/1/6 251/1/6
f 247/1/6 249/1/6 251/1/6
f 245/1/6 247/1/6 251/1/6
f 243/1/6 245/1/6 251/1/6
f 241/1/6 243/1/6 251/1/6
f 239/1/6 241/1/6 251/1/6
f 237/1/6 239/1/6 251/1/6
f 235/1/6 237/1/6 251/1/6
f 233/1/6 235/1/6 251/1/6
f 231/1/6 233/1/6 251/1/6
f 223/1/6 229/1/6 251/1/6
f 229/1/6 231/1/6 251/1/6
f 221/1/6 223/1/6 251/1/6
f 219/1/6 221/1/6 251/1/6
f 217/1/6 219/1/6 251/1/6
f 215/1/6 217/1/6 251/1/6
f 213/1/6 215/1/6 251/1/6
f 251/1/6 250/1/6 252/1/6
