# MagicaVoxel @ Ephtracy

# group
g TerrainPieces-11

# material
mtllib TerrainPieces-11.mtl
usemtl palette

# normals
vn -1 0 0
vn 1 0 0
vn 0 0 1
vn 0 0 -1
vn 0 -1 0
vn 0 1 0

# texcoords
vt 0.580078 0.5
vt 0.583984 0.5
vt 0.595703 0.5

# verts
v -50 0 17
v -50 0 -50
v -50 3 17
v -50 3 2
v -50 4 17
v -50 4 2
v -50 4 -50
v -50 5 2
v -50 5 -50
v -49 0 17
v -49 0 16
v -49 3 17
v -49 3 16
v -49 4 17
v -49 4 16
v -49 4 2
v -49 4 -0
v -49 5 2
v -49 5 -0
v -48 0 16
v -48 0 14
v -48 3 16
v -48 3 14
v -48 4 16
v -48 4 14
v -48 4 -0
v -48 4 -2
v -48 5 -0
v -48 5 -2
v -47 0 14
v -47 0 10
v -47 3 14
v -47 3 10
v -47 4 14
v -47 4 10
v -47 4 -2
v -47 4 -3
v -47 5 -2
v -47 5 -3
v -46 0 10
v -46 0 7
v -46 3 10
v -46 3 7
v -46 4 10
v -46 4 7
v -45 0 7
v -45 0 4
v -45 3 7
v -45 3 4
v -45 4 7
v -45 4 4
v -45 4 -3
v -45 4 -6
v -45 4 -29
v -45 4 -35
v -45 5 -3
v -45 5 -6
v -45 5 -29
v -45 5 -35
v -44 0 4
v -44 0 -1
v -44 3 4
v -44 3 -1
v -44 4 4
v -44 4 -1
v -44 4 -6
v -44 4 -11
v -44 4 -21
v -44 4 -29
v -44 4 -35
v -44 4 -38
v -44 5 -6
v -44 5 -11
v -44 5 -21
v -44 5 -29
v -44 5 -35
v -44 5 -38
v -43 0 -1
v -43 0 -12
v -43 0 -27
v -43 0 -34
v -43 3 -1
v -43 3 -11
v -43 3 -12
v -43 3 -27
v -43 3 -34
v -43 4 -1
v -43 4 -11
v -43 4 -12
v -43 4 -21
v -43 4 -27
v -43 4 -34
v -43 4 -38
v -43 4 -41
v -43 5 -11
v -43 5 -21
v -43 5 -38
v -43 5 -41
v -42 0 -12
v -42 0 -27
v -42 0 -34
v -42 0 -37
v -42 3 -12
v -42 3 -27
v -42 3 -34
v -42 3 -37
v -42 4 -12
v -42 4 -27
v -42 4 -34
v -42 4 -37
v -42 4 -41
v -42 4 -42
v -42 5 -41
v -42 5 -42
v -41 0 -37
v -41 0 -38
v -41 3 -37
v -41 3 -38
v -41 4 -37
v -41 4 -38
v -41 4 -42
v -41 4 -43
v -41 5 -42
v -41 5 -43
v -40 0 -38
v -40 0 -39
v -40 3 -38
v -40 3 -39
v -40 4 -38
v -40 4 -39
v -40 4 -43
v -40 4 -44
v -40 5 -43
v -40 5 -44
v -39 0 -39
v -39 0 -40
v -39 3 -39
v -39 3 -40
v -39 4 -39
v -39 4 -40
v -39 4 -44
v -39 4 -45
v -39 5 -44
v -39 5 -45
v -38 0 -40
v -38 0 -41
v -38 3 -40
v -38 3 -41
v -38 4 -40
v -38 4 -41
v -38 4 -45
v -38 4 -46
v -38 5 -45
v -38 5 -46
v -37 0 -41
v -37 0 -42
v -37 3 -41
v -37 3 -42
v -37 4 -41
v -37 4 -42
v -36 0 -42
v -36 0 -43
v -36 3 -42
v -36 3 -43
v -36 4 -42
v -36 4 -43
v -36 4 -46
v -36 4 -47
v -36 5 -46
v -36 5 -47
v -35 0 -43
v -35 0 -44
v -35 3 -43
v -35 3 -44
v -35 4 -43
v -35 4 -44
v -35 4 -47
v -35 4 -50
v -35 5 -47
v -35 5 -50
v -34 0 -44
v -34 0 -46
v -34 3 -44
v -34 3 -46
v -34 4 -44
v -34 4 -46
v -33 0 -46
v -33 0 -49
v -33 3 -46
v -33 3 -49
v -33 4 -46
v -33 4 -49
v -32 0 -49
v -32 0 -50
v -32 3 -49
v -32 3 -50
v -32 4 -49
v -32 4 -50
v -50 0 17
v -50 3 17
v -50 4 17
v -49 0 17
v -49 3 17
v -49 4 17
v -49 0 16
v -49 3 16
v -49 4 16
v -48 0 16
v -48 3 16
v -48 4 16
v -48 0 14
v -48 3 14
v -48 4 14
v -47 0 14
v -47 3 14
v -47 4 14
v -47 0 10
v -47 3 10
v -47 4 10
v -46 0 10
v -46 3 10
v -46 4 10
v -46 0 7
v -46 3 7
v -46 4 7
v -45 0 7
v -45 3 7
v -45 4 7
v -45 0 4
v -45 3 4
v -45 4 4
v -44 0 4
v -44 3 4
v -44 4 4
v -50 4 2
v -50 5 2
v -49 4 2
v -49 5 2
v -49 4 -0
v -49 5 -0
v -48 4 -0
v -48 5 -0
v -44 0 -1
v -44 3 -1
v -44 4 -1
v -43 0 -1
v -43 3 -1
v -43 4 -1
v -48 4 -2
v -48 5 -2
v -47 4 -2
v -47 5 -2
v -47 4 -3
v -47 5 -3
v -45 4 -3
v -45 5 -3
v -45 4 -6
v -45 5 -6
v -44 4 -6
v -44 5 -6
v -44 4 -11
v -44 5 -11
v -43 4 -11
v -43 5 -11
v -43 0 -12
v -43 3 -12
v -43 4 -12
v -42 0 -12
v -42 3 -12
v -42 4 -12
v -43 0 -34
v -43 3 -34
v -43 4 -34
v -42 0 -34
v -42 3 -34
v -42 4 -34
v -45 4 -35
v -45 5 -35
v -44 4 -35
v -44 5 -35
v -42 0 -37
v -42 3 -37
v -42 4 -37
v -41 0 -37
v -41 3 -37
v -41 4 -37
v -44 4 -38
v -44 5 -38
v -43 4 -38
v -43 5 -38
v -41 0 -38
v -41 3 -38
v -41 4 -38
v -40 0 -38
v -40 3 -38
v -40 4 -38
v -40 0 -39
v -40 3 -39
v -40 4 -39
v -39 0 -39
v -39 3 -39
v -39 4 -39
v -39 0 -40
v -39 3 -40
v -39 4 -40
v -38 0 -40
v -38 3 -40
v -38 4 -40
v -43 4 -41
v -43 5 -41
v -42 4 -41
v -42 5 -41
v -38 0 -41
v -38 3 -41
v -38 4 -41
v -37 0 -41
v -37 3 -41
v -37 4 -41
v -42 4 -42
v -42 5 -42
v -41 4 -42
v -41 5 -42
v -37 0 -42
v -37 3 -42
v -37 4 -42
v -36 0 -42
v -36 3 -42
v -36 4 -42
v -41 4 -43
v -41 5 -43
v -40 4 -43
v -40 5 -43
v -36 0 -43
v -36 3 -43
v -36 4 -43
v -35 0 -43
v -35 3 -43
v -35 4 -43
v -40 4 -44
v -40 5 -44
v -39 4 -44
v -39 5 -44
v -35 0 -44
v -35 3 -44
v -35 4 -44
v -34 0 -44
v -34 3 -44
v -34 4 -44
v -39 4 -45
v -39 5 -45
v -38 4 -45
v -38 5 -45
v -38 4 -46
v -38 5 -46
v -36 4 -46
v -36 5 -46
v -34 0 -46
v -34 3 -46
v -34 4 -46
v -33 0 -46
v -33 3 -46
v -33 4 -46
v -36 4 -47
v -36 5 -47
v -35 4 -47
v -35 5 -47
v -33 0 -49
v -33 3 -49
v -33 4 -49
v -32 0 -49
v -32 3 -49
v -32 4 -49
v -44 4 -21
v -44 5 -21
v -43 4 -21
v -43 5 -21
v -43 0 -27
v -43 3 -27
v -43 4 -27
v -42 0 -27
v -42 3 -27
v -42 4 -27
v -45 4 -29
v -45 5 -29
v -44 4 -29
v -44 5 -29
v -50 0 -50
v -50 4 -50
v -50 5 -50
v -35 3 -50
v -35 4 -50
v -35 5 -50
v -32 0 -50
v -32 3 -50
v -32 4 -50
v -50 0 17
v -49 0 17
v -49 0 16
v -48 0 16
v -48 0 14
v -47 0 14
v -47 0 10
v -46 0 10
v -46 0 7
v -45 0 7
v -45 0 4
v -44 0 4
v -44 0 -1
v -43 0 -1
v -43 0 -12
v -42 0 -12
v -43 0 -27
v -42 0 -27
v -43 0 -34
v -42 0 -34
v -42 0 -37
v -41 0 -37
v -41 0 -38
v -40 0 -38
v -40 0 -39
v -39 0 -39
v -39 0 -40
v -38 0 -40
v -38 0 -41
v -37 0 -41
v -37 0 -42
v -36 0 -42
v -36 0 -43
v -35 0 -43
v -35 0 -44
v -34 0 -44
v -34 0 -46
v -33 0 -46
v -33 0 -49
v -32 0 -49
v -50 0 -50
v -32 0 -50
v -50 4 17
v -49 4 17
v -49 4 16
v -48 4 16
v -48 4 14
v -47 4 14
v -47 4 10
v -46 4 10
v -46 4 7
v -45 4 7
v -45 4 4
v -44 4 4
v -50 4 2
v -49 4 2
v -49 4 -0
v -48 4 -0
v -44 4 -1
v -43 4 -1
v -48 4 -2
v -47 4 -2
v -47 4 -3
v -45 4 -3
v -45 4 -6
v -44 4 -6
v -44 4 -11
v -43 4 -11
v -43 4 -12
v -42 4 -12
v -44 4 -21
v -43 4 -21
v -43 4 -27
v -42 4 -27
v -45 4 -29
v -44 4 -29
v -43 4 -34
v -42 4 -34
v -45 4 -35
v -44 4 -35
v -42 4 -37
v -41 4 -37
v -44 4 -38
v -43 4 -38
v -41 4 -38
v -40 4 -38
v -40 4 -39
v -39 4 -39
v -39 4 -40
v -38 4 -40
v -43 4 -41
v -42 4 -41
v -38 4 -41
v -37 4 -41
v -42 4 -42
v -41 4 -42
v -37 4 -42
v -36 4 -42
v -41 4 -43
v -40 4 -43
v -36 4 -43
v -35 4 -43
v -40 4 -44
v -39 4 -44
v -35 4 -44
v -34 4 -44
v -39 4 -45
v -38 4 -45
v -38 4 -46
v -36 4 -46
v -34 4 -46
v -33 4 -46
v -36 4 -47
v -35 4 -47
v -33 4 -49
v -32 4 -49
v -35 4 -50
v -32 4 -50
v -50 5 2
v -49 5 2
v -49 5 -0
v -48 5 -0
v -48 5 -2
v -47 5 -2
v -47 5 -3
v -45 5 -3
v -45 5 -6
v -44 5 -6
v -44 5 -11
v -43 5 -11
v -44 5 -21
v -43 5 -21
v -45 5 -29
v -44 5 -29
v -45 5 -35
v -44 5 -35
v -44 5 -38
v -43 5 -38
v -43 5 -41
v -42 5 -41
v -42 5 -42
v -41 5 -42
v -41 5 -43
v -40 5 -43
v -40 5 -44
v -39 5 -44
v -39 5 -45
v -38 5 -45
v -38 5 -46
v -36 5 -46
v -36 5 -47
v -35 5 -47
v -50 5 -50
v -35 5 -50

# faces
f 3/3/1 2/3/1 1/3/1
f 4/3/1 2/3/1 3/3/1
f 5/2/1 4/2/1 3/2/1
f 6/3/1 2/3/1 4/3/1
f 6/2/1 4/2/1 5/2/1
f 7/3/1 2/3/1 6/3/1
f 8/1/1 7/1/1 6/1/1
f 9/1/1 7/1/1 8/1/1
f 10/3/2 11/3/2 12/3/2
f 12/3/2 11/3/2 13/3/2
f 12/2/2 13/2/2 14/2/2
f 14/2/2 13/2/2 15/2/2
f 16/1/2 17/1/2 18/1/2
f 18/1/2 17/1/2 19/1/2
f 20/3/2 21/3/2 22/3/2
f 22/3/2 21/3/2 23/3/2
f 22/2/2 23/2/2 24/2/2
f 24/2/2 23/2/2 25/2/2
f 26/1/2 27/1/2 28/1/2
f 28/1/2 27/1/2 29/1/2
f 30/3/2 31/3/2 32/3/2
f 32/3/2 31/3/2 33/3/2
f 32/2/2 33/2/2 34/2/2
f 34/2/2 33/2/2 35/2/2
f 36/1/2 37/1/2 38/1/2
f 38/1/2 37/1/2 39/1/2
f 40/3/2 41/3/2 42/3/2
f 42/3/2 41/3/2 43/3/2
f 42/2/2 43/2/2 44/2/2
f 44/2/2 43/2/2 45/2/2
f 46/3/2 47/3/2 48/3/2
f 48/3/2 47/3/2 49/3/2
f 48/2/2 49/2/2 50/2/2
f 50/2/2 49/2/2 51/2/2
f 52/1/2 53/1/2 56/1/2
f 56/1/2 53/1/2 57/1/2
f 54/1/2 55/1/2 58/1/2
f 58/1/2 55/1/2 59/1/2
f 60/3/2 61/3/2 62/3/2
f 62/3/2 61/3/2 63/3/2
f 62/2/2 63/2/2 64/2/2
f 64/2/2 63/2/2 65/2/2
f 66/1/2 67/1/2 72/1/2
f 72/1/2 67/1/2 73/1/2
f 68/1/2 69/1/2 74/1/2
f 74/1/2 69/1/2 75/1/2
f 70/1/2 71/1/2 76/1/2
f 76/1/2 71/1/2 77/1/2
f 78/3/2 79/3/2 82/3/2
f 82/3/2 79/3/2 83/3/2
f 83/3/2 79/3/2 84/3/2
f 80/3/2 81/3/2 85/3/2
f 85/3/2 81/3/2 86/3/2
f 82/2/2 83/2/2 87/2/2
f 83/3/2 84/3/2 88/3/2
f 87/2/2 83/2/2 88/2/2
f 88/3/2 84/3/2 89/3/2
f 85/2/2 86/2/2 91/2/2
f 91/2/2 86/2/2 92/2/2
f 89/1/2 90/1/2 95/1/2
f 88/1/2 89/1/2 95/1/2
f 95/1/2 90/1/2 96/1/2
f 93/1/2 94/1/2 97/1/2
f 97/1/2 94/1/2 98/1/2
f 99/3/2 100/3/2 103/3/2
f 103/3/2 100/3/2 104/3/2
f 101/3/2 102/3/2 105/3/2
f 105/3/2 102/3/2 106/3/2
f 103/2/2 104/2/2 107/2/2
f 107/2/2 104/2/2 108/2/2
f 105/2/2 106/2/2 109/2/2
f 109/2/2 106/2/2 110/2/2
f 111/1/2 112/1/2 113/1/2
f 113/1/2 112/1/2 114/1/2
f 115/3/2 116/3/2 117/3/2
f 117/3/2 116/3/2 118/3/2
f 117/2/2 118/2/2 119/2/2
f 119/2/2 118/2/2 120/2/2
f 121/1/2 122/1/2 123/1/2
f 123/1/2 122/1/2 124/1/2
f 125/3/2 126/3/2 127/3/2
f 127/3/2 126/3/2 128/3/2
f 127/2/2 128/2/2 129/2/2
f 129/2/2 128/2/2 130/2/2
f 131/1/2 132/1/2 133/1/2
f 133/1/2 132/1/2 134/1/2
f 135/3/2 136/3/2 137/3/2
f 137/3/2 136/3/2 138/3/2
f 137/2/2 138/2/2 139/2/2
f 139/2/2 138/2/2 140/2/2
f 141/1/2 142/1/2 143/1/2
f 143/1/2 142/1/2 144/1/2
f 145/3/2 146/3/2 147/3/2
f 147/3/2 146/3/2 148/3/2
f 147/2/2 148/2/2 149/2/2
f 149/2/2 148/2/2 150/2/2
f 151/1/2 152/1/2 153/1/2
f 153/1/2 152/1/2 154/1/2
f 155/3/2 156/3/2 157/3/2
f 157/3/2 156/3/2 158/3/2
f 157/2/2 158/2/2 159/2/2
f 159/2/2 158/2/2 160/2/2
f 161/3/2 162/3/2 163/3/2
f 163/3/2 162/3/2 164/3/2
f 163/2/2 164/2/2 165/2/2
f 165/2/2 164/2/2 166/2/2
f 167/1/2 168/1/2 169/1/2
f 169/1/2 168/1/2 170/1/2
f 171/3/2 172/3/2 173/3/2
f 173/3/2 172/3/2 174/3/2
f 173/2/2 174/2/2 175/2/2
f 175/2/2 174/2/2 176/2/2
f 177/1/2 178/1/2 179/1/2
f 179/1/2 178/1/2 180/1/2
f 181/3/2 182/3/2 183/3/2
f 183/3/2 182/3/2 184/3/2
f 183/2/2 184/2/2 185/2/2
f 185/2/2 184/2/2 186/2/2
f 187/3/2 188/3/2 189/3/2
f 189/3/2 188/3/2 190/3/2
f 189/2/2 190/2/2 191/2/2
f 191/2/2 190/2/2 192/2/2
f 193/3/2 194/3/2 195/3/2
f 195/3/2 194/3/2 196/3/2
f 195/2/2 196/2/2 197/2/2
f 197/2/2 196/2/2 198/2/2
f 202/3/3 200/3/3 199/3/3
f 203/2/3 201/2/3 200/2/3
f 203/3/3 200/3/3 202/3/3
f 204/2/3 201/2/3 203/2/3
f 208/3/3 206/3/3 205/3/3
f 209/2/3 207/2/3 206/2/3
f 209/3/3 206/3/3 208/3/3
f 210/2/3 207/2/3 209/2/3
f 214/3/3 212/3/3 211/3/3
f 215/2/3 213/2/3 212/2/3
f 215/3/3 212/3/3 214/3/3
f 216/2/3 213/2/3 215/2/3
f 220/3/3 218/3/3 217/3/3
f 221/2/3 219/2/3 218/2/3
f 221/3/3 218/3/3 220/3/3
f 222/2/3 219/2/3 221/2/3
f 226/3/3 224/3/3 223/3/3
f 227/2/3 225/2/3 224/2/3
f 227/3/3 224/3/3 226/3/3
f 228/2/3 225/2/3 227/2/3
f 232/3/3 230/3/3 229/3/3
f 233/2/3 231/2/3 230/2/3
f 233/3/3 230/3/3 232/3/3
f 234/2/3 231/2/3 233/2/3
f 237/1/3 236/1/3 235/1/3
f 238/1/3 236/1/3 237/1/3
f 241/1/3 240/1/3 239/1/3
f 242/1/3 240/1/3 241/1/3
f 246/3/3 244/3/3 243/3/3
f 247/2/3 245/2/3 244/2/3
f 247/3/3 244/3/3 246/3/3
f 248/2/3 245/2/3 247/2/3
f 251/1/3 250/1/3 249/1/3
f 252/1/3 250/1/3 251/1/3
f 255/1/3 254/1/3 253/1/3
f 256/1/3 254/1/3 255/1/3
f 259/1/3 258/1/3 257/1/3
f 260/1/3 258/1/3 259/1/3
f 263/1/3 262/1/3 261/1/3
f 264/1/3 262/1/3 263/1/3
f 268/3/3 266/3/3 265/3/3
f 269/2/3 267/2/3 266/2/3
f 269/3/3 266/3/3 268/3/3
f 270/2/3 267/2/3 269/2/3
f 274/3/3 272/3/3 271/3/3
f 275/2/3 273/2/3 272/2/3
f 275/3/3 272/3/3 274/3/3
f 276/2/3 273/2/3 275/2/3
f 279/1/3 278/1/3 277/1/3
f 280/1/3 278/1/3 279/1/3
f 284/3/3 282/3/3 281/3/3
f 285/2/3 283/2/3 282/2/3
f 285/3/3 282/3/3 284/3/3
f 286/2/3 283/2/3 285/2/3
f 289/1/3 288/1/3 287/1/3
f 290/1/3 288/1/3 289/1/3
f 294/3/3 292/3/3 291/3/3
f 295/2/3 293/2/3 292/2/3
f 295/3/3 292/3/3 294/3/3
f 296/2/3 293/2/3 295/2/3
f 300/3/3 298/3/3 297/3/3
f 301/2/3 299/2/3 298/2/3
f 301/3/3 298/3/3 300/3/3
f 302/2/3 299/2/3 301/2/3
f 306/3/3 304/3/3 303/3/3
f 307/2/3 305/2/3 304/2/3
f 307/3/3 304/3/3 306/3/3
f 308/2/3 305/2/3 307/2/3
f 311/1/3 310/1/3 309/1/3
f 312/1/3 310/1/3 311/1/3
f 316/3/3 314/3/3 313/3/3
f 317/2/3 315/2/3 314/2/3
f 317/3/3 314/3/3 316/3/3
f 318/2/3 315/2/3 317/2/3
f 321/1/3 320/1/3 319/1/3
f 322/1/3 320/1/3 321/1/3
f 326/3/3 324/3/3 323/3/3
f 327/2/3 325/2/3 324/2/3
f 327/3/3 324/3/3 326/3/3
f 328/2/3 325/2/3 327/2/3
f 331/1/3 330/1/3 329/1/3
f 332/1/3 330/1/3 331/1/3
f 336/3/3 334/3/3 333/3/3
f 337/2/3 335/2/3 334/2/3
f 337/3/3 334/3/3 336/3/3
f 338/2/3 335/2/3 337/2/3
f 341/1/3 340/1/3 339/1/3
f 342/1/3 340/1/3 341/1/3
f 346/3/3 344/3/3 343/3/3
f 347/2/3 345/2/3 344/2/3
f 347/3/3 344/3/3 346/3/3
f 348/2/3 345/2/3 347/2/3
f 351/1/3 350/1/3 349/1/3
f 352/1/3 350/1/3 351/1/3
f 355/1/3 354/1/3 353/1/3
f 356/1/3 354/1/3 355/1/3
f 360/3/3 358/3/3 357/3/3
f 361/2/3 359/2/3 358/2/3
f 361/3/3 358/3/3 360/3/3
f 362/2/3 359/2/3 361/2/3
f 365/1/3 364/1/3 363/1/3
f 366/1/3 364/1/3 365/1/3
f 370/3/3 368/3/3 367/3/3
f 371/2/3 369/2/3 368/2/3
f 371/3/3 368/3/3 370/3/3
f 372/2/3 369/2/3 371/2/3
f 373/1/4 374/1/4 375/1/4
f 375/1/4 374/1/4 376/1/4
f 377/3/4 378/3/4 380/3/4
f 378/2/4 379/2/4 381/2/4
f 380/3/4 378/3/4 381/3/4
f 381/2/4 379/2/4 382/2/4
f 383/1/4 384/1/4 385/1/4
f 385/1/4 384/1/4 386/1/4
f 387/3/4 388/3/4 390/3/4
f 388/1/4 389/1/4 391/1/4
f 390/3/4 388/3/4 391/3/4
f 391/1/4 389/1/4 392/1/4
f 387/3/4 390/3/4 393/3/4
f 390/2/4 391/2/4 394/2/4
f 393/3/4 390/3/4 394/3/4
f 394/2/4 391/2/4 395/2/4
f 398/3/5 397/3/5 396/3/5
f 400/3/5 399/3/5 398/3/5
f 402/3/5 401/3/5 400/3/5
f 404/3/5 403/3/5 402/3/5
f 406/3/5 405/3/5 404/3/5
f 408/3/5 407/3/5 406/3/5
f 410/3/5 409/3/5 408/3/5
f 412/3/5 410/3/5 408/3/5
f 412/3/5 411/3/5 410/3/5
f 413/3/5 411/3/5 412/3/5
f 414/3/5 412/3/5 408/3/5
f 416/3/5 415/3/5 414/3/5
f 418/3/5 417/3/5 416/3/5
f 420/3/5 419/3/5 418/3/5
f 422/3/5 421/3/5 420/3/5
f 424/3/5 423/3/5 422/3/5
f 426/3/5 425/3/5 424/3/5
f 428/3/5 427/3/5 426/3/5
f 430/3/5 429/3/5 428/3/5
f 432/3/5 431/3/5 430/3/5
f 434/3/5 433/3/5 432/3/5
f 436/3/5 398/3/5 396/3/5
f 436/3/5 435/3/5 434/3/5
f 436/3/5 434/3/5 432/3/5
f 436/3/5 432/3/5 430/3/5
f 436/3/5 430/3/5 428/3/5
f 436/3/5 428/3/5 426/3/5
f 436/3/5 426/3/5 424/3/5
f 436/3/5 424/3/5 422/3/5
f 436/3/5 422/3/5 420/3/5
f 436/3/5 420/3/5 418/3/5
f 436/3/5 418/3/5 416/3/5
f 436/3/5 414/3/5 408/3/5
f 436/3/5 416/3/5 414/3/5
f 436/3/5 408/3/5 406/3/5
f 436/3/5 406/3/5 404/3/5
f 436/3/5 404/3/5 402/3/5
f 436/3/5 402/3/5 400/3/5
f 436/3/5 400/3/5 398/3/5
f 437/3/5 435/3/5 436/3/5
f 438/2/6 439/2/6 440/2/6
f 440/2/6 441/2/6 442/2/6
f 442/2/6 443/2/6 444/2/6
f 444/2/6 445/2/6 446/2/6
f 446/2/6 447/2/6 448/2/6
f 438/2/6 440/2/6 450/2/6
f 448/2/6 449/2/6 450/2/6
f 446/2/6 448/2/6 450/2/6
f 444/2/6 446/2/6 450/2/6
f 442/2/6 444/2/6 450/2/6
f 440/2/6 442/2/6 450/2/6
f 450/2/6 449/2/6 451/2/6
f 451/2/6 449/2/6 452/2/6
f 452/2/6 449/2/6 453/2/6
f 453/2/6 449/2/6 454/2/6
f 453/2/6 454/2/6 456/2/6
f 454/2/6 455/2/6 456/2/6
f 456/2/6 455/2/6 457/2/6
f 457/2/6 455/2/6 458/2/6
f 458/2/6 455/2/6 459/2/6
f 459/2/6 455/2/6 460/2/6
f 460/2/6 455/2/6 461/2/6
f 461/2/6 455/2/6 462/2/6
f 462/2/6 455/2/6 463/2/6
f 464/2/6 465/2/6 467/2/6
f 467/2/6 465/2/6 468/2/6
f 466/2/6 467/2/6 468/2/6
f 468/2/6 465/2/6 469/2/6
f 466/2/6 468/2/6 471/2/6
f 471/2/6 468/2/6 472/2/6
f 470/2/6 471/2/6 472/2/6
f 470/2/6 472/2/6 474/2/6
f 472/2/6 473/2/6 474/2/6
f 474/2/6 473/2/6 475/2/6
f 475/2/6 473/2/6 476/2/6
f 475/2/6 476/2/6 478/2/6
f 476/2/6 477/2/6 478/2/6
f 478/2/6 477/2/6 479/2/6
f 479/2/6 477/2/6 480/2/6
f 480/2/6 481/2/6 482/2/6
f 479/2/6 480/2/6 482/2/6
f 482/2/6 483/2/6 484/2/6
f 479/2/6 482/2/6 486/2/6
f 484/2/6 485/2/6 486/2/6
f 482/2/6 484/2/6 486/2/6
f 486/2/6 485/2/6 487/2/6
f 487/2/6 485/2/6 488/2/6
f 488/2/6 489/2/6 490/2/6
f 487/2/6 488/2/6 490/2/6
f 490/2/6 489/2/6 491/2/6
f 491/2/6 489/2/6 492/2/6
f 492/2/6 493/2/6 494/2/6
f 491/2/6 492/2/6 494/2/6
f 494/2/6 493/2/6 495/2/6
f 495/2/6 493/2/6 496/2/6
f 496/2/6 497/2/6 498/2/6
f 495/2/6 496/2/6 498/2/6
f 498/2/6 497/2/6 499/2/6
f 499/2/6 497/2/6 500/2/6
f 500/2/6 501/2/6 502/2/6
f 499/2/6 500/2/6 502/2/6
f 502/2/6 501/2/6 503/2/6
f 503/2/6 501/2/6 504/2/6
f 504/2/6 501/2/6 505/2/6
f 505/2/6 501/2/6 506/2/6
f 506/2/6 507/2/6 508/2/6
f 505/2/6 506/2/6 508/2/6
f 508/2/6 507/2/6 509/2/6
f 509/2/6 507/2/6 510/2/6
f 509/2/6 510/2/6 512/2/6
f 510/2/6 511/2/6 512/2/6
f 512/2/6 511/2/6 513/2/6
f 514/1/6 515/1/6 516/1/6
f 516/1/6 517/1/6 518/1/6
f 518/1/6 519/1/6 520/1/6
f 520/1/6 521/1/6 522/1/6
f 522/1/6 523/1/6 524/1/6
f 522/1/6 524/1/6 526/1/6
f 524/1/6 525/1/6 526/1/6
f 526/1/6 525/1/6 527/1/6
f 520/1/6 522/1/6 528/1/6
f 522/1/6 526/1/6 528/1/6
f 528/1/6 526/1/6 529/1/6
f 520/1/6 528/1/6 530/1/6
f 530/1/6 531/1/6 532/1/6
f 532/1/6 533/1/6 534/1/6
f 534/1/6 535/1/6 536/1/6
f 536/1/6 537/1/6 538/1/6
f 538/1/6 539/1/6 540/1/6
f 540/1/6 541/1/6 542/1/6
f 542/1/6 543/1/6 544/1/6
f 544/1/6 545/1/6 546/1/6
f 514/1/6 516/1/6 548/1/6
f 546/1/6 547/1/6 548/1/6
f 544/1/6 546/1/6 548/1/6
f 542/1/6 544/1/6 548/1/6
f 540/1/6 542/1/6 548/1/6
f 538/1/6 540/1/6 548/1/6
f 536/1/6 538/1/6 548/1/6
f 534/1/6 536/1/6 548/1/6
f 520/1/6 530/1/6 548/1/6
f 530/1/6 532/1/6 548/1/6
f 532/1/6 534/1/6 548/1/6
f 518/1/6 520/1/6 548/1/6
f 516/1/6 518/1/6 548/1/6
f 548/1/6 547/1/6 549/1/6
