# MagicaVoxel @ Ephtracy

# group
g TerrainPieces-8

# material
mtllib TerrainPieces-8.mtl
usemtl palette

# normals
vn -1 0 0
vn 1 0 0
vn 0 0 1
vn 0 0 -1
vn 0 -1 0
vn 0 1 0

# texcoords
vt 0.576172 0.5
vt 0.595703 0.5

# verts
v -29 0 50
v -29 0 46
v -29 2 50
v -29 2 46
v -28 0 46
v -28 0 43
v -28 2 46
v -28 2 43
v -27 0 43
v -27 0 41
v -27 2 43
v -27 2 41
v -26 0 41
v -26 0 39
v -26 2 41
v -26 2 39
v -25 0 39
v -25 0 37
v -25 2 39
v -25 2 37
v -24 0 37
v -24 0 35
v -24 2 37
v -24 2 35
v -23 0 35
v -23 0 33
v -23 2 35
v -23 2 33
v -22 0 33
v -22 0 32
v -22 2 33
v -22 2 32
v -21 0 32
v -21 0 30
v -21 2 32
v -21 2 30
v -20 0 30
v -20 0 29
v -20 2 30
v -20 2 29
v -19 0 29
v -19 0 27
v -19 2 29
v -19 2 27
v -18 0 27
v -18 0 26
v -18 2 27
v -18 2 26
v -17 0 26
v -17 0 25
v -17 2 26
v -17 2 25
v -16 0 25
v -16 0 24
v -16 2 25
v -16 2 24
v -15 0 24
v -15 0 22
v -15 2 24
v -15 2 22
v -14 0 22
v -14 0 21
v -14 2 22
v -14 2 21
v -13 0 21
v -13 0 20
v -13 2 21
v -13 2 20
v -12 0 20
v -12 0 19
v -12 2 20
v -12 2 19
v -11 0 19
v -11 0 17
v -11 2 19
v -11 2 17
v -10 0 17
v -10 0 16
v -10 2 17
v -10 2 16
v -9 0 16
v -9 0 15
v -9 2 16
v -9 2 15
v -8 0 15
v -8 0 14
v -8 2 15
v -8 2 14
v -7 0 14
v -7 0 13
v -7 2 14
v -7 2 13
v -6 0 13
v -6 0 12
v -6 2 13
v -6 2 12
v -4 0 12
v -4 0 11
v -4 2 12
v -4 2 11
v 3 0 13
v 3 0 12
v 3 2 13
v 3 2 12
v 6 0 12
v 6 0 11
v 6 2 12
v 6 2 11
v 7 0 11
v 7 0 10
v 7 2 11
v 7 2 10
v 10 0 10
v 10 0 9
v 10 2 10
v 10 2 9
v 12 0 9
v 12 0 8
v 12 2 9
v 12 2 8
v 13 0 8
v 13 0 7
v 13 2 8
v 13 2 7
v 14 0 7
v 14 0 6
v 14 2 7
v 14 2 6
v 15 0 6
v 15 0 5
v 15 2 6
v 15 2 5
v 16 0 5
v 16 0 4
v 16 2 5
v 16 2 4
v 17 0 4
v 17 0 2
v 17 0 -7
v 17 0 -26
v 17 2 50
v 17 2 48
v 17 2 4
v 17 2 2
v 17 2 -7
v 17 2 -26
v 17 3 50
v 17 3 48
v 18 0 2
v 18 0 -7
v 18 0 -26
v 18 0 -29
v 18 2 48
v 18 2 47
v 18 2 2
v 18 2 -7
v 18 2 -26
v 18 2 -29
v 18 3 48
v 18 3 47
v 19 0 -29
v 19 0 -31
v 19 2 47
v 19 2 38
v 19 2 -29
v 19 2 -31
v 19 3 47
v 19 3 38
v 20 0 -31
v 20 0 -32
v 20 2 38
v 20 2 35
v 20 2 -31
v 20 2 -32
v 20 3 38
v 20 3 35
v 21 0 -32
v 21 0 -33
v 21 2 35
v 21 2 34
v 21 2 -32
v 21 2 -33
v 21 3 35
v 21 3 34
v 22 2 34
v 22 2 32
v 22 3 34
v 22 3 32
v 23 0 -33
v 23 0 -34
v 23 2 -33
v 23 2 -34
v 24 2 32
v 24 2 31
v 24 3 32
v 24 3 31
v 25 0 -34
v 25 0 -35
v 25 2 31
v 25 2 30
v 25 2 -34
v 25 2 -35
v 25 3 31
v 25 3 30
v 26 2 30
v 26 2 29
v 26 3 30
v 26 3 29
v 28 2 29
v 28 2 28
v 28 3 29
v 28 3 28
v 30 2 28
v 30 2 27
v 30 3 28
v 30 3 27
v 31 0 -35
v 31 0 -36
v 31 2 -35
v 31 2 -36
v 32 2 27
v 32 2 26
v 32 3 27
v 32 3 26
v 33 2 26
v 33 2 25
v 33 3 26
v 33 3 25
v 34 0 -36
v 34 0 -37
v 34 2 -36
v 34 2 -37
v 35 2 25
v 35 2 24
v 35 3 25
v 35 3 24
v 36 0 -37
v 36 0 -38
v 36 2 24
v 36 2 23
v 36 2 -37
v 36 2 -38
v 36 3 24
v 36 3 23
v 38 0 -38
v 38 0 -39
v 38 2 23
v 38 2 22
v 38 2 -38
v 38 2 -39
v 38 3 23
v 38 3 22
v 39 0 -39
v 39 0 -40
v 39 2 -39
v 39 2 -40
v 40 0 -40
v 40 0 -41
v 40 2 -40
v 40 2 -41
v 41 2 22
v 41 2 21
v 41 3 22
v 41 3 21
v 42 0 -41
v 42 0 -42
v 42 2 -41
v 42 2 -42
v 47 0 -42
v 47 0 -43
v 47 2 21
v 47 2 20
v 47 2 -42
v 47 2 -43
v 47 3 21
v 47 3 20
v -3 0 12
v -3 0 11
v -3 2 12
v -3 2 11
v 0 0 13
v 0 0 12
v 0 2 13
v 0 2 12
v 50 0 50
v 50 0 -43
v 50 2 50
v 50 2 20
v 50 2 -43
v 50 3 50
v 50 3 20
v -29 0 50
v -29 2 50
v 17 2 50
v 17 3 50
v 50 0 50
v 50 2 50
v 50 3 50
v 17 0 -7
v 17 2 -7
v 18 0 -7
v 18 2 -7
v 17 2 48
v 17 3 48
v 18 2 48
v 18 3 48
v 18 2 47
v 18 3 47
v 19 2 47
v 19 3 47
v -29 0 46
v -29 2 46
v -28 0 46
v -28 2 46
v -28 0 43
v -28 2 43
v -27 0 43
v -27 2 43
v -27 0 41
v -27 2 41
v -26 0 41
v -26 2 41
v -26 0 39
v -26 2 39
v -25 0 39
v -25 2 39
v 19 2 38
v 19 3 38
v 20 2 38
v 20 3 38
v -25 0 37
v -25 2 37
v -24 0 37
v -24 2 37
v -24 0 35
v -24 2 35
v -23 0 35
v -23 2 35
v 20 2 35
v 20 3 35
v 21 2 35
v 21 3 35
v 21 2 34
v 21 3 34
v 22 2 34
v 22 3 34
v -23 0 33
v -23 2 33
v -22 0 33
v -22 2 33
v -22 0 32
v -22 2 32
v -21 0 32
v -21 2 32
v 22 2 32
v 22 3 32
v 24 2 32
v 24 3 32
v 24 2 31
v 24 3 31
v 25 2 31
v 25 3 31
v -21 0 30
v -21 2 30
v -20 0 30
v -20 2 30
v 25 2 30
v 25 3 30
v 26 2 30
v 26 3 30
v -20 0 29
v -20 2 29
v -19 0 29
v -19 2 29
v 26 2 29
v 26 3 29
v 28 2 29
v 28 3 29
v 28 2 28
v 28 3 28
v 30 2 28
v 30 3 28
v -19 0 27
v -19 2 27
v -18 0 27
v -18 2 27
v 30 2 27
v 30 3 27
v 32 2 27
v 32 3 27
v -18 0 26
v -18 2 26
v -17 0 26
v -17 2 26
v 32 2 26
v 32 3 26
v 33 2 26
v 33 3 26
v -17 0 25
v -17 2 25
v -16 0 25
v -16 2 25
v 33 2 25
v 33 3 25
v 35 2 25
v 35 3 25
v -16 0 24
v -16 2 24
v -15 0 24
v -15 2 24
v 35 2 24
v 35 3 24
v 36 2 24
v 36 3 24
v 36 2 23
v 36 3 23
v 38 2 23
v 38 3 23
v -15 0 22
v -15 2 22
v -14 0 22
v -14 2 22
v 38 2 22
v 38 3 22
v 41 2 22
v 41 3 22
v -14 0 21
v -14 2 21
v -13 0 21
v -13 2 21
v 41 2 21
v 41 3 21
v 47 2 21
v 47 3 21
v -13 0 20
v -13 2 20
v -12 0 20
v -12 2 20
v 47 2 20
v 47 3 20
v 50 2 20
v 50 3 20
v -12 0 19
v -12 2 19
v -11 0 19
v -11 2 19
v -11 0 17
v -11 2 17
v -10 0 17
v -10 2 17
v -10 0 16
v -10 2 16
v -9 0 16
v -9 2 16
v -9 0 15
v -9 2 15
v -8 0 15
v -8 2 15
v -8 0 14
v -8 2 14
v -7 0 14
v -7 2 14
v -7 0 13
v -7 2 13
v -6 0 13
v -6 2 13
v 0 0 13
v 0 2 13
v 3 0 13
v 3 2 13
v -6 0 12
v -6 2 12
v -4 0 12
v -4 2 12
v -3 0 12
v -3 2 12
v 0 0 12
v 0 2 12
v 3 0 12
v 3 2 12
v 6 0 12
v 6 2 12
v -4 0 11
v -4 2 11
v -3 0 11
v -3 2 11
v 6 0 11
v 6 2 11
v 7 0 11
v 7 2 11
v 7 0 10
v 7 2 10
v 10 0 10
v 10 2 10
v 10 0 9
v 10 2 9
v 12 0 9
v 12 2 9
v 12 0 8
v 12 2 8
v 13 0 8
v 13 2 8
v 13 0 7
v 13 2 7
v 14 0 7
v 14 2 7
v 14 0 6
v 14 2 6
v 15 0 6
v 15 2 6
v 15 0 5
v 15 2 5
v 16 0 5
v 16 2 5
v 16 0 4
v 16 2 4
v 17 0 4
v 17 2 4
v 17 0 2
v 17 2 2
v 18 0 2
v 18 2 2
v 17 0 -26
v 17 2 -26
v 18 0 -26
v 18 2 -26
v 18 0 -29
v 18 2 -29
v 19 0 -29
v 19 2 -29
v 19 0 -31
v 19 2 -31
v 20 0 -31
v 20 2 -31
v 20 0 -32
v 20 2 -32
v 21 0 -32
v 21 2 -32
v 21 0 -33
v 21 2 -33
v 23 0 -33
v 23 2 -33
v 23 0 -34
v 23 2 -34
v 25 0 -34
v 25 2 -34
v 25 0 -35
v 25 2 -35
v 31 0 -35
v 31 2 -35
v 31 0 -36
v 31 2 -36
v 34 0 -36
v 34 2 -36
v 34 0 -37
v 34 2 -37
v 36 0 -37
v 36 2 -37
v 36 0 -38
v 36 2 -38
v 38 0 -38
v 38 2 -38
v 38 0 -39
v 38 2 -39
v 39 0 -39
v 39 2 -39
v 39 0 -40
v 39 2 -40
v 40 0 -40
v 40 2 -40
v 40 0 -41
v 40 2 -41
v 42 0 -41
v 42 2 -41
v 42 0 -42
v 42 2 -42
v 47 0 -42
v 47 2 -42
v 47 0 -43
v 47 2 -43
v 50 0 -43
v 50 2 -43
v -29 0 50
v 50 0 50
v -29 0 46
v -28 0 46
v -28 0 43
v -27 0 43
v -27 0 41
v -26 0 41
v -26 0 39
v -25 0 39
v -25 0 37
v -24 0 37
v -24 0 35
v -23 0 35
v -23 0 33
v -22 0 33
v -22 0 32
v -21 0 32
v -21 0 30
v -20 0 30
v -20 0 29
v -19 0 29
v -19 0 27
v -18 0 27
v -18 0 26
v -17 0 26
v -17 0 25
v -16 0 25
v -16 0 24
v -15 0 24
v -15 0 22
v -14 0 22
v -14 0 21
v -13 0 21
v -13 0 20
v -12 0 20
v -12 0 19
v -11 0 19
v -11 0 17
v -10 0 17
v -10 0 16
v -9 0 16
v -9 0 15
v -8 0 15
v -8 0 14
v -7 0 14
v -7 0 13
v -6 0 13
v 0 0 13
v 3 0 13
v -6 0 12
v -4 0 12
v -3 0 12
v 0 0 12
v 3 0 12
v 6 0 12
v -4 0 11
v -3 0 11
v 6 0 11
v 7 0 11
v 7 0 10
v 10 0 10
v 10 0 9
v 12 0 9
v 12 0 8
v 13 0 8
v 13 0 7
v 14 0 7
v 14 0 6
v 15 0 6
v 15 0 5
v 16 0 5
v 16 0 4
v 17 0 4
v 17 0 2
v 18 0 2
v 17 0 -7
v 18 0 -7
v 17 0 -26
v 18 0 -26
v 18 0 -29
v 19 0 -29
v 19 0 -31
v 20 0 -31
v 20 0 -32
v 21 0 -32
v 21 0 -33
v 23 0 -33
v 23 0 -34
v 25 0 -34
v 25 0 -35
v 31 0 -35
v 31 0 -36
v 34 0 -36
v 34 0 -37
v 36 0 -37
v 36 0 -38
v 38 0 -38
v 38 0 -39
v 39 0 -39
v 39 0 -40
v 40 0 -40
v 40 0 -41
v 42 0 -41
v 42 0 -42
v 47 0 -42
v 47 0 -43
v 50 0 -43
v -29 2 50
v 17 2 50
v 17 2 48
v 18 2 48
v 18 2 47
v 19 2 47
v -29 2 46
v -28 2 46
v -28 2 43
v -27 2 43
v -27 2 41
v -26 2 41
v -26 2 39
v -25 2 39
v 19 2 38
v 20 2 38
v -25 2 37
v -24 2 37
v -24 2 35
v -23 2 35
v 20 2 35
v 21 2 35
v 21 2 34
v 22 2 34
v -23 2 33
v -22 2 33
v -22 2 32
v -21 2 32
v 22 2 32
v 24 2 32
v 24 2 31
v 25 2 31
v -21 2 30
v -20 2 30
v 25 2 30
v 26 2 30
v -20 2 29
v -19 2 29
v 26 2 29
v 28 2 29
v 28 2 28
v 30 2 28
v -19 2 27
v -18 2 27
v 30 2 27
v 32 2 27
v -18 2 26
v -17 2 26
v 32 2 26
v 33 2 26
v -17 2 25
v -16 2 25
v 33 2 25
v 35 2 25
v -16 2 24
v -15 2 24
v 35 2 24
v 36 2 24
v 36 2 23
v 38 2 23
v -15 2 22
v -14 2 22
v 38 2 22
v 41 2 22
v -14 2 21
v -13 2 21
v 41 2 21
v 47 2 21
v -13 2 20
v -12 2 20
v 47 2 20
v 50 2 20
v -12 2 19
v -11 2 19
v -11 2 17
v -10 2 17
v -10 2 16
v -9 2 16
v -9 2 15
v -8 2 15
v -8 2 14
v -7 2 14
v -7 2 13
v -6 2 13
v 0 2 13
v 3 2 13
v -6 2 12
v -4 2 12
v -3 2 12
v 0 2 12
v 3 2 12
v 6 2 12
v -4 2 11
v -3 2 11
v 6 2 11
v 7 2 11
v 7 2 10
v 10 2 10
v 10 2 9
v 12 2 9
v 12 2 8
v 13 2 8
v 13 2 7
v 14 2 7
v 14 2 6
v 15 2 6
v 15 2 5
v 16 2 5
v 16 2 4
v 17 2 4
v 17 2 2
v 18 2 2
v 17 2 -7
v 18 2 -7
v 17 2 -26
v 18 2 -26
v 18 2 -29
v 19 2 -29
v 19 2 -31
v 20 2 -31
v 20 2 -32
v 21 2 -32
v 21 2 -33
v 23 2 -33
v 23 2 -34
v 25 2 -34
v 25 2 -35
v 31 2 -35
v 31 2 -36
v 34 2 -36
v 34 2 -37
v 36 2 -37
v 36 2 -38
v 38 2 -38
v 38 2 -39
v 39 2 -39
v 39 2 -40
v 40 2 -40
v 40 2 -41
v 42 2 -41
v 42 2 -42
v 47 2 -42
v 47 2 -43
v 50 2 -43
v 17 3 50
v 50 3 50
v 17 3 48
v 18 3 48
v 18 3 47
v 19 3 47
v 19 3 38
v 20 3 38
v 20 3 35
v 21 3 35
v 21 3 34
v 22 3 34
v 22 3 32
v 24 3 32
v 24 3 31
v 25 3 31
v 25 3 30
v 26 3 30
v 26 3 29
v 28 3 29
v 28 3 28
v 30 3 28
v 30 3 27
v 32 3 27
v 32 3 26
v 33 3 26
v 33 3 25
v 35 3 25
v 35 3 24
v 36 3 24
v 36 3 23
v 38 3 23
v 38 3 22
v 41 3 22
v 41 3 21
v 47 3 21
v 47 3 20
v 50 3 20

# faces
f 3/2/1 2/2/1 1/2/1
f 4/2/1 2/2/1 3/2/1
f 7/2/1 6/2/1 5/2/1
f 8/2/1 6/2/1 7/2/1
f 11/2/1 10/2/1 9/2/1
f 12/2/1 10/2/1 11/2/1
f 15/2/1 14/2/1 13/2/1
f 16/2/1 14/2/1 15/2/1
f 19/2/1 18/2/1 17/2/1
f 20/2/1 18/2/1 19/2/1
f 23/2/1 22/2/1 21/2/1
f 24/2/1 22/2/1 23/2/1
f 27/2/1 26/2/1 25/2/1
f 28/2/1 26/2/1 27/2/1
f 31/2/1 30/2/1 29/2/1
f 32/2/1 30/2/1 31/2/1
f 35/2/1 34/2/1 33/2/1
f 36/2/1 34/2/1 35/2/1
f 39/2/1 38/2/1 37/2/1
f 40/2/1 38/2/1 39/2/1
f 43/2/1 42/2/1 41/2/1
f 44/2/1 42/2/1 43/2/1
f 47/2/1 46/2/1 45/2/1
f 48/2/1 46/2/1 47/2/1
f 51/2/1 50/2/1 49/2/1
f 52/2/1 50/2/1 51/2/1
f 55/2/1 54/2/1 53/2/1
f 56/2/1 54/2/1 55/2/1
f 59/2/1 58/2/1 57/2/1
f 60/2/1 58/2/1 59/2/1
f 63/2/1 62/2/1 61/2/1
f 64/2/1 62/2/1 63/2/1
f 67/2/1 66/2/1 65/2/1
f 68/2/1 66/2/1 67/2/1
f 71/2/1 70/2/1 69/2/1
f 72/2/1 70/2/1 71/2/1
f 75/2/1 74/2/1 73/2/1
f 76/2/1 74/2/1 75/2/1
f 79/2/1 78/2/1 77/2/1
f 80/2/1 78/2/1 79/2/1
f 83/2/1 82/2/1 81/2/1
f 84/2/1 82/2/1 83/2/1
f 87/2/1 86/2/1 85/2/1
f 88/2/1 86/2/1 87/2/1
f 91/2/1 90/2/1 89/2/1
f 92/2/1 90/2/1 91/2/1
f 95/2/1 94/2/1 93/2/1
f 96/2/1 94/2/1 95/2/1
f 99/2/1 98/2/1 97/2/1
f 100/2/1 98/2/1 99/2/1
f 103/2/1 102/2/1 101/2/1
f 104/2/1 102/2/1 103/2/1
f 107/2/1 106/2/1 105/2/1
f 108/2/1 106/2/1 107/2/1
f 111/2/1 110/2/1 109/2/1
f 112/2/1 110/2/1 111/2/1
f 115/2/1 114/2/1 113/2/1
f 116/2/1 114/2/1 115/2/1
f 119/2/1 118/2/1 117/2/1
f 120/2/1 118/2/1 119/2/1
f 123/2/1 122/2/1 121/2/1
f 124/2/1 122/2/1 123/2/1
f 127/2/1 126/2/1 125/2/1
f 128/2/1 126/2/1 127/2/1
f 131/2/1 130/2/1 129/2/1
f 132/2/1 130/2/1 131/2/1
f 135/2/1 134/2/1 133/2/1
f 136/2/1 134/2/1 135/2/1
f 143/2/1 138/2/1 137/2/1
f 144/2/1 138/2/1 143/2/1
f 145/2/1 140/2/1 139/2/1
f 146/2/1 140/2/1 145/2/1
f 147/1/1 142/1/1 141/1/1
f 148/1/1 142/1/1 147/1/1
f 155/2/1 150/2/1 149/2/1
f 156/2/1 150/2/1 155/2/1
f 157/2/1 152/2/1 151/2/1
f 158/2/1 152/2/1 157/2/1
f 159/1/1 154/1/1 153/1/1
f 160/1/1 154/1/1 159/1/1
f 165/2/1 162/2/1 161/2/1
f 166/2/1 162/2/1 165/2/1
f 167/1/1 164/1/1 163/1/1
f 168/1/1 164/1/1 167/1/1
f 173/2/1 170/2/1 169/2/1
f 174/2/1 170/2/1 173/2/1
f 175/1/1 172/1/1 171/1/1
f 176/1/1 172/1/1 175/1/1
f 181/2/1 178/2/1 177/2/1
f 182/2/1 178/2/1 181/2/1
f 183/1/1 180/1/1 179/1/1
f 184/1/1 180/1/1 183/1/1
f 187/1/1 186/1/1 185/1/1
f 188/1/1 186/1/1 187/1/1
f 191/2/1 190/2/1 189/2/1
f 192/2/1 190/2/1 191/2/1
f 195/1/1 194/1/1 193/1/1
f 196/1/1 194/1/1 195/1/1
f 201/2/1 198/2/1 197/2/1
f 202/2/1 198/2/1 201/2/1
f 203/1/1 200/1/1 199/1/1
f 204/1/1 200/1/1 203/1/1
f 207/1/1 206/1/1 205/1/1
f 208/1/1 206/1/1 207/1/1
f 211/1/1 210/1/1 209/1/1
f 212/1/1 210/1/1 211/1/1
f 215/1/1 214/1/1 213/1/1
f 216/1/1 214/1/1 215/1/1
f 219/2/1 218/2/1 217/2/1
f 220/2/1 218/2/1 219/2/1
f 223/1/1 222/1/1 221/1/1
f 224/1/1 222/1/1 223/1/1
f 227/1/1 226/1/1 225/1/1
f 228/1/1 226/1/1 227/1/1
f 231/2/1 230/2/1 229/2/1
f 232/2/1 230/2/1 231/2/1
f 235/1/1 234/1/1 233/1/1
f 236/1/1 234/1/1 235/1/1
f 241/2/1 238/2/1 237/2/1
f 242/2/1 238/2/1 241/2/1
f 243/1/1 240/1/1 239/1/1
f 244/1/1 240/1/1 243/1/1
f 249/2/1 246/2/1 245/2/1
f 250/2/1 246/2/1 249/2/1
f 251/1/1 248/1/1 247/1/1
f 252/1/1 248/1/1 251/1/1
f 255/2/1 254/2/1 253/2/1
f 256/2/1 254/2/1 255/2/1
f 259/2/1 258/2/1 257/2/1
f 260/2/1 258/2/1 259/2/1
f 263/1/1 262/1/1 261/1/1
f 264/1/1 262/1/1 263/1/1
f 267/2/1 266/2/1 265/2/1
f 268/2/1 266/2/1 267/2/1
f 273/2/1 270/2/1 269/2/1
f 274/2/1 270/2/1 273/2/1
f 275/1/1 272/1/1 271/1/1
f 276/1/1 272/1/1 275/1/1
f 277/2/2 278/2/2 279/2/2
f 279/2/2 278/2/2 280/2/2
f 281/2/2 282/2/2 283/2/2
f 283/2/2 282/2/2 284/2/2
f 285/2/2 286/2/2 287/2/2
f 287/2/2 286/2/2 288/2/2
f 288/2/2 286/2/2 289/2/2
f 287/1/2 288/1/2 290/1/2
f 290/1/2 288/1/2 291/1/2
f 294/2/3 293/2/3 292/2/3
f 296/2/3 294/2/3 292/2/3
f 297/1/3 295/1/3 294/1/3
f 297/2/3 294/2/3 296/2/3
f 298/1/3 295/1/3 297/1/3
f 301/2/3 300/2/3 299/2/3
f 302/2/3 300/2/3 301/2/3
f 303/1/4 304/1/4 305/1/4
f 305/1/4 304/1/4 306/1/4
f 307/1/4 308/1/4 309/1/4
f 309/1/4 308/1/4 310/1/4
f 311/2/4 312/2/4 313/2/4
f 313/2/4 312/2/4 314/2/4
f 315/2/4 316/2/4 317/2/4
f 317/2/4 316/2/4 318/2/4
f 319/2/4 320/2/4 321/2/4
f 321/2/4 320/2/4 322/2/4
f 323/2/4 324/2/4 325/2/4
f 325/2/4 324/2/4 326/2/4
f 327/1/4 328/1/4 329/1/4
f 329/1/4 328/1/4 330/1/4
f 331/2/4 332/2/4 333/2/4
f 333/2/4 332/2/4 334/2/4
f 335/2/4 336/2/4 337/2/4
f 337/2/4 336/2/4 338/2/4
f 339/1/4 340/1/4 341/1/4
f 341/1/4 340/1/4 342/1/4
f 343/1/4 344/1/4 345/1/4
f 345/1/4 344/1/4 346/1/4
f 347/2/4 348/2/4 349/2/4
f 349/2/4 348/2/4 350/2/4
f 351/2/4 352/2/4 353/2/4
f 353/2/4 352/2/4 354/2/4
f 355/1/4 356/1/4 357/1/4
f 357/1/4 356/1/4 358/1/4
f 359/1/4 360/1/4 361/1/4
f 361/1/4 360/1/4 362/1/4
f 363/2/4 364/2/4 365/2/4
f 365/2/4 364/2/4 366/2/4
f 367/1/4 368/1/4 369/1/4
f 369/1/4 368/1/4 370/1/4
f 371/2/4 372/2/4 373/2/4
f 373/2/4 372/2/4 374/2/4
f 375/1/4 376/1/4 377/1/4
f 377/1/4 376/1/4 378/1/4
f 379/1/4 380/1/4 381/1/4
f 381/1/4 380/1/4 382/1/4
f 383/2/4 384/2/4 385/2/4
f 385/2/4 384/2/4 386/2/4
f 387/1/4 388/1/4 389/1/4
f 389/1/4 388/1/4 390/1/4
f 391/2/4 392/2/4 393/2/4
f 393/2/4 392/2/4 394/2/4
f 395/1/4 396/1/4 397/1/4
f 397/1/4 396/1/4 398/1/4
f 399/2/4 400/2/4 401/2/4
f 401/2/4 400/2/4 402/2/4
f 403/1/4 404/1/4 405/1/4
f 405/1/4 404/1/4 406/1/4
f 407/2/4 408/2/4 409/2/4
f 409/2/4 408/2/4 410/2/4
f 411/1/4 412/1/4 413/1/4
f 413/1/4 412/1/4 414/1/4
f 415/1/4 416/1/4 417/1/4
f 417/1/4 416/1/4 418/1/4
f 419/2/4 420/2/4 421/2/4
f 421/2/4 420/2/4 422/2/4
f 423/1/4 424/1/4 425/1/4
f 425/1/4 424/1/4 426/1/4
f 427/2/4 428/2/4 429/2/4
f 429/2/4 428/2/4 430/2/4
f 431/1/4 432/1/4 433/1/4
f 433/1/4 432/1/4 434/1/4
f 435/2/4 436/2/4 437/2/4
f 437/2/4 436/2/4 438/2/4
f 439/1/4 440/1/4 441/1/4
f 441/1/4 440/1/4 442/1/4
f 443/2/4 444/2/4 445/2/4
f 445/2/4 444/2/4 446/2/4
f 447/2/4 448/2/4 449/2/4
f 449/2/4 448/2/4 450/2/4
f 451/2/4 452/2/4 453/2/4
f 453/2/4 452/2/4 454/2/4
f 455/2/4 456/2/4 457/2/4
f 457/2/4 456/2/4 458/2/4
f 459/2/4 460/2/4 461/2/4
f 461/2/4 460/2/4 462/2/4
f 463/2/4 464/2/4 465/2/4
f 465/2/4 464/2/4 466/2/4
f 467/2/4 468/2/4 469/2/4
f 469/2/4 468/2/4 470/2/4
f 471/2/4 472/2/4 473/2/4
f 473/2/4 472/2/4 474/2/4
f 475/2/4 476/2/4 477/2/4
f 477/2/4 476/2/4 478/2/4
f 479/2/4 480/2/4 481/2/4
f 481/2/4 480/2/4 482/2/4
f 483/2/4 484/2/4 485/2/4
f 485/2/4 484/2/4 486/2/4
f 487/2/4 488/2/4 489/2/4
f 489/2/4 488/2/4 490/2/4
f 491/2/4 492/2/4 493/2/4
f 493/2/4 492/2/4 494/2/4
f 495/2/4 496/2/4 497/2/4
f 497/2/4 496/2/4 498/2/4
f 499/2/4 500/2/4 501/2/4
f 501/2/4 500/2/4 502/2/4
f 503/2/4 504/2/4 505/2/4
f 505/2/4 504/2/4 506/2/4
f 507/2/4 508/2/4 509/2/4
f 509/2/4 508/2/4 510/2/4
f 511/2/4 512/2/4 513/2/4
f 513/2/4 512/2/4 514/2/4
f 515/2/4 516/2/4 517/2/4
f 517/2/4 516/2/4 518/2/4
f 519/2/4 520/2/4 521/2/4
f 521/2/4 520/2/4 522/2/4
f 523/2/4 524/2/4 525/2/4
f 525/2/4 524/2/4 526/2/4
f 527/2/4 528/2/4 529/2/4
f 529/2/4 528/2/4 530/2/4
f 531/2/4 532/2/4 533/2/4
f 533/2/4 532/2/4 534/2/4
f 535/2/4 536/2/4 537/2/4
f 537/2/4 536/2/4 538/2/4
f 539/2/4 540/2/4 541/2/4
f 541/2/4 540/2/4 542/2/4
f 543/2/4 544/2/4 545/2/4
f 545/2/4 544/2/4 546/2/4
f 547/2/4 548/2/4 549/2/4
f 549/2/4 548/2/4 550/2/4
f 551/2/4 552/2/4 553/2/4
f 553/2/4 552/2/4 554/2/4
f 555/2/4 556/2/4 557/2/4
f 557/2/4 556/2/4 558/2/4
f 559/2/4 560/2/4 561/2/4
f 561/2/4 560/2/4 562/2/4
f 563/2/4 564/2/4 565/2/4
f 565/2/4 564/2/4 566/2/4
f 567/2/4 568/2/4 569/2/4
f 569/2/4 568/2/4 570/2/4
f 571/2/4 572/2/4 573/2/4
f 573/2/4 572/2/4 574/2/4
f 575/2/4 576/2/4 577/2/4
f 577/2/4 576/2/4 578/2/4
f 579/2/4 580/2/4 581/2/4
f 581/2/4 580/2/4 582/2/4
f 585/2/5 584/2/5 583/2/5
f 586/2/5 584/2/5 585/2/5
f 587/2/5 584/2/5 586/2/5
f 588/2/5 584/2/5 587/2/5
f 589/2/5 584/2/5 588/2/5
f 590/2/5 584/2/5 589/2/5
f 591/2/5 584/2/5 590/2/5
f 592/2/5 584/2/5 591/2/5
f 593/2/5 584/2/5 592/2/5
f 594/2/5 584/2/5 593/2/5
f 595/2/5 584/2/5 594/2/5
f 596/2/5 584/2/5 595/2/5
f 597/2/5 584/2/5 596/2/5
f 598/2/5 584/2/5 597/2/5
f 599/2/5 584/2/5 598/2/5
f 600/2/5 584/2/5 599/2/5
f 601/2/5 584/2/5 600/2/5
f 602/2/5 584/2/5 601/2/5
f 603/2/5 584/2/5 602/2/5
f 604/2/5 584/2/5 603/2/5
f 605/2/5 584/2/5 604/2/5
f 606/2/5 584/2/5 605/2/5
f 607/2/5 584/2/5 606/2/5
f 608/2/5 584/2/5 607/2/5
f 609/2/5 584/2/5 608/2/5
f 610/2/5 584/2/5 609/2/5
f 611/2/5 584/2/5 610/2/5
f 612/2/5 584/2/5 611/2/5
f 613/2/5 584/2/5 612/2/5
f 614/2/5 584/2/5 613/2/5
f 615/2/5 584/2/5 614/2/5
f 616/2/5 584/2/5 615/2/5
f 617/2/5 584/2/5 616/2/5
f 618/2/5 584/2/5 617/2/5
f 619/2/5 584/2/5 618/2/5
f 620/2/5 584/2/5 619/2/5
f 621/2/5 584/2/5 620/2/5
f 622/2/5 584/2/5 621/2/5
f 623/2/5 584/2/5 622/2/5
f 624/2/5 584/2/5 623/2/5
f 625/2/5 584/2/5 624/2/5
f 626/2/5 584/2/5 625/2/5
f 627/2/5 584/2/5 626/2/5
f 628/2/5 584/2/5 627/2/5
f 629/2/5 584/2/5 628/2/5
f 630/2/5 584/2/5 629/2/5
f 631/2/5 584/2/5 630/2/5
f 632/2/5 584/2/5 631/2/5
f 633/2/5 631/2/5 630/2/5
f 634/2/5 631/2/5 633/2/5
f 635/2/5 631/2/5 634/2/5
f 636/2/5 631/2/5 635/2/5
f 637/2/5 584/2/5 632/2/5
f 638/2/5 584/2/5 637/2/5
f 639/2/5 635/2/5 634/2/5
f 640/2/5 635/2/5 639/2/5
f 641/2/5 584/2/5 638/2/5
f 642/2/5 584/2/5 641/2/5
f 643/2/5 584/2/5 642/2/5
f 644/2/5 584/2/5 643/2/5
f 645/2/5 584/2/5 644/2/5
f 646/2/5 584/2/5 645/2/5
f 647/2/5 584/2/5 646/2/5
f 648/2/5 584/2/5 647/2/5
f 649/2/5 584/2/5 648/2/5
f 650/2/5 584/2/5 649/2/5
f 651/2/5 584/2/5 650/2/5
f 652/2/5 584/2/5 651/2/5
f 653/2/5 584/2/5 652/2/5
f 654/2/5 584/2/5 653/2/5
f 655/2/5 584/2/5 654/2/5
f 656/2/5 584/2/5 655/2/5
f 657/2/5 584/2/5 656/2/5
f 658/2/5 584/2/5 657/2/5
f 660/2/5 584/2/5 658/2/5
f 661/2/5 660/2/5 659/2/5
f 662/2/5 584/2/5 660/2/5
f 662/2/5 660/2/5 661/2/5
f 663/2/5 584/2/5 662/2/5
f 664/2/5 584/2/5 663/2/5
f 665/2/5 584/2/5 664/2/5
f 666/2/5 584/2/5 665/2/5
f 667/2/5 584/2/5 666/2/5
f 668/2/5 584/2/5 667/2/5
f 669/2/5 584/2/5 668/2/5
f 670/2/5 584/2/5 669/2/5
f 671/2/5 584/2/5 670/2/5
f 672/2/5 584/2/5 671/2/5
f 673/2/5 584/2/5 672/2/5
f 674/2/5 584/2/5 673/2/5
f 675/2/5 584/2/5 674/2/5
f 676/2/5 584/2/5 675/2/5
f 677/2/5 584/2/5 676/2/5
f 678/2/5 584/2/5 677/2/5
f 679/2/5 584/2/5 678/2/5
f 680/2/5 584/2/5 679/2/5
f 681/2/5 584/2/5 680/2/5
f 682/2/5 584/2/5 681/2/5
f 683/2/5 584/2/5 682/2/5
f 684/2/5 584/2/5 683/2/5
f 685/2/5 584/2/5 684/2/5
f 686/2/5 584/2/5 685/2/5
f 687/2/5 584/2/5 686/2/5
f 688/2/5 584/2/5 687/2/5
f 689/2/5 584/2/5 688/2/5
f 690/2/5 584/2/5 689/2/5
f 691/2/6 692/2/6 693/2/6
f 693/2/6 694/2/6 695/2/6
f 691/2/6 693/2/6 697/2/6
f 695/2/6 696/2/6 697/2/6
f 693/2/6 695/2/6 697/2/6
f 697/2/6 696/2/6 698/2/6
f 698/2/6 696/2/6 699/2/6
f 699/2/6 696/2/6 700/2/6
f 700/2/6 696/2/6 701/2/6
f 701/2/6 696/2/6 702/2/6
f 702/2/6 696/2/6 703/2/6
f 703/2/6 696/2/6 704/2/6
f 704/2/6 696/2/6 705/2/6
f 704/2/6 705/2/6 707/2/6
f 705/2/6 706/2/6 707/2/6
f 707/2/6 706/2/6 708/2/6
f 708/2/6 706/2/6 709/2/6
f 709/2/6 706/2/6 710/2/6
f 710/2/6 706/2/6 711/2/6
f 711/2/6 712/2/6 713/2/6
f 710/2/6 711/2/6 713/2/6
f 710/2/6 713/2/6 715/2/6
f 713/2/6 714/2/6 715/2/6
f 715/2/6 714/2/6 716/2/6
f 716/2/6 714/2/6 717/2/6
f 717/2/6 714/2/6 718/2/6
f 718/2/6 714/2/6 719/2/6
f 719/2/6 720/2/6 721/2/6
f 718/2/6 719/2/6 721/2/6
f 718/2/6 721/2/6 723/2/6
f 721/2/6 722/2/6 723/2/6
f 723/2/6 722/2/6 724/2/6
f 724/2/6 722/2/6 725/2/6
f 725/2/6 726/2/6 727/2/6
f 724/2/6 725/2/6 727/2/6
f 727/2/6 726/2/6 728/2/6
f 728/2/6 726/2/6 729/2/6
f 729/2/6 730/2/6 731/2/6
f 728/2/6 729/2/6 731/2/6
f 728/2/6 731/2/6 733/2/6
f 731/2/6 732/2/6 733/2/6
f 733/2/6 732/2/6 734/2/6
f 734/2/6 732/2/6 735/2/6
f 735/2/6 736/2/6 737/2/6
f 734/2/6 735/2/6 737/2/6
f 737/2/6 736/2/6 738/2/6
f 738/2/6 736/2/6 739/2/6
f 739/2/6 740/2/6 741/2/6
f 738/2/6 739/2/6 741/2/6
f 741/2/6 740/2/6 742/2/6
f 742/2/6 740/2/6 743/2/6
f 743/2/6 744/2/6 745/2/6
f 742/2/6 743/2/6 745/2/6
f 745/2/6 744/2/6 746/2/6
f 746/2/6 744/2/6 747/2/6
f 747/2/6 748/2/6 749/2/6
f 746/2/6 747/2/6 749/2/6
f 746/2/6 749/2/6 751/2/6
f 749/2/6 750/2/6 751/2/6
f 751/2/6 750/2/6 752/2/6
f 752/2/6 750/2/6 753/2/6
f 753/2/6 754/2/6 755/2/6
f 752/2/6 753/2/6 755/2/6
f 755/2/6 754/2/6 756/2/6
f 756/2/6 754/2/6 757/2/6
f 757/2/6 758/2/6 759/2/6
f 756/2/6 757/2/6 759/2/6
f 759/2/6 758/2/6 760/2/6
f 760/2/6 758/2/6 761/2/6
f 761/2/6 762/2/6 763/2/6
f 760/2/6 761/2/6 763/2/6
f 763/2/6 762/2/6 764/2/6
f 764/2/6 762/2/6 765/2/6
f 765/2/6 762/2/6 766/2/6
f 766/2/6 762/2/6 767/2/6
f 767/2/6 762/2/6 768/2/6
f 768/2/6 762/2/6 769/2/6
f 769/2/6 762/2/6 770/2/6
f 770/2/6 762/2/6 771/2/6
f 771/2/6 762/2/6 772/2/6
f 772/2/6 762/2/6 773/2/6
f 773/2/6 762/2/6 774/2/6
f 774/2/6 762/2/6 775/2/6
f 775/2/6 762/2/6 776/2/6
f 774/2/6 775/2/6 777/2/6
f 777/2/6 775/2/6 778/2/6
f 778/2/6 775/2/6 779/2/6
f 779/2/6 775/2/6 780/2/6
f 776/2/6 762/2/6 781/2/6
f 781/2/6 762/2/6 782/2/6
f 778/2/6 779/2/6 783/2/6
f 783/2/6 779/2/6 784/2/6
f 782/2/6 762/2/6 785/2/6
f 785/2/6 762/2/6 786/2/6
f 786/2/6 762/2/6 787/2/6
f 787/2/6 762/2/6 788/2/6
f 788/2/6 762/2/6 789/2/6
f 789/2/6 762/2/6 790/2/6
f 790/2/6 762/2/6 791/2/6
f 791/2/6 762/2/6 792/2/6
f 792/2/6 762/2/6 793/2/6
f 793/2/6 762/2/6 794/2/6
f 794/2/6 762/2/6 795/2/6
f 795/2/6 762/2/6 796/2/6
f 796/2/6 762/2/6 797/2/6
f 797/2/6 762/2/6 798/2/6
f 798/2/6 762/2/6 799/2/6
f 799/2/6 762/2/6 800/2/6
f 800/2/6 762/2/6 801/2/6
f 801/2/6 762/2/6 802/2/6
f 802/2/6 762/2/6 804/2/6
f 803/2/6 804/2/6 805/2/6
f 804/2/6 762/2/6 806/2/6
f 805/2/6 804/2/6 806/2/6
f 806/2/6 762/2/6 807/2/6
f 807/2/6 762/2/6 808/2/6
f 808/2/6 762/2/6 809/2/6
f 809/2/6 762/2/6 810/2/6
f 810/2/6 762/2/6 811/2/6
f 811/2/6 762/2/6 812/2/6
f 812/2/6 762/2/6 813/2/6
f 813/2/6 762/2/6 814/2/6
f 814/2/6 762/2/6 815/2/6
f 815/2/6 762/2/6 816/2/6
f 816/2/6 762/2/6 817/2/6
f 817/2/6 762/2/6 818/2/6
f 818/2/6 762/2/6 819/2/6
f 819/2/6 762/2/6 820/2/6
f 820/2/6 762/2/6 821/2/6
f 821/2/6 762/2/6 822/2/6
f 822/2/6 762/2/6 823/2/6
f 823/2/6 762/2/6 824/2/6
f 824/2/6 762/2/6 825/2/6
f 825/2/6 762/2/6 826/2/6
f 826/2/6 762/2/6 827/2/6
f 827/2/6 762/2/6 828/2/6
f 828/2/6 762/2/6 829/2/6
f 829/2/6 762/2/6 830/2/6
f 830/2/6 762/2/6 831/2/6
f 831/2/6 762/2/6 832/2/6
f 832/2/6 762/2/6 833/2/6
f 833/2/6 762/2/6 834/2/6
f 835/1/6 836/1/6 837/1/6
f 837/1/6 836/1/6 838/1/6
f 838/1/6 836/1/6 839/1/6
f 839/1/6 836/1/6 840/1/6
f 840/1/6 836/1/6 841/1/6
f 841/1/6 836/1/6 842/1/6
f 842/1/6 836/1/6 843/1/6
f 843/1/6 836/1/6 844/1/6
f 844/1/6 836/1/6 845/1/6
f 845/1/6 836/1/6 846/1/6
f 846/1/6 836/1/6 847/1/6
f 847/1/6 836/1/6 848/1/6
f 848/1/6 836/1/6 849/1/6
f 849/1/6 836/1/6 850/1/6
f 850/1/6 836/1/6 851/1/6
f 851/1/6 836/1/6 852/1/6
f 852/1/6 836/1/6 853/1/6
f 853/1/6 836/1/6 854/1/6
f 854/1/6 836/1/6 855/1/6
f 855/1/6 836/1/6 856/1/6
f 856/1/6 836/1/6 857/1/6
f 857/1/6 836/1/6 858/1/6
f 858/1/6 836/1/6 859/1/6
f 859/1/6 836/1/6 860/1/6
f 860/1/6 836/1/6 861/1/6
f 861/1/6 836/1/6 862/1/6
f 862/1/6 836/1/6 863/1/6
f 863/1/6 836/1/6 864/1/6
f 864/1/6 836/1/6 865/1/6
f 865/1/6 836/1/6 866/1/6
f 866/1/6 836/1/6 867/1/6
f 867/1/6 836/1/6 868/1/6
f 868/1/6 836/1/6 869/1/6
f 869/1/6 836/1/6 870/1/6
f 870/1/6 836/1/6 871/1/6
f 871/1/6 836/1/6 872/1/6
