# MagicaVoxel @ Ephtracy

# group
g desk-action-figure3

# material
mtllib desk-action-figure3.mtl
usemtl palette

# normals
vn -1 0 0
vn 1 0 0
vn 0 0 1
vn 0 0 -1
vn 0 -1 0
vn 0 1 0

# texcoords
vt 0.970703 0.5
vt 0.990234 0.5

# verts
v -4 4 1
v -4 4 -2
v -4 5 1
v -4 5 -1
v -4 7 -1
v -4 7 -2
v -2 0 -0
v -2 0 -2
v -2 1 -0
v -2 1 -1
v -2 3 -1
v -2 3 -2
v -2 4 -1
v -2 4 -2
v -2 5 -1
v -2 5 -2
v -2 6 -1
v -2 6 -2
v -2 7 -0
v -2 7 -1
v -2 7 -2
v -2 8 -0
v -2 8 -1
v -2 8 -2
v -2 8 -3
v -2 9 -0
v -2 9 -1
v -2 10 -0
v -2 10 -3
v -1 7 -2
v -1 7 -3
v -1 8 -2
v -1 8 -3
v 0 0 -0
v 0 0 -2
v 0 1 -0
v 0 1 -1
v 0 3 -1
v 0 3 -2
v 2 4 1
v 2 4 -2
v 2 5 1
v 2 5 -1
v 2 6 -1
v 2 6 -2
v -3 4 1
v -3 4 -2
v -3 5 1
v -3 5 -1
v -3 6 -1
v -3 6 -2
v -1 0 -0
v -1 0 -2
v -1 1 -0
v -1 1 -1
v -1 3 -1
v -1 3 -2
v 0 7 -2
v 0 7 -3
v 0 8 -2
v 0 8 -3
v 1 0 -0
v 1 0 -2
v 1 1 -0
v 1 1 -1
v 1 3 -1
v 1 3 -2
v 1 4 -1
v 1 4 -2
v 1 5 -1
v 1 5 -2
v 1 6 -1
v 1 6 -2
v 1 7 -0
v 1 7 -1
v 1 7 -2
v 1 8 -0
v 1 8 -1
v 1 8 -2
v 1 8 -3
v 1 9 -0
v 1 9 -1
v 1 10 -0
v 1 10 -3
v 3 4 1
v 3 4 -2
v 3 5 1
v 3 5 -1
v 3 7 -1
v 3 7 -2
v -4 4 1
v -4 5 1
v -3 4 1
v -3 5 1
v 2 4 1
v 2 5 1
v 3 4 1
v 3 5 1
v -2 0 -0
v -2 1 -0
v -2 7 -0
v -2 8 -0
v -2 9 -0
v -2 10 -0
v -1 0 -0
v -1 1 -0
v -1 8 -0
v -1 9 -0
v 0 0 -0
v 0 1 -0
v 0 8 -0
v 0 9 -0
v 1 0 -0
v 1 1 -0
v 1 7 -0
v 1 8 -0
v 1 9 -0
v 1 10 -0
v -4 5 -1
v -4 7 -1
v -3 5 -1
v -3 6 -1
v -2 1 -1
v -2 3 -1
v -2 4 -1
v -2 5 -1
v -2 6 -1
v -2 7 -1
v -1 1 -1
v -1 3 -1
v -1 4 -1
v -1 5 -1
v -1 6 -1
v 0 1 -1
v 0 3 -1
v 0 4 -1
v 0 5 -1
v 0 6 -1
v 1 1 -1
v 1 3 -1
v 1 4 -1
v 1 5 -1
v 1 6 -1
v 1 7 -1
v 2 5 -1
v 2 6 -1
v 3 5 -1
v 3 7 -1
v -4 4 -2
v -4 7 -2
v -3 4 -2
v -3 6 -2
v -2 0 -2
v -2 3 -2
v -2 4 -2
v -2 5 -2
v -2 6 -2
v -2 7 -2
v -2 8 -2
v -1 0 -2
v -1 3 -2
v -1 4 -2
v -1 5 -2
v -1 6 -2
v -1 7 -2
v -1 8 -2
v 0 0 -2
v 0 3 -2
v 0 4 -2
v 0 5 -2
v 0 6 -2
v 0 7 -2
v 0 8 -2
v 1 0 -2
v 1 3 -2
v 1 4 -2
v 1 5 -2
v 1 6 -2
v 1 7 -2
v 1 8 -2
v 2 4 -2
v 2 6 -2
v 3 4 -2
v 3 7 -2
v -2 8 -3
v -2 10 -3
v -1 7 -3
v -1 8 -3
v 0 7 -3
v 0 8 -3
v 1 8 -3
v 1 10 -3
v -2 0 -0
v -1 0 -0
v 0 0 -0
v 1 0 -0
v -2 0 -2
v -1 0 -2
v 0 0 -2
v 1 0 -2
v -1 3 -1
v 0 3 -1
v -1 3 -2
v 0 3 -2
v -4 4 1
v -3 4 1
v 2 4 1
v 3 4 1
v -4 4 -2
v -3 4 -2
v 2 4 -2
v 3 4 -2
v -3 6 -1
v -2 6 -1
v 1 6 -1
v 2 6 -1
v -3 6 -2
v -2 6 -2
v 1 6 -2
v 2 6 -2
v -2 7 -0
v 1 7 -0
v -2 7 -1
v 1 7 -1
v -1 7 -2
v 0 7 -2
v -1 7 -3
v 0 7 -3
v -2 8 -2
v -1 8 -2
v 0 8 -2
v 1 8 -2
v -2 8 -3
v -1 8 -3
v 0 8 -3
v 1 8 -3
v -2 1 -0
v -1 1 -0
v 0 1 -0
v 1 1 -0
v -2 1 -1
v -1 1 -1
v 0 1 -1
v 1 1 -1
v -4 5 1
v -3 5 1
v 2 5 1
v 3 5 1
v -4 5 -1
v -3 5 -1
v 2 5 -1
v 3 5 -1
v -4 7 -1
v -2 7 -1
v 1 7 -1
v 3 7 -1
v -4 7 -2
v -2 7 -2
v 1 7 -2
v 3 7 -2
v -2 10 -0
v 1 10 -0
v -2 10 -3
v 1 10 -3

# faces
f 3/1/1 2/1/1 1/1/1
f 4/1/1 2/1/1 3/1/1
f 5/1/1 2/1/1 4/1/1
f 6/1/1 2/1/1 5/1/1
f 9/1/1 8/1/1 7/1/1
f 10/1/1 8/1/1 9/1/1
f 11/1/1 8/1/1 10/1/1
f 12/1/1 8/1/1 11/1/1
f 13/2/1 12/2/1 11/2/1
f 14/2/1 12/2/1 13/2/1
f 15/1/1 14/1/1 13/1/1
f 16/1/1 14/1/1 15/1/1
f 17/2/1 16/2/1 15/2/1
f 18/2/1 16/2/1 17/2/1
f 22/1/1 20/1/1 19/1/1
f 22/1/1 21/1/1 20/1/1
f 23/1/1 21/1/1 22/1/1
f 24/1/1 21/1/1 23/1/1
f 26/2/1 23/2/1 22/2/1
f 27/1/1 24/1/1 23/1/1
f 27/2/1 23/2/1 26/2/1
f 27/1/1 25/1/1 24/1/1
f 28/1/1 27/1/1 26/1/1
f 29/1/1 25/1/1 27/1/1
f 29/1/1 27/1/1 28/1/1
f 32/1/1 31/1/1 30/1/1
f 33/1/1 31/1/1 32/1/1
f 36/1/1 35/1/1 34/1/1
f 37/1/1 35/1/1 36/1/1
f 38/1/1 35/1/1 37/1/1
f 39/1/1 35/1/1 38/1/1
f 42/1/1 41/1/1 40/1/1
f 43/1/1 41/1/1 42/1/1
f 44/1/1 41/1/1 43/1/1
f 45/1/1 41/1/1 44/1/1
f 46/1/2 47/1/2 48/1/2
f 48/1/2 47/1/2 49/1/2
f 49/1/2 47/1/2 50/1/2
f 50/1/2 47/1/2 51/1/2
f 52/1/2 53/1/2 54/1/2
f 54/1/2 53/1/2 55/1/2
f 55/1/2 53/1/2 56/1/2
f 56/1/2 53/1/2 57/1/2
f 58/1/2 59/1/2 60/1/2
f 60/1/2 59/1/2 61/1/2
f 62/1/2 63/1/2 64/1/2
f 64/1/2 63/1/2 65/1/2
f 65/1/2 63/1/2 66/1/2
f 66/1/2 63/1/2 67/1/2
f 66/2/2 67/2/2 68/2/2
f 68/2/2 67/2/2 69/2/2
f 68/1/2 69/1/2 70/1/2
f 70/1/2 69/1/2 71/1/2
f 70/2/2 71/2/2 72/2/2
f 72/2/2 71/2/2 73/2/2
f 74/1/2 75/1/2 77/1/2
f 75/1/2 76/1/2 77/1/2
f 77/1/2 76/1/2 78/1/2
f 78/1/2 76/1/2 79/1/2
f 77/2/2 78/2/2 81/2/2
f 78/1/2 79/1/2 82/1/2
f 81/2/2 78/2/2 82/2/2
f 79/1/2 80/1/2 82/1/2
f 81/1/2 82/1/2 83/1/2
f 82/1/2 80/1/2 84/1/2
f 83/1/2 82/1/2 84/1/2
f 85/1/2 86/1/2 87/1/2
f 87/1/2 86/1/2 88/1/2
f 88/1/2 86/1/2 89/1/2
f 89/1/2 86/1/2 90/1/2
f 93/1/3 92/1/3 91/1/3
f 94/1/3 92/1/3 93/1/3
f 97/1/3 96/1/3 95/1/3
f 98/1/3 96/1/3 97/1/3
f 105/1/3 100/1/3 99/1/3
f 106/1/3 100/1/3 105/1/3
f 107/1/3 102/1/3 101/1/3
f 107/2/3 103/2/3 102/2/3
f 108/1/3 104/1/3 103/1/3
f 108/2/3 103/2/3 107/2/3
f 111/1/3 107/1/3 101/1/3
f 111/1/3 108/1/3 107/1/3
f 112/1/3 104/1/3 108/1/3
f 112/1/3 108/1/3 111/1/3
f 113/1/3 110/1/3 109/1/3
f 114/1/3 110/1/3 113/1/3
f 115/1/3 111/1/3 101/1/3
f 116/2/3 112/2/3 111/2/3
f 116/1/3 111/1/3 115/1/3
f 117/1/3 104/1/3 112/1/3
f 117/2/3 112/2/3 116/2/3
f 118/1/3 104/1/3 117/1/3
f 121/1/3 120/1/3 119/1/3
f 122/1/3 120/1/3 121/1/3
f 127/1/3 120/1/3 122/1/3
f 128/1/3 120/1/3 127/1/3
f 129/1/3 124/1/3 123/1/3
f 130/2/3 125/2/3 124/2/3
f 130/1/3 124/1/3 129/1/3
f 131/1/3 126/1/3 125/1/3
f 131/2/3 125/2/3 130/2/3
f 132/2/3 127/2/3 126/2/3
f 132/1/3 126/1/3 131/1/3
f 133/1/3 128/1/3 127/1/3
f 133/2/3 127/2/3 132/2/3
f 135/1/3 131/1/3 130/1/3
f 135/1/3 133/1/3 132/1/3
f 135/1/3 132/1/3 131/1/3
f 136/1/3 133/1/3 135/1/3
f 137/1/3 133/1/3 136/1/3
f 138/1/3 128/1/3 133/1/3
f 138/1/3 133/1/3 137/1/3
f 139/1/3 135/1/3 134/1/3
f 140/2/3 136/2/3 135/2/3
f 140/1/3 135/1/3 139/1/3
f 141/1/3 137/1/3 136/1/3
f 141/2/3 136/2/3 140/2/3
f 142/2/3 138/2/3 137/2/3
f 142/1/3 137/1/3 141/1/3
f 143/1/3 128/1/3 138/1/3
f 143/2/3 138/2/3 142/2/3
f 144/1/3 128/1/3 143/1/3
f 146/1/3 144/1/3 143/1/3
f 147/1/3 146/1/3 145/1/3
f 148/1/3 144/1/3 146/1/3
f 148/1/3 146/1/3 147/1/3
f 149/1/4 150/1/4 151/1/4
f 151/1/4 150/1/4 152/1/4
f 152/1/4 150/1/4 157/1/4
f 157/1/4 150/1/4 158/1/4
f 153/1/4 154/1/4 160/1/4
f 154/2/4 155/2/4 161/2/4
f 160/1/4 154/1/4 161/1/4
f 155/1/4 156/1/4 162/1/4
f 161/2/4 155/2/4 162/2/4
f 156/2/4 157/2/4 163/2/4
f 162/1/4 156/1/4 163/1/4
f 158/1/4 159/1/4 164/1/4
f 163/2/4 157/2/4 164/2/4
f 157/1/4 158/1/4 164/1/4
f 164/1/4 159/1/4 165/1/4
f 165/1/4 159/1/4 166/1/4
f 162/1/4 163/1/4 168/1/4
f 164/1/4 165/1/4 168/1/4
f 163/1/4 164/1/4 168/1/4
f 161/1/4 162/1/4 168/1/4
f 168/1/4 165/1/4 169/1/4
f 169/1/4 165/1/4 170/1/4
f 170/1/4 165/1/4 171/1/4
f 171/1/4 165/1/4 172/1/4
f 167/1/4 168/1/4 174/1/4
f 168/2/4 169/2/4 175/2/4
f 174/1/4 168/1/4 175/1/4
f 169/1/4 170/1/4 176/1/4
f 175/2/4 169/2/4 176/2/4
f 170/2/4 171/2/4 177/2/4
f 176/1/4 170/1/4 177/1/4
f 172/1/4 173/1/4 178/1/4
f 177/2/4 171/2/4 178/2/4
f 171/1/4 172/1/4 178/1/4
f 178/1/4 173/1/4 179/1/4
f 179/1/4 173/1/4 180/1/4
f 178/1/4 179/1/4 182/1/4
f 181/1/4 182/1/4 183/1/4
f 182/1/4 179/1/4 184/1/4
f 183/1/4 182/1/4 184/1/4
f 185/1/4 186/1/4 188/1/4
f 187/1/4 188/1/4 189/1/4
f 188/1/4 186/1/4 190/1/4
f 189/1/4 188/1/4 190/1/4
f 190/1/4 186/1/4 191/1/4
f 191/1/4 186/1/4 192/1/4
f 197/1/5 194/1/5 193/1/5
f 198/1/5 194/1/5 197/1/5
f 199/1/5 196/1/5 195/1/5
f 200/1/5 196/1/5 199/1/5
f 203/1/5 202/1/5 201/1/5
f 204/1/5 202/1/5 203/1/5
f 209/1/5 206/1/5 205/1/5
f 210/1/5 206/1/5 209/1/5
f 211/1/5 208/1/5 207/1/5
f 212/1/5 208/1/5 211/1/5
f 217/1/5 214/1/5 213/1/5
f 218/1/5 214/1/5 217/1/5
f 219/1/5 216/1/5 215/1/5
f 220/1/5 216/1/5 219/1/5
f 223/1/5 222/1/5 221/1/5
f 224/1/5 222/1/5 223/1/5
f 227/1/5 226/1/5 225/1/5
f 228/1/5 226/1/5 227/1/5
f 233/1/5 230/1/5 229/1/5
f 234/1/5 230/1/5 233/1/5
f 235/1/5 232/1/5 231/1/5
f 236/1/5 232/1/5 235/1/5
f 237/1/6 238/1/6 241/1/6
f 241/1/6 238/1/6 242/1/6
f 239/1/6 240/1/6 243/1/6
f 243/1/6 240/1/6 244/1/6
f 245/1/6 246/1/6 249/1/6
f 249/1/6 246/1/6 250/1/6
f 247/1/6 248/1/6 251/1/6
f 251/1/6 248/1/6 252/1/6
f 253/1/6 254/1/6 257/1/6
f 257/1/6 254/1/6 258/1/6
f 255/1/6 256/1/6 259/1/6
f 259/1/6 256/1/6 260/1/6
f 261/1/6 262/1/6 263/1/6
f 263/1/6 262/1/6 264/1/6
