# MagicaVoxel @ Ephtracy

# group
g desk-action-figure7

# material
mtllib desk-action-figure7.mtl
usemtl palette

# normals
vn -1 0 0
vn 1 0 0
vn 0 0 1
vn 0 0 -1
vn 0 -1 0
vn 0 1 0

# texcoords
vt 0.00976562 0.5
vt 0.537109 0.5
vt 0.826172 0.5
vt 0.841797 0.5
vt 0.958984 0.5
vt 0.990234 0.5

# verts
v -4 4 1
v -4 4 -0
v -4 4 -1
v -4 4 -2
v -4 5 1
v -4 5 -0
v -4 5 -1
v -4 5 -2
v -4 6 -1
v -4 6 -2
v -4 7 -1
v -4 7 -2
v -2 0 -0
v -2 0 -2
v -2 1 -0
v -2 1 -1
v -2 1 -2
v -2 4 -1
v -2 4 -2
v -2 5 -1
v -2 5 -2
v -2 6 -1
v -2 6 -2
v -2 7 -0
v -2 7 -1
v -2 7 -2
v -2 7 -3
v -2 8 -0
v -2 8 -1
v -2 8 -2
v -2 9 -0
v -2 9 -1
v -2 9 -3
v -2 10 -0
v -2 10 -1
v -2 10 -2
v -2 10 -3
v -2 11 -1
v -2 11 -2
v -1 10 -0
v -1 10 -1
v -1 10 -2
v -1 10 -3
v -1 11 -0
v -1 11 -1
v -1 11 -2
v -1 11 -3
v -1 12 -1
v -1 12 -2
v 0 0 -0
v 0 0 -2
v 0 1 -0
v 0 1 -1
v 0 1 -2
v 0 3 -1
v 0 3 -2
v 2 0 2
v 2 0 1
v 2 4 1
v 2 4 -0
v 2 4 -1
v 2 4 -2
v 2 5 1
v 2 5 -0
v 2 5 -1
v 2 5 -2
v 2 6 2
v 2 6 -0
v 2 6 -1
v 2 6 -2
v -3 4 1
v -3 4 -0
v -3 4 -1
v -3 4 -2
v -3 5 1
v -3 5 -0
v -3 5 -1
v -3 5 -2
v -3 6 -1
v -3 6 -2
v -1 0 -0
v -1 0 -2
v -1 1 -0
v -1 1 -1
v -1 1 -2
v -1 3 -1
v -1 3 -2
v 0 10 -0
v 0 10 -1
v 0 10 -2
v 0 10 -3
v 0 11 -0
v 0 11 -1
v 0 11 -2
v 0 11 -3
v 0 12 -1
v 0 12 -2
v 1 0 -0
v 1 0 -2
v 1 1 -0
v 1 1 -1
v 1 1 -2
v 1 4 -1
v 1 4 -2
v 1 5 -1
v 1 5 -2
v 1 6 -1
v 1 6 -2
v 1 7 -0
v 1 7 -1
v 1 7 -2
v 1 7 -3
v 1 8 -0
v 1 8 -1
v 1 8 -2
v 1 9 -0
v 1 9 -1
v 1 9 -3
v 1 10 -0
v 1 10 -1
v 1 10 -2
v 1 10 -3
v 1 11 -1
v 1 11 -2
v 3 0 2
v 3 0 1
v 3 4 1
v 3 4 -0
v 3 4 -1
v 3 4 -2
v 3 5 1
v 3 5 -0
v 3 5 -1
v 3 5 -2
v 3 6 2
v 3 6 -0
v 3 6 -1
v 3 6 -2
v 3 7 -1
v 3 7 -2
v 2 0 2
v 2 6 2
v 3 0 2
v 3 6 2
v -4 4 1
v -4 5 1
v -3 4 1
v -3 5 1
v -2 0 -0
v -2 1 -0
v -2 7 -0
v -2 8 -0
v -2 9 -0
v -2 10 -0
v -1 0 -0
v -1 1 -0
v -1 8 -0
v -1 9 -0
v -1 10 -0
v -1 11 -0
v 0 0 -0
v 0 1 -0
v 0 8 -0
v 0 9 -0
v 0 10 -0
v 0 11 -0
v 1 0 -0
v 1 1 -0
v 1 7 -0
v 1 8 -0
v 1 9 -0
v 1 10 -0
v -4 5 -1
v -4 6 -1
v -4 7 -1
v -3 5 -1
v -3 6 -1
v -3 7 -1
v -2 1 -1
v -2 4 -1
v -2 5 -1
v -2 6 -1
v -2 7 -1
v -2 10 -1
v -2 11 -1
v -1 1 -1
v -1 3 -1
v -1 10 -1
v -1 11 -1
v -1 12 -1
v 0 1 -1
v 0 3 -1
v 0 10 -1
v 0 11 -1
v 0 12 -1
v 1 1 -1
v 1 4 -1
v 1 5 -1
v 1 6 -1
v 1 7 -1
v 1 10 -1
v 1 11 -1
v 2 5 -1
v 2 6 -1
v 2 7 -1
v 3 5 -1
v 3 6 -1
v 3 7 -1
v 2 0 1
v 2 4 1
v 3 0 1
v 3 4 1
v 2 5 -0
v 2 6 -0
v 3 5 -0
v 3 6 -0
v -4 4 -2
v -4 5 -2
v -4 6 -2
v -4 7 -2
v -3 4 -2
v -3 5 -2
v -3 6 -2
v -3 7 -2
v -2 0 -2
v -2 1 -2
v -2 4 -2
v -2 5 -2
v -2 6 -2
v -2 7 -2
v -2 10 -2
v -2 11 -2
v -1 0 -2
v -1 1 -2
v -1 3 -2
v -1 10 -2
v -1 11 -2
v -1 12 -2
v 0 0 -2
v 0 1 -2
v 0 3 -2
v 0 10 -2
v 0 11 -2
v 0 12 -2
v 1 0 -2
v 1 1 -2
v 1 4 -2
v 1 5 -2
v 1 6 -2
v 1 7 -2
v 1 10 -2
v 1 11 -2
v 2 4 -2
v 2 5 -2
v 2 6 -2
v 2 7 -2
v 3 4 -2
v 3 5 -2
v 3 6 -2
v 3 7 -2
v -2 7 -3
v -2 9 -3
v -2 10 -3
v -1 10 -3
v -1 11 -3
v 0 10 -3
v 0 11 -3
v 1 7 -3
v 1 9 -3
v 1 10 -3
v 2 0 2
v 3 0 2
v 2 0 1
v 3 0 1
v -2 0 -0
v -1 0 -0
v 0 0 -0
v 1 0 -0
v -2 0 -2
v -1 0 -2
v 0 0 -2
v 1 0 -2
v -1 3 -1
v 0 3 -1
v -1 3 -2
v 0 3 -2
v -4 4 1
v -3 4 1
v 2 4 1
v 3 4 1
v -4 4 -0
v -3 4 -0
v 2 4 -0
v 3 4 -0
v -4 4 -1
v -3 4 -1
v 2 4 -1
v 3 4 -1
v -4 4 -2
v -3 4 -2
v 2 4 -2
v 3 4 -2
v -3 6 -1
v -2 6 -1
v 1 6 -1
v 2 6 -1
v -3 6 -2
v -2 6 -2
v 1 6 -2
v 2 6 -2
v -2 7 -0
v 1 7 -0
v -2 7 -1
v 1 7 -1
v -2 7 -2
v 1 7 -2
v -2 7 -3
v 1 7 -3
v -2 1 -0
v -1 1 -0
v 0 1 -0
v 1 1 -0
v -2 1 -1
v -1 1 -1
v 0 1 -1
v 1 1 -1
v -4 5 1
v -3 5 1
v -4 5 -0
v -3 5 -0
v 2 5 -0
v 3 5 -0
v -4 5 -1
v -3 5 -1
v 2 5 -1
v 3 5 -1
v 2 6 2
v 3 6 2
v 2 6 -0
v 3 6 -0
v -4 7 -1
v -3 7 -1
v -2 7 -1
v 1 7 -1
v 2 7 -1
v 3 7 -1
v -4 7 -2
v -3 7 -2
v -2 7 -2
v 1 7 -2
v 2 7 -2
v 3 7 -2
v -2 10 -0
v -1 10 -0
v 0 10 -0
v 1 10 -0
v -2 10 -1
v -1 10 -1
v 0 10 -1
v 1 10 -1
v -2 10 -2
v -1 10 -2
v 0 10 -2
v 1 10 -2
v -2 10 -3
v -1 10 -3
v 0 10 -3
v 1 10 -3
v -1 11 -0
v 0 11 -0
v -2 11 -1
v -1 11 -1
v 0 11 -1
v 1 11 -1
v -2 11 -2
v -1 11 -2
v 0 11 -2
v 1 11 -2
v -1 11 -3
v 0 11 -3
v -1 12 -1
v 0 12 -1
v -1 12 -2
v 0 12 -2

# faces
f 5/1/1 2/1/1 1/1/1
f 6/4/1 3/4/1 2/4/1
f 6/1/1 2/1/1 5/1/1
f 7/5/1 4/5/1 3/5/1
f 7/4/1 3/4/1 6/4/1
f 8/5/1 4/5/1 7/5/1
f 9/4/1 8/4/1 7/4/1
f 10/4/1 8/4/1 9/4/1
f 11/5/1 10/5/1 9/5/1
f 12/5/1 10/5/1 11/5/1
f 15/2/1 14/2/1 13/2/1
f 16/2/1 14/2/1 15/2/1
f 17/2/1 14/2/1 16/2/1
f 18/3/1 17/3/1 16/3/1
f 19/3/1 17/3/1 18/3/1
f 20/4/1 19/4/1 18/4/1
f 21/4/1 19/4/1 20/4/1
f 22/5/1 21/5/1 20/5/1
f 23/5/1 21/5/1 22/5/1
f 28/1/1 26/1/1 25/1/1
f 28/1/1 25/1/1 24/1/1
f 29/1/1 26/1/1 28/1/1
f 30/2/1 27/2/1 26/2/1
f 30/1/1 26/1/1 29/1/1
f 31/6/1 29/6/1 28/6/1
f 32/2/1 30/2/1 29/2/1
f 32/6/1 29/6/1 31/6/1
f 33/2/1 27/2/1 30/2/1
f 33/2/1 30/2/1 32/2/1
f 34/4/1 32/4/1 31/4/1
f 34/4/1 33/4/1 32/4/1
f 35/4/1 33/4/1 34/4/1
f 36/4/1 33/4/1 35/4/1
f 37/4/1 33/4/1 36/4/1
f 38/5/1 36/5/1 35/5/1
f 39/5/1 36/5/1 38/5/1
f 44/5/1 41/5/1 40/5/1
f 45/5/1 41/5/1 44/5/1
f 46/5/1 43/5/1 42/5/1
f 47/5/1 43/5/1 46/5/1
f 48/4/1 46/4/1 45/4/1
f 49/4/1 46/4/1 48/4/1
f 52/2/1 51/2/1 50/2/1
f 53/2/1 51/2/1 52/2/1
f 54/2/1 51/2/1 53/2/1
f 55/3/1 54/3/1 53/3/1
f 56/3/1 54/3/1 55/3/1
f 59/2/1 58/2/1 57/2/1
f 63/2/1 59/2/1 57/2/1
f 63/1/1 60/1/1 59/1/1
f 64/4/1 61/4/1 60/4/1
f 64/1/1 60/1/1 63/1/1
f 65/5/1 62/5/1 61/5/1
f 65/4/1 61/4/1 64/4/1
f 66/5/1 62/5/1 65/5/1
f 67/2/1 64/2/1 63/2/1
f 67/2/1 63/2/1 57/2/1
f 68/2/1 64/2/1 67/2/1
f 69/4/1 66/4/1 65/4/1
f 70/4/1 66/4/1 69/4/1
f 71/1/2 72/1/2 75/1/2
f 72/4/2 73/4/2 76/4/2
f 75/1/2 72/1/2 76/1/2
f 73/5/2 74/5/2 77/5/2
f 76/4/2 73/4/2 77/4/2
f 77/5/2 74/5/2 78/5/2
f 77/4/2 78/4/2 79/4/2
f 79/4/2 78/4/2 80/4/2
f 81/2/2 82/2/2 83/2/2
f 83/2/2 82/2/2 84/2/2
f 84/2/2 82/2/2 85/2/2
f 84/3/2 85/3/2 86/3/2
f 86/3/2 85/3/2 87/3/2
f 88/5/2 89/5/2 92/5/2
f 92/5/2 89/5/2 93/5/2
f 90/5/2 91/5/2 94/5/2
f 94/5/2 91/5/2 95/5/2
f 93/4/2 94/4/2 96/4/2
f 96/4/2 94/4/2 97/4/2
f 98/2/2 99/2/2 100/2/2
f 100/2/2 99/2/2 101/2/2
f 101/2/2 99/2/2 102/2/2
f 101/3/2 102/3/2 103/3/2
f 103/3/2 102/3/2 104/3/2
f 103/4/2 104/4/2 105/4/2
f 105/4/2 104/4/2 106/4/2
f 105/5/2 106/5/2 107/5/2
f 107/5/2 106/5/2 108/5/2
f 110/1/2 111/1/2 113/1/2
f 109/1/2 110/1/2 113/1/2
f 113/1/2 111/1/2 114/1/2
f 111/2/2 112/2/2 115/2/2
f 114/1/2 111/1/2 115/1/2
f 113/6/2 114/6/2 116/6/2
f 114/2/2 115/2/2 117/2/2
f 116/6/2 114/6/2 117/6/2
f 115/2/2 112/2/2 118/2/2
f 117/2/2 115/2/2 118/2/2
f 116/4/2 117/4/2 119/4/2
f 117/4/2 118/4/2 119/4/2
f 119/4/2 118/4/2 120/4/2
f 120/4/2 118/4/2 121/4/2
f 121/4/2 118/4/2 122/4/2
f 120/5/2 121/5/2 123/5/2
f 123/5/2 121/5/2 124/5/2
f 125/2/2 126/2/2 127/2/2
f 125/2/2 127/2/2 131/2/2
f 127/1/2 128/1/2 131/1/2
f 128/4/2 129/4/2 132/4/2
f 131/1/2 128/1/2 132/1/2
f 129/5/2 130/5/2 133/5/2
f 132/4/2 129/4/2 133/4/2
f 133/5/2 130/5/2 134/5/2
f 131/2/2 132/2/2 135/2/2
f 125/2/2 131/2/2 135/2/2
f 135/2/2 132/2/2 136/2/2
f 133/4/2 134/4/2 137/4/2
f 137/4/2 134/4/2 138/4/2
f 137/5/2 138/5/2 139/5/2
f 139/5/2 138/5/2 140/5/2
f 143/2/3 142/2/3 141/2/3
f 144/2/3 142/2/3 143/2/3
f 147/1/3 146/1/3 145/1/3
f 148/1/3 146/1/3 147/1/3
f 155/2/3 150/2/3 149/2/3
f 156/2/3 150/2/3 155/2/3
f 157/1/3 152/1/3 151/1/3
f 157/6/3 153/6/3 152/6/3
f 158/4/3 154/4/3 153/4/3
f 158/6/3 153/6/3 157/6/3
f 159/4/3 154/4/3 158/4/3
f 163/1/3 157/1/3 151/1/3
f 163/1/3 158/1/3 157/1/3
f 164/4/3 159/4/3 158/4/3
f 164/1/3 158/1/3 163/1/3
f 165/5/3 160/5/3 159/5/3
f 165/4/3 159/4/3 164/4/3
f 166/5/3 160/5/3 165/5/3
f 167/2/3 162/2/3 161/2/3
f 168/2/3 162/2/3 167/2/3
f 169/1/3 163/1/3 151/1/3
f 170/6/3 164/6/3 163/6/3
f 170/1/3 163/1/3 169/1/3
f 171/4/3 165/4/3 164/4/3
f 171/6/3 164/6/3 170/6/3
f 172/4/3 165/4/3 171/4/3
f 176/4/3 174/4/3 173/4/3
f 177/5/3 175/5/3 174/5/3
f 177/4/3 174/4/3 176/4/3
f 178/5/3 175/5/3 177/5/3
f 182/4/3 178/4/3 177/4/3
f 183/4/3 178/4/3 182/4/3
f 186/3/3 180/3/3 179/3/3
f 187/3/3 180/3/3 186/3/3
f 188/5/3 185/5/3 184/5/3
f 189/5/3 185/5/3 188/5/3
f 192/3/3 180/3/3 187/3/3
f 194/4/3 190/4/3 189/4/3
f 195/4/3 190/4/3 194/4/3
f 196/3/3 192/3/3 191/3/3
f 197/4/3 181/4/3 180/4/3
f 197/3/3 192/3/3 196/3/3
f 197/3/3 180/3/3 192/3/3
f 198/5/3 182/5/3 181/5/3
f 198/4/3 181/4/3 197/4/3
f 199/4/3 183/4/3 182/4/3
f 199/5/3 182/5/3 198/5/3
f 200/4/3 183/4/3 199/4/3
f 201/5/3 194/5/3 193/5/3
f 202/5/3 194/5/3 201/5/3
f 204/4/3 200/4/3 199/4/3
f 205/4/3 200/4/3 204/4/3
f 206/4/3 204/4/3 203/4/3
f 207/5/3 205/5/3 204/5/3
f 207/4/3 204/4/3 206/4/3
f 208/5/3 205/5/3 207/5/3
f 209/2/4 210/2/4 211/2/4
f 211/2/4 210/2/4 212/2/4
f 213/2/4 214/2/4 215/2/4
f 215/2/4 214/2/4 216/2/4
f 217/5/4 218/5/4 221/5/4
f 218/4/4 219/4/4 222/4/4
f 221/5/4 218/5/4 222/5/4
f 219/5/4 220/5/4 223/5/4
f 222/4/4 219/4/4 223/4/4
f 223/5/4 220/5/4 224/5/4
f 223/4/4 224/4/4 229/4/4
f 229/4/4 224/4/4 230/4/4
f 225/2/4 226/2/4 233/2/4
f 226/3/4 227/3/4 234/3/4
f 233/2/4 226/2/4 234/2/4
f 234/3/4 227/3/4 235/3/4
f 231/5/4 232/5/4 236/5/4
f 236/5/4 232/5/4 237/5/4
f 235/3/4 227/3/4 241/3/4
f 237/4/4 238/4/4 243/4/4
f 243/4/4 238/4/4 244/4/4
f 239/2/4 240/2/4 245/2/4
f 240/3/4 241/3/4 246/3/4
f 245/2/4 240/2/4 246/2/4
f 227/4/4 228/4/4 247/4/4
f 246/3/4 241/3/4 247/3/4
f 241/3/4 227/3/4 247/3/4
f 228/5/4 229/5/4 248/5/4
f 247/4/4 228/4/4 248/4/4
f 229/4/4 230/4/4 249/4/4
f 248/5/4 229/5/4 249/5/4
f 249/4/4 230/4/4 250/4/4
f 242/5/4 243/5/4 251/5/4
f 251/5/4 243/5/4 252/5/4
f 249/4/4 250/4/4 255/4/4
f 255/4/4 250/4/4 256/4/4
f 253/5/4 254/5/4 257/5/4
f 254/4/4 255/4/4 258/4/4
f 257/5/4 254/5/4 258/5/4
f 255/5/4 256/5/4 259/5/4
f 258/4/4 255/4/4 259/4/4
f 259/5/4 256/5/4 260/5/4
f 262/4/4 263/4/4 264/4/4
f 262/4/4 264/4/4 266/4/4
f 264/5/4 265/5/4 266/5/4
f 266/5/4 265/5/4 267/5/4
f 261/2/4 262/2/4 268/2/4
f 262/4/4 266/4/4 269/4/4
f 268/2/4 262/2/4 269/2/4
f 269/4/4 266/4/4 270/4/4
f 273/2/5 272/2/5 271/2/5
f 274/2/5 272/2/5 273/2/5
f 279/2/5 276/2/5 275/2/5
f 280/2/5 276/2/5 279/2/5
f 281/2/5 278/2/5 277/2/5
f 282/2/5 278/2/5 281/2/5
f 285/3/5 284/3/5 283/3/5
f 286/3/5 284/3/5 285/3/5
f 291/1/5 288/1/5 287/1/5
f 292/1/5 288/1/5 291/1/5
f 293/1/5 290/1/5 289/1/5
f 294/1/5 290/1/5 293/1/5
f 295/4/5 292/4/5 291/4/5
f 296/4/5 292/4/5 295/4/5
f 297/4/5 294/4/5 293/4/5
f 298/4/5 294/4/5 297/4/5
f 299/5/5 296/5/5 295/5/5
f 300/5/5 296/5/5 299/5/5
f 301/5/5 298/5/5 297/5/5
f 302/5/5 298/5/5 301/5/5
f 307/4/5 304/4/5 303/4/5
f 308/4/5 304/4/5 307/4/5
f 309/4/5 306/4/5 305/4/5
f 310/4/5 306/4/5 309/4/5
f 313/1/5 312/1/5 311/1/5
f 314/1/5 312/1/5 313/1/5
f 317/2/5 316/2/5 315/2/5
f 318/2/5 316/2/5 317/2/5
f 319/2/6 320/2/6 323/2/6
f 323/2/6 320/2/6 324/2/6
f 321/2/6 322/2/6 325/2/6
f 325/2/6 322/2/6 326/2/6
f 327/1/6 328/1/6 329/1/6
f 329/1/6 328/1/6 330/1/6
f 329/4/6 330/4/6 333/4/6
f 333/4/6 330/4/6 334/4/6
f 331/4/6 332/4/6 335/4/6
f 335/4/6 332/4/6 336/4/6
f 337/2/6 338/2/6 339/2/6
f 339/2/6 338/2/6 340/2/6
f 341/5/6 342/5/6 347/5/6
f 342/4/6 343/4/6 348/4/6
f 347/5/6 342/5/6 348/5/6
f 348/4/6 343/4/6 349/4/6
f 344/4/6 345/4/6 350/4/6
f 345/5/6 346/5/6 351/5/6
f 350/4/6 345/4/6 351/4/6
f 351/5/6 346/5/6 352/5/6
f 353/4/6 354/4/6 357/4/6
f 357/4/6 354/4/6 358/4/6
f 355/4/6 356/4/6 359/4/6
f 359/4/6 356/4/6 360/4/6
f 361/4/6 362/4/6 365/4/6
f 365/4/6 362/4/6 366/4/6
f 363/4/6 364/4/6 367/4/6
f 367/4/6 364/4/6 368/4/6
f 369/5/6 370/5/6 372/5/6
f 372/5/6 370/5/6 373/5/6
f 371/5/6 372/5/6 375/5/6
f 375/5/6 372/5/6 376/5/6
f 373/5/6 374/5/6 377/5/6
f 377/5/6 374/5/6 378/5/6
f 376/5/6 377/5/6 379/5/6
f 379/5/6 377/5/6 380/5/6
f 381/4/6 382/4/6 383/4/6
f 383/4/6 382/4/6 384/4/6
