# MagicaVoxel @ Ephtracy

# group
g desk-action-figure5

# material
mtllib desk-action-figure5.mtl
usemtl palette

# normals
vn -1 0 0
vn 1 0 0
vn 0 0 1
vn 0 0 -1
vn 0 -1 0
vn 0 1 0

# texcoords
vt 0.0136719 0.5
vt 0.0253906 0.5
vt 0.0371094 0.5
vt 0.119141 0.5
vt 0.150391 0.5
vt 0.291016 0.5
vt 0.369141 0.5
vt 0.423828 0.5
vt 0.443359 0.5
vt 0.458984 0.5
vt 0.775391 0.5
vt 0.958984 0.5

# verts
v -6 2 2
v -6 2 -1
v -6 3 2
v -6 3 1
v -6 3 -0
v -6 3 -1
v -6 5 1
v -6 5 -0
v -5 1 2
v -5 1 -1
v -5 2 3
v -5 2 2
v -5 2 -1
v -5 2 -2
v -5 3 3
v -5 3 2
v -5 3 -1
v -5 3 -2
v -5 5 1
v -5 5 -0
v -5 6 1
v -5 6 -0
v -4 4 1
v -4 4 -2
v -4 5 1
v -4 5 -0
v -4 5 -1
v -4 7 -1
v -4 7 -2
v -2 0 -0
v -2 0 -2
v -2 1 -0
v -2 1 -1
v -2 2 -1
v -2 2 -2
v -2 3 1
v -2 3 -0
v -2 3 -1
v -2 3 -2
v -2 5 1
v -2 5 -0
v -2 6 -1
v -2 6 -2
v -2 7 -0
v -2 7 -1
v -2 7 -2
v -2 8 -0
v -2 8 -1
v -2 8 -2
v -2 8 -3
v -2 9 -0
v -2 9 -1
v -2 10 -0
v -2 10 -1
v -2 10 -2
v -2 10 -3
v -2 12 -1
v -2 12 -2
v -1 7 -2
v -1 7 -3
v -1 8 -2
v -1 8 -3
v 0 0 -0
v 0 0 -2
v 0 1 -0
v 0 1 -1
v 0 3 -1
v 0 3 -2
v 0 10 -1
v 0 10 -2
v 0 12 -1
v 0 12 -2
v 2 4 1
v 2 4 -2
v 2 5 1
v 2 5 -1
v 2 6 -1
v 2 6 -2
v -5 3 1
v -5 3 -0
v -5 5 1
v -5 5 -0
v -3 4 1
v -3 4 -2
v -3 5 1
v -3 5 -0
v -3 5 -1
v -3 6 -1
v -3 6 -2
v -2 1 2
v -2 1 -0
v -2 1 -1
v -2 2 2
v -2 2 -1
v -2 5 1
v -2 5 -0
v -2 6 1
v -2 6 -0
v -1 0 -0
v -1 0 -2
v -1 1 -0
v -1 1 -1
v -1 2 3
v -1 2 -1
v -1 3 3
v -1 3 1
v -1 3 -0
v -1 3 -1
v -1 3 -2
v -1 5 1
v -1 5 -0
v -1 10 -1
v -1 10 -2
v -1 12 -1
v -1 12 -2
v 0 7 -2
v 0 7 -3
v 0 8 -2
v 0 8 -3
v 1 0 -0
v 1 0 -2
v 1 1 -0
v 1 1 -1
v 1 6 -1
v 1 6 -2
v 1 7 -0
v 1 7 -1
v 1 7 -2
v 1 8 -0
v 1 8 -1
v 1 8 -2
v 1 8 -3
v 1 9 -0
v 1 9 -1
v 1 10 -0
v 1 10 -1
v 1 10 -2
v 1 10 -3
v 1 12 -1
v 1 12 -2
v 3 4 1
v 3 4 -2
v 3 5 1
v 3 5 -1
v 3 7 -1
v 3 7 -2
v -5 2 3
v -5 3 3
v -1 2 3
v -1 3 3
v -6 2 2
v -6 3 2
v -5 1 2
v -5 2 2
v -5 3 2
v -2 1 2
v -2 2 2
v -6 3 1
v -6 5 1
v -5 3 1
v -5 5 1
v -5 6 1
v -4 4 1
v -4 5 1
v -3 4 1
v -3 5 1
v -2 3 1
v -2 5 1
v -2 6 1
v -1 3 1
v -1 5 1
v 2 4 1
v 2 5 1
v 3 4 1
v 3 5 1
v -2 0 -0
v -2 1 -0
v -2 7 -0
v -2 8 -0
v -2 9 -0
v -2 10 -0
v -1 0 -0
v -1 1 -0
v -1 8 -0
v -1 9 -0
v 0 0 -0
v 0 1 -0
v 0 8 -0
v 0 9 -0
v 1 0 -0
v 1 1 -0
v 1 7 -0
v 1 8 -0
v 1 9 -0
v 1 10 -0
v -4 5 -1
v -4 7 -1
v -3 5 -1
v -3 6 -1
v -2 1 -1
v -2 2 -1
v -2 3 -1
v -2 6 -1
v -2 7 -1
v -2 10 -1
v -2 12 -1
v -1 1 -1
v -1 2 -1
v -1 3 -1
v -1 10 -1
v -1 12 -1
v 0 1 -1
v 0 3 -1
v 0 10 -1
v 0 12 -1
v 1 1 -1
v 1 6 -1
v 1 7 -1
v 1 10 -1
v 1 12 -1
v 2 5 -1
v 2 6 -1
v 3 5 -1
v 3 7 -1
v -6 3 -0
v -6 5 -0
v -5 3 -0
v -5 5 -0
v -5 6 -0
v -4 5 -0
v -3 5 -0
v -2 3 -0
v -2 5 -0
v -2 6 -0
v -1 3 -0
v -1 5 -0
v -6 2 -1
v -6 3 -1
v -5 1 -1
v -5 2 -1
v -5 3 -1
v -2 1 -1
v -2 2 -1
v -5 2 -2
v -5 3 -2
v -4 4 -2
v -4 7 -2
v -3 4 -2
v -3 6 -2
v -2 0 -2
v -2 2 -2
v -2 3 -2
v -2 6 -2
v -2 7 -2
v -2 8 -2
v -2 10 -2
v -2 12 -2
v -1 0 -2
v -1 3 -2
v -1 7 -2
v -1 8 -2
v -1 10 -2
v -1 12 -2
v 0 0 -2
v 0 3 -2
v 0 7 -2
v 0 8 -2
v 0 10 -2
v 0 12 -2
v 1 0 -2
v 1 6 -2
v 1 7 -2
v 1 8 -2
v 1 10 -2
v 1 12 -2
v 2 4 -2
v 2 6 -2
v 3 4 -2
v 3 7 -2
v -2 8 -3
v -2 10 -3
v -1 7 -3
v -1 8 -3
v 0 7 -3
v 0 8 -3
v 1 8 -3
v 1 10 -3
v -2 0 -0
v -1 0 -0
v 0 0 -0
v 1 0 -0
v -2 0 -2
v -1 0 -2
v 0 0 -2
v 1 0 -2
v -5 1 2
v -2 1 2
v -2 1 -0
v -5 1 -1
v -2 1 -1
v -5 2 3
v -1 2 3
v -6 2 2
v -5 2 2
v -2 2 2
v -6 2 -1
v -5 2 -1
v -2 2 -1
v -1 2 -1
v -5 2 -2
v -2 2 -2
v -1 3 -1
v 0 3 -1
v -1 3 -2
v 0 3 -2
v -4 4 1
v -3 4 1
v 2 4 1
v 3 4 1
v -4 4 -2
v -3 4 -2
v 2 4 -2
v 3 4 -2
v -5 5 1
v -4 5 1
v -3 5 1
v -2 5 1
v -5 5 -0
v -4 5 -0
v -3 5 -0
v -2 5 -0
v -3 6 -1
v -2 6 -1
v 1 6 -1
v 2 6 -1
v -3 6 -2
v -2 6 -2
v 1 6 -2
v 2 6 -2
v -2 7 -0
v 1 7 -0
v -2 7 -1
v 1 7 -1
v -1 7 -2
v 0 7 -2
v -1 7 -3
v 0 7 -3
v -2 8 -2
v -1 8 -2
v 0 8 -2
v 1 8 -2
v -2 8 -3
v -1 8 -3
v 0 8 -3
v 1 8 -3
v -2 1 -0
v -1 1 -0
v 0 1 -0
v 1 1 -0
v -2 1 -1
v -1 1 -1
v 0 1 -1
v 1 1 -1
v -5 3 3
v -1 3 3
v -6 3 2
v -5 3 2
v -4 3 2
v -3 3 2
v -2 3 2
v -6 3 1
v -5 3 1
v -4 3 1
v -3 3 1
v -2 3 1
v -1 3 1
v -6 3 -0
v -5 3 -0
v -4 3 -0
v -3 3 -0
v -2 3 -0
v -1 3 -0
v -6 3 -1
v -5 3 -1
v -4 3 -1
v -3 3 -1
v -2 3 -1
v -1 3 -1
v -5 3 -2
v -2 3 -2
v -6 5 1
v -5 5 1
v -2 5 1
v -1 5 1
v 2 5 1
v 3 5 1
v -6 5 -0
v -5 5 -0
v -4 5 -0
v -3 5 -0
v -2 5 -0
v -1 5 -0
v -4 5 -1
v -3 5 -1
v 2 5 -1
v 3 5 -1
v -5 6 1
v -2 6 1
v -5 6 -0
v -2 6 -0
v -4 7 -1
v -2 7 -1
v 1 7 -1
v 3 7 -1
v -4 7 -2
v -2 7 -2
v 1 7 -2
v 3 7 -2
v -2 10 -0
v 1 10 -0
v -2 10 -1
v -1 10 -1
v 0 10 -1
v 1 10 -1
v -2 10 -2
v -1 10 -2
v 0 10 -2
v 1 10 -2
v -2 10 -3
v 1 10 -3
v -2 12 -1
v -1 12 -1
v 0 12 -1
v 1 12 -1
v -2 12 -2
v -1 12 -2
v 0 12 -2
v 1 12 -2

# faces
f 3/7/1 2/7/1 1/7/1
f 4/7/1 2/7/1 3/7/1
f 5/7/1 2/7/1 4/7/1
f 6/7/1 2/7/1 5/7/1
f 7/7/1 5/7/1 4/7/1
f 8/7/1 5/7/1 7/7/1
f 12/7/1 10/7/1 9/7/1
f 13/7/1 10/7/1 12/7/1
f 15/7/1 12/7/1 11/7/1
f 16/7/1 12/7/1 15/7/1
f 17/7/1 14/7/1 13/7/1
f 18/7/1 14/7/1 17/7/1
f 21/7/1 20/7/1 19/7/1
f 22/7/1 20/7/1 21/7/1
f 25/12/1 24/12/1 23/12/1
f 26/12/1 24/12/1 25/12/1
f 27/12/1 24/12/1 26/12/1
f 28/12/1 24/12/1 27/12/1
f 29/12/1 24/12/1 28/12/1
f 32/12/1 31/12/1 30/12/1
f 33/12/1 31/12/1 32/12/1
f 34/12/1 31/12/1 33/12/1
f 35/12/1 31/12/1 34/12/1
f 40/7/1 37/7/1 36/7/1
f 41/7/1 37/7/1 40/7/1
f 42/12/1 39/12/1 38/12/1
f 43/12/1 39/12/1 42/12/1
f 47/12/1 45/12/1 44/12/1
f 47/12/1 46/12/1 45/12/1
f 48/12/1 46/12/1 47/12/1
f 49/12/1 46/12/1 48/12/1
f 51/11/1 48/11/1 47/11/1
f 52/12/1 49/12/1 48/12/1
f 52/11/1 48/11/1 51/11/1
f 52/12/1 50/12/1 49/12/1
f 53/12/1 52/12/1 51/12/1
f 54/12/1 50/12/1 52/12/1
f 54/12/1 52/12/1 53/12/1
f 55/12/1 50/12/1 54/12/1
f 56/12/1 50/12/1 55/12/1
f 57/12/1 55/12/1 54/12/1
f 58/12/1 55/12/1 57/12/1
f 61/12/1 60/12/1 59/12/1
f 62/12/1 60/12/1 61/12/1
f 65/12/1 64/12/1 63/12/1
f 66/12/1 64/12/1 65/12/1
f 67/12/1 64/12/1 66/12/1
f 68/12/1 64/12/1 67/12/1
f 71/12/1 70/12/1 69/12/1
f 72/12/1 70/12/1 71/12/1
f 75/12/1 74/12/1 73/12/1
f 76/12/1 74/12/1 75/12/1
f 77/12/1 74/12/1 76/12/1
f 78/12/1 74/12/1 77/12/1
f 79/7/2 80/7/2 81/7/2
f 81/7/2 80/7/2 82/7/2
f 83/12/2 84/12/2 85/12/2
f 85/12/2 84/12/2 86/12/2
f 86/12/2 84/12/2 87/12/2
f 87/12/2 84/12/2 88/12/2
f 88/12/2 84/12/2 89/12/2
f 90/7/2 91/7/2 93/7/2
f 91/7/2 92/7/2 93/7/2
f 93/7/2 92/7/2 94/7/2
f 95/7/2 96/7/2 97/7/2
f 97/7/2 96/7/2 98/7/2
f 99/12/2 100/12/2 101/12/2
f 101/12/2 100/12/2 102/12/2
f 102/12/2 100/12/2 104/12/2
f 103/7/2 104/7/2 105/7/2
f 105/7/2 104/7/2 106/7/2
f 106/7/2 104/7/2 107/7/2
f 104/12/2 100/12/2 108/12/2
f 107/7/2 104/7/2 108/7/2
f 108/12/2 100/12/2 109/12/2
f 106/7/2 107/7/2 110/7/2
f 110/7/2 107/7/2 111/7/2
f 112/12/2 113/12/2 114/12/2
f 114/12/2 113/12/2 115/12/2
f 116/12/2 117/12/2 118/12/2
f 118/12/2 117/12/2 119/12/2
f 120/12/2 121/12/2 122/12/2
f 122/12/2 121/12/2 123/12/2
f 123/12/2 121/12/2 124/12/2
f 124/12/2 121/12/2 125/12/2
f 126/12/2 127/12/2 129/12/2
f 127/12/2 128/12/2 129/12/2
f 129/12/2 128/12/2 130/12/2
f 130/12/2 128/12/2 131/12/2
f 129/11/2 130/11/2 133/11/2
f 130/12/2 131/12/2 134/12/2
f 133/11/2 130/11/2 134/11/2
f 131/12/2 132/12/2 134/12/2
f 133/12/2 134/12/2 135/12/2
f 134/12/2 132/12/2 136/12/2
f 135/12/2 134/12/2 136/12/2
f 136/12/2 132/12/2 137/12/2
f 137/12/2 132/12/2 138/12/2
f 136/12/2 137/12/2 139/12/2
f 139/12/2 137/12/2 140/12/2
f 141/12/2 142/12/2 143/12/2
f 143/12/2 142/12/2 144/12/2
f 144/12/2 142/12/2 145/12/2
f 145/12/2 142/12/2 146/12/2
f 149/7/3 148/7/3 147/7/3
f 150/7/3 148/7/3 149/7/3
f 154/7/3 152/7/3 151/7/3
f 155/7/3 152/7/3 154/7/3
f 156/7/3 154/7/3 153/7/3
f 157/7/3 154/7/3 156/7/3
f 160/7/3 159/7/3 158/7/3
f 161/7/3 159/7/3 160/7/3
f 164/7/3 162/7/3 161/7/3
f 165/12/3 164/12/3 163/12/3
f 166/7/3 162/7/3 164/7/3
f 166/12/3 164/12/3 165/12/3
f 168/7/3 162/7/3 166/7/3
f 169/7/3 162/7/3 168/7/3
f 170/7/3 168/7/3 167/7/3
f 171/7/3 168/7/3 170/7/3
f 174/12/3 173/12/3 172/12/3
f 175/12/3 173/12/3 174/12/3
f 182/12/3 177/12/3 176/12/3
f 183/12/3 177/12/3 182/12/3
f 184/12/3 179/12/3 178/12/3
f 184/11/3 180/11/3 179/11/3
f 185/12/3 181/12/3 180/12/3
f 185/11/3 180/11/3 184/11/3
f 188/12/3 184/12/3 178/12/3
f 188/12/3 185/12/3 184/12/3
f 189/12/3 181/12/3 185/12/3
f 189/12/3 185/12/3 188/12/3
f 190/12/3 187/12/3 186/12/3
f 191/12/3 187/12/3 190/12/3
f 192/12/3 188/12/3 178/12/3
f 193/11/3 189/11/3 188/11/3
f 193/12/3 188/12/3 192/12/3
f 194/12/3 181/12/3 189/12/3
f 194/11/3 189/11/3 193/11/3
f 195/12/3 181/12/3 194/12/3
f 198/12/3 197/12/3 196/12/3
f 199/12/3 197/12/3 198/12/3
f 203/12/3 197/12/3 199/12/3
f 204/12/3 197/12/3 203/12/3
f 207/12/3 201/12/3 200/12/3
f 208/12/3 201/12/3 207/12/3
f 209/12/3 203/12/3 202/12/3
f 209/12/3 204/12/3 203/12/3
f 210/12/3 206/12/3 205/12/3
f 211/12/3 206/12/3 210/12/3
f 213/12/3 204/12/3 209/12/3
f 216/12/3 213/12/3 212/12/3
f 217/12/3 204/12/3 213/12/3
f 217/12/3 213/12/3 216/12/3
f 218/12/3 204/12/3 217/12/3
f 219/12/3 215/12/3 214/12/3
f 220/12/3 215/12/3 219/12/3
f 222/12/3 218/12/3 217/12/3
f 223/12/3 222/12/3 221/12/3
f 224/12/3 218/12/3 222/12/3
f 224/12/3 222/12/3 223/12/3
f 225/7/4 226/7/4 227/7/4
f 227/7/4 226/7/4 228/7/4
f 228/7/4 229/7/4 230/7/4
f 230/7/4 229/7/4 231/7/4
f 231/7/4 229/7/4 233/7/4
f 233/7/4 229/7/4 234/7/4
f 232/7/4 233/7/4 235/7/4
f 235/7/4 233/7/4 236/7/4
f 237/7/4 238/7/4 240/7/4
f 240/7/4 238/7/4 241/7/4
f 239/7/4 240/7/4 242/7/4
f 242/7/4 240/7/4 243/7/4
f 246/12/4 247/12/4 248/12/4
f 248/12/4 247/12/4 249/12/4
f 244/7/4 245/7/4 251/7/4
f 251/7/4 245/7/4 252/7/4
f 249/12/4 247/12/4 253/12/4
f 253/12/4 247/12/4 254/12/4
f 251/12/4 252/12/4 258/12/4
f 250/12/4 251/12/4 258/12/4
f 254/12/4 255/12/4 258/12/4
f 253/12/4 254/12/4 258/12/4
f 252/12/4 253/12/4 258/12/4
f 258/12/4 255/12/4 259/12/4
f 259/12/4 255/12/4 260/12/4
f 260/12/4 255/12/4 261/12/4
f 256/12/4 257/12/4 262/12/4
f 262/12/4 257/12/4 263/12/4
f 259/12/4 260/12/4 265/12/4
f 265/12/4 260/12/4 266/12/4
f 264/12/4 265/12/4 270/12/4
f 265/12/4 266/12/4 270/12/4
f 266/12/4 267/12/4 270/12/4
f 270/12/4 267/12/4 271/12/4
f 271/12/4 267/12/4 272/12/4
f 272/12/4 267/12/4 273/12/4
f 268/12/4 269/12/4 274/12/4
f 274/12/4 269/12/4 275/12/4
f 271/12/4 272/12/4 277/12/4
f 276/12/4 277/12/4 278/12/4
f 277/12/4 272/12/4 279/12/4
f 278/12/4 277/12/4 279/12/4
f 280/12/4 281/12/4 283/12/4
f 282/12/4 283/12/4 284/12/4
f 283/12/4 281/12/4 285/12/4
f 284/12/4 283/12/4 285/12/4
f 285/12/4 281/12/4 286/12/4
f 286/12/4 281/12/4 287/12/4
f 292/12/5 289/12/5 288/12/5
f 293/12/5 289/12/5 292/12/5
f 294/12/5 291/12/5 290/12/5
f 295/12/5 291/12/5 294/12/5
f 298/7/5 297/7/5 296/7/5
f 299/7/5 298/7/5 296/7/5
f 300/7/5 298/7/5 299/7/5
f 304/7/5 302/7/5 301/7/5
f 305/7/5 302/7/5 304/7/5
f 306/7/5 304/7/5 303/7/5
f 307/7/5 304/7/5 306/7/5
f 308/7/5 302/7/5 305/7/5
f 309/7/5 302/7/5 308/7/5
f 310/7/5 308/7/5 307/7/5
f 311/7/5 308/7/5 310/7/5
f 314/12/5 313/12/5 312/12/5
f 315/12/5 313/12/5 314/12/5
f 320/12/5 317/12/5 316/12/5
f 321/12/5 317/12/5 320/12/5
f 322/12/5 319/12/5 318/12/5
f 323/12/5 319/12/5 322/12/5
f 328/7/5 325/7/5 324/7/5
f 329/7/5 325/7/5 328/7/5
f 330/7/5 327/7/5 326/7/5
f 331/7/5 327/7/5 330/7/5
f 336/12/5 333/12/5 332/12/5
f 337/12/5 333/12/5 336/12/5
f 338/12/5 335/12/5 334/12/5
f 339/12/5 335/12/5 338/12/5
f 342/12/5 341/12/5 340/12/5
f 343/12/5 341/12/5 342/12/5
f 346/12/5 345/12/5 344/12/5
f 347/12/5 345/12/5 346/12/5
f 352/12/5 349/12/5 348/12/5
f 353/12/5 349/12/5 352/12/5
f 354/12/5 351/12/5 350/12/5
f 355/12/5 351/12/5 354/12/5
f 356/12/6 357/12/6 360/12/6
f 360/12/6 357/12/6 361/12/6
f 358/12/6 359/12/6 362/12/6
f 362/12/6 359/12/6 363/12/6
f 364/7/6 365/7/6 367/7/6
f 367/7/6 365/7/6 368/7/6
f 368/7/6 365/7/6 369/7/6
f 369/7/6 365/7/6 370/7/6
f 366/7/6 367/7/6 371/7/6
f 367/10/6 368/10/6 372/10/6
f 371/7/6 367/7/6 372/7/6
f 368/2/6 369/2/6 373/2/6
f 372/10/6 368/10/6 373/10/6
f 369/3/6 370/3/6 374/3/6
f 373/2/6 369/2/6 374/2/6
f 370/7/6 365/7/6 375/7/6
f 374/3/6 370/3/6 375/3/6
f 375/7/6 365/7/6 376/7/6
f 372/1/6 373/1/6 378/1/6
f 373/5/6 374/5/6 379/5/6
f 378/1/6 373/1/6 379/1/6
f 374/8/6 375/8/6 380/8/6
f 379/5/6 374/5/6 380/5/6
f 380/8/6 375/8/6 381/8/6
f 377/7/6 378/7/6 383/7/6
f 378/6/6 379/6/6 384/6/6
f 383/7/6 378/7/6 384/7/6
f 379/9/6 380/9/6 385/9/6
f 384/6/6 379/6/6 385/6/6
f 380/4/6 381/4/6 386/4/6
f 385/9/6 380/9/6 386/9/6
f 381/7/6 382/7/6 387/7/6
f 386/4/6 381/4/6 387/4/6
f 387/7/6 382/7/6 388/7/6
f 385/7/6 386/7/6 389/7/6
f 386/7/6 387/7/6 389/7/6
f 384/7/6 385/7/6 389/7/6
f 389/7/6 387/7/6 390/7/6
f 391/7/6 392/7/6 397/7/6
f 397/7/6 392/7/6 398/7/6
f 393/7/6 394/7/6 401/7/6
f 401/7/6 394/7/6 402/7/6
f 399/12/6 400/12/6 403/12/6
f 403/12/6 400/12/6 404/12/6
f 395/12/6 396/12/6 405/12/6
f 405/12/6 396/12/6 406/12/6
f 407/7/6 408/7/6 409/7/6
f 409/7/6 408/7/6 410/7/6
f 411/12/6 412/12/6 415/12/6
f 415/12/6 412/12/6 416/12/6
f 413/12/6 414/12/6 417/12/6
f 417/12/6 414/12/6 418/12/6
f 419/12/6 420/12/6 421/12/6
f 421/12/6 420/12/6 422/12/6
f 422/12/6 420/12/6 423/12/6
f 423/12/6 420/12/6 424/12/6
f 422/12/6 423/12/6 426/12/6
f 426/12/6 423/12/6 427/12/6
f 425/12/6 426/12/6 429/12/6
f 427/12/6 428/12/6 429/12/6
f 426/12/6 427/12/6 429/12/6
f 429/12/6 428/12/6 430/12/6
f 431/12/6 432/12/6 435/12/6
f 435/12/6 432/12/6 436/12/6
f 433/12/6 434/12/6 437/12/6
f 437/12/6 434/12/6 438/12/6
