# MagicaVoxel @ Ephtracy

# group
g desk-action-figure2

# material
mtllib desk-action-figure2.mtl
usemtl palette

# normals
vn -1 0 0
vn 1 0 0
vn 0 0 1
vn 0 0 -1
vn 0 -1 0
vn 0 1 0

# texcoords
vt 0.373047 0.5
vt 0.396484 0.5
vt 0.904297 0.5
vt 0.955078 0.5
vt 0.978516 0.5

# verts
v -4 4 2
v -4 4 1
v -4 4 -2
v -4 5 4
v -4 5 2
v -4 5 1
v -4 5 -1
v -4 6 4
v -4 6 -1
v -4 7 -1
v -4 7 -2
v -2 0 -0
v -2 0 -2
v -2 1 -0
v -2 1 -1
v -2 4 -1
v -2 4 -2
v -2 4 -3
v -2 6 -1
v -2 6 -2
v -2 7 -0
v -2 7 -1
v -2 7 -2
v -2 7 -3
v -2 8 -0
v -2 8 -1
v -2 8 -2
v -2 8 -3
v -2 9 -0
v -2 9 -1
v -2 10 -0
v -2 10 -3
v -2 11 -0
v -2 11 -3
v -1 7 -2
v -1 7 -3
v -1 8 -2
v -1 8 -3
v 0 0 -0
v 0 0 -2
v 0 1 -0
v 0 1 -1
v 0 3 -1
v 0 3 -2
v 2 4 1
v 2 4 -2
v 2 5 1
v 2 5 -1
v 2 6 -1
v 2 6 -2
v -3 4 2
v -3 4 1
v -3 4 -2
v -3 5 4
v -3 5 2
v -3 5 1
v -3 5 -1
v -3 6 4
v -3 6 -1
v -3 6 -2
v -1 0 -0
v -1 0 -2
v -1 1 -0
v -1 1 -1
v -1 3 -1
v -1 3 -2
v 0 7 -2
v 0 7 -3
v 0 8 -2
v 0 8 -3
v 1 0 -0
v 1 0 -2
v 1 1 -0
v 1 1 -1
v 1 4 -1
v 1 4 -2
v 1 4 -3
v 1 6 -1
v 1 6 -2
v 1 7 -0
v 1 7 -1
v 1 7 -2
v 1 7 -3
v 1 8 -0
v 1 8 -1
v 1 8 -2
v 1 8 -3
v 1 9 -0
v 1 9 -1
v 1 10 -0
v 1 10 -3
v 1 11 -0
v 1 11 -3
v 3 4 1
v 3 4 -2
v 3 5 1
v 3 5 -1
v 3 7 -1
v 3 7 -2
v -4 5 4
v -4 6 4
v -3 5 4
v -3 6 4
v -4 4 2
v -4 5 2
v -3 4 2
v -3 5 2
v 2 4 1
v 2 5 1
v 3 4 1
v 3 5 1
v -2 0 -0
v -2 1 -0
v -2 7 -0
v -2 8 -0
v -2 9 -0
v -2 10 -0
v -2 11 -0
v -1 0 -0
v -1 1 -0
v -1 8 -0
v -1 9 -0
v 0 0 -0
v 0 1 -0
v 0 8 -0
v 0 9 -0
v 1 0 -0
v 1 1 -0
v 1 7 -0
v 1 8 -0
v 1 9 -0
v 1 10 -0
v 1 11 -0
v -4 6 -1
v -4 7 -1
v -3 6 -1
v -2 1 -1
v -2 4 -1
v -2 6 -1
v -2 7 -1
v -1 1 -1
v -1 3 -1
v 0 1 -1
v 0 3 -1
v 1 1 -1
v 1 4 -1
v 1 6 -1
v 1 7 -1
v 2 5 -1
v 2 6 -1
v 3 5 -1
v 3 7 -1
v -4 4 -2
v -4 7 -2
v -3 4 -2
v -3 6 -2
v -2 0 -2
v -2 4 -2
v -2 6 -2
v -2 7 -2
v -2 8 -2
v -1 0 -2
v -1 3 -2
v -1 7 -2
v -1 8 -2
v 0 0 -2
v 0 3 -2
v 0 7 -2
v 0 8 -2
v 1 0 -2
v 1 4 -2
v 1 6 -2
v 1 7 -2
v 1 8 -2
v 2 4 -2
v 2 6 -2
v 3 4 -2
v 3 7 -2
v -2 4 -3
v -2 7 -3
v -2 8 -3
v -2 10 -3
v -2 11 -3
v -1 7 -3
v -1 8 -3
v 0 7 -3
v 0 8 -3
v 1 4 -3
v 1 7 -3
v 1 8 -3
v 1 10 -3
v 1 11 -3
v -2 0 -0
v -1 0 -0
v 0 0 -0
v 1 0 -0
v -2 0 -2
v -1 0 -2
v 0 0 -2
v 1 0 -2
v -1 3 -1
v 0 3 -1
v -1 3 -2
v 0 3 -2
v -4 4 2
v -3 4 2
v -4 4 1
v -3 4 1
v 2 4 1
v 3 4 1
v -4 4 -2
v -3 4 -2
v -2 4 -2
v 1 4 -2
v 2 4 -2
v 3 4 -2
v -2 4 -3
v 1 4 -3
v -4 5 4
v -3 5 4
v -4 5 2
v -3 5 2
v -3 6 -1
v -2 6 -1
v 1 6 -1
v 2 6 -1
v -3 6 -2
v -2 6 -2
v 1 6 -2
v 2 6 -2
v -2 7 -0
v 1 7 -0
v -2 7 -1
v 1 7 -1
v -2 8 -2
v -1 8 -2
v 0 8 -2
v 1 8 -2
v -2 8 -3
v -1 8 -3
v 0 8 -3
v 1 8 -3
v -2 1 -0
v -1 1 -0
v 0 1 -0
v 1 1 -0
v -2 1 -1
v -1 1 -1
v 0 1 -1
v 1 1 -1
v 2 5 1
v 3 5 1
v 2 5 -1
v 3 5 -1
v -4 6 4
v -3 6 4
v -4 6 -1
v -3 6 -1
v -4 7 -1
v -2 7 -1
v 1 7 -1
v 3 7 -1
v -4 7 -2
v -2 7 -2
v -1 7 -2
v 0 7 -2
v 1 7 -2
v 3 7 -2
v -2 7 -3
v -1 7 -3
v 0 7 -3
v 1 7 -3
v -2 11 -0
v 1 11 -0
v -2 11 -3
v 1 11 -3

# faces
f 5/5/1 2/5/1 1/5/1
f 6/3/1 3/3/1 2/3/1
f 6/5/1 2/5/1 5/5/1
f 7/3/1 3/3/1 6/3/1
f 8/5/1 5/5/1 4/5/1
f 8/5/1 6/5/1 5/5/1
f 8/5/1 7/5/1 6/5/1
f 9/3/1 3/3/1 7/3/1
f 9/5/1 7/5/1 8/5/1
f 10/3/1 3/3/1 9/3/1
f 11/3/1 3/3/1 10/3/1
f 14/1/1 13/1/1 12/1/1
f 15/1/1 13/1/1 14/1/1
f 16/1/1 13/1/1 15/1/1
f 17/1/1 13/1/1 16/1/1
f 19/3/1 17/3/1 16/3/1
f 20/5/1 18/5/1 17/5/1
f 20/3/1 17/3/1 19/3/1
f 23/5/1 18/5/1 20/5/1
f 24/5/1 18/5/1 23/5/1
f 25/1/1 22/1/1 21/1/1
f 25/1/1 23/1/1 22/1/1
f 26/1/1 23/1/1 25/1/1
f 27/1/1 23/1/1 26/1/1
f 29/4/1 26/4/1 25/4/1
f 30/1/1 28/1/1 27/1/1
f 30/4/1 26/4/1 29/4/1
f 30/1/1 27/1/1 26/1/1
f 31/1/1 30/1/1 29/1/1
f 32/1/1 28/1/1 30/1/1
f 32/1/1 30/1/1 31/1/1
f 33/2/1 32/2/1 31/2/1
f 34/2/1 32/2/1 33/2/1
f 37/1/1 36/1/1 35/1/1
f 38/1/1 36/1/1 37/1/1
f 41/1/1 40/1/1 39/1/1
f 42/1/1 40/1/1 41/1/1
f 43/1/1 40/1/1 42/1/1
f 44/1/1 40/1/1 43/1/1
f 47/3/1 46/3/1 45/3/1
f 48/3/1 46/3/1 47/3/1
f 49/3/1 46/3/1 48/3/1
f 50/3/1 46/3/1 49/3/1
f 51/5/2 52/5/2 55/5/2
f 52/3/2 53/3/2 56/3/2
f 55/5/2 52/5/2 56/5/2
f 56/3/2 53/3/2 57/3/2
f 54/5/2 55/5/2 58/5/2
f 55/5/2 56/5/2 58/5/2
f 56/5/2 57/5/2 58/5/2
f 57/3/2 53/3/2 59/3/2
f 58/5/2 57/5/2 59/5/2
f 59/3/2 53/3/2 60/3/2
f 61/1/2 62/1/2 63/1/2
f 63/1/2 62/1/2 64/1/2
f 64/1/2 62/1/2 65/1/2
f 65/1/2 62/1/2 66/1/2
f 67/1/2 68/1/2 69/1/2
f 69/1/2 68/1/2 70/1/2
f 71/1/2 72/1/2 73/1/2
f 73/1/2 72/1/2 74/1/2
f 74/1/2 72/1/2 75/1/2
f 75/1/2 72/1/2 76/1/2
f 75/3/2 76/3/2 78/3/2
f 76/5/2 77/5/2 79/5/2
f 78/3/2 76/3/2 79/3/2
f 79/5/2 77/5/2 82/5/2
f 82/5/2 77/5/2 83/5/2
f 80/1/2 81/1/2 84/1/2
f 81/1/2 82/1/2 84/1/2
f 84/1/2 82/1/2 85/1/2
f 85/1/2 82/1/2 86/1/2
f 84/4/2 85/4/2 88/4/2
f 86/1/2 87/1/2 89/1/2
f 88/4/2 85/4/2 89/4/2
f 85/1/2 86/1/2 89/1/2
f 88/1/2 89/1/2 90/1/2
f 89/1/2 87/1/2 91/1/2
f 90/1/2 89/1/2 91/1/2
f 90/2/2 91/2/2 92/2/2
f 92/2/2 91/2/2 93/2/2
f 94/3/2 95/3/2 96/3/2
f 96/3/2 95/3/2 97/3/2
f 97/3/2 95/3/2 98/3/2
f 98/3/2 95/3/2 99/3/2
f 102/5/3 101/5/3 100/5/3
f 103/5/3 101/5/3 102/5/3
f 106/5/3 105/5/3 104/5/3
f 107/5/3 105/5/3 106/5/3
f 110/3/3 109/3/3 108/3/3
f 111/3/3 109/3/3 110/3/3
f 119/1/3 113/1/3 112/1/3
f 120/1/3 113/1/3 119/1/3
f 121/1/3 115/1/3 114/1/3
f 121/4/3 116/4/3 115/4/3
f 122/1/3 117/1/3 116/1/3
f 122/4/3 116/4/3 121/4/3
f 125/1/3 121/1/3 114/1/3
f 125/1/3 122/1/3 121/1/3
f 126/1/3 117/1/3 122/1/3
f 126/1/3 122/1/3 125/1/3
f 127/1/3 124/1/3 123/1/3
f 128/1/3 124/1/3 127/1/3
f 129/1/3 125/1/3 114/1/3
f 130/4/3 126/4/3 125/4/3
f 130/1/3 125/1/3 129/1/3
f 131/1/3 117/1/3 126/1/3
f 131/4/3 126/4/3 130/4/3
f 132/2/3 118/2/3 117/2/3
f 132/1/3 117/1/3 131/1/3
f 133/2/3 118/2/3 132/2/3
f 136/3/3 135/3/3 134/3/3
f 139/3/3 135/3/3 136/3/3
f 140/3/3 135/3/3 139/3/3
f 141/1/3 138/1/3 137/1/3
f 142/1/3 138/1/3 141/1/3
f 144/1/3 138/1/3 142/1/3
f 145/1/3 144/1/3 143/1/3
f 146/3/3 139/3/3 138/3/3
f 146/1/3 144/1/3 145/1/3
f 146/3/3 140/3/3 139/3/3
f 146/1/3 138/1/3 144/1/3
f 147/3/3 140/3/3 146/3/3
f 148/3/3 140/3/3 147/3/3
f 150/3/3 148/3/3 147/3/3
f 151/3/3 150/3/3 149/3/3
f 152/3/3 148/3/3 150/3/3
f 152/3/3 150/3/3 151/3/3
f 153/3/4 154/3/4 155/3/4
f 155/3/4 154/3/4 156/3/4
f 156/3/4 154/3/4 159/3/4
f 159/3/4 154/3/4 160/3/4
f 157/1/4 158/1/4 162/1/4
f 162/1/4 158/1/4 163/1/4
f 160/1/4 161/1/4 164/1/4
f 164/1/4 161/1/4 165/1/4
f 163/1/4 158/1/4 167/1/4
f 166/1/4 167/1/4 170/1/4
f 167/1/4 158/1/4 171/1/4
f 170/1/4 167/1/4 171/1/4
f 168/1/4 169/1/4 173/1/4
f 173/1/4 169/1/4 174/1/4
f 172/3/4 173/3/4 176/3/4
f 175/3/4 176/3/4 177/3/4
f 176/3/4 173/3/4 178/3/4
f 177/3/4 176/3/4 178/3/4
f 179/5/4 180/5/4 184/5/4
f 181/1/4 182/1/4 185/1/4
f 179/5/4 184/5/4 186/5/4
f 184/1/4 185/1/4 186/1/4
f 185/1/4 182/1/4 187/1/4
f 186/1/4 185/1/4 187/1/4
f 179/5/4 186/5/4 188/5/4
f 188/5/4 186/5/4 189/5/4
f 187/1/4 182/1/4 190/1/4
f 182/2/4 183/2/4 191/2/4
f 190/1/4 182/1/4 191/1/4
f 191/2/4 183/2/4 192/2/4
f 197/1/5 194/1/5 193/1/5
f 198/1/5 194/1/5 197/1/5
f 199/1/5 196/1/5 195/1/5
f 200/1/5 196/1/5 199/1/5
f 203/1/5 202/1/5 201/1/5
f 204/1/5 202/1/5 203/1/5
f 207/5/5 206/5/5 205/5/5
f 208/5/5 206/5/5 207/5/5
f 211/3/5 208/3/5 207/3/5
f 212/3/5 208/3/5 211/3/5
f 215/3/5 210/3/5 209/3/5
f 216/3/5 210/3/5 215/3/5
f 217/5/5 214/5/5 213/5/5
f 218/5/5 214/5/5 217/5/5
f 221/5/5 220/5/5 219/5/5
f 222/5/5 220/5/5 221/5/5
f 227/3/5 224/3/5 223/3/5
f 228/3/5 224/3/5 227/3/5
f 229/3/5 226/3/5 225/3/5
f 230/3/5 226/3/5 229/3/5
f 233/1/5 232/1/5 231/1/5
f 234/1/5 232/1/5 233/1/5
f 239/1/5 236/1/5 235/1/5
f 240/1/5 236/1/5 239/1/5
f 241/1/5 238/1/5 237/1/5
f 242/1/5 238/1/5 241/1/5
f 243/1/6 244/1/6 247/1/6
f 247/1/6 244/1/6 248/1/6
f 245/1/6 246/1/6 249/1/6
f 249/1/6 246/1/6 250/1/6
f 251/3/6 252/3/6 253/3/6
f 253/3/6 252/3/6 254/3/6
f 255/5/6 256/5/6 257/5/6
f 257/5/6 256/5/6 258/5/6
f 259/3/6 260/3/6 263/3/6
f 263/3/6 260/3/6 264/3/6
f 261/3/6 262/3/6 267/3/6
f 267/3/6 262/3/6 268/3/6
f 264/5/6 265/5/6 269/5/6
f 269/5/6 265/5/6 270/5/6
f 266/5/6 267/5/6 271/5/6
f 271/5/6 267/5/6 272/5/6
f 273/2/6 274/2/6 275/2/6
f 275/2/6 274/2/6 276/2/6
