# MagicaVoxel @ Ephtracy

# group
g button_green

# material
mtllib button_green.mtl
usemtl palette

# normals
vn -1 0 0
vn 1 0 0
vn 0 0 1
vn 0 0 -1
vn 0 -1 0
vn 0 1 0

# texcoords
vt 0.310547 0.5
vt 0.337891 0.5
vt 0.888672 0.5
vt 0.978516 0.5
vt 0.982422 0.5

# verts
v -4 0 3
v -4 0 -3
v -4 1 3
v -4 1 -3
v -3 0 4
v -3 0 3
v -3 0 -3
v -3 0 -4
v -3 1 4
v -3 1 3
v -3 1 -3
v -3 1 -4
v -2 1 2
v -2 1 1
v -2 1 -1
v -2 1 -2
v -2 2 2
v -2 2 -2
v 2 1 2
v 2 1 1
v 2 1 -1
v 2 1 -2
v 2 2 2
v 2 2 -2
v 3 0 4
v 3 0 3
v 3 0 -3
v 3 0 -4
v 3 1 4
v 3 1 3
v 3 1 -3
v 3 1 -4
v 4 0 3
v 4 0 -3
v 4 1 3
v 4 1 -3
v -3 0 4
v -3 1 4
v 3 0 4
v 3 1 4
v -4 0 3
v -4 1 3
v -3 0 3
v -3 1 3
v 3 0 3
v 3 1 3
v 4 0 3
v 4 1 3
v -2 1 2
v -2 2 2
v -1 1 2
v 1 1 2
v 2 1 2
v 2 2 2
v -2 1 -2
v -2 2 -2
v -1 1 -2
v 1 1 -2
v 2 1 -2
v 2 2 -2
v -4 0 -3
v -4 1 -3
v -3 0 -3
v -3 1 -3
v 3 0 -3
v 3 1 -3
v 4 0 -3
v 4 1 -3
v -3 0 -4
v -3 1 -4
v 3 0 -4
v 3 1 -4
v -3 0 4
v 3 0 4
v -4 0 3
v -3 0 3
v -2 0 3
v -1 0 3
v 1 0 3
v 2 0 3
v 3 0 3
v 4 0 3
v -3 0 2
v -2 0 2
v -1 0 2
v 1 0 2
v 2 0 2
v 3 0 2
v -3 0 1
v -2 0 1
v 2 0 1
v 3 0 1
v -3 0 -1
v -2 0 -1
v 2 0 -1
v 3 0 -1
v -3 0 -2
v -2 0 -2
v -1 0 -2
v 1 0 -2
v 2 0 -2
v 3 0 -2
v -4 0 -3
v -3 0 -3
v -2 0 -3
v -1 0 -3
v 1 0 -3
v 2 0 -3
v 3 0 -3
v 4 0 -3
v -3 0 -4
v 3 0 -4
v -3 1 4
v 3 1 4
v -4 1 3
v -3 1 3
v -2 1 3
v -1 1 3
v 1 1 3
v 2 1 3
v 3 1 3
v 4 1 3
v -3 1 2
v -2 1 2
v -1 1 2
v 1 1 2
v 2 1 2
v 3 1 2
v -3 1 1
v -2 1 1
v 2 1 1
v 3 1 1
v -3 1 -1
v -2 1 -1
v 2 1 -1
v 3 1 -1
v -3 1 -2
v -2 1 -2
v -1 1 -2
v 1 1 -2
v 2 1 -2
v 3 1 -2
v -4 1 -3
v -3 1 -3
v -2 1 -3
v -1 1 -3
v 1 1 -3
v 2 1 -3
v 3 1 -3
v 4 1 -3
v -3 1 -4
v 3 1 -4
v -2 2 2
v 2 2 2
v -2 2 -2
v 2 2 -2

# faces
f 3/4/1 2/4/1 1/4/1
f 4/4/1 2/4/1 3/4/1
f 9/4/1 6/4/1 5/4/1
f 10/4/1 6/4/1 9/4/1
f 11/4/1 8/4/1 7/4/1
f 12/4/1 8/4/1 11/4/1
f 17/3/1 14/3/1 13/3/1
f 17/3/1 16/3/1 15/3/1
f 17/3/1 15/3/1 14/3/1
f 18/3/1 16/3/1 17/3/1
f 19/3/2 20/3/2 23/3/2
f 21/3/2 22/3/2 23/3/2
f 20/3/2 21/3/2 23/3/2
f 23/3/2 22/3/2 24/3/2
f 25/4/2 26/4/2 29/4/2
f 29/4/2 26/4/2 30/4/2
f 27/4/2 28/4/2 31/4/2
f 31/4/2 28/4/2 32/4/2
f 33/4/2 34/4/2 35/4/2
f 35/4/2 34/4/2 36/4/2
f 39/4/3 38/4/3 37/4/3
f 40/4/3 38/4/3 39/4/3
f 43/4/3 42/4/3 41/4/3
f 44/4/3 42/4/3 43/4/3
f 47/4/3 46/4/3 45/4/3
f 48/4/3 46/4/3 47/4/3
f 51/3/3 50/3/3 49/3/3
f 52/3/3 50/3/3 51/3/3
f 53/3/3 50/3/3 52/3/3
f 54/3/3 50/3/3 53/3/3
f 55/3/4 56/3/4 57/3/4
f 57/3/4 56/3/4 58/3/4
f 58/3/4 56/3/4 59/3/4
f 59/3/4 56/3/4 60/3/4
f 61/4/4 62/4/4 63/4/4
f 63/4/4 62/4/4 64/4/4
f 65/4/4 66/4/4 67/4/4
f 67/4/4 66/4/4 68/4/4
f 69/4/4 70/4/4 71/4/4
f 71/4/4 70/4/4 72/4/4
f 76/4/5 74/4/5 73/4/5
f 77/4/5 74/4/5 76/4/5
f 78/4/5 74/4/5 77/4/5
f 79/4/5 74/4/5 78/4/5
f 80/4/5 74/4/5 79/4/5
f 81/4/5 74/4/5 80/4/5
f 83/4/5 76/4/5 75/4/5
f 83/2/5 77/2/5 76/2/5
f 84/5/5 78/5/5 77/5/5
f 84/2/5 77/2/5 83/2/5
f 85/2/5 79/2/5 78/2/5
f 85/5/5 78/5/5 84/5/5
f 86/5/5 80/5/5 79/5/5
f 86/2/5 79/2/5 85/2/5
f 87/2/5 81/2/5 80/2/5
f 87/5/5 80/5/5 86/5/5
f 88/4/5 82/4/5 81/4/5
f 88/2/5 81/2/5 87/2/5
f 89/4/5 83/4/5 75/4/5
f 89/5/5 84/5/5 83/5/5
f 90/1/5 87/1/5 86/1/5
f 90/5/5 84/5/5 89/5/5
f 90/1/5 86/1/5 85/1/5
f 90/1/5 85/1/5 84/1/5
f 91/5/5 88/5/5 87/5/5
f 91/1/5 87/1/5 90/1/5
f 92/4/5 82/4/5 88/4/5
f 92/5/5 88/5/5 91/5/5
f 93/4/5 89/4/5 75/4/5
f 93/2/5 90/2/5 89/2/5
f 94/1/5 91/1/5 90/1/5
f 94/2/5 90/2/5 93/2/5
f 95/2/5 92/2/5 91/2/5
f 95/1/5 91/1/5 94/1/5
f 96/4/5 82/4/5 92/4/5
f 96/2/5 92/2/5 95/2/5
f 97/5/5 94/5/5 93/5/5
f 97/4/5 93/4/5 75/4/5
f 98/1/5 95/1/5 94/1/5
f 98/5/5 94/5/5 97/5/5
f 99/1/5 95/1/5 98/1/5
f 100/1/5 95/1/5 99/1/5
f 101/5/5 96/5/5 95/5/5
f 101/1/5 95/1/5 100/1/5
f 102/4/5 82/4/5 96/4/5
f 102/5/5 96/5/5 101/5/5
f 103/4/5 97/4/5 75/4/5
f 104/2/5 98/2/5 97/2/5
f 104/4/5 97/4/5 103/4/5
f 105/5/5 99/5/5 98/5/5
f 105/2/5 98/2/5 104/2/5
f 106/2/5 100/2/5 99/2/5
f 106/5/5 99/5/5 105/5/5
f 107/5/5 101/5/5 100/5/5
f 107/2/5 100/2/5 106/2/5
f 108/2/5 102/2/5 101/2/5
f 108/5/5 101/5/5 107/5/5
f 109/4/5 82/4/5 102/4/5
f 109/2/5 102/2/5 108/2/5
f 110/4/5 82/4/5 109/4/5
f 111/4/5 108/4/5 107/4/5
f 111/4/5 106/4/5 105/4/5
f 111/4/5 109/4/5 108/4/5
f 111/4/5 107/4/5 106/4/5
f 111/4/5 105/4/5 104/4/5
f 112/4/5 109/4/5 111/4/5
f 113/4/6 114/4/6 116/4/6
f 116/4/6 114/4/6 117/4/6
f 117/4/6 114/4/6 118/4/6
f 118/4/6 114/4/6 119/4/6
f 119/4/6 114/4/6 120/4/6
f 120/4/6 114/4/6 121/4/6
f 115/4/6 116/4/6 123/4/6
f 116/2/6 117/2/6 123/2/6
f 117/5/6 118/5/6 124/5/6
f 123/2/6 117/2/6 124/2/6
f 118/2/6 119/2/6 125/2/6
f 124/5/6 118/5/6 125/5/6
f 119/5/6 120/5/6 126/5/6
f 125/2/6 119/2/6 126/2/6
f 120/2/6 121/2/6 127/2/6
f 126/5/6 120/5/6 127/5/6
f 121/4/6 122/4/6 128/4/6
f 127/2/6 121/2/6 128/2/6
f 115/4/6 123/4/6 129/4/6
f 123/5/6 124/5/6 129/5/6
f 129/5/6 124/5/6 130/5/6
f 127/5/6 128/5/6 131/5/6
f 128/4/6 122/4/6 132/4/6
f 131/5/6 128/5/6 132/5/6
f 129/2/6 130/2/6 133/2/6
f 115/4/6 129/4/6 133/4/6
f 133/2/6 130/2/6 134/2/6
f 131/2/6 132/2/6 135/2/6
f 132/4/6 122/4/6 136/4/6
f 135/2/6 132/2/6 136/2/6
f 133/5/6 134/5/6 137/5/6
f 115/4/6 133/4/6 137/4/6
f 137/5/6 134/5/6 138/5/6
f 135/5/6 136/5/6 141/5/6
f 136/4/6 122/4/6 142/4/6
f 141/5/6 136/5/6 142/5/6
f 115/4/6 137/4/6 143/4/6
f 137/2/6 138/2/6 144/2/6
f 143/4/6 137/4/6 144/4/6
f 138/5/6 139/5/6 145/5/6
f 144/2/6 138/2/6 145/2/6
f 139/2/6 140/2/6 146/2/6
f 145/5/6 139/5/6 146/5/6
f 140/5/6 141/5/6 147/5/6
f 146/2/6 140/2/6 147/2/6
f 141/2/6 142/2/6 148/2/6
f 147/5/6 141/5/6 148/5/6
f 142/4/6 122/4/6 149/4/6
f 148/2/6 142/2/6 149/2/6
f 149/4/6 122/4/6 150/4/6
f 145/4/6 146/4/6 151/4/6
f 144/4/6 145/4/6 151/4/6
f 148/4/6 149/4/6 151/4/6
f 146/4/6 147/4/6 151/4/6
f 147/4/6 148/4/6 151/4/6
f 151/4/6 149/4/6 152/4/6
f 153/3/6 154/3/6 155/3/6
f 155/3/6 154/3/6 156/3/6
