# MagicaVoxel @ Ephtracy

# group
g castlebanner_red

# material
mtllib castlebanner_red.mtl
usemtl palette

# normals
vn -1 0 0
vn 1 0 0
vn 0 0 1
vn 0 0 -1
vn 0 -1 0
vn 0 1 0

# texcoords
vt 0.537109 0.5
vt 0.849609 0.5
vt 0.857422 0.5
vt 0.865234 0.5
vt 0.970703 0.5
vt 0.974609 0.5

# verts
v -0.5 0 0.5
v -0.5 0 -0.5
v -0.5 1 1.5
v -0.5 1 0.5
v -0.5 1 -0.5
v -0.5 1 -1.5
v -0.5 2 2.5
v -0.5 2 1.5
v -0.5 2 0.5
v -0.5 2 -0.5
v -0.5 2 -1.5
v -0.5 2 -2.5
v -0.5 3 3.5
v -0.5 3 2.5
v -0.5 3 1.5
v -0.5 3 0.5
v -0.5 3 -0.5
v -0.5 3 -1.5
v -0.5 3 -2.5
v -0.5 3 -3.5
v -0.5 4 4.5
v -0.5 4 3.5
v -0.5 4 2.5
v -0.5 4 1.5
v -0.5 4 -1.5
v -0.5 4 -2.5
v -0.5 4 -3.5
v -0.5 4 -4.5
v -0.5 5 5.5
v -0.5 5 4.5
v -0.5 5 3.5
v -0.5 5 2.5
v -0.5 5 0.5
v -0.5 5 -0.5
v -0.5 5 -2.5
v -0.5 5 -3.5
v -0.5 5 -4.5
v -0.5 5 -5.5
v -0.5 7 2.5
v -0.5 7 0.5
v -0.5 7 -0.5
v -0.5 7 -2.5
v -0.5 8 2.5
v -0.5 8 1.5
v -0.5 8 0.5
v -0.5 8 -0.5
v -0.5 8 -1.5
v -0.5 8 -2.5
v -0.5 15 0.5
v -0.5 15 -0.5
v -0.5 16 1.5
v -0.5 16 0.5
v -0.5 16 -0.5
v -0.5 16 -1.5
v -0.5 17 0.5
v -0.5 17 -0.5
v -0.5 18 3.5
v -0.5 18 -3.5
v -0.5 19 4.5
v -0.5 19 -4.5
v -0.5 20 5.5
v -0.5 20 -5.5
v 0.5 0 0.5
v 0.5 0 -0.5
v 0.5 1 1.5
v 0.5 1 0.5
v 0.5 1 -0.5
v 0.5 1 -1.5
v 0.5 2 2.5
v 0.5 2 1.5
v 0.5 2 0.5
v 0.5 2 -0.5
v 0.5 2 -1.5
v 0.5 2 -2.5
v 0.5 3 3.5
v 0.5 3 2.5
v 0.5 3 1.5
v 0.5 3 0.5
v 0.5 3 -0.5
v 0.5 3 -1.5
v 0.5 3 -2.5
v 0.5 3 -3.5
v 0.5 4 4.5
v 0.5 4 3.5
v 0.5 4 2.5
v 0.5 4 1.5
v 0.5 4 -1.5
v 0.5 4 -2.5
v 0.5 4 -3.5
v 0.5 4 -4.5
v 0.5 5 5.5
v 0.5 5 4.5
v 0.5 5 3.5
v 0.5 5 2.5
v 0.5 5 0.5
v 0.5 5 -0.5
v 0.5 5 -2.5
v 0.5 5 -3.5
v 0.5 5 -4.5
v 0.5 5 -5.5
v 0.5 7 2.5
v 0.5 7 0.5
v 0.5 7 -0.5
v 0.5 7 -2.5
v 0.5 8 2.5
v 0.5 8 1.5
v 0.5 8 0.5
v 0.5 8 -0.5
v 0.5 8 -1.5
v 0.5 8 -2.5
v 0.5 15 0.5
v 0.5 15 -0.5
v 0.5 16 1.5
v 0.5 16 0.5
v 0.5 16 -0.5
v 0.5 16 -1.5
v 0.5 17 0.5
v 0.5 17 -0.5
v 0.5 18 3.5
v 0.5 18 -3.5
v 0.5 19 4.5
v 0.5 19 -4.5
v 0.5 20 5.5
v 0.5 20 -5.5
v -0.5 5 5.5
v -0.5 20 5.5
v 0.5 5 5.5
v 0.5 20 5.5
v -0.5 4 4.5
v -0.5 5 4.5
v 0.5 4 4.5
v 0.5 5 4.5
v -0.5 3 3.5
v -0.5 4 3.5
v 0.5 3 3.5
v 0.5 4 3.5
v -0.5 2 2.5
v -0.5 3 2.5
v 0.5 2 2.5
v 0.5 3 2.5
v -0.5 1 1.5
v -0.5 2 1.5
v 0.5 1 1.5
v 0.5 2 1.5
v -0.5 0 0.5
v -0.5 1 0.5
v 0.5 0 0.5
v 0.5 1 0.5
v -0.5 0 -0.5
v -0.5 1 -0.5
v 0.5 0 -0.5
v 0.5 1 -0.5
v -0.5 1 -1.5
v -0.5 2 -1.5
v 0.5 1 -1.5
v 0.5 2 -1.5
v -0.5 2 -2.5
v -0.5 3 -2.5
v 0.5 2 -2.5
v 0.5 3 -2.5
v -0.5 3 -3.5
v -0.5 4 -3.5
v 0.5 3 -3.5
v 0.5 4 -3.5
v -0.5 4 -4.5
v -0.5 5 -4.5
v 0.5 4 -4.5
v 0.5 5 -4.5
v -0.5 5 -5.5
v -0.5 20 -5.5
v 0.5 5 -5.5
v 0.5 20 -5.5
v -0.5 0 0.5
v 0.5 0 0.5
v -0.5 0 -0.5
v 0.5 0 -0.5
v -0.5 1 1.5
v 0.5 1 1.5
v -0.5 1 0.5
v 0.5 1 0.5
v -0.5 1 -0.5
v 0.5 1 -0.5
v -0.5 1 -1.5
v 0.5 1 -1.5
v -0.5 2 2.5
v 0.5 2 2.5
v -0.5 2 1.5
v 0.5 2 1.5
v -0.5 2 -1.5
v 0.5 2 -1.5
v -0.5 2 -2.5
v 0.5 2 -2.5
v -0.5 3 3.5
v 0.5 3 3.5
v -0.5 3 2.5
v 0.5 3 2.5
v -0.5 3 -2.5
v 0.5 3 -2.5
v -0.5 3 -3.5
v 0.5 3 -3.5
v -0.5 4 4.5
v 0.5 4 4.5
v -0.5 4 3.5
v 0.5 4 3.5
v -0.5 4 -3.5
v 0.5 4 -3.5
v -0.5 4 -4.5
v 0.5 4 -4.5
v -0.5 5 5.5
v 0.5 5 5.5
v -0.5 5 4.5
v 0.5 5 4.5
v -0.5 5 -4.5
v 0.5 5 -4.5
v -0.5 5 -5.5
v 0.5 5 -5.5
v -0.5 20 5.5
v 0.5 20 5.5
v -0.5 20 -5.5
v 0.5 20 -5.5

# faces
f 4/4/1 2/4/1 1/4/1
f 5/4/1 2/4/1 4/4/1
f 8/4/1 4/4/1 3/4/1
f 9/2/1 5/2/1 4/2/1
f 9/4/1 4/4/1 8/4/1
f 10/4/1 6/4/1 5/4/1
f 10/2/1 5/2/1 9/2/1
f 11/4/1 6/4/1 10/4/1
f 14/4/1 8/4/1 7/4/1
f 15/2/1 9/2/1 8/2/1
f 15/4/1 8/4/1 14/4/1
f 16/3/1 10/3/1 9/3/1
f 16/2/1 9/2/1 15/2/1
f 17/2/1 11/2/1 10/2/1
f 17/3/1 10/3/1 16/3/1
f 18/4/1 12/4/1 11/4/1
f 18/2/1 11/2/1 17/2/1
f 19/4/1 12/4/1 18/4/1
f 22/4/1 14/4/1 13/4/1
f 23/2/1 15/2/1 14/2/1
f 23/4/1 14/4/1 22/4/1
f 24/3/1 17/3/1 16/3/1
f 24/2/1 15/2/1 23/2/1
f 24/3/1 16/3/1 15/3/1
f 24/3/1 18/3/1 17/3/1
f 25/2/1 19/2/1 18/2/1
f 25/3/1 18/3/1 24/3/1
f 26/4/1 20/4/1 19/4/1
f 26/2/1 19/2/1 25/2/1
f 27/4/1 20/4/1 26/4/1
f 30/4/1 22/4/1 21/4/1
f 31/2/1 23/2/1 22/2/1
f 31/4/1 22/4/1 30/4/1
f 32/3/1 25/3/1 24/3/1
f 32/2/1 23/2/1 31/2/1
f 32/3/1 24/3/1 23/3/1
f 32/3/1 26/3/1 25/3/1
f 33/3/1 26/3/1 32/3/1
f 34/3/1 26/3/1 33/3/1
f 35/2/1 27/2/1 26/2/1
f 35/3/1 26/3/1 34/3/1
f 36/4/1 28/4/1 27/4/1
f 36/2/1 27/2/1 35/2/1
f 37/4/1 28/4/1 36/4/1
f 39/3/1 32/3/1 31/3/1
f 39/3/1 33/3/1 32/3/1
f 40/1/1 34/1/1 33/1/1
f 40/3/1 33/3/1 39/3/1
f 41/3/1 35/3/1 34/3/1
f 41/1/1 34/1/1 40/1/1
f 41/3/1 36/3/1 35/3/1
f 42/3/1 36/3/1 41/3/1
f 43/1/1 40/1/1 39/1/1
f 43/3/1 39/3/1 31/3/1
f 43/1/1 42/1/1 41/1/1
f 43/1/1 41/1/1 40/1/1
f 44/1/1 42/1/1 43/1/1
f 45/1/1 42/1/1 44/1/1
f 46/1/1 42/1/1 45/1/1
f 47/1/1 42/1/1 46/1/1
f 48/3/1 36/3/1 42/3/1
f 48/1/1 42/1/1 47/1/1
f 49/5/1 45/5/1 44/5/1
f 49/6/1 46/6/1 45/6/1
f 50/5/1 47/5/1 46/5/1
f 50/6/1 46/6/1 49/6/1
f 51/5/1 49/5/1 44/5/1
f 51/3/1 44/3/1 43/3/1
f 51/5/1 50/5/1 49/5/1
f 52/5/1 50/5/1 51/5/1
f 53/5/1 47/5/1 50/5/1
f 53/5/1 50/5/1 52/5/1
f 54/3/1 48/3/1 47/3/1
f 54/5/1 47/5/1 53/5/1
f 55/3/1 52/3/1 51/3/1
f 55/5/1 53/5/1 52/5/1
f 56/3/1 54/3/1 53/3/1
f 56/5/1 53/5/1 55/5/1
f 57/2/1 31/2/1 30/2/1
f 57/3/1 43/3/1 31/3/1
f 57/3/1 56/3/1 55/3/1
f 57/3/1 51/3/1 43/3/1
f 57/3/1 55/3/1 51/3/1
f 58/3/1 54/3/1 56/3/1
f 58/3/1 56/3/1 57/3/1
f 58/3/1 48/3/1 54/3/1
f 58/3/1 36/3/1 48/3/1
f 58/2/1 37/2/1 36/2/1
f 59/2/1 57/2/1 30/2/1
f 59/4/1 30/4/1 29/4/1
f 59/2/1 58/2/1 57/2/1
f 60/2/1 37/2/1 58/2/1
f 60/2/1 58/2/1 59/2/1
f 60/4/1 38/4/1 37/4/1
f 61/4/1 59/4/1 29/4/1
f 61/4/1 60/4/1 59/4/1
f 62/4/1 38/4/1 60/4/1
f 62/4/1 60/4/1 61/4/1
f 63/4/2 64/4/2 66/4/2
f 66/4/2 64/4/2 67/4/2
f 65/4/2 66/4/2 70/4/2
f 66/2/2 67/2/2 71/2/2
f 70/4/2 66/4/2 71/4/2
f 67/4/2 68/4/2 72/4/2
f 71/2/2 67/2/2 72/2/2
f 72/4/2 68/4/2 73/4/2
f 69/4/2 70/4/2 76/4/2
f 70/2/2 71/2/2 77/2/2
f 76/4/2 70/4/2 77/4/2
f 71/3/2 72/3/2 78/3/2
f 77/2/2 71/2/2 78/2/2
f 72/2/2 73/2/2 79/2/2
f 78/3/2 72/3/2 79/3/2
f 73/4/2 74/4/2 80/4/2
f 79/2/2 73/2/2 80/2/2
f 80/4/2 74/4/2 81/4/2
f 75/4/2 76/4/2 84/4/2
f 76/2/2 77/2/2 85/2/2
f 84/4/2 76/4/2 85/4/2
f 78/3/2 79/3/2 86/3/2
f 85/2/2 77/2/2 86/2/2
f 77/3/2 78/3/2 86/3/2
f 79/3/2 80/3/2 86/3/2
f 80/2/2 81/2/2 87/2/2
f 86/3/2 80/3/2 87/3/2
f 81/4/2 82/4/2 88/4/2
f 87/2/2 81/2/2 88/2/2
f 88/4/2 82/4/2 89/4/2
f 83/4/2 84/4/2 92/4/2
f 84/2/2 85/2/2 93/2/2
f 92/4/2 84/4/2 93/4/2
f 86/3/2 87/3/2 94/3/2
f 93/2/2 85/2/2 94/2/2
f 85/3/2 86/3/2 94/3/2
f 87/3/2 88/3/2 94/3/2
f 94/3/2 88/3/2 95/3/2
f 95/3/2 88/3/2 96/3/2
f 88/2/2 89/2/2 97/2/2
f 96/3/2 88/3/2 97/3/2
f 89/4/2 90/4/2 98/4/2
f 97/2/2 89/2/2 98/2/2
f 98/4/2 90/4/2 99/4/2
f 93/3/2 94/3/2 101/3/2
f 94/3/2 95/3/2 101/3/2
f 95/1/2 96/1/2 102/1/2
f 101/3/2 95/3/2 102/3/2
f 96/3/2 97/3/2 103/3/2
f 102/1/2 96/1/2 103/1/2
f 97/3/2 98/3/2 103/3/2
f 103/3/2 98/3/2 104/3/2
f 101/1/2 102/1/2 105/1/2
f 93/3/2 101/3/2 105/3/2
f 103/1/2 104/1/2 105/1/2
f 102/1/2 103/1/2 105/1/2
f 105/1/2 104/1/2 106/1/2
f 106/1/2 104/1/2 107/1/2
f 107/1/2 104/1/2 108/1/2
f 108/1/2 104/1/2 109/1/2
f 104/3/2 98/3/2 110/3/2
f 109/1/2 104/1/2 110/1/2
f 106/5/2 107/5/2 111/5/2
f 107/6/2 108/6/2 111/6/2
f 108/5/2 109/5/2 112/5/2
f 111/6/2 108/6/2 112/6/2
f 106/5/2 111/5/2 113/5/2
f 105/3/2 106/3/2 113/3/2
f 111/5/2 112/5/2 113/5/2
f 113/5/2 112/5/2 114/5/2
f 112/5/2 109/5/2 115/5/2
f 114/5/2 112/5/2 115/5/2
f 109/3/2 110/3/2 116/3/2
f 115/5/2 109/5/2 116/5/2
f 113/3/2 114/3/2 117/3/2
f 114/5/2 115/5/2 117/5/2
f 115/3/2 116/3/2 118/3/2
f 117/5/2 115/5/2 118/5/2
f 92/2/2 93/2/2 119/2/2
f 93/3/2 105/3/2 119/3/2
f 117/3/2 118/3/2 119/3/2
f 105/3/2 113/3/2 119/3/2
f 113/3/2 117/3/2 119/3/2
f 118/3/2 116/3/2 120/3/2
f 119/3/2 118/3/2 120/3/2
f 116/3/2 110/3/2 120/3/2
f 110/3/2 98/3/2 120/3/2
f 98/2/2 99/2/2 120/2/2
f 92/2/2 119/2/2 121/2/2
f 91/4/2 92/4/2 121/4/2
f 119/2/2 120/2/2 121/2/2
f 120/2/2 99/2/2 122/2/2
f 121/2/2 120/2/2 122/2/2
f 99/4/2 100/4/2 122/4/2
f 91/4/2 121/4/2 123/4/2
f 121/4/2 122/4/2 123/4/2
f 122/4/2 100/4/2 124/4/2
f 123/4/2 122/4/2 124/4/2
f 127/4/3 126/4/3 125/4/3
f 128/4/3 126/4/3 127/4/3
f 131/4/3 130/4/3 129/4/3
f 132/4/3 130/4/3 131/4/3
f 135/4/3 134/4/3 133/4/3
f 136/4/3 134/4/3 135/4/3
f 139/4/3 138/4/3 137/4/3
f 140/4/3 138/4/3 139/4/3
f 143/4/3 142/4/3 141/4/3
f 144/4/3 142/4/3 143/4/3
f 147/4/3 146/4/3 145/4/3
f 148/4/3 146/4/3 147/4/3
f 149/4/4 150/4/4 151/4/4
f 151/4/4 150/4/4 152/4/4
f 153/4/4 154/4/4 155/4/4
f 155/4/4 154/4/4 156/4/4
f 157/4/4 158/4/4 159/4/4
f 159/4/4 158/4/4 160/4/4
f 161/4/4 162/4/4 163/4/4
f 163/4/4 162/4/4 164/4/4
f 165/4/4 166/4/4 167/4/4
f 167/4/4 166/4/4 168/4/4
f 169/4/4 170/4/4 171/4/4
f 171/4/4 170/4/4 172/4/4
f 175/4/5 174/4/5 173/4/5
f 176/4/5 174/4/5 175/4/5
f 179/4/5 178/4/5 177/4/5
f 180/4/5 178/4/5 179/4/5
f 183/4/5 182/4/5 181/4/5
f 184/4/5 182/4/5 183/4/5
f 187/4/5 186/4/5 185/4/5
f 188/4/5 186/4/5 187/4/5
f 191/4/5 190/4/5 189/4/5
f 192/4/5 190/4/5 191/4/5
f 195/4/5 194/4/5 193/4/5
f 196/4/5 194/4/5 195/4/5
f 199/4/5 198/4/5 197/4/5
f 200/4/5 198/4/5 199/4/5
f 203/4/5 202/4/5 201/4/5
f 204/4/5 202/4/5 203/4/5
f 207/4/5 206/4/5 205/4/5
f 208/4/5 206/4/5 207/4/5
f 211/4/5 210/4/5 209/4/5
f 212/4/5 210/4/5 211/4/5
f 215/4/5 214/4/5 213/4/5
f 216/4/5 214/4/5 215/4/5
f 217/4/6 218/4/6 219/4/6
f 219/4/6 218/4/6 220/4/6
