# MagicaVoxel @ Ephtracy

# group
g castlebanner_blue

# material
mtllib castlebanner_blue.mtl
usemtl palette

# normals
vn -1 0 0
vn 1 0 0
vn 0 0 1
vn 0 0 -1
vn 0 -1 0
vn 0 1 0

# texcoords
vt 0.537109 0.5
vt 0.837891 0.5
vt 0.919922 0.5
vt 0.935547 0.5
vt 0.970703 0.5
vt 0.974609 0.5

# verts
v -0.5 0 0.5
v -0.5 0 -0.5
v -0.5 1 1.5
v -0.5 1 0.5
v -0.5 1 -0.5
v -0.5 1 -1.5
v -0.5 2 2.5
v -0.5 2 1.5
v -0.5 2 0.5
v -0.5 2 -0.5
v -0.5 2 -1.5
v -0.5 2 -2.5
v -0.5 3 3.5
v -0.5 3 2.5
v -0.5 3 1.5
v -0.5 3 0.5
v -0.5 3 -0.5
v -0.5 3 -1.5
v -0.5 3 -2.5
v -0.5 3 -3.5
v -0.5 4 4.5
v -0.5 4 3.5
v -0.5 4 2.5
v -0.5 4 1.5
v -0.5 4 -1.5
v -0.5 4 -2.5
v -0.5 4 -3.5
v -0.5 4 -4.5
v -0.5 5 5.5
v -0.5 5 4.5
v -0.5 5 3.5
v -0.5 5 2.5
v -0.5 5 0.5
v -0.5 5 -0.5
v -0.5 5 -2.5
v -0.5 5 -3.5
v -0.5 5 -4.5
v -0.5 5 -5.5
v -0.5 7 2.5
v -0.5 7 0.5
v -0.5 7 -0.5
v -0.5 7 -2.5
v -0.5 8 2.5
v -0.5 8 1.5
v -0.5 8 0.5
v -0.5 8 -0.5
v -0.5 8 -1.5
v -0.5 8 -2.5
v -0.5 15 0.5
v -0.5 15 -0.5
v -0.5 16 1.5
v -0.5 16 0.5
v -0.5 16 -0.5
v -0.5 16 -1.5
v -0.5 17 0.5
v -0.5 17 -0.5
v -0.5 18 3.5
v -0.5 18 -3.5
v -0.5 19 4.5
v -0.5 19 -4.5
v -0.5 20 5.5
v -0.5 20 -5.5
v 0.5 0 0.5
v 0.5 0 -0.5
v 0.5 1 1.5
v 0.5 1 0.5
v 0.5 1 -0.5
v 0.5 1 -1.5
v 0.5 2 2.5
v 0.5 2 1.5
v 0.5 2 0.5
v 0.5 2 -0.5
v 0.5 2 -1.5
v 0.5 2 -2.5
v 0.5 3 3.5
v 0.5 3 2.5
v 0.5 3 1.5
v 0.5 3 0.5
v 0.5 3 -0.5
v 0.5 3 -1.5
v 0.5 3 -2.5
v 0.5 3 -3.5
v 0.5 4 4.5
v 0.5 4 3.5
v 0.5 4 2.5
v 0.5 4 1.5
v 0.5 4 -1.5
v 0.5 4 -2.5
v 0.5 4 -3.5
v 0.5 4 -4.5
v 0.5 5 5.5
v 0.5 5 4.5
v 0.5 5 3.5
v 0.5 5 2.5
v 0.5 5 0.5
v 0.5 5 -0.5
v 0.5 5 -2.5
v 0.5 5 -3.5
v 0.5 5 -4.5
v 0.5 5 -5.5
v 0.5 7 2.5
v 0.5 7 0.5
v 0.5 7 -0.5
v 0.5 7 -2.5
v 0.5 8 2.5
v 0.5 8 1.5
v 0.5 8 0.5
v 0.5 8 -0.5
v 0.5 8 -1.5
v 0.5 8 -2.5
v 0.5 15 0.5
v 0.5 15 -0.5
v 0.5 16 1.5
v 0.5 16 0.5
v 0.5 16 -0.5
v 0.5 16 -1.5
v 0.5 17 0.5
v 0.5 17 -0.5
v 0.5 18 3.5
v 0.5 18 -3.5
v 0.5 19 4.5
v 0.5 19 -4.5
v 0.5 20 5.5
v 0.5 20 -5.5
v -0.5 5 5.5
v -0.5 20 5.5
v 0.5 5 5.5
v 0.5 20 5.5
v -0.5 4 4.5
v -0.5 5 4.5
v 0.5 4 4.5
v 0.5 5 4.5
v -0.5 3 3.5
v -0.5 4 3.5
v 0.5 3 3.5
v 0.5 4 3.5
v -0.5 2 2.5
v -0.5 3 2.5
v 0.5 2 2.5
v 0.5 3 2.5
v -0.5 1 1.5
v -0.5 2 1.5
v 0.5 1 1.5
v 0.5 2 1.5
v -0.5 0 0.5
v -0.5 1 0.5
v 0.5 0 0.5
v 0.5 1 0.5
v -0.5 0 -0.5
v -0.5 1 -0.5
v 0.5 0 -0.5
v 0.5 1 -0.5
v -0.5 1 -1.5
v -0.5 2 -1.5
v 0.5 1 -1.5
v 0.5 2 -1.5
v -0.5 2 -2.5
v -0.5 3 -2.5
v 0.5 2 -2.5
v 0.5 3 -2.5
v -0.5 3 -3.5
v -0.5 4 -3.5
v 0.5 3 -3.5
v 0.5 4 -3.5
v -0.5 4 -4.5
v -0.5 5 -4.5
v 0.5 4 -4.5
v 0.5 5 -4.5
v -0.5 5 -5.5
v -0.5 20 -5.5
v 0.5 5 -5.5
v 0.5 20 -5.5
v -0.5 0 0.5
v 0.5 0 0.5
v -0.5 0 -0.5
v 0.5 0 -0.5
v -0.5 1 1.5
v 0.5 1 1.5
v -0.5 1 0.5
v 0.5 1 0.5
v -0.5 1 -0.5
v 0.5 1 -0.5
v -0.5 1 -1.5
v 0.5 1 -1.5
v -0.5 2 2.5
v 0.5 2 2.5
v -0.5 2 1.5
v 0.5 2 1.5
v -0.5 2 -1.5
v 0.5 2 -1.5
v -0.5 2 -2.5
v 0.5 2 -2.5
v -0.5 3 3.5
v 0.5 3 3.5
v -0.5 3 2.5
v 0.5 3 2.5
v -0.5 3 -2.5
v 0.5 3 -2.5
v -0.5 3 -3.5
v 0.5 3 -3.5
v -0.5 4 4.5
v 0.5 4 4.5
v -0.5 4 3.5
v 0.5 4 3.5
v -0.5 4 -3.5
v 0.5 4 -3.5
v -0.5 4 -4.5
v 0.5 4 -4.5
v -0.5 5 5.5
v 0.5 5 5.5
v -0.5 5 4.5
v 0.5 5 4.5
v -0.5 5 -4.5
v 0.5 5 -4.5
v -0.5 5 -5.5
v 0.5 5 -5.5
v -0.5 20 5.5
v 0.5 20 5.5
v -0.5 20 -5.5
v 0.5 20 -5.5

# faces
f 4/2/1 2/2/1 1/2/1
f 5/2/1 2/2/1 4/2/1
f 8/2/1 4/2/1 3/2/1
f 9/3/1 5/3/1 4/3/1
f 9/2/1 4/2/1 8/2/1
f 10/2/1 6/2/1 5/2/1
f 10/3/1 5/3/1 9/3/1
f 11/2/1 6/2/1 10/2/1
f 14/2/1 8/2/1 7/2/1
f 15/3/1 9/3/1 8/3/1
f 15/2/1 8/2/1 14/2/1
f 16/4/1 10/4/1 9/4/1
f 16/3/1 9/3/1 15/3/1
f 17/3/1 11/3/1 10/3/1
f 17/4/1 10/4/1 16/4/1
f 18/2/1 12/2/1 11/2/1
f 18/3/1 11/3/1 17/3/1
f 19/2/1 12/2/1 18/2/1
f 22/2/1 14/2/1 13/2/1
f 23/3/1 15/3/1 14/3/1
f 23/2/1 14/2/1 22/2/1
f 24/4/1 17/4/1 16/4/1
f 24/3/1 15/3/1 23/3/1
f 24/4/1 16/4/1 15/4/1
f 24/4/1 18/4/1 17/4/1
f 25/3/1 19/3/1 18/3/1
f 25/4/1 18/4/1 24/4/1
f 26/2/1 20/2/1 19/2/1
f 26/3/1 19/3/1 25/3/1
f 27/2/1 20/2/1 26/2/1
f 30/2/1 22/2/1 21/2/1
f 31/3/1 23/3/1 22/3/1
f 31/2/1 22/2/1 30/2/1
f 32/4/1 25/4/1 24/4/1
f 32/3/1 23/3/1 31/3/1
f 32/4/1 24/4/1 23/4/1
f 32/4/1 26/4/1 25/4/1
f 33/4/1 26/4/1 32/4/1
f 34/4/1 26/4/1 33/4/1
f 35/3/1 27/3/1 26/3/1
f 35/4/1 26/4/1 34/4/1
f 36/2/1 28/2/1 27/2/1
f 36/3/1 27/3/1 35/3/1
f 37/2/1 28/2/1 36/2/1
f 39/4/1 32/4/1 31/4/1
f 39/4/1 33/4/1 32/4/1
f 40/1/1 34/1/1 33/1/1
f 40/4/1 33/4/1 39/4/1
f 41/4/1 35/4/1 34/4/1
f 41/1/1 34/1/1 40/1/1
f 41/4/1 36/4/1 35/4/1
f 42/4/1 36/4/1 41/4/1
f 43/1/1 40/1/1 39/1/1
f 43/4/1 39/4/1 31/4/1
f 43/1/1 42/1/1 41/1/1
f 43/1/1 41/1/1 40/1/1
f 44/1/1 42/1/1 43/1/1
f 45/1/1 42/1/1 44/1/1
f 46/1/1 42/1/1 45/1/1
f 47/1/1 42/1/1 46/1/1
f 48/4/1 36/4/1 42/4/1
f 48/1/1 42/1/1 47/1/1
f 49/5/1 45/5/1 44/5/1
f 49/6/1 46/6/1 45/6/1
f 50/5/1 47/5/1 46/5/1
f 50/6/1 46/6/1 49/6/1
f 51/5/1 49/5/1 44/5/1
f 51/4/1 44/4/1 43/4/1
f 51/5/1 50/5/1 49/5/1
f 52/5/1 50/5/1 51/5/1
f 53/5/1 47/5/1 50/5/1
f 53/5/1 50/5/1 52/5/1
f 54/4/1 48/4/1 47/4/1
f 54/5/1 47/5/1 53/5/1
f 55/4/1 52/4/1 51/4/1
f 55/5/1 53/5/1 52/5/1
f 56/4/1 54/4/1 53/4/1
f 56/5/1 53/5/1 55/5/1
f 57/3/1 31/3/1 30/3/1
f 57/4/1 43/4/1 31/4/1
f 57/4/1 56/4/1 55/4/1
f 57/4/1 51/4/1 43/4/1
f 57/4/1 55/4/1 51/4/1
f 58/4/1 54/4/1 56/4/1
f 58/4/1 56/4/1 57/4/1
f 58/4/1 48/4/1 54/4/1
f 58/4/1 36/4/1 48/4/1
f 58/3/1 37/3/1 36/3/1
f 59/3/1 57/3/1 30/3/1
f 59/2/1 30/2/1 29/2/1
f 59/3/1 58/3/1 57/3/1
f 60/3/1 37/3/1 58/3/1
f 60/3/1 58/3/1 59/3/1
f 60/2/1 38/2/1 37/2/1
f 61/2/1 59/2/1 29/2/1
f 61/2/1 60/2/1 59/2/1
f 62/2/1 38/2/1 60/2/1
f 62/2/1 60/2/1 61/2/1
f 63/2/2 64/2/2 66/2/2
f 66/2/2 64/2/2 67/2/2
f 65/2/2 66/2/2 70/2/2
f 66/3/2 67/3/2 71/3/2
f 70/2/2 66/2/2 71/2/2
f 67/2/2 68/2/2 72/2/2
f 71/3/2 67/3/2 72/3/2
f 72/2/2 68/2/2 73/2/2
f 69/2/2 70/2/2 76/2/2
f 70/3/2 71/3/2 77/3/2
f 76/2/2 70/2/2 77/2/2
f 71/4/2 72/4/2 78/4/2
f 77/3/2 71/3/2 78/3/2
f 72/3/2 73/3/2 79/3/2
f 78/4/2 72/4/2 79/4/2
f 73/2/2 74/2/2 80/2/2
f 79/3/2 73/3/2 80/3/2
f 80/2/2 74/2/2 81/2/2
f 75/2/2 76/2/2 84/2/2
f 76/3/2 77/3/2 85/3/2
f 84/2/2 76/2/2 85/2/2
f 78/4/2 79/4/2 86/4/2
f 85/3/2 77/3/2 86/3/2
f 77/4/2 78/4/2 86/4/2
f 79/4/2 80/4/2 86/4/2
f 80/3/2 81/3/2 87/3/2
f 86/4/2 80/4/2 87/4/2
f 81/2/2 82/2/2 88/2/2
f 87/3/2 81/3/2 88/3/2
f 88/2/2 82/2/2 89/2/2
f 83/2/2 84/2/2 92/2/2
f 84/3/2 85/3/2 93/3/2
f 92/2/2 84/2/2 93/2/2
f 86/4/2 87/4/2 94/4/2
f 93/3/2 85/3/2 94/3/2
f 85/4/2 86/4/2 94/4/2
f 87/4/2 88/4/2 94/4/2
f 94/4/2 88/4/2 95/4/2
f 95/4/2 88/4/2 96/4/2
f 88/3/2 89/3/2 97/3/2
f 96/4/2 88/4/2 97/4/2
f 89/2/2 90/2/2 98/2/2
f 97/3/2 89/3/2 98/3/2
f 98/2/2 90/2/2 99/2/2
f 93/4/2 94/4/2 101/4/2
f 94/4/2 95/4/2 101/4/2
f 95/1/2 96/1/2 102/1/2
f 101/4/2 95/4/2 102/4/2
f 96/4/2 97/4/2 103/4/2
f 102/1/2 96/1/2 103/1/2
f 97/4/2 98/4/2 103/4/2
f 103/4/2 98/4/2 104/4/2
f 101/1/2 102/1/2 105/1/2
f 93/4/2 101/4/2 105/4/2
f 103/1/2 104/1/2 105/1/2
f 102/1/2 103/1/2 105/1/2
f 105/1/2 104/1/2 106/1/2
f 106/1/2 104/1/2 107/1/2
f 107/1/2 104/1/2 108/1/2
f 108/1/2 104/1/2 109/1/2
f 104/4/2 98/4/2 110/4/2
f 109/1/2 104/1/2 110/1/2
f 106/5/2 107/5/2 111/5/2
f 107/6/2 108/6/2 111/6/2
f 108/5/2 109/5/2 112/5/2
f 111/6/2 108/6/2 112/6/2
f 106/5/2 111/5/2 113/5/2
f 105/4/2 106/4/2 113/4/2
f 111/5/2 112/5/2 113/5/2
f 113/5/2 112/5/2 114/5/2
f 112/5/2 109/5/2 115/5/2
f 114/5/2 112/5/2 115/5/2
f 109/4/2 110/4/2 116/4/2
f 115/5/2 109/5/2 116/5/2
f 113/4/2 114/4/2 117/4/2
f 114/5/2 115/5/2 117/5/2
f 115/4/2 116/4/2 118/4/2
f 117/5/2 115/5/2 118/5/2
f 92/3/2 93/3/2 119/3/2
f 93/4/2 105/4/2 119/4/2
f 117/4/2 118/4/2 119/4/2
f 105/4/2 113/4/2 119/4/2
f 113/4/2 117/4/2 119/4/2
f 118/4/2 116/4/2 120/4/2
f 119/4/2 118/4/2 120/4/2
f 116/4/2 110/4/2 120/4/2
f 110/4/2 98/4/2 120/4/2
f 98/3/2 99/3/2 120/3/2
f 92/3/2 119/3/2 121/3/2
f 91/2/2 92/2/2 121/2/2
f 119/3/2 120/3/2 121/3/2
f 120/3/2 99/3/2 122/3/2
f 121/3/2 120/3/2 122/3/2
f 99/2/2 100/2/2 122/2/2
f 91/2/2 121/2/2 123/2/2
f 121/2/2 122/2/2 123/2/2
f 122/2/2 100/2/2 124/2/2
f 123/2/2 122/2/2 124/2/2
f 127/2/3 126/2/3 125/2/3
f 128/2/3 126/2/3 127/2/3
f 131/2/3 130/2/3 129/2/3
f 132/2/3 130/2/3 131/2/3
f 135/2/3 134/2/3 133/2/3
f 136/2/3 134/2/3 135/2/3
f 139/2/3 138/2/3 137/2/3
f 140/2/3 138/2/3 139/2/3
f 143/2/3 142/2/3 141/2/3
f 144/2/3 142/2/3 143/2/3
f 147/2/3 146/2/3 145/2/3
f 148/2/3 146/2/3 147/2/3
f 149/2/4 150/2/4 151/2/4
f 151/2/4 150/2/4 152/2/4
f 153/2/4 154/2/4 155/2/4
f 155/2/4 154/2/4 156/2/4
f 157/2/4 158/2/4 159/2/4
f 159/2/4 158/2/4 160/2/4
f 161/2/4 162/2/4 163/2/4
f 163/2/4 162/2/4 164/2/4
f 165/2/4 166/2/4 167/2/4
f 167/2/4 166/2/4 168/2/4
f 169/2/4 170/2/4 171/2/4
f 171/2/4 170/2/4 172/2/4
f 175/2/5 174/2/5 173/2/5
f 176/2/5 174/2/5 175/2/5
f 179/2/5 178/2/5 177/2/5
f 180/2/5 178/2/5 179/2/5
f 183/2/5 182/2/5 181/2/5
f 184/2/5 182/2/5 183/2/5
f 187/2/5 186/2/5 185/2/5
f 188/2/5 186/2/5 187/2/5
f 191/2/5 190/2/5 189/2/5
f 192/2/5 190/2/5 191/2/5
f 195/2/5 194/2/5 193/2/5
f 196/2/5 194/2/5 195/2/5
f 199/2/5 198/2/5 197/2/5
f 200/2/5 198/2/5 199/2/5
f 203/2/5 202/2/5 201/2/5
f 204/2/5 202/2/5 203/2/5
f 207/2/5 206/2/5 205/2/5
f 208/2/5 206/2/5 207/2/5
f 211/2/5 210/2/5 209/2/5
f 212/2/5 210/2/5 211/2/5
f 215/2/5 214/2/5 213/2/5
f 216/2/5 214/2/5 215/2/5
f 217/2/6 218/2/6 219/2/6
f 219/2/6 218/2/6 220/2/6
