# MagicaVoxel @ Ephtracy

# group
g tower

# material
mtllib tower.mtl
usemtl palette

# normals
vn -1 0 0
vn 1 0 0
vn 0 0 1
vn 0 0 -1
vn 0 -1 0
vn 0 1 0

# texcoords
vt 0.306641 0.5
vt 0.841797 0.5
vt 0.994141 0.5

# verts
v -50 0 3
v -50 0 -2
v -50 1 3
v -50 1 -2
v -20 0 20
v -20 0 3
v -20 0 -2
v -20 0 -20
v -20 1 20
v -20 1 3
v -20 1 -2
v -20 1 -20
v -7 1 6
v -7 1 -17
v -7 2 -16
v -7 2 -17
v -7 3 -15
v -7 3 -16
v -7 4 -14
v -7 4 -15
v -7 5 -13
v -7 5 -14
v -7 6 -12
v -7 6 -13
v -7 7 -11
v -7 7 -12
v -7 8 -10
v -7 8 -11
v -7 9 -9
v -7 9 -10
v -7 10 6
v -7 10 -9
v -4 1 3
v -4 1 -2
v -4 9 3
v -4 9 -2
v -3 0 50
v -3 0 20
v -3 0 -20
v -3 0 -50
v -3 1 50
v -3 1 20
v -3 1 4
v -3 1 3
v -3 1 -2
v -3 1 -3
v -3 1 -20
v -3 1 -50
v -3 9 4
v -3 9 3
v -3 9 -2
v -3 9 -3
v -2 1 -3
v -2 1 -4
v -2 9 -3
v -2 9 -4
v 2 8 -4
v 2 8 -6
v 2 9 -4
v 2 9 -6
v 3 7 -4
v 3 7 -6
v 3 8 -4
v 3 8 -6
v 3 8 -9
v 3 9 -6
v 3 9 -9
v 4 6 -3
v 4 6 -6
v 4 7 -3
v 4 7 -6
v 4 7 -10
v 4 8 -6
v 4 8 -10
v 5 4 -2
v 5 4 -6
v 5 6 -2
v 5 6 -6
v 5 6 -11
v 5 7 -6
v 5 7 -11
v 7 5 -6
v 7 5 -12
v 7 6 -6
v 7 6 -12
v 8 4 -6
v 8 4 -12
v 8 5 -6
v 8 5 -12
v 9 3 -0
v 9 3 -12
v 9 4 -0
v 9 4 -12
v 10 2 -0
v 10 2 -12
v 10 3 -0
v 10 3 -12
v 11 1 -0
v 11 1 -15
v 11 2 -0
v 11 2 -15
v -6 1 4
v -6 1 -13
v -6 2 -12
v -6 2 -13
v -6 6 -11
v -6 6 -12
v -6 7 -10
v -6 7 -11
v -6 8 -9
v -6 8 -10
v -6 9 4
v -6 9 -9
v -4 1 -13
v -4 1 -15
v -4 2 -13
v -4 2 -15
v 2 0 -20
v 2 0 -50
v 2 1 -20
v 2 1 -50
v 3 0 50
v 3 0 20
v 3 1 50
v 3 1 20
v 3 1 -3
v 3 1 -4
v 3 7 -3
v 3 7 -4
v 3 8 -3
v 3 8 -4
v 3 9 -4
v 3 9 -9
v 3 10 -3
v 3 10 -9
v 4 1 6
v 4 1 3
v 4 1 -2
v 4 1 -3
v 4 6 -2
v 4 6 -3
v 4 7 -2
v 4 7 -3
v 4 8 -3
v 4 8 -4
v 4 8 -10
v 4 9 -4
v 4 9 -10
v 4 10 6
v 4 10 3
v 4 10 -2
v 4 10 -3
v 5 1 -0
v 5 1 -2
v 5 2 3
v 5 2 2
v 5 3 2
v 5 3 1
v 5 3 -1
v 5 3 -2
v 5 4 1
v 5 4 -0
v 5 4 -1
v 5 5 -0
v 5 5 -1
v 5 6 -1
v 5 6 -2
v 5 7 -2
v 5 7 -3
v 5 7 -11
v 5 8 -3
v 5 8 -11
v 5 10 3
v 5 10 -2
v 6 3 -1
v 6 3 -2
v 6 4 -1
v 6 4 -2
v 7 6 -2
v 7 6 -12
v 7 7 -2
v 7 7 -12
v 8 5 -1
v 8 5 -13
v 8 6 -1
v 8 6 -13
v 9 4 -0
v 9 4 -14
v 9 5 -0
v 9 5 -14
v 10 3 1
v 10 3 -15
v 10 4 1
v 10 4 -15
v 11 2 2
v 11 2 -16
v 11 3 2
v 11 3 -16
v 12 1 3
v 12 1 -17
v 12 2 3
v 12 2 -17
v 20 0 20
v 20 0 3
v 20 0 -3
v 20 0 -20
v 20 1 20
v 20 1 3
v 20 1 -3
v 20 1 -20
v 50 0 3
v 50 0 -3
v 50 1 3
v 50 1 -3
v -3 0 50
v -3 1 50
v 3 0 50
v 3 1 50
v -20 0 20
v -20 1 20
v -3 0 20
v -3 1 20
v 3 0 20
v 3 1 20
v 20 0 20
v 20 1 20
v -7 1 6
v -7 10 6
v 4 1 6
v 4 10 6
v -50 0 3
v -50 1 3
v -20 0 3
v -20 1 3
v -4 1 3
v -4 9 3
v -3 1 3
v -3 9 3
v 4 1 3
v 4 10 3
v 5 2 3
v 5 10 3
v 12 1 3
v 12 2 3
v 20 0 3
v 20 1 3
v 50 0 3
v 50 1 3
v 5 2 2
v 5 3 2
v 11 2 2
v 11 3 2
v 5 3 1
v 5 4 1
v 10 3 1
v 10 4 1
v 5 4 -0
v 5 5 -0
v 9 4 -0
v 9 5 -0
v 5 3 -1
v 5 4 -1
v 5 5 -1
v 5 6 -1
v 6 3 -1
v 6 4 -1
v 8 5 -1
v 8 6 -1
v 5 6 -2
v 5 7 -2
v 7 6 -2
v 7 7 -2
v 4 7 -3
v 4 8 -3
v 5 7 -3
v 5 8 -3
v 3 8 -4
v 3 9 -4
v 4 8 -4
v 4 9 -4
v -6 8 -9
v -6 9 -9
v 3 8 -9
v 3 9 -9
v -6 7 -10
v -6 8 -10
v 4 7 -10
v 4 8 -10
v -6 6 -11
v -6 7 -11
v 5 6 -11
v 5 7 -11
v -6 2 -12
v -6 6 -12
v 7 5 -12
v 7 6 -12
v 8 4 -12
v 8 5 -12
v 9 3 -12
v 9 4 -12
v 10 2 -12
v 10 3 -12
v -6 1 -13
v -6 2 -13
v -4 1 -13
v -4 2 -13
v -4 1 -15
v -4 2 -15
v 11 1 -15
v 11 2 -15
v -6 1 4
v -6 9 4
v -3 1 4
v -3 9 4
v 5 1 -0
v 5 4 -0
v 9 3 -0
v 9 4 -0
v 10 2 -0
v 10 3 -0
v 11 1 -0
v 11 2 -0
v -50 0 -2
v -50 1 -2
v -20 0 -2
v -20 1 -2
v -4 1 -2
v -4 9 -2
v -3 1 -2
v -3 9 -2
v 4 1 -2
v 4 6 -2
v 4 7 -2
v 4 10 -2
v 5 1 -2
v 5 3 -2
v 5 4 -2
v 5 6 -2
v 5 7 -2
v 5 10 -2
v 6 3 -2
v 6 4 -2
v -3 1 -3
v -3 9 -3
v -2 1 -3
v -2 9 -3
v 3 1 -3
v 3 7 -3
v 3 8 -3
v 3 10 -3
v 4 1 -3
v 4 6 -3
v 4 7 -3
v 4 8 -3
v 4 10 -3
v 20 0 -3
v 20 1 -3
v 50 0 -3
v 50 1 -3
v -2 1 -4
v -2 9 -4
v 2 8 -4
v 2 9 -4
v 3 1 -4
v 3 7 -4
v 3 8 -4
v 2 8 -6
v 2 9 -6
v 3 7 -6
v 3 8 -6
v 3 9 -6
v 4 6 -6
v 4 7 -6
v 4 8 -6
v 5 4 -6
v 5 6 -6
v 5 7 -6
v 7 5 -6
v 7 6 -6
v 8 4 -6
v 8 5 -6
v -7 9 -9
v -7 10 -9
v 3 9 -9
v 3 10 -9
v -7 8 -10
v -7 9 -10
v 4 8 -10
v 4 9 -10
v -7 7 -11
v -7 8 -11
v 5 7 -11
v 5 8 -11
v -7 6 -12
v -7 7 -12
v 7 6 -12
v 7 7 -12
v -7 5 -13
v -7 6 -13
v 8 5 -13
v 8 6 -13
v -7 4 -14
v -7 5 -14
v 9 4 -14
v 9 5 -14
v -7 3 -15
v -7 4 -15
v 10 3 -15
v 10 4 -15
v -7 2 -16
v -7 3 -16
v 11 2 -16
v 11 3 -16
v -7 1 -17
v -7 2 -17
v 12 1 -17
v 12 2 -17
v -20 0 -20
v -20 1 -20
v -3 0 -20
v -3 1 -20
v 2 0 -20
v 2 1 -20
v 20 0 -20
v 20 1 -20
v -3 0 -50
v -3 1 -50
v 2 0 -50
v 2 1 -50
v -3 0 50
v 3 0 50
v -20 0 20
v -3 0 20
v 3 0 20
v 20 0 20
v -50 0 3
v -20 0 3
v 20 0 3
v 50 0 3
v -50 0 -2
v -20 0 -2
v 20 0 -3
v 50 0 -3
v -20 0 -20
v -3 0 -20
v 2 0 -20
v 20 0 -20
v -3 0 -50
v 2 0 -50
v 10 2 -0
v 11 2 -0
v -6 2 -12
v 10 2 -12
v -6 2 -13
v -4 2 -13
v -4 2 -15
v 11 2 -15
v 9 3 -0
v 10 3 -0
v 5 3 -1
v 6 3 -1
v 5 3 -2
v 6 3 -2
v 9 3 -12
v 10 3 -12
v 5 4 -0
v 9 4 -0
v 5 4 -1
v 6 4 -1
v 5 4 -2
v 6 4 -2
v 5 4 -6
v 8 4 -6
v 8 4 -12
v 9 4 -12
v 7 5 -6
v 8 5 -6
v 7 5 -12
v 8 5 -12
v 4 6 -2
v 5 6 -2
v 4 6 -3
v 4 6 -6
v 5 6 -6
v 7 6 -6
v -6 6 -11
v 5 6 -11
v -6 6 -12
v 7 6 -12
v 3 7 -3
v 4 7 -3
v 3 7 -4
v 3 7 -6
v 4 7 -6
v 5 7 -6
v -6 7 -10
v 4 7 -10
v -6 7 -11
v 5 7 -11
v 2 8 -4
v 3 8 -4
v 2 8 -6
v 3 8 -6
v 4 8 -6
v -6 8 -9
v 3 8 -9
v -6 8 -10
v 4 8 -10
v -6 9 4
v -3 9 4
v -4 9 3
v -3 9 3
v -4 9 -2
v -3 9 -2
v -3 9 -3
v -2 9 -3
v -2 9 -4
v 2 9 -4
v 2 9 -6
v 3 9 -6
v -6 9 -9
v 3 9 -9
v -3 1 50
v 3 1 50
v -20 1 20
v -3 1 20
v 3 1 20
v 20 1 20
v -7 1 6
v 4 1 6
v -6 1 4
v -3 1 4
v -50 1 3
v -20 1 3
v -4 1 3
v -3 1 3
v 4 1 3
v 12 1 3
v 20 1 3
v 50 1 3
v 5 1 -0
v 11 1 -0
v -50 1 -2
v -20 1 -2
v -4 1 -2
v -3 1 -2
v 4 1 -2
v 5 1 -2
v -3 1 -3
v -2 1 -3
v 3 1 -3
v 4 1 -3
v 20 1 -3
v 50 1 -3
v -2 1 -4
v 3 1 -4
v -6 1 -13
v -4 1 -13
v -4 1 -15
v 11 1 -15
v -7 1 -17
v 12 1 -17
v -20 1 -20
v -3 1 -20
v 2 1 -20
v 20 1 -20
v -3 1 -50
v 2 1 -50
v 5 2 3
v 12 2 3
v 5 2 2
v 11 2 2
v -7 2 -16
v 11 2 -16
v -7 2 -17
v 12 2 -17
v 5 3 2
v 11 3 2
v 5 3 1
v 10 3 1
v -7 3 -15
v 10 3 -15
v -7 3 -16
v 11 3 -16
v 5 4 1
v 10 4 1
v 5 4 -0
v 9 4 -0
v -7 4 -14
v 9 4 -14
v -7 4 -15
v 10 4 -15
v 5 5 -0
v 9 5 -0
v 5 5 -1
v 8 5 -1
v -7 5 -13
v 8 5 -13
v -7 5 -14
v 9 5 -14
v 5 6 -1
v 8 6 -1
v 5 6 -2
v 7 6 -2
v -7 6 -12
v 7 6 -12
v -7 6 -13
v 8 6 -13
v 4 7 -2
v 5 7 -2
v 7 7 -2
v 4 7 -3
v 5 7 -3
v -7 7 -11
v 5 7 -11
v -7 7 -12
v 7 7 -12
v 3 8 -3
v 4 8 -3
v 5 8 -3
v 3 8 -4
v 4 8 -4
v -7 8 -10
v 4 8 -10
v -7 8 -11
v 5 8 -11
v 3 9 -4
v 4 9 -4
v -7 9 -9
v 3 9 -9
v -7 9 -10
v 4 9 -10
v -7 10 6
v 4 10 6
v 4 10 3
v 5 10 3
v 4 10 -2
v 5 10 -2
v 3 10 -3
v 4 10 -3
v -7 10 -9
v 3 10 -9

# faces
f 3/3/1 2/3/1 1/3/1
f 4/3/1 2/3/1 3/3/1
f 9/1/1 6/1/1 5/1/1
f 10/1/1 6/1/1 9/1/1
f 11/1/1 8/1/1 7/1/1
f 12/1/1 8/1/1 11/1/1
f 15/2/1 14/2/1 13/2/1
f 16/2/1 14/2/1 15/2/1
f 17/2/1 15/2/1 13/2/1
f 18/2/1 15/2/1 17/2/1
f 19/2/1 17/2/1 13/2/1
f 20/2/1 17/2/1 19/2/1
f 21/2/1 19/2/1 13/2/1
f 22/2/1 19/2/1 21/2/1
f 23/2/1 21/2/1 13/2/1
f 24/2/1 21/2/1 23/2/1
f 25/2/1 23/2/1 13/2/1
f 26/2/1 23/2/1 25/2/1
f 27/2/1 25/2/1 13/2/1
f 28/2/1 25/2/1 27/2/1
f 29/2/1 27/2/1 13/2/1
f 30/2/1 27/2/1 29/2/1
f 31/2/1 29/2/1 13/2/1
f 32/2/1 29/2/1 31/2/1
f 35/2/1 34/2/1 33/2/1
f 36/2/1 34/2/1 35/2/1
f 41/3/1 38/3/1 37/3/1
f 42/3/1 38/3/1 41/3/1
f 47/3/1 40/3/1 39/3/1
f 48/3/1 40/3/1 47/3/1
f 49/2/1 44/2/1 43/2/1
f 50/2/1 44/2/1 49/2/1
f 51/2/1 46/2/1 45/2/1
f 52/2/1 46/2/1 51/2/1
f 55/2/1 54/2/1 53/2/1
f 56/2/1 54/2/1 55/2/1
f 59/2/1 58/2/1 57/2/1
f 60/2/1 58/2/1 59/2/1
f 63/2/1 62/2/1 61/2/1
f 64/2/1 62/2/1 63/2/1
f 66/2/1 65/2/1 64/2/1
f 67/2/1 65/2/1 66/2/1
f 70/2/1 69/2/1 68/2/1
f 71/2/1 69/2/1 70/2/1
f 73/2/1 72/2/1 71/2/1
f 74/2/1 72/2/1 73/2/1
f 77/2/1 76/2/1 75/2/1
f 78/2/1 76/2/1 77/2/1
f 80/2/1 79/2/1 78/2/1
f 81/2/1 79/2/1 80/2/1
f 84/2/1 83/2/1 82/2/1
f 85/2/1 83/2/1 84/2/1
f 88/2/1 87/2/1 86/2/1
f 89/2/1 87/2/1 88/2/1
f 92/2/1 91/2/1 90/2/1
f 93/2/1 91/2/1 92/2/1
f 96/2/1 95/2/1 94/2/1
f 97/2/1 95/2/1 96/2/1
f 100/2/1 99/2/1 98/2/1
f 101/2/1 99/2/1 100/2/1
f 102/2/2 103/2/2 104/2/2
f 104/2/2 103/2/2 105/2/2
f 102/2/2 104/2/2 106/2/2
f 106/2/2 104/2/2 107/2/2
f 102/2/2 106/2/2 108/2/2
f 108/2/2 106/2/2 109/2/2
f 102/2/2 108/2/2 110/2/2
f 110/2/2 108/2/2 111/2/2
f 102/2/2 110/2/2 112/2/2
f 112/2/2 110/2/2 113/2/2
f 114/2/2 115/2/2 116/2/2
f 116/2/2 115/2/2 117/2/2
f 118/3/2 119/3/2 120/3/2
f 120/3/2 119/3/2 121/3/2
f 122/3/2 123/3/2 124/3/2
f 124/3/2 123/3/2 125/3/2
f 126/2/2 127/2/2 128/2/2
f 128/2/2 127/2/2 129/2/2
f 130/2/2 131/2/2 132/2/2
f 130/2/2 132/2/2 134/2/2
f 132/2/2 133/2/2 134/2/2
f 134/2/2 133/2/2 135/2/2
f 138/2/2 139/2/2 140/2/2
f 140/2/2 139/2/2 141/2/2
f 142/2/2 143/2/2 144/2/2
f 145/2/2 146/2/2 147/2/2
f 147/2/2 146/2/2 148/2/2
f 136/2/2 137/2/2 149/2/2
f 149/2/2 137/2/2 150/2/2
f 142/2/2 144/2/2 151/2/2
f 151/2/2 144/2/2 152/2/2
f 155/2/2 156/2/2 157/2/2
f 153/2/2 154/2/2 159/2/2
f 159/2/2 154/2/2 160/2/2
f 157/2/2 158/2/2 161/2/2
f 153/2/2 159/2/2 162/2/2
f 162/2/2 159/2/2 163/2/2
f 161/2/2 162/2/2 164/2/2
f 164/2/2 165/2/2 166/2/2
f 166/2/2 167/2/2 168/2/2
f 169/2/2 170/2/2 171/2/2
f 171/2/2 170/2/2 172/2/2
f 166/2/2 168/2/2 173/2/2
f 155/2/2 157/2/2 173/2/2
f 157/2/2 161/2/2 173/2/2
f 161/2/2 164/2/2 173/2/2
f 164/2/2 166/2/2 173/2/2
f 173/2/2 168/2/2 174/2/2
f 175/2/2 176/2/2 177/2/2
f 177/2/2 176/2/2 178/2/2
f 179/2/2 180/2/2 181/2/2
f 181/2/2 180/2/2 182/2/2
f 183/2/2 184/2/2 185/2/2
f 185/2/2 184/2/2 186/2/2
f 187/2/2 188/2/2 189/2/2
f 189/2/2 188/2/2 190/2/2
f 191/2/2 192/2/2 193/2/2
f 193/2/2 192/2/2 194/2/2
f 195/2/2 196/2/2 197/2/2
f 197/2/2 196/2/2 198/2/2
f 199/2/2 200/2/2 201/2/2
f 201/2/2 200/2/2 202/2/2
f 203/1/2 204/1/2 207/1/2
f 207/1/2 204/1/2 208/1/2
f 205/1/2 206/1/2 209/1/2
f 209/1/2 206/1/2 210/1/2
f 211/3/2 212/3/2 213/3/2
f 213/3/2 212/3/2 214/3/2
f 217/3/3 216/3/3 215/3/3
f 218/3/3 216/3/3 217/3/3
f 221/1/3 220/1/3 219/1/3
f 222/1/3 220/1/3 221/1/3
f 225/1/3 224/1/3 223/1/3
f 226/1/3 224/1/3 225/1/3
f 229/2/3 228/2/3 227/2/3
f 230/2/3 228/2/3 229/2/3
f 233/3/3 232/3/3 231/3/3
f 234/3/3 232/3/3 233/3/3
f 237/2/3 236/2/3 235/2/3
f 238/2/3 236/2/3 237/2/3
f 241/2/3 240/2/3 239/2/3
f 242/2/3 240/2/3 241/2/3
f 243/2/3 241/2/3 239/2/3
f 244/2/3 241/2/3 243/2/3
f 247/3/3 246/3/3 245/3/3
f 248/3/3 246/3/3 247/3/3
f 251/2/3 250/2/3 249/2/3
f 252/2/3 250/2/3 251/2/3
f 255/2/3 254/2/3 253/2/3
f 256/2/3 254/2/3 255/2/3
f 259/2/3 258/2/3 257/2/3
f 260/2/3 258/2/3 259/2/3
f 265/2/3 262/2/3 261/2/3
f 266/2/3 262/2/3 265/2/3
f 267/2/3 264/2/3 263/2/3
f 268/2/3 264/2/3 267/2/3
f 271/2/3 270/2/3 269/2/3
f 272/2/3 270/2/3 271/2/3
f 275/2/3 274/2/3 273/2/3
f 276/2/3 274/2/3 275/2/3
f 279/2/3 278/2/3 277/2/3
f 280/2/3 278/2/3 279/2/3
f 283/2/3 282/2/3 281/2/3
f 284/2/3 282/2/3 283/2/3
f 287/2/3 286/2/3 285/2/3
f 288/2/3 286/2/3 287/2/3
f 291/2/3 290/2/3 289/2/3
f 292/2/3 290/2/3 291/2/3
f 295/2/3 294/2/3 293/2/3
f 296/2/3 294/2/3 295/2/3
f 297/2/3 295/2/3 293/2/3
f 298/2/3 295/2/3 297/2/3
f 299/2/3 297/2/3 293/2/3
f 300/2/3 297/2/3 299/2/3
f 301/2/3 299/2/3 293/2/3
f 302/2/3 299/2/3 301/2/3
f 305/2/3 304/2/3 303/2/3
f 306/2/3 304/2/3 305/2/3
f 309/2/3 308/2/3 307/2/3
f 310/2/3 308/2/3 309/2/3
f 311/2/4 312/2/4 313/2/4
f 313/2/4 312/2/4 314/2/4
f 315/2/4 316/2/4 317/2/4
f 317/2/4 316/2/4 318/2/4
f 315/2/4 317/2/4 319/2/4
f 319/2/4 317/2/4 320/2/4
f 315/2/4 319/2/4 321/2/4
f 321/2/4 319/2/4 322/2/4
f 323/3/4 324/3/4 325/3/4
f 325/3/4 324/3/4 326/3/4
f 327/2/4 328/2/4 329/2/4
f 329/2/4 328/2/4 330/2/4
f 331/2/4 332/2/4 335/2/4
f 335/2/4 332/2/4 336/2/4
f 336/2/4 332/2/4 337/2/4
f 337/2/4 332/2/4 338/2/4
f 333/2/4 334/2/4 339/2/4
f 339/2/4 334/2/4 340/2/4
f 336/2/4 337/2/4 341/2/4
f 341/2/4 337/2/4 342/2/4
f 343/2/4 344/2/4 345/2/4
f 345/2/4 344/2/4 346/2/4
f 347/2/4 348/2/4 351/2/4
f 351/2/4 348/2/4 352/2/4
f 352/2/4 348/2/4 353/2/4
f 349/2/4 350/2/4 354/2/4
f 354/2/4 350/2/4 355/2/4
f 356/3/4 357/3/4 358/3/4
f 358/3/4 357/3/4 359/3/4
f 360/2/4 361/2/4 362/2/4
f 362/2/4 361/2/4 363/2/4
f 360/2/4 362/2/4 364/2/4
f 364/2/4 362/2/4 365/2/4
f 365/2/4 362/2/4 366/2/4
f 367/2/4 368/2/4 370/2/4
f 370/2/4 368/2/4 371/2/4
f 369/2/4 370/2/4 373/2/4
f 373/2/4 370/2/4 374/2/4
f 372/2/4 373/2/4 376/2/4
f 376/2/4 373/2/4 377/2/4
f 375/2/4 376/2/4 378/2/4
f 378/2/4 376/2/4 379/2/4
f 375/2/4 378/2/4 380/2/4
f 380/2/4 378/2/4 381/2/4
f 382/2/4 383/2/4 384/2/4
f 384/2/4 383/2/4 385/2/4
f 386/2/4 387/2/4 388/2/4
f 388/2/4 387/2/4 389/2/4
f 390/2/4 391/2/4 392/2/4
f 392/2/4 391/2/4 393/2/4
f 394/2/4 395/2/4 396/2/4
f 396/2/4 395/2/4 397/2/4
f 398/2/4 399/2/4 400/2/4
f 400/2/4 399/2/4 401/2/4
f 402/2/4 403/2/4 404/2/4
f 404/2/4 403/2/4 405/2/4
f 406/2/4 407/2/4 408/2/4
f 408/2/4 407/2/4 409/2/4
f 410/2/4 411/2/4 412/2/4
f 412/2/4 411/2/4 413/2/4
f 414/2/4 415/2/4 416/2/4
f 416/2/4 415/2/4 417/2/4
f 418/1/4 419/1/4 420/1/4
f 420/1/4 419/1/4 421/1/4
f 422/1/4 423/1/4 424/1/4
f 424/1/4 423/1/4 425/1/4
f 426/3/4 427/3/4 428/3/4
f 428/3/4 427/3/4 429/3/4
f 433/3/5 431/3/5 430/3/5
f 434/3/5 431/3/5 433/3/5
f 437/1/5 433/1/5 432/1/5
f 437/1/5 435/1/5 434/1/5
f 437/1/5 434/1/5 433/1/5
f 438/1/5 435/1/5 437/1/5
f 440/3/5 437/3/5 436/3/5
f 441/1/5 438/1/5 437/1/5
f 441/3/5 437/3/5 440/3/5
f 442/3/5 439/3/5 438/3/5
f 442/1/5 438/1/5 441/1/5
f 443/3/5 439/3/5 442/3/5
f 444/1/5 442/1/5 441/1/5
f 445/1/5 442/1/5 444/1/5
f 446/1/5 442/1/5 445/1/5
f 447/1/5 442/1/5 446/1/5
f 448/3/5 446/3/5 445/3/5
f 449/3/5 446/3/5 448/3/5
f 453/2/5 451/2/5 450/2/5
f 454/2/5 453/2/5 452/2/5
f 455/2/5 453/2/5 454/2/5
f 456/2/5 453/2/5 455/2/5
f 457/2/5 451/2/5 453/2/5
f 457/2/5 453/2/5 456/2/5
f 462/2/5 461/2/5 460/2/5
f 463/2/5 461/2/5 462/2/5
f 464/2/5 459/2/5 458/2/5
f 465/2/5 459/2/5 464/2/5
f 468/2/5 467/2/5 466/2/5
f 469/2/5 467/2/5 468/2/5
f 471/2/5 467/2/5 469/2/5
f 472/2/5 471/2/5 470/2/5
f 473/2/5 467/2/5 471/2/5
f 473/2/5 471/2/5 472/2/5
f 474/2/5 467/2/5 473/2/5
f 475/2/5 467/2/5 474/2/5
f 478/2/5 477/2/5 476/2/5
f 479/2/5 477/2/5 478/2/5
f 482/2/5 481/2/5 480/2/5
f 483/2/5 481/2/5 482/2/5
f 484/2/5 481/2/5 483/2/5
f 487/2/5 485/2/5 484/2/5
f 488/2/5 487/2/5 486/2/5
f 489/2/5 485/2/5 487/2/5
f 489/2/5 487/2/5 488/2/5
f 492/2/5 491/2/5 490/2/5
f 493/2/5 491/2/5 492/2/5
f 494/2/5 491/2/5 493/2/5
f 497/2/5 495/2/5 494/2/5
f 498/2/5 497/2/5 496/2/5
f 499/2/5 495/2/5 497/2/5
f 499/2/5 497/2/5 498/2/5
f 502/2/5 501/2/5 500/2/5
f 503/2/5 501/2/5 502/2/5
f 506/2/5 504/2/5 503/2/5
f 507/2/5 506/2/5 505/2/5
f 508/2/5 504/2/5 506/2/5
f 508/2/5 506/2/5 507/2/5
f 511/2/5 510/2/5 509/2/5
f 512/2/5 510/2/5 511/2/5
f 513/2/5 511/2/5 509/2/5
f 515/2/5 514/2/5 513/2/5
f 517/2/5 516/2/5 515/2/5
f 519/2/5 518/2/5 517/2/5
f 521/2/5 515/2/5 513/2/5
f 521/2/5 520/2/5 519/2/5
f 521/2/5 519/2/5 517/2/5
f 521/2/5 517/2/5 515/2/5
f 521/2/5 513/2/5 509/2/5
f 522/2/5 520/2/5 521/2/5
f 523/3/6 524/3/6 526/3/6
f 526/3/6 524/3/6 527/3/6
f 525/1/6 526/1/6 529/1/6
f 527/1/6 528/1/6 529/1/6
f 526/1/6 527/1/6 529/1/6
f 529/1/6 528/1/6 530/1/6
f 525/1/6 529/1/6 534/1/6
f 531/1/6 532/1/6 535/1/6
f 535/1/6 532/1/6 536/1/6
f 530/1/6 528/1/6 537/1/6
f 537/1/6 528/1/6 538/1/6
f 538/1/6 528/1/6 539/1/6
f 533/3/6 534/3/6 543/3/6
f 534/1/6 529/1/6 544/1/6
f 543/3/6 534/3/6 544/3/6
f 531/1/6 535/1/6 545/1/6
f 541/1/6 542/1/6 548/1/6
f 545/1/6 546/1/6 549/1/6
f 547/1/6 548/1/6 552/1/6
f 539/3/6 540/3/6 553/3/6
f 538/1/6 539/1/6 553/1/6
f 553/3/6 540/3/6 554/3/6
f 549/1/6 550/1/6 555/1/6
f 551/1/6 552/1/6 556/1/6
f 549/1/6 555/1/6 557/1/6
f 555/1/6 556/1/6 557/1/6
f 531/1/6 545/1/6 557/1/6
f 545/1/6 549/1/6 557/1/6
f 557/1/6 556/1/6 558/1/6
f 558/1/6 556/1/6 559/1/6
f 556/1/6 552/1/6 560/1/6
f 559/1/6 556/1/6 560/1/6
f 552/1/6 548/1/6 560/1/6
f 548/1/6 542/1/6 560/1/6
f 544/1/6 529/1/6 561/1/6
f 538/1/6 553/1/6 562/1/6
f 544/1/6 561/1/6 563/1/6
f 561/1/6 562/1/6 563/1/6
f 563/1/6 562/1/6 564/1/6
f 564/1/6 562/1/6 565/1/6
f 562/1/6 553/1/6 566/1/6
f 565/1/6 562/1/6 566/1/6
f 564/3/6 565/3/6 567/3/6
f 567/3/6 565/3/6 568/3/6
f 569/2/6 570/2/6 571/2/6
f 571/2/6 570/2/6 572/2/6
f 572/2/6 570/2/6 574/2/6
f 573/2/6 574/2/6 575/2/6
f 574/2/6 570/2/6 576/2/6
f 575/2/6 574/2/6 576/2/6
f 577/2/6 578/2/6 579/2/6
f 579/2/6 578/2/6 580/2/6
f 580/2/6 578/2/6 582/2/6
f 581/2/6 582/2/6 583/2/6
f 582/2/6 578/2/6 584/2/6
f 583/2/6 582/2/6 584/2/6
f 585/2/6 586/2/6 587/2/6
f 587/2/6 586/2/6 588/2/6
f 588/2/6 586/2/6 590/2/6
f 589/2/6 590/2/6 591/2/6
f 590/2/6 586/2/6 592/2/6
f 591/2/6 590/2/6 592/2/6
f 593/2/6 594/2/6 595/2/6
f 595/2/6 594/2/6 596/2/6
f 596/2/6 594/2/6 598/2/6
f 597/2/6 598/2/6 599/2/6
f 598/2/6 594/2/6 600/2/6
f 599/2/6 598/2/6 600/2/6
f 601/2/6 602/2/6 603/2/6
f 603/2/6 602/2/6 604/2/6
f 604/2/6 602/2/6 606/2/6
f 605/2/6 606/2/6 607/2/6
f 606/2/6 602/2/6 608/2/6
f 607/2/6 606/2/6 608/2/6
f 609/2/6 610/2/6 612/2/6
f 610/2/6 611/2/6 612/2/6
f 612/2/6 611/2/6 613/2/6
f 613/2/6 611/2/6 615/2/6
f 614/2/6 615/2/6 616/2/6
f 615/2/6 611/2/6 617/2/6
f 616/2/6 615/2/6 617/2/6
f 618/2/6 619/2/6 621/2/6
f 619/2/6 620/2/6 621/2/6
f 621/2/6 620/2/6 622/2/6
f 622/2/6 620/2/6 624/2/6
f 623/2/6 624/2/6 625/2/6
f 624/2/6 620/2/6 626/2/6
f 625/2/6 624/2/6 626/2/6
f 627/2/6 628/2/6 630/2/6
f 629/2/6 630/2/6 631/2/6
f 630/2/6 628/2/6 632/2/6
f 631/2/6 630/2/6 632/2/6
f 633/2/6 634/2/6 635/2/6
f 633/2/6 635/2/6 637/2/6
f 635/2/6 636/2/6 637/2/6
f 637/2/6 636/2/6 638/2/6
f 633/2/6 637/2/6 639/2/6
f 639/2/6 637/2/6 640/2/6
f 633/2/6 639/2/6 641/2/6
f 641/2/6 639/2/6 642/2/6
