# MagicaVoxel @ Ephtracy

# group
g new-office

# material
mtllib new-office.mtl
usemtl palette

# normals
vn -1 0 0
vn 1 0 0
vn 0 0 1
vn 0 0 -1
vn 0 -1 0
vn 0 1 0

# texcoords
vt 0.232422 0.5
vt 0.958984 0.5
vt 0.966797 0.5

# verts
v -54 0 43
v -54 0 -25
v -54 1 43
v -54 1 -25
v -54 2 43
v -54 2 -25
v -26 1 22
v -26 1 11
v -26 2 22
v -26 2 21
v -26 3 21
v -26 3 20
v -26 4 20
v -26 4 19
v -26 5 19
v -26 5 18
v -26 6 18
v -26 6 17
v -26 7 17
v -26 7 16
v -26 8 16
v -26 8 15
v -26 9 15
v -26 9 14
v -26 10 14
v -26 10 11
v -8 1 43
v -8 1 42
v -8 2 43
v -8 2 42
v 9 1 42
v 9 1 -24
v 9 2 42
v 9 2 -24
v 16 0 22
v 16 0 -0
v 16 0 -19
v 16 0 -60
v 16 1 22
v 16 1 -0
v 16 1 -19
v 16 1 -60
v -53 1 42
v -53 1 -24
v -53 2 42
v -53 2 -24
v -17 1 22
v -17 1 11
v -17 2 22
v -17 2 21
v -17 3 21
v -17 3 20
v -17 4 20
v -17 4 19
v -17 5 19
v -17 5 18
v -17 6 18
v -17 6 17
v -17 7 17
v -17 7 16
v -17 8 16
v -17 8 15
v -17 9 15
v -17 9 14
v -17 10 14
v -17 10 11
v -14 1 43
v -14 1 42
v -14 2 43
v -14 2 42
v 10 0 43
v 10 0 -0
v 10 0 -19
v 10 0 -25
v 10 1 43
v 10 1 -0
v 10 1 -19
v 10 1 -25
v 10 2 43
v 10 2 -25
v 60 0 22
v 60 0 -60
v 60 1 22
v 60 1 -60
v -54 0 43
v -54 1 43
v -54 2 43
v -14 1 43
v -14 2 43
v -8 1 43
v -8 2 43
v 10 0 43
v 10 1 43
v 10 2 43
v -26 1 22
v -26 2 22
v -17 1 22
v -17 2 22
v 16 0 22
v 16 1 22
v 60 0 22
v 60 1 22
v -26 2 21
v -26 3 21
v -17 2 21
v -17 3 21
v -26 3 20
v -26 4 20
v -17 3 20
v -17 4 20
v -26 4 19
v -26 5 19
v -17 4 19
v -17 5 19
v -26 5 18
v -26 6 18
v -17 5 18
v -17 6 18
v -26 6 17
v -26 7 17
v -17 6 17
v -17 7 17
v -26 7 16
v -26 8 16
v -17 7 16
v -17 8 16
v -26 8 15
v -26 9 15
v -17 8 15
v -17 9 15
v -26 9 14
v -26 10 14
v -17 9 14
v -17 10 14
v 10 0 -0
v 10 1 -0
v 16 0 -0
v 16 1 -0
v -53 1 -24
v -53 2 -24
v 9 1 -24
v 9 2 -24
v -53 1 42
v -53 2 42
v -14 1 42
v -14 2 42
v -8 1 42
v -8 2 42
v 9 1 42
v 9 2 42
v -26 1 11
v -26 10 11
v -17 1 11
v -17 10 11
v 10 0 -19
v 10 1 -19
v 16 0 -19
v 16 1 -19
v -54 0 -25
v -54 1 -25
v -54 2 -25
v 10 0 -25
v 10 1 -25
v 10 2 -25
v 16 0 -60
v 16 1 -60
v 60 0 -60
v 60 1 -60
v -54 0 43
v 10 0 43
v 16 0 22
v 60 0 22
v 10 0 -0
v 16 0 -0
v 10 0 -19
v 16 0 -19
v -54 0 -25
v 10 0 -25
v 16 0 -60
v 60 0 -60
v -14 1 43
v -8 1 43
v -53 1 42
v -14 1 42
v -8 1 42
v 9 1 42
v -26 1 22
v -17 1 22
v 16 1 22
v 60 1 22
v -26 1 11
v -17 1 11
v 10 1 -0
v 16 1 -0
v 10 1 -19
v 16 1 -19
v -53 1 -24
v 9 1 -24
v 16 1 -60
v 60 1 -60
v -54 2 43
v -14 2 43
v -8 2 43
v 10 2 43
v -53 2 42
v -14 2 42
v -8 2 42
v 9 2 42
v -26 2 22
v -17 2 22
v -26 2 21
v -17 2 21
v -53 2 -24
v 9 2 -24
v -54 2 -25
v 10 2 -25
v -26 3 21
v -17 3 21
v -26 3 20
v -17 3 20
v -26 4 20
v -17 4 20
v -26 4 19
v -17 4 19
v -26 5 19
v -17 5 19
v -26 5 18
v -17 5 18
v -26 6 18
v -17 6 18
v -26 6 17
v -17 6 17
v -26 7 17
v -17 7 17
v -26 7 16
v -17 7 16
v -26 8 16
v -17 8 16
v -26 8 15
v -17 8 15
v -26 9 15
v -17 9 15
v -26 9 14
v -17 9 14
v -26 10 14
v -17 10 14
v -26 10 11
v -17 10 11

# faces
f 3/2/1 2/2/1 1/2/1
f 4/2/1 2/2/1 3/2/1
f 5/3/1 4/3/1 3/3/1
f 6/3/1 4/3/1 5/3/1
f 9/1/1 8/1/1 7/1/1
f 10/1/1 8/1/1 9/1/1
f 11/1/1 8/1/1 10/1/1
f 12/1/1 8/1/1 11/1/1
f 13/1/1 8/1/1 12/1/1
f 14/1/1 8/1/1 13/1/1
f 15/1/1 8/1/1 14/1/1
f 16/1/1 8/1/1 15/1/1
f 17/1/1 8/1/1 16/1/1
f 18/1/1 8/1/1 17/1/1
f 19/1/1 8/1/1 18/1/1
f 20/1/1 8/1/1 19/1/1
f 21/1/1 8/1/1 20/1/1
f 22/1/1 8/1/1 21/1/1
f 23/1/1 8/1/1 22/1/1
f 24/1/1 8/1/1 23/1/1
f 25/1/1 8/1/1 24/1/1
f 26/1/1 8/1/1 25/1/1
f 29/3/1 28/3/1 27/3/1
f 30/3/1 28/3/1 29/3/1
f 33/3/1 32/3/1 31/3/1
f 34/3/1 32/3/1 33/3/1
f 39/2/1 36/2/1 35/2/1
f 40/2/1 36/2/1 39/2/1
f 41/2/1 38/2/1 37/2/1
f 42/2/1 38/2/1 41/2/1
f 43/3/2 44/3/2 45/3/2
f 45/3/2 44/3/2 46/3/2
f 47/1/2 48/1/2 49/1/2
f 49/1/2 48/1/2 50/1/2
f 50/1/2 48/1/2 51/1/2
f 51/1/2 48/1/2 52/1/2
f 52/1/2 48/1/2 53/1/2
f 53/1/2 48/1/2 54/1/2
f 54/1/2 48/1/2 55/1/2
f 55/1/2 48/1/2 56/1/2
f 56/1/2 48/1/2 57/1/2
f 57/1/2 48/1/2 58/1/2
f 58/1/2 48/1/2 59/1/2
f 59/1/2 48/1/2 60/1/2
f 60/1/2 48/1/2 61/1/2
f 61/1/2 48/1/2 62/1/2
f 62/1/2 48/1/2 63/1/2
f 63/1/2 48/1/2 64/1/2
f 64/1/2 48/1/2 65/1/2
f 65/1/2 48/1/2 66/1/2
f 67/3/2 68/3/2 69/3/2
f 69/3/2 68/3/2 70/3/2
f 71/2/2 72/2/2 75/2/2
f 75/2/2 72/2/2 76/2/2
f 73/2/2 74/2/2 77/2/2
f 77/2/2 74/2/2 78/2/2
f 75/3/2 76/3/2 79/3/2
f 76/3/2 77/3/2 79/3/2
f 77/3/2 78/3/2 79/3/2
f 79/3/2 78/3/2 80/3/2
f 81/2/2 82/2/2 83/2/2
f 83/2/2 82/2/2 84/2/2
f 88/2/3 86/2/3 85/2/3
f 88/3/3 87/3/3 86/3/3
f 89/3/3 87/3/3 88/3/3
f 90/2/3 88/2/3 85/2/3
f 92/2/3 90/2/3 85/2/3
f 93/3/3 91/3/3 90/3/3
f 93/2/3 90/2/3 92/2/3
f 94/3/3 91/3/3 93/3/3
f 97/1/3 96/1/3 95/1/3
f 98/1/3 96/1/3 97/1/3
f 101/2/3 100/2/3 99/2/3
f 102/2/3 100/2/3 101/2/3
f 105/1/3 104/1/3 103/1/3
f 106/1/3 104/1/3 105/1/3
f 109/1/3 108/1/3 107/1/3
f 110/1/3 108/1/3 109/1/3
f 113/1/3 112/1/3 111/1/3
f 114/1/3 112/1/3 113/1/3
f 117/1/3 116/1/3 115/1/3
f 118/1/3 116/1/3 117/1/3
f 121/1/3 120/1/3 119/1/3
f 122/1/3 120/1/3 121/1/3
f 125/1/3 124/1/3 123/1/3
f 126/1/3 124/1/3 125/1/3
f 129/1/3 128/1/3 127/1/3
f 130/1/3 128/1/3 129/1/3
f 133/1/3 132/1/3 131/1/3
f 134/1/3 132/1/3 133/1/3
f 137/2/3 136/2/3 135/2/3
f 138/2/3 136/2/3 137/2/3
f 141/3/3 140/3/3 139/3/3
f 142/3/3 140/3/3 141/3/3
f 143/3/4 144/3/4 145/3/4
f 145/3/4 144/3/4 146/3/4
f 147/3/4 148/3/4 149/3/4
f 149/3/4 148/3/4 150/3/4
f 151/1/4 152/1/4 153/1/4
f 153/1/4 152/1/4 154/1/4
f 155/2/4 156/2/4 157/2/4
f 157/2/4 156/2/4 158/2/4
f 159/2/4 160/2/4 162/2/4
f 160/3/4 161/3/4 163/3/4
f 162/2/4 160/2/4 163/2/4
f 163/3/4 161/3/4 164/3/4
f 165/2/4 166/2/4 167/2/4
f 167/2/4 166/2/4 168/2/4
f 173/2/5 170/2/5 169/2/5
f 174/2/5 172/2/5 171/2/5
f 175/2/5 173/2/5 169/2/5
f 175/2/5 174/2/5 173/2/5
f 176/2/5 172/2/5 174/2/5
f 176/2/5 174/2/5 175/2/5
f 177/2/5 175/2/5 169/2/5
f 178/2/5 175/2/5 177/2/5
f 179/2/5 172/2/5 176/2/5
f 180/2/5 172/2/5 179/2/5
f 181/2/6 182/2/6 184/2/6
f 184/2/6 182/2/6 185/2/6
f 183/2/6 184/2/6 187/2/6
f 185/2/6 186/2/6 187/2/6
f 184/2/6 185/2/6 187/2/6
f 187/2/6 186/2/6 188/2/6
f 183/2/6 187/2/6 191/2/6
f 188/2/6 186/2/6 192/2/6
f 189/2/6 190/2/6 194/2/6
f 193/2/6 194/2/6 195/2/6
f 194/2/6 190/2/6 196/2/6
f 195/2/6 194/2/6 196/2/6
f 191/2/6 192/2/6 197/2/6
f 183/2/6 191/2/6 197/2/6
f 192/2/6 186/2/6 198/2/6
f 197/2/6 192/2/6 198/2/6
f 196/2/6 190/2/6 199/2/6
f 199/2/6 190/2/6 200/2/6
f 201/3/6 202/3/6 205/3/6
f 205/3/6 202/3/6 206/3/6
f 203/3/6 204/3/6 207/3/6
f 207/3/6 204/3/6 208/3/6
f 209/1/6 210/1/6 211/1/6
f 211/1/6 210/1/6 212/1/6
f 201/3/6 205/3/6 213/3/6
f 208/3/6 204/3/6 214/3/6
f 201/3/6 213/3/6 215/3/6
f 213/3/6 214/3/6 215/3/6
f 214/3/6 204/3/6 216/3/6
f 215/3/6 214/3/6 216/3/6
f 217/1/6 218/1/6 219/1/6
f 219/1/6 218/1/6 220/1/6
f 221/1/6 222/1/6 223/1/6
f 223/1/6 222/1/6 224/1/6
f 225/1/6 226/1/6 227/1/6
f 227/1/6 226/1/6 228/1/6
f 229/1/6 230/1/6 231/1/6
f 231/1/6 230/1/6 232/1/6
f 233/1/6 234/1/6 235/1/6
f 235/1/6 234/1/6 236/1/6
f 237/1/6 238/1/6 239/1/6
f 239/1/6 238/1/6 240/1/6
f 241/1/6 242/1/6 243/1/6
f 243/1/6 242/1/6 244/1/6
f 245/1/6 246/1/6 247/1/6
f 247/1/6 246/1/6 248/1/6
