# MagicaVoxel @ Ephtracy

# group
g Wayholt

# material
mtllib Wayholt.mtl
usemtl palette

# normals
vn -1 0 0
vn 1 0 0
vn 0 0 1
vn 0 0 -1
vn 0 -1 0
vn 0 1 0

# texcoords
vt 0.896484 0.5
vt 0.970703 0.5

# verts
v -63 52 63
v -63 52 -63
v -63 55 63
v -63 55 -63
v -63 59 63
v -63 59 -63
v -13 55 17
v -13 55 16
v -13 56 17
v -13 56 16
v -12 56 17
v -12 56 16
v -12 57 17
v -12 57 16
v -11 57 17
v -11 57 16
v -11 58 17
v -11 58 16
v -10 58 17
v -10 58 16
v -10 59 17
v -10 59 16
v -9 59 17
v -9 59 16
v -9 60 17
v -9 60 16
v -8 60 17
v -8 60 16
v -8 61 17
v -8 61 16
v -7 61 17
v -7 61 16
v -7 62 17
v -7 62 16
v -6 55 24
v -6 55 17
v -6 59 24
v -6 59 17
v -6 62 17
v -6 62 16
v -6 63 17
v -6 63 16
v 2 55 24
v 2 55 20
v 2 58 24
v 2 58 20
v 62 55 62
v 62 55 -62
v 62 59 62
v 62 59 -62
v -62 55 62
v -62 55 -62
v -62 59 62
v -62 59 -62
v -4 55 24
v -4 55 17
v -4 58 24
v -4 58 17
v -2 62 17
v -2 62 16
v -2 63 17
v -2 63 16
v -1 61 17
v -1 61 16
v -1 62 17
v -1 62 16
v 0 60 17
v 0 60 16
v 0 61 17
v 0 61 16
v 1 59 17
v 1 59 16
v 1 60 17
v 1 60 16
v 2 55 17
v 2 55 16
v 2 58 20
v 2 58 17
v 2 59 20
v 2 59 16
v 6 58 24
v 6 58 20
v 6 59 24
v 6 59 20
v 7 57 24
v 7 57 20
v 7 58 24
v 7 58 20
v 8 56 24
v 8 56 20
v 8 57 24
v 8 57 20
v 9 55 24
v 9 55 20
v 9 56 24
v 9 56 20
v 63 52 63
v 63 52 -63
v 63 55 63
v 63 55 -63
v 63 59 63
v 63 59 -63
v -63 52 63
v -63 55 63
v -63 59 63
v 63 52 63
v 63 55 63
v 63 59 63
v -6 55 24
v -6 59 24
v -4 55 24
v -4 58 24
v 2 55 24
v 2 58 24
v 6 58 24
v 6 59 24
v 7 57 24
v 7 58 24
v 8 56 24
v 8 57 24
v 9 55 24
v 9 56 24
v -13 55 17
v -13 56 17
v -12 56 17
v -12 57 17
v -11 57 17
v -11 58 17
v -10 58 17
v -10 59 17
v -9 59 17
v -9 60 17
v -8 60 17
v -8 61 17
v -7 61 17
v -7 62 17
v -6 55 17
v -6 59 17
v -6 62 17
v -6 63 17
v -4 55 17
v -4 58 17
v -2 62 17
v -2 63 17
v -1 61 17
v -1 62 17
v 0 60 17
v 0 61 17
v 1 59 17
v 1 60 17
v 2 55 17
v 2 58 17
v -62 55 -62
v -62 59 -62
v 62 55 -62
v 62 59 -62
v -62 55 62
v -62 59 62
v 62 55 62
v 62 59 62
v 2 55 20
v 2 58 20
v 2 59 20
v 6 58 20
v 6 59 20
v 7 57 20
v 7 58 20
v 8 56 20
v 8 57 20
v 9 55 20
v 9 56 20
v -13 55 16
v -13 56 16
v -12 56 16
v -12 57 16
v -11 57 16
v -11 58 16
v -10 58 16
v -10 59 16
v -9 59 16
v -9 60 16
v -8 60 16
v -8 61 16
v -7 61 16
v -7 62 16
v -6 62 16
v -6 63 16
v -2 62 16
v -2 63 16
v -1 61 16
v -1 62 16
v 0 60 16
v 0 61 16
v 1 59 16
v 1 60 16
v 2 55 16
v 2 59 16
v -63 52 -63
v -63 55 -63
v -63 59 -63
v 63 52 -63
v 63 55 -63
v 63 59 -63
v -63 52 63
v 63 52 63
v -63 52 -63
v 63 52 -63
v -4 58 24
v 2 58 24
v 2 58 20
v -4 58 17
v 2 58 17
v -62 55 62
v 62 55 62
v -6 55 24
v -4 55 24
v 2 55 24
v 9 55 24
v 2 55 20
v 9 55 20
v -13 55 17
v -6 55 17
v -4 55 17
v 2 55 17
v -13 55 16
v 2 55 16
v -62 55 -62
v 62 55 -62
v 8 56 24
v 9 56 24
v 8 56 20
v 9 56 20
v -13 56 17
v -12 56 17
v -13 56 16
v -12 56 16
v 7 57 24
v 8 57 24
v 7 57 20
v 8 57 20
v -12 57 17
v -11 57 17
v -12 57 16
v -11 57 16
v 6 58 24
v 7 58 24
v 6 58 20
v 7 58 20
v -11 58 17
v -10 58 17
v -11 58 16
v -10 58 16
v -63 59 63
v 63 59 63
v -62 59 62
v 62 59 62
v -6 59 24
v 6 59 24
v 2 59 20
v 6 59 20
v -10 59 17
v -9 59 17
v -6 59 17
v 1 59 17
v -10 59 16
v -9 59 16
v 1 59 16
v 2 59 16
v -62 59 -62
v 62 59 -62
v -63 59 -63
v 63 59 -63
v -9 60 17
v -8 60 17
v 0 60 17
v 1 60 17
v -9 60 16
v -8 60 16
v 0 60 16
v 1 60 16
v -8 61 17
v -7 61 17
v -1 61 17
v 0 61 17
v -8 61 16
v -7 61 16
v -1 61 16
v 0 61 16
v -7 62 17
v -6 62 17
v -2 62 17
v -1 62 17
v -7 62 16
v -6 62 16
v -2 62 16
v -1 62 16
v -6 63 17
v -2 63 17
v -6 63 16
v -2 63 16

# faces
f 3/1/1 2/1/1 1/1/1
f 4/1/1 2/1/1 3/1/1
f 5/2/1 4/2/1 3/2/1
f 6/2/1 4/2/1 5/2/1
f 9/2/1 8/2/1 7/2/1
f 10/2/1 8/2/1 9/2/1
f 13/2/1 12/2/1 11/2/1
f 14/2/1 12/2/1 13/2/1
f 17/2/1 16/2/1 15/2/1
f 18/2/1 16/2/1 17/2/1
f 21/2/1 20/2/1 19/2/1
f 22/2/1 20/2/1 21/2/1
f 25/2/1 24/2/1 23/2/1
f 26/2/1 24/2/1 25/2/1
f 29/2/1 28/2/1 27/2/1
f 30/2/1 28/2/1 29/2/1
f 33/2/1 32/2/1 31/2/1
f 34/2/1 32/2/1 33/2/1
f 37/2/1 36/2/1 35/2/1
f 38/2/1 36/2/1 37/2/1
f 41/2/1 40/2/1 39/2/1
f 42/2/1 40/2/1 41/2/1
f 45/2/1 44/2/1 43/2/1
f 46/2/1 44/2/1 45/2/1
f 49/2/1 48/2/1 47/2/1
f 50/2/1 48/2/1 49/2/1
f 51/2/2 52/2/2 53/2/2
f 53/2/2 52/2/2 54/2/2
f 55/2/2 56/2/2 57/2/2
f 57/2/2 56/2/2 58/2/2
f 59/2/2 60/2/2 61/2/2
f 61/2/2 60/2/2 62/2/2
f 63/2/2 64/2/2 65/2/2
f 65/2/2 64/2/2 66/2/2
f 67/2/2 68/2/2 69/2/2
f 69/2/2 68/2/2 70/2/2
f 71/2/2 72/2/2 73/2/2
f 73/2/2 72/2/2 74/2/2
f 75/2/2 76/2/2 78/2/2
f 77/2/2 78/2/2 79/2/2
f 78/2/2 76/2/2 80/2/2
f 79/2/2 78/2/2 80/2/2
f 81/2/2 82/2/2 83/2/2
f 83/2/2 82/2/2 84/2/2
f 85/2/2 86/2/2 87/2/2
f 87/2/2 86/2/2 88/2/2
f 89/2/2 90/2/2 91/2/2
f 91/2/2 90/2/2 92/2/2
f 93/2/2 94/2/2 95/2/2
f 95/2/2 94/2/2 96/2/2
f 97/1/2 98/1/2 99/1/2
f 99/1/2 98/1/2 100/1/2
f 99/2/2 100/2/2 101/2/2
f 101/2/2 100/2/2 102/2/2
f 106/1/3 104/1/3 103/1/3
f 107/2/3 105/2/3 104/2/3
f 107/1/3 104/1/3 106/1/3
f 108/2/3 105/2/3 107/2/3
f 111/2/3 110/2/3 109/2/3
f 112/2/3 110/2/3 111/2/3
f 114/2/3 110/2/3 112/2/3
f 115/2/3 110/2/3 114/2/3
f 115/2/3 114/2/3 113/2/3
f 116/2/3 110/2/3 115/2/3
f 117/2/3 115/2/3 113/2/3
f 118/2/3 115/2/3 117/2/3
f 119/2/3 117/2/3 113/2/3
f 120/2/3 117/2/3 119/2/3
f 121/2/3 119/2/3 113/2/3
f 122/2/3 119/2/3 121/2/3
f 125/2/3 124/2/3 123/2/3
f 127/2/3 126/2/3 125/2/3
f 129/2/3 128/2/3 127/2/3
f 131/2/3 130/2/3 129/2/3
f 133/2/3 132/2/3 131/2/3
f 135/2/3 134/2/3 133/2/3
f 137/2/3 125/2/3 123/2/3
f 137/2/3 136/2/3 135/2/3
f 137/2/3 135/2/3 133/2/3
f 137/2/3 133/2/3 131/2/3
f 137/2/3 131/2/3 129/2/3
f 137/2/3 129/2/3 127/2/3
f 137/2/3 127/2/3 125/2/3
f 138/2/3 136/2/3 137/2/3
f 139/2/3 136/2/3 138/2/3
f 143/2/3 140/2/3 139/2/3
f 143/2/3 139/2/3 138/2/3
f 144/2/3 140/2/3 143/2/3
f 145/2/3 143/2/3 138/2/3
f 146/2/3 143/2/3 145/2/3
f 147/2/3 145/2/3 138/2/3
f 148/2/3 145/2/3 147/2/3
f 149/2/3 147/2/3 138/2/3
f 150/2/3 147/2/3 149/2/3
f 151/2/3 142/2/3 141/2/3
f 152/2/3 142/2/3 151/2/3
f 155/2/3 154/2/3 153/2/3
f 156/2/3 154/2/3 155/2/3
f 157/2/4 158/2/4 159/2/4
f 159/2/4 158/2/4 160/2/4
f 161/2/4 162/2/4 164/2/4
f 162/2/4 163/2/4 164/2/4
f 164/2/4 163/2/4 165/2/4
f 161/2/4 164/2/4 166/2/4
f 166/2/4 164/2/4 167/2/4
f 161/2/4 166/2/4 168/2/4
f 168/2/4 166/2/4 169/2/4
f 161/2/4 168/2/4 170/2/4
f 170/2/4 168/2/4 171/2/4
f 172/2/4 173/2/4 174/2/4
f 174/2/4 175/2/4 176/2/4
f 176/2/4 177/2/4 178/2/4
f 178/2/4 179/2/4 180/2/4
f 180/2/4 181/2/4 182/2/4
f 182/2/4 183/2/4 184/2/4
f 184/2/4 185/2/4 186/2/4
f 184/2/4 186/2/4 188/2/4
f 186/2/4 187/2/4 188/2/4
f 188/2/4 187/2/4 189/2/4
f 182/2/4 184/2/4 190/2/4
f 184/2/4 188/2/4 190/2/4
f 190/2/4 188/2/4 191/2/4
f 180/2/4 182/2/4 192/2/4
f 182/2/4 190/2/4 192/2/4
f 192/2/4 190/2/4 193/2/4
f 178/2/4 180/2/4 194/2/4
f 180/2/4 192/2/4 194/2/4
f 194/2/4 192/2/4 195/2/4
f 172/2/4 174/2/4 196/2/4
f 174/2/4 176/2/4 196/2/4
f 178/2/4 194/2/4 196/2/4
f 176/2/4 178/2/4 196/2/4
f 196/2/4 194/2/4 197/2/4
f 198/1/4 199/1/4 201/1/4
f 199/2/4 200/2/4 202/2/4
f 201/1/4 199/1/4 202/1/4
f 202/2/4 200/2/4 203/2/4
f 206/1/5 205/1/5 204/1/5
f 207/1/5 205/1/5 206/1/5
f 210/2/5 209/2/5 208/2/5
f 211/2/5 210/2/5 208/2/5
f 212/2/5 210/2/5 211/2/5
f 213/1/6 214/1/6 215/1/6
f 215/1/6 214/1/6 216/1/6
f 216/1/6 214/1/6 217/1/6
f 217/1/6 214/1/6 218/1/6
f 216/1/6 217/1/6 219/1/6
f 218/1/6 214/1/6 220/1/6
f 213/1/6 215/1/6 221/1/6
f 221/1/6 215/1/6 222/1/6
f 219/1/6 220/1/6 223/1/6
f 216/1/6 219/1/6 223/1/6
f 223/1/6 220/1/6 224/1/6
f 213/1/6 221/1/6 225/1/6
f 224/1/6 220/1/6 226/1/6
f 213/1/6 225/1/6 227/1/6
f 225/1/6 226/1/6 227/1/6
f 226/1/6 220/1/6 228/1/6
f 227/1/6 226/1/6 228/1/6
f 220/1/6 214/1/6 228/1/6
f 229/2/6 230/2/6 231/2/6
f 231/2/6 230/2/6 232/2/6
f 233/2/6 234/2/6 235/2/6
f 235/2/6 234/2/6 236/2/6
f 237/2/6 238/2/6 239/2/6
f 239/2/6 238/2/6 240/2/6
f 241/2/6 242/2/6 243/2/6
f 243/2/6 242/2/6 244/2/6
f 245/2/6 246/2/6 247/2/6
f 247/2/6 246/2/6 248/2/6
f 249/2/6 250/2/6 251/2/6
f 251/2/6 250/2/6 252/2/6
f 253/2/6 254/2/6 255/2/6
f 255/2/6 254/2/6 256/2/6
f 257/2/6 258/2/6 259/2/6
f 259/2/6 258/2/6 260/2/6
f 257/2/6 259/2/6 263/2/6
f 263/2/6 259/2/6 264/2/6
f 261/2/6 262/2/6 265/2/6
f 265/2/6 262/2/6 266/2/6
f 264/2/6 259/2/6 267/2/6
f 267/2/6 259/2/6 268/2/6
f 253/2/6 255/2/6 269/2/6
f 256/2/6 254/2/6 270/2/6
f 253/2/6 269/2/6 271/2/6
f 269/2/6 270/2/6 271/2/6
f 270/2/6 254/2/6 272/2/6
f 271/2/6 270/2/6 272/2/6
f 273/2/6 274/2/6 277/2/6
f 277/2/6 274/2/6 278/2/6
f 275/2/6 276/2/6 279/2/6
f 279/2/6 276/2/6 280/2/6
f 281/2/6 282/2/6 285/2/6
f 285/2/6 282/2/6 286/2/6
f 283/2/6 284/2/6 287/2/6
f 287/2/6 284/2/6 288/2/6
f 289/2/6 290/2/6 293/2/6
f 293/2/6 290/2/6 294/2/6
f 291/2/6 292/2/6 295/2/6
f 295/2/6 292/2/6 296/2/6
f 297/2/6 298/2/6 299/2/6
f 299/2/6 298/2/6 300/2/6
