# MagicaVoxel @ Ephtracy

# group
g desk-action-figure1

# material
mtllib desk-action-figure1.mtl
usemtl palette

# normals
vn -1 0 0
vn 1 0 0
vn 0 0 1
vn 0 0 -1
vn 0 -1 0
vn 0 1 0

# texcoords
vt 0.0917969 0.5
vt 0.775391 0.5
vt 0.826172 0.5
vt 0.978516 0.5
vt 0.994141 0.5

# verts
v -4 0 2.5
v -4 0 1.5
v -4 4 1.5
v -4 4 -1.5
v -4 5 1.5
v -4 5 -0.5
v -4 7 -0.5
v -4 7 -1.5
v -4 8 2.5
v -4 8 1.5
v -3 8 0.5
v -3 8 -1.5
v -3 9 0.5
v -3 9 -1.5
v -2 0 0.5
v -2 0 -1.5
v -2 1 0.5
v -2 1 -0.5
v -2 3 -0.5
v -2 3 -1.5
v -2 4 -0.5
v -2 4 -1.5
v -2 5 -0.5
v -2 5 -1.5
v -2 6 -0.5
v -2 6 -1.5
v -2 7 0.5
v -2 7 -0.5
v -2 7 -1.5
v -2 8 0.5
v -2 8 -1.5
v -2 8 -2.5
v -2 9 0.5
v -2 9 -1.5
v -2 10 0.5
v -2 10 -2.5
v -1 4 -0.5
v -1 4 -1.5
v -1 5 -0.5
v -1 5 -1.5
v -1 7 -1.5
v -1 7 -2.5
v -1 8 -1.5
v -1 8 -2.5
v -1 10 0.5
v -1 10 -1.5
v -1 11 0.5
v -1 11 -1.5
v 0 0 0.5
v 0 0 -1.5
v 0 1 0.5
v 0 1 -0.5
v 0 3 -0.5
v 0 3 -1.5
v 1 2 2.5
v 1 2 1.5
v 1 7 2.5
v 1 7 1.5
v 1 8 0.5
v 1 8 -0.5
v 1 9 0.5
v 1 9 -0.5
v 2 1 2.5
v 2 1 1.5
v 2 2 2.5
v 2 2 1.5
v 2 4 1.5
v 2 4 -1.5
v 2 5 1.5
v 2 5 -0.5
v 2 6 -0.5
v 2 6 -1.5
v -3 0 2.5
v -3 0 1.5
v -3 4 1.5
v -3 4 -1.5
v -3 5 1.5
v -3 5 -0.5
v -3 6 -0.5
v -3 6 -1.5
v -3 8 2.5
v -3 8 1.5
v -2 8 0.5
v -2 8 -0.5
v -2 9 0.5
v -2 9 -0.5
v -1 0 0.5
v -1 0 -1.5
v -1 1 0.5
v -1 1 -0.5
v -1 3 -0.5
v -1 3 -1.5
v 0 4 -0.5
v 0 4 -1.5
v 0 5 -0.5
v 0 5 -1.5
v 0 7 -1.5
v 0 7 -2.5
v 0 8 -1.5
v 0 8 -2.5
v 0 10 0.5
v 0 10 -1.5
v 0 11 0.5
v 0 11 -1.5
v 1 0 0.5
v 1 0 -1.5
v 1 1 0.5
v 1 1 -0.5
v 1 3 -0.5
v 1 3 -1.5
v 1 4 -0.5
v 1 4 -1.5
v 1 5 -0.5
v 1 5 -1.5
v 1 6 -0.5
v 1 6 -1.5
v 1 7 0.5
v 1 7 -0.5
v 1 7 -1.5
v 1 8 0.5
v 1 8 -1.5
v 1 8 -2.5
v 1 9 0.5
v 1 9 -1.5
v 1 10 0.5
v 1 10 -2.5
v 2 8 0.5
v 2 8 -1.5
v 2 9 0.5
v 2 9 -1.5
v 3 1 2.5
v 3 1 1.5
v 3 2 2.5
v 3 2 1.5
v 3 4 1.5
v 3 4 -1.5
v 3 5 1.5
v 3 5 -0.5
v 3 7 -0.5
v 3 7 -1.5
v 4 2 2.5
v 4 2 1.5
v 4 7 2.5
v 4 7 1.5
v -4 0 2.5
v -4 8 2.5
v -3 0 2.5
v -3 8 2.5
v 1 2 2.5
v 1 7 2.5
v 2 1 2.5
v 2 2 2.5
v 3 1 2.5
v 3 2 2.5
v 4 2 2.5
v 4 7 2.5
v -3 8 0.5
v -3 9 0.5
v -2 0 0.5
v -2 1 0.5
v -2 7 0.5
v -2 8 0.5
v -2 9 0.5
v -2 10 0.5
v -1 0 0.5
v -1 1 0.5
v -1 10 0.5
v -1 11 0.5
v 0 0 0.5
v 0 1 0.5
v 0 10 0.5
v 0 11 0.5
v 1 0 0.5
v 1 1 0.5
v 1 7 0.5
v 1 8 0.5
v 1 9 0.5
v 1 10 0.5
v 2 8 0.5
v 2 9 0.5
v -4 5 -0.5
v -4 7 -0.5
v -3 5 -0.5
v -3 6 -0.5
v -2 1 -0.5
v -2 3 -0.5
v -2 4 -0.5
v -2 5 -0.5
v -2 6 -0.5
v -2 7 -0.5
v -2 8 -0.5
v -2 9 -0.5
v -1 1 -0.5
v -1 3 -0.5
v -1 4 -0.5
v -1 5 -0.5
v -1 7 -0.5
v 0 1 -0.5
v 0 3 -0.5
v 0 4 -0.5
v 0 5 -0.5
v 0 7 -0.5
v 1 1 -0.5
v 1 3 -0.5
v 1 4 -0.5
v 1 5 -0.5
v 1 6 -0.5
v 1 7 -0.5
v 1 8 -0.5
v 1 9 -0.5
v 2 5 -0.5
v 2 6 -0.5
v 3 5 -0.5
v 3 7 -0.5
v -4 0 1.5
v -4 4 1.5
v -4 5 1.5
v -4 8 1.5
v -3 0 1.5
v -3 4 1.5
v -3 5 1.5
v -3 8 1.5
v 1 2 1.5
v 1 7 1.5
v 2 1 1.5
v 2 2 1.5
v 2 4 1.5
v 2 5 1.5
v 3 1 1.5
v 3 2 1.5
v 3 4 1.5
v 3 5 1.5
v 4 2 1.5
v 4 7 1.5
v -4 4 -1.5
v -4 7 -1.5
v -3 4 -1.5
v -3 6 -1.5
v -3 8 -1.5
v -3 9 -1.5
v -2 0 -1.5
v -2 3 -1.5
v -2 4 -1.5
v -2 5 -1.5
v -2 6 -1.5
v -2 7 -1.5
v -2 8 -1.5
v -2 9 -1.5
v -1 0 -1.5
v -1 3 -1.5
v -1 4 -1.5
v -1 5 -1.5
v -1 7 -1.5
v -1 8 -1.5
v -1 10 -1.5
v -1 11 -1.5
v 0 0 -1.5
v 0 3 -1.5
v 0 4 -1.5
v 0 5 -1.5
v 0 7 -1.5
v 0 8 -1.5
v 0 10 -1.5
v 0 11 -1.5
v 1 0 -1.5
v 1 3 -1.5
v 1 4 -1.5
v 1 5 -1.5
v 1 6 -1.5
v 1 7 -1.5
v 1 8 -1.5
v 1 9 -1.5
v 2 4 -1.5
v 2 6 -1.5
v 2 8 -1.5
v 2 9 -1.5
v 3 4 -1.5
v 3 7 -1.5
v -2 8 -2.5
v -2 10 -2.5
v -1 7 -2.5
v -1 8 -2.5
v 0 7 -2.5
v 0 8 -2.5
v 1 8 -2.5
v 1 10 -2.5
v -4 0 2.5
v -3 0 2.5
v -4 0 1.5
v -3 0 1.5
v -2 0 0.5
v -1 0 0.5
v 0 0 0.5
v 1 0 0.5
v -2 0 -1.5
v -1 0 -1.5
v 0 0 -1.5
v 1 0 -1.5
v 2 1 2.5
v 3 1 2.5
v 2 1 1.5
v 3 1 1.5
v 1 2 2.5
v 2 2 2.5
v 3 2 2.5
v 4 2 2.5
v 1 2 1.5
v 2 2 1.5
v 3 2 1.5
v 4 2 1.5
v -1 3 -0.5
v 0 3 -0.5
v -1 3 -1.5
v 0 3 -1.5
v -4 4 1.5
v -3 4 1.5
v 2 4 1.5
v 3 4 1.5
v -4 4 -1.5
v -3 4 -1.5
v 2 4 -1.5
v 3 4 -1.5
v -2 5 -0.5
v -1 5 -0.5
v 0 5 -0.5
v 1 5 -0.5
v -2 5 -1.5
v -1 5 -1.5
v 0 5 -1.5
v 1 5 -1.5
v -3 6 -0.5
v -2 6 -0.5
v 1 6 -0.5
v 2 6 -0.5
v -3 6 -1.5
v -2 6 -1.5
v 1 6 -1.5
v 2 6 -1.5
v -2 7 0.5
v 1 7 0.5
v -2 7 -0.5
v -1 7 -0.5
v 0 7 -0.5
v 1 7 -0.5
v -1 7 -1.5
v 0 7 -1.5
v -1 7 -2.5
v 0 7 -2.5
v -3 8 0.5
v -2 8 0.5
v 1 8 0.5
v 2 8 0.5
v -3 8 -1.5
v -2 8 -1.5
v -1 8 -1.5
v 0 8 -1.5
v 1 8 -1.5
v 2 8 -1.5
v -2 8 -2.5
v -1 8 -2.5
v 0 8 -2.5
v 1 8 -2.5
v -2 9 0.5
v 1 9 0.5
v -2 9 -0.5
v 1 9 -0.5
v -2 1 0.5
v -1 1 0.5
v 0 1 0.5
v 1 1 0.5
v -2 1 -0.5
v -1 1 -0.5
v 0 1 -0.5
v 1 1 -0.5
v -2 4 -0.5
v -1 4 -0.5
v 0 4 -0.5
v 1 4 -0.5
v -2 4 -1.5
v -1 4 -1.5
v 0 4 -1.5
v 1 4 -1.5
v -4 5 1.5
v -3 5 1.5
v 2 5 1.5
v 3 5 1.5
v -4 5 -0.5
v -3 5 -0.5
v 2 5 -0.5
v 3 5 -0.5
v 1 7 2.5
v 4 7 2.5
v 1 7 1.5
v 4 7 1.5
v -4 7 -0.5
v -2 7 -0.5
v 1 7 -0.5
v 3 7 -0.5
v -4 7 -1.5
v -2 7 -1.5
v 1 7 -1.5
v 3 7 -1.5
v -4 8 2.5
v -3 8 2.5
v -4 8 1.5
v -3 8 1.5
v -2 8 0.5
v 1 8 0.5
v -2 8 -0.5
v 1 8 -0.5
v -3 9 0.5
v -2 9 0.5
v 1 9 0.5
v 2 9 0.5
v -3 9 -1.5
v -2 9 -1.5
v 1 9 -1.5
v 2 9 -1.5
v -2 10 0.5
v -1 10 0.5
v 0 10 0.5
v 1 10 0.5
v -1 10 -1.5
v 0 10 -1.5
v -2 10 -2.5
v 1 10 -2.5
v -1 11 0.5
v 0 11 0.5
v -1 11 -1.5
v 0 11 -1.5

# faces
f 3/1/1 2/1/1 1/1/1
f 5/1/1 3/1/1 1/1/1
f 5/2/1 4/2/1 3/2/1
f 6/2/1 4/2/1 5/2/1
f 7/2/1 4/2/1 6/2/1
f 8/2/1 4/2/1 7/2/1
f 9/1/1 5/1/1 1/1/1
f 10/1/1 5/1/1 9/1/1
f 13/4/1 12/4/1 11/4/1
f 14/4/1 12/4/1 13/4/1
f 17/2/1 16/2/1 15/2/1
f 18/2/1 16/2/1 17/2/1
f 19/2/1 16/2/1 18/2/1
f 20/2/1 16/2/1 19/2/1
f 21/3/1 20/3/1 19/3/1
f 22/3/1 20/3/1 21/3/1
f 25/2/1 24/2/1 23/2/1
f 26/2/1 24/2/1 25/2/1
f 30/4/1 28/4/1 27/4/1
f 30/4/1 29/4/1 28/4/1
f 31/4/1 29/4/1 30/4/1
f 34/4/1 32/4/1 31/4/1
f 35/4/1 34/4/1 33/4/1
f 36/4/1 32/4/1 34/4/1
f 36/4/1 34/4/1 35/4/1
f 39/3/1 38/3/1 37/3/1
f 40/3/1 38/3/1 39/3/1
f 43/4/1 42/4/1 41/4/1
f 44/4/1 42/4/1 43/4/1
f 47/4/1 46/4/1 45/4/1
f 48/4/1 46/4/1 47/4/1
f 51/2/1 50/2/1 49/2/1
f 52/2/1 50/2/1 51/2/1
f 53/2/1 50/2/1 52/2/1
f 54/2/1 50/2/1 53/2/1
f 57/1/1 56/1/1 55/1/1
f 58/1/1 56/1/1 57/1/1
f 61/4/1 60/4/1 59/4/1
f 62/4/1 60/4/1 61/4/1
f 65/1/1 64/1/1 63/1/1
f 66/1/1 64/1/1 65/1/1
f 69/2/1 68/2/1 67/2/1
f 70/2/1 68/2/1 69/2/1
f 71/2/1 68/2/1 70/2/1
f 72/2/1 68/2/1 71/2/1
f 73/1/2 74/1/2 75/1/2
f 73/1/2 75/1/2 77/1/2
f 75/2/2 76/2/2 77/2/2
f 77/2/2 76/2/2 78/2/2
f 78/2/2 76/2/2 79/2/2
f 79/2/2 76/2/2 80/2/2
f 73/1/2 77/1/2 81/1/2
f 81/1/2 77/1/2 82/1/2
f 83/4/2 84/4/2 85/4/2
f 85/4/2 84/4/2 86/4/2
f 87/2/2 88/2/2 89/2/2
f 89/2/2 88/2/2 90/2/2
f 90/2/2 88/2/2 91/2/2
f 91/2/2 88/2/2 92/2/2
f 93/3/2 94/3/2 95/3/2
f 95/3/2 94/3/2 96/3/2
f 97/4/2 98/4/2 99/4/2
f 99/4/2 98/4/2 100/4/2
f 101/4/2 102/4/2 103/4/2
f 103/4/2 102/4/2 104/4/2
f 105/2/2 106/2/2 107/2/2
f 107/2/2 106/2/2 108/2/2
f 108/2/2 106/2/2 109/2/2
f 109/2/2 106/2/2 110/2/2
f 109/3/2 110/3/2 111/3/2
f 111/3/2 110/3/2 112/3/2
f 113/2/2 114/2/2 115/2/2
f 115/2/2 114/2/2 116/2/2
f 117/4/2 118/4/2 120/4/2
f 118/4/2 119/4/2 120/4/2
f 120/4/2 119/4/2 121/4/2
f 121/4/2 122/4/2 124/4/2
f 123/4/2 124/4/2 125/4/2
f 124/4/2 122/4/2 126/4/2
f 125/4/2 124/4/2 126/4/2
f 127/4/2 128/4/2 129/4/2
f 129/4/2 128/4/2 130/4/2
f 131/1/2 132/1/2 133/1/2
f 133/1/2 132/1/2 134/1/2
f 135/2/2 136/2/2 137/2/2
f 137/2/2 136/2/2 138/2/2
f 138/2/2 136/2/2 139/2/2
f 139/2/2 136/2/2 140/2/2
f 141/1/2 142/1/2 143/1/2
f 143/1/2 142/1/2 144/1/2
f 147/1/3 146/1/3 145/1/3
f 148/1/3 146/1/3 147/1/3
f 152/1/3 150/1/3 149/1/3
f 153/1/3 152/1/3 151/1/3
f 154/1/3 150/1/3 152/1/3
f 154/1/3 152/1/3 153/1/3
f 155/1/3 150/1/3 154/1/3
f 156/1/3 150/1/3 155/1/3
f 162/4/3 158/4/3 157/4/3
f 163/4/3 158/4/3 162/4/3
f 165/2/3 160/2/3 159/2/3
f 166/2/3 160/2/3 165/2/3
f 167/4/3 164/4/3 163/4/3
f 171/4/3 168/4/3 167/4/3
f 171/4/3 167/4/3 163/4/3
f 172/4/3 168/4/3 171/4/3
f 173/2/3 170/2/3 169/2/3
f 174/2/3 170/2/3 173/2/3
f 175/4/3 162/4/3 161/4/3
f 176/4/3 162/4/3 175/4/3
f 177/4/3 171/4/3 163/4/3
f 178/4/3 171/4/3 177/4/3
f 179/4/3 177/4/3 176/4/3
f 180/4/3 177/4/3 179/4/3
f 183/2/3 182/2/3 181/2/3
f 184/2/3 182/2/3 183/2/3
f 189/2/3 182/2/3 184/2/3
f 190/2/3 182/2/3 189/2/3
f 193/2/3 186/2/3 185/2/3
f 194/3/3 187/3/3 186/3/3
f 194/2/3 186/2/3 193/2/3
f 195/3/3 187/3/3 194/3/3
f 196/2/3 189/2/3 188/2/3
f 196/2/3 190/2/3 189/2/3
f 197/2/3 190/2/3 196/2/3
f 199/3/3 195/3/3 194/3/3
f 199/3/3 197/3/3 196/3/3
f 199/3/3 196/3/3 195/3/3
f 200/3/3 197/3/3 199/3/3
f 201/3/3 197/3/3 200/3/3
f 202/3/3 197/3/3 201/3/3
f 203/2/3 199/2/3 198/2/3
f 204/3/3 200/3/3 199/3/3
f 204/2/3 199/2/3 203/2/3
f 205/3/3 200/3/3 204/3/3
f 206/2/3 202/2/3 201/2/3
f 207/2/3 202/2/3 206/2/3
f 208/2/3 202/2/3 207/2/3
f 209/5/3 192/5/3 191/5/3
f 210/5/3 192/5/3 209/5/3
f 212/2/3 208/2/3 207/2/3
f 213/2/3 212/2/3 211/2/3
f 214/2/3 208/2/3 212/2/3
f 214/2/3 212/2/3 213/2/3
f 215/1/4 216/1/4 219/1/4
f 219/1/4 216/1/4 220/1/4
f 217/1/4 218/1/4 221/1/4
f 221/1/4 218/1/4 222/1/4
f 223/1/4 224/1/4 226/1/4
f 226/1/4 224/1/4 227/1/4
f 227/1/4 224/1/4 228/1/4
f 225/1/4 226/1/4 229/1/4
f 226/1/4 227/1/4 229/1/4
f 229/1/4 227/1/4 230/1/4
f 230/1/4 227/1/4 231/1/4
f 228/1/4 224/1/4 232/1/4
f 230/1/4 231/1/4 233/1/4
f 231/1/4 232/1/4 233/1/4
f 232/1/4 224/1/4 234/1/4
f 233/1/4 232/1/4 234/1/4
f 235/2/4 236/2/4 237/2/4
f 237/2/4 236/2/4 238/2/4
f 238/2/4 236/2/4 245/2/4
f 245/2/4 236/2/4 246/2/4
f 239/4/4 240/4/4 247/4/4
f 247/4/4 240/4/4 248/4/4
f 241/2/4 242/2/4 249/2/4
f 242/3/4 243/3/4 250/3/4
f 249/2/4 242/2/4 250/2/4
f 250/3/4 243/3/4 251/3/4
f 245/2/4 246/2/4 252/2/4
f 244/2/4 245/2/4 252/2/4
f 246/4/4 247/4/4 253/4/4
f 252/2/4 246/2/4 253/2/4
f 253/4/4 247/4/4 254/4/4
f 250/3/4 251/3/4 258/3/4
f 252/3/4 253/3/4 258/3/4
f 251/3/4 252/3/4 258/3/4
f 258/3/4 253/3/4 259/3/4
f 259/3/4 253/3/4 260/3/4
f 260/3/4 253/3/4 261/3/4
f 255/4/4 256/4/4 263/4/4
f 263/4/4 256/4/4 264/4/4
f 257/2/4 258/2/4 265/2/4
f 258/3/4 259/3/4 266/3/4
f 265/2/4 258/2/4 266/2/4
f 266/3/4 259/3/4 267/3/4
f 260/2/4 261/2/4 268/2/4
f 268/2/4 261/2/4 269/2/4
f 261/4/4 262/4/4 270/4/4
f 269/2/4 261/2/4 270/2/4
f 270/4/4 262/4/4 271/4/4
f 269/2/4 270/2/4 274/2/4
f 271/4/4 272/4/4 275/4/4
f 275/4/4 272/4/4 276/4/4
f 273/2/4 274/2/4 277/2/4
f 274/2/4 270/2/4 278/2/4
f 277/2/4 274/2/4 278/2/4
f 279/4/4 280/4/4 282/4/4
f 281/4/4 282/4/4 283/4/4
f 282/4/4 280/4/4 284/4/4
f 283/4/4 282/4/4 284/4/4
f 284/4/4 280/4/4 285/4/4
f 285/4/4 280/4/4 286/4/4
f 289/1/5 288/1/5 287/1/5
f 290/1/5 288/1/5 289/1/5
f 295/2/5 292/2/5 291/2/5
f 296/2/5 292/2/5 295/2/5
f 297/2/5 294/2/5 293/2/5
f 298/2/5 294/2/5 297/2/5
f 301/1/5 300/1/5 299/1/5
f 302/1/5 300/1/5 301/1/5
f 307/1/5 304/1/5 303/1/5
f 308/1/5 304/1/5 307/1/5
f 309/1/5 306/1/5 305/1/5
f 310/1/5 306/1/5 309/1/5
f 313/3/5 312/3/5 311/3/5
f 314/3/5 312/3/5 313/3/5
f 319/2/5 316/2/5 315/2/5
f 320/2/5 316/2/5 319/2/5
f 321/2/5 318/2/5 317/2/5
f 322/2/5 318/2/5 321/2/5
f 327/2/5 324/2/5 323/2/5
f 328/2/5 324/2/5 327/2/5
f 329/2/5 326/2/5 325/2/5
f 330/2/5 326/2/5 329/2/5
f 335/2/5 332/2/5 331/2/5
f 336/2/5 332/2/5 335/2/5
f 337/2/5 334/2/5 333/2/5
f 338/2/5 334/2/5 337/2/5
f 341/4/5 340/4/5 339/4/5
f 342/4/5 340/4/5 341/4/5
f 343/4/5 340/4/5 342/4/5
f 344/4/5 340/4/5 343/4/5
f 347/4/5 346/4/5 345/4/5
f 348/4/5 346/4/5 347/4/5
f 353/4/5 350/4/5 349/4/5
f 354/4/5 350/4/5 353/4/5
f 357/4/5 352/4/5 351/4/5
f 358/4/5 352/4/5 357/4/5
f 359/4/5 355/4/5 354/4/5
f 360/4/5 355/4/5 359/4/5
f 361/4/5 357/4/5 356/4/5
f 362/4/5 357/4/5 361/4/5
f 365/4/5 364/4/5 363/4/5
f 366/4/5 364/4/5 365/4/5
f 367/2/6 368/2/6 371/2/6
f 371/2/6 368/2/6 372/2/6
f 369/2/6 370/2/6 373/2/6
f 373/2/6 370/2/6 374/2/6
f 375/3/6 376/3/6 379/3/6
f 379/3/6 376/3/6 380/3/6
f 377/3/6 378/3/6 381/3/6
f 381/3/6 378/3/6 382/3/6
f 383/2/6 384/2/6 387/2/6
f 387/2/6 384/2/6 388/2/6
f 385/2/6 386/2/6 389/2/6
f 389/2/6 386/2/6 390/2/6
f 391/1/6 392/1/6 393/1/6
f 393/1/6 392/1/6 394/1/6
f 395/2/6 396/2/6 399/2/6
f 399/2/6 396/2/6 400/2/6
f 397/2/6 398/2/6 401/2/6
f 401/2/6 398/2/6 402/2/6
f 403/1/6 404/1/6 405/1/6
f 405/1/6 404/1/6 406/1/6
f 407/4/6 408/4/6 409/4/6
f 409/4/6 408/4/6 410/4/6
f 411/4/6 412/4/6 415/4/6
f 415/4/6 412/4/6 416/4/6
f 413/4/6 414/4/6 417/4/6
f 417/4/6 414/4/6 418/4/6
f 419/4/6 420/4/6 423/4/6
f 421/4/6 422/4/6 424/4/6
f 419/4/6 423/4/6 425/4/6
f 423/4/6 424/4/6 425/4/6
f 424/4/6 422/4/6 426/4/6
f 425/4/6 424/4/6 426/4/6
f 427/4/6 428/4/6 429/4/6
f 429/4/6 428/4/6 430/4/6
