# MagicaVoxel @ Ephtracy

# group
g desk-action-figureC

# material
mtllib desk-action-figureC.mtl
usemtl palette

# normals
vn -1 0 0
vn 1 0 0
vn 0 0 1
vn 0 0 -1
vn 0 -1 0
vn 0 1 0

# texcoords
vt 0.916016 0.5
vt 0.990234 0.5

# verts
v -4 3 4
v -4 3 2
v -4 4 4
v -4 4 3
v -4 4 2
v -4 4 -0
v -4 5 4
v -4 5 3
v -4 5 2
v -4 5 1
v -4 6 4
v -4 6 2
v -4 7 1
v -4 7 -0
v -2 0 2
v -2 0 -0
v -2 1 2
v -2 1 1
v -2 1 -0
v -2 3 1
v -2 3 -0
v -2 4 1
v -2 4 -0
v -2 5 1
v -2 5 -0
v -2 6 1
v -2 6 -0
v -2 7 4
v -2 7 1
v -2 7 -0
v -2 7 -1
v -2 8 4
v -2 8 3
v -2 8 -1
v -2 8 -3
v -2 9 4
v -2 9 3
v -2 9 -3
v -2 10 4
v -2 10 -3
v -1 0 -3
v -1 0 -4
v -1 1 -2
v -1 1 -3
v -1 2 -1
v -1 2 -2
v -1 2 -3
v -1 2 -4
v -1 3 -0
v -1 3 -1
v -1 3 -2
v -1 3 -3
v -1 4 -0
v -1 4 -2
v 0 0 2
v 0 0 -0
v 0 1 2
v 0 1 1
v 0 1 -0
v 0 3 1
v 0 3 -0
v 2 0 -1
v 2 0 -2
v 2 0 -3
v 2 1 -1
v 2 1 -2
v 2 1 -3
v 2 3 4
v 2 3 2
v 2 4 4
v 2 4 3
v 2 4 2
v 2 4 -0
v 2 5 4
v 2 5 3
v 2 5 2
v 2 5 1
v 2 6 4
v 2 6 2
v 2 6 1
v 2 6 -0
v -3 3 4
v -3 3 2
v -3 4 4
v -3 4 3
v -3 4 2
v -3 4 -0
v -3 5 4
v -3 5 3
v -3 5 2
v -3 5 1
v -3 6 4
v -3 6 2
v -3 6 1
v -3 6 -0
v -1 0 2
v -1 0 -0
v -1 1 2
v -1 1 1
v -1 1 -0
v -1 3 1
v -1 3 -0
v 0 1 -2
v 0 1 -3
v 0 1 -4
v 0 2 -1
v 0 2 -2
v 0 2 -3
v 0 2 -4
v 0 3 -0
v 0 3 -1
v 0 3 -2
v 0 3 -3
v 0 4 -0
v 0 4 -2
v 1 0 2
v 1 0 -0
v 1 1 2
v 1 1 1
v 1 1 -0
v 1 3 1
v 1 3 -0
v 1 4 1
v 1 4 -0
v 1 5 1
v 1 5 -0
v 1 6 1
v 1 6 -0
v 1 7 4
v 1 7 1
v 1 7 -0
v 1 7 -1
v 1 8 4
v 1 8 3
v 1 8 -1
v 1 8 -3
v 1 9 4
v 1 9 3
v 1 9 -3
v 1 10 4
v 1 10 -3
v 3 0 -1
v 3 0 -2
v 3 0 -4
v 3 1 -1
v 3 1 -2
v 3 1 -4
v 3 3 4
v 3 3 2
v 3 4 4
v 3 4 3
v 3 4 2
v 3 4 -0
v 3 5 4
v 3 5 3
v 3 5 2
v 3 5 1
v 3 6 4
v 3 6 2
v 3 7 1
v 3 7 -0
v -4 3 4
v -4 4 4
v -4 5 4
v -4 6 4
v -3 3 4
v -3 4 4
v -3 5 4
v -3 6 4
v -2 7 4
v -2 8 4
v -2 9 4
v -2 10 4
v 1 7 4
v 1 8 4
v 1 9 4
v 1 10 4
v 2 3 4
v 2 4 4
v 2 5 4
v 2 6 4
v 3 3 4
v 3 4 4
v 3 5 4
v 3 6 4
v -4 4 3
v -4 5 3
v -3 4 3
v -3 5 3
v -2 8 3
v -2 9 3
v 1 8 3
v 1 9 3
v 2 4 3
v 2 5 3
v 3 4 3
v 3 5 3
v -2 0 2
v -2 1 2
v -1 0 2
v -1 1 2
v 0 0 2
v 0 1 2
v 1 0 2
v 1 1 2
v -4 5 1
v -4 7 1
v -3 5 1
v -3 6 1
v -2 1 1
v -2 3 1
v -2 4 1
v -2 5 1
v -2 6 1
v -2 7 1
v -1 1 1
v -1 3 1
v -1 4 1
v -1 5 1
v -1 6 1
v 0 1 1
v 0 3 1
v 0 4 1
v 0 5 1
v 0 6 1
v 1 1 1
v 1 3 1
v 1 4 1
v 1 5 1
v 1 6 1
v 1 7 1
v 2 5 1
v 2 6 1
v 3 5 1
v 3 7 1
v -1 2 -1
v -1 3 -1
v 0 2 -1
v 0 3 -1
v 2 0 -1
v 2 1 -1
v 3 0 -1
v 3 1 -1
v -1 1 -2
v -1 2 -2
v 0 1 -2
v 0 2 -2
v -1 0 -3
v -1 1 -3
v 0 1 -3
v 2 0 -3
v 2 1 -3
v -4 3 2
v -4 4 2
v -4 5 2
v -4 6 2
v -3 3 2
v -3 4 2
v -3 5 2
v -3 6 2
v 2 3 2
v 2 4 2
v 2 5 2
v 2 6 2
v 3 3 2
v 3 4 2
v 3 5 2
v 3 6 2
v -4 4 -0
v -4 7 -0
v -3 4 -0
v -3 6 -0
v -2 0 -0
v -2 1 -0
v -2 3 -0
v -2 4 -0
v -2 5 -0
v -2 6 -0
v -2 7 -0
v -1 0 -0
v -1 1 -0
v -1 3 -0
v -1 4 -0
v -1 5 -0
v -1 6 -0
v 0 0 -0
v 0 1 -0
v 0 3 -0
v 0 4 -0
v 0 5 -0
v 0 6 -0
v 1 0 -0
v 1 1 -0
v 1 3 -0
v 1 4 -0
v 1 5 -0
v 1 6 -0
v 1 7 -0
v 2 4 -0
v 2 6 -0
v 3 4 -0
v 3 7 -0
v -2 7 -1
v -2 8 -1
v 1 7 -1
v 1 8 -1
v -1 3 -2
v -1 4 -2
v 0 3 -2
v 0 4 -2
v -2 8 -3
v -2 9 -3
v -2 10 -3
v -1 2 -3
v -1 3 -3
v 0 2 -3
v 0 3 -3
v 1 8 -3
v 1 9 -3
v 1 10 -3
v -1 0 -4
v -1 2 -4
v 0 1 -4
v 0 2 -4
v 3 0 -4
v 3 1 -4
v -2 0 2
v -1 0 2
v 0 0 2
v 1 0 2
v -2 0 -0
v -1 0 -0
v 0 0 -0
v 1 0 -0
v 2 0 -1
v 3 0 -1
v 2 0 -2
v 3 0 -2
v -1 0 -3
v 2 0 -3
v -1 0 -4
v 3 0 -4
v -1 1 -2
v 0 1 -2
v -1 1 -3
v 0 1 -3
v -1 2 -1
v 0 2 -1
v -1 2 -2
v 0 2 -2
v -4 3 4
v -3 3 4
v 2 3 4
v 3 3 4
v -4 3 2
v -3 3 2
v 2 3 2
v 3 3 2
v -1 3 1
v 0 3 1
v -1 3 -0
v 0 3 -0
v -1 3 -1
v 0 3 -1
v -4 4 2
v -3 4 2
v 2 4 2
v 3 4 2
v -4 4 -0
v -3 4 -0
v 2 4 -0
v 3 4 -0
v -4 5 4
v -3 5 4
v 2 5 4
v 3 5 4
v -4 5 3
v -3 5 3
v 2 5 3
v 3 5 3
v -3 6 1
v -2 6 1
v 1 6 1
v 2 6 1
v -3 6 -0
v -2 6 -0
v 1 6 -0
v 2 6 -0
v -2 7 4
v 1 7 4
v -2 7 1
v 1 7 1
v -2 7 -0
v 1 7 -0
v -2 7 -1
v 1 7 -1
v -2 8 -1
v 1 8 -1
v -2 8 -3
v 1 8 -3
v -2 9 4
v 1 9 4
v -2 9 3
v 1 9 3
v -2 1 2
v -1 1 2
v 0 1 2
v 1 1 2
v -2 1 1
v -1 1 1
v 0 1 1
v 1 1 1
v 2 1 -1
v 3 1 -1
v 2 1 -2
v 3 1 -2
v 0 1 -3
v 2 1 -3
v 0 1 -4
v 3 1 -4
v -1 2 -3
v 0 2 -3
v -1 2 -4
v 0 2 -4
v -1 3 -2
v 0 3 -2
v -1 3 -3
v 0 3 -3
v -4 4 4
v -3 4 4
v 2 4 4
v 3 4 4
v -4 4 3
v -3 4 3
v 2 4 3
v 3 4 3
v -1 4 -0
v 0 4 -0
v -1 4 -2
v 0 4 -2
v -4 5 2
v -3 5 2
v 2 5 2
v 3 5 2
v -4 5 1
v -3 5 1
v 2 5 1
v 3 5 1
v -4 6 4
v -3 6 4
v 2 6 4
v 3 6 4
v -4 6 2
v -3 6 2
v 2 6 2
v 3 6 2
v -4 7 1
v -2 7 1
v 1 7 1
v 3 7 1
v -4 7 -0
v -2 7 -0
v 1 7 -0
v 3 7 -0
v -2 8 4
v 1 8 4
v -2 8 3
v 1 8 3
v -2 10 4
v 1 10 4
v -2 10 -3
v 1 10 -3

# faces
f 3/2/1 2/2/1 1/2/1
f 4/2/1 2/2/1 3/2/1
f 5/2/1 2/2/1 4/2/1
f 8/1/1 6/1/1 5/1/1
f 8/1/1 5/1/1 4/1/1
f 9/1/1 6/1/1 8/1/1
f 10/1/1 6/1/1 9/1/1
f 11/2/1 8/2/1 7/2/1
f 11/2/1 9/2/1 8/2/1
f 12/2/1 9/2/1 11/2/1
f 13/1/1 6/1/1 10/1/1
f 14/1/1 6/1/1 13/1/1
f 17/2/1 16/2/1 15/2/1
f 18/2/1 16/2/1 17/2/1
f 19/2/1 16/2/1 18/2/1
f 20/1/1 19/1/1 18/1/1
f 21/1/1 19/1/1 20/1/1
f 22/2/1 21/2/1 20/2/1
f 23/2/1 21/2/1 22/2/1
f 24/1/1 23/1/1 22/1/1
f 25/1/1 23/1/1 24/1/1
f 26/2/1 25/2/1 24/2/1
f 27/2/1 25/2/1 26/2/1
f 32/1/1 30/1/1 29/1/1
f 32/1/1 31/1/1 30/1/1
f 32/1/1 29/1/1 28/1/1
f 33/1/1 31/1/1 32/1/1
f 34/1/1 31/1/1 33/1/1
f 37/1/1 35/1/1 34/1/1
f 37/1/1 34/1/1 33/1/1
f 38/1/1 35/1/1 37/1/1
f 39/2/1 37/2/1 36/2/1
f 39/2/1 38/2/1 37/2/1
f 40/2/1 38/2/1 39/2/1
f 44/1/1 42/1/1 41/1/1
f 46/1/1 44/1/1 43/1/1
f 47/1/1 42/1/1 44/1/1
f 47/1/1 44/1/1 46/1/1
f 48/1/1 42/1/1 47/1/1
f 50/1/1 46/1/1 45/1/1
f 50/1/1 47/1/1 46/1/1
f 51/1/1 47/1/1 50/1/1
f 52/1/1 47/1/1 51/1/1
f 53/1/1 50/1/1 49/1/1
f 53/1/1 51/1/1 50/1/1
f 54/1/1 51/1/1 53/1/1
f 57/2/1 56/2/1 55/2/1
f 58/2/1 56/2/1 57/2/1
f 59/2/1 56/2/1 58/2/1
f 60/1/1 59/1/1 58/1/1
f 61/1/1 59/1/1 60/1/1
f 65/2/1 63/2/1 62/2/1
f 66/1/1 64/1/1 63/1/1
f 66/2/1 63/2/1 65/2/1
f 67/1/1 64/1/1 66/1/1
f 70/2/1 69/2/1 68/2/1
f 71/2/1 69/2/1 70/2/1
f 72/2/1 69/2/1 71/2/1
f 75/1/1 73/1/1 72/1/1
f 75/1/1 72/1/1 71/1/1
f 76/1/1 73/1/1 75/1/1
f 77/1/1 73/1/1 76/1/1
f 78/2/1 75/2/1 74/2/1
f 78/2/1 76/2/1 75/2/1
f 79/2/1 76/2/1 78/2/1
f 80/1/1 73/1/1 77/1/1
f 81/1/1 73/1/1 80/1/1
f 82/2/2 83/2/2 84/2/2
f 84/2/2 83/2/2 85/2/2
f 85/2/2 83/2/2 86/2/2
f 86/1/2 87/1/2 89/1/2
f 85/1/2 86/1/2 89/1/2
f 89/1/2 87/1/2 90/1/2
f 90/1/2 87/1/2 91/1/2
f 88/2/2 89/2/2 92/2/2
f 89/2/2 90/2/2 92/2/2
f 92/2/2 90/2/2 93/2/2
f 91/1/2 87/1/2 94/1/2
f 94/1/2 87/1/2 95/1/2
f 96/2/2 97/2/2 98/2/2
f 98/2/2 97/2/2 99/2/2
f 99/2/2 97/2/2 100/2/2
f 99/1/2 100/1/2 101/1/2
f 101/1/2 100/1/2 102/1/2
f 103/1/2 104/1/2 107/1/2
f 104/1/2 105/1/2 107/1/2
f 107/1/2 105/1/2 108/1/2
f 108/1/2 105/1/2 109/1/2
f 106/1/2 107/1/2 111/1/2
f 107/1/2 108/1/2 111/1/2
f 111/1/2 108/1/2 112/1/2
f 112/1/2 108/1/2 113/1/2
f 110/1/2 111/1/2 114/1/2
f 111/1/2 112/1/2 114/1/2
f 114/1/2 112/1/2 115/1/2
f 116/2/2 117/2/2 118/2/2
f 118/2/2 117/2/2 119/2/2
f 119/2/2 117/2/2 120/2/2
f 119/1/2 120/1/2 121/1/2
f 121/1/2 120/1/2 122/1/2
f 121/2/2 122/2/2 123/2/2
f 123/2/2 122/2/2 124/2/2
f 123/1/2 124/1/2 125/1/2
f 125/1/2 124/1/2 126/1/2
f 125/2/2 126/2/2 127/2/2
f 127/2/2 126/2/2 128/2/2
f 130/1/2 131/1/2 133/1/2
f 131/1/2 132/1/2 133/1/2
f 129/1/2 130/1/2 133/1/2
f 133/1/2 132/1/2 134/1/2
f 134/1/2 132/1/2 135/1/2
f 135/1/2 136/1/2 138/1/2
f 134/1/2 135/1/2 138/1/2
f 138/1/2 136/1/2 139/1/2
f 137/2/2 138/2/2 140/2/2
f 138/2/2 139/2/2 140/2/2
f 140/2/2 139/2/2 141/2/2
f 142/2/2 143/2/2 145/2/2
f 143/1/2 144/1/2 146/1/2
f 145/2/2 143/2/2 146/2/2
f 146/1/2 144/1/2 147/1/2
f 148/2/2 149/2/2 150/2/2
f 150/2/2 149/2/2 151/2/2
f 151/2/2 149/2/2 152/2/2
f 152/1/2 153/1/2 155/1/2
f 151/1/2 152/1/2 155/1/2
f 155/1/2 153/1/2 156/1/2
f 156/1/2 153/1/2 157/1/2
f 154/2/2 155/2/2 158/2/2
f 155/2/2 156/2/2 158/2/2
f 158/2/2 156/2/2 159/2/2
f 157/1/2 153/1/2 160/1/2
f 160/1/2 153/1/2 161/1/2
f 166/2/3 163/2/3 162/2/3
f 167/2/3 163/2/3 166/2/3
f 168/2/3 165/2/3 164/2/3
f 169/2/3 165/2/3 168/2/3
f 174/1/3 171/1/3 170/1/3
f 175/1/3 171/1/3 174/1/3
f 176/2/3 173/2/3 172/2/3
f 177/2/3 173/2/3 176/2/3
f 182/2/3 179/2/3 178/2/3
f 183/2/3 179/2/3 182/2/3
f 184/2/3 181/2/3 180/2/3
f 185/2/3 181/2/3 184/2/3
f 188/1/3 187/1/3 186/1/3
f 189/1/3 187/1/3 188/1/3
f 192/1/3 191/1/3 190/1/3
f 193/1/3 191/1/3 192/1/3
f 196/1/3 195/1/3 194/1/3
f 197/1/3 195/1/3 196/1/3
f 200/2/3 199/2/3 198/2/3
f 201/2/3 199/2/3 200/2/3
f 204/2/3 203/2/3 202/2/3
f 205/2/3 203/2/3 204/2/3
f 208/1/3 207/1/3 206/1/3
f 209/1/3 207/1/3 208/1/3
f 214/1/3 207/1/3 209/1/3
f 215/1/3 207/1/3 214/1/3
f 216/1/3 211/1/3 210/1/3
f 217/2/3 212/2/3 211/2/3
f 217/1/3 211/1/3 216/1/3
f 218/1/3 213/1/3 212/1/3
f 218/2/3 212/2/3 217/2/3
f 219/2/3 214/2/3 213/2/3
f 219/1/3 213/1/3 218/1/3
f 220/1/3 215/1/3 214/1/3
f 220/2/3 214/2/3 219/2/3
f 222/1/3 218/1/3 217/1/3
f 222/1/3 220/1/3 219/1/3
f 222/1/3 219/1/3 218/1/3
f 223/1/3 220/1/3 222/1/3
f 224/1/3 220/1/3 223/1/3
f 225/1/3 215/1/3 220/1/3
f 225/1/3 220/1/3 224/1/3
f 226/1/3 222/1/3 221/1/3
f 227/2/3 223/2/3 222/2/3
f 227/1/3 222/1/3 226/1/3
f 228/1/3 224/1/3 223/1/3
f 228/2/3 223/2/3 227/2/3
f 229/2/3 225/2/3 224/2/3
f 229/1/3 224/1/3 228/1/3
f 230/1/3 215/1/3 225/1/3
f 230/2/3 225/2/3 229/2/3
f 231/1/3 215/1/3 230/1/3
f 233/1/3 231/1/3 230/1/3
f 234/1/3 233/1/3 232/1/3
f 235/1/3 231/1/3 233/1/3
f 235/1/3 233/1/3 234/1/3
f 238/1/3 237/1/3 236/1/3
f 239/1/3 237/1/3 238/1/3
f 242/2/3 241/2/3 240/2/3
f 243/2/3 241/2/3 242/2/3
f 246/1/3 245/1/3 244/1/3
f 247/1/3 245/1/3 246/1/3
f 250/1/3 249/1/3 248/1/3
f 251/1/3 250/1/3 248/1/3
f 252/1/3 250/1/3 251/1/3
f 253/2/4 254/2/4 257/2/4
f 257/2/4 254/2/4 258/2/4
f 255/2/4 256/2/4 259/2/4
f 259/2/4 256/2/4 260/2/4
f 261/2/4 262/2/4 265/2/4
f 265/2/4 262/2/4 266/2/4
f 263/2/4 264/2/4 267/2/4
f 267/2/4 264/2/4 268/2/4
f 269/1/4 270/1/4 271/1/4
f 271/1/4 270/1/4 272/1/4
f 272/1/4 270/1/4 278/1/4
f 278/1/4 270/1/4 279/1/4
f 273/2/4 274/2/4 280/2/4
f 274/1/4 275/1/4 281/1/4
f 280/2/4 274/2/4 281/2/4
f 275/2/4 276/2/4 282/2/4
f 281/1/4 275/1/4 282/1/4
f 276/1/4 277/1/4 283/1/4
f 282/2/4 276/2/4 283/2/4
f 277/2/4 278/2/4 284/2/4
f 283/1/4 277/1/4 284/1/4
f 278/1/4 279/1/4 285/1/4
f 284/2/4 278/2/4 285/2/4
f 284/1/4 285/1/4 289/1/4
f 283/1/4 284/1/4 289/1/4
f 289/1/4 285/1/4 290/1/4
f 285/1/4 279/1/4 291/1/4
f 290/1/4 285/1/4 291/1/4
f 286/2/4 287/2/4 292/2/4
f 287/1/4 288/1/4 293/1/4
f 292/2/4 287/2/4 293/2/4
f 288/2/4 289/2/4 294/2/4
f 293/1/4 288/1/4 294/1/4
f 289/1/4 290/1/4 295/1/4
f 294/2/4 289/2/4 295/2/4
f 290/2/4 291/2/4 296/2/4
f 295/1/4 290/1/4 296/1/4
f 291/1/4 279/1/4 297/1/4
f 296/2/4 291/2/4 297/2/4
f 297/1/4 279/1/4 298/1/4
f 297/1/4 298/1/4 300/1/4
f 299/1/4 300/1/4 301/1/4
f 300/1/4 298/1/4 302/1/4
f 301/1/4 300/1/4 302/1/4
f 303/1/4 304/1/4 305/1/4
f 305/1/4 304/1/4 306/1/4
f 307/1/4 308/1/4 309/1/4
f 309/1/4 308/1/4 310/1/4
f 314/1/4 315/1/4 316/1/4
f 316/1/4 315/1/4 317/1/4
f 311/1/4 312/1/4 318/1/4
f 312/2/4 313/2/4 319/2/4
f 318/1/4 312/1/4 319/1/4
f 319/2/4 313/2/4 320/2/4
f 321/1/4 322/1/4 323/1/4
f 323/1/4 322/1/4 324/1/4
f 321/1/4 323/1/4 325/1/4
f 325/1/4 323/1/4 326/1/4
f 331/2/5 328/2/5 327/2/5
f 332/2/5 328/2/5 331/2/5
f 333/2/5 330/2/5 329/2/5
f 334/2/5 330/2/5 333/2/5
f 337/2/5 336/2/5 335/2/5
f 338/2/5 336/2/5 337/2/5
f 340/1/5 338/1/5 337/1/5
f 341/1/5 340/1/5 339/1/5
f 342/1/5 338/1/5 340/1/5
f 342/1/5 340/1/5 341/1/5
f 345/1/5 344/1/5 343/1/5
f 346/1/5 344/1/5 345/1/5
f 349/1/5 348/1/5 347/1/5
f 350/1/5 348/1/5 349/1/5
f 355/2/5 352/2/5 351/2/5
f 356/2/5 352/2/5 355/2/5
f 357/2/5 354/2/5 353/2/5
f 358/2/5 354/2/5 357/2/5
f 361/1/5 360/1/5 359/1/5
f 362/1/5 360/1/5 361/1/5
f 363/1/5 362/1/5 361/1/5
f 364/1/5 362/1/5 363/1/5
f 369/1/5 366/1/5 365/1/5
f 370/1/5 366/1/5 369/1/5
f 371/1/5 368/1/5 367/1/5
f 372/1/5 368/1/5 371/1/5
f 377/2/5 374/2/5 373/2/5
f 378/2/5 374/2/5 377/2/5
f 379/2/5 376/2/5 375/2/5
f 380/2/5 376/2/5 379/2/5
f 385/1/5 382/1/5 381/1/5
f 386/1/5 382/1/5 385/1/5
f 387/1/5 384/1/5 383/1/5
f 388/1/5 384/1/5 387/1/5
f 391/1/5 390/1/5 389/1/5
f 392/1/5 390/1/5 391/1/5
f 395/1/5 394/1/5 393/1/5
f 396/1/5 394/1/5 395/1/5
f 399/1/5 398/1/5 397/1/5
f 400/1/5 398/1/5 399/1/5
f 403/2/5 402/2/5 401/2/5
f 404/2/5 402/2/5 403/2/5
f 405/2/6 406/2/6 409/2/6
f 409/2/6 406/2/6 410/2/6
f 407/2/6 408/2/6 411/2/6
f 411/2/6 408/2/6 412/2/6
f 413/2/6 414/2/6 415/2/6
f 415/2/6 414/2/6 416/2/6
f 415/1/6 416/1/6 418/1/6
f 417/1/6 418/1/6 419/1/6
f 418/1/6 416/1/6 420/1/6
f 419/1/6 418/1/6 420/1/6
f 421/1/6 422/1/6 423/1/6
f 423/1/6 422/1/6 424/1/6
f 425/1/6 426/1/6 427/1/6
f 427/1/6 426/1/6 428/1/6
f 429/2/6 430/2/6 433/2/6
f 433/2/6 430/2/6 434/2/6
f 431/2/6 432/2/6 435/2/6
f 435/2/6 432/2/6 436/2/6
f 437/1/6 438/1/6 439/1/6
f 439/1/6 438/1/6 440/1/6
f 441/1/6 442/1/6 445/1/6
f 445/1/6 442/1/6 446/1/6
f 443/1/6 444/1/6 447/1/6
f 447/1/6 444/1/6 448/1/6
f 449/2/6 450/2/6 453/2/6
f 453/2/6 450/2/6 454/2/6
f 451/2/6 452/2/6 455/2/6
f 455/2/6 452/2/6 456/2/6
f 457/1/6 458/1/6 461/1/6
f 461/1/6 458/1/6 462/1/6
f 459/1/6 460/1/6 463/1/6
f 463/1/6 460/1/6 464/1/6
f 465/1/6 466/1/6 467/1/6
f 467/1/6 466/1/6 468/1/6
f 469/2/6 470/2/6 471/2/6
f 471/2/6 470/2/6 472/2/6
