# MagicaVoxel @ Ephtracy

# group
g desk-action-figure6

# material
mtllib desk-action-figure6.mtl
usemtl palette

# normals
vn -1 0 0
vn 1 0 0
vn 0 0 1
vn 0 0 -1
vn 0 -1 0
vn 0 1 0

# texcoords
vt 0.00585938 0.5
vt 0.751953 0.5
vt 0.841797 0.5
vt 0.958984 0.5
vt 0.970703 0.5
vt 0.990234 0.5

# verts
v -4 4 1
v -4 4 -0
v -4 4 -1
v -4 4 -2
v -4 5 1
v -4 5 -0
v -4 5 -1
v -4 7 -1
v -4 7 -2
v -2 0 -0
v -2 0 -2
v -2 1 -0
v -2 1 -1
v -2 2 -1
v -2 2 -2
v -2 3 -1
v -2 3 -2
v -2 4 -1
v -2 4 -2
v -2 6 -0
v -2 6 -1
v -2 6 -2
v -2 7 1
v -2 7 -0
v -2 7 -1
v -2 7 -2
v -2 7 -3
v -2 8 1
v -2 8 -0
v -2 8 -1
v -2 9 -0
v -2 9 -1
v -2 9 -2
v -2 9 -3
v -2 10 -0
v -2 10 -1
v -2 10 -2
v -2 10 -3
v -2 11 -1
v -2 11 -2
v -1 5 -0
v -1 5 -1
v -1 6 -0
v -1 6 -1
v -1 10 -0
v -1 10 -1
v -1 10 -2
v -1 10 -3
v -1 11 -0
v -1 11 -1
v -1 11 -2
v -1 11 -3
v -1 12 -1
v -1 12 -2
v 0 0 -0
v 0 0 -2
v 0 1 -0
v 0 1 -1
v 0 2 -1
v 0 2 -2
v 0 3 -1
v 0 3 -2
v 2 4 1
v 2 4 -0
v 2 4 -1
v 2 4 -2
v 2 5 1
v 2 5 -0
v 2 5 -1
v 2 6 -1
v 2 6 -2
v -3 4 1
v -3 4 -0
v -3 4 -1
v -3 4 -2
v -3 5 1
v -3 5 -0
v -3 5 -1
v -3 6 -1
v -3 6 -2
v -1 0 -0
v -1 0 -2
v -1 1 -0
v -1 1 -1
v -1 2 -1
v -1 2 -2
v -1 3 -1
v -1 3 -2
v 0 5 -0
v 0 5 -1
v 0 6 -0
v 0 6 -1
v 0 10 -0
v 0 10 -1
v 0 10 -2
v 0 10 -3
v 0 11 -0
v 0 11 -1
v 0 11 -2
v 0 11 -3
v 0 12 -1
v 0 12 -2
v 1 0 -0
v 1 0 -2
v 1 1 -0
v 1 1 -1
v 1 2 -1
v 1 2 -2
v 1 3 -1
v 1 3 -2
v 1 4 -1
v 1 4 -2
v 1 6 -0
v 1 6 -1
v 1 6 -2
v 1 7 1
v 1 7 -0
v 1 7 -1
v 1 7 -2
v 1 7 -3
v 1 8 1
v 1 8 -0
v 1 8 -1
v 1 9 -0
v 1 9 -1
v 1 9 -2
v 1 9 -3
v 1 10 -0
v 1 10 -1
v 1 10 -2
v 1 10 -3
v 1 11 -1
v 1 11 -2
v 3 4 1
v 3 4 -0
v 3 4 -1
v 3 4 -2
v 3 5 1
v 3 5 -0
v 3 5 -1
v 3 7 -1
v 3 7 -2
v -4 4 1
v -4 5 1
v -3 4 1
v -3 5 1
v -2 7 1
v -2 8 1
v 1 7 1
v 1 8 1
v 2 4 1
v 2 5 1
v 3 4 1
v 3 5 1
v -2 0 -0
v -2 1 -0
v -2 6 -0
v -2 7 -0
v -2 8 -0
v -2 9 -0
v -2 10 -0
v -1 0 -0
v -1 1 -0
v -1 5 -0
v -1 6 -0
v -1 8 -0
v -1 9 -0
v -1 10 -0
v -1 11 -0
v 0 0 -0
v 0 1 -0
v 0 5 -0
v 0 6 -0
v 0 8 -0
v 0 9 -0
v 0 10 -0
v 0 11 -0
v 1 0 -0
v 1 1 -0
v 1 6 -0
v 1 7 -0
v 1 8 -0
v 1 9 -0
v 1 10 -0
v -4 5 -1
v -4 7 -1
v -3 5 -1
v -3 6 -1
v -2 1 -1
v -2 2 -1
v -2 3 -1
v -2 4 -1
v -2 6 -1
v -2 7 -1
v -2 10 -1
v -2 11 -1
v -1 1 -1
v -1 2 -1
v -1 3 -1
v -1 5 -1
v -1 6 -1
v -1 10 -1
v -1 11 -1
v -1 12 -1
v 0 1 -1
v 0 2 -1
v 0 3 -1
v 0 5 -1
v 0 6 -1
v 0 10 -1
v 0 11 -1
v 0 12 -1
v 1 1 -1
v 1 2 -1
v 1 3 -1
v 1 4 -1
v 1 6 -1
v 1 7 -1
v 1 10 -1
v 1 11 -1
v 2 5 -1
v 2 6 -1
v 3 5 -1
v 3 7 -1
v -4 4 -2
v -4 7 -2
v -3 4 -2
v -3 6 -2
v -2 0 -2
v -2 2 -2
v -2 3 -2
v -2 4 -2
v -2 6 -2
v -2 7 -2
v -2 10 -2
v -2 11 -2
v -1 0 -2
v -1 2 -2
v -1 3 -2
v -1 6 -2
v -1 7 -2
v -1 10 -2
v -1 11 -2
v -1 12 -2
v 0 0 -2
v 0 2 -2
v 0 3 -2
v 0 6 -2
v 0 7 -2
v 0 10 -2
v 0 11 -2
v 0 12 -2
v 1 0 -2
v 1 2 -2
v 1 3 -2
v 1 4 -2
v 1 6 -2
v 1 7 -2
v 1 10 -2
v 1 11 -2
v 2 4 -2
v 2 6 -2
v 3 4 -2
v 3 7 -2
v -2 7 -3
v -2 9 -3
v -2 10 -3
v -1 10 -3
v -1 11 -3
v 0 10 -3
v 0 11 -3
v 1 7 -3
v 1 9 -3
v 1 10 -3
v -2 0 -0
v -1 0 -0
v 0 0 -0
v 1 0 -0
v -2 0 -2
v -1 0 -2
v 0 0 -2
v 1 0 -2
v -1 3 -1
v 0 3 -1
v -1 3 -2
v 0 3 -2
v -4 4 1
v -3 4 1
v 2 4 1
v 3 4 1
v -4 4 -0
v -3 4 -0
v 2 4 -0
v 3 4 -0
v -4 4 -1
v -3 4 -1
v 2 4 -1
v 3 4 -1
v -4 4 -2
v -3 4 -2
v 2 4 -2
v 3 4 -2
v -1 5 -0
v 0 5 -0
v -1 5 -1
v 0 5 -1
v -2 6 -0
v -1 6 -0
v 0 6 -0
v 1 6 -0
v -3 6 -1
v -2 6 -1
v -1 6 -1
v 0 6 -1
v 1 6 -1
v 2 6 -1
v -3 6 -2
v -2 6 -2
v 1 6 -2
v 2 6 -2
v -2 7 1
v 1 7 1
v -2 7 -0
v 1 7 -0
v -2 7 -2
v -1 7 -2
v 0 7 -2
v 1 7 -2
v -2 7 -3
v 1 7 -3
v -2 1 -0
v -1 1 -0
v 0 1 -0
v 1 1 -0
v -2 1 -1
v -1 1 -1
v 0 1 -1
v 1 1 -1
v -4 5 1
v -3 5 1
v 2 5 1
v 3 5 1
v -4 5 -0
v -3 5 -0
v 2 5 -0
v 3 5 -0
v -4 5 -1
v -3 5 -1
v 2 5 -1
v 3 5 -1
v -4 7 -1
v -2 7 -1
v 1 7 -1
v 3 7 -1
v -4 7 -2
v -2 7 -2
v 1 7 -2
v 3 7 -2
v -2 8 1
v 1 8 1
v -2 8 -0
v -1 8 -0
v 0 8 -0
v 1 8 -0
v -2 10 -0
v -1 10 -0
v 0 10 -0
v 1 10 -0
v -2 10 -1
v -1 10 -1
v 0 10 -1
v 1 10 -1
v -2 10 -2
v -1 10 -2
v 0 10 -2
v 1 10 -2
v -2 10 -3
v -1 10 -3
v 0 10 -3
v 1 10 -3
v -1 11 -0
v 0 11 -0
v -2 11 -1
v -1 11 -1
v 0 11 -1
v 1 11 -1
v -2 11 -2
v -1 11 -2
v 0 11 -2
v 1 11 -2
v -1 11 -3
v 0 11 -3
v -1 12 -1
v 0 12 -1
v -1 12 -2
v 0 12 -2

# faces
f 5/1/1 2/1/1 1/1/1
f 6/4/1 3/4/1 2/4/1
f 6/1/1 2/1/1 5/1/1
f 7/3/1 4/3/1 3/3/1
f 7/4/1 3/4/1 6/4/1
f 8/3/1 4/3/1 7/3/1
f 9/3/1 4/3/1 8/3/1
f 12/6/1 11/6/1 10/6/1
f 13/6/1 11/6/1 12/6/1
f 14/6/1 11/6/1 13/6/1
f 15/6/1 11/6/1 14/6/1
f 16/3/1 15/3/1 14/3/1
f 17/3/1 15/3/1 16/3/1
f 18/4/1 17/4/1 16/4/1
f 19/4/1 17/4/1 18/4/1
f 21/3/1 19/3/1 18/3/1
f 22/3/1 19/3/1 21/3/1
f 24/5/1 21/5/1 20/5/1
f 25/5/1 21/5/1 24/5/1
f 28/5/1 24/5/1 23/5/1
f 29/1/1 26/1/1 25/1/1
f 29/5/1 24/5/1 28/5/1
f 29/1/1 25/1/1 24/1/1
f 30/1/1 26/1/1 29/1/1
f 31/2/1 30/2/1 29/2/1
f 32/1/1 26/1/1 30/1/1
f 32/2/1 30/2/1 31/2/1
f 33/5/1 27/5/1 26/5/1
f 33/1/1 26/1/1 32/1/1
f 34/5/1 27/5/1 33/5/1
f 35/4/1 32/4/1 31/4/1
f 35/4/1 33/4/1 32/4/1
f 35/4/1 34/4/1 33/4/1
f 36/4/1 34/4/1 35/4/1
f 37/4/1 34/4/1 36/4/1
f 38/4/1 34/4/1 37/4/1
f 39/3/1 37/3/1 36/3/1
f 40/3/1 37/3/1 39/3/1
f 43/5/1 42/5/1 41/5/1
f 44/5/1 42/5/1 43/5/1
f 49/3/1 46/3/1 45/3/1
f 50/3/1 46/3/1 49/3/1
f 51/3/1 48/3/1 47/3/1
f 52/3/1 48/3/1 51/3/1
f 53/4/1 51/4/1 50/4/1
f 54/4/1 51/4/1 53/4/1
f 57/6/1 56/6/1 55/6/1
f 58/6/1 56/6/1 57/6/1
f 59/6/1 56/6/1 58/6/1
f 60/6/1 56/6/1 59/6/1
f 61/3/1 60/3/1 59/3/1
f 62/3/1 60/3/1 61/3/1
f 67/1/1 64/1/1 63/1/1
f 68/4/1 65/4/1 64/4/1
f 68/1/1 64/1/1 67/1/1
f 69/3/1 66/3/1 65/3/1
f 69/4/1 65/4/1 68/4/1
f 70/3/1 66/3/1 69/3/1
f 71/3/1 66/3/1 70/3/1
f 72/1/2 73/1/2 76/1/2
f 73/4/2 74/4/2 77/4/2
f 76/1/2 73/1/2 77/1/2
f 74/3/2 75/3/2 78/3/2
f 77/4/2 74/4/2 78/4/2
f 78/3/2 75/3/2 79/3/2
f 79/3/2 75/3/2 80/3/2
f 81/6/2 82/6/2 83/6/2
f 83/6/2 82/6/2 84/6/2
f 84/6/2 82/6/2 85/6/2
f 85/6/2 82/6/2 86/6/2
f 85/3/2 86/3/2 87/3/2
f 87/3/2 86/3/2 88/3/2
f 89/5/2 90/5/2 91/5/2
f 91/5/2 90/5/2 92/5/2
f 93/3/2 94/3/2 97/3/2
f 97/3/2 94/3/2 98/3/2
f 95/3/2 96/3/2 99/3/2
f 99/3/2 96/3/2 100/3/2
f 98/4/2 99/4/2 101/4/2
f 101/4/2 99/4/2 102/4/2
f 103/6/2 104/6/2 105/6/2
f 105/6/2 104/6/2 106/6/2
f 106/6/2 104/6/2 107/6/2
f 107/6/2 104/6/2 108/6/2
f 107/3/2 108/3/2 109/3/2
f 109/3/2 108/3/2 110/3/2
f 109/4/2 110/4/2 111/4/2
f 111/4/2 110/4/2 112/4/2
f 111/3/2 112/3/2 114/3/2
f 114/3/2 112/3/2 115/3/2
f 113/5/2 114/5/2 117/5/2
f 117/5/2 114/5/2 118/5/2
f 116/5/2 117/5/2 121/5/2
f 118/1/2 119/1/2 122/1/2
f 121/5/2 117/5/2 122/5/2
f 117/1/2 118/1/2 122/1/2
f 122/1/2 119/1/2 123/1/2
f 122/2/2 123/2/2 124/2/2
f 123/1/2 119/1/2 125/1/2
f 124/2/2 123/2/2 125/2/2
f 119/5/2 120/5/2 126/5/2
f 125/1/2 119/1/2 126/1/2
f 126/5/2 120/5/2 127/5/2
f 124/4/2 125/4/2 128/4/2
f 125/4/2 126/4/2 128/4/2
f 126/4/2 127/4/2 128/4/2
f 128/4/2 127/4/2 129/4/2
f 129/4/2 127/4/2 130/4/2
f 130/4/2 127/4/2 131/4/2
f 129/3/2 130/3/2 132/3/2
f 132/3/2 130/3/2 133/3/2
f 134/1/2 135/1/2 138/1/2
f 135/4/2 136/4/2 139/4/2
f 138/1/2 135/1/2 139/1/2
f 136/3/2 137/3/2 140/3/2
f 139/4/2 136/4/2 140/4/2
f 140/3/2 137/3/2 141/3/2
f 141/3/2 137/3/2 142/3/2
f 145/1/3 144/1/3 143/1/3
f 146/1/3 144/1/3 145/1/3
f 149/5/3 148/5/3 147/5/3
f 150/5/3 148/5/3 149/5/3
f 153/1/3 152/1/3 151/1/3
f 154/1/3 152/1/3 153/1/3
f 162/6/3 156/6/3 155/6/3
f 163/6/3 156/6/3 162/6/3
f 165/5/3 158/5/3 157/5/3
f 166/2/3 160/2/3 159/2/3
f 167/4/3 161/4/3 160/4/3
f 167/2/3 160/2/3 166/2/3
f 168/4/3 161/4/3 167/4/3
f 172/5/3 165/5/3 164/5/3
f 173/5/3 158/5/3 165/5/3
f 173/5/3 165/5/3 172/5/3
f 174/1/3 167/1/3 166/1/3
f 175/4/3 168/4/3 167/4/3
f 175/1/3 167/1/3 174/1/3
f 176/3/3 169/3/3 168/3/3
f 176/4/3 168/4/3 175/4/3
f 177/3/3 169/3/3 176/3/3
f 178/6/3 171/6/3 170/6/3
f 179/6/3 171/6/3 178/6/3
f 180/5/3 158/5/3 173/5/3
f 181/5/3 158/5/3 180/5/3
f 182/2/3 175/2/3 174/2/3
f 183/4/3 176/4/3 175/4/3
f 183/2/3 175/2/3 182/2/3
f 184/4/3 176/4/3 183/4/3
f 187/3/3 186/3/3 185/3/3
f 188/3/3 186/3/3 187/3/3
f 193/3/3 186/3/3 188/3/3
f 194/3/3 186/3/3 193/3/3
f 197/6/3 190/6/3 189/6/3
f 198/3/3 191/3/3 190/3/3
f 198/6/3 190/6/3 197/6/3
f 199/4/3 192/4/3 191/4/3
f 199/3/3 191/3/3 198/3/3
f 200/3/3 193/3/3 192/3/3
f 201/3/3 193/3/3 200/3/3
f 202/3/3 196/3/3 195/3/3
f 203/3/3 196/3/3 202/3/3
f 207/4/3 192/4/3 199/4/3
f 208/3/3 200/3/3 192/3/3
f 211/4/3 204/4/3 203/4/3
f 212/4/3 204/4/3 211/4/3
f 213/6/3 206/6/3 205/6/3
f 214/3/3 207/3/3 206/3/3
f 214/6/3 206/6/3 213/6/3
f 215/4/3 192/4/3 207/4/3
f 215/3/3 207/3/3 214/3/3
f 216/3/3 209/3/3 208/3/3
f 216/4/3 192/4/3 215/4/3
f 216/3/3 208/3/3 192/3/3
f 217/3/3 209/3/3 216/3/3
f 219/3/3 211/3/3 210/3/3
f 220/3/3 211/3/3 219/3/3
f 222/3/3 218/3/3 217/3/3
f 223/3/3 222/3/3 221/3/3
f 224/3/3 218/3/3 222/3/3
f 224/3/3 222/3/3 223/3/3
f 225/3/4 226/3/4 227/3/4
f 227/3/4 226/3/4 228/3/4
f 228/3/4 226/3/4 233/3/4
f 233/3/4 226/3/4 234/3/4
f 229/6/4 230/6/4 237/6/4
f 230/3/4 231/3/4 238/3/4
f 237/6/4 230/6/4 238/6/4
f 231/4/4 232/4/4 239/4/4
f 238/3/4 231/3/4 239/3/4
f 232/3/4 233/3/4 240/3/4
f 233/3/4 234/3/4 240/3/4
f 240/3/4 234/3/4 241/3/4
f 235/3/4 236/3/4 242/3/4
f 242/3/4 236/3/4 243/3/4
f 239/4/4 232/4/4 247/4/4
f 240/4/4 241/4/4 248/4/4
f 232/3/4 240/3/4 248/3/4
f 248/4/4 241/4/4 249/4/4
f 243/4/4 244/4/4 251/4/4
f 251/4/4 244/4/4 252/4/4
f 245/6/4 246/6/4 253/6/4
f 246/3/4 247/3/4 254/3/4
f 253/6/4 246/6/4 254/6/4
f 247/4/4 232/4/4 255/4/4
f 254/3/4 247/3/4 255/3/4
f 248/3/4 249/3/4 256/3/4
f 255/4/4 232/4/4 256/4/4
f 232/3/4 248/3/4 256/3/4
f 256/3/4 249/3/4 257/3/4
f 257/3/4 249/3/4 258/3/4
f 250/3/4 251/3/4 259/3/4
f 259/3/4 251/3/4 260/3/4
f 257/3/4 258/3/4 262/3/4
f 261/3/4 262/3/4 263/3/4
f 262/3/4 258/3/4 264/3/4
f 263/3/4 262/3/4 264/3/4
f 266/4/4 267/4/4 268/4/4
f 266/4/4 268/4/4 270/4/4
f 268/3/4 269/3/4 270/3/4
f 270/3/4 269/3/4 271/3/4
f 265/5/4 266/5/4 272/5/4
f 266/4/4 270/4/4 273/4/4
f 272/5/4 266/5/4 273/5/4
f 273/4/4 270/4/4 274/4/4
f 279/6/5 276/6/5 275/6/5
f 280/6/5 276/6/5 279/6/5
f 281/6/5 278/6/5 277/6/5
f 282/6/5 278/6/5 281/6/5
f 285/4/5 284/4/5 283/4/5
f 286/4/5 284/4/5 285/4/5
f 291/1/5 288/1/5 287/1/5
f 292/1/5 288/1/5 291/1/5
f 293/1/5 290/1/5 289/1/5
f 294/1/5 290/1/5 293/1/5
f 295/4/5 292/4/5 291/4/5
f 296/4/5 292/4/5 295/4/5
f 297/4/5 294/4/5 293/4/5
f 298/4/5 294/4/5 297/4/5
f 299/3/5 296/3/5 295/3/5
f 300/3/5 296/3/5 299/3/5
f 301/3/5 298/3/5 297/3/5
f 302/3/5 298/3/5 301/3/5
f 305/5/5 304/5/5 303/5/5
f 306/5/5 304/5/5 305/5/5
f 312/5/5 308/5/5 307/5/5
f 313/5/5 308/5/5 312/5/5
f 314/5/5 310/5/5 309/5/5
f 315/5/5 310/5/5 314/5/5
f 317/3/5 312/3/5 311/3/5
f 318/3/5 312/3/5 317/3/5
f 319/3/5 316/3/5 315/3/5
f 320/3/5 316/3/5 319/3/5
f 323/5/5 322/5/5 321/5/5
f 324/5/5 322/5/5 323/5/5
f 329/5/5 326/5/5 325/5/5
f 329/5/5 328/5/5 327/5/5
f 329/5/5 327/5/5 326/5/5
f 330/5/5 328/5/5 329/5/5
f 331/6/6 332/6/6 335/6/6
f 335/6/6 332/6/6 336/6/6
f 333/6/6 334/6/6 337/6/6
f 337/6/6 334/6/6 338/6/6
f 339/1/6 340/1/6 343/1/6
f 343/1/6 340/1/6 344/1/6
f 341/1/6 342/1/6 345/1/6
f 345/1/6 342/1/6 346/1/6
f 343/4/6 344/4/6 347/4/6
f 347/4/6 344/4/6 348/4/6
f 345/4/6 346/4/6 349/4/6
f 349/4/6 346/4/6 350/4/6
f 351/3/6 352/3/6 355/3/6
f 355/3/6 352/3/6 356/3/6
f 353/3/6 354/3/6 357/3/6
f 357/3/6 354/3/6 358/3/6
f 359/5/6 360/5/6 361/5/6
f 361/5/6 360/5/6 362/5/6
f 362/5/6 360/5/6 363/5/6
f 363/5/6 360/5/6 364/5/6
f 365/4/6 366/4/6 369/4/6
f 369/4/6 366/4/6 370/4/6
f 367/4/6 368/4/6 371/4/6
f 371/4/6 368/4/6 372/4/6
f 373/4/6 374/4/6 377/4/6
f 377/4/6 374/4/6 378/4/6
f 375/4/6 376/4/6 379/4/6
f 379/4/6 376/4/6 380/4/6
f 381/3/6 382/3/6 384/3/6
f 384/3/6 382/3/6 385/3/6
f 383/3/6 384/3/6 387/3/6
f 387/3/6 384/3/6 388/3/6
f 385/3/6 386/3/6 389/3/6
f 389/3/6 386/3/6 390/3/6
f 388/3/6 389/3/6 391/3/6
f 391/3/6 389/3/6 392/3/6
f 393/4/6 394/4/6 395/4/6
f 395/4/6 394/4/6 396/4/6
