# MagicaVoxel @ Ephtracy

# group
g calendar

# material
mtllib calendar.mtl
usemtl palette

# normals
vn -1 0 0
vn 1 0 0
vn 0 0 1
vn 0 0 -1
vn 0 -1 0
vn 0 1 0

# texcoords
vt 0.00195313 0.5
vt 0.0644531 0.5
vt 0.306641 0.5
vt 0.537109 0.5
vt 0.919922 0.5
vt 0.958984 0.5
vt 0.994141 0.5

# verts
v -10 0 3
v -10 0 2
v -10 17 3
v -10 17 2
v -9 1 5
v -9 1 3
v -9 16 5
v -9 16 3
v -8 2 -3
v -8 2 -5
v -8 3 -2
v -8 3 -3
v -8 3 -4
v -8 3 -5
v -8 4 -1
v -8 4 -2
v -8 4 -3
v -8 4 -4
v -8 5 -0
v -8 5 -1
v -8 5 -2
v -8 5 -3
v -8 6 1
v -8 6 -0
v -8 6 -1
v -8 6 -2
v -8 7 2
v -8 7 1
v -8 7 -0
v -8 7 -1
v -8 8 1
v -8 8 -0
v -8 9 2
v -8 9 1
v 6 2 -3
v 6 2 -5
v 6 3 -2
v 6 3 -3
v 6 3 -4
v 6 3 -5
v 6 4 -1
v 6 4 -2
v 6 4 -3
v 6 4 -4
v 6 5 -0
v 6 5 -1
v 6 5 -2
v 6 5 -3
v 6 6 1
v 6 6 -0
v 6 6 -1
v 6 6 -2
v 6 7 2
v 6 7 1
v 6 7 -0
v 6 7 -1
v 6 8 1
v 6 8 -0
v 6 9 2
v 6 9 1
v 9 1 5
v 9 1 3
v 9 16 5
v 9 16 3
v 10 0 3
v 10 0 2
v 10 17 3
v 10 17 2
v -9 1 5
v -9 16 5
v -8 4 5
v -8 8 5
v -8 9 5
v -8 15 5
v -7 5 5
v -7 7 5
v -7 10 5
v -7 14 5
v -6 5 5
v -6 7 5
v -6 10 5
v -6 13 5
v -5 4 5
v -5 8 5
v -5 12 5
v -5 13 5
v -5 14 5
v -4 4 5
v -4 7 5
v -4 10 5
v -4 12 5
v -3 5 5
v -3 6 5
v -3 10 5
v -3 13 5
v -3 14 5
v -2 4 5
v -2 5 5
v -2 6 5
v -2 7 5
v -2 10 5
v -2 13 5
v -2 14 5
v -1 4 5
v -1 8 5
v -1 10 5
v -1 12 5
v 0 4 5
v 0 6 5
v 0 7 5
v 0 8 5
v 0 12 5
v 0 13 5
v 0 14 5
v 1 6 5
v 1 7 5
v 1 10 5
v 1 13 5
v 2 10 5
v 2 14 5
v 3 4 5
v 3 8 5
v 3 10 5
v 3 14 5
v 4 4 5
v 4 8 5
v 4 10 5
v 4 13 5
v 5 5 5
v 5 8 5
v 5 12 5
v 5 13 5
v 5 14 5
v 6 6 5
v 6 8 5
v 6 10 5
v 6 12 5
v 6 13 5
v 6 14 5
v 7 4 5
v 7 5 5
v 7 6 5
v 7 8 5
v 7 10 5
v 7 14 5
v 8 4 5
v 8 8 5
v 8 9 5
v 8 15 5
v 9 1 5
v 9 16 5
v -10 0 3
v -10 17 3
v -9 1 3
v -9 16 3
v -8 16 3
v 8 16 3
v 9 1 3
v 9 16 3
v 10 0 3
v 10 17 3
v -8 6 1
v -8 7 1
v 6 6 1
v 6 7 1
v -8 5 -0
v -8 6 -0
v 6 5 -0
v 6 6 -0
v -8 4 -1
v -8 5 -1
v 6 4 -1
v 6 5 -1
v -8 3 -2
v -8 4 -2
v 6 3 -2
v 6 4 -2
v -8 2 -3
v -8 3 -3
v 6 2 -3
v 6 3 -3
v -10 0 2
v -10 17 2
v -8 7 2
v -8 9 2
v 6 7 2
v 6 9 2
v 10 0 2
v 10 17 2
v -8 8 1
v -8 9 1
v 6 8 1
v 6 9 1
v -8 7 -0
v -8 8 -0
v 6 7 -0
v 6 8 -0
v -8 6 -1
v -8 7 -1
v 6 6 -1
v 6 7 -1
v -8 5 -2
v -8 6 -2
v 6 5 -2
v 6 6 -2
v -8 4 -3
v -8 5 -3
v 6 4 -3
v 6 5 -3
v -8 3 -4
v -8 4 -4
v 6 3 -4
v 6 4 -4
v -8 2 -5
v -8 3 -5
v 6 2 -5
v 6 3 -5
v -10 0 3
v 10 0 3
v -10 0 2
v 10 0 2
v -9 1 5
v 9 1 5
v -9 1 3
v 9 1 3
v -8 2 -3
v 6 2 -3
v -8 2 -5
v 6 2 -5
v -8 3 -2
v 6 3 -2
v -8 3 -3
v 6 3 -3
v -8 4 -1
v 6 4 -1
v -8 4 -2
v 6 4 -2
v -8 5 -0
v 6 5 -0
v -8 5 -1
v 6 5 -1
v -8 6 1
v 6 6 1
v -8 6 -0
v 6 6 -0
v -8 7 2
v 6 7 2
v -8 7 1
v 6 7 1
v -8 3 -4
v 6 3 -4
v -8 3 -5
v 6 3 -5
v -8 4 -3
v 6 4 -3
v -8 4 -4
v 6 4 -4
v -8 5 -2
v 6 5 -2
v -8 5 -3
v 6 5 -3
v -8 6 -1
v 6 6 -1
v -8 6 -2
v 6 6 -2
v -8 7 -0
v 6 7 -0
v -8 7 -1
v 6 7 -1
v -8 8 1
v 6 8 1
v -8 8 -0
v 6 8 -0
v -8 9 2
v 6 9 2
v -8 9 1
v 6 9 1
v -9 16 5
v 9 16 5
v -8 16 4
v 8 16 4
v -9 16 3
v -8 16 3
v 8 16 3
v 9 16 3
v -10 17 3
v 10 17 3
v -10 17 2
v 10 17 2

# faces
f 3/5/1 2/5/1 1/5/1
f 4/5/1 2/5/1 3/5/1
f 7/1/1 6/1/1 5/1/1
f 8/1/1 6/1/1 7/1/1
f 12/7/1 10/7/1 9/7/1
f 13/7/1 10/7/1 12/7/1
f 14/7/1 10/7/1 13/7/1
f 16/7/1 12/7/1 11/7/1
f 16/7/1 13/7/1 12/7/1
f 17/7/1 13/7/1 16/7/1
f 18/7/1 13/7/1 17/7/1
f 20/7/1 16/7/1 15/7/1
f 20/7/1 17/7/1 16/7/1
f 21/7/1 17/7/1 20/7/1
f 22/7/1 17/7/1 21/7/1
f 24/7/1 20/7/1 19/7/1
f 24/7/1 21/7/1 20/7/1
f 25/7/1 21/7/1 24/7/1
f 26/7/1 21/7/1 25/7/1
f 28/7/1 24/7/1 23/7/1
f 28/7/1 25/7/1 24/7/1
f 29/7/1 25/7/1 28/7/1
f 30/7/1 25/7/1 29/7/1
f 31/7/1 28/7/1 27/7/1
f 31/7/1 29/7/1 28/7/1
f 32/7/1 29/7/1 31/7/1
f 33/7/1 31/7/1 27/7/1
f 34/7/1 31/7/1 33/7/1
f 35/7/2 36/7/2 38/7/2
f 38/7/2 36/7/2 39/7/2
f 39/7/2 36/7/2 40/7/2
f 37/7/2 38/7/2 42/7/2
f 38/7/2 39/7/2 42/7/2
f 42/7/2 39/7/2 43/7/2
f 43/7/2 39/7/2 44/7/2
f 41/7/2 42/7/2 46/7/2
f 42/7/2 43/7/2 46/7/2
f 46/7/2 43/7/2 47/7/2
f 47/7/2 43/7/2 48/7/2
f 45/7/2 46/7/2 50/7/2
f 46/7/2 47/7/2 50/7/2
f 50/7/2 47/7/2 51/7/2
f 51/7/2 47/7/2 52/7/2
f 49/7/2 50/7/2 54/7/2
f 50/7/2 51/7/2 54/7/2
f 54/7/2 51/7/2 55/7/2
f 55/7/2 51/7/2 56/7/2
f 53/7/2 54/7/2 57/7/2
f 54/7/2 55/7/2 57/7/2
f 57/7/2 55/7/2 58/7/2
f 53/7/2 57/7/2 59/7/2
f 59/7/2 57/7/2 60/7/2
f 61/1/2 62/1/2 63/1/2
f 63/1/2 62/1/2 64/1/2
f 65/5/2 66/5/2 67/5/2
f 67/5/2 66/5/2 68/5/2
f 71/1/3 70/1/3 69/1/3
f 72/1/3 70/1/3 71/1/3
f 73/1/3 70/1/3 72/1/3
f 74/1/3 70/1/3 73/1/3
f 75/7/3 72/7/3 71/7/3
f 76/7/3 72/7/3 75/7/3
f 77/7/3 74/7/3 73/7/3
f 78/7/3 74/7/3 77/7/3
f 79/7/3 75/7/3 71/7/3
f 79/1/3 76/1/3 75/1/3
f 80/7/3 72/7/3 76/7/3
f 80/1/3 76/1/3 79/1/3
f 81/3/3 78/3/3 77/3/3
f 81/7/3 77/7/3 73/7/3
f 82/3/3 78/3/3 81/3/3
f 83/1/3 71/1/3 69/1/3
f 83/7/3 79/7/3 71/7/3
f 83/7/3 80/7/3 79/7/3
f 84/1/3 73/1/3 72/1/3
f 84/7/3 80/7/3 83/7/3
f 84/7/3 72/7/3 80/7/3
f 85/2/3 82/2/3 81/2/3
f 86/3/3 78/3/3 82/3/3
f 86/2/3 82/2/3 85/2/3
f 87/7/3 74/7/3 78/7/3
f 87/3/3 78/3/3 86/3/3
f 88/1/3 83/1/3 69/1/3
f 88/1/3 84/1/3 83/1/3
f 89/1/3 84/1/3 88/1/3
f 90/2/3 85/2/3 81/2/3
f 90/7/3 81/7/3 73/7/3
f 91/3/3 86/3/3 85/3/3
f 91/2/3 85/2/3 90/2/3
f 92/7/3 89/7/3 88/7/3
f 93/7/3 89/7/3 92/7/3
f 94/7/3 90/7/3 73/7/3
f 94/3/3 91/3/3 90/3/3
f 95/3/3 86/3/3 91/3/3
f 95/3/3 91/3/3 94/3/3
f 95/6/3 87/6/3 86/6/3
f 96/7/3 74/7/3 87/7/3
f 96/6/3 87/6/3 95/6/3
f 97/7/3 92/7/3 88/7/3
f 97/1/3 88/1/3 69/1/3
f 98/1/3 93/1/3 92/1/3
f 98/7/3 92/7/3 97/7/3
f 99/7/3 89/7/3 93/7/3
f 99/1/3 93/1/3 98/1/3
f 100/1/3 84/1/3 89/1/3
f 100/7/3 89/7/3 99/7/3
f 101/7/3 95/7/3 94/7/3
f 101/7/3 94/7/3 73/7/3
f 101/7/3 96/7/3 95/7/3
f 102/7/3 96/7/3 101/7/3
f 103/7/3 74/7/3 96/7/3
f 103/7/3 96/7/3 102/7/3
f 104/1/3 99/1/3 98/1/3
f 104/1/3 98/1/3 97/1/3
f 104/1/3 100/1/3 99/1/3
f 104/1/3 97/1/3 69/1/3
f 105/1/3 84/1/3 100/1/3
f 105/1/3 100/1/3 104/1/3
f 105/1/3 73/1/3 84/1/3
f 106/3/3 102/3/3 101/3/3
f 106/7/3 101/7/3 73/7/3
f 107/3/3 102/3/3 106/3/3
f 108/1/3 104/1/3 69/1/3
f 108/7/3 105/7/3 104/7/3
f 109/7/3 105/7/3 108/7/3
f 110/7/3 105/7/3 109/7/3
f 111/1/3 73/1/3 105/1/3
f 111/7/3 105/7/3 110/7/3
f 112/3/3 102/3/3 107/3/3
f 112/4/3 107/4/3 106/4/3
f 113/6/3 103/6/3 102/6/3
f 113/3/3 102/3/3 112/3/3
f 114/7/3 74/7/3 103/7/3
f 114/6/3 103/6/3 113/6/3
f 115/7/3 110/7/3 109/7/3
f 115/1/3 109/1/3 108/1/3
f 116/1/3 111/1/3 110/1/3
f 116/7/3 110/7/3 115/7/3
f 117/4/3 113/4/3 112/4/3
f 117/4/3 112/4/3 106/4/3
f 117/7/3 106/7/3 73/7/3
f 118/3/3 114/3/3 113/3/3
f 118/4/3 113/4/3 117/4/3
f 119/7/3 117/7/3 73/7/3
f 119/3/3 118/3/3 117/3/3
f 120/7/3 74/7/3 114/7/3
f 120/3/3 118/3/3 119/3/3
f 120/3/3 114/3/3 118/3/3
f 121/1/3 116/1/3 115/1/3
f 121/1/3 115/1/3 108/1/3
f 121/1/3 108/1/3 69/1/3
f 122/1/3 111/1/3 116/1/3
f 122/1/3 116/1/3 121/1/3
f 122/1/3 73/1/3 111/1/3
f 123/7/3 120/7/3 119/7/3
f 123/7/3 119/7/3 73/7/3
f 124/7/3 74/7/3 120/7/3
f 124/7/3 120/7/3 123/7/3
f 125/1/3 121/1/3 69/1/3
f 125/7/3 122/7/3 121/7/3
f 126/1/3 73/1/3 122/1/3
f 126/7/3 122/7/3 125/7/3
f 127/3/3 124/3/3 123/3/3
f 127/7/3 123/7/3 73/7/3
f 128/3/3 124/3/3 127/3/3
f 129/1/3 126/1/3 125/1/3
f 130/1/3 73/1/3 126/1/3
f 130/1/3 126/1/3 129/1/3
f 131/2/3 128/2/3 127/2/3
f 132/3/3 124/3/3 128/3/3
f 132/2/3 128/2/3 131/2/3
f 133/7/3 74/7/3 124/7/3
f 133/3/3 124/3/3 132/3/3
f 134/7/3 130/7/3 129/7/3
f 135/1/3 73/1/3 130/1/3
f 135/7/3 130/7/3 134/7/3
f 136/2/3 131/2/3 127/2/3
f 136/7/3 127/7/3 73/7/3
f 137/3/3 132/3/3 131/3/3
f 137/2/3 131/2/3 136/2/3
f 138/6/3 133/6/3 132/6/3
f 138/3/3 132/3/3 137/3/3
f 139/7/3 74/7/3 133/7/3
f 139/6/3 133/6/3 138/6/3
f 140/1/3 125/1/3 69/1/3
f 140/1/3 129/1/3 125/1/3
f 141/7/3 134/7/3 129/7/3
f 141/1/3 129/1/3 140/1/3
f 142/1/3 135/1/3 134/1/3
f 142/7/3 134/7/3 141/7/3
f 143/1/3 73/1/3 135/1/3
f 143/1/3 135/1/3 142/1/3
f 144/7/3 136/7/3 73/7/3
f 144/3/3 139/3/3 138/3/3
f 144/3/3 138/3/3 137/3/3
f 144/3/3 137/3/3 136/3/3
f 145/7/3 74/7/3 139/7/3
f 145/3/3 139/3/3 144/3/3
f 146/7/3 143/7/3 142/7/3
f 146/7/3 142/7/3 141/7/3
f 146/7/3 141/7/3 140/7/3
f 146/1/3 140/1/3 69/1/3
f 147/1/3 73/1/3 143/1/3
f 147/7/3 143/7/3 146/7/3
f 148/7/3 144/7/3 73/7/3
f 148/1/3 73/1/3 147/1/3
f 148/7/3 145/7/3 144/7/3
f 149/1/3 70/1/3 74/1/3
f 149/7/3 145/7/3 148/7/3
f 149/7/3 74/7/3 145/7/3
f 150/1/3 146/1/3 69/1/3
f 150/1/3 148/1/3 147/1/3
f 150/1/3 149/1/3 148/1/3
f 150/1/3 147/1/3 146/1/3
f 151/1/3 70/1/3 149/1/3
f 151/1/3 149/1/3 150/1/3
f 154/5/3 153/5/3 152/5/3
f 155/5/3 153/5/3 154/5/3
f 156/5/3 153/5/3 155/5/3
f 157/5/3 153/5/3 156/5/3
f 158/5/3 154/5/3 152/5/3
f 159/5/3 153/5/3 157/5/3
f 160/5/3 158/5/3 152/5/3
f 160/5/3 159/5/3 158/5/3
f 161/5/3 153/5/3 159/5/3
f 161/5/3 159/5/3 160/5/3
f 164/7/3 163/7/3 162/7/3
f 165/7/3 163/7/3 164/7/3
f 168/7/3 167/7/3 166/7/3
f 169/7/3 167/7/3 168/7/3
f 172/7/3 171/7/3 170/7/3
f 173/7/3 171/7/3 172/7/3
f 176/7/3 175/7/3 174/7/3
f 177/7/3 175/7/3 176/7/3
f 180/7/3 179/7/3 178/7/3
f 181/7/3 179/7/3 180/7/3
f 182/5/4 183/5/4 184/5/4
f 184/5/4 183/5/4 185/5/4
f 182/5/4 184/5/4 186/5/4
f 185/5/4 183/5/4 187/5/4
f 182/5/4 186/5/4 188/5/4
f 186/5/4 187/5/4 188/5/4
f 187/5/4 183/5/4 189/5/4
f 188/5/4 187/5/4 189/5/4
f 190/7/4 191/7/4 192/7/4
f 192/7/4 191/7/4 193/7/4
f 194/7/4 195/7/4 196/7/4
f 196/7/4 195/7/4 197/7/4
f 198/7/4 199/7/4 200/7/4
f 200/7/4 199/7/4 201/7/4
f 202/7/4 203/7/4 204/7/4
f 204/7/4 203/7/4 205/7/4
f 206/7/4 207/7/4 208/7/4
f 208/7/4 207/7/4 209/7/4
f 210/7/4 211/7/4 212/7/4
f 212/7/4 211/7/4 213/7/4
f 214/7/4 215/7/4 216/7/4
f 216/7/4 215/7/4 217/7/4
f 220/5/5 219/5/5 218/5/5
f 221/5/5 219/5/5 220/5/5
f 224/1/5 223/1/5 222/1/5
f 225/1/5 223/1/5 224/1/5
f 228/7/5 227/7/5 226/7/5
f 229/7/5 227/7/5 228/7/5
f 232/7/5 231/7/5 230/7/5
f 233/7/5 231/7/5 232/7/5
f 236/7/5 235/7/5 234/7/5
f 237/7/5 235/7/5 236/7/5
f 240/7/5 239/7/5 238/7/5
f 241/7/5 239/7/5 240/7/5
f 244/7/5 243/7/5 242/7/5
f 245/7/5 243/7/5 244/7/5
f 248/7/5 247/7/5 246/7/5
f 249/7/5 247/7/5 248/7/5
f 250/7/6 251/7/6 252/7/6
f 252/7/6 251/7/6 253/7/6
f 254/7/6 255/7/6 256/7/6
f 256/7/6 255/7/6 257/7/6
f 258/7/6 259/7/6 260/7/6
f 260/7/6 259/7/6 261/7/6
f 262/7/6 263/7/6 264/7/6
f 264/7/6 263/7/6 265/7/6
f 266/7/6 267/7/6 268/7/6
f 268/7/6 267/7/6 269/7/6
f 270/7/6 271/7/6 272/7/6
f 272/7/6 271/7/6 273/7/6
f 274/7/6 275/7/6 276/7/6
f 276/7/6 275/7/6 277/7/6
f 278/1/6 279/1/6 280/1/6
f 280/1/6 279/1/6 281/1/6
f 278/1/6 280/1/6 282/1/6
f 280/3/6 281/3/6 283/3/6
f 282/1/6 280/1/6 283/1/6
f 281/1/6 279/1/6 284/1/6
f 283/3/6 281/3/6 284/3/6
f 284/1/6 279/1/6 285/1/6
f 286/5/6 287/5/6 288/5/6
f 288/5/6 287/5/6 289/5/6
