# MagicaVoxel @ Ephtracy

# group
g Main Island-5

# material
mtllib Main Island-5.mtl
usemtl palette

# normals
vn -1 0 0
vn 1 0 0
vn 0 0 1
vn 0 0 -1
vn 0 -1 0
vn 0 1 0

# texcoords
vt 0.974609 0.5

# verts
v -63 0 63
v -63 0 -63
v -63 4 63
v -63 4 -63
v 18 0 63
v 18 0 61
v 18 4 63
v 18 4 61
v 20 0 61
v 20 0 51
v 20 4 61
v 20 4 51
v 21 0 51
v 21 0 49
v 21 4 51
v 21 4 49
v 22 0 49
v 22 0 48
v 22 4 49
v 22 4 48
v 23 0 48
v 23 0 46
v 23 4 48
v 23 4 46
v 24 0 46
v 24 0 44
v 24 4 46
v 24 4 44
v 25 0 44
v 25 0 42
v 25 4 44
v 25 4 42
v 26 0 42
v 26 0 41
v 26 4 42
v 26 4 41
v 27 0 41
v 27 0 38
v 27 4 41
v 27 4 38
v 28 0 38
v 28 0 29
v 28 4 38
v 28 4 29
v 29 0 29
v 29 0 20
v 29 4 29
v 29 4 20
v 30 0 20
v 30 0 16
v 30 4 20
v 30 4 16
v 31 0 16
v 31 0 13
v 31 4 16
v 31 4 13
v 32 0 13
v 32 0 11
v 32 4 13
v 32 4 11
v 33 0 11
v 33 0 7
v 33 4 11
v 33 4 7
v 34 0 7
v 34 0 5
v 34 4 7
v 34 4 5
v 35 0 5
v 35 0 -1
v 35 4 5
v 35 4 -1
v 36 0 -1
v 36 0 -7
v 36 4 -1
v 36 4 -7
v 37 0 -7
v 37 0 -10
v 37 4 -7
v 37 4 -10
v 38 0 -10
v 38 0 -12
v 38 4 -10
v 38 4 -12
v 39 0 -12
v 39 0 -22
v 39 4 -12
v 39 4 -22
v 40 0 -22
v 40 0 -27
v 40 4 -22
v 40 4 -27
v 41 0 -27
v 41 0 -32
v 41 4 -27
v 41 4 -32
v 42 0 -32
v 42 0 -37
v 42 4 -32
v 42 4 -37
v 43 0 -37
v 43 0 -42
v 43 4 -37
v 43 4 -42
v 44 0 -42
v 44 0 -52
v 44 4 -42
v 44 4 -52
v 45 0 -52
v 45 0 -55
v 45 4 -52
v 45 4 -55
v 46 0 -55
v 46 0 -58
v 46 4 -55
v 46 4 -58
v 47 0 -58
v 47 0 -60
v 47 4 -58
v 47 4 -60
v 48 0 -60
v 48 0 -62
v 48 4 -60
v 48 4 -62
v 49 0 -62
v 49 0 -63
v 49 4 -62
v 49 4 -63
v -63 0 63
v -63 4 63
v 18 0 63
v 18 4 63
v 18 0 61
v 18 4 61
v 20 0 61
v 20 4 61
v 20 0 51
v 20 4 51
v 21 0 51
v 21 4 51
v 21 0 49
v 21 4 49
v 22 0 49
v 22 4 49
v 22 0 48
v 22 4 48
v 23 0 48
v 23 4 48
v 23 0 46
v 23 4 46
v 24 0 46
v 24 4 46
v 24 0 44
v 24 4 44
v 25 0 44
v 25 4 44
v 25 0 42
v 25 4 42
v 26 0 42
v 26 4 42
v 26 0 41
v 26 4 41
v 27 0 41
v 27 4 41
v 27 0 38
v 27 4 38
v 28 0 38
v 28 4 38
v 28 0 29
v 28 4 29
v 29 0 29
v 29 4 29
v 29 0 20
v 29 4 20
v 30 0 20
v 30 4 20
v 30 0 16
v 30 4 16
v 31 0 16
v 31 4 16
v 31 0 13
v 31 4 13
v 32 0 13
v 32 4 13
v 32 0 11
v 32 4 11
v 33 0 11
v 33 4 11
v 33 0 7
v 33 4 7
v 34 0 7
v 34 4 7
v 34 0 5
v 34 4 5
v 35 0 5
v 35 4 5
v 35 0 -1
v 35 4 -1
v 36 0 -1
v 36 4 -1
v 36 0 -7
v 36 4 -7
v 37 0 -7
v 37 4 -7
v 37 0 -10
v 37 4 -10
v 38 0 -10
v 38 4 -10
v 38 0 -12
v 38 4 -12
v 39 0 -12
v 39 4 -12
v 39 0 -22
v 39 4 -22
v 40 0 -22
v 40 4 -22
v 40 0 -27
v 40 4 -27
v 41 0 -27
v 41 4 -27
v 41 0 -32
v 41 4 -32
v 42 0 -32
v 42 4 -32
v 42 0 -37
v 42 4 -37
v 43 0 -37
v 43 4 -37
v 43 0 -42
v 43 4 -42
v 44 0 -42
v 44 4 -42
v 44 0 -52
v 44 4 -52
v 45 0 -52
v 45 4 -52
v 45 0 -55
v 45 4 -55
v 46 0 -55
v 46 4 -55
v 46 0 -58
v 46 4 -58
v 47 0 -58
v 47 4 -58
v 47 0 -60
v 47 4 -60
v 48 0 -60
v 48 4 -60
v 48 0 -62
v 48 4 -62
v 49 0 -62
v 49 4 -62
v -63 0 -63
v -63 4 -63
v 49 0 -63
v 49 4 -63
v -63 0 63
v 18 0 63
v 18 0 61
v 20 0 61
v 20 0 51
v 21 0 51
v 21 0 49
v 22 0 49
v 22 0 48
v 23 0 48
v 23 0 46
v 24 0 46
v 24 0 44
v 25 0 44
v 25 0 42
v 26 0 42
v 26 0 41
v 27 0 41
v 27 0 38
v 28 0 38
v 28 0 29
v 29 0 29
v 29 0 20
v 30 0 20
v 30 0 16
v 31 0 16
v 31 0 13
v 32 0 13
v 32 0 11
v 33 0 11
v 33 0 7
v 34 0 7
v 34 0 5
v 35 0 5
v 35 0 -1
v 36 0 -1
v 36 0 -7
v 37 0 -7
v 37 0 -10
v 38 0 -10
v 38 0 -12
v 39 0 -12
v 39 0 -22
v 40 0 -22
v 40 0 -27
v 41 0 -27
v 41 0 -32
v 42 0 -32
v 42 0 -37
v 43 0 -37
v 43 0 -42
v 44 0 -42
v 44 0 -52
v 45 0 -52
v 45 0 -55
v 46 0 -55
v 46 0 -58
v 47 0 -58
v 47 0 -60
v 48 0 -60
v 48 0 -62
v 49 0 -62
v -63 0 -63
v 49 0 -63
v -63 4 63
v 18 4 63
v 18 4 61
v 20 4 61
v 20 4 51
v 21 4 51
v 21 4 49
v 22 4 49
v 22 4 48
v 23 4 48
v 23 4 46
v 24 4 46
v 24 4 44
v 25 4 44
v 25 4 42
v 26 4 42
v 26 4 41
v 27 4 41
v 27 4 38
v 28 4 38
v 28 4 29
v 29 4 29
v 29 4 20
v 30 4 20
v 30 4 16
v 31 4 16
v 31 4 13
v 32 4 13
v 32 4 11
v 33 4 11
v 33 4 7
v 34 4 7
v 34 4 5
v 35 4 5
v 35 4 -1
v 36 4 -1
v 36 4 -7
v 37 4 -7
v 37 4 -10
v 38 4 -10
v 38 4 -12
v 39 4 -12
v 39 4 -22
v 40 4 -22
v 40 4 -27
v 41 4 -27
v 41 4 -32
v 42 4 -32
v 42 4 -37
v 43 4 -37
v 43 4 -42
v 44 4 -42
v 44 4 -52
v 45 4 -52
v 45 4 -55
v 46 4 -55
v 46 4 -58
v 47 4 -58
v 47 4 -60
v 48 4 -60
v 48 4 -62
v 49 4 -62
v -63 4 -63
v 49 4 -63

# faces
f 3/1/1 2/1/1 1/1/1
f 4/1/1 2/1/1 3/1/1
f 5/1/2 6/1/2 7/1/2
f 7/1/2 6/1/2 8/1/2
f 9/1/2 10/1/2 11/1/2
f 11/1/2 10/1/2 12/1/2
f 13/1/2 14/1/2 15/1/2
f 15/1/2 14/1/2 16/1/2
f 17/1/2 18/1/2 19/1/2
f 19/1/2 18/1/2 20/1/2
f 21/1/2 22/1/2 23/1/2
f 23/1/2 22/1/2 24/1/2
f 25/1/2 26/1/2 27/1/2
f 27/1/2 26/1/2 28/1/2
f 29/1/2 30/1/2 31/1/2
f 31/1/2 30/1/2 32/1/2
f 33/1/2 34/1/2 35/1/2
f 35/1/2 34/1/2 36/1/2
f 37/1/2 38/1/2 39/1/2
f 39/1/2 38/1/2 40/1/2
f 41/1/2 42/1/2 43/1/2
f 43/1/2 42/1/2 44/1/2
f 45/1/2 46/1/2 47/1/2
f 47/1/2 46/1/2 48/1/2
f 49/1/2 50/1/2 51/1/2
f 51/1/2 50/1/2 52/1/2
f 53/1/2 54/1/2 55/1/2
f 55/1/2 54/1/2 56/1/2
f 57/1/2 58/1/2 59/1/2
f 59/1/2 58/1/2 60/1/2
f 61/1/2 62/1/2 63/1/2
f 63/1/2 62/1/2 64/1/2
f 65/1/2 66/1/2 67/1/2
f 67/1/2 66/1/2 68/1/2
f 69/1/2 70/1/2 71/1/2
f 71/1/2 70/1/2 72/1/2
f 73/1/2 74/1/2 75/1/2
f 75/1/2 74/1/2 76/1/2
f 77/1/2 78/1/2 79/1/2
f 79/1/2 78/1/2 80/1/2
f 81/1/2 82/1/2 83/1/2
f 83/1/2 82/1/2 84/1/2
f 85/1/2 86/1/2 87/1/2
f 87/1/2 86/1/2 88/1/2
f 89/1/2 90/1/2 91/1/2
f 91/1/2 90/1/2 92/1/2
f 93/1/2 94/1/2 95/1/2
f 95/1/2 94/1/2 96/1/2
f 97/1/2 98/1/2 99/1/2
f 99/1/2 98/1/2 100/1/2
f 101/1/2 102/1/2 103/1/2
f 103/1/2 102/1/2 104/1/2
f 105/1/2 106/1/2 107/1/2
f 107/1/2 106/1/2 108/1/2
f 109/1/2 110/1/2 111/1/2
f 111/1/2 110/1/2 112/1/2
f 113/1/2 114/1/2 115/1/2
f 115/1/2 114/1/2 116/1/2
f 117/1/2 118/1/2 119/1/2
f 119/1/2 118/1/2 120/1/2
f 121/1/2 122/1/2 123/1/2
f 123/1/2 122/1/2 124/1/2
f 125/1/2 126/1/2 127/1/2
f 127/1/2 126/1/2 128/1/2
f 131/1/3 130/1/3 129/1/3
f 132/1/3 130/1/3 131/1/3
f 135/1/3 134/1/3 133/1/3
f 136/1/3 134/1/3 135/1/3
f 139/1/3 138/1/3 137/1/3
f 140/1/3 138/1/3 139/1/3
f 143/1/3 142/1/3 141/1/3
f 144/1/3 142/1/3 143/1/3
f 147/1/3 146/1/3 145/1/3
f 148/1/3 146/1/3 147/1/3
f 151/1/3 150/1/3 149/1/3
f 152/1/3 150/1/3 151/1/3
f 155/1/3 154/1/3 153/1/3
f 156/1/3 154/1/3 155/1/3
f 159/1/3 158/1/3 157/1/3
f 160/1/3 158/1/3 159/1/3
f 163/1/3 162/1/3 161/1/3
f 164/1/3 162/1/3 163/1/3
f 167/1/3 166/1/3 165/1/3
f 168/1/3 166/1/3 167/1/3
f 171/1/3 170/1/3 169/1/3
f 172/1/3 170/1/3 171/1/3
f 175/1/3 174/1/3 173/1/3
f 176/1/3 174/1/3 175/1/3
f 179/1/3 178/1/3 177/1/3
f 180/1/3 178/1/3 179/1/3
f 183/1/3 182/1/3 181/1/3
f 184/1/3 182/1/3 183/1/3
f 187/1/3 186/1/3 185/1/3
f 188/1/3 186/1/3 187/1/3
f 191/1/3 190/1/3 189/1/3
f 192/1/3 190/1/3 191/1/3
f 195/1/3 194/1/3 193/1/3
f 196/1/3 194/1/3 195/1/3
f 199/1/3 198/1/3 197/1/3
f 200/1/3 198/1/3 199/1/3
f 203/1/3 202/1/3 201/1/3
f 204/1/3 202/1/3 203/1/3
f 207/1/3 206/1/3 205/1/3
f 208/1/3 206/1/3 207/1/3
f 211/1/3 210/1/3 209/1/3
f 212/1/3 210/1/3 211/1/3
f 215/1/3 214/1/3 213/1/3
f 216/1/3 214/1/3 215/1/3
f 219/1/3 218/1/3 217/1/3
f 220/1/3 218/1/3 219/1/3
f 223/1/3 222/1/3 221/1/3
f 224/1/3 222/1/3 223/1/3
f 227/1/3 226/1/3 225/1/3
f 228/1/3 226/1/3 227/1/3
f 231/1/3 230/1/3 229/1/3
f 232/1/3 230/1/3 231/1/3
f 235/1/3 234/1/3 233/1/3
f 236/1/3 234/1/3 235/1/3
f 239/1/3 238/1/3 237/1/3
f 240/1/3 238/1/3 239/1/3
f 243/1/3 242/1/3 241/1/3
f 244/1/3 242/1/3 243/1/3
f 247/1/3 246/1/3 245/1/3
f 248/1/3 246/1/3 247/1/3
f 251/1/3 250/1/3 249/1/3
f 252/1/3 250/1/3 251/1/3
f 253/1/4 254/1/4 255/1/4
f 255/1/4 254/1/4 256/1/4
f 259/1/5 258/1/5 257/1/5
f 261/1/5 260/1/5 259/1/5
f 263/1/5 262/1/5 261/1/5
f 265/1/5 264/1/5 263/1/5
f 267/1/5 266/1/5 265/1/5
f 269/1/5 268/1/5 267/1/5
f 271/1/5 270/1/5 269/1/5
f 273/1/5 272/1/5 271/1/5
f 275/1/5 274/1/5 273/1/5
f 277/1/5 276/1/5 275/1/5
f 279/1/5 278/1/5 277/1/5
f 281/1/5 280/1/5 279/1/5
f 283/1/5 282/1/5 281/1/5
f 285/1/5 284/1/5 283/1/5
f 287/1/5 286/1/5 285/1/5
f 289/1/5 288/1/5 287/1/5
f 291/1/5 290/1/5 289/1/5
f 293/1/5 292/1/5 291/1/5
f 295/1/5 294/1/5 293/1/5
f 297/1/5 296/1/5 295/1/5
f 299/1/5 298/1/5 297/1/5
f 301/1/5 300/1/5 299/1/5
f 303/1/5 302/1/5 301/1/5
f 305/1/5 304/1/5 303/1/5
f 307/1/5 306/1/5 305/1/5
f 309/1/5 308/1/5 307/1/5
f 311/1/5 310/1/5 309/1/5
f 313/1/5 312/1/5 311/1/5
f 315/1/5 314/1/5 313/1/5
f 317/1/5 316/1/5 315/1/5
f 319/1/5 259/1/5 257/1/5
f 319/1/5 318/1/5 317/1/5
f 319/1/5 317/1/5 315/1/5
f 319/1/5 315/1/5 313/1/5
f 319/1/5 313/1/5 311/1/5
f 319/1/5 311/1/5 309/1/5
f 319/1/5 309/1/5 307/1/5
f 319/1/5 307/1/5 305/1/5
f 319/1/5 305/1/5 303/1/5
f 319/1/5 303/1/5 301/1/5
f 319/1/5 301/1/5 299/1/5
f 319/1/5 299/1/5 297/1/5
f 319/1/5 297/1/5 295/1/5
f 319/1/5 295/1/5 293/1/5
f 319/1/5 293/1/5 291/1/5
f 319/1/5 291/1/5 289/1/5
f 319/1/5 289/1/5 287/1/5
f 319/1/5 287/1/5 285/1/5
f 319/1/5 285/1/5 283/1/5
f 319/1/5 283/1/5 281/1/5
f 319/1/5 281/1/5 279/1/5
f 319/1/5 279/1/5 277/1/5
f 319/1/5 277/1/5 275/1/5
f 319/1/5 275/1/5 273/1/5
f 319/1/5 273/1/5 271/1/5
f 319/1/5 271/1/5 269/1/5
f 319/1/5 269/1/5 267/1/5
f 319/1/5 267/1/5 265/1/5
f 319/1/5 265/1/5 263/1/5
f 319/1/5 263/1/5 261/1/5
f 319/1/5 261/1/5 259/1/5
f 320/1/5 318/1/5 319/1/5
f 321/1/6 322/1/6 323/1/6
f 323/1/6 324/1/6 325/1/6
f 325/1/6 326/1/6 327/1/6
f 327/1/6 328/1/6 329/1/6
f 329/1/6 330/1/6 331/1/6
f 331/1/6 332/1/6 333/1/6
f 333/1/6 334/1/6 335/1/6
f 335/1/6 336/1/6 337/1/6
f 337/1/6 338/1/6 339/1/6
f 339/1/6 340/1/6 341/1/6
f 341/1/6 342/1/6 343/1/6
f 343/1/6 344/1/6 345/1/6
f 345/1/6 346/1/6 347/1/6
f 347/1/6 348/1/6 349/1/6
f 349/1/6 350/1/6 351/1/6
f 351/1/6 352/1/6 353/1/6
f 353/1/6 354/1/6 355/1/6
f 355/1/6 356/1/6 357/1/6
f 357/1/6 358/1/6 359/1/6
f 359/1/6 360/1/6 361/1/6
f 361/1/6 362/1/6 363/1/6
f 363/1/6 364/1/6 365/1/6
f 365/1/6 366/1/6 367/1/6
f 367/1/6 368/1/6 369/1/6
f 369/1/6 370/1/6 371/1/6
f 371/1/6 372/1/6 373/1/6
f 373/1/6 374/1/6 375/1/6
f 375/1/6 376/1/6 377/1/6
f 377/1/6 378/1/6 379/1/6
f 379/1/6 380/1/6 381/1/6
f 321/1/6 323/1/6 383/1/6
f 381/1/6 382/1/6 383/1/6
f 379/1/6 381/1/6 383/1/6
f 377/1/6 379/1/6 383/1/6
f 375/1/6 377/1/6 383/1/6
f 373/1/6 375/1/6 383/1/6
f 371/1/6 373/1/6 383/1/6
f 369/1/6 371/1/6 383/1/6
f 367/1/6 369/1/6 383/1/6
f 365/1/6 367/1/6 383/1/6
f 363/1/6 365/1/6 383/1/6
f 361/1/6 363/1/6 383/1/6
f 359/1/6 361/1/6 383/1/6
f 357/1/6 359/1/6 383/1/6
f 355/1/6 357/1/6 383/1/6
f 353/1/6 355/1/6 383/1/6
f 351/1/6 353/1/6 383/1/6
f 349/1/6 351/1/6 383/1/6
f 347/1/6 349/1/6 383/1/6
f 345/1/6 347/1/6 383/1/6
f 343/1/6 345/1/6 383/1/6
f 341/1/6 343/1/6 383/1/6
f 339/1/6 341/1/6 383/1/6
f 337/1/6 339/1/6 383/1/6
f 335/1/6 337/1/6 383/1/6
f 333/1/6 335/1/6 383/1/6
f 331/1/6 333/1/6 383/1/6
f 329/1/6 331/1/6 383/1/6
f 327/1/6 329/1/6 383/1/6
f 325/1/6 327/1/6 383/1/6
f 323/1/6 325/1/6 383/1/6
f 383/1/6 382/1/6 384/1/6
