# MagicaVoxel @ Ephtracy

# group
g Light House-8

# material
mtllib Light House-8.mtl
usemtl palette

# normals
vn -1 0 0
vn 1 0 0
vn 0 0 1
vn 0 0 -1
vn 0 -1 0
vn 0 1 0

# texcoords
vt 0.716797 0.5
vt 0.974609 0.5

# verts
v -63 0 63
v -63 0 -63
v -63 1 63
v -63 1 -63
v 5 1 -62
v 5 1 -63
v 5 7 -62
v 5 7 -63
v 6 1 -61
v 6 1 -62
v 6 7 -61
v 6 7 -62
v 7 1 -60
v 7 1 -61
v 7 7 -60
v 7 7 -61
v 8 1 -59
v 8 1 -60
v 8 7 -59
v 8 7 -60
v 9 1 -58
v 9 1 -59
v 9 7 -58
v 9 7 -59
v 11 1 -57
v 11 1 -58
v 11 7 -57
v 11 7 -58
v 13 1 -56
v 13 1 -57
v 13 7 -56
v 13 7 -57
v 16 1 -55
v 16 1 -56
v 16 7 -55
v 16 7 -56
v 20 1 -54
v 20 1 -55
v 20 7 -54
v 20 7 -55
v 21 1 -53
v 21 1 -54
v 21 7 -53
v 21 7 -54
v 22 1 -52
v 22 1 -53
v 22 7 -52
v 22 7 -53
v 24 1 -50
v 24 1 -52
v 24 7 -50
v 24 7 -52
v 25 1 -49
v 25 1 -50
v 25 7 -49
v 25 7 -50
v 26 1 -48
v 26 1 -49
v 26 7 -48
v 26 7 -49
v 27 1 -47
v 27 1 -48
v 27 7 -47
v 27 7 -48
v 28 1 -45
v 28 1 -47
v 28 7 -45
v 28 7 -47
v 29 1 -44
v 29 1 -45
v 29 7 -44
v 29 7 -45
v 30 1 -43
v 30 1 -44
v 30 7 -43
v 30 7 -44
v 31 1 -42
v 31 1 -43
v 31 7 -42
v 31 7 -43
v 32 1 -41
v 32 1 -42
v 32 7 -41
v 32 7 -42
v 33 1 -40
v 33 1 -41
v 33 7 -40
v 33 7 -41
v 34 1 -39
v 34 1 -40
v 34 7 -39
v 34 7 -40
v 35 1 -38
v 35 1 -39
v 35 7 -38
v 35 7 -39
v 36 1 -37
v 36 1 -38
v 36 7 -37
v 36 7 -38
v 38 1 -35
v 38 1 -37
v 38 7 -35
v 38 7 -37
v 40 1 -34
v 40 1 -35
v 40 7 -34
v 40 7 -35
v 41 1 -33
v 41 1 -34
v 41 7 -33
v 41 7 -34
v 42 1 -32
v 42 1 -33
v 42 7 -32
v 42 7 -33
v 43 1 -30
v 43 1 -32
v 43 7 -30
v 43 7 -32
v 44 1 -27
v 44 1 -30
v 44 7 -27
v 44 7 -30
v 45 1 -25
v 45 1 -27
v 45 7 -25
v 45 7 -27
v 46 1 -23
v 46 1 -25
v 46 7 -23
v 46 7 -25
v 47 1 -19
v 47 1 -23
v 47 7 -19
v 47 7 -23
v 48 1 -17
v 48 1 -19
v 48 7 -17
v 48 7 -19
v 49 1 -15
v 49 1 -17
v 49 7 -15
v 49 7 -17
v 50 1 -13
v 50 1 -15
v 50 7 -13
v 50 7 -15
v 51 1 -12
v 51 1 -13
v 51 7 -12
v 51 7 -13
v 52 1 -10
v 52 1 -12
v 52 7 -10
v 52 7 -12
v 53 1 -8
v 53 1 -10
v 53 7 -8
v 53 7 -10
v 55 1 -6
v 55 1 -8
v 55 7 -6
v 55 7 -8
v 56 1 -5
v 56 1 -6
v 56 7 -5
v 56 7 -6
v 57 1 -4
v 57 1 -5
v 57 7 -4
v 57 7 -5
v 58 1 -3
v 58 1 -4
v 58 7 -3
v 58 7 -4
v 59 1 -2
v 59 1 -3
v 59 7 -2
v 59 7 -3
v 60 1 -1
v 60 1 -2
v 60 7 -1
v 60 7 -2
v 61 1 -0
v 61 1 -1
v 61 7 -0
v 61 7 -1
v 62 1 2
v 62 1 -0
v 62 7 2
v 62 7 -0
v 63 0 63
v 63 0 2
v 63 0 -63
v 63 1 63
v 63 1 2
v 63 7 2
v 63 7 -63
v -63 0 63
v -63 1 63
v 63 0 63
v 63 1 63
v 62 1 2
v 62 7 2
v 63 1 2
v 63 7 2
v 61 1 -0
v 61 7 -0
v 62 1 -0
v 62 7 -0
v 60 1 -1
v 60 7 -1
v 61 1 -1
v 61 7 -1
v 59 1 -2
v 59 7 -2
v 60 1 -2
v 60 7 -2
v 58 1 -3
v 58 7 -3
v 59 1 -3
v 59 7 -3
v 57 1 -4
v 57 7 -4
v 58 1 -4
v 58 7 -4
v 56 1 -5
v 56 7 -5
v 57 1 -5
v 57 7 -5
v 55 1 -6
v 55 7 -6
v 56 1 -6
v 56 7 -6
v 53 1 -8
v 53 7 -8
v 55 1 -8
v 55 7 -8
v 52 1 -10
v 52 7 -10
v 53 1 -10
v 53 7 -10
v 51 1 -12
v 51 7 -12
v 52 1 -12
v 52 7 -12
v 50 1 -13
v 50 7 -13
v 51 1 -13
v 51 7 -13
v 49 1 -15
v 49 7 -15
v 50 1 -15
v 50 7 -15
v 48 1 -17
v 48 7 -17
v 49 1 -17
v 49 7 -17
v 47 1 -19
v 47 7 -19
v 48 1 -19
v 48 7 -19
v 46 1 -23
v 46 7 -23
v 47 1 -23
v 47 7 -23
v 45 1 -25
v 45 7 -25
v 46 1 -25
v 46 7 -25
v 44 1 -27
v 44 7 -27
v 45 1 -27
v 45 7 -27
v 43 1 -30
v 43 7 -30
v 44 1 -30
v 44 7 -30
v 42 1 -32
v 42 7 -32
v 43 1 -32
v 43 7 -32
v 41 1 -33
v 41 7 -33
v 42 1 -33
v 42 7 -33
v 40 1 -34
v 40 7 -34
v 41 1 -34
v 41 7 -34
v 38 1 -35
v 38 7 -35
v 40 1 -35
v 40 7 -35
v 36 1 -37
v 36 7 -37
v 38 1 -37
v 38 7 -37
v 35 1 -38
v 35 7 -38
v 36 1 -38
v 36 7 -38
v 34 1 -39
v 34 7 -39
v 35 1 -39
v 35 7 -39
v 33 1 -40
v 33 7 -40
v 34 1 -40
v 34 7 -40
v 32 1 -41
v 32 7 -41
v 33 1 -41
v 33 7 -41
v 31 1 -42
v 31 7 -42
v 32 1 -42
v 32 7 -42
v 30 1 -43
v 30 7 -43
v 31 1 -43
v 31 7 -43
v 29 1 -44
v 29 7 -44
v 30 1 -44
v 30 7 -44
v 28 1 -45
v 28 7 -45
v 29 1 -45
v 29 7 -45
v 27 1 -47
v 27 7 -47
v 28 1 -47
v 28 7 -47
v 26 1 -48
v 26 7 -48
v 27 1 -48
v 27 7 -48
v 25 1 -49
v 25 7 -49
v 26 1 -49
v 26 7 -49
v 24 1 -50
v 24 7 -50
v 25 1 -50
v 25 7 -50
v 22 1 -52
v 22 7 -52
v 24 1 -52
v 24 7 -52
v 21 1 -53
v 21 7 -53
v 22 1 -53
v 22 7 -53
v 20 1 -54
v 20 7 -54
v 21 1 -54
v 21 7 -54
v 16 1 -55
v 16 7 -55
v 20 1 -55
v 20 7 -55
v 13 1 -56
v 13 7 -56
v 16 1 -56
v 16 7 -56
v 11 1 -57
v 11 7 -57
v 13 1 -57
v 13 7 -57
v 9 1 -58
v 9 7 -58
v 11 1 -58
v 11 7 -58
v 8 1 -59
v 8 7 -59
v 9 1 -59
v 9 7 -59
v 7 1 -60
v 7 7 -60
v 8 1 -60
v 8 7 -60
v 6 1 -61
v 6 7 -61
v 7 1 -61
v 7 7 -61
v 5 1 -62
v 5 7 -62
v 6 1 -62
v 6 7 -62
v -63 0 -63
v -63 1 -63
v 5 0 -63
v 5 1 -63
v 5 7 -63
v 63 0 -63
v 63 7 -63
v -63 0 63
v 63 0 63
v 62 0 2
v 63 0 2
v 61 0 -0
v 62 0 -0
v 60 0 -1
v 61 0 -1
v 59 0 -2
v 60 0 -2
v 58 0 -3
v 59 0 -3
v 57 0 -4
v 58 0 -4
v 56 0 -5
v 57 0 -5
v 55 0 -6
v 56 0 -6
v 53 0 -8
v 55 0 -8
v 52 0 -10
v 53 0 -10
v 51 0 -12
v 52 0 -12
v 50 0 -13
v 51 0 -13
v 49 0 -15
v 50 0 -15
v 48 0 -17
v 49 0 -17
v 47 0 -19
v 48 0 -19
v 46 0 -23
v 47 0 -23
v 45 0 -25
v 46 0 -25
v 44 0 -27
v 45 0 -27
v 43 0 -30
v 44 0 -30
v 42 0 -32
v 43 0 -32
v 41 0 -33
v 42 0 -33
v 40 0 -34
v 41 0 -34
v 38 0 -35
v 40 0 -35
v 36 0 -37
v 38 0 -37
v 35 0 -38
v 36 0 -38
v 34 0 -39
v 35 0 -39
v 33 0 -40
v 34 0 -40
v 32 0 -41
v 33 0 -41
v 31 0 -42
v 32 0 -42
v 30 0 -43
v 31 0 -43
v 29 0 -44
v 30 0 -44
v 28 0 -45
v 29 0 -45
v 27 0 -47
v 28 0 -47
v 26 0 -48
v 27 0 -48
v 25 0 -49
v 26 0 -49
v 24 0 -50
v 25 0 -50
v 22 0 -52
v 24 0 -52
v 21 0 -53
v 22 0 -53
v 20 0 -54
v 21 0 -54
v 16 0 -55
v 20 0 -55
v 13 0 -56
v 16 0 -56
v 11 0 -57
v 13 0 -57
v 9 0 -58
v 11 0 -58
v 8 0 -59
v 9 0 -59
v 7 0 -60
v 8 0 -60
v 6 0 -61
v 7 0 -61
v 5 0 -62
v 6 0 -62
v -63 0 -63
v 5 0 -63
v 63 0 -63
v -63 1 63
v 63 1 63
v 62 1 2
v 63 1 2
v 61 1 -0
v 62 1 -0
v 60 1 -1
v 61 1 -1
v 59 1 -2
v 60 1 -2
v 58 1 -3
v 59 1 -3
v 57 1 -4
v 58 1 -4
v 56 1 -5
v 57 1 -5
v 55 1 -6
v 56 1 -6
v 53 1 -8
v 55 1 -8
v 52 1 -10
v 53 1 -10
v 51 1 -12
v 52 1 -12
v 50 1 -13
v 51 1 -13
v 49 1 -15
v 50 1 -15
v 48 1 -17
v 49 1 -17
v 47 1 -19
v 48 1 -19
v 46 1 -23
v 47 1 -23
v 45 1 -25
v 46 1 -25
v 44 1 -27
v 45 1 -27
v 43 1 -30
v 44 1 -30
v 42 1 -32
v 43 1 -32
v 41 1 -33
v 42 1 -33
v 40 1 -34
v 41 1 -34
v 38 1 -35
v 40 1 -35
v 36 1 -37
v 38 1 -37
v 35 1 -38
v 36 1 -38
v 34 1 -39
v 35 1 -39
v 33 1 -40
v 34 1 -40
v 32 1 -41
v 33 1 -41
v 31 1 -42
v 32 1 -42
v 30 1 -43
v 31 1 -43
v 29 1 -44
v 30 1 -44
v 28 1 -45
v 29 1 -45
v 27 1 -47
v 28 1 -47
v 26 1 -48
v 27 1 -48
v 25 1 -49
v 26 1 -49
v 24 1 -50
v 25 1 -50
v 22 1 -52
v 24 1 -52
v 21 1 -53
v 22 1 -53
v 20 1 -54
v 21 1 -54
v 16 1 -55
v 20 1 -55
v 13 1 -56
v 16 1 -56
v 11 1 -57
v 13 1 -57
v 9 1 -58
v 11 1 -58
v 8 1 -59
v 9 1 -59
v 7 1 -60
v 8 1 -60
v 6 1 -61
v 7 1 -61
v 5 1 -62
v 6 1 -62
v -63 1 -63
v 5 1 -63
v 62 7 2
v 63 7 2
v 61 7 -0
v 62 7 -0
v 60 7 -1
v 61 7 -1
v 59 7 -2
v 60 7 -2
v 58 7 -3
v 59 7 -3
v 57 7 -4
v 58 7 -4
v 56 7 -5
v 57 7 -5
v 55 7 -6
v 56 7 -6
v 53 7 -8
v 55 7 -8
v 52 7 -10
v 53 7 -10
v 51 7 -12
v 52 7 -12
v 50 7 -13
v 51 7 -13
v 49 7 -15
v 50 7 -15
v 48 7 -17
v 49 7 -17
v 47 7 -19
v 48 7 -19
v 46 7 -23
v 47 7 -23
v 45 7 -25
v 46 7 -25
v 44 7 -27
v 45 7 -27
v 43 7 -30
v 44 7 -30
v 42 7 -32
v 43 7 -32
v 41 7 -33
v 42 7 -33
v 40 7 -34
v 41 7 -34
v 38 7 -35
v 40 7 -35
v 36 7 -37
v 38 7 -37
v 35 7 -38
v 36 7 -38
v 34 7 -39
v 35 7 -39
v 33 7 -40
v 34 7 -40
v 32 7 -41
v 33 7 -41
v 31 7 -42
v 32 7 -42
v 30 7 -43
v 31 7 -43
v 29 7 -44
v 30 7 -44
v 28 7 -45
v 29 7 -45
v 27 7 -47
v 28 7 -47
v 26 7 -48
v 27 7 -48
v 25 7 -49
v 26 7 -49
v 24 7 -50
v 25 7 -50
v 22 7 -52
v 24 7 -52
v 21 7 -53
v 22 7 -53
v 20 7 -54
v 21 7 -54
v 16 7 -55
v 20 7 -55
v 13 7 -56
v 16 7 -56
v 11 7 -57
v 13 7 -57
v 9 7 -58
v 11 7 -58
v 8 7 -59
v 9 7 -59
v 7 7 -60
v 8 7 -60
v 6 7 -61
v 7 7 -61
v 5 7 -62
v 6 7 -62
v 5 7 -63
v 63 7 -63

# faces
f 3/1/1 2/1/1 1/1/1
f 4/1/1 2/1/1 3/1/1
f 7/2/1 6/2/1 5/2/1
f 8/2/1 6/2/1 7/2/1
f 11/2/1 10/2/1 9/2/1
f 12/2/1 10/2/1 11/2/1
f 15/2/1 14/2/1 13/2/1
f 16/2/1 14/2/1 15/2/1
f 19/2/1 18/2/1 17/2/1
f 20/2/1 18/2/1 19/2/1
f 23/2/1 22/2/1 21/2/1
f 24/2/1 22/2/1 23/2/1
f 27/2/1 26/2/1 25/2/1
f 28/2/1 26/2/1 27/2/1
f 31/2/1 30/2/1 29/2/1
f 32/2/1 30/2/1 31/2/1
f 35/2/1 34/2/1 33/2/1
f 36/2/1 34/2/1 35/2/1
f 39/2/1 38/2/1 37/2/1
f 40/2/1 38/2/1 39/2/1
f 43/2/1 42/2/1 41/2/1
f 44/2/1 42/2/1 43/2/1
f 47/2/1 46/2/1 45/2/1
f 48/2/1 46/2/1 47/2/1
f 51/2/1 50/2/1 49/2/1
f 52/2/1 50/2/1 51/2/1
f 55/2/1 54/2/1 53/2/1
f 56/2/1 54/2/1 55/2/1
f 59/2/1 58/2/1 57/2/1
f 60/2/1 58/2/1 59/2/1
f 63/2/1 62/2/1 61/2/1
f 64/2/1 62/2/1 63/2/1
f 67/2/1 66/2/1 65/2/1
f 68/2/1 66/2/1 67/2/1
f 71/2/1 70/2/1 69/2/1
f 72/2/1 70/2/1 71/2/1
f 75/2/1 74/2/1 73/2/1
f 76/2/1 74/2/1 75/2/1
f 79/2/1 78/2/1 77/2/1
f 80/2/1 78/2/1 79/2/1
f 83/2/1 82/2/1 81/2/1
f 84/2/1 82/2/1 83/2/1
f 87/2/1 86/2/1 85/2/1
f 88/2/1 86/2/1 87/2/1
f 91/2/1 90/2/1 89/2/1
f 92/2/1 90/2/1 91/2/1
f 95/2/1 94/2/1 93/2/1
f 96/2/1 94/2/1 95/2/1
f 99/2/1 98/2/1 97/2/1
f 100/2/1 98/2/1 99/2/1
f 103/2/1 102/2/1 101/2/1
f 104/2/1 102/2/1 103/2/1
f 107/2/1 106/2/1 105/2/1
f 108/2/1 106/2/1 107/2/1
f 111/2/1 110/2/1 109/2/1
f 112/2/1 110/2/1 111/2/1
f 115/2/1 114/2/1 113/2/1
f 116/2/1 114/2/1 115/2/1
f 119/2/1 118/2/1 117/2/1
f 120/2/1 118/2/1 119/2/1
f 123/2/1 122/2/1 121/2/1
f 124/2/1 122/2/1 123/2/1
f 127/2/1 126/2/1 125/2/1
f 128/2/1 126/2/1 127/2/1
f 131/2/1 130/2/1 129/2/1
f 132/2/1 130/2/1 131/2/1
f 135/2/1 134/2/1 133/2/1
f 136/2/1 134/2/1 135/2/1
f 139/2/1 138/2/1 137/2/1
f 140/2/1 138/2/1 139/2/1
f 143/2/1 142/2/1 141/2/1
f 144/2/1 142/2/1 143/2/1
f 147/2/1 146/2/1 145/2/1
f 148/2/1 146/2/1 147/2/1
f 151/2/1 150/2/1 149/2/1
f 152/2/1 150/2/1 151/2/1
f 155/2/1 154/2/1 153/2/1
f 156/2/1 154/2/1 155/2/1
f 159/2/1 158/2/1 157/2/1
f 160/2/1 158/2/1 159/2/1
f 163/2/1 162/2/1 161/2/1
f 164/2/1 162/2/1 163/2/1
f 167/2/1 166/2/1 165/2/1
f 168/2/1 166/2/1 167/2/1
f 171/2/1 170/2/1 169/2/1
f 172/2/1 170/2/1 171/2/1
f 175/2/1 174/2/1 173/2/1
f 176/2/1 174/2/1 175/2/1
f 179/2/1 178/2/1 177/2/1
f 180/2/1 178/2/1 179/2/1
f 183/2/1 182/2/1 181/2/1
f 184/2/1 182/2/1 183/2/1
f 187/2/1 186/2/1 185/2/1
f 188/2/1 186/2/1 187/2/1
f 191/2/1 190/2/1 189/2/1
f 192/2/1 190/2/1 191/2/1
f 193/1/2 194/1/2 196/1/2
f 194/2/2 195/2/2 197/2/2
f 196/1/2 194/1/2 197/1/2
f 197/2/2 195/2/2 198/2/2
f 198/2/2 195/2/2 199/2/2
f 202/1/3 201/1/3 200/1/3
f 203/1/3 201/1/3 202/1/3
f 206/2/3 205/2/3 204/2/3
f 207/2/3 205/2/3 206/2/3
f 210/2/3 209/2/3 208/2/3
f 211/2/3 209/2/3 210/2/3
f 214/2/3 213/2/3 212/2/3
f 215/2/3 213/2/3 214/2/3
f 218/2/3 217/2/3 216/2/3
f 219/2/3 217/2/3 218/2/3
f 222/2/3 221/2/3 220/2/3
f 223/2/3 221/2/3 222/2/3
f 226/2/3 225/2/3 224/2/3
f 227/2/3 225/2/3 226/2/3
f 230/2/3 229/2/3 228/2/3
f 231/2/3 229/2/3 230/2/3
f 234/2/3 233/2/3 232/2/3
f 235/2/3 233/2/3 234/2/3
f 238/2/3 237/2/3 236/2/3
f 239/2/3 237/2/3 238/2/3
f 242/2/3 241/2/3 240/2/3
f 243/2/3 241/2/3 242/2/3
f 246/2/3 245/2/3 244/2/3
f 247/2/3 245/2/3 246/2/3
f 250/2/3 249/2/3 248/2/3
f 251/2/3 249/2/3 250/2/3
f 254/2/3 253/2/3 252/2/3
f 255/2/3 253/2/3 254/2/3
f 258/2/3 257/2/3 256/2/3
f 259/2/3 257/2/3 258/2/3
f 262/2/3 261/2/3 260/2/3
f 263/2/3 261/2/3 262/2/3
f 266/2/3 265/2/3 264/2/3
f 267/2/3 265/2/3 266/2/3
f 270/2/3 269/2/3 268/2/3
f 271/2/3 269/2/3 270/2/3
f 274/2/3 273/2/3 272/2/3
f 275/2/3 273/2/3 274/2/3
f 278/2/3 277/2/3 276/2/3
f 279/2/3 277/2/3 278/2/3
f 282/2/3 281/2/3 280/2/3
f 283/2/3 281/2/3 282/2/3
f 286/2/3 285/2/3 284/2/3
f 287/2/3 285/2/3 286/2/3
f 290/2/3 289/2/3 288/2/3
f 291/2/3 289/2/3 290/2/3
f 294/2/3 293/2/3 292/2/3
f 295/2/3 293/2/3 294/2/3
f 298/2/3 297/2/3 296/2/3
f 299/2/3 297/2/3 298/2/3
f 302/2/3 301/2/3 300/2/3
f 303/2/3 301/2/3 302/2/3
f 306/2/3 305/2/3 304/2/3
f 307/2/3 305/2/3 306/2/3
f 310/2/3 309/2/3 308/2/3
f 311/2/3 309/2/3 310/2/3
f 314/2/3 313/2/3 312/2/3
f 315/2/3 313/2/3 314/2/3
f 318/2/3 317/2/3 316/2/3
f 319/2/3 317/2/3 318/2/3
f 322/2/3 321/2/3 320/2/3
f 323/2/3 321/2/3 322/2/3
f 326/2/3 325/2/3 324/2/3
f 327/2/3 325/2/3 326/2/3
f 330/2/3 329/2/3 328/2/3
f 331/2/3 329/2/3 330/2/3
f 334/2/3 333/2/3 332/2/3
f 335/2/3 333/2/3 334/2/3
f 338/2/3 337/2/3 336/2/3
f 339/2/3 337/2/3 338/2/3
f 342/2/3 341/2/3 340/2/3
f 343/2/3 341/2/3 342/2/3
f 346/2/3 345/2/3 344/2/3
f 347/2/3 345/2/3 346/2/3
f 350/2/3 349/2/3 348/2/3
f 351/2/3 349/2/3 350/2/3
f 354/2/3 353/2/3 352/2/3
f 355/2/3 353/2/3 354/2/3
f 358/2/3 357/2/3 356/2/3
f 359/2/3 357/2/3 358/2/3
f 362/2/3 361/2/3 360/2/3
f 363/2/3 361/2/3 362/2/3
f 366/2/3 365/2/3 364/2/3
f 367/2/3 365/2/3 366/2/3
f 370/2/3 369/2/3 368/2/3
f 371/2/3 369/2/3 370/2/3
f 374/2/3 373/2/3 372/2/3
f 375/2/3 373/2/3 374/2/3
f 378/2/3 377/2/3 376/2/3
f 379/2/3 377/2/3 378/2/3
f 382/2/3 381/2/3 380/2/3
f 383/2/3 381/2/3 382/2/3
f 386/2/3 385/2/3 384/2/3
f 387/2/3 385/2/3 386/2/3
f 390/2/3 389/2/3 388/2/3
f 391/2/3 389/2/3 390/2/3
f 392/1/4 393/1/4 394/1/4
f 394/1/4 393/1/4 395/1/4
f 394/2/4 395/2/4 397/2/4
f 395/2/4 396/2/4 397/2/4
f 397/2/4 396/2/4 398/2/4
f 401/1/5 400/1/5 399/1/5
f 402/1/5 400/1/5 401/1/5
f 403/1/5 401/1/5 399/1/5
f 404/2/5 402/2/5 401/2/5
f 404/1/5 401/1/5 403/1/5
f 405/1/5 403/1/5 399/1/5
f 406/2/5 404/2/5 403/2/5
f 406/1/5 403/1/5 405/1/5
f 407/1/5 405/1/5 399/1/5
f 408/2/5 406/2/5 405/2/5
f 408/1/5 405/1/5 407/1/5
f 409/1/5 407/1/5 399/1/5
f 410/2/5 408/2/5 407/2/5
f 410/1/5 407/1/5 409/1/5
f 411/1/5 409/1/5 399/1/5
f 412/2/5 410/2/5 409/2/5
f 412/1/5 409/1/5 411/1/5
f 413/1/5 411/1/5 399/1/5
f 414/2/5 412/2/5 411/2/5
f 414/1/5 411/1/5 413/1/5
f 415/1/5 413/1/5 399/1/5
f 416/2/5 414/2/5 413/2/5
f 416/1/5 413/1/5 415/1/5
f 417/1/5 415/1/5 399/1/5
f 418/2/5 416/2/5 415/2/5
f 418/1/5 415/1/5 417/1/5
f 419/1/5 417/1/5 399/1/5
f 420/2/5 418/2/5 417/2/5
f 420/1/5 417/1/5 419/1/5
f 421/1/5 419/1/5 399/1/5
f 422/2/5 420/2/5 419/2/5
f 422/1/5 419/1/5 421/1/5
f 423/1/5 421/1/5 399/1/5
f 424/2/5 422/2/5 421/2/5
f 424/1/5 421/1/5 423/1/5
f 425/1/5 423/1/5 399/1/5
f 426/2/5 424/2/5 423/2/5
f 426/1/5 423/1/5 425/1/5
f 427/1/5 425/1/5 399/1/5
f 428/2/5 426/2/5 425/2/5
f 428/1/5 425/1/5 427/1/5
f 429/1/5 427/1/5 399/1/5
f 430/2/5 428/2/5 427/2/5
f 430/1/5 427/1/5 429/1/5
f 431/1/5 429/1/5 399/1/5
f 432/2/5 430/2/5 429/2/5
f 432/1/5 429/1/5 431/1/5
f 433/1/5 431/1/5 399/1/5
f 434/2/5 432/2/5 431/2/5
f 434/1/5 431/1/5 433/1/5
f 435/1/5 433/1/5 399/1/5
f 436/2/5 434/2/5 433/2/5
f 436/1/5 433/1/5 435/1/5
f 437/1/5 435/1/5 399/1/5
f 438/2/5 436/2/5 435/2/5
f 438/1/5 435/1/5 437/1/5
f 439/1/5 437/1/5 399/1/5
f 440/2/5 438/2/5 437/2/5
f 440/1/5 437/1/5 439/1/5
f 441/1/5 439/1/5 399/1/5
f 442/2/5 440/2/5 439/2/5
f 442/1/5 439/1/5 441/1/5
f 443/1/5 441/1/5 399/1/5
f 444/2/5 442/2/5 441/2/5
f 444/1/5 441/1/5 443/1/5
f 445/1/5 443/1/5 399/1/5
f 446/2/5 444/2/5 443/2/5
f 446/1/5 443/1/5 445/1/5
f 447/1/5 445/1/5 399/1/5
f 448/2/5 446/2/5 445/2/5
f 448/1/5 445/1/5 447/1/5
f 449/1/5 447/1/5 399/1/5
f 450/2/5 448/2/5 447/2/5
f 450/1/5 447/1/5 449/1/5
f 451/1/5 449/1/5 399/1/5
f 452/2/5 450/2/5 449/2/5
f 452/1/5 449/1/5 451/1/5
f 453/1/5 451/1/5 399/1/5
f 454/2/5 452/2/5 451/2/5
f 454/1/5 451/1/5 453/1/5
f 455/1/5 453/1/5 399/1/5
f 456/2/5 454/2/5 453/2/5
f 456/1/5 453/1/5 455/1/5
f 457/1/5 455/1/5 399/1/5
f 458/2/5 456/2/5 455/2/5
f 458/1/5 455/1/5 457/1/5
f 459/1/5 457/1/5 399/1/5
f 460/2/5 458/2/5 457/2/5
f 460/1/5 457/1/5 459/1/5
f 461/1/5 459/1/5 399/1/5
f 462/2/5 460/2/5 459/2/5
f 462/1/5 459/1/5 461/1/5
f 463/1/5 461/1/5 399/1/5
f 464/2/5 462/2/5 461/2/5
f 464/1/5 461/1/5 463/1/5
f 465/1/5 463/1/5 399/1/5
f 466/2/5 464/2/5 463/2/5
f 466/1/5 463/1/5 465/1/5
f 467/1/5 465/1/5 399/1/5
f 468/2/5 466/2/5 465/2/5
f 468/1/5 465/1/5 467/1/5
f 469/1/5 467/1/5 399/1/5
f 470/2/5 468/2/5 467/2/5
f 470/1/5 467/1/5 469/1/5
f 471/1/5 469/1/5 399/1/5
f 472/2/5 470/2/5 469/2/5
f 472/1/5 469/1/5 471/1/5
f 473/1/5 471/1/5 399/1/5
f 474/2/5 472/2/5 471/2/5
f 474/1/5 471/1/5 473/1/5
f 475/1/5 473/1/5 399/1/5
f 476/2/5 474/2/5 473/2/5
f 476/1/5 473/1/5 475/1/5
f 477/1/5 475/1/5 399/1/5
f 478/2/5 476/2/5 475/2/5
f 478/1/5 475/1/5 477/1/5
f 479/1/5 477/1/5 399/1/5
f 480/2/5 478/2/5 477/2/5
f 480/1/5 477/1/5 479/1/5
f 481/1/5 479/1/5 399/1/5
f 482/2/5 480/2/5 479/2/5
f 482/1/5 479/1/5 481/1/5
f 483/1/5 481/1/5 399/1/5
f 484/2/5 482/2/5 481/2/5
f 484/1/5 481/1/5 483/1/5
f 485/1/5 483/1/5 399/1/5
f 486/2/5 484/2/5 483/2/5
f 486/1/5 483/1/5 485/1/5
f 487/1/5 485/1/5 399/1/5
f 488/2/5 486/2/5 485/2/5
f 488/1/5 485/1/5 487/1/5
f 489/1/5 487/1/5 399/1/5
f 490/2/5 488/2/5 487/2/5
f 490/1/5 487/1/5 489/1/5
f 491/1/5 489/1/5 399/1/5
f 492/2/5 490/2/5 489/2/5
f 492/1/5 489/1/5 491/1/5
f 493/1/5 491/1/5 399/1/5
f 494/2/5 492/2/5 491/2/5
f 494/1/5 491/1/5 493/1/5
f 495/1/5 493/1/5 399/1/5
f 496/2/5 494/2/5 493/2/5
f 496/1/5 493/1/5 495/1/5
f 497/2/5 402/2/5 404/2/5
f 497/2/5 494/2/5 496/2/5
f 497/2/5 404/2/5 406/2/5
f 497/2/5 406/2/5 408/2/5
f 497/2/5 492/2/5 494/2/5
f 497/2/5 490/2/5 492/2/5
f 497/2/5 488/2/5 490/2/5
f 497/2/5 486/2/5 488/2/5
f 497/2/5 484/2/5 486/2/5
f 497/2/5 482/2/5 484/2/5
f 497/2/5 480/2/5 482/2/5
f 497/2/5 478/2/5 480/2/5
f 497/2/5 476/2/5 478/2/5
f 497/2/5 474/2/5 476/2/5
f 497/2/5 472/2/5 474/2/5
f 497/2/5 470/2/5 472/2/5
f 497/2/5 468/2/5 470/2/5
f 497/2/5 466/2/5 468/2/5
f 497/2/5 464/2/5 466/2/5
f 497/2/5 462/2/5 464/2/5
f 497/2/5 460/2/5 462/2/5
f 497/2/5 458/2/5 460/2/5
f 497/2/5 456/2/5 458/2/5
f 497/2/5 454/2/5 456/2/5
f 497/2/5 452/2/5 454/2/5
f 497/2/5 450/2/5 452/2/5
f 497/2/5 448/2/5 450/2/5
f 497/2/5 446/2/5 448/2/5
f 497/2/5 444/2/5 446/2/5
f 497/2/5 442/2/5 444/2/5
f 497/2/5 440/2/5 442/2/5
f 497/2/5 438/2/5 440/2/5
f 497/2/5 436/2/5 438/2/5
f 497/2/5 434/2/5 436/2/5
f 497/2/5 432/2/5 434/2/5
f 497/2/5 430/2/5 432/2/5
f 497/2/5 428/2/5 430/2/5
f 497/2/5 426/2/5 428/2/5
f 497/2/5 424/2/5 426/2/5
f 497/2/5 422/2/5 424/2/5
f 497/2/5 420/2/5 422/2/5
f 497/2/5 418/2/5 420/2/5
f 497/2/5 416/2/5 418/2/5
f 497/2/5 414/2/5 416/2/5
f 497/2/5 412/2/5 414/2/5
f 497/2/5 410/2/5 412/2/5
f 497/2/5 408/2/5 410/2/5
f 498/1/6 499/1/6 500/1/6
f 500/1/6 499/1/6 501/1/6
f 498/1/6 500/1/6 502/1/6
f 502/1/6 500/1/6 503/1/6
f 498/1/6 502/1/6 504/1/6
f 504/1/6 502/1/6 505/1/6
f 498/1/6 504/1/6 506/1/6
f 506/1/6 504/1/6 507/1/6
f 498/1/6 506/1/6 508/1/6
f 508/1/6 506/1/6 509/1/6
f 498/1/6 508/1/6 510/1/6
f 510/1/6 508/1/6 511/1/6
f 498/1/6 510/1/6 512/1/6
f 512/1/6 510/1/6 513/1/6
f 498/1/6 512/1/6 514/1/6
f 514/1/6 512/1/6 515/1/6
f 498/1/6 514/1/6 516/1/6
f 516/1/6 514/1/6 517/1/6
f 498/1/6 516/1/6 518/1/6
f 518/1/6 516/1/6 519/1/6
f 498/1/6 518/1/6 520/1/6
f 520/1/6 518/1/6 521/1/6
f 498/1/6 520/1/6 522/1/6
f 522/1/6 520/1/6 523/1/6
f 498/1/6 522/1/6 524/1/6
f 524/1/6 522/1/6 525/1/6
f 498/1/6 524/1/6 526/1/6
f 526/1/6 524/1/6 527/1/6
f 498/1/6 526/1/6 528/1/6
f 528/1/6 526/1/6 529/1/6
f 498/1/6 528/1/6 530/1/6
f 530/1/6 528/1/6 531/1/6
f 498/1/6 530/1/6 532/1/6
f 532/1/6 530/1/6 533/1/6
f 498/1/6 532/1/6 534/1/6
f 534/1/6 532/1/6 535/1/6
f 498/1/6 534/1/6 536/1/6
f 536/1/6 534/1/6 537/1/6
f 498/1/6 536/1/6 538/1/6
f 538/1/6 536/1/6 539/1/6
f 498/1/6 538/1/6 540/1/6
f 540/1/6 538/1/6 541/1/6
f 498/1/6 540/1/6 542/1/6
f 542/1/6 540/1/6 543/1/6
f 498/1/6 542/1/6 544/1/6
f 544/1/6 542/1/6 545/1/6
f 498/1/6 544/1/6 546/1/6
f 546/1/6 544/1/6 547/1/6
f 498/1/6 546/1/6 548/1/6
f 548/1/6 546/1/6 549/1/6
f 498/1/6 548/1/6 550/1/6
f 550/1/6 548/1/6 551/1/6
f 498/1/6 550/1/6 552/1/6
f 552/1/6 550/1/6 553/1/6
f 498/1/6 552/1/6 554/1/6
f 554/1/6 552/1/6 555/1/6
f 498/1/6 554/1/6 556/1/6
f 556/1/6 554/1/6 557/1/6
f 498/1/6 556/1/6 558/1/6
f 558/1/6 556/1/6 559/1/6
f 498/1/6 558/1/6 560/1/6
f 560/1/6 558/1/6 561/1/6
f 498/1/6 560/1/6 562/1/6
f 562/1/6 560/1/6 563/1/6
f 498/1/6 562/1/6 564/1/6
f 564/1/6 562/1/6 565/1/6
f 498/1/6 564/1/6 566/1/6
f 566/1/6 564/1/6 567/1/6
f 498/1/6 566/1/6 568/1/6
f 568/1/6 566/1/6 569/1/6
f 498/1/6 568/1/6 570/1/6
f 570/1/6 568/1/6 571/1/6
f 498/1/6 570/1/6 572/1/6
f 572/1/6 570/1/6 573/1/6
f 498/1/6 572/1/6 574/1/6
f 574/1/6 572/1/6 575/1/6
f 498/1/6 574/1/6 576/1/6
f 576/1/6 574/1/6 577/1/6
f 498/1/6 576/1/6 578/1/6
f 578/1/6 576/1/6 579/1/6
f 498/1/6 578/1/6 580/1/6
f 580/1/6 578/1/6 581/1/6
f 498/1/6 580/1/6 582/1/6
f 582/1/6 580/1/6 583/1/6
f 498/1/6 582/1/6 584/1/6
f 584/1/6 582/1/6 585/1/6
f 498/1/6 584/1/6 586/1/6
f 586/1/6 584/1/6 587/1/6
f 498/1/6 586/1/6 588/1/6
f 588/1/6 586/1/6 589/1/6
f 498/1/6 588/1/6 590/1/6
f 590/1/6 588/1/6 591/1/6
f 498/1/6 590/1/6 592/1/6
f 592/1/6 590/1/6 593/1/6
f 498/1/6 592/1/6 594/1/6
f 594/1/6 592/1/6 595/1/6
f 596/2/6 597/2/6 599/2/6
f 598/2/6 599/2/6 601/2/6
f 600/2/6 601/2/6 603/2/6
f 602/2/6 603/2/6 605/2/6
f 604/2/6 605/2/6 607/2/6
f 606/2/6 607/2/6 609/2/6
f 608/2/6 609/2/6 611/2/6
f 610/2/6 611/2/6 613/2/6
f 612/2/6 613/2/6 615/2/6
f 614/2/6 615/2/6 617/2/6
f 616/2/6 617/2/6 619/2/6
f 618/2/6 619/2/6 621/2/6
f 620/2/6 621/2/6 623/2/6
f 622/2/6 623/2/6 625/2/6
f 624/2/6 625/2/6 627/2/6
f 626/2/6 627/2/6 629/2/6
f 628/2/6 629/2/6 631/2/6
f 630/2/6 631/2/6 633/2/6
f 632/2/6 633/2/6 635/2/6
f 634/2/6 635/2/6 637/2/6
f 636/2/6 637/2/6 639/2/6
f 638/2/6 639/2/6 641/2/6
f 640/2/6 641/2/6 643/2/6
f 642/2/6 643/2/6 645/2/6
f 644/2/6 645/2/6 647/2/6
f 646/2/6 647/2/6 649/2/6
f 648/2/6 649/2/6 651/2/6
f 650/2/6 651/2/6 653/2/6
f 652/2/6 653/2/6 655/2/6
f 654/2/6 655/2/6 657/2/6
f 656/2/6 657/2/6 659/2/6
f 658/2/6 659/2/6 661/2/6
f 660/2/6 661/2/6 663/2/6
f 662/2/6 663/2/6 665/2/6
f 664/2/6 665/2/6 667/2/6
f 666/2/6 667/2/6 669/2/6
f 668/2/6 669/2/6 671/2/6
f 670/2/6 671/2/6 673/2/6
f 672/2/6 673/2/6 675/2/6
f 674/2/6 675/2/6 677/2/6
f 676/2/6 677/2/6 679/2/6
f 678/2/6 679/2/6 681/2/6
f 680/2/6 681/2/6 683/2/6
f 682/2/6 683/2/6 685/2/6
f 684/2/6 685/2/6 687/2/6
f 686/2/6 687/2/6 689/2/6
f 688/2/6 689/2/6 690/2/6
f 599/2/6 597/2/6 691/2/6
f 690/2/6 689/2/6 691/2/6
f 601/2/6 599/2/6 691/2/6
f 689/2/6 687/2/6 691/2/6
f 603/2/6 601/2/6 691/2/6
f 687/2/6 685/2/6 691/2/6
f 605/2/6 603/2/6 691/2/6
f 685/2/6 683/2/6 691/2/6
f 607/2/6 605/2/6 691/2/6
f 683/2/6 681/2/6 691/2/6
f 609/2/6 607/2/6 691/2/6
f 681/2/6 679/2/6 691/2/6
f 611/2/6 609/2/6 691/2/6
f 679/2/6 677/2/6 691/2/6
f 613/2/6 611/2/6 691/2/6
f 677/2/6 675/2/6 691/2/6
f 615/2/6 613/2/6 691/2/6
f 675/2/6 673/2/6 691/2/6
f 617/2/6 615/2/6 691/2/6
f 673/2/6 671/2/6 691/2/6
f 619/2/6 617/2/6 691/2/6
f 671/2/6 669/2/6 691/2/6
f 621/2/6 619/2/6 691/2/6
f 669/2/6 667/2/6 691/2/6
f 623/2/6 621/2/6 691/2/6
f 667/2/6 665/2/6 691/2/6
f 625/2/6 623/2/6 691/2/6
f 665/2/6 663/2/6 691/2/6
f 627/2/6 625/2/6 691/2/6
f 663/2/6 661/2/6 691/2/6
f 629/2/6 627/2/6 691/2/6
f 661/2/6 659/2/6 691/2/6
f 631/2/6 629/2/6 691/2/6
f 659/2/6 657/2/6 691/2/6
f 633/2/6 631/2/6 691/2/6
f 657/2/6 655/2/6 691/2/6
f 635/2/6 633/2/6 691/2/6
f 655/2/6 653/2/6 691/2/6
f 637/2/6 635/2/6 691/2/6
f 653/2/6 651/2/6 691/2/6
f 639/2/6 637/2/6 691/2/6
f 651/2/6 649/2/6 691/2/6
f 641/2/6 639/2/6 691/2/6
f 649/2/6 647/2/6 691/2/6
f 643/2/6 641/2/6 691/2/6
f 647/2/6 645/2/6 691/2/6
f 645/2/6 643/2/6 691/2/6
