# MagicaVoxel @ Ephtracy

# group
g Main Island-9

# material
mtllib Main Island-9.mtl
usemtl palette

# normals
vn -1 0 0
vn 1 0 0
vn 0 0 1
vn 0 0 -1
vn 0 -1 0
vn 0 1 0

# texcoords
vt 0.974609 0.5

# verts
v -51 0 -60
v -51 0 -63
v -51 4 -60
v -51 4 -63
v -50 0 -58
v -50 0 -60
v -50 4 -58
v -50 4 -60
v -49 0 -56
v -49 0 -58
v -49 4 -56
v -49 4 -58
v -48 0 -55
v -48 0 -56
v -48 4 -55
v -48 4 -56
v -47 0 -54
v -47 0 -55
v -47 4 -54
v -47 4 -55
v -46 0 -53
v -46 0 -54
v -46 4 -53
v -46 4 -54
v -45 0 -52
v -45 0 -53
v -45 4 -52
v -45 4 -53
v -44 0 -51
v -44 0 -52
v -44 4 -51
v -44 4 -52
v -43 0 -50
v -43 0 -51
v -43 4 -50
v -43 4 -51
v -42 0 -49
v -42 0 -50
v -42 4 -49
v -42 4 -50
v -41 0 -48
v -41 0 -49
v -41 4 -48
v -41 4 -49
v -40 0 -46
v -40 0 -48
v -40 4 -46
v -40 4 -48
v -38 0 -44
v -38 0 -46
v -38 4 -44
v -38 4 -46
v -37 0 -43
v -37 0 -44
v -37 4 -43
v -37 4 -44
v -35 0 -42
v -35 0 -43
v -35 4 -42
v -35 4 -43
v -34 0 -41
v -34 0 -42
v -34 4 -41
v -34 4 -42
v -33 0 -40
v -33 0 -41
v -33 4 -40
v -33 4 -41
v -32 0 -39
v -32 0 -40
v -32 4 -39
v -32 4 -40
v -31 0 -38
v -31 0 -39
v -31 4 -38
v -31 4 -39
v -30 0 -37
v -30 0 -38
v -30 4 -37
v -30 4 -38
v -29 0 -36
v -29 0 -37
v -29 4 -36
v -29 4 -37
v -28 0 -35
v -28 0 -36
v -28 4 -35
v -28 4 -36
v -26 0 -33
v -26 0 -35
v -26 4 -33
v -26 4 -35
v -25 0 -30
v -25 0 -33
v -25 4 -30
v -25 4 -33
v -24 0 -19
v -24 0 -30
v -24 4 -19
v -24 4 -30
v -23 0 -17
v -23 0 -19
v -23 4 -17
v -23 4 -19
v -22 0 -14
v -22 0 -17
v -22 4 -14
v -22 4 -17
v -21 0 -11
v -21 0 -14
v -21 4 -11
v -21 4 -14
v -20 0 -8
v -20 0 -11
v -20 4 -8
v -20 4 -11
v -19 0 -5
v -19 0 -8
v -19 4 -5
v -19 4 -8
v -18 0 -1
v -18 0 -5
v -18 4 -1
v -18 4 -5
v -17 0 4
v -17 0 -1
v -17 4 4
v -17 4 -1
v -16 0 7
v -16 0 4
v -16 4 7
v -16 4 4
v -15 0 9
v -15 0 7
v -15 4 9
v -15 4 7
v -14 0 11
v -14 0 9
v -14 4 11
v -14 4 9
v -12 0 12
v -12 0 11
v -12 4 12
v -12 4 11
v -11 0 14
v -11 0 12
v -11 4 14
v -11 4 12
v -10 0 15
v -10 0 14
v -10 4 15
v -10 4 14
v -9 0 22
v -9 0 15
v -9 4 22
v -9 4 15
v -8 0 27
v -8 0 22
v -8 4 27
v -8 4 22
v -7 0 30
v -7 0 27
v -7 4 30
v -7 4 27
v -6 0 33
v -6 0 30
v -6 4 33
v -6 4 30
v -5 0 36
v -5 0 33
v -5 4 36
v -5 4 33
v -4 0 38
v -4 0 36
v -4 4 38
v -4 4 36
v -3 0 41
v -3 0 38
v -3 4 41
v -3 4 38
v -2 0 47
v -2 0 41
v -2 4 47
v -2 4 41
v -1 0 50
v -1 0 47
v -1 4 50
v -1 4 47
v 0 0 52
v 0 0 50
v 0 4 52
v 0 4 50
v 1 0 56
v 1 0 52
v 1 4 56
v 1 4 52
v 2 0 60
v 2 0 56
v 2 4 60
v 2 4 56
v 3 0 61
v 3 0 60
v 3 4 61
v 3 4 60
v 4 0 63
v 4 0 61
v 4 4 63
v 4 4 61
v 63 0 63
v 63 0 -63
v 63 4 63
v 63 4 -63
v 4 0 63
v 4 4 63
v 63 0 63
v 63 4 63
v 3 0 61
v 3 4 61
v 4 0 61
v 4 4 61
v 2 0 60
v 2 4 60
v 3 0 60
v 3 4 60
v 1 0 56
v 1 4 56
v 2 0 56
v 2 4 56
v 0 0 52
v 0 4 52
v 1 0 52
v 1 4 52
v -1 0 50
v -1 4 50
v 0 0 50
v 0 4 50
v -2 0 47
v -2 4 47
v -1 0 47
v -1 4 47
v -3 0 41
v -3 4 41
v -2 0 41
v -2 4 41
v -4 0 38
v -4 4 38
v -3 0 38
v -3 4 38
v -5 0 36
v -5 4 36
v -4 0 36
v -4 4 36
v -6 0 33
v -6 4 33
v -5 0 33
v -5 4 33
v -7 0 30
v -7 4 30
v -6 0 30
v -6 4 30
v -8 0 27
v -8 4 27
v -7 0 27
v -7 4 27
v -9 0 22
v -9 4 22
v -8 0 22
v -8 4 22
v -10 0 15
v -10 4 15
v -9 0 15
v -9 4 15
v -11 0 14
v -11 4 14
v -10 0 14
v -10 4 14
v -12 0 12
v -12 4 12
v -11 0 12
v -11 4 12
v -14 0 11
v -14 4 11
v -12 0 11
v -12 4 11
v -15 0 9
v -15 4 9
v -14 0 9
v -14 4 9
v -16 0 7
v -16 4 7
v -15 0 7
v -15 4 7
v -17 0 4
v -17 4 4
v -16 0 4
v -16 4 4
v -18 0 -1
v -18 4 -1
v -17 0 -1
v -17 4 -1
v -19 0 -5
v -19 4 -5
v -18 0 -5
v -18 4 -5
v -20 0 -8
v -20 4 -8
v -19 0 -8
v -19 4 -8
v -21 0 -11
v -21 4 -11
v -20 0 -11
v -20 4 -11
v -22 0 -14
v -22 4 -14
v -21 0 -14
v -21 4 -14
v -23 0 -17
v -23 4 -17
v -22 0 -17
v -22 4 -17
v -24 0 -19
v -24 4 -19
v -23 0 -19
v -23 4 -19
v -25 0 -30
v -25 4 -30
v -24 0 -30
v -24 4 -30
v -26 0 -33
v -26 4 -33
v -25 0 -33
v -25 4 -33
v -28 0 -35
v -28 4 -35
v -26 0 -35
v -26 4 -35
v -29 0 -36
v -29 4 -36
v -28 0 -36
v -28 4 -36
v -30 0 -37
v -30 4 -37
v -29 0 -37
v -29 4 -37
v -31 0 -38
v -31 4 -38
v -30 0 -38
v -30 4 -38
v -32 0 -39
v -32 4 -39
v -31 0 -39
v -31 4 -39
v -33 0 -40
v -33 4 -40
v -32 0 -40
v -32 4 -40
v -34 0 -41
v -34 4 -41
v -33 0 -41
v -33 4 -41
v -35 0 -42
v -35 4 -42
v -34 0 -42
v -34 4 -42
v -37 0 -43
v -37 4 -43
v -35 0 -43
v -35 4 -43
v -38 0 -44
v -38 4 -44
v -37 0 -44
v -37 4 -44
v -40 0 -46
v -40 4 -46
v -38 0 -46
v -38 4 -46
v -41 0 -48
v -41 4 -48
v -40 0 -48
v -40 4 -48
v -42 0 -49
v -42 4 -49
v -41 0 -49
v -41 4 -49
v -43 0 -50
v -43 4 -50
v -42 0 -50
v -42 4 -50
v -44 0 -51
v -44 4 -51
v -43 0 -51
v -43 4 -51
v -45 0 -52
v -45 4 -52
v -44 0 -52
v -44 4 -52
v -46 0 -53
v -46 4 -53
v -45 0 -53
v -45 4 -53
v -47 0 -54
v -47 4 -54
v -46 0 -54
v -46 4 -54
v -48 0 -55
v -48 4 -55
v -47 0 -55
v -47 4 -55
v -49 0 -56
v -49 4 -56
v -48 0 -56
v -48 4 -56
v -50 0 -58
v -50 4 -58
v -49 0 -58
v -49 4 -58
v -51 0 -60
v -51 4 -60
v -50 0 -60
v -50 4 -60
v -51 0 -63
v -51 4 -63
v 63 0 -63
v 63 4 -63
v 4 0 63
v 63 0 63
v 3 0 61
v 4 0 61
v 2 0 60
v 3 0 60
v 1 0 56
v 2 0 56
v 0 0 52
v 1 0 52
v -1 0 50
v 0 0 50
v -2 0 47
v -1 0 47
v -3 0 41
v -2 0 41
v -4 0 38
v -3 0 38
v -5 0 36
v -4 0 36
v -6 0 33
v -5 0 33
v -7 0 30
v -6 0 30
v -8 0 27
v -7 0 27
v -9 0 22
v -8 0 22
v -10 0 15
v -9 0 15
v -11 0 14
v -10 0 14
v -12 0 12
v -11 0 12
v -14 0 11
v -12 0 11
v -15 0 9
v -14 0 9
v -16 0 7
v -15 0 7
v -17 0 4
v -16 0 4
v -18 0 -1
v -17 0 -1
v -19 0 -5
v -18 0 -5
v -20 0 -8
v -19 0 -8
v -21 0 -11
v -20 0 -11
v -22 0 -14
v -21 0 -14
v -23 0 -17
v -22 0 -17
v -24 0 -19
v -23 0 -19
v -25 0 -30
v -24 0 -30
v -26 0 -33
v -25 0 -33
v -28 0 -35
v -26 0 -35
v -29 0 -36
v -28 0 -36
v -30 0 -37
v -29 0 -37
v -31 0 -38
v -30 0 -38
v -32 0 -39
v -31 0 -39
v -33 0 -40
v -32 0 -40
v -34 0 -41
v -33 0 -41
v -35 0 -42
v -34 0 -42
v -37 0 -43
v -35 0 -43
v -38 0 -44
v -37 0 -44
v -40 0 -46
v -38 0 -46
v -41 0 -48
v -40 0 -48
v -42 0 -49
v -41 0 -49
v -43 0 -50
v -42 0 -50
v -44 0 -51
v -43 0 -51
v -45 0 -52
v -44 0 -52
v -46 0 -53
v -45 0 -53
v -47 0 -54
v -46 0 -54
v -48 0 -55
v -47 0 -55
v -49 0 -56
v -48 0 -56
v -50 0 -58
v -49 0 -58
v -51 0 -60
v -50 0 -60
v -51 0 -63
v 63 0 -63
v 4 4 63
v 63 4 63
v 3 4 61
v 4 4 61
v 2 4 60
v 3 4 60
v 1 4 56
v 2 4 56
v 0 4 52
v 1 4 52
v -1 4 50
v 0 4 50
v -2 4 47
v -1 4 47
v -3 4 41
v -2 4 41
v -4 4 38
v -3 4 38
v -5 4 36
v -4 4 36
v -6 4 33
v -5 4 33
v -7 4 30
v -6 4 30
v -8 4 27
v -7 4 27
v -9 4 22
v -8 4 22
v -10 4 15
v -9 4 15
v -11 4 14
v -10 4 14
v -12 4 12
v -11 4 12
v -14 4 11
v -12 4 11
v -15 4 9
v -14 4 9
v -16 4 7
v -15 4 7
v -17 4 4
v -16 4 4
v -18 4 -1
v -17 4 -1
v -19 4 -5
v -18 4 -5
v -20 4 -8
v -19 4 -8
v -21 4 -11
v -20 4 -11
v -22 4 -14
v -21 4 -14
v -23 4 -17
v -22 4 -17
v -24 4 -19
v -23 4 -19
v -25 4 -30
v -24 4 -30
v -26 4 -33
v -25 4 -33
v -28 4 -35
v -26 4 -35
v -29 4 -36
v -28 4 -36
v -30 4 -37
v -29 4 -37
v -31 4 -38
v -30 4 -38
v -32 4 -39
v -31 4 -39
v -33 4 -40
v -32 4 -40
v -34 4 -41
v -33 4 -41
v -35 4 -42
v -34 4 -42
v -37 4 -43
v -35 4 -43
v -38 4 -44
v -37 4 -44
v -40 4 -46
v -38 4 -46
v -41 4 -48
v -40 4 -48
v -42 4 -49
v -41 4 -49
v -43 4 -50
v -42 4 -50
v -44 4 -51
v -43 4 -51
v -45 4 -52
v -44 4 -52
v -46 4 -53
v -45 4 -53
v -47 4 -54
v -46 4 -54
v -48 4 -55
v -47 4 -55
v -49 4 -56
v -48 4 -56
v -50 4 -58
v -49 4 -58
v -51 4 -60
v -50 4 -60
v -51 4 -63
v 63 4 -63

# faces
f 3/1/1 2/1/1 1/1/1
f 4/1/1 2/1/1 3/1/1
f 7/1/1 6/1/1 5/1/1
f 8/1/1 6/1/1 7/1/1
f 11/1/1 10/1/1 9/1/1
f 12/1/1 10/1/1 11/1/1
f 15/1/1 14/1/1 13/1/1
f 16/1/1 14/1/1 15/1/1
f 19/1/1 18/1/1 17/1/1
f 20/1/1 18/1/1 19/1/1
f 23/1/1 22/1/1 21/1/1
f 24/1/1 22/1/1 23/1/1
f 27/1/1 26/1/1 25/1/1
f 28/1/1 26/1/1 27/1/1
f 31/1/1 30/1/1 29/1/1
f 32/1/1 30/1/1 31/1/1
f 35/1/1 34/1/1 33/1/1
f 36/1/1 34/1/1 35/1/1
f 39/1/1 38/1/1 37/1/1
f 40/1/1 38/1/1 39/1/1
f 43/1/1 42/1/1 41/1/1
f 44/1/1 42/1/1 43/1/1
f 47/1/1 46/1/1 45/1/1
f 48/1/1 46/1/1 47/1/1
f 51/1/1 50/1/1 49/1/1
f 52/1/1 50/1/1 51/1/1
f 55/1/1 54/1/1 53/1/1
f 56/1/1 54/1/1 55/1/1
f 59/1/1 58/1/1 57/1/1
f 60/1/1 58/1/1 59/1/1
f 63/1/1 62/1/1 61/1/1
f 64/1/1 62/1/1 63/1/1
f 67/1/1 66/1/1 65/1/1
f 68/1/1 66/1/1 67/1/1
f 71/1/1 70/1/1 69/1/1
f 72/1/1 70/1/1 71/1/1
f 75/1/1 74/1/1 73/1/1
f 76/1/1 74/1/1 75/1/1
f 79/1/1 78/1/1 77/1/1
f 80/1/1 78/1/1 79/1/1
f 83/1/1 82/1/1 81/1/1
f 84/1/1 82/1/1 83/1/1
f 87/1/1 86/1/1 85/1/1
f 88/1/1 86/1/1 87/1/1
f 91/1/1 90/1/1 89/1/1
f 92/1/1 90/1/1 91/1/1
f 95/1/1 94/1/1 93/1/1
f 96/1/1 94/1/1 95/1/1
f 99/1/1 98/1/1 97/1/1
f 100/1/1 98/1/1 99/1/1
f 103/1/1 102/1/1 101/1/1
f 104/1/1 102/1/1 103/1/1
f 107/1/1 106/1/1 105/1/1
f 108/1/1 106/1/1 107/1/1
f 111/1/1 110/1/1 109/1/1
f 112/1/1 110/1/1 111/1/1
f 115/1/1 114/1/1 113/1/1
f 116/1/1 114/1/1 115/1/1
f 119/1/1 118/1/1 117/1/1
f 120/1/1 118/1/1 119/1/1
f 123/1/1 122/1/1 121/1/1
f 124/1/1 122/1/1 123/1/1
f 127/1/1 126/1/1 125/1/1
f 128/1/1 126/1/1 127/1/1
f 131/1/1 130/1/1 129/1/1
f 132/1/1 130/1/1 131/1/1
f 135/1/1 134/1/1 133/1/1
f 136/1/1 134/1/1 135/1/1
f 139/1/1 138/1/1 137/1/1
f 140/1/1 138/1/1 139/1/1
f 143/1/1 142/1/1 141/1/1
f 144/1/1 142/1/1 143/1/1
f 147/1/1 146/1/1 145/1/1
f 148/1/1 146/1/1 147/1/1
f 151/1/1 150/1/1 149/1/1
f 152/1/1 150/1/1 151/1/1
f 155/1/1 154/1/1 153/1/1
f 156/1/1 154/1/1 155/1/1
f 159/1/1 158/1/1 157/1/1
f 160/1/1 158/1/1 159/1/1
f 163/1/1 162/1/1 161/1/1
f 164/1/1 162/1/1 163/1/1
f 167/1/1 166/1/1 165/1/1
f 168/1/1 166/1/1 167/1/1
f 171/1/1 170/1/1 169/1/1
f 172/1/1 170/1/1 171/1/1
f 175/1/1 174/1/1 173/1/1
f 176/1/1 174/1/1 175/1/1
f 179/1/1 178/1/1 177/1/1
f 180/1/1 178/1/1 179/1/1
f 183/1/1 182/1/1 181/1/1
f 184/1/1 182/1/1 183/1/1
f 187/1/1 186/1/1 185/1/1
f 188/1/1 186/1/1 187/1/1
f 191/1/1 190/1/1 189/1/1
f 192/1/1 190/1/1 191/1/1
f 195/1/1 194/1/1 193/1/1
f 196/1/1 194/1/1 195/1/1
f 199/1/1 198/1/1 197/1/1
f 200/1/1 198/1/1 199/1/1
f 203/1/1 202/1/1 201/1/1
f 204/1/1 202/1/1 203/1/1
f 207/1/1 206/1/1 205/1/1
f 208/1/1 206/1/1 207/1/1
f 209/1/2 210/1/2 211/1/2
f 211/1/2 210/1/2 212/1/2
f 215/1/3 214/1/3 213/1/3
f 216/1/3 214/1/3 215/1/3
f 219/1/3 218/1/3 217/1/3
f 220/1/3 218/1/3 219/1/3
f 223/1/3 222/1/3 221/1/3
f 224/1/3 222/1/3 223/1/3
f 227/1/3 226/1/3 225/1/3
f 228/1/3 226/1/3 227/1/3
f 231/1/3 230/1/3 229/1/3
f 232/1/3 230/1/3 231/1/3
f 235/1/3 234/1/3 233/1/3
f 236/1/3 234/1/3 235/1/3
f 239/1/3 238/1/3 237/1/3
f 240/1/3 238/1/3 239/1/3
f 243/1/3 242/1/3 241/1/3
f 244/1/3 242/1/3 243/1/3
f 247/1/3 246/1/3 245/1/3
f 248/1/3 246/1/3 247/1/3
f 251/1/3 250/1/3 249/1/3
f 252/1/3 250/1/3 251/1/3
f 255/1/3 254/1/3 253/1/3
f 256/1/3 254/1/3 255/1/3
f 259/1/3 258/1/3 257/1/3
f 260/1/3 258/1/3 259/1/3
f 263/1/3 262/1/3 261/1/3
f 264/1/3 262/1/3 263/1/3
f 267/1/3 266/1/3 265/1/3
f 268/1/3 266/1/3 267/1/3
f 271/1/3 270/1/3 269/1/3
f 272/1/3 270/1/3 271/1/3
f 275/1/3 274/1/3 273/1/3
f 276/1/3 274/1/3 275/1/3
f 279/1/3 278/1/3 277/1/3
f 280/1/3 278/1/3 279/1/3
f 283/1/3 282/1/3 281/1/3
f 284/1/3 282/1/3 283/1/3
f 287/1/3 286/1/3 285/1/3
f 288/1/3 286/1/3 287/1/3
f 291/1/3 290/1/3 289/1/3
f 292/1/3 290/1/3 291/1/3
f 295/1/3 294/1/3 293/1/3
f 296/1/3 294/1/3 295/1/3
f 299/1/3 298/1/3 297/1/3
f 300/1/3 298/1/3 299/1/3
f 303/1/3 302/1/3 301/1/3
f 304/1/3 302/1/3 303/1/3
f 307/1/3 306/1/3 305/1/3
f 308/1/3 306/1/3 307/1/3
f 311/1/3 310/1/3 309/1/3
f 312/1/3 310/1/3 311/1/3
f 315/1/3 314/1/3 313/1/3
f 316/1/3 314/1/3 315/1/3
f 319/1/3 318/1/3 317/1/3
f 320/1/3 318/1/3 319/1/3
f 323/1/3 322/1/3 321/1/3
f 324/1/3 322/1/3 323/1/3
f 327/1/3 326/1/3 325/1/3
f 328/1/3 326/1/3 327/1/3
f 331/1/3 330/1/3 329/1/3
f 332/1/3 330/1/3 331/1/3
f 335/1/3 334/1/3 333/1/3
f 336/1/3 334/1/3 335/1/3
f 339/1/3 338/1/3 337/1/3
f 340/1/3 338/1/3 339/1/3
f 343/1/3 342/1/3 341/1/3
f 344/1/3 342/1/3 343/1/3
f 347/1/3 346/1/3 345/1/3
f 348/1/3 346/1/3 347/1/3
f 351/1/3 350/1/3 349/1/3
f 352/1/3 350/1/3 351/1/3
f 355/1/3 354/1/3 353/1/3
f 356/1/3 354/1/3 355/1/3
f 359/1/3 358/1/3 357/1/3
f 360/1/3 358/1/3 359/1/3
f 363/1/3 362/1/3 361/1/3
f 364/1/3 362/1/3 363/1/3
f 367/1/3 366/1/3 365/1/3
f 368/1/3 366/1/3 367/1/3
f 371/1/3 370/1/3 369/1/3
f 372/1/3 370/1/3 371/1/3
f 375/1/3 374/1/3 373/1/3
f 376/1/3 374/1/3 375/1/3
f 379/1/3 378/1/3 377/1/3
f 380/1/3 378/1/3 379/1/3
f 383/1/3 382/1/3 381/1/3
f 384/1/3 382/1/3 383/1/3
f 387/1/3 386/1/3 385/1/3
f 388/1/3 386/1/3 387/1/3
f 391/1/3 390/1/3 389/1/3
f 392/1/3 390/1/3 391/1/3
f 395/1/3 394/1/3 393/1/3
f 396/1/3 394/1/3 395/1/3
f 399/1/3 398/1/3 397/1/3
f 400/1/3 398/1/3 399/1/3
f 403/1/3 402/1/3 401/1/3
f 404/1/3 402/1/3 403/1/3
f 407/1/3 406/1/3 405/1/3
f 408/1/3 406/1/3 407/1/3
f 411/1/3 410/1/3 409/1/3
f 412/1/3 410/1/3 411/1/3
f 415/1/3 414/1/3 413/1/3
f 416/1/3 414/1/3 415/1/3
f 419/1/3 418/1/3 417/1/3
f 420/1/3 418/1/3 419/1/3
f 421/1/4 422/1/4 423/1/4
f 423/1/4 422/1/4 424/1/4
f 428/1/5 426/1/5 425/1/5
f 430/1/5 428/1/5 427/1/5
f 432/1/5 430/1/5 429/1/5
f 434/1/5 432/1/5 431/1/5
f 436/1/5 434/1/5 433/1/5
f 438/1/5 436/1/5 435/1/5
f 440/1/5 438/1/5 437/1/5
f 442/1/5 440/1/5 439/1/5
f 444/1/5 442/1/5 441/1/5
f 446/1/5 444/1/5 443/1/5
f 448/1/5 446/1/5 445/1/5
f 450/1/5 448/1/5 447/1/5
f 452/1/5 450/1/5 449/1/5
f 454/1/5 452/1/5 451/1/5
f 456/1/5 454/1/5 453/1/5
f 458/1/5 456/1/5 455/1/5
f 460/1/5 458/1/5 457/1/5
f 462/1/5 460/1/5 459/1/5
f 464/1/5 462/1/5 461/1/5
f 466/1/5 464/1/5 463/1/5
f 468/1/5 466/1/5 465/1/5
f 470/1/5 468/1/5 467/1/5
f 472/1/5 470/1/5 469/1/5
f 474/1/5 472/1/5 471/1/5
f 476/1/5 474/1/5 473/1/5
f 478/1/5 476/1/5 475/1/5
f 480/1/5 478/1/5 477/1/5
f 482/1/5 480/1/5 479/1/5
f 484/1/5 482/1/5 481/1/5
f 486/1/5 484/1/5 483/1/5
f 488/1/5 486/1/5 485/1/5
f 490/1/5 488/1/5 487/1/5
f 492/1/5 490/1/5 489/1/5
f 494/1/5 492/1/5 491/1/5
f 496/1/5 494/1/5 493/1/5
f 498/1/5 496/1/5 495/1/5
f 500/1/5 498/1/5 497/1/5
f 502/1/5 500/1/5 499/1/5
f 504/1/5 502/1/5 501/1/5
f 506/1/5 504/1/5 503/1/5
f 508/1/5 506/1/5 505/1/5
f 510/1/5 508/1/5 507/1/5
f 512/1/5 510/1/5 509/1/5
f 514/1/5 512/1/5 511/1/5
f 516/1/5 514/1/5 513/1/5
f 518/1/5 516/1/5 515/1/5
f 520/1/5 518/1/5 517/1/5
f 522/1/5 520/1/5 519/1/5
f 524/1/5 522/1/5 521/1/5
f 526/1/5 524/1/5 523/1/5
f 528/1/5 526/1/5 525/1/5
f 529/1/5 528/1/5 527/1/5
f 530/1/5 426/1/5 428/1/5
f 530/1/5 528/1/5 529/1/5
f 530/1/5 428/1/5 430/1/5
f 530/1/5 526/1/5 528/1/5
f 530/1/5 430/1/5 432/1/5
f 530/1/5 524/1/5 526/1/5
f 530/1/5 432/1/5 434/1/5
f 530/1/5 522/1/5 524/1/5
f 530/1/5 434/1/5 436/1/5
f 530/1/5 520/1/5 522/1/5
f 530/1/5 436/1/5 438/1/5
f 530/1/5 518/1/5 520/1/5
f 530/1/5 438/1/5 440/1/5
f 530/1/5 516/1/5 518/1/5
f 530/1/5 440/1/5 442/1/5
f 530/1/5 514/1/5 516/1/5
f 530/1/5 442/1/5 444/1/5
f 530/1/5 512/1/5 514/1/5
f 530/1/5 444/1/5 446/1/5
f 530/1/5 510/1/5 512/1/5
f 530/1/5 446/1/5 448/1/5
f 530/1/5 508/1/5 510/1/5
f 530/1/5 448/1/5 450/1/5
f 530/1/5 506/1/5 508/1/5
f 530/1/5 450/1/5 452/1/5
f 530/1/5 504/1/5 506/1/5
f 530/1/5 452/1/5 454/1/5
f 530/1/5 502/1/5 504/1/5
f 530/1/5 454/1/5 456/1/5
f 530/1/5 500/1/5 502/1/5
f 530/1/5 456/1/5 458/1/5
f 530/1/5 498/1/5 500/1/5
f 530/1/5 458/1/5 460/1/5
f 530/1/5 496/1/5 498/1/5
f 530/1/5 460/1/5 462/1/5
f 530/1/5 494/1/5 496/1/5
f 530/1/5 462/1/5 464/1/5
f 530/1/5 492/1/5 494/1/5
f 530/1/5 464/1/5 466/1/5
f 530/1/5 490/1/5 492/1/5
f 530/1/5 466/1/5 468/1/5
f 530/1/5 488/1/5 490/1/5
f 530/1/5 468/1/5 470/1/5
f 530/1/5 486/1/5 488/1/5
f 530/1/5 470/1/5 472/1/5
f 530/1/5 484/1/5 486/1/5
f 530/1/5 472/1/5 474/1/5
f 530/1/5 482/1/5 484/1/5
f 530/1/5 474/1/5 476/1/5
f 530/1/5 480/1/5 482/1/5
f 530/1/5 476/1/5 478/1/5
f 530/1/5 478/1/5 480/1/5
f 531/1/6 532/1/6 534/1/6
f 533/1/6 534/1/6 536/1/6
f 535/1/6 536/1/6 538/1/6
f 537/1/6 538/1/6 540/1/6
f 539/1/6 540/1/6 542/1/6
f 541/1/6 542/1/6 544/1/6
f 543/1/6 544/1/6 546/1/6
f 545/1/6 546/1/6 548/1/6
f 547/1/6 548/1/6 550/1/6
f 549/1/6 550/1/6 552/1/6
f 551/1/6 552/1/6 554/1/6
f 553/1/6 554/1/6 556/1/6
f 555/1/6 556/1/6 558/1/6
f 557/1/6 558/1/6 560/1/6
f 559/1/6 560/1/6 562/1/6
f 561/1/6 562/1/6 564/1/6
f 563/1/6 564/1/6 566/1/6
f 565/1/6 566/1/6 568/1/6
f 567/1/6 568/1/6 570/1/6
f 569/1/6 570/1/6 572/1/6
f 571/1/6 572/1/6 574/1/6
f 573/1/6 574/1/6 576/1/6
f 575/1/6 576/1/6 578/1/6
f 577/1/6 578/1/6 580/1/6
f 579/1/6 580/1/6 582/1/6
f 581/1/6 582/1/6 584/1/6
f 583/1/6 584/1/6 586/1/6
f 585/1/6 586/1/6 588/1/6
f 587/1/6 588/1/6 590/1/6
f 589/1/6 590/1/6 592/1/6
f 591/1/6 592/1/6 594/1/6
f 593/1/6 594/1/6 596/1/6
f 595/1/6 596/1/6 598/1/6
f 597/1/6 598/1/6 600/1/6
f 599/1/6 600/1/6 602/1/6
f 601/1/6 602/1/6 604/1/6
f 603/1/6 604/1/6 606/1/6
f 605/1/6 606/1/6 608/1/6
f 607/1/6 608/1/6 610/1/6
f 609/1/6 610/1/6 612/1/6
f 611/1/6 612/1/6 614/1/6
f 613/1/6 614/1/6 616/1/6
f 615/1/6 616/1/6 618/1/6
f 617/1/6 618/1/6 620/1/6
f 619/1/6 620/1/6 622/1/6
f 621/1/6 622/1/6 624/1/6
f 623/1/6 624/1/6 626/1/6
f 625/1/6 626/1/6 628/1/6
f 627/1/6 628/1/6 630/1/6
f 629/1/6 630/1/6 632/1/6
f 631/1/6 632/1/6 634/1/6
f 633/1/6 634/1/6 635/1/6
f 534/1/6 532/1/6 636/1/6
f 635/1/6 634/1/6 636/1/6
f 536/1/6 534/1/6 636/1/6
f 634/1/6 632/1/6 636/1/6
f 538/1/6 536/1/6 636/1/6
f 632/1/6 630/1/6 636/1/6
f 540/1/6 538/1/6 636/1/6
f 630/1/6 628/1/6 636/1/6
f 542/1/6 540/1/6 636/1/6
f 628/1/6 626/1/6 636/1/6
f 544/1/6 542/1/6 636/1/6
f 626/1/6 624/1/6 636/1/6
f 546/1/6 544/1/6 636/1/6
f 624/1/6 622/1/6 636/1/6
f 548/1/6 546/1/6 636/1/6
f 622/1/6 620/1/6 636/1/6
f 550/1/6 548/1/6 636/1/6
f 620/1/6 618/1/6 636/1/6
f 552/1/6 550/1/6 636/1/6
f 618/1/6 616/1/6 636/1/6
f 554/1/6 552/1/6 636/1/6
f 616/1/6 614/1/6 636/1/6
f 556/1/6 554/1/6 636/1/6
f 614/1/6 612/1/6 636/1/6
f 558/1/6 556/1/6 636/1/6
f 612/1/6 610/1/6 636/1/6
f 560/1/6 558/1/6 636/1/6
f 610/1/6 608/1/6 636/1/6
f 562/1/6 560/1/6 636/1/6
f 608/1/6 606/1/6 636/1/6
f 564/1/6 562/1/6 636/1/6
f 606/1/6 604/1/6 636/1/6
f 566/1/6 564/1/6 636/1/6
f 604/1/6 602/1/6 636/1/6
f 568/1/6 566/1/6 636/1/6
f 602/1/6 600/1/6 636/1/6
f 570/1/6 568/1/6 636/1/6
f 600/1/6 598/1/6 636/1/6
f 572/1/6 570/1/6 636/1/6
f 598/1/6 596/1/6 636/1/6
f 574/1/6 572/1/6 636/1/6
f 596/1/6 594/1/6 636/1/6
f 576/1/6 574/1/6 636/1/6
f 594/1/6 592/1/6 636/1/6
f 578/1/6 576/1/6 636/1/6
f 592/1/6 590/1/6 636/1/6
f 580/1/6 578/1/6 636/1/6
f 590/1/6 588/1/6 636/1/6
f 582/1/6 580/1/6 636/1/6
f 588/1/6 586/1/6 636/1/6
f 584/1/6 582/1/6 636/1/6
f 586/1/6 584/1/6 636/1/6
