# MagicaVoxel @ Ephtracy

# group
g Light House-21

# material
mtllib Light House-21.mtl
usemtl palette

# normals
vn -1 0 0
vn 1 0 0
vn 0 0 1
vn 0 0 -1
vn 0 -1 0
vn 0 1 0

# texcoords
vt 0.716797 0.5
vt 0.974609 0.5

# verts
v -63 0 63
v -63 0 -63
v -63 1 63
v -63 1 -63
v -14 1 57
v -14 1 48
v -14 4 57
v -14 4 48
v -13 1 60
v -13 1 57
v -13 1 48
v -13 1 45
v -13 4 60
v -13 4 57
v -13 4 48
v -13 4 45
v -12 1 63
v -12 1 60
v -12 1 45
v -12 1 43
v -12 4 63
v -12 4 60
v -12 4 45
v -12 4 43
v -11 1 43
v -11 1 38
v -11 4 43
v -11 4 38
v -10 1 38
v -10 1 36
v -10 4 38
v -10 4 36
v -9 1 36
v -9 1 34
v -9 4 36
v -9 4 34
v -7 1 34
v -7 1 33
v -7 4 34
v -7 4 33
v -6 1 33
v -6 1 32
v -6 4 33
v -6 4 32
v -5 1 32
v -5 1 31
v -5 4 32
v -5 4 31
v -4 1 31
v -4 1 30
v -4 4 31
v -4 4 30
v 2 1 30
v 2 1 29
v 2 4 30
v 2 4 29
v 5 1 29
v 5 1 28
v 5 4 29
v 5 4 28
v 9 1 28
v 9 1 27
v 9 4 28
v 9 4 27
v 11 1 27
v 11 1 26
v 11 4 27
v 11 4 26
v 13 1 26
v 13 1 24
v 13 4 26
v 13 4 24
v 14 1 24
v 14 1 23
v 14 4 24
v 14 4 23
v 16 1 23
v 16 1 21
v 16 4 23
v 16 4 21
v 17 1 21
v 17 1 20
v 17 4 21
v 17 4 20
v 18 1 20
v 18 1 19
v 18 4 20
v 18 4 19
v 20 1 19
v 20 1 18
v 20 4 19
v 20 4 18
v 21 1 18
v 21 1 17
v 21 4 18
v 21 4 17
v 22 1 17
v 22 1 13
v 22 4 17
v 22 4 13
v 23 1 13
v 23 1 11
v 23 4 13
v 23 4 11
v 25 1 11
v 25 1 10
v 25 4 11
v 25 4 10
v 26 1 10
v 26 1 9
v 26 4 10
v 26 4 9
v 28 1 9
v 28 1 8
v 28 4 9
v 28 4 8
v 29 1 8
v 29 1 7
v 29 4 8
v 29 4 7
v 30 1 7
v 30 1 6
v 30 4 7
v 30 4 6
v 31 1 6
v 31 1 4
v 31 4 6
v 31 4 4
v 33 1 4
v 33 1 3
v 33 4 4
v 33 4 3
v 34 1 3
v 34 1 2
v 34 4 3
v 34 4 2
v 35 1 2
v 35 1 1
v 35 4 2
v 35 4 1
v 37 1 1
v 37 1 -1
v 37 4 1
v 37 4 -1
v 38 1 -1
v 38 1 -2
v 38 4 -1
v 38 4 -2
v 39 1 -2
v 39 1 -3
v 39 4 -2
v 39 4 -3
v 40 1 -3
v 40 1 -5
v 40 4 -3
v 40 4 -5
v 41 1 -5
v 41 1 -6
v 41 4 -5
v 41 4 -6
v 42 1 -6
v 42 1 -23
v 42 4 -6
v 42 4 -23
v 43 1 -23
v 43 1 -28
v 43 4 -23
v 43 4 -28
v 44 1 -28
v 44 1 -44
v 44 4 -28
v 44 4 -44
v 45 1 -44
v 45 1 -48
v 45 4 -44
v 45 4 -48
v 46 1 -48
v 46 1 -50
v 46 4 -48
v 46 4 -50
v 47 1 -50
v 47 1 -52
v 47 4 -50
v 47 4 -52
v 50 1 -52
v 50 1 -53
v 50 4 -52
v 50 4 -53
v 56 1 -53
v 56 1 -54
v 56 4 -53
v 56 4 -54
v 61 1 -54
v 61 1 -55
v 61 4 -54
v 61 4 -55
v 63 0 63
v 63 0 -55
v 63 0 -63
v 63 1 -55
v 63 1 -63
v 63 4 63
v 63 4 -55
v -63 0 63
v -63 1 63
v -12 0 63
v -12 1 63
v -12 4 63
v 63 0 63
v 63 4 63
v -13 1 60
v -13 4 60
v -12 1 60
v -12 4 60
v -14 1 57
v -14 4 57
v -13 1 57
v -13 4 57
v -14 1 48
v -14 4 48
v -13 1 48
v -13 4 48
v -13 1 45
v -13 4 45
v -12 1 45
v -12 4 45
v -12 1 43
v -12 4 43
v -11 1 43
v -11 4 43
v -11 1 38
v -11 4 38
v -10 1 38
v -10 4 38
v -10 1 36
v -10 4 36
v -9 1 36
v -9 4 36
v -9 1 34
v -9 4 34
v -7 1 34
v -7 4 34
v -7 1 33
v -7 4 33
v -6 1 33
v -6 4 33
v -6 1 32
v -6 4 32
v -5 1 32
v -5 4 32
v -5 1 31
v -5 4 31
v -4 1 31
v -4 4 31
v -4 1 30
v -4 4 30
v 2 1 30
v 2 4 30
v 2 1 29
v 2 4 29
v 5 1 29
v 5 4 29
v 5 1 28
v 5 4 28
v 9 1 28
v 9 4 28
v 9 1 27
v 9 4 27
v 11 1 27
v 11 4 27
v 11 1 26
v 11 4 26
v 13 1 26
v 13 4 26
v 13 1 24
v 13 4 24
v 14 1 24
v 14 4 24
v 14 1 23
v 14 4 23
v 16 1 23
v 16 4 23
v 16 1 21
v 16 4 21
v 17 1 21
v 17 4 21
v 17 1 20
v 17 4 20
v 18 1 20
v 18 4 20
v 18 1 19
v 18 4 19
v 20 1 19
v 20 4 19
v 20 1 18
v 20 4 18
v 21 1 18
v 21 4 18
v 21 1 17
v 21 4 17
v 22 1 17
v 22 4 17
v 22 1 13
v 22 4 13
v 23 1 13
v 23 4 13
v 23 1 11
v 23 4 11
v 25 1 11
v 25 4 11
v 25 1 10
v 25 4 10
v 26 1 10
v 26 4 10
v 26 1 9
v 26 4 9
v 28 1 9
v 28 4 9
v 28 1 8
v 28 4 8
v 29 1 8
v 29 4 8
v 29 1 7
v 29 4 7
v 30 1 7
v 30 4 7
v 30 1 6
v 30 4 6
v 31 1 6
v 31 4 6
v 31 1 4
v 31 4 4
v 33 1 4
v 33 4 4
v 33 1 3
v 33 4 3
v 34 1 3
v 34 4 3
v 34 1 2
v 34 4 2
v 35 1 2
v 35 4 2
v 35 1 1
v 35 4 1
v 37 1 1
v 37 4 1
v 37 1 -1
v 37 4 -1
v 38 1 -1
v 38 4 -1
v 38 1 -2
v 38 4 -2
v 39 1 -2
v 39 4 -2
v 39 1 -3
v 39 4 -3
v 40 1 -3
v 40 4 -3
v 40 1 -5
v 40 4 -5
v 41 1 -5
v 41 4 -5
v 41 1 -6
v 41 4 -6
v 42 1 -6
v 42 4 -6
v 42 1 -23
v 42 4 -23
v 43 1 -23
v 43 4 -23
v 43 1 -28
v 43 4 -28
v 44 1 -28
v 44 4 -28
v 44 1 -44
v 44 4 -44
v 45 1 -44
v 45 4 -44
v 45 1 -48
v 45 4 -48
v 46 1 -48
v 46 4 -48
v 46 1 -50
v 46 4 -50
v 47 1 -50
v 47 4 -50
v 47 1 -52
v 47 4 -52
v 50 1 -52
v 50 4 -52
v 50 1 -53
v 50 4 -53
v 56 1 -53
v 56 4 -53
v 56 1 -54
v 56 4 -54
v 61 1 -54
v 61 4 -54
v 61 1 -55
v 61 4 -55
v 63 1 -55
v 63 4 -55
v -63 0 -63
v -63 1 -63
v 63 0 -63
v 63 1 -63
v -63 0 63
v -12 0 63
v 63 0 63
v -13 0 60
v -12 0 60
v -14 0 57
v -13 0 57
v -14 0 48
v -13 0 48
v -13 0 45
v -12 0 45
v -12 0 43
v -11 0 43
v -11 0 38
v -10 0 38
v -10 0 36
v -9 0 36
v -9 0 34
v -7 0 34
v -7 0 33
v -6 0 33
v -6 0 32
v -5 0 32
v -5 0 31
v -4 0 31
v -4 0 30
v 2 0 30
v 2 0 29
v 5 0 29
v 5 0 28
v 9 0 28
v 9 0 27
v 11 0 27
v 11 0 26
v 13 0 26
v 13 0 24
v 14 0 24
v 14 0 23
v 16 0 23
v 16 0 21
v 17 0 21
v 17 0 20
v 18 0 20
v 18 0 19
v 20 0 19
v 20 0 18
v 21 0 18
v 21 0 17
v 22 0 17
v 22 0 13
v 23 0 13
v 23 0 11
v 25 0 11
v 25 0 10
v 26 0 10
v 26 0 9
v 28 0 9
v 28 0 8
v 29 0 8
v 29 0 7
v 30 0 7
v 30 0 6
v 31 0 6
v 31 0 4
v 33 0 4
v 33 0 3
v 34 0 3
v 34 0 2
v 35 0 2
v 35 0 1
v 37 0 1
v 37 0 -1
v 38 0 -1
v 38 0 -2
v 39 0 -2
v 39 0 -3
v 40 0 -3
v 40 0 -5
v 41 0 -5
v 41 0 -6
v 42 0 -6
v 42 0 -23
v 43 0 -23
v 43 0 -28
v 44 0 -28
v 44 0 -44
v 45 0 -44
v 45 0 -48
v 46 0 -48
v 46 0 -50
v 47 0 -50
v 47 0 -52
v 50 0 -52
v 50 0 -53
v 56 0 -53
v 56 0 -54
v 61 0 -54
v 61 0 -55
v 63 0 -55
v -63 0 -63
v 63 0 -63
v -63 1 63
v -12 1 63
v -13 1 60
v -12 1 60
v -14 1 57
v -13 1 57
v -14 1 48
v -13 1 48
v -13 1 45
v -12 1 45
v -12 1 43
v -11 1 43
v -11 1 38
v -10 1 38
v -10 1 36
v -9 1 36
v -9 1 34
v -7 1 34
v -7 1 33
v -6 1 33
v -6 1 32
v -5 1 32
v -5 1 31
v -4 1 31
v -4 1 30
v 2 1 30
v 2 1 29
v 5 1 29
v 5 1 28
v 9 1 28
v 9 1 27
v 11 1 27
v 11 1 26
v 13 1 26
v 13 1 24
v 14 1 24
v 14 1 23
v 16 1 23
v 16 1 21
v 17 1 21
v 17 1 20
v 18 1 20
v 18 1 19
v 20 1 19
v 20 1 18
v 21 1 18
v 21 1 17
v 22 1 17
v 22 1 13
v 23 1 13
v 23 1 11
v 25 1 11
v 25 1 10
v 26 1 10
v 26 1 9
v 28 1 9
v 28 1 8
v 29 1 8
v 29 1 7
v 30 1 7
v 30 1 6
v 31 1 6
v 31 1 4
v 33 1 4
v 33 1 3
v 34 1 3
v 34 1 2
v 35 1 2
v 35 1 1
v 37 1 1
v 37 1 -1
v 38 1 -1
v 38 1 -2
v 39 1 -2
v 39 1 -3
v 40 1 -3
v 40 1 -5
v 41 1 -5
v 41 1 -6
v 42 1 -6
v 42 1 -23
v 43 1 -23
v 43 1 -28
v 44 1 -28
v 44 1 -44
v 45 1 -44
v 45 1 -48
v 46 1 -48
v 46 1 -50
v 47 1 -50
v 47 1 -52
v 50 1 -52
v 50 1 -53
v 56 1 -53
v 56 1 -54
v 61 1 -54
v 61 1 -55
v 63 1 -55
v -63 1 -63
v 63 1 -63
v -12 4 63
v 63 4 63
v -13 4 60
v -12 4 60
v -14 4 57
v -13 4 57
v -14 4 48
v -13 4 48
v -13 4 45
v -12 4 45
v -12 4 43
v -11 4 43
v -11 4 38
v -10 4 38
v -10 4 36
v -9 4 36
v -9 4 34
v -7 4 34
v -7 4 33
v -6 4 33
v -6 4 32
v -5 4 32
v -5 4 31
v -4 4 31
v -4 4 30
v 2 4 30
v 2 4 29
v 5 4 29
v 5 4 28
v 9 4 28
v 9 4 27
v 11 4 27
v 11 4 26
v 13 4 26
v 13 4 24
v 14 4 24
v 14 4 23
v 16 4 23
v 16 4 21
v 17 4 21
v 17 4 20
v 18 4 20
v 18 4 19
v 20 4 19
v 20 4 18
v 21 4 18
v 21 4 17
v 22 4 17
v 22 4 13
v 23 4 13
v 23 4 11
v 25 4 11
v 25 4 10
v 26 4 10
v 26 4 9
v 28 4 9
v 28 4 8
v 29 4 8
v 29 4 7
v 30 4 7
v 30 4 6
v 31 4 6
v 31 4 4
v 33 4 4
v 33 4 3
v 34 4 3
v 34 4 2
v 35 4 2
v 35 4 1
v 37 4 1
v 37 4 -1
v 38 4 -1
v 38 4 -2
v 39 4 -2
v 39 4 -3
v 40 4 -3
v 40 4 -5
v 41 4 -5
v 41 4 -6
v 42 4 -6
v 42 4 -23
v 43 4 -23
v 43 4 -28
v 44 4 -28
v 44 4 -44
v 45 4 -44
v 45 4 -48
v 46 4 -48
v 46 4 -50
v 47 4 -50
v 47 4 -52
v 50 4 -52
v 50 4 -53
v 56 4 -53
v 56 4 -54
v 61 4 -54
v 61 4 -55
v 63 4 -55

# faces
f 3/1/1 2/1/1 1/1/1
f 4/1/1 2/1/1 3/1/1
f 7/2/1 6/2/1 5/2/1
f 8/2/1 6/2/1 7/2/1
f 13/2/1 10/2/1 9/2/1
f 14/2/1 10/2/1 13/2/1
f 15/2/1 12/2/1 11/2/1
f 16/2/1 12/2/1 15/2/1
f 21/2/1 18/2/1 17/2/1
f 22/2/1 18/2/1 21/2/1
f 23/2/1 20/2/1 19/2/1
f 24/2/1 20/2/1 23/2/1
f 27/2/1 26/2/1 25/2/1
f 28/2/1 26/2/1 27/2/1
f 31/2/1 30/2/1 29/2/1
f 32/2/1 30/2/1 31/2/1
f 35/2/1 34/2/1 33/2/1
f 36/2/1 34/2/1 35/2/1
f 39/2/1 38/2/1 37/2/1
f 40/2/1 38/2/1 39/2/1
f 43/2/1 42/2/1 41/2/1
f 44/2/1 42/2/1 43/2/1
f 47/2/1 46/2/1 45/2/1
f 48/2/1 46/2/1 47/2/1
f 51/2/1 50/2/1 49/2/1
f 52/2/1 50/2/1 51/2/1
f 55/2/1 54/2/1 53/2/1
f 56/2/1 54/2/1 55/2/1
f 59/2/1 58/2/1 57/2/1
f 60/2/1 58/2/1 59/2/1
f 63/2/1 62/2/1 61/2/1
f 64/2/1 62/2/1 63/2/1
f 67/2/1 66/2/1 65/2/1
f 68/2/1 66/2/1 67/2/1
f 71/2/1 70/2/1 69/2/1
f 72/2/1 70/2/1 71/2/1
f 75/2/1 74/2/1 73/2/1
f 76/2/1 74/2/1 75/2/1
f 79/2/1 78/2/1 77/2/1
f 80/2/1 78/2/1 79/2/1
f 83/2/1 82/2/1 81/2/1
f 84/2/1 82/2/1 83/2/1
f 87/2/1 86/2/1 85/2/1
f 88/2/1 86/2/1 87/2/1
f 91/2/1 90/2/1 89/2/1
f 92/2/1 90/2/1 91/2/1
f 95/2/1 94/2/1 93/2/1
f 96/2/1 94/2/1 95/2/1
f 99/2/1 98/2/1 97/2/1
f 100/2/1 98/2/1 99/2/1
f 103/2/1 102/2/1 101/2/1
f 104/2/1 102/2/1 103/2/1
f 107/2/1 106/2/1 105/2/1
f 108/2/1 106/2/1 107/2/1
f 111/2/1 110/2/1 109/2/1
f 112/2/1 110/2/1 111/2/1
f 115/2/1 114/2/1 113/2/1
f 116/2/1 114/2/1 115/2/1
f 119/2/1 118/2/1 117/2/1
f 120/2/1 118/2/1 119/2/1
f 123/2/1 122/2/1 121/2/1
f 124/2/1 122/2/1 123/2/1
f 127/2/1 126/2/1 125/2/1
f 128/2/1 126/2/1 127/2/1
f 131/2/1 130/2/1 129/2/1
f 132/2/1 130/2/1 131/2/1
f 135/2/1 134/2/1 133/2/1
f 136/2/1 134/2/1 135/2/1
f 139/2/1 138/2/1 137/2/1
f 140/2/1 138/2/1 139/2/1
f 143/2/1 142/2/1 141/2/1
f 144/2/1 142/2/1 143/2/1
f 147/2/1 146/2/1 145/2/1
f 148/2/1 146/2/1 147/2/1
f 151/2/1 150/2/1 149/2/1
f 152/2/1 150/2/1 151/2/1
f 155/2/1 154/2/1 153/2/1
f 156/2/1 154/2/1 155/2/1
f 159/2/1 158/2/1 157/2/1
f 160/2/1 158/2/1 159/2/1
f 163/2/1 162/2/1 161/2/1
f 164/2/1 162/2/1 163/2/1
f 167/2/1 166/2/1 165/2/1
f 168/2/1 166/2/1 167/2/1
f 171/2/1 170/2/1 169/2/1
f 172/2/1 170/2/1 171/2/1
f 175/2/1 174/2/1 173/2/1
f 176/2/1 174/2/1 175/2/1
f 179/2/1 178/2/1 177/2/1
f 180/2/1 178/2/1 179/2/1
f 183/2/1 182/2/1 181/2/1
f 184/2/1 182/2/1 183/2/1
f 187/2/1 186/2/1 185/2/1
f 188/2/1 186/2/1 187/2/1
f 191/2/1 190/2/1 189/2/1
f 192/2/1 190/2/1 191/2/1
f 195/2/1 194/2/1 193/2/1
f 196/2/1 194/2/1 195/2/1
f 197/2/2 198/2/2 200/2/2
f 198/1/2 199/1/2 200/1/2
f 200/1/2 199/1/2 201/1/2
f 197/2/2 200/2/2 202/2/2
f 202/2/2 200/2/2 203/2/2
f 206/1/3 205/1/3 204/1/3
f 207/1/3 205/1/3 206/1/3
f 209/2/3 207/2/3 206/2/3
f 209/2/3 208/2/3 207/2/3
f 210/2/3 208/2/3 209/2/3
f 213/2/3 212/2/3 211/2/3
f 214/2/3 212/2/3 213/2/3
f 217/2/3 216/2/3 215/2/3
f 218/2/3 216/2/3 217/2/3
f 219/2/4 220/2/4 221/2/4
f 221/2/4 220/2/4 222/2/4
f 223/2/4 224/2/4 225/2/4
f 225/2/4 224/2/4 226/2/4
f 227/2/4 228/2/4 229/2/4
f 229/2/4 228/2/4 230/2/4
f 231/2/4 232/2/4 233/2/4
f 233/2/4 232/2/4 234/2/4
f 235/2/4 236/2/4 237/2/4
f 237/2/4 236/2/4 238/2/4
f 239/2/4 240/2/4 241/2/4
f 241/2/4 240/2/4 242/2/4
f 243/2/4 244/2/4 245/2/4
f 245/2/4 244/2/4 246/2/4
f 247/2/4 248/2/4 249/2/4
f 249/2/4 248/2/4 250/2/4
f 251/2/4 252/2/4 253/2/4
f 253/2/4 252/2/4 254/2/4
f 255/2/4 256/2/4 257/2/4
f 257/2/4 256/2/4 258/2/4
f 259/2/4 260/2/4 261/2/4
f 261/2/4 260/2/4 262/2/4
f 263/2/4 264/2/4 265/2/4
f 265/2/4 264/2/4 266/2/4
f 267/2/4 268/2/4 269/2/4
f 269/2/4 268/2/4 270/2/4
f 271/2/4 272/2/4 273/2/4
f 273/2/4 272/2/4 274/2/4
f 275/2/4 276/2/4 277/2/4
f 277/2/4 276/2/4 278/2/4
f 279/2/4 280/2/4 281/2/4
f 281/2/4 280/2/4 282/2/4
f 283/2/4 284/2/4 285/2/4
f 285/2/4 284/2/4 286/2/4
f 287/2/4 288/2/4 289/2/4
f 289/2/4 288/2/4 290/2/4
f 291/2/4 292/2/4 293/2/4
f 293/2/4 292/2/4 294/2/4
f 295/2/4 296/2/4 297/2/4
f 297/2/4 296/2/4 298/2/4
f 299/2/4 300/2/4 301/2/4
f 301/2/4 300/2/4 302/2/4
f 303/2/4 304/2/4 305/2/4
f 305/2/4 304/2/4 306/2/4
f 307/2/4 308/2/4 309/2/4
f 309/2/4 308/2/4 310/2/4
f 311/2/4 312/2/4 313/2/4
f 313/2/4 312/2/4 314/2/4
f 315/2/4 316/2/4 317/2/4
f 317/2/4 316/2/4 318/2/4
f 319/2/4 320/2/4 321/2/4
f 321/2/4 320/2/4 322/2/4
f 323/2/4 324/2/4 325/2/4
f 325/2/4 324/2/4 326/2/4
f 327/2/4 328/2/4 329/2/4
f 329/2/4 328/2/4 330/2/4
f 331/2/4 332/2/4 333/2/4
f 333/2/4 332/2/4 334/2/4
f 335/2/4 336/2/4 337/2/4
f 337/2/4 336/2/4 338/2/4
f 339/2/4 340/2/4 341/2/4
f 341/2/4 340/2/4 342/2/4
f 343/2/4 344/2/4 345/2/4
f 345/2/4 344/2/4 346/2/4
f 347/2/4 348/2/4 349/2/4
f 349/2/4 348/2/4 350/2/4
f 351/2/4 352/2/4 353/2/4
f 353/2/4 352/2/4 354/2/4
f 355/2/4 356/2/4 357/2/4
f 357/2/4 356/2/4 358/2/4
f 359/2/4 360/2/4 361/2/4
f 361/2/4 360/2/4 362/2/4
f 363/2/4 364/2/4 365/2/4
f 365/2/4 364/2/4 366/2/4
f 367/2/4 368/2/4 369/2/4
f 369/2/4 368/2/4 370/2/4
f 371/2/4 372/2/4 373/2/4
f 373/2/4 372/2/4 374/2/4
f 375/2/4 376/2/4 377/2/4
f 377/2/4 376/2/4 378/2/4
f 379/2/4 380/2/4 381/2/4
f 381/2/4 380/2/4 382/2/4
f 383/2/4 384/2/4 385/2/4
f 385/2/4 384/2/4 386/2/4
f 387/2/4 388/2/4 389/2/4
f 389/2/4 388/2/4 390/2/4
f 391/2/4 392/2/4 393/2/4
f 393/2/4 392/2/4 394/2/4
f 395/2/4 396/2/4 397/2/4
f 397/2/4 396/2/4 398/2/4
f 399/2/4 400/2/4 401/2/4
f 401/2/4 400/2/4 402/2/4
f 403/1/4 404/1/4 405/1/4
f 405/1/4 404/1/4 406/1/4
f 410/1/5 408/1/5 407/1/5
f 411/2/5 409/2/5 408/2/5
f 411/1/5 408/1/5 410/1/5
f 412/1/5 410/1/5 407/1/5
f 413/2/5 411/2/5 410/2/5
f 413/1/5 410/1/5 412/1/5
f 414/1/5 412/1/5 407/1/5
f 414/2/5 413/2/5 412/2/5
f 415/2/5 411/2/5 413/2/5
f 415/2/5 413/2/5 414/2/5
f 416/1/5 415/1/5 414/1/5
f 416/2/5 411/2/5 415/2/5
f 417/2/5 409/2/5 411/2/5
f 417/2/5 411/2/5 416/2/5
f 418/1/5 417/1/5 416/1/5
f 418/2/5 409/2/5 417/2/5
f 419/2/5 409/2/5 418/2/5
f 420/1/5 419/1/5 418/1/5
f 420/2/5 409/2/5 419/2/5
f 421/2/5 409/2/5 420/2/5
f 422/1/5 421/1/5 420/1/5
f 422/2/5 409/2/5 421/2/5
f 423/2/5 409/2/5 422/2/5
f 424/1/5 423/1/5 422/1/5
f 424/2/5 409/2/5 423/2/5
f 425/2/5 409/2/5 424/2/5
f 426/1/5 425/1/5 424/1/5
f 426/2/5 409/2/5 425/2/5
f 427/2/5 409/2/5 426/2/5
f 428/1/5 427/1/5 426/1/5
f 428/2/5 409/2/5 427/2/5
f 429/2/5 409/2/5 428/2/5
f 430/1/5 429/1/5 428/1/5
f 430/2/5 409/2/5 429/2/5
f 431/2/5 409/2/5 430/2/5
f 432/1/5 431/1/5 430/1/5
f 432/2/5 409/2/5 431/2/5
f 433/2/5 409/2/5 432/2/5
f 434/1/5 433/1/5 432/1/5
f 434/2/5 409/2/5 433/2/5
f 435/2/5 409/2/5 434/2/5
f 436/1/5 435/1/5 434/1/5
f 436/2/5 409/2/5 435/2/5
f 437/2/5 409/2/5 436/2/5
f 438/1/5 437/1/5 436/1/5
f 438/2/5 409/2/5 437/2/5
f 439/2/5 409/2/5 438/2/5
f 440/1/5 439/1/5 438/1/5
f 440/2/5 409/2/5 439/2/5
f 441/2/5 409/2/5 440/2/5
f 442/1/5 441/1/5 440/1/5
f 442/2/5 409/2/5 441/2/5
f 443/2/5 409/2/5 442/2/5
f 444/1/5 443/1/5 442/1/5
f 444/2/5 409/2/5 443/2/5
f 445/2/5 409/2/5 444/2/5
f 446/1/5 445/1/5 444/1/5
f 446/2/5 409/2/5 445/2/5
f 447/2/5 409/2/5 446/2/5
f 448/1/5 447/1/5 446/1/5
f 448/2/5 409/2/5 447/2/5
f 449/2/5 409/2/5 448/2/5
f 450/1/5 449/1/5 448/1/5
f 450/2/5 409/2/5 449/2/5
f 451/2/5 409/2/5 450/2/5
f 452/1/5 451/1/5 450/1/5
f 452/2/5 409/2/5 451/2/5
f 453/2/5 409/2/5 452/2/5
f 454/1/5 453/1/5 452/1/5
f 454/2/5 409/2/5 453/2/5
f 455/2/5 409/2/5 454/2/5
f 456/1/5 455/1/5 454/1/5
f 456/2/5 409/2/5 455/2/5
f 457/2/5 409/2/5 456/2/5
f 458/1/5 457/1/5 456/1/5
f 458/2/5 409/2/5 457/2/5
f 459/2/5 409/2/5 458/2/5
f 460/1/5 459/1/5 458/1/5
f 460/2/5 409/2/5 459/2/5
f 461/2/5 409/2/5 460/2/5
f 462/1/5 461/1/5 460/1/5
f 462/2/5 409/2/5 461/2/5
f 463/2/5 409/2/5 462/2/5
f 464/1/5 463/1/5 462/1/5
f 464/2/5 409/2/5 463/2/5
f 465/2/5 409/2/5 464/2/5
f 466/1/5 465/1/5 464/1/5
f 466/2/5 409/2/5 465/2/5
f 467/2/5 409/2/5 466/2/5
f 468/1/5 467/1/5 466/1/5
f 468/2/5 409/2/5 467/2/5
f 469/2/5 409/2/5 468/2/5
f 470/1/5 469/1/5 468/1/5
f 470/2/5 409/2/5 469/2/5
f 471/2/5 409/2/5 470/2/5
f 472/1/5 471/1/5 470/1/5
f 472/2/5 409/2/5 471/2/5
f 473/2/5 409/2/5 472/2/5
f 474/1/5 473/1/5 472/1/5
f 474/2/5 409/2/5 473/2/5
f 475/2/5 409/2/5 474/2/5
f 476/1/5 475/1/5 474/1/5
f 476/2/5 409/2/5 475/2/5
f 477/2/5 409/2/5 476/2/5
f 478/1/5 477/1/5 476/1/5
f 478/2/5 409/2/5 477/2/5
f 479/2/5 409/2/5 478/2/5
f 480/1/5 479/1/5 478/1/5
f 480/2/5 409/2/5 479/2/5
f 481/2/5 409/2/5 480/2/5
f 482/1/5 481/1/5 480/1/5
f 482/2/5 409/2/5 481/2/5
f 483/2/5 409/2/5 482/2/5
f 484/1/5 483/1/5 482/1/5
f 484/2/5 409/2/5 483/2/5
f 485/2/5 409/2/5 484/2/5
f 486/1/5 485/1/5 484/1/5
f 486/2/5 409/2/5 485/2/5
f 487/2/5 409/2/5 486/2/5
f 488/1/5 487/1/5 486/1/5
f 488/2/5 409/2/5 487/2/5
f 489/2/5 409/2/5 488/2/5
f 490/1/5 489/1/5 488/1/5
f 490/2/5 409/2/5 489/2/5
f 491/2/5 409/2/5 490/2/5
f 492/1/5 491/1/5 490/1/5
f 492/2/5 409/2/5 491/2/5
f 493/2/5 409/2/5 492/2/5
f 494/1/5 493/1/5 492/1/5
f 494/2/5 409/2/5 493/2/5
f 495/2/5 409/2/5 494/2/5
f 496/1/5 495/1/5 494/1/5
f 496/2/5 409/2/5 495/2/5
f 497/2/5 409/2/5 496/2/5
f 498/1/5 497/1/5 496/1/5
f 498/2/5 409/2/5 497/2/5
f 499/2/5 409/2/5 498/2/5
f 500/1/5 499/1/5 498/1/5
f 500/2/5 409/2/5 499/2/5
f 501/2/5 409/2/5 500/2/5
f 502/1/5 501/1/5 500/1/5
f 502/2/5 409/2/5 501/2/5
f 503/2/5 409/2/5 502/2/5
f 504/1/5 503/1/5 502/1/5
f 504/2/5 409/2/5 503/2/5
f 505/2/5 409/2/5 504/2/5
f 506/1/5 416/1/5 414/1/5
f 506/1/5 414/1/5 407/1/5
f 506/1/5 505/1/5 504/1/5
f 506/1/5 504/1/5 502/1/5
f 506/1/5 502/1/5 500/1/5
f 506/1/5 500/1/5 498/1/5
f 506/1/5 498/1/5 496/1/5
f 506/1/5 496/1/5 494/1/5
f 506/1/5 494/1/5 492/1/5
f 506/1/5 492/1/5 490/1/5
f 506/1/5 490/1/5 488/1/5
f 506/1/5 488/1/5 486/1/5
f 506/1/5 486/1/5 484/1/5
f 506/1/5 484/1/5 482/1/5
f 506/1/5 482/1/5 480/1/5
f 506/1/5 480/1/5 478/1/5
f 506/1/5 478/1/5 476/1/5
f 506/1/5 476/1/5 474/1/5
f 506/1/5 474/1/5 472/1/5
f 506/1/5 472/1/5 470/1/5
f 506/1/5 470/1/5 468/1/5
f 506/1/5 468/1/5 466/1/5
f 506/1/5 466/1/5 464/1/5
f 506/1/5 464/1/5 462/1/5
f 506/1/5 462/1/5 460/1/5
f 506/1/5 460/1/5 458/1/5
f 506/1/5 458/1/5 456/1/5
f 506/1/5 456/1/5 454/1/5
f 506/1/5 454/1/5 452/1/5
f 506/1/5 452/1/5 450/1/5
f 506/1/5 450/1/5 448/1/5
f 506/1/5 448/1/5 446/1/5
f 506/1/5 446/1/5 444/1/5
f 506/1/5 444/1/5 442/1/5
f 506/1/5 442/1/5 440/1/5
f 506/1/5 440/1/5 438/1/5
f 506/1/5 438/1/5 436/1/5
f 506/1/5 436/1/5 434/1/5
f 506/1/5 434/1/5 432/1/5
f 506/1/5 432/1/5 430/1/5
f 506/1/5 430/1/5 428/1/5
f 506/1/5 428/1/5 426/1/5
f 506/1/5 426/1/5 424/1/5
f 506/1/5 424/1/5 422/1/5
f 506/1/5 422/1/5 420/1/5
f 506/1/5 420/1/5 418/1/5
f 506/1/5 418/1/5 416/1/5
f 507/1/5 505/1/5 506/1/5
f 508/1/6 509/1/6 510/1/6
f 510/1/6 509/1/6 511/1/6
f 508/1/6 510/1/6 512/1/6
f 512/1/6 510/1/6 513/1/6
f 508/1/6 512/1/6 514/1/6
f 514/1/6 515/1/6 516/1/6
f 516/1/6 517/1/6 518/1/6
f 518/1/6 519/1/6 520/1/6
f 520/1/6 521/1/6 522/1/6
f 522/1/6 523/1/6 524/1/6
f 524/1/6 525/1/6 526/1/6
f 526/1/6 527/1/6 528/1/6
f 528/1/6 529/1/6 530/1/6
f 530/1/6 531/1/6 532/1/6
f 532/1/6 533/1/6 534/1/6
f 534/1/6 535/1/6 536/1/6
f 536/1/6 537/1/6 538/1/6
f 538/1/6 539/1/6 540/1/6
f 540/1/6 541/1/6 542/1/6
f 542/1/6 543/1/6 544/1/6
f 544/1/6 545/1/6 546/1/6
f 546/1/6 547/1/6 548/1/6
f 548/1/6 549/1/6 550/1/6
f 550/1/6 551/1/6 552/1/6
f 552/1/6 553/1/6 554/1/6
f 554/1/6 555/1/6 556/1/6
f 556/1/6 557/1/6 558/1/6
f 558/1/6 559/1/6 560/1/6
f 560/1/6 561/1/6 562/1/6
f 562/1/6 563/1/6 564/1/6
f 564/1/6 565/1/6 566/1/6
f 566/1/6 567/1/6 568/1/6
f 568/1/6 569/1/6 570/1/6
f 570/1/6 571/1/6 572/1/6
f 572/1/6 573/1/6 574/1/6
f 574/1/6 575/1/6 576/1/6
f 576/1/6 577/1/6 578/1/6
f 578/1/6 579/1/6 580/1/6
f 580/1/6 581/1/6 582/1/6
f 582/1/6 583/1/6 584/1/6
f 584/1/6 585/1/6 586/1/6
f 586/1/6 587/1/6 588/1/6
f 588/1/6 589/1/6 590/1/6
f 590/1/6 591/1/6 592/1/6
f 592/1/6 593/1/6 594/1/6
f 594/1/6 595/1/6 596/1/6
f 596/1/6 597/1/6 598/1/6
f 598/1/6 599/1/6 600/1/6
f 600/1/6 601/1/6 602/1/6
f 602/1/6 603/1/6 604/1/6
f 516/1/6 518/1/6 606/1/6
f 604/1/6 605/1/6 606/1/6
f 602/1/6 604/1/6 606/1/6
f 600/1/6 602/1/6 606/1/6
f 598/1/6 600/1/6 606/1/6
f 596/1/6 598/1/6 606/1/6
f 594/1/6 596/1/6 606/1/6
f 592/1/6 594/1/6 606/1/6
f 590/1/6 592/1/6 606/1/6
f 588/1/6 590/1/6 606/1/6
f 586/1/6 588/1/6 606/1/6
f 584/1/6 586/1/6 606/1/6
f 582/1/6 584/1/6 606/1/6
f 580/1/6 582/1/6 606/1/6
f 578/1/6 580/1/6 606/1/6
f 576/1/6 578/1/6 606/1/6
f 574/1/6 576/1/6 606/1/6
f 572/1/6 574/1/6 606/1/6
f 570/1/6 572/1/6 606/1/6
f 568/1/6 570/1/6 606/1/6
f 566/1/6 568/1/6 606/1/6
f 564/1/6 566/1/6 606/1/6
f 562/1/6 564/1/6 606/1/6
f 560/1/6 562/1/6 606/1/6
f 558/1/6 560/1/6 606/1/6
f 556/1/6 558/1/6 606/1/6
f 554/1/6 556/1/6 606/1/6
f 552/1/6 554/1/6 606/1/6
f 550/1/6 552/1/6 606/1/6
f 548/1/6 550/1/6 606/1/6
f 546/1/6 548/1/6 606/1/6
f 544/1/6 546/1/6 606/1/6
f 542/1/6 544/1/6 606/1/6
f 540/1/6 542/1/6 606/1/6
f 538/1/6 540/1/6 606/1/6
f 536/1/6 538/1/6 606/1/6
f 534/1/6 536/1/6 606/1/6
f 532/1/6 534/1/6 606/1/6
f 530/1/6 532/1/6 606/1/6
f 528/1/6 530/1/6 606/1/6
f 526/1/6 528/1/6 606/1/6
f 524/1/6 526/1/6 606/1/6
f 522/1/6 524/1/6 606/1/6
f 520/1/6 522/1/6 606/1/6
f 518/1/6 520/1/6 606/1/6
f 508/1/6 514/1/6 606/1/6
f 514/1/6 516/1/6 606/1/6
f 606/1/6 605/1/6 607/1/6
f 608/2/6 609/2/6 611/2/6
f 610/2/6 611/2/6 613/2/6
f 612/2/6 613/2/6 614/2/6
f 613/2/6 611/2/6 615/2/6
f 614/2/6 613/2/6 615/2/6
f 615/2/6 611/2/6 616/2/6
f 611/2/6 609/2/6 617/2/6
f 616/2/6 611/2/6 617/2/6
f 617/2/6 609/2/6 618/2/6
f 618/2/6 609/2/6 619/2/6
f 619/2/6 609/2/6 620/2/6
f 620/2/6 609/2/6 621/2/6
f 621/2/6 609/2/6 622/2/6
f 622/2/6 609/2/6 623/2/6
f 623/2/6 609/2/6 624/2/6
f 624/2/6 609/2/6 625/2/6
f 625/2/6 609/2/6 626/2/6
f 626/2/6 609/2/6 627/2/6
f 627/2/6 609/2/6 628/2/6
f 628/2/6 609/2/6 629/2/6
f 629/2/6 609/2/6 630/2/6
f 630/2/6 609/2/6 631/2/6
f 631/2/6 609/2/6 632/2/6
f 632/2/6 609/2/6 633/2/6
f 633/2/6 609/2/6 634/2/6
f 634/2/6 609/2/6 635/2/6
f 635/2/6 609/2/6 636/2/6
f 636/2/6 609/2/6 637/2/6
f 637/2/6 609/2/6 638/2/6
f 638/2/6 609/2/6 639/2/6
f 639/2/6 609/2/6 640/2/6
f 640/2/6 609/2/6 641/2/6
f 641/2/6 609/2/6 642/2/6
f 642/2/6 609/2/6 643/2/6
f 643/2/6 609/2/6 644/2/6
f 644/2/6 609/2/6 645/2/6
f 645/2/6 609/2/6 646/2/6
f 646/2/6 609/2/6 647/2/6
f 647/2/6 609/2/6 648/2/6
f 648/2/6 609/2/6 649/2/6
f 649/2/6 609/2/6 650/2/6
f 650/2/6 609/2/6 651/2/6
f 651/2/6 609/2/6 652/2/6
f 652/2/6 609/2/6 653/2/6
f 653/2/6 609/2/6 654/2/6
f 654/2/6 609/2/6 655/2/6
f 655/2/6 609/2/6 656/2/6
f 656/2/6 609/2/6 657/2/6
f 657/2/6 609/2/6 658/2/6
f 658/2/6 609/2/6 659/2/6
f 659/2/6 609/2/6 660/2/6
f 660/2/6 609/2/6 661/2/6
f 661/2/6 609/2/6 662/2/6
f 662/2/6 609/2/6 663/2/6
f 663/2/6 609/2/6 664/2/6
f 664/2/6 609/2/6 665/2/6
f 665/2/6 609/2/6 666/2/6
f 666/2/6 609/2/6 667/2/6
f 667/2/6 609/2/6 668/2/6
f 668/2/6 609/2/6 669/2/6
f 669/2/6 609/2/6 670/2/6
f 670/2/6 609/2/6 671/2/6
f 671/2/6 609/2/6 672/2/6
f 672/2/6 609/2/6 673/2/6
f 673/2/6 609/2/6 674/2/6
f 674/2/6 609/2/6 675/2/6
f 675/2/6 609/2/6 676/2/6
f 676/2/6 609/2/6 677/2/6
f 677/2/6 609/2/6 678/2/6
f 678/2/6 609/2/6 679/2/6
f 679/2/6 609/2/6 680/2/6
f 680/2/6 609/2/6 681/2/6
f 681/2/6 609/2/6 682/2/6
f 682/2/6 609/2/6 683/2/6
f 683/2/6 609/2/6 684/2/6
f 684/2/6 609/2/6 685/2/6
f 685/2/6 609/2/6 686/2/6
f 686/2/6 609/2/6 687/2/6
f 687/2/6 609/2/6 688/2/6
f 688/2/6 609/2/6 689/2/6
f 689/2/6 609/2/6 690/2/6
f 690/2/6 609/2/6 691/2/6
f 691/2/6 609/2/6 692/2/6
f 692/2/6 609/2/6 693/2/6
f 693/2/6 609/2/6 694/2/6
f 694/2/6 609/2/6 695/2/6
f 695/2/6 609/2/6 696/2/6
f 696/2/6 609/2/6 697/2/6
f 697/2/6 609/2/6 698/2/6
f 698/2/6 609/2/6 699/2/6
f 699/2/6 609/2/6 700/2/6
f 700/2/6 609/2/6 701/2/6
f 701/2/6 609/2/6 702/2/6
f 702/2/6 609/2/6 703/2/6
f 703/2/6 609/2/6 704/2/6
f 704/2/6 609/2/6 705/2/6
