# MagicaVoxel @ Ephtracy

# group
g Light House-13

# material
mtllib Light House-13.mtl
usemtl palette

# normals
vn -1 0 0
vn 1 0 0
vn 0 0 1
vn 0 0 -1
vn 0 -1 0
vn 0 1 0

# texcoords
vt 0.716797 0.5
vt 0.974609 0.5

# verts
v -63 0 63
v -63 0 -35
v -63 0 -63
v -63 1 63
v -63 1 -35
v -63 4 -35
v -63 4 -63
v -62 1 -34
v -62 1 -35
v -62 4 -34
v -62 4 -35
v -60 1 -33
v -60 1 -34
v -60 4 -33
v -60 4 -34
v -58 1 -32
v -58 1 -33
v -58 4 -32
v -58 4 -33
v -55 1 -31
v -55 1 -32
v -55 4 -31
v -55 4 -32
v -52 1 -30
v -52 1 -31
v -52 4 -30
v -52 4 -31
v -49 1 -29
v -49 1 -30
v -49 4 -29
v -49 4 -30
v -46 1 -28
v -46 1 -29
v -46 4 -28
v -46 4 -29
v -44 1 -27
v -44 1 -28
v -44 4 -27
v -44 4 -28
v -40 1 -26
v -40 1 -27
v -40 4 -26
v -40 4 -27
v -37 1 -25
v -37 1 -26
v -37 4 -25
v -37 4 -26
v -14 1 -24
v -14 1 -25
v -14 4 -24
v -14 4 -25
v 9 1 -23
v 9 1 -24
v 9 4 -23
v 9 4 -24
v 12 1 -22
v 12 1 -23
v 12 4 -22
v 12 4 -23
v 15 1 -21
v 15 1 -22
v 15 4 -21
v 15 4 -22
v 19 1 -20
v 19 1 -21
v 19 4 -20
v 19 4 -21
v 33 1 -19
v 33 1 -20
v 33 4 -19
v 33 4 -20
v 36 1 -18
v 36 1 -19
v 36 4 -18
v 36 4 -19
v 47 1 -17
v 47 1 -18
v 47 4 -17
v 47 4 -18
v 52 1 -16
v 52 1 -17
v 52 4 -16
v 52 4 -17
v 58 1 -15
v 58 1 -16
v 58 4 -15
v 58 4 -16
v 62 1 -14
v 62 1 -15
v 62 4 -14
v 62 4 -15
v 63 0 63
v 63 0 -14
v 63 0 -63
v 63 1 63
v 63 1 -14
v 63 4 -14
v 63 4 -63
v -63 0 63
v -63 1 63
v 63 0 63
v 63 1 63
v 62 1 -14
v 62 4 -14
v 63 1 -14
v 63 4 -14
v 58 1 -15
v 58 4 -15
v 62 1 -15
v 62 4 -15
v 52 1 -16
v 52 4 -16
v 58 1 -16
v 58 4 -16
v 47 1 -17
v 47 4 -17
v 52 1 -17
v 52 4 -17
v 36 1 -18
v 36 4 -18
v 47 1 -18
v 47 4 -18
v 33 1 -19
v 33 4 -19
v 36 1 -19
v 36 4 -19
v 19 1 -20
v 19 4 -20
v 33 1 -20
v 33 4 -20
v 15 1 -21
v 15 4 -21
v 19 1 -21
v 19 4 -21
v 12 1 -22
v 12 4 -22
v 15 1 -22
v 15 4 -22
v 9 1 -23
v 9 4 -23
v 12 1 -23
v 12 4 -23
v -14 1 -24
v -14 4 -24
v 9 1 -24
v 9 4 -24
v -37 1 -25
v -37 4 -25
v -14 1 -25
v -14 4 -25
v -40 1 -26
v -40 4 -26
v -37 1 -26
v -37 4 -26
v -44 1 -27
v -44 4 -27
v -40 1 -27
v -40 4 -27
v -46 1 -28
v -46 4 -28
v -44 1 -28
v -44 4 -28
v -49 1 -29
v -49 4 -29
v -46 1 -29
v -46 4 -29
v -52 1 -30
v -52 4 -30
v -49 1 -30
v -49 4 -30
v -55 1 -31
v -55 4 -31
v -52 1 -31
v -52 4 -31
v -58 1 -32
v -58 4 -32
v -55 1 -32
v -55 4 -32
v -60 1 -33
v -60 4 -33
v -58 1 -33
v -58 4 -33
v -62 1 -34
v -62 4 -34
v -60 1 -34
v -60 4 -34
v -63 1 -35
v -63 4 -35
v -62 1 -35
v -62 4 -35
v -63 0 -63
v -63 4 -63
v 63 0 -63
v 63 4 -63
v -63 0 63
v 63 0 63
v 62 0 -14
v 63 0 -14
v 58 0 -15
v 62 0 -15
v 52 0 -16
v 58 0 -16
v 47 0 -17
v 52 0 -17
v 36 0 -18
v 47 0 -18
v 33 0 -19
v 36 0 -19
v 19 0 -20
v 33 0 -20
v 15 0 -21
v 19 0 -21
v 12 0 -22
v 15 0 -22
v 9 0 -23
v 12 0 -23
v -14 0 -24
v 9 0 -24
v -37 0 -25
v -14 0 -25
v -40 0 -26
v -37 0 -26
v -44 0 -27
v -40 0 -27
v -46 0 -28
v -44 0 -28
v -49 0 -29
v -46 0 -29
v -52 0 -30
v -49 0 -30
v -55 0 -31
v -52 0 -31
v -58 0 -32
v -55 0 -32
v -60 0 -33
v -58 0 -33
v -62 0 -34
v -60 0 -34
v -63 0 -35
v -62 0 -35
v -63 0 -63
v 63 0 -63
v -63 1 63
v 63 1 63
v 62 1 -14
v 63 1 -14
v 58 1 -15
v 62 1 -15
v 52 1 -16
v 58 1 -16
v 47 1 -17
v 52 1 -17
v 36 1 -18
v 47 1 -18
v 33 1 -19
v 36 1 -19
v 19 1 -20
v 33 1 -20
v 15 1 -21
v 19 1 -21
v 12 1 -22
v 15 1 -22
v 9 1 -23
v 12 1 -23
v -14 1 -24
v 9 1 -24
v -37 1 -25
v -14 1 -25
v -40 1 -26
v -37 1 -26
v -44 1 -27
v -40 1 -27
v -46 1 -28
v -44 1 -28
v -49 1 -29
v -46 1 -29
v -52 1 -30
v -49 1 -30
v -55 1 -31
v -52 1 -31
v -58 1 -32
v -55 1 -32
v -60 1 -33
v -58 1 -33
v -62 1 -34
v -60 1 -34
v -63 1 -35
v -62 1 -35
v 62 4 -14
v 63 4 -14
v 58 4 -15
v 62 4 -15
v 52 4 -16
v 58 4 -16
v 47 4 -17
v 52 4 -17
v 36 4 -18
v 47 4 -18
v 33 4 -19
v 36 4 -19
v 19 4 -20
v 33 4 -20
v 15 4 -21
v 19 4 -21
v 12 4 -22
v 15 4 -22
v 9 4 -23
v 12 4 -23
v -14 4 -24
v 9 4 -24
v -37 4 -25
v -14 4 -25
v -40 4 -26
v -37 4 -26
v -44 4 -27
v -40 4 -27
v -46 4 -28
v -44 4 -28
v -49 4 -29
v -46 4 -29
v -52 4 -30
v -49 4 -30
v -55 4 -31
v -52 4 -31
v -58 4 -32
v -55 4 -32
v -60 4 -33
v -58 4 -33
v -62 4 -34
v -60 4 -34
v -63 4 -35
v -62 4 -35
v -63 4 -63
v 63 4 -63

# faces
f 4/1/1 2/1/1 1/1/1
f 5/2/1 3/2/1 2/2/1
f 5/1/1 2/1/1 4/1/1
f 6/2/1 3/2/1 5/2/1
f 7/2/1 3/2/1 6/2/1
f 10/2/1 9/2/1 8/2/1
f 11/2/1 9/2/1 10/2/1
f 14/2/1 13/2/1 12/2/1
f 15/2/1 13/2/1 14/2/1
f 18/2/1 17/2/1 16/2/1
f 19/2/1 17/2/1 18/2/1
f 22/2/1 21/2/1 20/2/1
f 23/2/1 21/2/1 22/2/1
f 26/2/1 25/2/1 24/2/1
f 27/2/1 25/2/1 26/2/1
f 30/2/1 29/2/1 28/2/1
f 31/2/1 29/2/1 30/2/1
f 34/2/1 33/2/1 32/2/1
f 35/2/1 33/2/1 34/2/1
f 38/2/1 37/2/1 36/2/1
f 39/2/1 37/2/1 38/2/1
f 42/2/1 41/2/1 40/2/1
f 43/2/1 41/2/1 42/2/1
f 46/2/1 45/2/1 44/2/1
f 47/2/1 45/2/1 46/2/1
f 50/2/1 49/2/1 48/2/1
f 51/2/1 49/2/1 50/2/1
f 54/2/1 53/2/1 52/2/1
f 55/2/1 53/2/1 54/2/1
f 58/2/1 57/2/1 56/2/1
f 59/2/1 57/2/1 58/2/1
f 62/2/1 61/2/1 60/2/1
f 63/2/1 61/2/1 62/2/1
f 66/2/1 65/2/1 64/2/1
f 67/2/1 65/2/1 66/2/1
f 70/2/1 69/2/1 68/2/1
f 71/2/1 69/2/1 70/2/1
f 74/2/1 73/2/1 72/2/1
f 75/2/1 73/2/1 74/2/1
f 78/2/1 77/2/1 76/2/1
f 79/2/1 77/2/1 78/2/1
f 82/2/1 81/2/1 80/2/1
f 83/2/1 81/2/1 82/2/1
f 86/2/1 85/2/1 84/2/1
f 87/2/1 85/2/1 86/2/1
f 90/2/1 89/2/1 88/2/1
f 91/2/1 89/2/1 90/2/1
f 92/1/2 93/1/2 95/1/2
f 93/2/2 94/2/2 96/2/2
f 95/1/2 93/1/2 96/1/2
f 96/2/2 94/2/2 97/2/2
f 97/2/2 94/2/2 98/2/2
f 101/1/3 100/1/3 99/1/3
f 102/1/3 100/1/3 101/1/3
f 105/2/3 104/2/3 103/2/3
f 106/2/3 104/2/3 105/2/3
f 109/2/3 108/2/3 107/2/3
f 110/2/3 108/2/3 109/2/3
f 113/2/3 112/2/3 111/2/3
f 114/2/3 112/2/3 113/2/3
f 117/2/3 116/2/3 115/2/3
f 118/2/3 116/2/3 117/2/3
f 121/2/3 120/2/3 119/2/3
f 122/2/3 120/2/3 121/2/3
f 125/2/3 124/2/3 123/2/3
f 126/2/3 124/2/3 125/2/3
f 129/2/3 128/2/3 127/2/3
f 130/2/3 128/2/3 129/2/3
f 133/2/3 132/2/3 131/2/3
f 134/2/3 132/2/3 133/2/3
f 137/2/3 136/2/3 135/2/3
f 138/2/3 136/2/3 137/2/3
f 141/2/3 140/2/3 139/2/3
f 142/2/3 140/2/3 141/2/3
f 145/2/3 144/2/3 143/2/3
f 146/2/3 144/2/3 145/2/3
f 149/2/3 148/2/3 147/2/3
f 150/2/3 148/2/3 149/2/3
f 153/2/3 152/2/3 151/2/3
f 154/2/3 152/2/3 153/2/3
f 157/2/3 156/2/3 155/2/3
f 158/2/3 156/2/3 157/2/3
f 161/2/3 160/2/3 159/2/3
f 162/2/3 160/2/3 161/2/3
f 165/2/3 164/2/3 163/2/3
f 166/2/3 164/2/3 165/2/3
f 169/2/3 168/2/3 167/2/3
f 170/2/3 168/2/3 169/2/3
f 173/2/3 172/2/3 171/2/3
f 174/2/3 172/2/3 173/2/3
f 177/2/3 176/2/3 175/2/3
f 178/2/3 176/2/3 177/2/3
f 181/2/3 180/2/3 179/2/3
f 182/2/3 180/2/3 181/2/3
f 185/2/3 184/2/3 183/2/3
f 186/2/3 184/2/3 185/2/3
f 189/2/3 188/2/3 187/2/3
f 190/2/3 188/2/3 189/2/3
f 191/2/4 192/2/4 193/2/4
f 193/2/4 192/2/4 194/2/4
f 197/1/5 196/1/5 195/1/5
f 198/1/5 196/1/5 197/1/5
f 199/1/5 197/1/5 195/1/5
f 200/2/5 198/2/5 197/2/5
f 200/1/5 197/1/5 199/1/5
f 201/1/5 199/1/5 195/1/5
f 202/2/5 200/2/5 199/2/5
f 202/1/5 199/1/5 201/1/5
f 203/1/5 201/1/5 195/1/5
f 204/2/5 202/2/5 201/2/5
f 204/1/5 201/1/5 203/1/5
f 205/1/5 203/1/5 195/1/5
f 206/2/5 204/2/5 203/2/5
f 206/1/5 203/1/5 205/1/5
f 207/1/5 205/1/5 195/1/5
f 208/2/5 206/2/5 205/2/5
f 208/1/5 205/1/5 207/1/5
f 209/1/5 207/1/5 195/1/5
f 210/2/5 208/2/5 207/2/5
f 210/1/5 207/1/5 209/1/5
f 211/1/5 209/1/5 195/1/5
f 212/2/5 210/2/5 209/2/5
f 212/1/5 209/1/5 211/1/5
f 213/1/5 211/1/5 195/1/5
f 214/2/5 212/2/5 211/2/5
f 214/1/5 211/1/5 213/1/5
f 215/1/5 213/1/5 195/1/5
f 216/2/5 214/2/5 213/2/5
f 216/1/5 213/1/5 215/1/5
f 217/1/5 215/1/5 195/1/5
f 218/2/5 216/2/5 215/2/5
f 218/1/5 215/1/5 217/1/5
f 219/1/5 217/1/5 195/1/5
f 220/2/5 218/2/5 217/2/5
f 220/1/5 217/1/5 219/1/5
f 221/1/5 219/1/5 195/1/5
f 222/2/5 220/2/5 219/2/5
f 222/1/5 219/1/5 221/1/5
f 223/1/5 221/1/5 195/1/5
f 224/2/5 222/2/5 221/2/5
f 224/1/5 221/1/5 223/1/5
f 225/1/5 223/1/5 195/1/5
f 226/2/5 224/2/5 223/2/5
f 226/1/5 223/1/5 225/1/5
f 227/1/5 225/1/5 195/1/5
f 228/2/5 226/2/5 225/2/5
f 228/1/5 225/1/5 227/1/5
f 229/1/5 227/1/5 195/1/5
f 230/2/5 228/2/5 227/2/5
f 230/1/5 227/1/5 229/1/5
f 231/1/5 229/1/5 195/1/5
f 232/2/5 230/2/5 229/2/5
f 232/1/5 229/1/5 231/1/5
f 233/1/5 231/1/5 195/1/5
f 234/2/5 232/2/5 231/2/5
f 234/1/5 231/1/5 233/1/5
f 235/1/5 233/1/5 195/1/5
f 236/2/5 234/2/5 233/2/5
f 236/1/5 233/1/5 235/1/5
f 237/1/5 235/1/5 195/1/5
f 238/2/5 236/2/5 235/2/5
f 238/1/5 235/1/5 237/1/5
f 239/1/5 237/1/5 195/1/5
f 240/2/5 238/2/5 237/2/5
f 240/1/5 237/1/5 239/1/5
f 241/2/5 240/2/5 239/2/5
f 242/2/5 198/2/5 200/2/5
f 242/2/5 240/2/5 241/2/5
f 242/2/5 200/2/5 202/2/5
f 242/2/5 238/2/5 240/2/5
f 242/2/5 202/2/5 204/2/5
f 242/2/5 236/2/5 238/2/5
f 242/2/5 234/2/5 236/2/5
f 242/2/5 232/2/5 234/2/5
f 242/2/5 230/2/5 232/2/5
f 242/2/5 228/2/5 230/2/5
f 242/2/5 226/2/5 228/2/5
f 242/2/5 224/2/5 226/2/5
f 242/2/5 222/2/5 224/2/5
f 242/2/5 220/2/5 222/2/5
f 242/2/5 218/2/5 220/2/5
f 242/2/5 216/2/5 218/2/5
f 242/2/5 214/2/5 216/2/5
f 242/2/5 212/2/5 214/2/5
f 242/2/5 210/2/5 212/2/5
f 242/2/5 208/2/5 210/2/5
f 242/2/5 206/2/5 208/2/5
f 242/2/5 204/2/5 206/2/5
f 243/1/6 244/1/6 245/1/6
f 245/1/6 244/1/6 246/1/6
f 243/1/6 245/1/6 247/1/6
f 247/1/6 245/1/6 248/1/6
f 243/1/6 247/1/6 249/1/6
f 249/1/6 247/1/6 250/1/6
f 243/1/6 249/1/6 251/1/6
f 251/1/6 249/1/6 252/1/6
f 243/1/6 251/1/6 253/1/6
f 253/1/6 251/1/6 254/1/6
f 243/1/6 253/1/6 255/1/6
f 255/1/6 253/1/6 256/1/6
f 243/1/6 255/1/6 257/1/6
f 257/1/6 255/1/6 258/1/6
f 243/1/6 257/1/6 259/1/6
f 259/1/6 257/1/6 260/1/6
f 243/1/6 259/1/6 261/1/6
f 261/1/6 259/1/6 262/1/6
f 243/1/6 261/1/6 263/1/6
f 263/1/6 261/1/6 264/1/6
f 243/1/6 263/1/6 265/1/6
f 265/1/6 263/1/6 266/1/6
f 243/1/6 265/1/6 267/1/6
f 267/1/6 265/1/6 268/1/6
f 243/1/6 267/1/6 269/1/6
f 269/1/6 267/1/6 270/1/6
f 243/1/6 269/1/6 271/1/6
f 271/1/6 269/1/6 272/1/6
f 243/1/6 271/1/6 273/1/6
f 273/1/6 271/1/6 274/1/6
f 243/1/6 273/1/6 275/1/6
f 275/1/6 273/1/6 276/1/6
f 243/1/6 275/1/6 277/1/6
f 277/1/6 275/1/6 278/1/6
f 243/1/6 277/1/6 279/1/6
f 279/1/6 277/1/6 280/1/6
f 243/1/6 279/1/6 281/1/6
f 281/1/6 279/1/6 282/1/6
f 243/1/6 281/1/6 283/1/6
f 283/1/6 281/1/6 284/1/6
f 243/1/6 283/1/6 285/1/6
f 285/1/6 283/1/6 286/1/6
f 243/1/6 285/1/6 287/1/6
f 287/1/6 285/1/6 288/1/6
f 289/2/6 290/2/6 292/2/6
f 291/2/6 292/2/6 294/2/6
f 293/2/6 294/2/6 296/2/6
f 295/2/6 296/2/6 298/2/6
f 297/2/6 298/2/6 300/2/6
f 299/2/6 300/2/6 302/2/6
f 301/2/6 302/2/6 304/2/6
f 303/2/6 304/2/6 306/2/6
f 305/2/6 306/2/6 308/2/6
f 307/2/6 308/2/6 310/2/6
f 309/2/6 310/2/6 312/2/6
f 311/2/6 312/2/6 314/2/6
f 313/2/6 314/2/6 316/2/6
f 315/2/6 316/2/6 318/2/6
f 317/2/6 318/2/6 320/2/6
f 319/2/6 320/2/6 322/2/6
f 321/2/6 322/2/6 324/2/6
f 323/2/6 324/2/6 326/2/6
f 325/2/6 326/2/6 328/2/6
f 327/2/6 328/2/6 330/2/6
f 329/2/6 330/2/6 332/2/6
f 331/2/6 332/2/6 333/2/6
f 292/2/6 290/2/6 334/2/6
f 333/2/6 332/2/6 334/2/6
f 294/2/6 292/2/6 334/2/6
f 332/2/6 330/2/6 334/2/6
f 296/2/6 294/2/6 334/2/6
f 330/2/6 328/2/6 334/2/6
f 298/2/6 296/2/6 334/2/6
f 328/2/6 326/2/6 334/2/6
f 300/2/6 298/2/6 334/2/6
f 326/2/6 324/2/6 334/2/6
f 302/2/6 300/2/6 334/2/6
f 324/2/6 322/2/6 334/2/6
f 304/2/6 302/2/6 334/2/6
f 322/2/6 320/2/6 334/2/6
f 306/2/6 304/2/6 334/2/6
f 320/2/6 318/2/6 334/2/6
f 308/2/6 306/2/6 334/2/6
f 318/2/6 316/2/6 334/2/6
f 310/2/6 308/2/6 334/2/6
f 316/2/6 314/2/6 334/2/6
f 312/2/6 310/2/6 334/2/6
f 314/2/6 312/2/6 334/2/6
