# MagicaVoxel @ Ephtracy

# group
g Main Island-11

# material
mtllib Main Island-11.mtl
usemtl palette

# normals
vn -1 0 0
vn 1 0 0
vn 0 0 1
vn 0 0 -1
vn 0 -1 0
vn 0 1 0

# texcoords
vt 0.974609 0.5

# verts
v 2 0 -51
v 2 0 -59
v 2 4 -51
v 2 4 -59
v 3 0 -48
v 3 0 -51
v 3 0 -59
v 3 0 -63
v 3 4 -48
v 3 4 -51
v 3 4 -59
v 3 4 -63
v 4 0 -46
v 4 0 -48
v 4 4 -46
v 4 4 -48
v 5 0 -44
v 5 0 -46
v 5 4 -44
v 5 4 -46
v 6 0 -41
v 6 0 -44
v 6 4 -41
v 6 4 -44
v 7 0 -39
v 7 0 -41
v 7 4 -39
v 7 4 -41
v 8 0 -37
v 8 0 -39
v 8 4 -37
v 8 4 -39
v 9 0 -36
v 9 0 -37
v 9 4 -36
v 9 4 -37
v 10 0 -35
v 10 0 -36
v 10 4 -35
v 10 4 -36
v 12 0 -34
v 12 0 -35
v 12 4 -34
v 12 4 -35
v 14 0 -33
v 14 0 -34
v 14 4 -33
v 14 4 -34
v 16 0 -32
v 16 0 -33
v 16 4 -32
v 16 4 -33
v 17 0 -31
v 17 0 -32
v 17 4 -31
v 17 4 -32
v 19 0 -30
v 19 0 -31
v 19 4 -30
v 19 4 -31
v 21 0 -29
v 21 0 -30
v 21 4 -29
v 21 4 -30
v 23 0 -28
v 23 0 -29
v 23 4 -28
v 23 4 -29
v 25 0 -27
v 25 0 -28
v 25 4 -27
v 25 4 -28
v 26 0 -26
v 26 0 -27
v 26 4 -26
v 26 4 -27
v 27 0 -25
v 27 0 -26
v 27 4 -25
v 27 4 -26
v 28 0 -24
v 28 0 -25
v 28 4 -24
v 28 4 -25
v 29 0 -23
v 29 0 -24
v 29 4 -23
v 29 4 -24
v 31 0 -22
v 31 0 -23
v 31 4 -22
v 31 4 -23
v 32 0 -21
v 32 0 -22
v 32 4 -21
v 32 4 -22
v 33 0 -19
v 33 0 -20
v 33 4 -19
v 33 4 -20
v 34 0 -20
v 34 0 -21
v 34 4 -20
v 34 4 -21
v 36 0 -18
v 36 0 -19
v 36 3 -18
v 36 3 -19
v 37 3 -19
v 37 3 -20
v 37 4 -19
v 37 4 -20
v 40 3 -18
v 40 3 -19
v 40 4 -18
v 40 4 -19
v 47 0 -17
v 47 0 -18
v 47 4 -17
v 47 4 -18
v 52 0 -16
v 52 0 -17
v 52 4 -16
v 52 4 -17
v 58 0 -15
v 58 0 -16
v 58 4 -15
v 58 4 -16
v 62 0 -14
v 62 0 -15
v 62 4 -14
v 62 4 -15
v 34 3 -19
v 34 3 -20
v 34 4 -19
v 34 4 -20
v 63 0 -14
v 63 0 -63
v 63 4 -14
v 63 4 -63
v 62 0 -14
v 62 4 -14
v 63 0 -14
v 63 4 -14
v 58 0 -15
v 58 4 -15
v 62 0 -15
v 62 4 -15
v 52 0 -16
v 52 4 -16
v 58 0 -16
v 58 4 -16
v 47 0 -17
v 47 4 -17
v 52 0 -17
v 52 4 -17
v 36 0 -18
v 36 3 -18
v 40 3 -18
v 40 4 -18
v 47 0 -18
v 47 4 -18
v 33 0 -19
v 33 4 -19
v 34 3 -19
v 34 4 -19
v 36 0 -19
v 36 3 -19
v 37 3 -19
v 37 4 -19
v 40 3 -19
v 40 4 -19
v 34 3 -20
v 34 4 -20
v 37 3 -20
v 37 4 -20
v 32 0 -21
v 32 4 -21
v 34 0 -21
v 34 4 -21
v 31 0 -22
v 31 4 -22
v 32 0 -22
v 32 4 -22
v 29 0 -23
v 29 4 -23
v 31 0 -23
v 31 4 -23
v 28 0 -24
v 28 4 -24
v 29 0 -24
v 29 4 -24
v 27 0 -25
v 27 4 -25
v 28 0 -25
v 28 4 -25
v 26 0 -26
v 26 4 -26
v 27 0 -26
v 27 4 -26
v 25 0 -27
v 25 4 -27
v 26 0 -27
v 26 4 -27
v 23 0 -28
v 23 4 -28
v 25 0 -28
v 25 4 -28
v 21 0 -29
v 21 4 -29
v 23 0 -29
v 23 4 -29
v 19 0 -30
v 19 4 -30
v 21 0 -30
v 21 4 -30
v 17 0 -31
v 17 4 -31
v 19 0 -31
v 19 4 -31
v 16 0 -32
v 16 4 -32
v 17 0 -32
v 17 4 -32
v 14 0 -33
v 14 4 -33
v 16 0 -33
v 16 4 -33
v 12 0 -34
v 12 4 -34
v 14 0 -34
v 14 4 -34
v 10 0 -35
v 10 4 -35
v 12 0 -35
v 12 4 -35
v 9 0 -36
v 9 4 -36
v 10 0 -36
v 10 4 -36
v 8 0 -37
v 8 4 -37
v 9 0 -37
v 9 4 -37
v 7 0 -39
v 7 4 -39
v 8 0 -39
v 8 4 -39
v 6 0 -41
v 6 4 -41
v 7 0 -41
v 7 4 -41
v 5 0 -44
v 5 4 -44
v 6 0 -44
v 6 4 -44
v 4 0 -46
v 4 4 -46
v 5 0 -46
v 5 4 -46
v 3 0 -48
v 3 4 -48
v 4 0 -48
v 4 4 -48
v 2 0 -51
v 2 4 -51
v 3 0 -51
v 3 4 -51
v 33 0 -20
v 33 4 -20
v 34 0 -20
v 34 4 -20
v 2 0 -59
v 2 4 -59
v 3 0 -59
v 3 4 -59
v 3 0 -63
v 3 4 -63
v 63 0 -63
v 63 4 -63
v 62 0 -14
v 63 0 -14
v 58 0 -15
v 62 0 -15
v 52 0 -16
v 58 0 -16
v 47 0 -17
v 52 0 -17
v 36 0 -18
v 47 0 -18
v 33 0 -19
v 36 0 -19
v 33 0 -20
v 34 0 -20
v 32 0 -21
v 34 0 -21
v 31 0 -22
v 32 0 -22
v 29 0 -23
v 31 0 -23
v 28 0 -24
v 29 0 -24
v 27 0 -25
v 28 0 -25
v 26 0 -26
v 27 0 -26
v 25 0 -27
v 26 0 -27
v 23 0 -28
v 25 0 -28
v 21 0 -29
v 23 0 -29
v 19 0 -30
v 21 0 -30
v 17 0 -31
v 19 0 -31
v 16 0 -32
v 17 0 -32
v 14 0 -33
v 16 0 -33
v 12 0 -34
v 14 0 -34
v 10 0 -35
v 12 0 -35
v 9 0 -36
v 10 0 -36
v 8 0 -37
v 9 0 -37
v 7 0 -39
v 8 0 -39
v 6 0 -41
v 7 0 -41
v 5 0 -44
v 6 0 -44
v 4 0 -46
v 5 0 -46
v 3 0 -48
v 4 0 -48
v 2 0 -51
v 3 0 -51
v 2 0 -59
v 3 0 -59
v 3 0 -63
v 63 0 -63
v 36 3 -18
v 40 3 -18
v 34 3 -19
v 36 3 -19
v 37 3 -19
v 40 3 -19
v 34 3 -20
v 37 3 -20
v 62 4 -14
v 63 4 -14
v 58 4 -15
v 62 4 -15
v 52 4 -16
v 58 4 -16
v 47 4 -17
v 52 4 -17
v 40 4 -18
v 47 4 -18
v 33 4 -19
v 34 4 -19
v 37 4 -19
v 40 4 -19
v 33 4 -20
v 34 4 -20
v 37 4 -20
v 32 4 -21
v 34 4 -21
v 31 4 -22
v 32 4 -22
v 29 4 -23
v 31 4 -23
v 28 4 -24
v 29 4 -24
v 27 4 -25
v 28 4 -25
v 26 4 -26
v 27 4 -26
v 25 4 -27
v 26 4 -27
v 23 4 -28
v 25 4 -28
v 21 4 -29
v 23 4 -29
v 19 4 -30
v 21 4 -30
v 17 4 -31
v 19 4 -31
v 16 4 -32
v 17 4 -32
v 14 4 -33
v 16 4 -33
v 12 4 -34
v 14 4 -34
v 10 4 -35
v 12 4 -35
v 9 4 -36
v 10 4 -36
v 8 4 -37
v 9 4 -37
v 7 4 -39
v 8 4 -39
v 6 4 -41
v 7 4 -41
v 5 4 -44
v 6 4 -44
v 4 4 -46
v 5 4 -46
v 3 4 -48
v 4 4 -48
v 2 4 -51
v 3 4 -51
v 2 4 -59
v 3 4 -59
v 3 4 -63
v 63 4 -63

# faces
f 3/1/1 2/1/1 1/1/1
f 4/1/1 2/1/1 3/1/1
f 9/1/1 6/1/1 5/1/1
f 10/1/1 6/1/1 9/1/1
f 11/1/1 8/1/1 7/1/1
f 12/1/1 8/1/1 11/1/1
f 15/1/1 14/1/1 13/1/1
f 16/1/1 14/1/1 15/1/1
f 19/1/1 18/1/1 17/1/1
f 20/1/1 18/1/1 19/1/1
f 23/1/1 22/1/1 21/1/1
f 24/1/1 22/1/1 23/1/1
f 27/1/1 26/1/1 25/1/1
f 28/1/1 26/1/1 27/1/1
f 31/1/1 30/1/1 29/1/1
f 32/1/1 30/1/1 31/1/1
f 35/1/1 34/1/1 33/1/1
f 36/1/1 34/1/1 35/1/1
f 39/1/1 38/1/1 37/1/1
f 40/1/1 38/1/1 39/1/1
f 43/1/1 42/1/1 41/1/1
f 44/1/1 42/1/1 43/1/1
f 47/1/1 46/1/1 45/1/1
f 48/1/1 46/1/1 47/1/1
f 51/1/1 50/1/1 49/1/1
f 52/1/1 50/1/1 51/1/1
f 55/1/1 54/1/1 53/1/1
f 56/1/1 54/1/1 55/1/1
f 59/1/1 58/1/1 57/1/1
f 60/1/1 58/1/1 59/1/1
f 63/1/1 62/1/1 61/1/1
f 64/1/1 62/1/1 63/1/1
f 67/1/1 66/1/1 65/1/1
f 68/1/1 66/1/1 67/1/1
f 71/1/1 70/1/1 69/1/1
f 72/1/1 70/1/1 71/1/1
f 75/1/1 74/1/1 73/1/1
f 76/1/1 74/1/1 75/1/1
f 79/1/1 78/1/1 77/1/1
f 80/1/1 78/1/1 79/1/1
f 83/1/1 82/1/1 81/1/1
f 84/1/1 82/1/1 83/1/1
f 87/1/1 86/1/1 85/1/1
f 88/1/1 86/1/1 87/1/1
f 91/1/1 90/1/1 89/1/1
f 92/1/1 90/1/1 91/1/1
f 95/1/1 94/1/1 93/1/1
f 96/1/1 94/1/1 95/1/1
f 99/1/1 98/1/1 97/1/1
f 100/1/1 98/1/1 99/1/1
f 103/1/1 102/1/1 101/1/1
f 104/1/1 102/1/1 103/1/1
f 107/1/1 106/1/1 105/1/1
f 108/1/1 106/1/1 107/1/1
f 111/1/1 110/1/1 109/1/1
f 112/1/1 110/1/1 111/1/1
f 115/1/1 114/1/1 113/1/1
f 116/1/1 114/1/1 115/1/1
f 119/1/1 118/1/1 117/1/1
f 120/1/1 118/1/1 119/1/1
f 123/1/1 122/1/1 121/1/1
f 124/1/1 122/1/1 123/1/1
f 127/1/1 126/1/1 125/1/1
f 128/1/1 126/1/1 127/1/1
f 131/1/1 130/1/1 129/1/1
f 132/1/1 130/1/1 131/1/1
f 133/1/2 134/1/2 135/1/2
f 135/1/2 134/1/2 136/1/2
f 137/1/2 138/1/2 139/1/2
f 139/1/2 138/1/2 140/1/2
f 143/1/3 142/1/3 141/1/3
f 144/1/3 142/1/3 143/1/3
f 147/1/3 146/1/3 145/1/3
f 148/1/3 146/1/3 147/1/3
f 151/1/3 150/1/3 149/1/3
f 152/1/3 150/1/3 151/1/3
f 155/1/3 154/1/3 153/1/3
f 156/1/3 154/1/3 155/1/3
f 159/1/3 158/1/3 157/1/3
f 161/1/3 159/1/3 157/1/3
f 161/1/3 160/1/3 159/1/3
f 162/1/3 160/1/3 161/1/3
f 165/1/3 164/1/3 163/1/3
f 166/1/3 164/1/3 165/1/3
f 167/1/3 165/1/3 163/1/3
f 168/1/3 165/1/3 167/1/3
f 171/1/3 170/1/3 169/1/3
f 172/1/3 170/1/3 171/1/3
f 175/1/3 174/1/3 173/1/3
f 176/1/3 174/1/3 175/1/3
f 179/1/3 178/1/3 177/1/3
f 180/1/3 178/1/3 179/1/3
f 183/1/3 182/1/3 181/1/3
f 184/1/3 182/1/3 183/1/3
f 187/1/3 186/1/3 185/1/3
f 188/1/3 186/1/3 187/1/3
f 191/1/3 190/1/3 189/1/3
f 192/1/3 190/1/3 191/1/3
f 195/1/3 194/1/3 193/1/3
f 196/1/3 194/1/3 195/1/3
f 199/1/3 198/1/3 197/1/3
f 200/1/3 198/1/3 199/1/3
f 203/1/3 202/1/3 201/1/3
f 204/1/3 202/1/3 203/1/3
f 207/1/3 206/1/3 205/1/3
f 208/1/3 206/1/3 207/1/3
f 211/1/3 210/1/3 209/1/3
f 212/1/3 210/1/3 211/1/3
f 215/1/3 214/1/3 213/1/3
f 216/1/3 214/1/3 215/1/3
f 219/1/3 218/1/3 217/1/3
f 220/1/3 218/1/3 219/1/3
f 223/1/3 222/1/3 221/1/3
f 224/1/3 222/1/3 223/1/3
f 227/1/3 226/1/3 225/1/3
f 228/1/3 226/1/3 227/1/3
f 231/1/3 230/1/3 229/1/3
f 232/1/3 230/1/3 231/1/3
f 235/1/3 234/1/3 233/1/3
f 236/1/3 234/1/3 235/1/3
f 239/1/3 238/1/3 237/1/3
f 240/1/3 238/1/3 239/1/3
f 243/1/3 242/1/3 241/1/3
f 244/1/3 242/1/3 243/1/3
f 247/1/3 246/1/3 245/1/3
f 248/1/3 246/1/3 247/1/3
f 251/1/3 250/1/3 249/1/3
f 252/1/3 250/1/3 251/1/3
f 255/1/3 254/1/3 253/1/3
f 256/1/3 254/1/3 255/1/3
f 259/1/3 258/1/3 257/1/3
f 260/1/3 258/1/3 259/1/3
f 263/1/3 262/1/3 261/1/3
f 264/1/3 262/1/3 263/1/3
f 267/1/3 266/1/3 265/1/3
f 268/1/3 266/1/3 267/1/3
f 269/1/4 270/1/4 271/1/4
f 271/1/4 270/1/4 272/1/4
f 273/1/4 274/1/4 275/1/4
f 275/1/4 274/1/4 276/1/4
f 277/1/4 278/1/4 279/1/4
f 279/1/4 278/1/4 280/1/4
f 284/1/5 282/1/5 281/1/5
f 286/1/5 284/1/5 283/1/5
f 288/1/5 286/1/5 285/1/5
f 290/1/5 288/1/5 287/1/5
f 292/1/5 290/1/5 289/1/5
f 293/1/5 292/1/5 291/1/5
f 294/1/5 292/1/5 293/1/5
f 296/1/5 292/1/5 294/1/5
f 298/1/5 296/1/5 295/1/5
f 300/1/5 298/1/5 297/1/5
f 302/1/5 300/1/5 299/1/5
f 304/1/5 302/1/5 301/1/5
f 306/1/5 304/1/5 303/1/5
f 308/1/5 306/1/5 305/1/5
f 310/1/5 308/1/5 307/1/5
f 312/1/5 310/1/5 309/1/5
f 314/1/5 312/1/5 311/1/5
f 316/1/5 314/1/5 313/1/5
f 318/1/5 316/1/5 315/1/5
f 320/1/5 318/1/5 317/1/5
f 322/1/5 320/1/5 319/1/5
f 324/1/5 322/1/5 321/1/5
f 326/1/5 324/1/5 323/1/5
f 328/1/5 326/1/5 325/1/5
f 330/1/5 328/1/5 327/1/5
f 332/1/5 330/1/5 329/1/5
f 334/1/5 332/1/5 331/1/5
f 336/1/5 334/1/5 333/1/5
f 338/1/5 336/1/5 335/1/5
f 340/1/5 338/1/5 337/1/5
f 341/1/5 340/1/5 339/1/5
f 342/1/5 338/1/5 340/1/5
f 342/1/5 340/1/5 341/1/5
f 343/1/5 338/1/5 342/1/5
f 344/1/5 282/1/5 284/1/5
f 344/1/5 338/1/5 343/1/5
f 344/1/5 284/1/5 286/1/5
f 344/1/5 286/1/5 288/1/5
f 344/1/5 288/1/5 290/1/5
f 344/1/5 336/1/5 338/1/5
f 344/1/5 290/1/5 292/1/5
f 344/1/5 334/1/5 336/1/5
f 344/1/5 292/1/5 296/1/5
f 344/1/5 332/1/5 334/1/5
f 344/1/5 296/1/5 298/1/5
f 344/1/5 330/1/5 332/1/5
f 344/1/5 298/1/5 300/1/5
f 344/1/5 328/1/5 330/1/5
f 344/1/5 300/1/5 302/1/5
f 344/1/5 326/1/5 328/1/5
f 344/1/5 302/1/5 304/1/5
f 344/1/5 324/1/5 326/1/5
f 344/1/5 304/1/5 306/1/5
f 344/1/5 322/1/5 324/1/5
f 344/1/5 306/1/5 308/1/5
f 344/1/5 320/1/5 322/1/5
f 344/1/5 308/1/5 310/1/5
f 344/1/5 318/1/5 320/1/5
f 344/1/5 310/1/5 312/1/5
f 344/1/5 316/1/5 318/1/5
f 344/1/5 312/1/5 314/1/5
f 344/1/5 314/1/5 316/1/5
f 345/1/6 346/1/6 348/1/6
f 348/1/6 346/1/6 349/1/6
f 349/1/6 346/1/6 350/1/6
f 347/1/6 348/1/6 351/1/6
f 348/1/6 349/1/6 351/1/6
f 351/1/6 349/1/6 352/1/6
f 353/1/6 354/1/6 356/1/6
f 355/1/6 356/1/6 358/1/6
f 357/1/6 358/1/6 360/1/6
f 359/1/6 360/1/6 362/1/6
f 361/1/6 362/1/6 366/1/6
f 363/1/6 364/1/6 367/1/6
f 367/1/6 364/1/6 368/1/6
f 365/1/6 366/1/6 369/1/6
f 368/1/6 369/1/6 371/1/6
f 370/1/6 371/1/6 373/1/6
f 372/1/6 373/1/6 375/1/6
f 374/1/6 375/1/6 377/1/6
f 376/1/6 377/1/6 379/1/6
f 378/1/6 379/1/6 381/1/6
f 380/1/6 381/1/6 383/1/6
f 382/1/6 383/1/6 385/1/6
f 384/1/6 385/1/6 387/1/6
f 386/1/6 387/1/6 389/1/6
f 388/1/6 389/1/6 391/1/6
f 390/1/6 391/1/6 393/1/6
f 392/1/6 393/1/6 395/1/6
f 394/1/6 395/1/6 397/1/6
f 396/1/6 397/1/6 399/1/6
f 398/1/6 399/1/6 401/1/6
f 400/1/6 401/1/6 403/1/6
f 402/1/6 403/1/6 405/1/6
f 404/1/6 405/1/6 407/1/6
f 406/1/6 407/1/6 409/1/6
f 408/1/6 409/1/6 411/1/6
f 410/1/6 411/1/6 413/1/6
f 412/1/6 413/1/6 415/1/6
f 414/1/6 415/1/6 416/1/6
f 415/1/6 413/1/6 417/1/6
f 416/1/6 415/1/6 417/1/6
f 417/1/6 413/1/6 418/1/6
f 356/1/6 354/1/6 419/1/6
f 418/1/6 413/1/6 419/1/6
f 358/1/6 356/1/6 419/1/6
f 360/1/6 358/1/6 419/1/6
f 362/1/6 360/1/6 419/1/6
f 413/1/6 411/1/6 419/1/6
f 369/1/6 366/1/6 419/1/6
f 411/1/6 409/1/6 419/1/6
f 366/1/6 362/1/6 419/1/6
f 409/1/6 407/1/6 419/1/6
f 371/1/6 369/1/6 419/1/6
f 407/1/6 405/1/6 419/1/6
f 373/1/6 371/1/6 419/1/6
f 405/1/6 403/1/6 419/1/6
f 375/1/6 373/1/6 419/1/6
f 403/1/6 401/1/6 419/1/6
f 377/1/6 375/1/6 419/1/6
f 401/1/6 399/1/6 419/1/6
f 379/1/6 377/1/6 419/1/6
f 399/1/6 397/1/6 419/1/6
f 381/1/6 379/1/6 419/1/6
f 397/1/6 395/1/6 419/1/6
f 383/1/6 381/1/6 419/1/6
f 395/1/6 393/1/6 419/1/6
f 385/1/6 383/1/6 419/1/6
f 393/1/6 391/1/6 419/1/6
f 387/1/6 385/1/6 419/1/6
f 391/1/6 389/1/6 419/1/6
f 389/1/6 387/1/6 419/1/6
