# MagicaVoxel @ Ephtracy

# group
g Light House-17

# material
mtllib Light House-17.mtl
usemtl palette

# normals
vn -1 0 0
vn 1 0 0
vn 0 0 1
vn 0 0 -1
vn 0 -1 0
vn 0 1 0

# texcoords
vt 0.716797 0.5
vt 0.974609 0.5

# verts
v -63 0 63
v -63 0 -53
v -63 0 -63
v -63 1 -53
v -63 1 -63
v -63 4 63
v -63 4 -53
v -50 1 -54
v -50 1 -63
v -50 4 -54
v -50 4 -63
v -49 1 -51
v -49 1 -54
v -49 4 -51
v -49 4 -54
v -48 1 -42
v -48 1 -43
v -48 1 -47
v -48 1 -51
v -48 4 -42
v -48 4 -43
v -48 4 -47
v -48 4 -51
v -47 1 -43
v -47 1 -47
v -47 4 -43
v -47 4 -47
v -62 1 -52
v -62 1 -53
v -62 4 -52
v -62 4 -53
v -61 1 -51
v -61 1 -52
v -61 4 -51
v -61 4 -52
v -59 1 -50
v -59 1 -51
v -59 4 -50
v -59 4 -51
v -58 1 -49
v -58 1 -50
v -58 4 -49
v -58 4 -50
v -57 1 -47
v -57 1 -49
v -57 4 -47
v -57 4 -49
v -56 1 -45
v -56 1 -47
v -56 4 -45
v -56 4 -47
v -55 1 -43
v -55 1 -45
v -55 4 -43
v -55 4 -45
v -54 1 -42
v -54 1 -43
v -54 4 -42
v -54 4 -43
v 63 0 63
v 63 0 -63
v 63 4 63
v 63 4 -63
v -63 0 63
v -63 4 63
v 63 0 63
v 63 4 63
v -48 1 -47
v -48 4 -47
v -47 1 -47
v -47 4 -47
v -49 1 -51
v -49 4 -51
v -48 1 -51
v -48 4 -51
v -50 1 -54
v -50 4 -54
v -49 1 -54
v -49 4 -54
v -54 1 -42
v -54 4 -42
v -48 1 -42
v -48 4 -42
v -55 1 -43
v -55 4 -43
v -54 1 -43
v -54 4 -43
v -48 1 -43
v -48 4 -43
v -47 1 -43
v -47 4 -43
v -56 1 -45
v -56 4 -45
v -55 1 -45
v -55 4 -45
v -57 1 -47
v -57 4 -47
v -56 1 -47
v -56 4 -47
v -58 1 -49
v -58 4 -49
v -57 1 -49
v -57 4 -49
v -59 1 -50
v -59 4 -50
v -58 1 -50
v -58 4 -50
v -61 1 -51
v -61 4 -51
v -59 1 -51
v -59 4 -51
v -62 1 -52
v -62 4 -52
v -61 1 -52
v -61 4 -52
v -63 1 -53
v -63 4 -53
v -62 1 -53
v -62 4 -53
v -63 0 -63
v -63 1 -63
v -50 0 -63
v -50 1 -63
v -50 4 -63
v 63 0 -63
v 63 4 -63
v -63 0 63
v 63 0 63
v -54 0 -42
v -48 0 -42
v -55 0 -43
v -54 0 -43
v -48 0 -43
v -47 0 -43
v -56 0 -45
v -55 0 -45
v -57 0 -47
v -56 0 -47
v -48 0 -47
v -47 0 -47
v -58 0 -49
v -57 0 -49
v -59 0 -50
v -58 0 -50
v -61 0 -51
v -59 0 -51
v -49 0 -51
v -48 0 -51
v -62 0 -52
v -61 0 -52
v -63 0 -53
v -62 0 -53
v -50 0 -54
v -49 0 -54
v -63 0 -63
v -50 0 -63
v 63 0 -63
v -54 1 -42
v -48 1 -42
v -55 1 -43
v -54 1 -43
v -48 1 -43
v -47 1 -43
v -56 1 -45
v -55 1 -45
v -57 1 -47
v -56 1 -47
v -48 1 -47
v -47 1 -47
v -58 1 -49
v -57 1 -49
v -59 1 -50
v -58 1 -50
v -61 1 -51
v -59 1 -51
v -49 1 -51
v -48 1 -51
v -62 1 -52
v -61 1 -52
v -63 1 -53
v -62 1 -53
v -50 1 -54
v -49 1 -54
v -63 1 -63
v -50 1 -63
v -63 4 63
v 63 4 63
v -54 4 -42
v -48 4 -42
v -55 4 -43
v -54 4 -43
v -48 4 -43
v -47 4 -43
v -56 4 -45
v -55 4 -45
v -57 4 -47
v -56 4 -47
v -48 4 -47
v -47 4 -47
v -58 4 -49
v -57 4 -49
v -59 4 -50
v -58 4 -50
v -61 4 -51
v -59 4 -51
v -49 4 -51
v -48 4 -51
v -62 4 -52
v -61 4 -52
v -63 4 -53
v -62 4 -53
v -50 4 -54
v -49 4 -54
v -50 4 -63
v 63 4 -63

# faces
f 4/2/1 2/2/1 1/2/1
f 4/1/1 3/1/1 2/1/1
f 5/1/1 3/1/1 4/1/1
f 6/2/1 4/2/1 1/2/1
f 7/2/1 4/2/1 6/2/1
f 10/2/1 9/2/1 8/2/1
f 11/2/1 9/2/1 10/2/1
f 14/2/1 13/2/1 12/2/1
f 15/2/1 13/2/1 14/2/1
f 20/2/1 17/2/1 16/2/1
f 21/2/1 17/2/1 20/2/1
f 22/2/1 19/2/1 18/2/1
f 23/2/1 19/2/1 22/2/1
f 26/2/1 25/2/1 24/2/1
f 27/2/1 25/2/1 26/2/1
f 28/2/2 29/2/2 30/2/2
f 30/2/2 29/2/2 31/2/2
f 32/2/2 33/2/2 34/2/2
f 34/2/2 33/2/2 35/2/2
f 36/2/2 37/2/2 38/2/2
f 38/2/2 37/2/2 39/2/2
f 40/2/2 41/2/2 42/2/2
f 42/2/2 41/2/2 43/2/2
f 44/2/2 45/2/2 46/2/2
f 46/2/2 45/2/2 47/2/2
f 48/2/2 49/2/2 50/2/2
f 50/2/2 49/2/2 51/2/2
f 52/2/2 53/2/2 54/2/2
f 54/2/2 53/2/2 55/2/2
f 56/2/2 57/2/2 58/2/2
f 58/2/2 57/2/2 59/2/2
f 60/2/2 61/2/2 62/2/2
f 62/2/2 61/2/2 63/2/2
f 66/2/3 65/2/3 64/2/3
f 67/2/3 65/2/3 66/2/3
f 70/2/3 69/2/3 68/2/3
f 71/2/3 69/2/3 70/2/3
f 74/2/3 73/2/3 72/2/3
f 75/2/3 73/2/3 74/2/3
f 78/2/3 77/2/3 76/2/3
f 79/2/3 77/2/3 78/2/3
f 80/2/4 81/2/4 82/2/4
f 82/2/4 81/2/4 83/2/4
f 84/2/4 85/2/4 86/2/4
f 86/2/4 85/2/4 87/2/4
f 88/2/4 89/2/4 90/2/4
f 90/2/4 89/2/4 91/2/4
f 92/2/4 93/2/4 94/2/4
f 94/2/4 93/2/4 95/2/4
f 96/2/4 97/2/4 98/2/4
f 98/2/4 97/2/4 99/2/4
f 100/2/4 101/2/4 102/2/4
f 102/2/4 101/2/4 103/2/4
f 104/2/4 105/2/4 106/2/4
f 106/2/4 105/2/4 107/2/4
f 108/2/4 109/2/4 110/2/4
f 110/2/4 109/2/4 111/2/4
f 112/2/4 113/2/4 114/2/4
f 114/2/4 113/2/4 115/2/4
f 116/2/4 117/2/4 118/2/4
f 118/2/4 117/2/4 119/2/4
f 120/1/4 121/1/4 122/1/4
f 122/1/4 121/1/4 123/1/4
f 122/2/4 123/2/4 125/2/4
f 123/2/4 124/2/4 125/2/4
f 125/2/4 124/2/4 126/2/4
f 129/2/5 128/2/5 127/2/5
f 130/2/5 128/2/5 129/2/5
f 131/2/5 129/2/5 127/2/5
f 132/1/5 130/1/5 129/1/5
f 132/2/5 129/2/5 131/2/5
f 133/2/5 128/2/5 130/2/5
f 133/1/5 130/1/5 132/1/5
f 134/2/5 128/2/5 133/2/5
f 135/2/5 131/2/5 127/2/5
f 136/1/5 132/1/5 131/1/5
f 136/2/5 131/2/5 135/2/5
f 136/1/5 133/1/5 132/1/5
f 136/1/5 134/1/5 133/1/5
f 137/2/5 135/2/5 127/2/5
f 138/1/5 136/1/5 135/1/5
f 138/2/5 135/2/5 137/2/5
f 139/1/5 134/1/5 136/1/5
f 139/1/5 136/1/5 138/1/5
f 140/2/5 128/2/5 134/2/5
f 140/1/5 134/1/5 139/1/5
f 141/2/5 137/2/5 127/2/5
f 142/1/5 138/1/5 137/1/5
f 142/2/5 137/2/5 141/2/5
f 142/1/5 139/1/5 138/1/5
f 143/2/5 141/2/5 127/2/5
f 144/1/5 142/1/5 141/1/5
f 144/2/5 141/2/5 143/2/5
f 145/2/5 143/2/5 127/2/5
f 146/1/5 144/1/5 143/1/5
f 146/2/5 143/2/5 145/2/5
f 147/1/5 139/1/5 142/1/5
f 147/1/5 144/1/5 146/1/5
f 147/1/5 142/1/5 144/1/5
f 148/2/5 140/2/5 139/2/5
f 148/1/5 139/1/5 147/1/5
f 149/2/5 145/2/5 127/2/5
f 150/1/5 146/1/5 145/1/5
f 150/2/5 145/2/5 149/2/5
f 150/1/5 147/1/5 146/1/5
f 151/2/5 149/2/5 127/2/5
f 152/1/5 150/1/5 149/1/5
f 152/2/5 149/2/5 151/2/5
f 153/1/5 147/1/5 150/1/5
f 153/1/5 150/1/5 152/1/5
f 153/1/5 152/1/5 151/1/5
f 154/2/5 148/2/5 147/2/5
f 154/1/5 147/1/5 153/1/5
f 155/1/5 153/1/5 151/1/5
f 156/2/5 154/2/5 153/2/5
f 156/1/5 153/1/5 155/1/5
f 157/2/5 148/2/5 154/2/5
f 157/2/5 154/2/5 156/2/5
f 157/2/5 128/2/5 140/2/5
f 157/2/5 140/2/5 148/2/5
f 158/1/6 159/1/6 161/1/6
f 161/1/6 159/1/6 162/1/6
f 160/1/6 161/1/6 165/1/6
f 162/1/6 163/1/6 165/1/6
f 161/1/6 162/1/6 165/1/6
f 164/1/6 165/1/6 167/1/6
f 165/1/6 163/1/6 168/1/6
f 167/1/6 165/1/6 168/1/6
f 168/1/6 163/1/6 169/1/6
f 166/1/6 167/1/6 171/1/6
f 167/1/6 168/1/6 171/1/6
f 170/1/6 171/1/6 173/1/6
f 172/1/6 173/1/6 175/1/6
f 171/1/6 168/1/6 176/1/6
f 173/1/6 171/1/6 176/1/6
f 175/1/6 173/1/6 176/1/6
f 176/1/6 168/1/6 177/1/6
f 174/1/6 175/1/6 179/1/6
f 175/1/6 176/1/6 179/1/6
f 178/1/6 179/1/6 181/1/6
f 179/1/6 176/1/6 182/1/6
f 180/1/6 181/1/6 182/1/6
f 181/1/6 179/1/6 182/1/6
f 182/1/6 176/1/6 183/1/6
f 180/1/6 182/1/6 184/1/6
f 184/1/6 182/1/6 185/1/6
f 186/2/6 187/2/6 188/2/6
f 188/2/6 187/2/6 189/2/6
f 186/2/6 188/2/6 190/2/6
f 190/2/6 188/2/6 191/2/6
f 189/2/6 187/2/6 192/2/6
f 192/2/6 187/2/6 193/2/6
f 186/2/6 190/2/6 194/2/6
f 194/2/6 190/2/6 195/2/6
f 186/2/6 194/2/6 196/2/6
f 196/2/6 194/2/6 197/2/6
f 193/2/6 187/2/6 199/2/6
f 186/2/6 196/2/6 200/2/6
f 200/2/6 196/2/6 201/2/6
f 186/2/6 200/2/6 202/2/6
f 202/2/6 200/2/6 203/2/6
f 186/2/6 202/2/6 204/2/6
f 204/2/6 202/2/6 205/2/6
f 198/2/6 199/2/6 207/2/6
f 186/2/6 204/2/6 208/2/6
f 208/2/6 204/2/6 209/2/6
f 186/2/6 208/2/6 210/2/6
f 210/2/6 208/2/6 211/2/6
f 206/2/6 207/2/6 213/2/6
f 212/2/6 213/2/6 214/2/6
f 199/2/6 187/2/6 215/2/6
f 214/2/6 213/2/6 215/2/6
f 207/2/6 199/2/6 215/2/6
f 213/2/6 207/2/6 215/2/6
