# MagicaVoxel @ Ephtracy

# group
g Main Island-16

# material
mtllib Main Island-16.mtl
usemtl palette

# normals
vn -1 0 0
vn 1 0 0
vn 0 0 1
vn 0 0 -1
vn 0 -1 0
vn 0 1 0

# texcoords
vt 0.974609 0.5

# verts
v -63 0 63
v -63 0 1
v -63 4 60
v -63 4 1
v -63 6 63
v -63 6 60
v -62 6 63
v -62 6 62
v -62 8 63
v -62 8 62
v -61 4 60
v -61 4 59
v -61 6 62
v -61 6 61
v -61 6 60
v -61 6 59
v -61 8 62
v -61 8 61
v -60 4 59
v -60 4 58
v -60 6 61
v -60 6 60
v -60 6 59
v -60 6 58
v -60 8 61
v -60 8 60
v -59 6 60
v -59 6 59
v -59 8 60
v -59 8 59
v -58 4 58
v -58 4 57
v -58 6 59
v -58 6 58
v -58 6 57
v -58 8 59
v -58 8 58
v -57 4 57
v -57 4 56
v -57 6 58
v -57 6 57
v -57 6 56
v -57 8 58
v -57 8 57
v -56 6 57
v -56 6 56
v -56 8 57
v -56 8 56
v -55 4 56
v -55 4 55
v -55 5 55
v -55 5 54
v -55 6 55
v -55 6 54
v -55 8 56
v -55 8 55
v -54 4 55
v -54 4 54
v -54 5 55
v -54 5 54
v -54 5 53
v -54 6 55
v -54 6 54
v -54 6 53
v -54 8 55
v -54 8 54
v -53 4 54
v -53 4 52
v -53 5 54
v -53 5 53
v -53 6 54
v -53 6 53
v -53 8 54
v -53 8 52
v -52 4 52
v -52 4 49
v -52 6 51
v -52 6 49
v -52 8 52
v -52 8 51
v -51 4 49
v -51 4 47
v -51 6 51
v -51 6 50
v -51 6 49
v -51 6 47
v -51 8 51
v -51 8 50
v -50 4 47
v -50 4 46
v -50 6 50
v -50 6 49
v -50 6 47
v -50 6 46
v -50 8 50
v -50 8 49
v -49 4 46
v -49 4 44
v -49 6 46
v -49 6 44
v -48 4 44
v -48 4 43
v -48 6 44
v -48 6 43
v -47 4 43
v -47 4 41
v -47 6 49
v -47 6 48
v -47 6 43
v -47 6 41
v -47 8 49
v -47 8 48
v -46 4 41
v -46 4 39
v -46 6 41
v -46 6 39
v -45 4 39
v -45 4 36
v -45 6 39
v -45 6 36
v -44 4 36
v -44 4 29
v -44 6 36
v -44 6 29
v -43 4 29
v -43 4 24
v -43 6 29
v -43 6 24
v -42 4 24
v -42 4 19
v -42 6 24
v -42 6 19
v -57 0 2
v -57 0 1
v -57 4 2
v -57 4 1
v -55 0 3
v -55 0 2
v -55 4 3
v -55 4 2
v -54 0 4
v -54 0 3
v -54 4 4
v -54 4 3
v -53 0 6
v -53 0 4
v -53 4 6
v -53 4 4
v -52 0 7
v -52 0 6
v -52 4 7
v -52 4 6
v -51 0 9
v -51 0 7
v -51 4 9
v -51 4 7
v -50 0 10
v -50 0 9
v -50 4 10
v -50 4 9
v -49 0 11
v -49 0 10
v -49 4 11
v -49 4 10
v -48 0 12
v -48 0 11
v -48 4 12
v -48 4 11
v -47 0 14
v -47 0 12
v -47 4 14
v -47 4 12
v -46 0 16
v -46 0 14
v -46 4 16
v -46 4 14
v -44 0 17
v -44 0 16
v -44 4 17
v -44 4 16
v -43 0 18
v -43 0 17
v -43 4 18
v -43 4 17
v -42 0 19
v -42 0 18
v -42 4 19
v -42 4 18
v -42 6 49
v -42 6 48
v -42 8 49
v -42 8 48
v -41 0 20
v -41 0 19
v -41 6 50
v -41 6 49
v -41 6 20
v -41 6 19
v -41 8 50
v -41 8 49
v -40 0 21
v -40 0 20
v -40 6 21
v -40 6 20
v -39 0 22
v -39 0 21
v -39 6 51
v -39 6 50
v -39 6 22
v -39 6 21
v -39 8 51
v -39 8 50
v -38 0 23
v -38 0 22
v -38 6 52
v -38 6 51
v -38 6 23
v -38 6 22
v -38 8 52
v -38 8 51
v -37 6 54
v -37 6 52
v -37 8 54
v -37 8 52
v -36 0 24
v -36 0 23
v -36 6 63
v -36 6 54
v -36 6 24
v -36 6 23
v -36 8 63
v -36 8 54
v -34 0 25
v -34 0 24
v -34 6 25
v -34 6 24
v -33 0 26
v -33 0 25
v -33 6 26
v -33 6 25
v -32 0 27
v -32 0 26
v -32 6 27
v -32 6 26
v -31 0 30
v -31 0 27
v -31 6 30
v -31 6 27
v -30 0 32
v -30 0 30
v -30 6 32
v -30 6 30
v -29 0 34
v -29 0 32
v -29 6 34
v -29 6 32
v -28 0 36
v -28 0 34
v -28 6 36
v -28 6 34
v -27 0 38
v -27 0 36
v -27 6 38
v -27 6 36
v -26 0 39
v -26 0 38
v -26 6 39
v -26 6 38
v -25 0 40
v -25 0 39
v -25 6 40
v -25 6 39
v -24 0 42
v -24 0 40
v -24 6 42
v -24 6 40
v -23 0 56
v -23 0 42
v -23 6 56
v -23 6 42
v -22 0 60
v -22 0 56
v -22 6 60
v -22 6 56
v -21 0 63
v -21 0 60
v -21 6 63
v -21 6 60
v -63 0 63
v -63 6 63
v -62 6 63
v -62 8 63
v -36 6 63
v -36 8 63
v -21 0 63
v -21 6 63
v -62 6 62
v -62 8 62
v -61 6 62
v -61 8 62
v -61 6 61
v -61 8 61
v -60 6 61
v -60 8 61
v -63 4 60
v -63 6 60
v -61 4 60
v -61 6 60
v -60 6 60
v -60 8 60
v -59 6 60
v -59 8 60
v -22 0 60
v -22 6 60
v -21 0 60
v -21 6 60
v -61 4 59
v -61 6 59
v -60 4 59
v -60 6 59
v -59 6 59
v -59 8 59
v -58 6 59
v -58 8 59
v -60 4 58
v -60 6 58
v -58 4 58
v -58 6 58
v -58 8 58
v -57 6 58
v -57 8 58
v -58 4 57
v -58 6 57
v -57 4 57
v -57 6 57
v -57 8 57
v -56 6 57
v -56 8 57
v -57 4 56
v -57 6 56
v -56 6 56
v -56 8 56
v -55 4 56
v -55 8 56
v -23 0 56
v -23 6 56
v -22 0 56
v -22 6 56
v -55 4 55
v -55 5 55
v -55 6 55
v -55 8 55
v -54 4 55
v -54 5 55
v -54 6 55
v -54 8 55
v -55 5 54
v -55 6 54
v -54 4 54
v -54 5 54
v -54 6 54
v -54 8 54
v -53 4 54
v -53 5 54
v -53 6 54
v -53 8 54
v -37 6 54
v -37 8 54
v -36 6 54
v -36 8 54
v -54 5 53
v -54 6 53
v -53 5 53
v -53 6 53
v -53 4 52
v -53 8 52
v -52 4 52
v -52 8 52
v -38 6 52
v -38 8 52
v -37 6 52
v -37 8 52
v -52 6 51
v -52 8 51
v -51 6 51
v -51 8 51
v -39 6 51
v -39 8 51
v -38 6 51
v -38 8 51
v -51 6 50
v -51 8 50
v -50 6 50
v -50 8 50
v -41 6 50
v -41 8 50
v -39 6 50
v -39 8 50
v -52 4 49
v -52 6 49
v -51 4 49
v -51 6 49
v -50 6 49
v -50 8 49
v -47 6 49
v -47 8 49
v -42 6 49
v -42 8 49
v -41 6 49
v -41 8 49
v -47 6 48
v -47 8 48
v -42 6 48
v -42 8 48
v -51 4 47
v -51 6 47
v -50 4 47
v -50 6 47
v -50 4 46
v -50 6 46
v -49 4 46
v -49 6 46
v -49 4 44
v -49 6 44
v -48 4 44
v -48 6 44
v -48 4 43
v -48 6 43
v -47 4 43
v -47 6 43
v -24 0 42
v -24 6 42
v -23 0 42
v -23 6 42
v -47 4 41
v -47 6 41
v -46 4 41
v -46 6 41
v -25 0 40
v -25 6 40
v -24 0 40
v -24 6 40
v -46 4 39
v -46 6 39
v -45 4 39
v -45 6 39
v -26 0 39
v -26 6 39
v -25 0 39
v -25 6 39
v -27 0 38
v -27 6 38
v -26 0 38
v -26 6 38
v -45 4 36
v -45 6 36
v -44 4 36
v -44 6 36
v -28 0 36
v -28 6 36
v -27 0 36
v -27 6 36
v -29 0 34
v -29 6 34
v -28 0 34
v -28 6 34
v -30 0 32
v -30 6 32
v -29 0 32
v -29 6 32
v -31 0 30
v -31 6 30
v -30 0 30
v -30 6 30
v -44 4 29
v -44 6 29
v -43 4 29
v -43 6 29
v -32 0 27
v -32 6 27
v -31 0 27
v -31 6 27
v -33 0 26
v -33 6 26
v -32 0 26
v -32 6 26
v -34 0 25
v -34 6 25
v -33 0 25
v -33 6 25
v -43 4 24
v -43 6 24
v -42 4 24
v -42 6 24
v -36 0 24
v -36 6 24
v -34 0 24
v -34 6 24
v -38 0 23
v -38 6 23
v -36 0 23
v -36 6 23
v -39 0 22
v -39 6 22
v -38 0 22
v -38 6 22
v -40 0 21
v -40 6 21
v -39 0 21
v -39 6 21
v -41 0 20
v -41 6 20
v -40 0 20
v -40 6 20
v -42 0 19
v -42 4 19
v -42 6 19
v -41 0 19
v -41 6 19
v -43 0 18
v -43 4 18
v -42 0 18
v -42 4 18
v -44 0 17
v -44 4 17
v -43 0 17
v -43 4 17
v -46 0 16
v -46 4 16
v -44 0 16
v -44 4 16
v -47 0 14
v -47 4 14
v -46 0 14
v -46 4 14
v -48 0 12
v -48 4 12
v -47 0 12
v -47 4 12
v -49 0 11
v -49 4 11
v -48 0 11
v -48 4 11
v -50 0 10
v -50 4 10
v -49 0 10
v -49 4 10
v -51 0 9
v -51 4 9
v -50 0 9
v -50 4 9
v -52 0 7
v -52 4 7
v -51 0 7
v -51 4 7
v -53 0 6
v -53 4 6
v -52 0 6
v -52 4 6
v -54 0 4
v -54 4 4
v -53 0 4
v -53 4 4
v -55 0 3
v -55 4 3
v -54 0 3
v -54 4 3
v -57 0 2
v -57 4 2
v -55 0 2
v -55 4 2
v -63 0 1
v -63 4 1
v -57 0 1
v -57 4 1
v -63 0 63
v -21 0 63
v -22 0 60
v -21 0 60
v -23 0 56
v -22 0 56
v -24 0 42
v -23 0 42
v -25 0 40
v -24 0 40
v -26 0 39
v -25 0 39
v -27 0 38
v -26 0 38
v -28 0 36
v -27 0 36
v -29 0 34
v -28 0 34
v -30 0 32
v -29 0 32
v -31 0 30
v -30 0 30
v -32 0 27
v -31 0 27
v -33 0 26
v -32 0 26
v -34 0 25
v -33 0 25
v -36 0 24
v -34 0 24
v -38 0 23
v -36 0 23
v -39 0 22
v -38 0 22
v -40 0 21
v -39 0 21
v -41 0 20
v -40 0 20
v -42 0 19
v -41 0 19
v -43 0 18
v -42 0 18
v -44 0 17
v -43 0 17
v -46 0 16
v -44 0 16
v -47 0 14
v -46 0 14
v -48 0 12
v -47 0 12
v -49 0 11
v -48 0 11
v -50 0 10
v -49 0 10
v -51 0 9
v -50 0 9
v -52 0 7
v -51 0 7
v -53 0 6
v -52 0 6
v -54 0 4
v -53 0 4
v -55 0 3
v -54 0 3
v -57 0 2
v -55 0 2
v -63 0 1
v -57 0 1
v -55 5 55
v -54 5 55
v -55 5 54
v -54 5 54
v -53 5 54
v -54 5 53
v -53 5 53
v -63 4 60
v -61 4 60
v -61 4 59
v -60 4 59
v -60 4 58
v -58 4 58
v -58 4 57
v -57 4 57
v -57 4 56
v -55 4 56
v -55 4 55
v -54 4 55
v -54 4 54
v -53 4 54
v -53 4 52
v -52 4 52
v -52 4 49
v -51 4 49
v -51 4 47
v -50 4 47
v -50 4 46
v -49 4 46
v -49 4 44
v -48 4 44
v -48 4 43
v -47 4 43
v -47 4 41
v -46 4 41
v -46 4 39
v -45 4 39
v -45 4 36
v -44 4 36
v -44 4 29
v -43 4 29
v -43 4 24
v -42 4 24
v -42 4 19
v -43 4 18
v -42 4 18
v -44 4 17
v -43 4 17
v -46 4 16
v -44 4 16
v -47 4 14
v -46 4 14
v -48 4 12
v -47 4 12
v -49 4 11
v -48 4 11
v -50 4 10
v -49 4 10
v -51 4 9
v -50 4 9
v -52 4 7
v -51 4 7
v -53 4 6
v -52 4 6
v -54 4 4
v -53 4 4
v -55 4 3
v -54 4 3
v -57 4 2
v -55 4 2
v -63 4 1
v -57 4 1
v -63 6 63
v -62 6 63
v -36 6 63
v -21 6 63
v -62 6 62
v -61 6 62
v -61 6 61
v -60 6 61
v -63 6 60
v -61 6 60
v -60 6 60
v -59 6 60
v -22 6 60
v -21 6 60
v -61 6 59
v -60 6 59
v -59 6 59
v -58 6 59
v -60 6 58
v -58 6 58
v -57 6 58
v -58 6 57
v -57 6 57
v -56 6 57
v -57 6 56
v -56 6 56
v -23 6 56
v -22 6 56
v -55 6 55
v -54 6 55
v -55 6 54
v -54 6 54
v -53 6 54
v -37 6 54
v -36 6 54
v -54 6 53
v -53 6 53
v -38 6 52
v -37 6 52
v -52 6 51
v -51 6 51
v -39 6 51
v -38 6 51
v -51 6 50
v -50 6 50
v -41 6 50
v -39 6 50
v -52 6 49
v -51 6 49
v -50 6 49
v -47 6 49
v -42 6 49
v -41 6 49
v -47 6 48
v -42 6 48
v -51 6 47
v -50 6 47
v -50 6 46
v -49 6 46
v -49 6 44
v -48 6 44
v -48 6 43
v -47 6 43
v -24 6 42
v -23 6 42
v -47 6 41
v -46 6 41
v -25 6 40
v -24 6 40
v -46 6 39
v -45 6 39
v -26 6 39
v -25 6 39
v -27 6 38
v -26 6 38
v -45 6 36
v -44 6 36
v -28 6 36
v -27 6 36
v -29 6 34
v -28 6 34
v -30 6 32
v -29 6 32
v -31 6 30
v -30 6 30
v -44 6 29
v -43 6 29
v -32 6 27
v -31 6 27
v -33 6 26
v -32 6 26
v -34 6 25
v -33 6 25
v -43 6 24
v -42 6 24
v -36 6 24
v -34 6 24
v -38 6 23
v -36 6 23
v -39 6 22
v -38 6 22
v -40 6 21
v -39 6 21
v -41 6 20
v -40 6 20
v -42 6 19
v -41 6 19
v -62 8 63
v -36 8 63
v -62 8 62
v -61 8 62
v -61 8 61
v -60 8 61
v -60 8 60
v -59 8 60
v -59 8 59
v -58 8 59
v -58 8 58
v -57 8 58
v -57 8 57
v -56 8 57
v -56 8 56
v -55 8 56
v -55 8 55
v -54 8 55
v -54 8 54
v -53 8 54
v -37 8 54
v -36 8 54
v -53 8 52
v -52 8 52
v -38 8 52
v -37 8 52
v -52 8 51
v -51 8 51
v -39 8 51
v -38 8 51
v -51 8 50
v -50 8 50
v -41 8 50
v -39 8 50
v -50 8 49
v -47 8 49
v -42 8 49
v -41 8 49
v -47 8 48
v -42 8 48

# faces
f 3/1/1 2/1/1 1/1/1
f 4/1/1 2/1/1 3/1/1
f 5/1/1 3/1/1 1/1/1
f 6/1/1 3/1/1 5/1/1
f 9/1/1 8/1/1 7/1/1
f 10/1/1 8/1/1 9/1/1
f 15/1/1 12/1/1 11/1/1
f 16/1/1 12/1/1 15/1/1
f 17/1/1 14/1/1 13/1/1
f 18/1/1 14/1/1 17/1/1
f 23/1/1 20/1/1 19/1/1
f 24/1/1 20/1/1 23/1/1
f 25/1/1 22/1/1 21/1/1
f 26/1/1 22/1/1 25/1/1
f 29/1/1 28/1/1 27/1/1
f 30/1/1 28/1/1 29/1/1
f 34/1/1 32/1/1 31/1/1
f 35/1/1 32/1/1 34/1/1
f 36/1/1 34/1/1 33/1/1
f 37/1/1 34/1/1 36/1/1
f 41/1/1 39/1/1 38/1/1
f 42/1/1 39/1/1 41/1/1
f 43/1/1 41/1/1 40/1/1
f 44/1/1 41/1/1 43/1/1
f 47/1/1 46/1/1 45/1/1
f 48/1/1 46/1/1 47/1/1
f 51/1/1 50/1/1 49/1/1
f 53/1/1 51/1/1 49/1/1
f 53/1/1 52/1/1 51/1/1
f 54/1/1 52/1/1 53/1/1
f 55/1/1 53/1/1 49/1/1
f 56/1/1 53/1/1 55/1/1
f 59/1/1 58/1/1 57/1/1
f 60/1/1 58/1/1 59/1/1
f 63/1/1 61/1/1 60/1/1
f 64/1/1 61/1/1 63/1/1
f 65/1/1 63/1/1 62/1/1
f 66/1/1 63/1/1 65/1/1
f 69/1/1 68/1/1 67/1/1
f 70/1/1 68/1/1 69/1/1
f 72/1/1 68/1/1 70/1/1
f 73/1/1 72/1/1 71/1/1
f 74/1/1 68/1/1 72/1/1
f 74/1/1 72/1/1 73/1/1
f 77/1/1 76/1/1 75/1/1
f 78/1/1 76/1/1 77/1/1
f 79/1/1 77/1/1 75/1/1
f 80/1/1 77/1/1 79/1/1
f 85/1/1 82/1/1 81/1/1
f 86/1/1 82/1/1 85/1/1
f 87/1/1 84/1/1 83/1/1
f 88/1/1 84/1/1 87/1/1
f 93/1/1 90/1/1 89/1/1
f 94/1/1 90/1/1 93/1/1
f 95/1/1 92/1/1 91/1/1
f 96/1/1 92/1/1 95/1/1
f 99/1/1 98/1/1 97/1/1
f 100/1/1 98/1/1 99/1/1
f 103/1/1 102/1/1 101/1/1
f 104/1/1 102/1/1 103/1/1
f 109/1/1 106/1/1 105/1/1
f 110/1/1 106/1/1 109/1/1
f 111/1/1 108/1/1 107/1/1
f 112/1/1 108/1/1 111/1/1
f 115/1/1 114/1/1 113/1/1
f 116/1/1 114/1/1 115/1/1
f 119/1/1 118/1/1 117/1/1
f 120/1/1 118/1/1 119/1/1
f 123/1/1 122/1/1 121/1/1
f 124/1/1 122/1/1 123/1/1
f 127/1/1 126/1/1 125/1/1
f 128/1/1 126/1/1 127/1/1
f 131/1/1 130/1/1 129/1/1
f 132/1/1 130/1/1 131/1/1
f 133/1/2 134/1/2 135/1/2
f 135/1/2 134/1/2 136/1/2
f 137/1/2 138/1/2 139/1/2
f 139/1/2 138/1/2 140/1/2
f 141/1/2 142/1/2 143/1/2
f 143/1/2 142/1/2 144/1/2
f 145/1/2 146/1/2 147/1/2
f 147/1/2 146/1/2 148/1/2
f 149/1/2 150/1/2 151/1/2
f 151/1/2 150/1/2 152/1/2
f 153/1/2 154/1/2 155/1/2
f 155/1/2 154/1/2 156/1/2
f 157/1/2 158/1/2 159/1/2
f 159/1/2 158/1/2 160/1/2
f 161/1/2 162/1/2 163/1/2
f 163/1/2 162/1/2 164/1/2
f 165/1/2 166/1/2 167/1/2
f 167/1/2 166/1/2 168/1/2
f 169/1/2 170/1/2 171/1/2
f 171/1/2 170/1/2 172/1/2
f 173/1/2 174/1/2 175/1/2
f 175/1/2 174/1/2 176/1/2
f 177/1/2 178/1/2 179/1/2
f 179/1/2 178/1/2 180/1/2
f 181/1/2 182/1/2 183/1/2
f 183/1/2 182/1/2 184/1/2
f 185/1/2 186/1/2 187/1/2
f 187/1/2 186/1/2 188/1/2
f 189/1/2 190/1/2 191/1/2
f 191/1/2 190/1/2 192/1/2
f 193/1/2 194/1/2 197/1/2
f 197/1/2 194/1/2 198/1/2
f 195/1/2 196/1/2 199/1/2
f 199/1/2 196/1/2 200/1/2
f 201/1/2 202/1/2 203/1/2
f 203/1/2 202/1/2 204/1/2
f 205/1/2 206/1/2 209/1/2
f 209/1/2 206/1/2 210/1/2
f 207/1/2 208/1/2 211/1/2
f 211/1/2 208/1/2 212/1/2
f 213/1/2 214/1/2 217/1/2
f 217/1/2 214/1/2 218/1/2
f 215/1/2 216/1/2 219/1/2
f 219/1/2 216/1/2 220/1/2
f 221/1/2 222/1/2 223/1/2
f 223/1/2 222/1/2 224/1/2
f 225/1/2 226/1/2 229/1/2
f 229/1/2 226/1/2 230/1/2
f 227/1/2 228/1/2 231/1/2
f 231/1/2 228/1/2 232/1/2
f 233/1/2 234/1/2 235/1/2
f 235/1/2 234/1/2 236/1/2
f 237/1/2 238/1/2 239/1/2
f 239/1/2 238/1/2 240/1/2
f 241/1/2 242/1/2 243/1/2
f 243/1/2 242/1/2 244/1/2
f 245/1/2 246/1/2 247/1/2
f 247/1/2 246/1/2 248/1/2
f 249/1/2 250/1/2 251/1/2
f 251/1/2 250/1/2 252/1/2
f 253/1/2 254/1/2 255/1/2
f 255/1/2 254/1/2 256/1/2
f 257/1/2 258/1/2 259/1/2
f 259/1/2 258/1/2 260/1/2
f 261/1/2 262/1/2 263/1/2
f 263/1/2 262/1/2 264/1/2
f 265/1/2 266/1/2 267/1/2
f 267/1/2 266/1/2 268/1/2
f 269/1/2 270/1/2 271/1/2
f 271/1/2 270/1/2 272/1/2
f 273/1/2 274/1/2 275/1/2
f 275/1/2 274/1/2 276/1/2
f 277/1/2 278/1/2 279/1/2
f 279/1/2 278/1/2 280/1/2
f 281/1/2 282/1/2 283/1/2
f 283/1/2 282/1/2 284/1/2
f 285/1/2 286/1/2 287/1/2
f 287/1/2 286/1/2 288/1/2
f 291/1/3 290/1/3 289/1/3
f 293/1/3 291/1/3 289/1/3
f 293/1/3 292/1/3 291/1/3
f 294/1/3 292/1/3 293/1/3
f 295/1/3 293/1/3 289/1/3
f 296/1/3 293/1/3 295/1/3
f 297/1/4 298/1/4 299/1/4
f 299/1/4 298/1/4 300/1/4
f 301/1/4 302/1/4 303/1/4
f 303/1/4 302/1/4 304/1/4
f 305/1/4 306/1/4 307/1/4
f 307/1/4 306/1/4 308/1/4
f 309/1/4 310/1/4 311/1/4
f 311/1/4 310/1/4 312/1/4
f 313/1/4 314/1/4 315/1/4
f 315/1/4 314/1/4 316/1/4
f 317/1/4 318/1/4 319/1/4
f 319/1/4 318/1/4 320/1/4
f 321/1/4 322/1/4 323/1/4
f 323/1/4 322/1/4 324/1/4
f 325/1/4 326/1/4 327/1/4
f 327/1/4 326/1/4 328/1/4
f 328/1/4 329/1/4 330/1/4
f 330/1/4 329/1/4 331/1/4
f 332/1/4 333/1/4 334/1/4
f 334/1/4 333/1/4 335/1/4
f 335/1/4 336/1/4 337/1/4
f 337/1/4 336/1/4 338/1/4
f 339/1/4 340/1/4 341/1/4
f 339/1/4 341/1/4 343/1/4
f 341/1/4 342/1/4 343/1/4
f 343/1/4 342/1/4 344/1/4
f 345/1/4 346/1/4 347/1/4
f 347/1/4 346/1/4 348/1/4
f 349/1/4 350/1/4 353/1/4
f 353/1/4 350/1/4 354/1/4
f 351/1/4 352/1/4 355/1/4
f 355/1/4 352/1/4 356/1/4
f 357/1/4 358/1/4 360/1/4
f 360/1/4 358/1/4 361/1/4
f 359/1/4 360/1/4 363/1/4
f 363/1/4 360/1/4 364/1/4
f 361/1/4 362/1/4 365/1/4
f 365/1/4 362/1/4 366/1/4
f 367/1/4 368/1/4 369/1/4
f 369/1/4 368/1/4 370/1/4
f 371/1/4 372/1/4 373/1/4
f 373/1/4 372/1/4 374/1/4
f 375/1/4 376/1/4 377/1/4
f 377/1/4 376/1/4 378/1/4
f 379/1/4 380/1/4 381/1/4
f 381/1/4 380/1/4 382/1/4
f 383/1/4 384/1/4 385/1/4
f 385/1/4 384/1/4 386/1/4
f 387/1/4 388/1/4 389/1/4
f 389/1/4 388/1/4 390/1/4
f 391/1/4 392/1/4 393/1/4
f 393/1/4 392/1/4 394/1/4
f 395/1/4 396/1/4 397/1/4
f 397/1/4 396/1/4 398/1/4
f 399/1/4 400/1/4 401/1/4
f 401/1/4 400/1/4 402/1/4
f 403/1/4 404/1/4 405/1/4
f 405/1/4 404/1/4 406/1/4
f 407/1/4 408/1/4 409/1/4
f 409/1/4 408/1/4 410/1/4
f 411/1/4 412/1/4 413/1/4
f 413/1/4 412/1/4 414/1/4
f 415/1/4 416/1/4 417/1/4
f 417/1/4 416/1/4 418/1/4
f 419/1/4 420/1/4 421/1/4
f 421/1/4 420/1/4 422/1/4
f 423/1/4 424/1/4 425/1/4
f 425/1/4 424/1/4 426/1/4
f 427/1/4 428/1/4 429/1/4
f 429/1/4 428/1/4 430/1/4
f 431/1/4 432/1/4 433/1/4
f 433/1/4 432/1/4 434/1/4
f 435/1/4 436/1/4 437/1/4
f 437/1/4 436/1/4 438/1/4
f 439/1/4 440/1/4 441/1/4
f 441/1/4 440/1/4 442/1/4
f 443/1/4 444/1/4 445/1/4
f 445/1/4 444/1/4 446/1/4
f 447/1/4 448/1/4 449/1/4
f 449/1/4 448/1/4 450/1/4
f 451/1/4 452/1/4 453/1/4
f 453/1/4 452/1/4 454/1/4
f 455/1/4 456/1/4 457/1/4
f 457/1/4 456/1/4 458/1/4
f 459/1/4 460/1/4 461/1/4
f 461/1/4 460/1/4 462/1/4
f 463/1/4 464/1/4 465/1/4
f 465/1/4 464/1/4 466/1/4
f 467/1/4 468/1/4 469/1/4
f 469/1/4 468/1/4 470/1/4
f 471/1/4 472/1/4 473/1/4
f 473/1/4 472/1/4 474/1/4
f 475/1/4 476/1/4 477/1/4
f 477/1/4 476/1/4 478/1/4
f 479/1/4 480/1/4 481/1/4
f 481/1/4 480/1/4 482/1/4
f 483/1/4 484/1/4 485/1/4
f 485/1/4 484/1/4 486/1/4
f 487/1/4 488/1/4 489/1/4
f 489/1/4 488/1/4 490/1/4
f 491/1/4 492/1/4 493/1/4
f 493/1/4 492/1/4 494/1/4
f 495/1/4 496/1/4 497/1/4
f 497/1/4 496/1/4 498/1/4
f 499/1/4 500/1/4 501/1/4
f 501/1/4 500/1/4 502/1/4
f 503/1/4 504/1/4 505/1/4
f 505/1/4 504/1/4 506/1/4
f 507/1/4 508/1/4 509/1/4
f 509/1/4 508/1/4 510/1/4
f 511/1/4 512/1/4 513/1/4
f 513/1/4 512/1/4 514/1/4
f 515/1/4 516/1/4 518/1/4
f 516/1/4 517/1/4 518/1/4
f 518/1/4 517/1/4 519/1/4
f 520/1/4 521/1/4 522/1/4
f 522/1/4 521/1/4 523/1/4
f 524/1/4 525/1/4 526/1/4
f 526/1/4 525/1/4 527/1/4
f 528/1/4 529/1/4 530/1/4
f 530/1/4 529/1/4 531/1/4
f 532/1/4 533/1/4 534/1/4
f 534/1/4 533/1/4 535/1/4
f 536/1/4 537/1/4 538/1/4
f 538/1/4 537/1/4 539/1/4
f 540/1/4 541/1/4 542/1/4
f 542/1/4 541/1/4 543/1/4
f 544/1/4 545/1/4 546/1/4
f 546/1/4 545/1/4 547/1/4
f 548/1/4 549/1/4 550/1/4
f 550/1/4 549/1/4 551/1/4
f 552/1/4 553/1/4 554/1/4
f 554/1/4 553/1/4 555/1/4
f 556/1/4 557/1/4 558/1/4
f 558/1/4 557/1/4 559/1/4
f 560/1/4 561/1/4 562/1/4
f 562/1/4 561/1/4 563/1/4
f 564/1/4 565/1/4 566/1/4
f 566/1/4 565/1/4 567/1/4
f 568/1/4 569/1/4 570/1/4
f 570/1/4 569/1/4 571/1/4
f 572/1/4 573/1/4 574/1/4
f 574/1/4 573/1/4 575/1/4
f 578/1/5 577/1/5 576/1/5
f 579/1/5 577/1/5 578/1/5
f 580/1/5 578/1/5 576/1/5
f 581/1/5 578/1/5 580/1/5
f 582/1/5 580/1/5 576/1/5
f 583/1/5 580/1/5 582/1/5
f 584/1/5 582/1/5 576/1/5
f 585/1/5 582/1/5 584/1/5
f 586/1/5 584/1/5 576/1/5
f 587/1/5 584/1/5 586/1/5
f 588/1/5 586/1/5 576/1/5
f 589/1/5 586/1/5 588/1/5
f 590/1/5 588/1/5 576/1/5
f 591/1/5 588/1/5 590/1/5
f 592/1/5 590/1/5 576/1/5
f 593/1/5 590/1/5 592/1/5
f 594/1/5 592/1/5 576/1/5
f 595/1/5 592/1/5 594/1/5
f 596/1/5 594/1/5 576/1/5
f 597/1/5 594/1/5 596/1/5
f 598/1/5 596/1/5 576/1/5
f 599/1/5 596/1/5 598/1/5
f 600/1/5 598/1/5 576/1/5
f 601/1/5 598/1/5 600/1/5
f 602/1/5 600/1/5 576/1/5
f 603/1/5 600/1/5 602/1/5
f 604/1/5 602/1/5 576/1/5
f 605/1/5 602/1/5 604/1/5
f 606/1/5 604/1/5 576/1/5
f 607/1/5 604/1/5 606/1/5
f 608/1/5 606/1/5 576/1/5
f 609/1/5 606/1/5 608/1/5
f 610/1/5 608/1/5 576/1/5
f 611/1/5 608/1/5 610/1/5
f 612/1/5 610/1/5 576/1/5
f 613/1/5 610/1/5 612/1/5
f 614/1/5 612/1/5 576/1/5
f 615/1/5 612/1/5 614/1/5
f 616/1/5 614/1/5 576/1/5
f 617/1/5 614/1/5 616/1/5
f 618/1/5 616/1/5 576/1/5
f 619/1/5 616/1/5 618/1/5
f 620/1/5 618/1/5 576/1/5
f 621/1/5 618/1/5 620/1/5
f 622/1/5 620/1/5 576/1/5
f 623/1/5 620/1/5 622/1/5
f 624/1/5 622/1/5 576/1/5
f 625/1/5 622/1/5 624/1/5
f 626/1/5 624/1/5 576/1/5
f 627/1/5 624/1/5 626/1/5
f 628/1/5 626/1/5 576/1/5
f 629/1/5 626/1/5 628/1/5
f 630/1/5 628/1/5 576/1/5
f 631/1/5 628/1/5 630/1/5
f 632/1/5 630/1/5 576/1/5
f 633/1/5 630/1/5 632/1/5
f 634/1/5 632/1/5 576/1/5
f 635/1/5 632/1/5 634/1/5
f 636/1/5 634/1/5 576/1/5
f 637/1/5 634/1/5 636/1/5
f 638/1/5 636/1/5 576/1/5
f 639/1/5 636/1/5 638/1/5
f 640/1/5 638/1/5 576/1/5
f 641/1/5 638/1/5 640/1/5
f 642/1/5 640/1/5 576/1/5
f 643/1/5 640/1/5 642/1/5
f 646/1/5 645/1/5 644/1/5
f 647/1/5 645/1/5 646/1/5
f 649/1/5 648/1/5 647/1/5
f 650/1/5 648/1/5 649/1/5
f 651/1/6 652/1/6 653/1/6
f 653/1/6 654/1/6 655/1/6
f 655/1/6 656/1/6 657/1/6
f 657/1/6 658/1/6 659/1/6
f 659/1/6 660/1/6 661/1/6
f 661/1/6 662/1/6 663/1/6
f 663/1/6 664/1/6 665/1/6
f 665/1/6 666/1/6 667/1/6
f 667/1/6 668/1/6 669/1/6
f 669/1/6 670/1/6 671/1/6
f 671/1/6 672/1/6 673/1/6
f 673/1/6 674/1/6 675/1/6
f 675/1/6 676/1/6 677/1/6
f 677/1/6 678/1/6 679/1/6
f 679/1/6 680/1/6 681/1/6
f 681/1/6 682/1/6 683/1/6
f 683/1/6 684/1/6 685/1/6
f 685/1/6 686/1/6 687/1/6
f 683/1/6 685/1/6 688/1/6
f 685/1/6 687/1/6 688/1/6
f 688/1/6 687/1/6 689/1/6
f 681/1/6 683/1/6 690/1/6
f 683/1/6 688/1/6 690/1/6
f 690/1/6 688/1/6 691/1/6
f 677/1/6 679/1/6 692/1/6
f 679/1/6 681/1/6 692/1/6
f 681/1/6 690/1/6 692/1/6
f 692/1/6 690/1/6 693/1/6
f 675/1/6 677/1/6 694/1/6
f 677/1/6 692/1/6 694/1/6
f 694/1/6 692/1/6 695/1/6
f 673/1/6 675/1/6 696/1/6
f 675/1/6 694/1/6 696/1/6
f 696/1/6 694/1/6 697/1/6
f 671/1/6 673/1/6 698/1/6
f 673/1/6 696/1/6 698/1/6
f 698/1/6 696/1/6 699/1/6
f 669/1/6 671/1/6 700/1/6
f 671/1/6 698/1/6 700/1/6
f 700/1/6 698/1/6 701/1/6
f 667/1/6 669/1/6 702/1/6
f 669/1/6 700/1/6 702/1/6
f 702/1/6 700/1/6 703/1/6
f 665/1/6 667/1/6 704/1/6
f 667/1/6 702/1/6 704/1/6
f 704/1/6 702/1/6 705/1/6
f 663/1/6 665/1/6 706/1/6
f 665/1/6 704/1/6 706/1/6
f 706/1/6 704/1/6 707/1/6
f 661/1/6 663/1/6 708/1/6
f 663/1/6 706/1/6 708/1/6
f 708/1/6 706/1/6 709/1/6
f 659/1/6 661/1/6 710/1/6
f 661/1/6 708/1/6 710/1/6
f 710/1/6 708/1/6 711/1/6
f 657/1/6 659/1/6 712/1/6
f 659/1/6 710/1/6 712/1/6
f 712/1/6 710/1/6 713/1/6
f 651/1/6 653/1/6 714/1/6
f 653/1/6 655/1/6 714/1/6
f 657/1/6 712/1/6 714/1/6
f 655/1/6 657/1/6 714/1/6
f 714/1/6 712/1/6 715/1/6
f 716/1/6 717/1/6 720/1/6
f 720/1/6 721/1/6 722/1/6
f 716/1/6 720/1/6 724/1/6
f 722/1/6 723/1/6 724/1/6
f 720/1/6 722/1/6 724/1/6
f 724/1/6 723/1/6 725/1/6
f 725/1/6 723/1/6 726/1/6
f 718/1/6 719/1/6 728/1/6
f 728/1/6 719/1/6 729/1/6
f 726/1/6 727/1/6 730/1/6
f 725/1/6 726/1/6 730/1/6
f 730/1/6 727/1/6 731/1/6
f 731/1/6 727/1/6 732/1/6
f 732/1/6 733/1/6 734/1/6
f 731/1/6 732/1/6 734/1/6
f 734/1/6 733/1/6 735/1/6
f 735/1/6 736/1/6 737/1/6
f 737/1/6 736/1/6 738/1/6
f 738/1/6 739/1/6 740/1/6
f 740/1/6 739/1/6 741/1/6
f 718/1/6 728/1/6 742/1/6
f 742/1/6 728/1/6 743/1/6
f 744/1/6 745/1/6 746/1/6
f 746/1/6 745/1/6 747/1/6
f 718/1/6 742/1/6 750/1/6
f 747/1/6 748/1/6 751/1/6
f 751/1/6 748/1/6 752/1/6
f 749/1/6 750/1/6 754/1/6
f 753/1/6 754/1/6 758/1/6
f 755/1/6 756/1/6 759/1/6
f 757/1/6 758/1/6 762/1/6
f 759/1/6 760/1/6 763/1/6
f 755/1/6 759/1/6 763/1/6
f 763/1/6 760/1/6 764/1/6
f 764/1/6 760/1/6 765/1/6
f 761/1/6 762/1/6 768/1/6
f 765/1/6 766/1/6 769/1/6
f 764/1/6 765/1/6 769/1/6
f 767/1/6 768/1/6 770/1/6
f 764/1/6 769/1/6 771/1/6
f 769/1/6 770/1/6 771/1/6
f 771/1/6 770/1/6 772/1/6
f 772/1/6 770/1/6 773/1/6
f 773/1/6 770/1/6 774/1/6
f 774/1/6 770/1/6 775/1/6
f 775/1/6 770/1/6 776/1/6
f 776/1/6 770/1/6 777/1/6
f 777/1/6 770/1/6 778/1/6
f 750/1/6 742/1/6 779/1/6
f 778/1/6 770/1/6 779/1/6
f 754/1/6 750/1/6 779/1/6
f 770/1/6 768/1/6 779/1/6
f 758/1/6 754/1/6 779/1/6
f 762/1/6 758/1/6 779/1/6
f 768/1/6 762/1/6 779/1/6
f 779/1/6 742/1/6 780/1/6
f 778/1/6 779/1/6 781/1/6
f 781/1/6 779/1/6 782/1/6
f 782/1/6 779/1/6 783/1/6
f 783/1/6 779/1/6 784/1/6
f 782/1/6 783/1/6 785/1/6
f 785/1/6 783/1/6 786/1/6
f 786/1/6 783/1/6 787/1/6
f 787/1/6 783/1/6 788/1/6
f 786/1/6 787/1/6 789/1/6
f 789/1/6 787/1/6 790/1/6
f 786/1/6 789/1/6 791/1/6
f 791/1/6 789/1/6 792/1/6
f 792/1/6 789/1/6 793/1/6
f 793/1/6 789/1/6 794/1/6
f 792/1/6 793/1/6 795/1/6
f 795/1/6 793/1/6 796/1/6
f 792/1/6 795/1/6 797/1/6
f 797/1/6 795/1/6 798/1/6
f 792/1/6 797/1/6 799/1/6
f 799/1/6 797/1/6 800/1/6
f 792/1/6 799/1/6 801/1/6
f 801/1/6 799/1/6 802/1/6
f 802/1/6 799/1/6 803/1/6
f 803/1/6 799/1/6 804/1/6
f 802/1/6 803/1/6 805/1/6
f 805/1/6 803/1/6 806/1/6
f 802/1/6 805/1/6 807/1/6
f 807/1/6 805/1/6 808/1/6
f 802/1/6 807/1/6 809/1/6
f 809/1/6 807/1/6 810/1/6
f 810/1/6 807/1/6 811/1/6
f 811/1/6 807/1/6 812/1/6
f 810/1/6 811/1/6 813/1/6
f 813/1/6 811/1/6 814/1/6
f 810/1/6 813/1/6 815/1/6
f 815/1/6 813/1/6 816/1/6
f 810/1/6 815/1/6 817/1/6
f 817/1/6 815/1/6 818/1/6
f 810/1/6 817/1/6 819/1/6
f 819/1/6 817/1/6 820/1/6
f 810/1/6 819/1/6 821/1/6
f 821/1/6 819/1/6 822/1/6
f 823/1/6 824/1/6 825/1/6
f 825/1/6 824/1/6 826/1/6
f 826/1/6 824/1/6 827/1/6
f 827/1/6 824/1/6 828/1/6
f 828/1/6 824/1/6 829/1/6
f 829/1/6 824/1/6 830/1/6
f 830/1/6 824/1/6 831/1/6
f 831/1/6 824/1/6 832/1/6
f 832/1/6 824/1/6 833/1/6
f 833/1/6 824/1/6 834/1/6
f 834/1/6 824/1/6 835/1/6
f 835/1/6 824/1/6 836/1/6
f 836/1/6 824/1/6 837/1/6
f 837/1/6 824/1/6 838/1/6
f 838/1/6 824/1/6 839/1/6
f 839/1/6 824/1/6 840/1/6
f 840/1/6 824/1/6 841/1/6
f 841/1/6 824/1/6 842/1/6
f 842/1/6 824/1/6 843/1/6
f 843/1/6 824/1/6 844/1/6
f 842/1/6 843/1/6 845/1/6
f 845/1/6 843/1/6 846/1/6
f 846/1/6 843/1/6 847/1/6
f 847/1/6 843/1/6 848/1/6
f 846/1/6 847/1/6 849/1/6
f 849/1/6 847/1/6 850/1/6
f 850/1/6 847/1/6 851/1/6
f 851/1/6 847/1/6 852/1/6
f 850/1/6 851/1/6 853/1/6
f 853/1/6 851/1/6 854/1/6
f 854/1/6 851/1/6 855/1/6
f 855/1/6 851/1/6 856/1/6
f 854/1/6 855/1/6 857/1/6
f 857/1/6 855/1/6 858/1/6
f 858/1/6 855/1/6 859/1/6
f 859/1/6 855/1/6 860/1/6
f 858/1/6 859/1/6 861/1/6
f 861/1/6 859/1/6 862/1/6
