# MagicaVoxel @ Ephtracy

# group
g Main Island-4

# material
mtllib Main Island-4.mtl
usemtl palette

# normals
vn -1 0 0
vn 1 0 0
vn 0 0 1
vn 0 0 -1
vn 0 -1 0
vn 0 1 0

# texcoords
vt 0.974609 0.5

# verts
v -63 0 39
v -63 0 -63
v -63 4 39
v -63 4 -63
v -62 0 39
v -62 0 38
v -62 4 39
v -62 4 38
v -60 0 38
v -60 0 37
v -60 4 38
v -60 4 37
v -59 0 37
v -59 0 36
v -59 4 37
v -59 4 36
v -58 0 36
v -58 0 35
v -58 4 36
v -58 4 35
v -57 0 35
v -57 0 34
v -57 4 35
v -57 4 34
v -56 0 34
v -56 0 33
v -56 4 34
v -56 4 33
v -54 0 33
v -54 0 32
v -54 4 33
v -54 4 32
v -53 0 32
v -53 0 31
v -53 4 32
v -53 4 31
v -52 0 31
v -52 0 29
v -52 4 31
v -52 4 29
v -51 0 29
v -51 0 28
v -51 4 29
v -51 4 28
v -50 0 28
v -50 0 27
v -50 4 28
v -50 4 27
v -49 0 27
v -49 0 26
v -49 4 27
v -49 4 26
v -48 0 26
v -48 0 25
v -48 4 26
v -48 4 25
v -47 0 25
v -47 0 24
v -47 4 25
v -47 4 24
v -46 0 24
v -46 0 23
v -46 4 24
v -46 4 23
v -45 0 23
v -45 0 22
v -45 4 23
v -45 4 22
v -44 0 22
v -44 0 21
v -44 4 22
v -44 4 21
v -43 0 21
v -43 0 19
v -43 4 21
v -43 4 19
v -42 0 19
v -42 0 18
v -42 4 19
v -42 4 18
v -41 0 18
v -41 0 17
v -41 4 18
v -41 4 17
v -40 0 17
v -40 0 16
v -40 4 17
v -40 4 16
v -39 0 16
v -39 0 15
v -39 4 16
v -39 4 15
v -38 0 15
v -38 0 14
v -38 4 15
v -38 4 14
v -37 0 14
v -37 0 13
v -37 4 14
v -37 4 13
v -36 0 13
v -36 0 12
v -36 4 13
v -36 4 12
v -35 0 12
v -35 0 10
v -35 4 12
v -35 4 10
v -34 0 10
v -34 0 9
v -34 4 10
v -34 4 9
v -33 0 9
v -33 0 8
v -33 4 9
v -33 4 8
v -32 0 8
v -32 0 7
v -32 4 8
v -32 4 7
v -31 0 7
v -31 0 6
v -31 4 7
v -31 4 6
v -30 0 6
v -30 0 4
v -30 4 6
v -30 4 4
v -29 0 4
v -29 0 3
v -29 4 4
v -29 4 3
v -28 0 3
v -28 0 2
v -28 4 3
v -28 4 2
v -26 0 2
v -26 0 1
v -26 4 2
v -26 4 1
v -25 0 1
v -25 0 -0
v -25 4 1
v -25 4 -0
v -24 0 -0
v -24 0 -1
v -24 4 -0
v -24 4 -1
v -23 0 -1
v -23 0 -2
v -23 4 -1
v -23 4 -2
v -21 0 -2
v -21 0 -3
v -21 4 -2
v -21 4 -3
v -20 0 -3
v -20 0 -5
v -20 4 -3
v -20 4 -5
v -19 0 -5
v -19 0 -6
v -19 4 -5
v -19 4 -6
v -17 0 -6
v -17 0 -8
v -17 4 -6
v -17 4 -8
v -16 0 -8
v -16 0 -13
v -16 4 -8
v -16 4 -13
v -15 0 -13
v -15 0 -15
v -15 4 -13
v -15 4 -15
v -14 0 -15
v -14 0 -17
v -14 4 -15
v -14 4 -17
v -13 0 -17
v -13 0 -19
v -13 4 -17
v -13 4 -19
v -12 0 -19
v -12 0 -20
v -12 4 -19
v -12 4 -20
v -11 0 -20
v -11 0 -22
v -11 4 -20
v -11 4 -22
v -10 0 -22
v -10 0 -23
v -10 4 -22
v -10 4 -23
v -9 0 -23
v -9 0 -25
v -9 4 -23
v -9 4 -25
v -8 0 -25
v -8 0 -26
v -8 4 -25
v -8 4 -26
v -7 0 -26
v -7 0 -27
v -7 4 -26
v -7 4 -27
v -6 0 -27
v -6 0 -29
v -6 4 -27
v -6 4 -29
v -5 0 -29
v -5 0 -31
v -5 4 -29
v -5 4 -31
v -4 0 -31
v -4 0 -32
v -4 4 -31
v -4 4 -32
v -3 0 -32
v -3 0 -35
v -3 4 -32
v -3 4 -35
v -2 0 -35
v -2 0 -36
v -2 4 -35
v -2 4 -36
v -1 0 -36
v -1 0 -38
v -1 4 -36
v -1 4 -38
v 0 0 -38
v 0 0 -39
v 0 4 -38
v 0 4 -39
v 1 0 -39
v 1 0 -41
v 1 4 -39
v 1 4 -41
v 3 0 -41
v 3 0 -42
v 3 4 -41
v 3 4 -42
v 4 0 -42
v 4 0 -44
v 4 4 -42
v 4 4 -44
v 5 0 -44
v 5 0 -45
v 5 4 -44
v 5 4 -45
v 6 0 -45
v 6 0 -46
v 6 4 -45
v 6 4 -46
v 7 0 -46
v 7 0 -48
v 7 4 -46
v 7 4 -48
v 8 0 -48
v 8 0 -49
v 8 4 -48
v 8 4 -49
v 9 0 -49
v 9 0 -50
v 9 4 -49
v 9 4 -50
v 10 0 -50
v 10 0 -52
v 10 4 -50
v 10 4 -52
v 11 0 -52
v 11 0 -53
v 11 4 -52
v 11 4 -53
v 13 0 -53
v 13 0 -54
v 13 4 -53
v 13 4 -54
v 14 0 -54
v 14 0 -55
v 14 4 -54
v 14 4 -55
v 15 0 -55
v 15 0 -57
v 15 4 -55
v 15 4 -57
v 16 0 -57
v 16 0 -61
v 16 4 -57
v 16 4 -61
v 18 0 -61
v 18 0 -63
v 18 4 -61
v 18 4 -63
v -63 0 39
v -63 4 39
v -62 0 39
v -62 4 39
v -62 0 38
v -62 4 38
v -60 0 38
v -60 4 38
v -60 0 37
v -60 4 37
v -59 0 37
v -59 4 37
v -59 0 36
v -59 4 36
v -58 0 36
v -58 4 36
v -58 0 35
v -58 4 35
v -57 0 35
v -57 4 35
v -57 0 34
v -57 4 34
v -56 0 34
v -56 4 34
v -56 0 33
v -56 4 33
v -54 0 33
v -54 4 33
v -54 0 32
v -54 4 32
v -53 0 32
v -53 4 32
v -53 0 31
v -53 4 31
v -52 0 31
v -52 4 31
v -52 0 29
v -52 4 29
v -51 0 29
v -51 4 29
v -51 0 28
v -51 4 28
v -50 0 28
v -50 4 28
v -50 0 27
v -50 4 27
v -49 0 27
v -49 4 27
v -49 0 26
v -49 4 26
v -48 0 26
v -48 4 26
v -48 0 25
v -48 4 25
v -47 0 25
v -47 4 25
v -47 0 24
v -47 4 24
v -46 0 24
v -46 4 24
v -46 0 23
v -46 4 23
v -45 0 23
v -45 4 23
v -45 0 22
v -45 4 22
v -44 0 22
v -44 4 22
v -44 0 21
v -44 4 21
v -43 0 21
v -43 4 21
v -43 0 19
v -43 4 19
v -42 0 19
v -42 4 19
v -42 0 18
v -42 4 18
v -41 0 18
v -41 4 18
v -41 0 17
v -41 4 17
v -40 0 17
v -40 4 17
v -40 0 16
v -40 4 16
v -39 0 16
v -39 4 16
v -39 0 15
v -39 4 15
v -38 0 15
v -38 4 15
v -38 0 14
v -38 4 14
v -37 0 14
v -37 4 14
v -37 0 13
v -37 4 13
v -36 0 13
v -36 4 13
v -36 0 12
v -36 4 12
v -35 0 12
v -35 4 12
v -35 0 10
v -35 4 10
v -34 0 10
v -34 4 10
v -34 0 9
v -34 4 9
v -33 0 9
v -33 4 9
v -33 0 8
v -33 4 8
v -32 0 8
v -32 4 8
v -32 0 7
v -32 4 7
v -31 0 7
v -31 4 7
v -31 0 6
v -31 4 6
v -30 0 6
v -30 4 6
v -30 0 4
v -30 4 4
v -29 0 4
v -29 4 4
v -29 0 3
v -29 4 3
v -28 0 3
v -28 4 3
v -28 0 2
v -28 4 2
v -26 0 2
v -26 4 2
v -26 0 1
v -26 4 1
v -25 0 1
v -25 4 1
v -25 0 -0
v -25 4 -0
v -24 0 -0
v -24 4 -0
v -24 0 -1
v -24 4 -1
v -23 0 -1
v -23 4 -1
v -23 0 -2
v -23 4 -2
v -21 0 -2
v -21 4 -2
v -21 0 -3
v -21 4 -3
v -20 0 -3
v -20 4 -3
v -20 0 -5
v -20 4 -5
v -19 0 -5
v -19 4 -5
v -19 0 -6
v -19 4 -6
v -17 0 -6
v -17 4 -6
v -17 0 -8
v -17 4 -8
v -16 0 -8
v -16 4 -8
v -16 0 -13
v -16 4 -13
v -15 0 -13
v -15 4 -13
v -15 0 -15
v -15 4 -15
v -14 0 -15
v -14 4 -15
v -14 0 -17
v -14 4 -17
v -13 0 -17
v -13 4 -17
v -13 0 -19
v -13 4 -19
v -12 0 -19
v -12 4 -19
v -12 0 -20
v -12 4 -20
v -11 0 -20
v -11 4 -20
v -11 0 -22
v -11 4 -22
v -10 0 -22
v -10 4 -22
v -10 0 -23
v -10 4 -23
v -9 0 -23
v -9 4 -23
v -9 0 -25
v -9 4 -25
v -8 0 -25
v -8 4 -25
v -8 0 -26
v -8 4 -26
v -7 0 -26
v -7 4 -26
v -7 0 -27
v -7 4 -27
v -6 0 -27
v -6 4 -27
v -6 0 -29
v -6 4 -29
v -5 0 -29
v -5 4 -29
v -5 0 -31
v -5 4 -31
v -4 0 -31
v -4 4 -31
v -4 0 -32
v -4 4 -32
v -3 0 -32
v -3 4 -32
v -3 0 -35
v -3 4 -35
v -2 0 -35
v -2 4 -35
v -2 0 -36
v -2 4 -36
v -1 0 -36
v -1 4 -36
v -1 0 -38
v -1 4 -38
v 0 0 -38
v 0 4 -38
v 0 0 -39
v 0 4 -39
v 1 0 -39
v 1 4 -39
v 1 0 -41
v 1 4 -41
v 3 0 -41
v 3 4 -41
v 3 0 -42
v 3 4 -42
v 4 0 -42
v 4 4 -42
v 4 0 -44
v 4 4 -44
v 5 0 -44
v 5 4 -44
v 5 0 -45
v 5 4 -45
v 6 0 -45
v 6 4 -45
v 6 0 -46
v 6 4 -46
v 7 0 -46
v 7 4 -46
v 7 0 -48
v 7 4 -48
v 8 0 -48
v 8 4 -48
v 8 0 -49
v 8 4 -49
v 9 0 -49
v 9 4 -49
v 9 0 -50
v 9 4 -50
v 10 0 -50
v 10 4 -50
v 10 0 -52
v 10 4 -52
v 11 0 -52
v 11 4 -52
v 11 0 -53
v 11 4 -53
v 13 0 -53
v 13 4 -53
v 13 0 -54
v 13 4 -54
v 14 0 -54
v 14 4 -54
v 14 0 -55
v 14 4 -55
v 15 0 -55
v 15 4 -55
v 15 0 -57
v 15 4 -57
v 16 0 -57
v 16 4 -57
v 16 0 -61
v 16 4 -61
v 18 0 -61
v 18 4 -61
v -63 0 -63
v -63 4 -63
v 18 0 -63
v 18 4 -63
v -63 0 39
v -62 0 39
v -62 0 38
v -60 0 38
v -60 0 37
v -59 0 37
v -59 0 36
v -58 0 36
v -58 0 35
v -57 0 35
v -57 0 34
v -56 0 34
v -56 0 33
v -54 0 33
v -54 0 32
v -53 0 32
v -53 0 31
v -52 0 31
v -52 0 29
v -51 0 29
v -51 0 28
v -50 0 28
v -50 0 27
v -49 0 27
v -49 0 26
v -48 0 26
v -48 0 25
v -47 0 25
v -47 0 24
v -46 0 24
v -46 0 23
v -45 0 23
v -45 0 22
v -44 0 22
v -44 0 21
v -43 0 21
v -43 0 19
v -42 0 19
v -42 0 18
v -41 0 18
v -41 0 17
v -40 0 17
v -40 0 16
v -39 0 16
v -39 0 15
v -38 0 15
v -38 0 14
v -37 0 14
v -37 0 13
v -36 0 13
v -36 0 12
v -35 0 12
v -35 0 10
v -34 0 10
v -34 0 9
v -33 0 9
v -33 0 8
v -32 0 8
v -32 0 7
v -31 0 7
v -31 0 6
v -30 0 6
v -30 0 4
v -29 0 4
v -29 0 3
v -28 0 3
v -28 0 2
v -26 0 2
v -26 0 1
v -25 0 1
v -25 0 -0
v -24 0 -0
v -24 0 -1
v -23 0 -1
v -23 0 -2
v -21 0 -2
v -21 0 -3
v -20 0 -3
v -20 0 -5
v -19 0 -5
v -19 0 -6
v -17 0 -6
v -17 0 -8
v -16 0 -8
v -16 0 -13
v -15 0 -13
v -15 0 -15
v -14 0 -15
v -14 0 -17
v -13 0 -17
v -13 0 -19
v -12 0 -19
v -12 0 -20
v -11 0 -20
v -11 0 -22
v -10 0 -22
v -10 0 -23
v -9 0 -23
v -9 0 -25
v -8 0 -25
v -8 0 -26
v -7 0 -26
v -7 0 -27
v -6 0 -27
v -6 0 -29
v -5 0 -29
v -5 0 -31
v -4 0 -31
v -4 0 -32
v -3 0 -32
v -3 0 -35
v -2 0 -35
v -2 0 -36
v -1 0 -36
v -1 0 -38
v 0 0 -38
v 0 0 -39
v 1 0 -39
v 1 0 -41
v 3 0 -41
v 3 0 -42
v 4 0 -42
v 4 0 -44
v 5 0 -44
v 5 0 -45
v 6 0 -45
v 6 0 -46
v 7 0 -46
v 7 0 -48
v 8 0 -48
v 8 0 -49
v 9 0 -49
v 9 0 -50
v 10 0 -50
v 10 0 -52
v 11 0 -52
v 11 0 -53
v 13 0 -53
v 13 0 -54
v 14 0 -54
v 14 0 -55
v 15 0 -55
v 15 0 -57
v 16 0 -57
v 16 0 -61
v 18 0 -61
v -63 0 -63
v 18 0 -63
v -63 4 39
v -62 4 39
v -62 4 38
v -60 4 38
v -60 4 37
v -59 4 37
v -59 4 36
v -58 4 36
v -58 4 35
v -57 4 35
v -57 4 34
v -56 4 34
v -56 4 33
v -54 4 33
v -54 4 32
v -53 4 32
v -53 4 31
v -52 4 31
v -52 4 29
v -51 4 29
v -51 4 28
v -50 4 28
v -50 4 27
v -49 4 27
v -49 4 26
v -48 4 26
v -48 4 25
v -47 4 25
v -47 4 24
v -46 4 24
v -46 4 23
v -45 4 23
v -45 4 22
v -44 4 22
v -44 4 21
v -43 4 21
v -43 4 19
v -42 4 19
v -42 4 18
v -41 4 18
v -41 4 17
v -40 4 17
v -40 4 16
v -39 4 16
v -39 4 15
v -38 4 15
v -38 4 14
v -37 4 14
v -37 4 13
v -36 4 13
v -36 4 12
v -35 4 12
v -35 4 10
v -34 4 10
v -34 4 9
v -33 4 9
v -33 4 8
v -32 4 8
v -32 4 7
v -31 4 7
v -31 4 6
v -30 4 6
v -30 4 4
v -29 4 4
v -29 4 3
v -28 4 3
v -28 4 2
v -26 4 2
v -26 4 1
v -25 4 1
v -25 4 -0
v -24 4 -0
v -24 4 -1
v -23 4 -1
v -23 4 -2
v -21 4 -2
v -21 4 -3
v -20 4 -3
v -20 4 -5
v -19 4 -5
v -19 4 -6
v -17 4 -6
v -17 4 -8
v -16 4 -8
v -16 4 -13
v -15 4 -13
v -15 4 -15
v -14 4 -15
v -14 4 -17
v -13 4 -17
v -13 4 -19
v -12 4 -19
v -12 4 -20
v -11 4 -20
v -11 4 -22
v -10 4 -22
v -10 4 -23
v -9 4 -23
v -9 4 -25
v -8 4 -25
v -8 4 -26
v -7 4 -26
v -7 4 -27
v -6 4 -27
v -6 4 -29
v -5 4 -29
v -5 4 -31
v -4 4 -31
v -4 4 -32
v -3 4 -32
v -3 4 -35
v -2 4 -35
v -2 4 -36
v -1 4 -36
v -1 4 -38
v 0 4 -38
v 0 4 -39
v 1 4 -39
v 1 4 -41
v 3 4 -41
v 3 4 -42
v 4 4 -42
v 4 4 -44
v 5 4 -44
v 5 4 -45
v 6 4 -45
v 6 4 -46
v 7 4 -46
v 7 4 -48
v 8 4 -48
v 8 4 -49
v 9 4 -49
v 9 4 -50
v 10 4 -50
v 10 4 -52
v 11 4 -52
v 11 4 -53
v 13 4 -53
v 13 4 -54
v 14 4 -54
v 14 4 -55
v 15 4 -55
v 15 4 -57
v 16 4 -57
v 16 4 -61
v 18 4 -61
v -63 4 -63
v 18 4 -63

# faces
f 3/1/1 2/1/1 1/1/1
f 4/1/1 2/1/1 3/1/1
f 5/1/2 6/1/2 7/1/2
f 7/1/2 6/1/2 8/1/2
f 9/1/2 10/1/2 11/1/2
f 11/1/2 10/1/2 12/1/2
f 13/1/2 14/1/2 15/1/2
f 15/1/2 14/1/2 16/1/2
f 17/1/2 18/1/2 19/1/2
f 19/1/2 18/1/2 20/1/2
f 21/1/2 22/1/2 23/1/2
f 23/1/2 22/1/2 24/1/2
f 25/1/2 26/1/2 27/1/2
f 27/1/2 26/1/2 28/1/2
f 29/1/2 30/1/2 31/1/2
f 31/1/2 30/1/2 32/1/2
f 33/1/2 34/1/2 35/1/2
f 35/1/2 34/1/2 36/1/2
f 37/1/2 38/1/2 39/1/2
f 39/1/2 38/1/2 40/1/2
f 41/1/2 42/1/2 43/1/2
f 43/1/2 42/1/2 44/1/2
f 45/1/2 46/1/2 47/1/2
f 47/1/2 46/1/2 48/1/2
f 49/1/2 50/1/2 51/1/2
f 51/1/2 50/1/2 52/1/2
f 53/1/2 54/1/2 55/1/2
f 55/1/2 54/1/2 56/1/2
f 57/1/2 58/1/2 59/1/2
f 59/1/2 58/1/2 60/1/2
f 61/1/2 62/1/2 63/1/2
f 63/1/2 62/1/2 64/1/2
f 65/1/2 66/1/2 67/1/2
f 67/1/2 66/1/2 68/1/2
f 69/1/2 70/1/2 71/1/2
f 71/1/2 70/1/2 72/1/2
f 73/1/2 74/1/2 75/1/2
f 75/1/2 74/1/2 76/1/2
f 77/1/2 78/1/2 79/1/2
f 79/1/2 78/1/2 80/1/2
f 81/1/2 82/1/2 83/1/2
f 83/1/2 82/1/2 84/1/2
f 85/1/2 86/1/2 87/1/2
f 87/1/2 86/1/2 88/1/2
f 89/1/2 90/1/2 91/1/2
f 91/1/2 90/1/2 92/1/2
f 93/1/2 94/1/2 95/1/2
f 95/1/2 94/1/2 96/1/2
f 97/1/2 98/1/2 99/1/2
f 99/1/2 98/1/2 100/1/2
f 101/1/2 102/1/2 103/1/2
f 103/1/2 102/1/2 104/1/2
f 105/1/2 106/1/2 107/1/2
f 107/1/2 106/1/2 108/1/2
f 109/1/2 110/1/2 111/1/2
f 111/1/2 110/1/2 112/1/2
f 113/1/2 114/1/2 115/1/2
f 115/1/2 114/1/2 116/1/2
f 117/1/2 118/1/2 119/1/2
f 119/1/2 118/1/2 120/1/2
f 121/1/2 122/1/2 123/1/2
f 123/1/2 122/1/2 124/1/2
f 125/1/2 126/1/2 127/1/2
f 127/1/2 126/1/2 128/1/2
f 129/1/2 130/1/2 131/1/2
f 131/1/2 130/1/2 132/1/2
f 133/1/2 134/1/2 135/1/2
f 135/1/2 134/1/2 136/1/2
f 137/1/2 138/1/2 139/1/2
f 139/1/2 138/1/2 140/1/2
f 141/1/2 142/1/2 143/1/2
f 143/1/2 142/1/2 144/1/2
f 145/1/2 146/1/2 147/1/2
f 147/1/2 146/1/2 148/1/2
f 149/1/2 150/1/2 151/1/2
f 151/1/2 150/1/2 152/1/2
f 153/1/2 154/1/2 155/1/2
f 155/1/2 154/1/2 156/1/2
f 157/1/2 158/1/2 159/1/2
f 159/1/2 158/1/2 160/1/2
f 161/1/2 162/1/2 163/1/2
f 163/1/2 162/1/2 164/1/2
f 165/1/2 166/1/2 167/1/2
f 167/1/2 166/1/2 168/1/2
f 169/1/2 170/1/2 171/1/2
f 171/1/2 170/1/2 172/1/2
f 173/1/2 174/1/2 175/1/2
f 175/1/2 174/1/2 176/1/2
f 177/1/2 178/1/2 179/1/2
f 179/1/2 178/1/2 180/1/2
f 181/1/2 182/1/2 183/1/2
f 183/1/2 182/1/2 184/1/2
f 185/1/2 186/1/2 187/1/2
f 187/1/2 186/1/2 188/1/2
f 189/1/2 190/1/2 191/1/2
f 191/1/2 190/1/2 192/1/2
f 193/1/2 194/1/2 195/1/2
f 195/1/2 194/1/2 196/1/2
f 197/1/2 198/1/2 199/1/2
f 199/1/2 198/1/2 200/1/2
f 201/1/2 202/1/2 203/1/2
f 203/1/2 202/1/2 204/1/2
f 205/1/2 206/1/2 207/1/2
f 207/1/2 206/1/2 208/1/2
f 209/1/2 210/1/2 211/1/2
f 211/1/2 210/1/2 212/1/2
f 213/1/2 214/1/2 215/1/2
f 215/1/2 214/1/2 216/1/2
f 217/1/2 218/1/2 219/1/2
f 219/1/2 218/1/2 220/1/2
f 221/1/2 222/1/2 223/1/2
f 223/1/2 222/1/2 224/1/2
f 225/1/2 226/1/2 227/1/2
f 227/1/2 226/1/2 228/1/2
f 229/1/2 230/1/2 231/1/2
f 231/1/2 230/1/2 232/1/2
f 233/1/2 234/1/2 235/1/2
f 235/1/2 234/1/2 236/1/2
f 237/1/2 238/1/2 239/1/2
f 239/1/2 238/1/2 240/1/2
f 241/1/2 242/1/2 243/1/2
f 243/1/2 242/1/2 244/1/2
f 245/1/2 246/1/2 247/1/2
f 247/1/2 246/1/2 248/1/2
f 249/1/2 250/1/2 251/1/2
f 251/1/2 250/1/2 252/1/2
f 253/1/2 254/1/2 255/1/2
f 255/1/2 254/1/2 256/1/2
f 257/1/2 258/1/2 259/1/2
f 259/1/2 258/1/2 260/1/2
f 261/1/2 262/1/2 263/1/2
f 263/1/2 262/1/2 264/1/2
f 265/1/2 266/1/2 267/1/2
f 267/1/2 266/1/2 268/1/2
f 269/1/2 270/1/2 271/1/2
f 271/1/2 270/1/2 272/1/2
f 273/1/2 274/1/2 275/1/2
f 275/1/2 274/1/2 276/1/2
f 277/1/2 278/1/2 279/1/2
f 279/1/2 278/1/2 280/1/2
f 281/1/2 282/1/2 283/1/2
f 283/1/2 282/1/2 284/1/2
f 285/1/2 286/1/2 287/1/2
f 287/1/2 286/1/2 288/1/2
f 289/1/2 290/1/2 291/1/2
f 291/1/2 290/1/2 292/1/2
f 293/1/2 294/1/2 295/1/2
f 295/1/2 294/1/2 296/1/2
f 299/1/3 298/1/3 297/1/3
f 300/1/3 298/1/3 299/1/3
f 303/1/3 302/1/3 301/1/3
f 304/1/3 302/1/3 303/1/3
f 307/1/3 306/1/3 305/1/3
f 308/1/3 306/1/3 307/1/3
f 311/1/3 310/1/3 309/1/3
f 312/1/3 310/1/3 311/1/3
f 315/1/3 314/1/3 313/1/3
f 316/1/3 314/1/3 315/1/3
f 319/1/3 318/1/3 317/1/3
f 320/1/3 318/1/3 319/1/3
f 323/1/3 322/1/3 321/1/3
f 324/1/3 322/1/3 323/1/3
f 327/1/3 326/1/3 325/1/3
f 328/1/3 326/1/3 327/1/3
f 331/1/3 330/1/3 329/1/3
f 332/1/3 330/1/3 331/1/3
f 335/1/3 334/1/3 333/1/3
f 336/1/3 334/1/3 335/1/3
f 339/1/3 338/1/3 337/1/3
f 340/1/3 338/1/3 339/1/3
f 343/1/3 342/1/3 341/1/3
f 344/1/3 342/1/3 343/1/3
f 347/1/3 346/1/3 345/1/3
f 348/1/3 346/1/3 347/1/3
f 351/1/3 350/1/3 349/1/3
f 352/1/3 350/1/3 351/1/3
f 355/1/3 354/1/3 353/1/3
f 356/1/3 354/1/3 355/1/3
f 359/1/3 358/1/3 357/1/3
f 360/1/3 358/1/3 359/1/3
f 363/1/3 362/1/3 361/1/3
f 364/1/3 362/1/3 363/1/3
f 367/1/3 366/1/3 365/1/3
f 368/1/3 366/1/3 367/1/3
f 371/1/3 370/1/3 369/1/3
f 372/1/3 370/1/3 371/1/3
f 375/1/3 374/1/3 373/1/3
f 376/1/3 374/1/3 375/1/3
f 379/1/3 378/1/3 377/1/3
f 380/1/3 378/1/3 379/1/3
f 383/1/3 382/1/3 381/1/3
f 384/1/3 382/1/3 383/1/3
f 387/1/3 386/1/3 385/1/3
f 388/1/3 386/1/3 387/1/3
f 391/1/3 390/1/3 389/1/3
f 392/1/3 390/1/3 391/1/3
f 395/1/3 394/1/3 393/1/3
f 396/1/3 394/1/3 395/1/3
f 399/1/3 398/1/3 397/1/3
f 400/1/3 398/1/3 399/1/3
f 403/1/3 402/1/3 401/1/3
f 404/1/3 402/1/3 403/1/3
f 407/1/3 406/1/3 405/1/3
f 408/1/3 406/1/3 407/1/3
f 411/1/3 410/1/3 409/1/3
f 412/1/3 410/1/3 411/1/3
f 415/1/3 414/1/3 413/1/3
f 416/1/3 414/1/3 415/1/3
f 419/1/3 418/1/3 417/1/3
f 420/1/3 418/1/3 419/1/3
f 423/1/3 422/1/3 421/1/3
f 424/1/3 422/1/3 423/1/3
f 427/1/3 426/1/3 425/1/3
f 428/1/3 426/1/3 427/1/3
f 431/1/3 430/1/3 429/1/3
f 432/1/3 430/1/3 431/1/3
f 435/1/3 434/1/3 433/1/3
f 436/1/3 434/1/3 435/1/3
f 439/1/3 438/1/3 437/1/3
f 440/1/3 438/1/3 439/1/3
f 443/1/3 442/1/3 441/1/3
f 444/1/3 442/1/3 443/1/3
f 447/1/3 446/1/3 445/1/3
f 448/1/3 446/1/3 447/1/3
f 451/1/3 450/1/3 449/1/3
f 452/1/3 450/1/3 451/1/3
f 455/1/3 454/1/3 453/1/3
f 456/1/3 454/1/3 455/1/3
f 459/1/3 458/1/3 457/1/3
f 460/1/3 458/1/3 459/1/3
f 463/1/3 462/1/3 461/1/3
f 464/1/3 462/1/3 463/1/3
f 467/1/3 466/1/3 465/1/3
f 468/1/3 466/1/3 467/1/3
f 471/1/3 470/1/3 469/1/3
f 472/1/3 470/1/3 471/1/3
f 475/1/3 474/1/3 473/1/3
f 476/1/3 474/1/3 475/1/3
f 479/1/3 478/1/3 477/1/3
f 480/1/3 478/1/3 479/1/3
f 483/1/3 482/1/3 481/1/3
f 484/1/3 482/1/3 483/1/3
f 487/1/3 486/1/3 485/1/3
f 488/1/3 486/1/3 487/1/3
f 491/1/3 490/1/3 489/1/3
f 492/1/3 490/1/3 491/1/3
f 495/1/3 494/1/3 493/1/3
f 496/1/3 494/1/3 495/1/3
f 499/1/3 498/1/3 497/1/3
f 500/1/3 498/1/3 499/1/3
f 503/1/3 502/1/3 501/1/3
f 504/1/3 502/1/3 503/1/3
f 507/1/3 506/1/3 505/1/3
f 508/1/3 506/1/3 507/1/3
f 511/1/3 510/1/3 509/1/3
f 512/1/3 510/1/3 511/1/3
f 515/1/3 514/1/3 513/1/3
f 516/1/3 514/1/3 515/1/3
f 519/1/3 518/1/3 517/1/3
f 520/1/3 518/1/3 519/1/3
f 523/1/3 522/1/3 521/1/3
f 524/1/3 522/1/3 523/1/3
f 527/1/3 526/1/3 525/1/3
f 528/1/3 526/1/3 527/1/3
f 531/1/3 530/1/3 529/1/3
f 532/1/3 530/1/3 531/1/3
f 535/1/3 534/1/3 533/1/3
f 536/1/3 534/1/3 535/1/3
f 539/1/3 538/1/3 537/1/3
f 540/1/3 538/1/3 539/1/3
f 543/1/3 542/1/3 541/1/3
f 544/1/3 542/1/3 543/1/3
f 547/1/3 546/1/3 545/1/3
f 548/1/3 546/1/3 547/1/3
f 551/1/3 550/1/3 549/1/3
f 552/1/3 550/1/3 551/1/3
f 555/1/3 554/1/3 553/1/3
f 556/1/3 554/1/3 555/1/3
f 559/1/3 558/1/3 557/1/3
f 560/1/3 558/1/3 559/1/3
f 563/1/3 562/1/3 561/1/3
f 564/1/3 562/1/3 563/1/3
f 567/1/3 566/1/3 565/1/3
f 568/1/3 566/1/3 567/1/3
f 571/1/3 570/1/3 569/1/3
f 572/1/3 570/1/3 571/1/3
f 575/1/3 574/1/3 573/1/3
f 576/1/3 574/1/3 575/1/3
f 579/1/3 578/1/3 577/1/3
f 580/1/3 578/1/3 579/1/3
f 583/1/3 582/1/3 581/1/3
f 584/1/3 582/1/3 583/1/3
f 587/1/3 586/1/3 585/1/3
f 588/1/3 586/1/3 587/1/3
f 589/1/4 590/1/4 591/1/4
f 591/1/4 590/1/4 592/1/4
f 595/1/5 594/1/5 593/1/5
f 597/1/5 596/1/5 595/1/5
f 599/1/5 598/1/5 597/1/5
f 601/1/5 600/1/5 599/1/5
f 603/1/5 602/1/5 601/1/5
f 605/1/5 604/1/5 603/1/5
f 607/1/5 606/1/5 605/1/5
f 609/1/5 608/1/5 607/1/5
f 611/1/5 610/1/5 609/1/5
f 613/1/5 612/1/5 611/1/5
f 615/1/5 614/1/5 613/1/5
f 617/1/5 616/1/5 615/1/5
f 619/1/5 618/1/5 617/1/5
f 621/1/5 620/1/5 619/1/5
f 623/1/5 622/1/5 621/1/5
f 625/1/5 624/1/5 623/1/5
f 627/1/5 626/1/5 625/1/5
f 629/1/5 628/1/5 627/1/5
f 631/1/5 630/1/5 629/1/5
f 633/1/5 632/1/5 631/1/5
f 635/1/5 634/1/5 633/1/5
f 637/1/5 636/1/5 635/1/5
f 639/1/5 638/1/5 637/1/5
f 641/1/5 640/1/5 639/1/5
f 643/1/5 642/1/5 641/1/5
f 645/1/5 644/1/5 643/1/5
f 647/1/5 646/1/5 645/1/5
f 649/1/5 648/1/5 647/1/5
f 651/1/5 650/1/5 649/1/5
f 653/1/5 652/1/5 651/1/5
f 655/1/5 654/1/5 653/1/5
f 657/1/5 656/1/5 655/1/5
f 659/1/5 658/1/5 657/1/5
f 661/1/5 660/1/5 659/1/5
f 663/1/5 662/1/5 661/1/5
f 665/1/5 664/1/5 663/1/5
f 667/1/5 666/1/5 665/1/5
f 669/1/5 668/1/5 667/1/5
f 671/1/5 670/1/5 669/1/5
f 673/1/5 672/1/5 671/1/5
f 675/1/5 674/1/5 673/1/5
f 677/1/5 676/1/5 675/1/5
f 679/1/5 678/1/5 677/1/5
f 681/1/5 680/1/5 679/1/5
f 683/1/5 682/1/5 681/1/5
f 685/1/5 684/1/5 683/1/5
f 687/1/5 686/1/5 685/1/5
f 689/1/5 688/1/5 687/1/5
f 691/1/5 690/1/5 689/1/5
f 693/1/5 692/1/5 691/1/5
f 695/1/5 694/1/5 693/1/5
f 697/1/5 696/1/5 695/1/5
f 699/1/5 698/1/5 697/1/5
f 701/1/5 700/1/5 699/1/5
f 703/1/5 702/1/5 701/1/5
f 705/1/5 704/1/5 703/1/5
f 707/1/5 706/1/5 705/1/5
f 709/1/5 708/1/5 707/1/5
f 711/1/5 710/1/5 709/1/5
f 713/1/5 712/1/5 711/1/5
f 715/1/5 714/1/5 713/1/5
f 717/1/5 716/1/5 715/1/5
f 719/1/5 718/1/5 717/1/5
f 721/1/5 720/1/5 719/1/5
f 723/1/5 722/1/5 721/1/5
f 725/1/5 724/1/5 723/1/5
f 727/1/5 726/1/5 725/1/5
f 729/1/5 728/1/5 727/1/5
f 731/1/5 730/1/5 729/1/5
f 733/1/5 732/1/5 731/1/5
f 735/1/5 734/1/5 733/1/5
f 737/1/5 736/1/5 735/1/5
f 739/1/5 595/1/5 593/1/5
f 739/1/5 738/1/5 737/1/5
f 739/1/5 737/1/5 735/1/5
f 739/1/5 735/1/5 733/1/5
f 739/1/5 733/1/5 731/1/5
f 739/1/5 731/1/5 729/1/5
f 739/1/5 729/1/5 727/1/5
f 739/1/5 727/1/5 725/1/5
f 739/1/5 725/1/5 723/1/5
f 739/1/5 723/1/5 721/1/5
f 739/1/5 721/1/5 719/1/5
f 739/1/5 719/1/5 717/1/5
f 739/1/5 717/1/5 715/1/5
f 739/1/5 715/1/5 713/1/5
f 739/1/5 713/1/5 711/1/5
f 739/1/5 711/1/5 709/1/5
f 739/1/5 709/1/5 707/1/5
f 739/1/5 707/1/5 705/1/5
f 739/1/5 705/1/5 703/1/5
f 739/1/5 703/1/5 701/1/5
f 739/1/5 701/1/5 699/1/5
f 739/1/5 699/1/5 697/1/5
f 739/1/5 697/1/5 695/1/5
f 739/1/5 695/1/5 693/1/5
f 739/1/5 693/1/5 691/1/5
f 739/1/5 691/1/5 689/1/5
f 739/1/5 689/1/5 687/1/5
f 739/1/5 687/1/5 685/1/5
f 739/1/5 685/1/5 683/1/5
f 739/1/5 683/1/5 681/1/5
f 739/1/5 681/1/5 679/1/5
f 739/1/5 679/1/5 677/1/5
f 739/1/5 677/1/5 675/1/5
f 739/1/5 675/1/5 673/1/5
f 739/1/5 673/1/5 671/1/5
f 739/1/5 671/1/5 669/1/5
f 739/1/5 669/1/5 667/1/5
f 739/1/5 667/1/5 665/1/5
f 739/1/5 665/1/5 663/1/5
f 739/1/5 663/1/5 661/1/5
f 739/1/5 661/1/5 659/1/5
f 739/1/5 659/1/5 657/1/5
f 739/1/5 657/1/5 655/1/5
f 739/1/5 655/1/5 653/1/5
f 739/1/5 653/1/5 651/1/5
f 739/1/5 651/1/5 649/1/5
f 739/1/5 649/1/5 647/1/5
f 739/1/5 647/1/5 645/1/5
f 739/1/5 645/1/5 643/1/5
f 739/1/5 643/1/5 641/1/5
f 739/1/5 641/1/5 639/1/5
f 739/1/5 639/1/5 637/1/5
f 739/1/5 637/1/5 635/1/5
f 739/1/5 635/1/5 633/1/5
f 739/1/5 633/1/5 631/1/5
f 739/1/5 631/1/5 629/1/5
f 739/1/5 629/1/5 627/1/5
f 739/1/5 627/1/5 625/1/5
f 739/1/5 625/1/5 623/1/5
f 739/1/5 623/1/5 621/1/5
f 739/1/5 621/1/5 619/1/5
f 739/1/5 619/1/5 617/1/5
f 739/1/5 617/1/5 615/1/5
f 739/1/5 615/1/5 613/1/5
f 739/1/5 613/1/5 611/1/5
f 739/1/5 611/1/5 609/1/5
f 739/1/5 609/1/5 607/1/5
f 739/1/5 607/1/5 605/1/5
f 739/1/5 605/1/5 603/1/5
f 739/1/5 603/1/5 601/1/5
f 739/1/5 601/1/5 599/1/5
f 739/1/5 599/1/5 597/1/5
f 739/1/5 597/1/5 595/1/5
f 740/1/5 738/1/5 739/1/5
f 741/1/6 742/1/6 743/1/6
f 743/1/6 744/1/6 745/1/6
f 745/1/6 746/1/6 747/1/6
f 747/1/6 748/1/6 749/1/6
f 749/1/6 750/1/6 751/1/6
f 751/1/6 752/1/6 753/1/6
f 753/1/6 754/1/6 755/1/6
f 755/1/6 756/1/6 757/1/6
f 757/1/6 758/1/6 759/1/6
f 759/1/6 760/1/6 761/1/6
f 761/1/6 762/1/6 763/1/6
f 763/1/6 764/1/6 765/1/6
f 765/1/6 766/1/6 767/1/6
f 767/1/6 768/1/6 769/1/6
f 769/1/6 770/1/6 771/1/6
f 771/1/6 772/1/6 773/1/6
f 773/1/6 774/1/6 775/1/6
f 775/1/6 776/1/6 777/1/6
f 777/1/6 778/1/6 779/1/6
f 779/1/6 780/1/6 781/1/6
f 781/1/6 782/1/6 783/1/6
f 783/1/6 784/1/6 785/1/6
f 785/1/6 786/1/6 787/1/6
f 787/1/6 788/1/6 789/1/6
f 789/1/6 790/1/6 791/1/6
f 791/1/6 792/1/6 793/1/6
f 793/1/6 794/1/6 795/1/6
f 795/1/6 796/1/6 797/1/6
f 797/1/6 798/1/6 799/1/6
f 799/1/6 800/1/6 801/1/6
f 801/1/6 802/1/6 803/1/6
f 803/1/6 804/1/6 805/1/6
f 805/1/6 806/1/6 807/1/6
f 807/1/6 808/1/6 809/1/6
f 809/1/6 810/1/6 811/1/6
f 811/1/6 812/1/6 813/1/6
f 813/1/6 814/1/6 815/1/6
f 815/1/6 816/1/6 817/1/6
f 817/1/6 818/1/6 819/1/6
f 819/1/6 820/1/6 821/1/6
f 821/1/6 822/1/6 823/1/6
f 823/1/6 824/1/6 825/1/6
f 825/1/6 826/1/6 827/1/6
f 827/1/6 828/1/6 829/1/6
f 829/1/6 830/1/6 831/1/6
f 831/1/6 832/1/6 833/1/6
f 833/1/6 834/1/6 835/1/6
f 835/1/6 836/1/6 837/1/6
f 837/1/6 838/1/6 839/1/6
f 839/1/6 840/1/6 841/1/6
f 841/1/6 842/1/6 843/1/6
f 843/1/6 844/1/6 845/1/6
f 845/1/6 846/1/6 847/1/6
f 847/1/6 848/1/6 849/1/6
f 849/1/6 850/1/6 851/1/6
f 851/1/6 852/1/6 853/1/6
f 853/1/6 854/1/6 855/1/6
f 855/1/6 856/1/6 857/1/6
f 857/1/6 858/1/6 859/1/6
f 859/1/6 860/1/6 861/1/6
f 861/1/6 862/1/6 863/1/6
f 863/1/6 864/1/6 865/1/6
f 865/1/6 866/1/6 867/1/6
f 867/1/6 868/1/6 869/1/6
f 869/1/6 870/1/6 871/1/6
f 871/1/6 872/1/6 873/1/6
f 873/1/6 874/1/6 875/1/6
f 875/1/6 876/1/6 877/1/6
f 877/1/6 878/1/6 879/1/6
f 879/1/6 880/1/6 881/1/6
f 881/1/6 882/1/6 883/1/6
f 883/1/6 884/1/6 885/1/6
f 741/1/6 743/1/6 887/1/6
f 885/1/6 886/1/6 887/1/6
f 883/1/6 885/1/6 887/1/6
f 881/1/6 883/1/6 887/1/6
f 879/1/6 881/1/6 887/1/6
f 877/1/6 879/1/6 887/1/6
f 875/1/6 877/1/6 887/1/6
f 873/1/6 875/1/6 887/1/6
f 871/1/6 873/1/6 887/1/6
f 869/1/6 871/1/6 887/1/6
f 867/1/6 869/1/6 887/1/6
f 865/1/6 867/1/6 887/1/6
f 863/1/6 865/1/6 887/1/6
f 861/1/6 863/1/6 887/1/6
f 859/1/6 861/1/6 887/1/6
f 857/1/6 859/1/6 887/1/6
f 855/1/6 857/1/6 887/1/6
f 853/1/6 855/1/6 887/1/6
f 851/1/6 853/1/6 887/1/6
f 849/1/6 851/1/6 887/1/6
f 847/1/6 849/1/6 887/1/6
f 845/1/6 847/1/6 887/1/6
f 843/1/6 845/1/6 887/1/6
f 841/1/6 843/1/6 887/1/6
f 839/1/6 841/1/6 887/1/6
f 837/1/6 839/1/6 887/1/6
f 835/1/6 837/1/6 887/1/6
f 833/1/6 835/1/6 887/1/6
f 831/1/6 833/1/6 887/1/6
f 829/1/6 831/1/6 887/1/6
f 827/1/6 829/1/6 887/1/6
f 825/1/6 827/1/6 887/1/6
f 823/1/6 825/1/6 887/1/6
f 821/1/6 823/1/6 887/1/6
f 819/1/6 821/1/6 887/1/6
f 817/1/6 819/1/6 887/1/6
f 815/1/6 817/1/6 887/1/6
f 813/1/6 815/1/6 887/1/6
f 811/1/6 813/1/6 887/1/6
f 809/1/6 811/1/6 887/1/6
f 807/1/6 809/1/6 887/1/6
f 805/1/6 807/1/6 887/1/6
f 803/1/6 805/1/6 887/1/6
f 801/1/6 803/1/6 887/1/6
f 799/1/6 801/1/6 887/1/6
f 797/1/6 799/1/6 887/1/6
f 795/1/6 797/1/6 887/1/6
f 793/1/6 795/1/6 887/1/6
f 791/1/6 793/1/6 887/1/6
f 789/1/6 791/1/6 887/1/6
f 787/1/6 789/1/6 887/1/6
f 785/1/6 787/1/6 887/1/6
f 783/1/6 785/1/6 887/1/6
f 781/1/6 783/1/6 887/1/6
f 779/1/6 781/1/6 887/1/6
f 777/1/6 779/1/6 887/1/6
f 775/1/6 777/1/6 887/1/6
f 773/1/6 775/1/6 887/1/6
f 771/1/6 773/1/6 887/1/6
f 769/1/6 771/1/6 887/1/6
f 767/1/6 769/1/6 887/1/6
f 765/1/6 767/1/6 887/1/6
f 763/1/6 765/1/6 887/1/6
f 761/1/6 763/1/6 887/1/6
f 759/1/6 761/1/6 887/1/6
f 757/1/6 759/1/6 887/1/6
f 755/1/6 757/1/6 887/1/6
f 753/1/6 755/1/6 887/1/6
f 751/1/6 753/1/6 887/1/6
f 749/1/6 751/1/6 887/1/6
f 747/1/6 749/1/6 887/1/6
f 745/1/6 747/1/6 887/1/6
f 743/1/6 745/1/6 887/1/6
f 887/1/6 886/1/6 888/1/6
