# MagicaVoxel @ Ephtracy

# group
g Main Island-4

# material
mtllib Main Island-4.mtl
usemtl palette

# normals
vn -1 0 0
vn 1 0 0
vn 0 0 1
vn 0 0 -1
vn 0 -1 0
vn 0 1 0

# texcoords
vt 0.974609 0.5

# verts
v -63 0 35
v -63 0 -63
v -63 4 35
v -63 4 -63
v -62 0 35
v -62 0 23
v -62 4 35
v -62 4 23
v -61 0 23
v -61 0 18
v -61 4 23
v -61 4 18
v -60 0 18
v -60 0 12
v -60 0 6
v -60 0 4
v -60 0 3
v -60 0 -1
v -60 4 18
v -60 4 12
v -60 4 6
v -60 4 4
v -60 4 3
v -60 4 -1
v -59 0 12
v -59 0 6
v -59 0 4
v -59 0 3
v -59 0 -1
v -59 0 -18
v -59 4 12
v -59 4 6
v -59 4 4
v -59 4 3
v -59 4 -1
v -59 4 -18
v -58 0 -18
v -58 0 -22
v -58 4 -18
v -58 4 -22
v -57 0 -22
v -57 0 -25
v -57 4 -22
v -57 4 -25
v -56 0 -25
v -56 0 -27
v -56 4 -25
v -56 4 -27
v -55 0 -27
v -55 0 -29
v -55 4 -27
v -55 4 -29
v -54 0 -29
v -54 0 -30
v -54 4 -29
v -54 4 -30
v -53 0 -30
v -53 0 -32
v -53 4 -30
v -53 4 -32
v -52 0 -32
v -52 0 -33
v -52 4 -32
v -52 4 -33
v -51 0 -33
v -51 0 -34
v -51 4 -33
v -51 4 -34
v -50 0 -34
v -50 0 -36
v -50 4 -34
v -50 4 -36
v -49 0 -36
v -49 0 -38
v -49 4 -36
v -49 4 -38
v -48 0 -38
v -48 0 -39
v -48 4 -38
v -48 4 -39
v -47 0 -39
v -47 0 -43
v -47 4 -39
v -47 4 -43
v -46 0 -43
v -46 0 -53
v -46 4 -43
v -46 4 -53
v -45 0 -53
v -45 0 -57
v -45 4 -53
v -45 4 -57
v -44 0 -57
v -44 0 -60
v -44 4 -57
v -44 4 -60
v -43 0 -60
v -43 0 -61
v -43 4 -60
v -43 4 -61
v -42 0 -61
v -42 0 -63
v -42 4 -61
v -42 4 -63
v -63 0 35
v -63 4 35
v -62 0 35
v -62 4 35
v -62 0 23
v -62 4 23
v -61 0 23
v -61 4 23
v -61 0 18
v -61 4 18
v -60 0 18
v -60 4 18
v -60 0 12
v -60 4 12
v -59 0 12
v -59 4 12
v -60 0 4
v -60 4 4
v -59 0 4
v -59 4 4
v -60 0 -1
v -60 4 -1
v -59 0 -1
v -59 4 -1
v -59 0 -18
v -59 4 -18
v -58 0 -18
v -58 4 -18
v -58 0 -22
v -58 4 -22
v -57 0 -22
v -57 4 -22
v -57 0 -25
v -57 4 -25
v -56 0 -25
v -56 4 -25
v -56 0 -27
v -56 4 -27
v -55 0 -27
v -55 4 -27
v -55 0 -29
v -55 4 -29
v -54 0 -29
v -54 4 -29
v -54 0 -30
v -54 4 -30
v -53 0 -30
v -53 4 -30
v -53 0 -32
v -53 4 -32
v -52 0 -32
v -52 4 -32
v -52 0 -33
v -52 4 -33
v -51 0 -33
v -51 4 -33
v -51 0 -34
v -51 4 -34
v -50 0 -34
v -50 4 -34
v -50 0 -36
v -50 4 -36
v -49 0 -36
v -49 4 -36
v -49 0 -38
v -49 4 -38
v -48 0 -38
v -48 4 -38
v -48 0 -39
v -48 4 -39
v -47 0 -39
v -47 4 -39
v -47 0 -43
v -47 4 -43
v -46 0 -43
v -46 4 -43
v -46 0 -53
v -46 4 -53
v -45 0 -53
v -45 4 -53
v -45 0 -57
v -45 4 -57
v -44 0 -57
v -44 4 -57
v -44 0 -60
v -44 4 -60
v -43 0 -60
v -43 4 -60
v -43 0 -61
v -43 4 -61
v -42 0 -61
v -42 4 -61
v -60 0 6
v -60 4 6
v -59 0 6
v -59 4 6
v -60 0 3
v -60 4 3
v -59 0 3
v -59 4 3
v -63 0 -63
v -63 4 -63
v -42 0 -63
v -42 4 -63
v -63 0 35
v -62 0 35
v -62 0 23
v -61 0 23
v -61 0 18
v -60 0 18
v -60 0 12
v -59 0 12
v -60 0 6
v -59 0 6
v -60 0 4
v -59 0 4
v -60 0 3
v -59 0 3
v -60 0 -1
v -59 0 -1
v -59 0 -18
v -58 0 -18
v -58 0 -22
v -57 0 -22
v -57 0 -25
v -56 0 -25
v -56 0 -27
v -55 0 -27
v -55 0 -29
v -54 0 -29
v -54 0 -30
v -53 0 -30
v -53 0 -32
v -52 0 -32
v -52 0 -33
v -51 0 -33
v -51 0 -34
v -50 0 -34
v -50 0 -36
v -49 0 -36
v -49 0 -38
v -48 0 -38
v -48 0 -39
v -47 0 -39
v -47 0 -43
v -46 0 -43
v -46 0 -53
v -45 0 -53
v -45 0 -57
v -44 0 -57
v -44 0 -60
v -43 0 -60
v -43 0 -61
v -42 0 -61
v -63 0 -63
v -42 0 -63
v -63 4 35
v -62 4 35
v -62 4 23
v -61 4 23
v -61 4 18
v -60 4 18
v -60 4 12
v -59 4 12
v -60 4 6
v -59 4 6
v -60 4 4
v -59 4 4
v -60 4 3
v -59 4 3
v -60 4 -1
v -59 4 -1
v -59 4 -18
v -58 4 -18
v -58 4 -22
v -57 4 -22
v -57 4 -25
v -56 4 -25
v -56 4 -27
v -55 4 -27
v -55 4 -29
v -54 4 -29
v -54 4 -30
v -53 4 -30
v -53 4 -32
v -52 4 -32
v -52 4 -33
v -51 4 -33
v -51 4 -34
v -50 4 -34
v -50 4 -36
v -49 4 -36
v -49 4 -38
v -48 4 -38
v -48 4 -39
v -47 4 -39
v -47 4 -43
v -46 4 -43
v -46 4 -53
v -45 4 -53
v -45 4 -57
v -44 4 -57
v -44 4 -60
v -43 4 -60
v -43 4 -61
v -42 4 -61
v -63 4 -63
v -42 4 -63

# faces
f 3/1/1 2/1/1 1/1/1
f 4/1/1 2/1/1 3/1/1
f 5/1/2 6/1/2 7/1/2
f 7/1/2 6/1/2 8/1/2
f 9/1/2 10/1/2 11/1/2
f 11/1/2 10/1/2 12/1/2
f 13/1/2 14/1/2 19/1/2
f 19/1/2 14/1/2 20/1/2
f 15/1/2 16/1/2 21/1/2
f 21/1/2 16/1/2 22/1/2
f 17/1/2 18/1/2 23/1/2
f 23/1/2 18/1/2 24/1/2
f 25/1/2 26/1/2 31/1/2
f 31/1/2 26/1/2 32/1/2
f 27/1/2 28/1/2 33/1/2
f 33/1/2 28/1/2 34/1/2
f 29/1/2 30/1/2 35/1/2
f 35/1/2 30/1/2 36/1/2
f 37/1/2 38/1/2 39/1/2
f 39/1/2 38/1/2 40/1/2
f 41/1/2 42/1/2 43/1/2
f 43/1/2 42/1/2 44/1/2
f 45/1/2 46/1/2 47/1/2
f 47/1/2 46/1/2 48/1/2
f 49/1/2 50/1/2 51/1/2
f 51/1/2 50/1/2 52/1/2
f 53/1/2 54/1/2 55/1/2
f 55/1/2 54/1/2 56/1/2
f 57/1/2 58/1/2 59/1/2
f 59/1/2 58/1/2 60/1/2
f 61/1/2 62/1/2 63/1/2
f 63/1/2 62/1/2 64/1/2
f 65/1/2 66/1/2 67/1/2
f 67/1/2 66/1/2 68/1/2
f 69/1/2 70/1/2 71/1/2
f 71/1/2 70/1/2 72/1/2
f 73/1/2 74/1/2 75/1/2
f 75/1/2 74/1/2 76/1/2
f 77/1/2 78/1/2 79/1/2
f 79/1/2 78/1/2 80/1/2
f 81/1/2 82/1/2 83/1/2
f 83/1/2 82/1/2 84/1/2
f 85/1/2 86/1/2 87/1/2
f 87/1/2 86/1/2 88/1/2
f 89/1/2 90/1/2 91/1/2
f 91/1/2 90/1/2 92/1/2
f 93/1/2 94/1/2 95/1/2
f 95/1/2 94/1/2 96/1/2
f 97/1/2 98/1/2 99/1/2
f 99/1/2 98/1/2 100/1/2
f 101/1/2 102/1/2 103/1/2
f 103/1/2 102/1/2 104/1/2
f 107/1/3 106/1/3 105/1/3
f 108/1/3 106/1/3 107/1/3
f 111/1/3 110/1/3 109/1/3
f 112/1/3 110/1/3 111/1/3
f 115/1/3 114/1/3 113/1/3
f 116/1/3 114/1/3 115/1/3
f 119/1/3 118/1/3 117/1/3
f 120/1/3 118/1/3 119/1/3
f 123/1/3 122/1/3 121/1/3
f 124/1/3 122/1/3 123/1/3
f 127/1/3 126/1/3 125/1/3
f 128/1/3 126/1/3 127/1/3
f 131/1/3 130/1/3 129/1/3
f 132/1/3 130/1/3 131/1/3
f 135/1/3 134/1/3 133/1/3
f 136/1/3 134/1/3 135/1/3
f 139/1/3 138/1/3 137/1/3
f 140/1/3 138/1/3 139/1/3
f 143/1/3 142/1/3 141/1/3
f 144/1/3 142/1/3 143/1/3
f 147/1/3 146/1/3 145/1/3
f 148/1/3 146/1/3 147/1/3
f 151/1/3 150/1/3 149/1/3
f 152/1/3 150/1/3 151/1/3
f 155/1/3 154/1/3 153/1/3
f 156/1/3 154/1/3 155/1/3
f 159/1/3 158/1/3 157/1/3
f 160/1/3 158/1/3 159/1/3
f 163/1/3 162/1/3 161/1/3
f 164/1/3 162/1/3 163/1/3
f 167/1/3 166/1/3 165/1/3
f 168/1/3 166/1/3 167/1/3
f 171/1/3 170/1/3 169/1/3
f 172/1/3 170/1/3 171/1/3
f 175/1/3 174/1/3 173/1/3
f 176/1/3 174/1/3 175/1/3
f 179/1/3 178/1/3 177/1/3
f 180/1/3 178/1/3 179/1/3
f 183/1/3 182/1/3 181/1/3
f 184/1/3 182/1/3 183/1/3
f 187/1/3 186/1/3 185/1/3
f 188/1/3 186/1/3 187/1/3
f 191/1/3 190/1/3 189/1/3
f 192/1/3 190/1/3 191/1/3
f 195/1/3 194/1/3 193/1/3
f 196/1/3 194/1/3 195/1/3
f 197/1/4 198/1/4 199/1/4
f 199/1/4 198/1/4 200/1/4
f 201/1/4 202/1/4 203/1/4
f 203/1/4 202/1/4 204/1/4
f 205/1/4 206/1/4 207/1/4
f 207/1/4 206/1/4 208/1/4
f 211/1/5 210/1/5 209/1/5
f 213/1/5 212/1/5 211/1/5
f 215/1/5 214/1/5 213/1/5
f 217/1/5 215/1/5 213/1/5
f 217/1/5 216/1/5 215/1/5
f 218/1/5 216/1/5 217/1/5
f 219/1/5 217/1/5 213/1/5
f 221/1/5 219/1/5 213/1/5
f 221/1/5 220/1/5 219/1/5
f 222/1/5 220/1/5 221/1/5
f 223/1/5 221/1/5 213/1/5
f 225/1/5 224/1/5 223/1/5
f 227/1/5 226/1/5 225/1/5
f 229/1/5 228/1/5 227/1/5
f 231/1/5 230/1/5 229/1/5
f 233/1/5 232/1/5 231/1/5
f 235/1/5 234/1/5 233/1/5
f 237/1/5 236/1/5 235/1/5
f 239/1/5 238/1/5 237/1/5
f 241/1/5 240/1/5 239/1/5
f 243/1/5 242/1/5 241/1/5
f 245/1/5 244/1/5 243/1/5
f 247/1/5 246/1/5 245/1/5
f 249/1/5 248/1/5 247/1/5
f 251/1/5 250/1/5 249/1/5
f 253/1/5 252/1/5 251/1/5
f 255/1/5 254/1/5 253/1/5
f 257/1/5 256/1/5 255/1/5
f 259/1/5 211/1/5 209/1/5
f 259/1/5 258/1/5 257/1/5
f 259/1/5 257/1/5 255/1/5
f 259/1/5 255/1/5 253/1/5
f 259/1/5 253/1/5 251/1/5
f 259/1/5 251/1/5 249/1/5
f 259/1/5 249/1/5 247/1/5
f 259/1/5 247/1/5 245/1/5
f 259/1/5 245/1/5 243/1/5
f 259/1/5 243/1/5 241/1/5
f 259/1/5 241/1/5 239/1/5
f 259/1/5 239/1/5 237/1/5
f 259/1/5 237/1/5 235/1/5
f 259/1/5 235/1/5 233/1/5
f 259/1/5 233/1/5 231/1/5
f 259/1/5 231/1/5 229/1/5
f 259/1/5 229/1/5 227/1/5
f 259/1/5 227/1/5 225/1/5
f 259/1/5 223/1/5 213/1/5
f 259/1/5 225/1/5 223/1/5
f 259/1/5 213/1/5 211/1/5
f 260/1/5 258/1/5 259/1/5
f 261/1/6 262/1/6 263/1/6
f 263/1/6 264/1/6 265/1/6
f 265/1/6 266/1/6 267/1/6
f 265/1/6 267/1/6 269/1/6
f 267/1/6 268/1/6 269/1/6
f 269/1/6 268/1/6 270/1/6
f 265/1/6 269/1/6 271/1/6
f 265/1/6 271/1/6 273/1/6
f 271/1/6 272/1/6 273/1/6
f 273/1/6 272/1/6 274/1/6
f 265/1/6 273/1/6 275/1/6
f 275/1/6 276/1/6 277/1/6
f 277/1/6 278/1/6 279/1/6
f 279/1/6 280/1/6 281/1/6
f 281/1/6 282/1/6 283/1/6
f 283/1/6 284/1/6 285/1/6
f 285/1/6 286/1/6 287/1/6
f 287/1/6 288/1/6 289/1/6
f 289/1/6 290/1/6 291/1/6
f 291/1/6 292/1/6 293/1/6
f 293/1/6 294/1/6 295/1/6
f 295/1/6 296/1/6 297/1/6
f 297/1/6 298/1/6 299/1/6
f 299/1/6 300/1/6 301/1/6
f 301/1/6 302/1/6 303/1/6
f 303/1/6 304/1/6 305/1/6
f 305/1/6 306/1/6 307/1/6
f 307/1/6 308/1/6 309/1/6
f 261/1/6 263/1/6 311/1/6
f 309/1/6 310/1/6 311/1/6
f 307/1/6 309/1/6 311/1/6
f 305/1/6 307/1/6 311/1/6
f 303/1/6 305/1/6 311/1/6
f 301/1/6 303/1/6 311/1/6
f 299/1/6 301/1/6 311/1/6
f 297/1/6 299/1/6 311/1/6
f 295/1/6 297/1/6 311/1/6
f 293/1/6 295/1/6 311/1/6
f 291/1/6 293/1/6 311/1/6
f 289/1/6 291/1/6 311/1/6
f 287/1/6 289/1/6 311/1/6
f 285/1/6 287/1/6 311/1/6
f 283/1/6 285/1/6 311/1/6
f 281/1/6 283/1/6 311/1/6
f 279/1/6 281/1/6 311/1/6
f 277/1/6 279/1/6 311/1/6
f 265/1/6 275/1/6 311/1/6
f 275/1/6 277/1/6 311/1/6
f 263/1/6 265/1/6 311/1/6
f 311/1/6 310/1/6 312/1/6
