# MagicaVoxel @ Ephtracy

# group
g Light House-9

# material
mtllib Light House-9.mtl
usemtl palette

# normals
vn -1 0 0
vn 1 0 0
vn 0 0 1
vn 0 0 -1
vn 0 -1 0
vn 0 1 0

# texcoords
vt 0.974609 0.5

# verts
v -63 0 63
v -63 0 -63
v -63 14 63
v -63 14 -63
v -4 4 -14
v -4 4 -16
v -4 14 -14
v -4 14 -16
v 12 4 -36
v 12 4 -42
v 12 14 -36
v 12 14 -42
v 13 4 -21
v 13 4 -25
v 13 4 -33
v 13 4 -36
v 13 4 -42
v 13 4 -49
v 13 14 -21
v 13 14 -25
v 13 14 -33
v 13 14 -36
v 13 14 -42
v 13 14 -49
v 14 4 -19
v 14 4 -21
v 14 4 -25
v 14 4 -33
v 14 4 -49
v 14 4 -53
v 14 14 -19
v 14 14 -21
v 14 14 -25
v 14 14 -33
v 14 14 -49
v 14 14 -53
v 15 4 63
v 15 4 60
v 15 4 52
v 15 4 51
v 15 4 -53
v 15 4 -57
v 15 14 63
v 15 14 60
v 15 14 52
v 15 14 51
v 15 14 -53
v 15 14 -57
v 16 4 60
v 16 4 52
v 16 4 51
v 16 4 48
v 16 4 -17
v 16 4 -19
v 16 4 -57
v 16 4 -59
v 16 14 60
v 16 14 52
v 16 14 51
v 16 14 48
v 16 14 -17
v 16 14 -19
v 16 14 -57
v 16 14 -59
v 17 4 48
v 17 4 47
v 17 4 -16
v 17 4 -17
v 17 4 -59
v 17 4 -63
v 17 14 48
v 17 14 47
v 17 14 -16
v 17 14 -17
v 17 14 -59
v 17 14 -63
v 18 4 47
v 18 4 45
v 18 4 -13
v 18 4 -16
v 18 14 47
v 18 14 45
v 18 14 -13
v 18 14 -16
v 19 4 45
v 19 4 43
v 19 4 17
v 19 4 -13
v 19 14 45
v 19 14 43
v 19 14 17
v 19 14 -13
v 20 4 43
v 20 4 41
v 20 4 19
v 20 4 17
v 20 14 43
v 20 14 41
v 20 14 19
v 20 14 17
v 21 4 41
v 21 4 39
v 21 4 21
v 21 4 19
v 21 14 41
v 21 14 39
v 21 14 21
v 21 14 19
v 22 4 39
v 22 4 37
v 22 4 24
v 22 4 21
v 22 14 39
v 22 14 37
v 22 14 24
v 22 14 21
v 23 4 37
v 23 4 31
v 23 4 26
v 23 4 24
v 23 14 37
v 23 14 31
v 23 14 26
v 23 14 24
v 24 4 31
v 24 4 26
v 24 14 31
v 24 14 26
v -8 4 -17
v -8 4 -26
v -8 14 -17
v -8 14 -26
v -7 4 -12
v -7 4 -17
v -7 4 -26
v -7 4 -30
v -7 14 -12
v -7 14 -17
v -7 14 -26
v -7 14 -30
v -6 4 -30
v -6 4 -38
v -6 4 -58
v -6 4 -63
v -6 14 -30
v -6 14 -38
v -6 14 -58
v -6 14 -63
v -5 4 -11
v -5 4 -12
v -5 4 -38
v -5 4 -58
v -5 14 -11
v -5 14 -12
v -5 14 -38
v -5 14 -58
v -4 4 63
v -4 4 59
v -4 14 63
v -4 14 59
v -3 4 59
v -3 4 53
v -3 4 -14
v -3 4 -16
v -3 14 59
v -3 14 53
v -3 14 -14
v -3 14 -16
v -2 4 53
v -2 4 51
v -2 4 -10
v -2 4 -11
v -2 14 53
v -2 14 51
v -2 14 -10
v -2 14 -11
v -1 4 51
v -1 4 49
v -1 4 -8
v -1 4 -10
v -1 14 51
v -1 14 49
v -1 14 -8
v -1 14 -10
v 0 4 49
v 0 4 48
v 0 4 -6
v 0 4 -8
v 0 14 49
v 0 14 48
v 0 14 -6
v 0 14 -8
v 1 4 48
v 1 4 36
v 1 4 -4
v 1 4 -6
v 1 14 48
v 1 14 36
v 1 14 -4
v 1 14 -6
v 2 4 36
v 2 4 33
v 2 4 -3
v 2 4 -4
v 2 14 36
v 2 14 33
v 2 14 -3
v 2 14 -4
v 3 4 33
v 3 4 17
v 3 4 -1
v 3 4 -3
v 3 14 33
v 3 14 17
v 3 14 -1
v 3 14 -3
v 4 4 17
v 4 4 15
v 4 4 1
v 4 4 -1
v 4 14 17
v 4 14 15
v 4 14 1
v 4 14 -1
v 5 4 15
v 5 4 14
v 5 4 2
v 5 4 1
v 5 14 15
v 5 14 14
v 5 14 2
v 5 14 1
v 6 4 14
v 6 4 11
v 6 4 5
v 6 4 2
v 6 14 14
v 6 14 11
v 6 14 5
v 6 14 2
v 7 4 11
v 7 4 5
v 7 14 11
v 7 14 5
v 63 0 63
v 63 0 -63
v 63 14 63
v 63 14 -63
v -63 0 63
v -63 14 63
v -4 4 63
v -4 14 63
v 15 4 63
v 15 14 63
v 63 0 63
v 63 14 63
v -4 4 59
v -4 14 59
v -3 4 59
v -3 14 59
v -3 4 53
v -3 14 53
v -2 4 53
v -2 14 53
v 15 4 52
v 15 14 52
v 16 4 52
v 16 14 52
v -2 4 51
v -2 14 51
v -1 4 51
v -1 14 51
v -1 4 49
v -1 14 49
v 0 4 49
v 0 14 49
v 0 4 48
v 0 14 48
v 1 4 48
v 1 14 48
v 1 4 36
v 1 14 36
v 2 4 36
v 2 14 36
v 2 4 33
v 2 14 33
v 3 4 33
v 3 14 33
v 23 4 26
v 23 14 26
v 24 4 26
v 24 14 26
v 22 4 24
v 22 14 24
v 23 4 24
v 23 14 24
v 21 4 21
v 21 14 21
v 22 4 21
v 22 14 21
v 20 4 19
v 20 14 19
v 21 4 19
v 21 14 19
v 3 4 17
v 3 14 17
v 4 4 17
v 4 14 17
v 19 4 17
v 19 14 17
v 20 4 17
v 20 14 17
v 4 4 15
v 4 14 15
v 5 4 15
v 5 14 15
v 5 4 14
v 5 14 14
v 6 4 14
v 6 14 14
v 6 4 11
v 6 14 11
v 7 4 11
v 7 14 11
v 18 4 -13
v 18 14 -13
v 19 4 -13
v 19 14 -13
v -4 4 -14
v -4 14 -14
v -3 4 -14
v -3 14 -14
v 17 4 -16
v 17 14 -16
v 18 4 -16
v 18 14 -16
v 16 4 -17
v 16 14 -17
v 17 4 -17
v 17 14 -17
v 14 4 -19
v 14 14 -19
v 16 4 -19
v 16 14 -19
v 13 4 -21
v 13 14 -21
v 14 4 -21
v 14 14 -21
v -8 4 -26
v -8 14 -26
v -7 4 -26
v -7 14 -26
v -7 4 -30
v -7 14 -30
v -6 4 -30
v -6 14 -30
v 13 4 -33
v 13 14 -33
v 14 4 -33
v 14 14 -33
v 12 4 -36
v 12 14 -36
v 13 4 -36
v 13 14 -36
v -6 4 -38
v -6 14 -38
v -5 4 -38
v -5 14 -38
v 15 4 60
v 15 14 60
v 16 4 60
v 16 14 60
v 15 4 51
v 15 14 51
v 16 4 51
v 16 14 51
v 16 4 48
v 16 14 48
v 17 4 48
v 17 14 48
v 17 4 47
v 17 14 47
v 18 4 47
v 18 14 47
v 18 4 45
v 18 14 45
v 19 4 45
v 19 14 45
v 19 4 43
v 19 14 43
v 20 4 43
v 20 14 43
v 20 4 41
v 20 14 41
v 21 4 41
v 21 14 41
v 21 4 39
v 21 14 39
v 22 4 39
v 22 14 39
v 22 4 37
v 22 14 37
v 23 4 37
v 23 14 37
v 23 4 31
v 23 14 31
v 24 4 31
v 24 14 31
v 6 4 5
v 6 14 5
v 7 4 5
v 7 14 5
v 5 4 2
v 5 14 2
v 6 4 2
v 6 14 2
v 4 4 1
v 4 14 1
v 5 4 1
v 5 14 1
v 3 4 -1
v 3 14 -1
v 4 4 -1
v 4 14 -1
v 2 4 -3
v 2 14 -3
v 3 4 -3
v 3 14 -3
v 1 4 -4
v 1 14 -4
v 2 4 -4
v 2 14 -4
v 0 4 -6
v 0 14 -6
v 1 4 -6
v 1 14 -6
v -1 4 -8
v -1 14 -8
v 0 4 -8
v 0 14 -8
v -2 4 -10
v -2 14 -10
v -1 4 -10
v -1 14 -10
v -5 4 -11
v -5 14 -11
v -2 4 -11
v -2 14 -11
v -7 4 -12
v -7 14 -12
v -5 4 -12
v -5 14 -12
v -4 4 -16
v -4 14 -16
v -3 4 -16
v -3 14 -16
v -8 4 -17
v -8 14 -17
v -7 4 -17
v -7 14 -17
v 13 4 -25
v 13 14 -25
v 14 4 -25
v 14 14 -25
v 12 4 -42
v 12 14 -42
v 13 4 -42
v 13 14 -42
v 13 4 -49
v 13 14 -49
v 14 4 -49
v 14 14 -49
v 14 4 -53
v 14 14 -53
v 15 4 -53
v 15 14 -53
v 15 4 -57
v 15 14 -57
v 16 4 -57
v 16 14 -57
v -6 4 -58
v -6 14 -58
v -5 4 -58
v -5 14 -58
v 16 4 -59
v 16 14 -59
v 17 4 -59
v 17 14 -59
v -63 0 -63
v -63 14 -63
v -6 4 -63
v -6 14 -63
v 17 4 -63
v 17 14 -63
v 63 0 -63
v 63 14 -63
v -63 0 63
v 63 0 63
v -63 0 -63
v 63 0 -63
v -4 4 63
v 15 4 63
v 15 4 60
v 16 4 60
v -4 4 59
v -3 4 59
v -3 4 53
v -2 4 53
v 15 4 52
v 16 4 52
v -2 4 51
v -1 4 51
v 15 4 51
v 16 4 51
v -1 4 49
v 0 4 49
v 0 4 48
v 1 4 48
v 16 4 48
v 17 4 48
v 17 4 47
v 18 4 47
v 18 4 45
v 19 4 45
v 19 4 43
v 20 4 43
v 20 4 41
v 21 4 41
v 21 4 39
v 22 4 39
v 22 4 37
v 23 4 37
v 1 4 36
v 2 4 36
v 2 4 33
v 3 4 33
v 23 4 31
v 24 4 31
v 23 4 26
v 24 4 26
v 22 4 24
v 23 4 24
v 21 4 21
v 22 4 21
v 20 4 19
v 21 4 19
v 3 4 17
v 4 4 17
v 19 4 17
v 20 4 17
v 4 4 15
v 5 4 15
v 5 4 14
v 6 4 14
v 6 4 11
v 7 4 11
v 6 4 5
v 7 4 5
v 5 4 2
v 6 4 2
v 4 4 1
v 5 4 1
v 3 4 -1
v 4 4 -1
v 2 4 -3
v 3 4 -3
v 1 4 -4
v 2 4 -4
v 0 4 -6
v 1 4 -6
v -1 4 -8
v 0 4 -8
v -2 4 -10
v -1 4 -10
v -5 4 -11
v -2 4 -11
v -7 4 -12
v -5 4 -12
v 18 4 -13
v 19 4 -13
v -4 4 -14
v -3 4 -14
v -4 4 -16
v -3 4 -16
v 17 4 -16
v 18 4 -16
v -8 4 -17
v -7 4 -17
v 16 4 -17
v 17 4 -17
v 14 4 -19
v 16 4 -19
v 13 4 -21
v 14 4 -21
v 13 4 -25
v 14 4 -25
v -8 4 -26
v -7 4 -26
v -7 4 -30
v -6 4 -30
v 13 4 -33
v 14 4 -33
v 12 4 -36
v 13 4 -36
v -6 4 -38
v -5 4 -38
v 12 4 -42
v 13 4 -42
v 13 4 -49
v 14 4 -49
v 14 4 -53
v 15 4 -53
v 15 4 -57
v 16 4 -57
v -6 4 -58
v -5 4 -58
v 16 4 -59
v 17 4 -59
v -6 4 -63
v 17 4 -63
v -63 14 63
v -4 14 63
v 15 14 63
v 63 14 63
v 15 14 60
v 16 14 60
v -4 14 59
v -3 14 59
v -3 14 53
v -2 14 53
v 15 14 52
v 16 14 52
v -2 14 51
v -1 14 51
v 15 14 51
v 16 14 51
v -1 14 49
v 0 14 49
v 0 14 48
v 1 14 48
v 16 14 48
v 17 14 48
v 17 14 47
v 18 14 47
v 18 14 45
v 19 14 45
v 19 14 43
v 20 14 43
v 20 14 41
v 21 14 41
v 21 14 39
v 22 14 39
v 22 14 37
v 23 14 37
v 1 14 36
v 2 14 36
v 2 14 33
v 3 14 33
v 23 14 31
v 24 14 31
v 23 14 26
v 24 14 26
v 22 14 24
v 23 14 24
v 21 14 21
v 22 14 21
v 20 14 19
v 21 14 19
v 3 14 17
v 4 14 17
v 19 14 17
v 20 14 17
v 4 14 15
v 5 14 15
v 5 14 14
v 6 14 14
v 6 14 11
v 7 14 11
v 6 14 5
v 7 14 5
v 5 14 2
v 6 14 2
v 4 14 1
v 5 14 1
v 3 14 -1
v 4 14 -1
v 2 14 -3
v 3 14 -3
v 1 14 -4
v 2 14 -4
v 0 14 -6
v 1 14 -6
v -1 14 -8
v 0 14 -8
v -2 14 -10
v -1 14 -10
v -5 14 -11
v -2 14 -11
v -7 14 -12
v -5 14 -12
v 18 14 -13
v 19 14 -13
v -4 14 -14
v -3 14 -14
v -4 14 -16
v -3 14 -16
v 17 14 -16
v 18 14 -16
v -8 14 -17
v -7 14 -17
v 16 14 -17
v 17 14 -17
v 14 14 -19
v 16 14 -19
v 13 14 -21
v 14 14 -21
v 13 14 -25
v 14 14 -25
v -8 14 -26
v -7 14 -26
v -7 14 -30
v -6 14 -30
v 13 14 -33
v 14 14 -33
v 12 14 -36
v 13 14 -36
v -6 14 -38
v -5 14 -38
v 12 14 -42
v 13 14 -42
v 13 14 -49
v 14 14 -49
v 14 14 -53
v 15 14 -53
v 15 14 -57
v 16 14 -57
v -6 14 -58
v -5 14 -58
v 16 14 -59
v 17 14 -59
v -63 14 -63
v -6 14 -63
v 17 14 -63
v 63 14 -63

# faces
f 3/1/1 2/1/1 1/1/1
f 4/1/1 2/1/1 3/1/1
f 7/1/1 6/1/1 5/1/1
f 8/1/1 6/1/1 7/1/1
f 11/1/1 10/1/1 9/1/1
f 12/1/1 10/1/1 11/1/1
f 19/1/1 14/1/1 13/1/1
f 20/1/1 14/1/1 19/1/1
f 21/1/1 16/1/1 15/1/1
f 22/1/1 16/1/1 21/1/1
f 23/1/1 18/1/1 17/1/1
f 24/1/1 18/1/1 23/1/1
f 31/1/1 26/1/1 25/1/1
f 32/1/1 26/1/1 31/1/1
f 33/1/1 28/1/1 27/1/1
f 34/1/1 28/1/1 33/1/1
f 35/1/1 30/1/1 29/1/1
f 36/1/1 30/1/1 35/1/1
f 43/1/1 38/1/1 37/1/1
f 44/1/1 38/1/1 43/1/1
f 45/1/1 40/1/1 39/1/1
f 46/1/1 40/1/1 45/1/1
f 47/1/1 42/1/1 41/1/1
f 48/1/1 42/1/1 47/1/1
f 57/1/1 50/1/1 49/1/1
f 58/1/1 50/1/1 57/1/1
f 59/1/1 52/1/1 51/1/1
f 60/1/1 52/1/1 59/1/1
f 61/1/1 54/1/1 53/1/1
f 62/1/1 54/1/1 61/1/1
f 63/1/1 56/1/1 55/1/1
f 64/1/1 56/1/1 63/1/1
f 71/1/1 66/1/1 65/1/1
f 72/1/1 66/1/1 71/1/1
f 73/1/1 68/1/1 67/1/1
f 74/1/1 68/1/1 73/1/1
f 75/1/1 70/1/1 69/1/1
f 76/1/1 70/1/1 75/1/1
f 81/1/1 78/1/1 77/1/1
f 82/1/1 78/1/1 81/1/1
f 83/1/1 80/1/1 79/1/1
f 84/1/1 80/1/1 83/1/1
f 89/1/1 86/1/1 85/1/1
f 90/1/1 86/1/1 89/1/1
f 91/1/1 88/1/1 87/1/1
f 92/1/1 88/1/1 91/1/1
f 97/1/1 94/1/1 93/1/1
f 98/1/1 94/1/1 97/1/1
f 99/1/1 96/1/1 95/1/1
f 100/1/1 96/1/1 99/1/1
f 105/1/1 102/1/1 101/1/1
f 106/1/1 102/1/1 105/1/1
f 107/1/1 104/1/1 103/1/1
f 108/1/1 104/1/1 107/1/1
f 113/1/1 110/1/1 109/1/1
f 114/1/1 110/1/1 113/1/1
f 115/1/1 112/1/1 111/1/1
f 116/1/1 112/1/1 115/1/1
f 121/1/1 118/1/1 117/1/1
f 122/1/1 118/1/1 121/1/1
f 123/1/1 120/1/1 119/1/1
f 124/1/1 120/1/1 123/1/1
f 127/1/1 126/1/1 125/1/1
f 128/1/1 126/1/1 127/1/1
f 129/1/2 130/1/2 131/1/2
f 131/1/2 130/1/2 132/1/2
f 133/1/2 134/1/2 137/1/2
f 137/1/2 134/1/2 138/1/2
f 135/1/2 136/1/2 139/1/2
f 139/1/2 136/1/2 140/1/2
f 141/1/2 142/1/2 145/1/2
f 145/1/2 142/1/2 146/1/2
f 143/1/2 144/1/2 147/1/2
f 147/1/2 144/1/2 148/1/2
f 149/1/2 150/1/2 153/1/2
f 153/1/2 150/1/2 154/1/2
f 151/1/2 152/1/2 155/1/2
f 155/1/2 152/1/2 156/1/2
f 157/1/2 158/1/2 159/1/2
f 159/1/2 158/1/2 160/1/2
f 161/1/2 162/1/2 165/1/2
f 165/1/2 162/1/2 166/1/2
f 163/1/2 164/1/2 167/1/2
f 167/1/2 164/1/2 168/1/2
f 169/1/2 170/1/2 173/1/2
f 173/1/2 170/1/2 174/1/2
f 171/1/2 172/1/2 175/1/2
f 175/1/2 172/1/2 176/1/2
f 177/1/2 178/1/2 181/1/2
f 181/1/2 178/1/2 182/1/2
f 179/1/2 180/1/2 183/1/2
f 183/1/2 180/1/2 184/1/2
f 185/1/2 186/1/2 189/1/2
f 189/1/2 186/1/2 190/1/2
f 187/1/2 188/1/2 191/1/2
f 191/1/2 188/1/2 192/1/2
f 193/1/2 194/1/2 197/1/2
f 197/1/2 194/1/2 198/1/2
f 195/1/2 196/1/2 199/1/2
f 199/1/2 196/1/2 200/1/2
f 201/1/2 202/1/2 205/1/2
f 205/1/2 202/1/2 206/1/2
f 203/1/2 204/1/2 207/1/2
f 207/1/2 204/1/2 208/1/2
f 209/1/2 210/1/2 213/1/2
f 213/1/2 210/1/2 214/1/2
f 211/1/2 212/1/2 215/1/2
f 215/1/2 212/1/2 216/1/2
f 217/1/2 218/1/2 221/1/2
f 221/1/2 218/1/2 222/1/2
f 219/1/2 220/1/2 223/1/2
f 223/1/2 220/1/2 224/1/2
f 225/1/2 226/1/2 229/1/2
f 229/1/2 226/1/2 230/1/2
f 227/1/2 228/1/2 231/1/2
f 231/1/2 228/1/2 232/1/2
f 233/1/2 234/1/2 237/1/2
f 237/1/2 234/1/2 238/1/2
f 235/1/2 236/1/2 239/1/2
f 239/1/2 236/1/2 240/1/2
f 241/1/2 242/1/2 243/1/2
f 243/1/2 242/1/2 244/1/2
f 245/1/2 246/1/2 247/1/2
f 247/1/2 246/1/2 248/1/2
f 251/1/3 250/1/3 249/1/3
f 252/1/3 250/1/3 251/1/3
f 253/1/3 251/1/3 249/1/3
f 255/1/3 253/1/3 249/1/3
f 255/1/3 254/1/3 253/1/3
f 256/1/3 254/1/3 255/1/3
f 259/1/3 258/1/3 257/1/3
f 260/1/3 258/1/3 259/1/3
f 263/1/3 262/1/3 261/1/3
f 264/1/3 262/1/3 263/1/3
f 267/1/3 266/1/3 265/1/3
f 268/1/3 266/1/3 267/1/3
f 271/1/3 270/1/3 269/1/3
f 272/1/3 270/1/3 271/1/3
f 275/1/3 274/1/3 273/1/3
f 276/1/3 274/1/3 275/1/3
f 279/1/3 278/1/3 277/1/3
f 280/1/3 278/1/3 279/1/3
f 283/1/3 282/1/3 281/1/3
f 284/1/3 282/1/3 283/1/3
f 287/1/3 286/1/3 285/1/3
f 288/1/3 286/1/3 287/1/3
f 291/1/3 290/1/3 289/1/3
f 292/1/3 290/1/3 291/1/3
f 295/1/3 294/1/3 293/1/3
f 296/1/3 294/1/3 295/1/3
f 299/1/3 298/1/3 297/1/3
f 300/1/3 298/1/3 299/1/3
f 303/1/3 302/1/3 301/1/3
f 304/1/3 302/1/3 303/1/3
f 307/1/3 306/1/3 305/1/3
f 308/1/3 306/1/3 307/1/3
f 311/1/3 310/1/3 309/1/3
f 312/1/3 310/1/3 311/1/3
f 315/1/3 314/1/3 313/1/3
f 316/1/3 314/1/3 315/1/3
f 319/1/3 318/1/3 317/1/3
f 320/1/3 318/1/3 319/1/3
f 323/1/3 322/1/3 321/1/3
f 324/1/3 322/1/3 323/1/3
f 327/1/3 326/1/3 325/1/3
f 328/1/3 326/1/3 327/1/3
f 331/1/3 330/1/3 329/1/3
f 332/1/3 330/1/3 331/1/3
f 335/1/3 334/1/3 333/1/3
f 336/1/3 334/1/3 335/1/3
f 339/1/3 338/1/3 337/1/3
f 340/1/3 338/1/3 339/1/3
f 343/1/3 342/1/3 341/1/3
f 344/1/3 342/1/3 343/1/3
f 347/1/3 346/1/3 345/1/3
f 348/1/3 346/1/3 347/1/3
f 351/1/3 350/1/3 349/1/3
f 352/1/3 350/1/3 351/1/3
f 355/1/3 354/1/3 353/1/3
f 356/1/3 354/1/3 355/1/3
f 359/1/3 358/1/3 357/1/3
f 360/1/3 358/1/3 359/1/3
f 363/1/3 362/1/3 361/1/3
f 364/1/3 362/1/3 363/1/3
f 367/1/3 366/1/3 365/1/3
f 368/1/3 366/1/3 367/1/3
f 369/1/4 370/1/4 371/1/4
f 371/1/4 370/1/4 372/1/4
f 373/1/4 374/1/4 375/1/4
f 375/1/4 374/1/4 376/1/4
f 377/1/4 378/1/4 379/1/4
f 379/1/4 378/1/4 380/1/4
f 381/1/4 382/1/4 383/1/4
f 383/1/4 382/1/4 384/1/4
f 385/1/4 386/1/4 387/1/4
f 387/1/4 386/1/4 388/1/4
f 389/1/4 390/1/4 391/1/4
f 391/1/4 390/1/4 392/1/4
f 393/1/4 394/1/4 395/1/4
f 395/1/4 394/1/4 396/1/4
f 397/1/4 398/1/4 399/1/4
f 399/1/4 398/1/4 400/1/4
f 401/1/4 402/1/4 403/1/4
f 403/1/4 402/1/4 404/1/4
f 405/1/4 406/1/4 407/1/4
f 407/1/4 406/1/4 408/1/4
f 409/1/4 410/1/4 411/1/4
f 411/1/4 410/1/4 412/1/4
f 413/1/4 414/1/4 415/1/4
f 415/1/4 414/1/4 416/1/4
f 417/1/4 418/1/4 419/1/4
f 419/1/4 418/1/4 420/1/4
f 421/1/4 422/1/4 423/1/4
f 423/1/4 422/1/4 424/1/4
f 425/1/4 426/1/4 427/1/4
f 427/1/4 426/1/4 428/1/4
f 429/1/4 430/1/4 431/1/4
f 431/1/4 430/1/4 432/1/4
f 433/1/4 434/1/4 435/1/4
f 435/1/4 434/1/4 436/1/4
f 437/1/4 438/1/4 439/1/4
f 439/1/4 438/1/4 440/1/4
f 441/1/4 442/1/4 443/1/4
f 443/1/4 442/1/4 444/1/4
f 445/1/4 446/1/4 447/1/4
f 447/1/4 446/1/4 448/1/4
f 449/1/4 450/1/4 451/1/4
f 451/1/4 450/1/4 452/1/4
f 453/1/4 454/1/4 455/1/4
f 455/1/4 454/1/4 456/1/4
f 457/1/4 458/1/4 459/1/4
f 459/1/4 458/1/4 460/1/4
f 461/1/4 462/1/4 463/1/4
f 463/1/4 462/1/4 464/1/4
f 465/1/4 466/1/4 467/1/4
f 467/1/4 466/1/4 468/1/4
f 469/1/4 470/1/4 471/1/4
f 471/1/4 470/1/4 472/1/4
f 473/1/4 474/1/4 475/1/4
f 475/1/4 474/1/4 476/1/4
f 477/1/4 478/1/4 479/1/4
f 479/1/4 478/1/4 480/1/4
f 481/1/4 482/1/4 483/1/4
f 483/1/4 482/1/4 484/1/4
f 485/1/4 486/1/4 487/1/4
f 487/1/4 486/1/4 488/1/4
f 489/1/4 490/1/4 491/1/4
f 491/1/4 490/1/4 492/1/4
f 489/1/4 491/1/4 493/1/4
f 489/1/4 493/1/4 495/1/4
f 493/1/4 494/1/4 495/1/4
f 495/1/4 494/1/4 496/1/4
f 499/1/5 498/1/5 497/1/5
f 500/1/5 498/1/5 499/1/5
f 501/1/6 502/1/6 503/1/6
f 501/1/6 503/1/6 505/1/6
f 503/1/6 504/1/6 505/1/6
f 505/1/6 504/1/6 506/1/6
f 506/1/6 504/1/6 507/1/6
f 507/1/6 504/1/6 508/1/6
f 508/1/6 504/1/6 509/1/6
f 509/1/6 504/1/6 510/1/6
f 508/1/6 509/1/6 511/1/6
f 511/1/6 509/1/6 512/1/6
f 512/1/6 509/1/6 513/1/6
f 513/1/6 514/1/6 515/1/6
f 512/1/6 513/1/6 515/1/6
f 515/1/6 514/1/6 516/1/6
f 516/1/6 514/1/6 517/1/6
f 517/1/6 514/1/6 518/1/6
f 518/1/6 514/1/6 519/1/6
f 518/1/6 519/1/6 521/1/6
f 519/1/6 520/1/6 521/1/6
f 521/1/6 522/1/6 523/1/6
f 523/1/6 524/1/6 525/1/6
f 525/1/6 526/1/6 527/1/6
f 527/1/6 528/1/6 529/1/6
f 529/1/6 530/1/6 531/1/6
f 518/1/6 521/1/6 533/1/6
f 531/1/6 532/1/6 533/1/6
f 529/1/6 531/1/6 533/1/6
f 527/1/6 529/1/6 533/1/6
f 525/1/6 527/1/6 533/1/6
f 523/1/6 525/1/6 533/1/6
f 521/1/6 523/1/6 533/1/6
f 533/1/6 532/1/6 534/1/6
f 534/1/6 532/1/6 535/1/6
f 535/1/6 532/1/6 536/1/6
f 536/1/6 532/1/6 537/1/6
f 536/1/6 537/1/6 539/1/6
f 537/1/6 538/1/6 539/1/6
f 539/1/6 538/1/6 540/1/6
f 536/1/6 539/1/6 541/1/6
f 541/1/6 539/1/6 542/1/6
f 536/1/6 541/1/6 543/1/6
f 543/1/6 541/1/6 544/1/6
f 536/1/6 543/1/6 545/1/6
f 545/1/6 543/1/6 546/1/6
f 536/1/6 545/1/6 547/1/6
f 547/1/6 545/1/6 548/1/6
f 548/1/6 545/1/6 549/1/6
f 549/1/6 545/1/6 550/1/6
f 548/1/6 549/1/6 551/1/6
f 551/1/6 549/1/6 552/1/6
f 552/1/6 549/1/6 553/1/6
f 553/1/6 549/1/6 554/1/6
f 554/1/6 549/1/6 555/1/6
f 555/1/6 549/1/6 556/1/6
f 556/1/6 549/1/6 558/1/6
f 557/1/6 558/1/6 560/1/6
f 559/1/6 560/1/6 562/1/6
f 561/1/6 562/1/6 564/1/6
f 563/1/6 564/1/6 566/1/6
f 565/1/6 566/1/6 568/1/6
f 567/1/6 568/1/6 570/1/6
f 569/1/6 570/1/6 572/1/6
f 571/1/6 572/1/6 574/1/6
f 573/1/6 574/1/6 576/1/6
f 575/1/6 576/1/6 578/1/6
f 558/1/6 549/1/6 579/1/6
f 577/1/6 578/1/6 579/1/6
f 578/1/6 576/1/6 579/1/6
f 560/1/6 558/1/6 579/1/6
f 576/1/6 574/1/6 579/1/6
f 562/1/6 560/1/6 579/1/6
f 574/1/6 572/1/6 579/1/6
f 564/1/6 562/1/6 579/1/6
f 572/1/6 570/1/6 579/1/6
f 566/1/6 564/1/6 579/1/6
f 570/1/6 568/1/6 579/1/6
f 568/1/6 566/1/6 579/1/6
f 579/1/6 549/1/6 580/1/6
f 577/1/6 579/1/6 581/1/6
f 581/1/6 579/1/6 582/1/6
f 577/1/6 581/1/6 583/1/6
f 582/1/6 579/1/6 584/1/6
f 584/1/6 579/1/6 585/1/6
f 585/1/6 579/1/6 586/1/6
f 577/1/6 583/1/6 588/1/6
f 583/1/6 584/1/6 588/1/6
f 584/1/6 585/1/6 588/1/6
f 588/1/6 585/1/6 589/1/6
f 589/1/6 585/1/6 590/1/6
f 587/1/6 588/1/6 591/1/6
f 588/1/6 589/1/6 591/1/6
f 591/1/6 589/1/6 592/1/6
f 587/1/6 591/1/6 593/1/6
f 593/1/6 591/1/6 594/1/6
f 587/1/6 593/1/6 595/1/6
f 587/1/6 595/1/6 597/1/6
f 595/1/6 596/1/6 597/1/6
f 597/1/6 596/1/6 598/1/6
f 598/1/6 596/1/6 599/1/6
f 599/1/6 596/1/6 600/1/6
f 600/1/6 596/1/6 601/1/6
f 601/1/6 596/1/6 602/1/6
f 600/1/6 601/1/6 603/1/6
f 603/1/6 601/1/6 604/1/6
f 600/1/6 603/1/6 605/1/6
f 605/1/6 603/1/6 606/1/6
f 606/1/6 603/1/6 607/1/6
f 607/1/6 608/1/6 609/1/6
f 609/1/6 610/1/6 611/1/6
f 611/1/6 612/1/6 613/1/6
f 609/1/6 611/1/6 616/1/6
f 613/1/6 614/1/6 616/1/6
f 611/1/6 613/1/6 616/1/6
f 606/1/6 607/1/6 616/1/6
f 607/1/6 609/1/6 616/1/6
f 616/1/6 614/1/6 617/1/6
f 615/1/6 616/1/6 617/1/6
f 615/1/6 617/1/6 619/1/6
f 617/1/6 618/1/6 619/1/6
f 619/1/6 618/1/6 620/1/6
f 623/1/6 624/1/6 625/1/6
f 625/1/6 624/1/6 626/1/6
f 621/1/6 622/1/6 627/1/6
f 627/1/6 628/1/6 629/1/6
f 626/1/6 624/1/6 632/1/6
f 629/1/6 630/1/6 633/1/6
f 631/1/6 632/1/6 635/1/6
f 632/1/6 624/1/6 636/1/6
f 635/1/6 632/1/6 636/1/6
f 633/1/6 634/1/6 637/1/6
f 637/1/6 638/1/6 639/1/6
f 636/1/6 624/1/6 641/1/6
f 641/1/6 624/1/6 642/1/6
f 642/1/6 624/1/6 643/1/6
f 643/1/6 624/1/6 644/1/6
f 644/1/6 624/1/6 645/1/6
f 645/1/6 624/1/6 646/1/6
f 646/1/6 624/1/6 647/1/6
f 647/1/6 624/1/6 648/1/6
f 648/1/6 624/1/6 649/1/6
f 649/1/6 624/1/6 650/1/6
f 650/1/6 624/1/6 651/1/6
f 651/1/6 624/1/6 652/1/6
f 652/1/6 624/1/6 653/1/6
f 653/1/6 624/1/6 654/1/6
f 639/1/6 640/1/6 655/1/6
f 655/1/6 656/1/6 657/1/6
f 654/1/6 624/1/6 659/1/6
f 659/1/6 624/1/6 660/1/6
f 660/1/6 624/1/6 662/1/6
f 661/1/6 662/1/6 664/1/6
f 663/1/6 664/1/6 666/1/6
f 665/1/6 666/1/6 668/1/6
f 657/1/6 658/1/6 669/1/6
f 667/1/6 668/1/6 672/1/6
f 669/1/6 670/1/6 673/1/6
f 673/1/6 674/1/6 675/1/6
f 675/1/6 676/1/6 677/1/6
f 675/1/6 677/1/6 679/1/6
f 677/1/6 678/1/6 679/1/6
f 679/1/6 678/1/6 680/1/6
f 673/1/6 675/1/6 681/1/6
f 675/1/6 679/1/6 681/1/6
f 681/1/6 679/1/6 682/1/6
f 669/1/6 673/1/6 683/1/6
f 673/1/6 681/1/6 683/1/6
f 683/1/6 681/1/6 684/1/6
f 657/1/6 669/1/6 685/1/6
f 669/1/6 683/1/6 685/1/6
f 685/1/6 683/1/6 686/1/6
f 655/1/6 657/1/6 687/1/6
f 657/1/6 685/1/6 687/1/6
f 687/1/6 685/1/6 688/1/6
f 639/1/6 655/1/6 689/1/6
f 655/1/6 687/1/6 689/1/6
f 689/1/6 687/1/6 690/1/6
f 637/1/6 639/1/6 691/1/6
f 639/1/6 689/1/6 691/1/6
f 691/1/6 689/1/6 692/1/6
f 633/1/6 637/1/6 693/1/6
f 637/1/6 691/1/6 693/1/6
f 693/1/6 691/1/6 694/1/6
f 629/1/6 633/1/6 695/1/6
f 633/1/6 693/1/6 695/1/6
f 695/1/6 693/1/6 696/1/6
f 621/1/6 627/1/6 697/1/6
f 627/1/6 629/1/6 697/1/6
f 629/1/6 695/1/6 697/1/6
f 697/1/6 695/1/6 698/1/6
f 621/1/6 697/1/6 699/1/6
f 699/1/6 697/1/6 700/1/6
f 671/1/6 672/1/6 702/1/6
f 703/1/6 704/1/6 705/1/6
f 705/1/6 704/1/6 706/1/6
f 701/1/6 702/1/6 708/1/6
f 621/1/6 699/1/6 709/1/6
f 709/1/6 699/1/6 710/1/6
f 707/1/6 708/1/6 712/1/6
f 711/1/6 712/1/6 714/1/6
f 713/1/6 714/1/6 716/1/6
f 715/1/6 716/1/6 717/1/6
f 716/1/6 714/1/6 718/1/6
f 717/1/6 716/1/6 718/1/6
f 621/1/6 709/1/6 719/1/6
f 719/1/6 720/1/6 721/1/6
f 718/1/6 714/1/6 724/1/6
f 723/1/6 724/1/6 726/1/6
f 721/1/6 722/1/6 727/1/6
f 725/1/6 726/1/6 729/1/6
f 726/1/6 724/1/6 730/1/6
f 729/1/6 726/1/6 730/1/6
f 730/1/6 724/1/6 731/1/6
f 724/1/6 714/1/6 732/1/6
f 731/1/6 724/1/6 732/1/6
f 732/1/6 714/1/6 733/1/6
f 733/1/6 714/1/6 734/1/6
f 734/1/6 714/1/6 735/1/6
f 714/1/6 712/1/6 736/1/6
f 735/1/6 714/1/6 736/1/6
f 727/1/6 728/1/6 737/1/6
f 721/1/6 727/1/6 737/1/6
f 737/1/6 728/1/6 738/1/6
f 736/1/6 712/1/6 739/1/6
f 712/1/6 708/1/6 740/1/6
f 739/1/6 712/1/6 740/1/6
f 721/1/6 737/1/6 741/1/6
f 621/1/6 719/1/6 741/1/6
f 719/1/6 721/1/6 741/1/6
f 741/1/6 737/1/6 742/1/6
f 740/1/6 708/1/6 743/1/6
f 664/1/6 662/1/6 744/1/6
f 743/1/6 708/1/6 744/1/6
f 672/1/6 668/1/6 744/1/6
f 668/1/6 666/1/6 744/1/6
f 666/1/6 664/1/6 744/1/6
f 662/1/6 624/1/6 744/1/6
f 702/1/6 672/1/6 744/1/6
f 708/1/6 702/1/6 744/1/6
