# MagicaVoxel @ Ephtracy

# group
g Main Island-10

# material
mtllib Main Island-10.mtl
usemtl palette

# normals
vn -1 0 0
vn 1 0 0
vn 0 0 1
vn 0 0 -1
vn 0 -1 0
vn 0 1 0

# texcoords
vt 0.974609 0.5

# verts
v -63 0 -14
v -63 0 -63
v -63 4 -14
v -63 4 -63
v -60 0 -13
v -60 0 -14
v -60 4 -13
v -60 4 -14
v -59 0 -12
v -59 0 -13
v -59 4 -12
v -59 4 -13
v -58 0 -10
v -58 0 -12
v -58 4 -10
v -58 4 -12
v -57 0 -8
v -57 0 -10
v -57 4 -8
v -57 4 -10
v -56 0 -7
v -56 0 -8
v -56 4 -7
v -56 4 -8
v -55 0 47
v -55 0 46
v -55 0 -6
v -55 0 -7
v -55 4 47
v -55 4 46
v -55 4 -6
v -55 4 -7
v -54 0 51
v -54 0 47
v -54 0 46
v -54 0 39
v -54 0 -4
v -54 0 -6
v -54 4 51
v -54 4 47
v -54 4 46
v -54 4 39
v -54 4 -4
v -54 4 -6
v -53 0 55
v -53 0 51
v -53 0 39
v -53 0 26
v -53 0 -2
v -53 0 -4
v -53 4 55
v -53 4 51
v -53 4 39
v -53 4 26
v -53 4 -2
v -53 4 -4
v -52 0 63
v -52 0 55
v -52 0 26
v -52 0 18
v -52 0 -0
v -52 0 -2
v -52 4 63
v -52 4 55
v -52 4 26
v -52 4 18
v -52 4 -0
v -52 4 -2
v -51 0 18
v -51 0 -0
v -51 4 18
v -51 4 -0
v 63 0 63
v 63 0 -63
v 63 4 63
v 63 4 -63
v -52 0 63
v -52 4 63
v 63 0 63
v 63 4 63
v -53 0 55
v -53 4 55
v -52 0 55
v -52 4 55
v -54 0 51
v -54 4 51
v -53 0 51
v -53 4 51
v -55 0 47
v -55 4 47
v -54 0 47
v -54 4 47
v -52 0 -0
v -52 4 -0
v -51 0 -0
v -51 4 -0
v -53 0 -2
v -53 4 -2
v -52 0 -2
v -52 4 -2
v -54 0 -4
v -54 4 -4
v -53 0 -4
v -53 4 -4
v -55 0 -6
v -55 4 -6
v -54 0 -6
v -54 4 -6
v -56 0 -7
v -56 4 -7
v -55 0 -7
v -55 4 -7
v -57 0 -8
v -57 4 -8
v -56 0 -8
v -56 4 -8
v -58 0 -10
v -58 4 -10
v -57 0 -10
v -57 4 -10
v -59 0 -12
v -59 4 -12
v -58 0 -12
v -58 4 -12
v -60 0 -13
v -60 4 -13
v -59 0 -13
v -59 4 -13
v -63 0 -14
v -63 4 -14
v -60 0 -14
v -60 4 -14
v -55 0 46
v -55 4 46
v -54 0 46
v -54 4 46
v -54 0 39
v -54 4 39
v -53 0 39
v -53 4 39
v -53 0 26
v -53 4 26
v -52 0 26
v -52 4 26
v -52 0 18
v -52 4 18
v -51 0 18
v -51 4 18
v -63 0 -63
v -63 4 -63
v 63 0 -63
v 63 4 -63
v -52 0 63
v 63 0 63
v -53 0 55
v -52 0 55
v -54 0 51
v -53 0 51
v -55 0 47
v -54 0 47
v -55 0 46
v -54 0 46
v -54 0 39
v -53 0 39
v -53 0 26
v -52 0 26
v -52 0 18
v -51 0 18
v -52 0 -0
v -51 0 -0
v -53 0 -2
v -52 0 -2
v -54 0 -4
v -53 0 -4
v -55 0 -6
v -54 0 -6
v -56 0 -7
v -55 0 -7
v -57 0 -8
v -56 0 -8
v -58 0 -10
v -57 0 -10
v -59 0 -12
v -58 0 -12
v -60 0 -13
v -59 0 -13
v -63 0 -14
v -60 0 -14
v -63 0 -63
v 63 0 -63
v -52 4 63
v 63 4 63
v -53 4 55
v -52 4 55
v -54 4 51
v -53 4 51
v -55 4 47
v -54 4 47
v -55 4 46
v -54 4 46
v -54 4 39
v -53 4 39
v -53 4 26
v -52 4 26
v -52 4 18
v -51 4 18
v -52 4 -0
v -51 4 -0
v -53 4 -2
v -52 4 -2
v -54 4 -4
v -53 4 -4
v -55 4 -6
v -54 4 -6
v -56 4 -7
v -55 4 -7
v -57 4 -8
v -56 4 -8
v -58 4 -10
v -57 4 -10
v -59 4 -12
v -58 4 -12
v -60 4 -13
v -59 4 -13
v -63 4 -14
v -60 4 -14
v -63 4 -63
v 63 4 -63

# faces
f 3/1/1 2/1/1 1/1/1
f 4/1/1 2/1/1 3/1/1
f 7/1/1 6/1/1 5/1/1
f 8/1/1 6/1/1 7/1/1
f 11/1/1 10/1/1 9/1/1
f 12/1/1 10/1/1 11/1/1
f 15/1/1 14/1/1 13/1/1
f 16/1/1 14/1/1 15/1/1
f 19/1/1 18/1/1 17/1/1
f 20/1/1 18/1/1 19/1/1
f 23/1/1 22/1/1 21/1/1
f 24/1/1 22/1/1 23/1/1
f 29/1/1 26/1/1 25/1/1
f 30/1/1 26/1/1 29/1/1
f 31/1/1 28/1/1 27/1/1
f 32/1/1 28/1/1 31/1/1
f 39/1/1 34/1/1 33/1/1
f 40/1/1 34/1/1 39/1/1
f 41/1/1 36/1/1 35/1/1
f 42/1/1 36/1/1 41/1/1
f 43/1/1 38/1/1 37/1/1
f 44/1/1 38/1/1 43/1/1
f 51/1/1 46/1/1 45/1/1
f 52/1/1 46/1/1 51/1/1
f 53/1/1 48/1/1 47/1/1
f 54/1/1 48/1/1 53/1/1
f 55/1/1 50/1/1 49/1/1
f 56/1/1 50/1/1 55/1/1
f 63/1/1 58/1/1 57/1/1
f 64/1/1 58/1/1 63/1/1
f 65/1/1 60/1/1 59/1/1
f 66/1/1 60/1/1 65/1/1
f 67/1/1 62/1/1 61/1/1
f 68/1/1 62/1/1 67/1/1
f 71/1/1 70/1/1 69/1/1
f 72/1/1 70/1/1 71/1/1
f 73/1/2 74/1/2 75/1/2
f 75/1/2 74/1/2 76/1/2
f 79/1/3 78/1/3 77/1/3
f 80/1/3 78/1/3 79/1/3
f 83/1/3 82/1/3 81/1/3
f 84/1/3 82/1/3 83/1/3
f 87/1/3 86/1/3 85/1/3
f 88/1/3 86/1/3 87/1/3
f 91/1/3 90/1/3 89/1/3
f 92/1/3 90/1/3 91/1/3
f 95/1/3 94/1/3 93/1/3
f 96/1/3 94/1/3 95/1/3
f 99/1/3 98/1/3 97/1/3
f 100/1/3 98/1/3 99/1/3
f 103/1/3 102/1/3 101/1/3
f 104/1/3 102/1/3 103/1/3
f 107/1/3 106/1/3 105/1/3
f 108/1/3 106/1/3 107/1/3
f 111/1/3 110/1/3 109/1/3
f 112/1/3 110/1/3 111/1/3
f 115/1/3 114/1/3 113/1/3
f 116/1/3 114/1/3 115/1/3
f 119/1/3 118/1/3 117/1/3
f 120/1/3 118/1/3 119/1/3
f 123/1/3 122/1/3 121/1/3
f 124/1/3 122/1/3 123/1/3
f 127/1/3 126/1/3 125/1/3
f 128/1/3 126/1/3 127/1/3
f 131/1/3 130/1/3 129/1/3
f 132/1/3 130/1/3 131/1/3
f 133/1/4 134/1/4 135/1/4
f 135/1/4 134/1/4 136/1/4
f 137/1/4 138/1/4 139/1/4
f 139/1/4 138/1/4 140/1/4
f 141/1/4 142/1/4 143/1/4
f 143/1/4 142/1/4 144/1/4
f 145/1/4 146/1/4 147/1/4
f 147/1/4 146/1/4 148/1/4
f 149/1/4 150/1/4 151/1/4
f 151/1/4 150/1/4 152/1/4
f 156/1/5 154/1/5 153/1/5
f 158/1/5 156/1/5 155/1/5
f 160/1/5 158/1/5 157/1/5
f 161/1/5 160/1/5 159/1/5
f 162/1/5 158/1/5 160/1/5
f 162/1/5 160/1/5 161/1/5
f 163/1/5 158/1/5 162/1/5
f 164/1/5 156/1/5 158/1/5
f 164/1/5 158/1/5 163/1/5
f 165/1/5 156/1/5 164/1/5
f 166/1/5 154/1/5 156/1/5
f 166/1/5 156/1/5 165/1/5
f 167/1/5 154/1/5 166/1/5
f 168/1/5 154/1/5 167/1/5
f 170/1/5 154/1/5 168/1/5
f 172/1/5 170/1/5 169/1/5
f 174/1/5 172/1/5 171/1/5
f 176/1/5 174/1/5 173/1/5
f 178/1/5 176/1/5 175/1/5
f 180/1/5 178/1/5 177/1/5
f 182/1/5 180/1/5 179/1/5
f 184/1/5 182/1/5 181/1/5
f 186/1/5 184/1/5 183/1/5
f 188/1/5 186/1/5 185/1/5
f 189/1/5 188/1/5 187/1/5
f 190/1/5 154/1/5 170/1/5
f 190/1/5 188/1/5 189/1/5
f 190/1/5 170/1/5 172/1/5
f 190/1/5 186/1/5 188/1/5
f 190/1/5 172/1/5 174/1/5
f 190/1/5 184/1/5 186/1/5
f 190/1/5 174/1/5 176/1/5
f 190/1/5 182/1/5 184/1/5
f 190/1/5 176/1/5 178/1/5
f 190/1/5 180/1/5 182/1/5
f 190/1/5 178/1/5 180/1/5
f 191/1/6 192/1/6 194/1/6
f 193/1/6 194/1/6 196/1/6
f 195/1/6 196/1/6 198/1/6
f 197/1/6 198/1/6 199/1/6
f 198/1/6 196/1/6 200/1/6
f 199/1/6 198/1/6 200/1/6
f 200/1/6 196/1/6 201/1/6
f 196/1/6 194/1/6 202/1/6
f 201/1/6 196/1/6 202/1/6
f 202/1/6 194/1/6 203/1/6
f 194/1/6 192/1/6 204/1/6
f 203/1/6 194/1/6 204/1/6
f 204/1/6 192/1/6 205/1/6
f 205/1/6 192/1/6 206/1/6
f 206/1/6 192/1/6 208/1/6
f 207/1/6 208/1/6 210/1/6
f 209/1/6 210/1/6 212/1/6
f 211/1/6 212/1/6 214/1/6
f 213/1/6 214/1/6 216/1/6
f 215/1/6 216/1/6 218/1/6
f 217/1/6 218/1/6 220/1/6
f 219/1/6 220/1/6 222/1/6
f 221/1/6 222/1/6 224/1/6
f 223/1/6 224/1/6 226/1/6
f 225/1/6 226/1/6 227/1/6
f 208/1/6 192/1/6 228/1/6
f 227/1/6 226/1/6 228/1/6
f 210/1/6 208/1/6 228/1/6
f 226/1/6 224/1/6 228/1/6
f 212/1/6 210/1/6 228/1/6
f 224/1/6 222/1/6 228/1/6
f 214/1/6 212/1/6 228/1/6
f 222/1/6 220/1/6 228/1/6
f 216/1/6 214/1/6 228/1/6
f 220/1/6 218/1/6 228/1/6
f 218/1/6 216/1/6 228/1/6
