# MagicaVoxel @ Ephtracy

# group
g Main Island-1

# material
mtllib Main Island-1.mtl
usemtl palette

# normals
vn -1 0 0
vn 1 0 0
vn 0 0 1
vn 0 0 -1
vn 0 -1 0
vn 0 1 0

# texcoords
vt 0.974609 0.5

# verts
v -63 0 4
v -63 0 -63
v -63 4 4
v -63 4 -63
v -62 0 5
v -62 0 4
v -62 4 5
v -62 4 4
v -61 0 6
v -61 0 5
v -61 4 6
v -61 4 5
v -60 0 8
v -60 0 6
v -60 4 8
v -60 4 6
v -59 0 10
v -59 0 8
v -59 4 10
v -59 4 8
v -58 0 11
v -58 0 10
v -58 4 11
v -58 4 10
v -57 0 13
v -57 0 11
v -57 4 13
v -57 4 11
v -56 0 17
v -56 0 13
v -56 4 17
v -56 4 13
v -55 0 21
v -55 0 17
v -55 4 21
v -55 4 17
v -54 0 26
v -54 0 21
v -54 4 26
v -54 4 21
v -53 0 34
v -53 0 26
v -53 4 34
v -53 4 26
v -52 0 37
v -52 0 34
v -52 4 37
v -52 4 34
v -51 0 40
v -51 0 37
v -51 4 40
v -51 4 37
v -50 0 42
v -50 0 40
v -50 4 42
v -50 4 40
v -49 0 44
v -49 0 42
v -49 4 44
v -49 4 42
v -48 0 46
v -48 0 44
v -48 4 46
v -48 4 44
v -47 0 48
v -47 0 46
v -47 4 48
v -47 4 46
v -46 0 50
v -46 0 48
v -46 4 50
v -46 4 48
v -45 0 52
v -45 0 50
v -45 4 52
v -45 4 50
v -44 0 54
v -44 0 52
v -44 4 54
v -44 4 52
v -43 0 57
v -43 0 54
v -43 4 57
v -43 4 54
v -42 0 63
v -42 0 57
v -42 4 63
v -42 4 57
v 49 0 63
v 49 0 59
v 49 4 63
v 49 4 59
v 50 0 59
v 50 0 58
v 50 4 59
v 50 4 58
v 51 0 58
v 51 0 56
v 51 4 58
v 51 4 56
v 52 0 56
v 52 0 54
v 52 4 56
v 52 4 54
v 53 0 54
v 53 0 51
v 53 4 54
v 53 4 51
v 54 0 51
v 54 0 49
v 54 4 51
v 54 4 49
v 55 0 49
v 55 0 47
v 55 4 49
v 55 4 47
v 56 0 47
v 56 0 46
v 56 4 47
v 56 4 46
v 57 0 46
v 57 0 44
v 57 4 46
v 57 4 44
v 58 0 44
v 58 0 43
v 58 4 44
v 58 4 43
v 59 0 43
v 59 0 42
v 59 4 43
v 59 4 42
v 60 0 42
v 60 0 41
v 60 4 42
v 60 4 41
v 61 0 41
v 61 0 40
v 61 4 41
v 61 4 40
v 63 0 40
v 63 0 -63
v 63 4 40
v 63 4 -63
v -42 0 63
v -42 4 63
v 49 0 63
v 49 4 63
v 49 0 59
v 49 4 59
v 50 0 59
v 50 4 59
v 50 0 58
v 50 4 58
v 51 0 58
v 51 4 58
v -43 0 57
v -43 4 57
v -42 0 57
v -42 4 57
v 51 0 56
v 51 4 56
v 52 0 56
v 52 4 56
v -44 0 54
v -44 4 54
v -43 0 54
v -43 4 54
v 52 0 54
v 52 4 54
v 53 0 54
v 53 4 54
v -45 0 52
v -45 4 52
v -44 0 52
v -44 4 52
v 53 0 51
v 53 4 51
v 54 0 51
v 54 4 51
v -46 0 50
v -46 4 50
v -45 0 50
v -45 4 50
v 54 0 49
v 54 4 49
v 55 0 49
v 55 4 49
v -47 0 48
v -47 4 48
v -46 0 48
v -46 4 48
v 55 0 47
v 55 4 47
v 56 0 47
v 56 4 47
v -48 0 46
v -48 4 46
v -47 0 46
v -47 4 46
v 56 0 46
v 56 4 46
v 57 0 46
v 57 4 46
v -49 0 44
v -49 4 44
v -48 0 44
v -48 4 44
v 57 0 44
v 57 4 44
v 58 0 44
v 58 4 44
v 58 0 43
v 58 4 43
v 59 0 43
v 59 4 43
v -50 0 42
v -50 4 42
v -49 0 42
v -49 4 42
v 59 0 42
v 59 4 42
v 60 0 42
v 60 4 42
v 60 0 41
v 60 4 41
v 61 0 41
v 61 4 41
v -51 0 40
v -51 4 40
v -50 0 40
v -50 4 40
v 61 0 40
v 61 4 40
v 63 0 40
v 63 4 40
v -52 0 37
v -52 4 37
v -51 0 37
v -51 4 37
v -53 0 34
v -53 4 34
v -52 0 34
v -52 4 34
v -54 0 26
v -54 4 26
v -53 0 26
v -53 4 26
v -55 0 21
v -55 4 21
v -54 0 21
v -54 4 21
v -56 0 17
v -56 4 17
v -55 0 17
v -55 4 17
v -57 0 13
v -57 4 13
v -56 0 13
v -56 4 13
v -58 0 11
v -58 4 11
v -57 0 11
v -57 4 11
v -59 0 10
v -59 4 10
v -58 0 10
v -58 4 10
v -60 0 8
v -60 4 8
v -59 0 8
v -59 4 8
v -61 0 6
v -61 4 6
v -60 0 6
v -60 4 6
v -62 0 5
v -62 4 5
v -61 0 5
v -61 4 5
v -63 0 4
v -63 4 4
v -62 0 4
v -62 4 4
v -63 0 -63
v -63 4 -63
v 63 0 -63
v 63 4 -63
v -42 0 63
v 49 0 63
v 49 0 59
v 50 0 59
v 50 0 58
v 51 0 58
v -43 0 57
v -42 0 57
v 51 0 56
v 52 0 56
v -44 0 54
v -43 0 54
v 52 0 54
v 53 0 54
v -45 0 52
v -44 0 52
v 53 0 51
v 54 0 51
v -46 0 50
v -45 0 50
v 54 0 49
v 55 0 49
v -47 0 48
v -46 0 48
v 55 0 47
v 56 0 47
v -48 0 46
v -47 0 46
v 56 0 46
v 57 0 46
v -49 0 44
v -48 0 44
v 57 0 44
v 58 0 44
v 58 0 43
v 59 0 43
v -50 0 42
v -49 0 42
v 59 0 42
v 60 0 42
v 60 0 41
v 61 0 41
v -51 0 40
v -50 0 40
v 61 0 40
v 63 0 40
v -52 0 37
v -51 0 37
v -53 0 34
v -52 0 34
v -54 0 26
v -53 0 26
v -55 0 21
v -54 0 21
v -56 0 17
v -55 0 17
v -57 0 13
v -56 0 13
v -58 0 11
v -57 0 11
v -59 0 10
v -58 0 10
v -60 0 8
v -59 0 8
v -61 0 6
v -60 0 6
v -62 0 5
v -61 0 5
v -63 0 4
v -62 0 4
v -63 0 -63
v 63 0 -63
v -42 4 63
v 49 4 63
v 49 4 59
v 50 4 59
v 50 4 58
v 51 4 58
v -43 4 57
v -42 4 57
v 51 4 56
v 52 4 56
v -44 4 54
v -43 4 54
v 52 4 54
v 53 4 54
v -45 4 52
v -44 4 52
v 53 4 51
v 54 4 51
v -46 4 50
v -45 4 50
v 54 4 49
v 55 4 49
v -47 4 48
v -46 4 48
v 55 4 47
v 56 4 47
v -48 4 46
v -47 4 46
v 56 4 46
v 57 4 46
v -49 4 44
v -48 4 44
v 57 4 44
v 58 4 44
v 58 4 43
v 59 4 43
v -50 4 42
v -49 4 42
v 59 4 42
v 60 4 42
v 60 4 41
v 61 4 41
v -51 4 40
v -50 4 40
v 61 4 40
v 63 4 40
v -52 4 37
v -51 4 37
v -53 4 34
v -52 4 34
v -54 4 26
v -53 4 26
v -55 4 21
v -54 4 21
v -56 4 17
v -55 4 17
v -57 4 13
v -56 4 13
v -58 4 11
v -57 4 11
v -59 4 10
v -58 4 10
v -60 4 8
v -59 4 8
v -61 4 6
v -60 4 6
v -62 4 5
v -61 4 5
v -63 4 4
v -62 4 4
v -63 4 -63
v 63 4 -63

# faces
f 3/1/1 2/1/1 1/1/1
f 4/1/1 2/1/1 3/1/1
f 7/1/1 6/1/1 5/1/1
f 8/1/1 6/1/1 7/1/1
f 11/1/1 10/1/1 9/1/1
f 12/1/1 10/1/1 11/1/1
f 15/1/1 14/1/1 13/1/1
f 16/1/1 14/1/1 15/1/1
f 19/1/1 18/1/1 17/1/1
f 20/1/1 18/1/1 19/1/1
f 23/1/1 22/1/1 21/1/1
f 24/1/1 22/1/1 23/1/1
f 27/1/1 26/1/1 25/1/1
f 28/1/1 26/1/1 27/1/1
f 31/1/1 30/1/1 29/1/1
f 32/1/1 30/1/1 31/1/1
f 35/1/1 34/1/1 33/1/1
f 36/1/1 34/1/1 35/1/1
f 39/1/1 38/1/1 37/1/1
f 40/1/1 38/1/1 39/1/1
f 43/1/1 42/1/1 41/1/1
f 44/1/1 42/1/1 43/1/1
f 47/1/1 46/1/1 45/1/1
f 48/1/1 46/1/1 47/1/1
f 51/1/1 50/1/1 49/1/1
f 52/1/1 50/1/1 51/1/1
f 55/1/1 54/1/1 53/1/1
f 56/1/1 54/1/1 55/1/1
f 59/1/1 58/1/1 57/1/1
f 60/1/1 58/1/1 59/1/1
f 63/1/1 62/1/1 61/1/1
f 64/1/1 62/1/1 63/1/1
f 67/1/1 66/1/1 65/1/1
f 68/1/1 66/1/1 67/1/1
f 71/1/1 70/1/1 69/1/1
f 72/1/1 70/1/1 71/1/1
f 75/1/1 74/1/1 73/1/1
f 76/1/1 74/1/1 75/1/1
f 79/1/1 78/1/1 77/1/1
f 80/1/1 78/1/1 79/1/1
f 83/1/1 82/1/1 81/1/1
f 84/1/1 82/1/1 83/1/1
f 87/1/1 86/1/1 85/1/1
f 88/1/1 86/1/1 87/1/1
f 89/1/2 90/1/2 91/1/2
f 91/1/2 90/1/2 92/1/2
f 93/1/2 94/1/2 95/1/2
f 95/1/2 94/1/2 96/1/2
f 97/1/2 98/1/2 99/1/2
f 99/1/2 98/1/2 100/1/2
f 101/1/2 102/1/2 103/1/2
f 103/1/2 102/1/2 104/1/2
f 105/1/2 106/1/2 107/1/2
f 107/1/2 106/1/2 108/1/2
f 109/1/2 110/1/2 111/1/2
f 111/1/2 110/1/2 112/1/2
f 113/1/2 114/1/2 115/1/2
f 115/1/2 114/1/2 116/1/2
f 117/1/2 118/1/2 119/1/2
f 119/1/2 118/1/2 120/1/2
f 121/1/2 122/1/2 123/1/2
f 123/1/2 122/1/2 124/1/2
f 125/1/2 126/1/2 127/1/2
f 127/1/2 126/1/2 128/1/2
f 129/1/2 130/1/2 131/1/2
f 131/1/2 130/1/2 132/1/2
f 133/1/2 134/1/2 135/1/2
f 135/1/2 134/1/2 136/1/2
f 137/1/2 138/1/2 139/1/2
f 139/1/2 138/1/2 140/1/2
f 141/1/2 142/1/2 143/1/2
f 143/1/2 142/1/2 144/1/2
f 147/1/3 146/1/3 145/1/3
f 148/1/3 146/1/3 147/1/3
f 151/1/3 150/1/3 149/1/3
f 152/1/3 150/1/3 151/1/3
f 155/1/3 154/1/3 153/1/3
f 156/1/3 154/1/3 155/1/3
f 159/1/3 158/1/3 157/1/3
f 160/1/3 158/1/3 159/1/3
f 163/1/3 162/1/3 161/1/3
f 164/1/3 162/1/3 163/1/3
f 167/1/3 166/1/3 165/1/3
f 168/1/3 166/1/3 167/1/3
f 171/1/3 170/1/3 169/1/3
f 172/1/3 170/1/3 171/1/3
f 175/1/3 174/1/3 173/1/3
f 176/1/3 174/1/3 175/1/3
f 179/1/3 178/1/3 177/1/3
f 180/1/3 178/1/3 179/1/3
f 183/1/3 182/1/3 181/1/3
f 184/1/3 182/1/3 183/1/3
f 187/1/3 186/1/3 185/1/3
f 188/1/3 186/1/3 187/1/3
f 191/1/3 190/1/3 189/1/3
f 192/1/3 190/1/3 191/1/3
f 195/1/3 194/1/3 193/1/3
f 196/1/3 194/1/3 195/1/3
f 199/1/3 198/1/3 197/1/3
f 200/1/3 198/1/3 199/1/3
f 203/1/3 202/1/3 201/1/3
f 204/1/3 202/1/3 203/1/3
f 207/1/3 206/1/3 205/1/3
f 208/1/3 206/1/3 207/1/3
f 211/1/3 210/1/3 209/1/3
f 212/1/3 210/1/3 211/1/3
f 215/1/3 214/1/3 213/1/3
f 216/1/3 214/1/3 215/1/3
f 219/1/3 218/1/3 217/1/3
f 220/1/3 218/1/3 219/1/3
f 223/1/3 222/1/3 221/1/3
f 224/1/3 222/1/3 223/1/3
f 227/1/3 226/1/3 225/1/3
f 228/1/3 226/1/3 227/1/3
f 231/1/3 230/1/3 229/1/3
f 232/1/3 230/1/3 231/1/3
f 235/1/3 234/1/3 233/1/3
f 236/1/3 234/1/3 235/1/3
f 239/1/3 238/1/3 237/1/3
f 240/1/3 238/1/3 239/1/3
f 243/1/3 242/1/3 241/1/3
f 244/1/3 242/1/3 243/1/3
f 247/1/3 246/1/3 245/1/3
f 248/1/3 246/1/3 247/1/3
f 251/1/3 250/1/3 249/1/3
f 252/1/3 250/1/3 251/1/3
f 255/1/3 254/1/3 253/1/3
f 256/1/3 254/1/3 255/1/3
f 259/1/3 258/1/3 257/1/3
f 260/1/3 258/1/3 259/1/3
f 263/1/3 262/1/3 261/1/3
f 264/1/3 262/1/3 263/1/3
f 267/1/3 266/1/3 265/1/3
f 268/1/3 266/1/3 267/1/3
f 271/1/3 270/1/3 269/1/3
f 272/1/3 270/1/3 271/1/3
f 275/1/3 274/1/3 273/1/3
f 276/1/3 274/1/3 275/1/3
f 279/1/3 278/1/3 277/1/3
f 280/1/3 278/1/3 279/1/3
f 283/1/3 282/1/3 281/1/3
f 284/1/3 282/1/3 283/1/3
f 285/1/4 286/1/4 287/1/4
f 287/1/4 286/1/4 288/1/4
f 291/1/5 290/1/5 289/1/5
f 293/1/5 292/1/5 291/1/5
f 296/1/5 291/1/5 289/1/5
f 296/1/5 294/1/5 293/1/5
f 296/1/5 293/1/5 291/1/5
f 297/1/5 294/1/5 296/1/5
f 297/1/5 296/1/5 295/1/5
f 300/1/5 297/1/5 295/1/5
f 300/1/5 298/1/5 297/1/5
f 301/1/5 298/1/5 300/1/5
f 304/1/5 300/1/5 299/1/5
f 304/1/5 302/1/5 301/1/5
f 304/1/5 301/1/5 300/1/5
f 305/1/5 302/1/5 304/1/5
f 305/1/5 304/1/5 303/1/5
f 308/1/5 305/1/5 303/1/5
f 308/1/5 306/1/5 305/1/5
f 309/1/5 306/1/5 308/1/5
f 309/1/5 308/1/5 307/1/5
f 312/1/5 309/1/5 307/1/5
f 312/1/5 310/1/5 309/1/5
f 313/1/5 310/1/5 312/1/5
f 313/1/5 312/1/5 311/1/5
f 316/1/5 313/1/5 311/1/5
f 316/1/5 314/1/5 313/1/5
f 317/1/5 314/1/5 316/1/5
f 320/1/5 316/1/5 315/1/5
f 320/1/5 318/1/5 317/1/5
f 320/1/5 317/1/5 316/1/5
f 321/1/5 318/1/5 320/1/5
f 323/1/5 320/1/5 319/1/5
f 323/1/5 322/1/5 321/1/5
f 323/1/5 321/1/5 320/1/5
f 326/1/5 323/1/5 319/1/5
f 326/1/5 324/1/5 323/1/5
f 327/1/5 324/1/5 326/1/5
f 329/1/5 326/1/5 325/1/5
f 329/1/5 328/1/5 327/1/5
f 329/1/5 327/1/5 326/1/5
f 332/1/5 329/1/5 325/1/5
f 332/1/5 330/1/5 329/1/5
f 333/1/5 330/1/5 332/1/5
f 336/1/5 332/1/5 331/1/5
f 336/1/5 334/1/5 333/1/5
f 336/1/5 333/1/5 332/1/5
f 338/1/5 336/1/5 335/1/5
f 340/1/5 338/1/5 337/1/5
f 342/1/5 340/1/5 339/1/5
f 344/1/5 342/1/5 341/1/5
f 346/1/5 344/1/5 343/1/5
f 348/1/5 346/1/5 345/1/5
f 350/1/5 348/1/5 347/1/5
f 352/1/5 350/1/5 349/1/5
f 354/1/5 352/1/5 351/1/5
f 356/1/5 354/1/5 353/1/5
f 358/1/5 356/1/5 355/1/5
f 359/1/5 358/1/5 357/1/5
f 360/1/5 334/1/5 336/1/5
f 360/1/5 358/1/5 359/1/5
f 360/1/5 336/1/5 338/1/5
f 360/1/5 356/1/5 358/1/5
f 360/1/5 338/1/5 340/1/5
f 360/1/5 354/1/5 356/1/5
f 360/1/5 340/1/5 342/1/5
f 360/1/5 352/1/5 354/1/5
f 360/1/5 342/1/5 344/1/5
f 360/1/5 350/1/5 352/1/5
f 360/1/5 344/1/5 346/1/5
f 360/1/5 348/1/5 350/1/5
f 360/1/5 346/1/5 348/1/5
f 361/1/6 362/1/6 363/1/6
f 363/1/6 364/1/6 365/1/6
f 361/1/6 363/1/6 368/1/6
f 365/1/6 366/1/6 368/1/6
f 363/1/6 365/1/6 368/1/6
f 368/1/6 366/1/6 369/1/6
f 367/1/6 368/1/6 369/1/6
f 367/1/6 369/1/6 372/1/6
f 369/1/6 370/1/6 372/1/6
f 372/1/6 370/1/6 373/1/6
f 371/1/6 372/1/6 376/1/6
f 373/1/6 374/1/6 376/1/6
f 372/1/6 373/1/6 376/1/6
f 376/1/6 374/1/6 377/1/6
f 375/1/6 376/1/6 377/1/6
f 375/1/6 377/1/6 380/1/6
f 377/1/6 378/1/6 380/1/6
f 380/1/6 378/1/6 381/1/6
f 379/1/6 380/1/6 381/1/6
f 379/1/6 381/1/6 384/1/6
f 381/1/6 382/1/6 384/1/6
f 384/1/6 382/1/6 385/1/6
f 383/1/6 384/1/6 385/1/6
f 383/1/6 385/1/6 388/1/6
f 385/1/6 386/1/6 388/1/6
f 388/1/6 386/1/6 389/1/6
f 387/1/6 388/1/6 392/1/6
f 389/1/6 390/1/6 392/1/6
f 388/1/6 389/1/6 392/1/6
f 392/1/6 390/1/6 393/1/6
f 391/1/6 392/1/6 395/1/6
f 393/1/6 394/1/6 395/1/6
f 392/1/6 393/1/6 395/1/6
f 391/1/6 395/1/6 398/1/6
f 395/1/6 396/1/6 398/1/6
f 398/1/6 396/1/6 399/1/6
f 397/1/6 398/1/6 401/1/6
f 399/1/6 400/1/6 401/1/6
f 398/1/6 399/1/6 401/1/6
f 397/1/6 401/1/6 404/1/6
f 401/1/6 402/1/6 404/1/6
f 404/1/6 402/1/6 405/1/6
f 403/1/6 404/1/6 408/1/6
f 405/1/6 406/1/6 408/1/6
f 404/1/6 405/1/6 408/1/6
f 407/1/6 408/1/6 410/1/6
f 409/1/6 410/1/6 412/1/6
f 411/1/6 412/1/6 414/1/6
f 413/1/6 414/1/6 416/1/6
f 415/1/6 416/1/6 418/1/6
f 417/1/6 418/1/6 420/1/6
f 419/1/6 420/1/6 422/1/6
f 421/1/6 422/1/6 424/1/6
f 423/1/6 424/1/6 426/1/6
f 425/1/6 426/1/6 428/1/6
f 427/1/6 428/1/6 430/1/6
f 429/1/6 430/1/6 431/1/6
f 408/1/6 406/1/6 432/1/6
f 431/1/6 430/1/6 432/1/6
f 410/1/6 408/1/6 432/1/6
f 430/1/6 428/1/6 432/1/6
f 412/1/6 410/1/6 432/1/6
f 428/1/6 426/1/6 432/1/6
f 414/1/6 412/1/6 432/1/6
f 426/1/6 424/1/6 432/1/6
f 416/1/6 414/1/6 432/1/6
f 424/1/6 422/1/6 432/1/6
f 418/1/6 416/1/6 432/1/6
f 422/1/6 420/1/6 432/1/6
f 420/1/6 418/1/6 432/1/6
