# MagicaVoxel @ Ephtracy

# group
g chest-1-1

# material
mtllib chest-1-1.mtl
usemtl palette

# normals
vn -1 0 0
vn 1 0 0
vn 0 0 1
vn 0 0 -1
vn 0 -1 0
vn 0 1 0

# texcoords
vt 0.970703 0.5
vt 0.982422 0.5

# verts
v -20 1 11.5
v -20 1 -13.5
v -20 2 11.5
v -20 2 -13.5
v -17 0 9.5
v -17 0 -10.5
v -17 1 9.5
v -17 1 -10.5
v -13 0 13.5
v -13 0 12.5
v -13 1 12.5
v -13 1 11.5
v -13 2 13.5
v -13 2 11.5
v 7 0 13.5
v 7 0 12.5
v 7 1 12.5
v 7 1 11.5
v 7 2 13.5
v 7 2 11.5
v -7 0 13.5
v -7 0 12.5
v -7 1 12.5
v -7 1 11.5
v -7 2 13.5
v -7 2 11.5
v 13 0 13.5
v 13 0 12.5
v 13 1 12.5
v 13 1 11.5
v 13 2 13.5
v 13 2 11.5
v 17 0 9.5
v 17 0 -10.5
v 17 1 9.5
v 17 1 -10.5
v 20 1 11.5
v 20 1 -13.5
v 20 2 11.5
v 20 2 -13.5
v -13 0 13.5
v -13 2 13.5
v -7 0 13.5
v -7 2 13.5
v 7 0 13.5
v 7 2 13.5
v 13 0 13.5
v 13 2 13.5
v -20 1 11.5
v -20 2 11.5
v -13 1 11.5
v -13 2 11.5
v -7 1 11.5
v -7 2 11.5
v 7 1 11.5
v 7 2 11.5
v 13 1 11.5
v 13 2 11.5
v 20 1 11.5
v 20 2 11.5
v -17 0 9.5
v -17 1 9.5
v 17 0 9.5
v 17 1 9.5
v -13 0 12.5
v -13 1 12.5
v -7 0 12.5
v -7 1 12.5
v 7 0 12.5
v 7 1 12.5
v 13 0 12.5
v 13 1 12.5
v -17 0 -10.5
v -17 1 -10.5
v 17 0 -10.5
v 17 1 -10.5
v -20 1 -13.5
v -20 2 -13.5
v 20 1 -13.5
v 20 2 -13.5
v -13 0 13.5
v -7 0 13.5
v 7 0 13.5
v 13 0 13.5
v -13 0 12.5
v -7 0 12.5
v 7 0 12.5
v 13 0 12.5
v -17 0 9.5
v 17 0 9.5
v -17 0 -10.5
v 17 0 -10.5
v -13 1 12.5
v -7 1 12.5
v 7 1 12.5
v 13 1 12.5
v -20 1 11.5
v -13 1 11.5
v -7 1 11.5
v 7 1 11.5
v 13 1 11.5
v 20 1 11.5
v -17 1 9.5
v 17 1 9.5
v -17 1 -10.5
v 17 1 -10.5
v -20 1 -13.5
v 20 1 -13.5
v -13 2 13.5
v -7 2 13.5
v 7 2 13.5
v 13 2 13.5
v -20 2 11.5
v -13 2 11.5
v -7 2 11.5
v 7 2 11.5
v 13 2 11.5
v 20 2 11.5
v -20 2 -13.5
v 20 2 -13.5

# faces
f 3/2/1 2/2/1 1/2/1
f 4/2/1 2/2/1 3/2/1
f 7/1/1 6/1/1 5/1/1
f 8/1/1 6/1/1 7/1/1
f 11/2/1 10/2/1 9/2/1
f 13/2/1 11/2/1 9/2/1
f 13/2/1 12/2/1 11/2/1
f 14/2/1 12/2/1 13/2/1
f 17/2/1 16/2/1 15/2/1
f 19/2/1 17/2/1 15/2/1
f 19/2/1 18/2/1 17/2/1
f 20/2/1 18/2/1 19/2/1
f 21/2/2 22/2/2 23/2/2
f 21/2/2 23/2/2 25/2/2
f 23/2/2 24/2/2 25/2/2
f 25/2/2 24/2/2 26/2/2
f 27/2/2 28/2/2 29/2/2
f 27/2/2 29/2/2 31/2/2
f 29/2/2 30/2/2 31/2/2
f 31/2/2 30/2/2 32/2/2
f 33/1/2 34/1/2 35/1/2
f 35/1/2 34/1/2 36/1/2
f 37/2/2 38/2/2 39/2/2
f 39/2/2 38/2/2 40/2/2
f 43/2/3 42/2/3 41/2/3
f 44/2/3 42/2/3 43/2/3
f 47/2/3 46/2/3 45/2/3
f 48/2/3 46/2/3 47/2/3
f 51/2/3 50/2/3 49/2/3
f 52/2/3 50/2/3 51/2/3
f 55/2/3 54/2/3 53/2/3
f 56/2/3 54/2/3 55/2/3
f 59/2/3 58/2/3 57/2/3
f 60/2/3 58/2/3 59/2/3
f 63/1/3 62/1/3 61/1/3
f 64/1/3 62/1/3 63/1/3
f 65/2/4 66/2/4 67/2/4
f 67/2/4 66/2/4 68/2/4
f 69/2/4 70/2/4 71/2/4
f 71/2/4 70/2/4 72/2/4
f 73/1/4 74/1/4 75/1/4
f 75/1/4 74/1/4 76/1/4
f 77/2/4 78/2/4 79/2/4
f 79/2/4 78/2/4 80/2/4
f 85/2/5 82/2/5 81/2/5
f 86/2/5 82/2/5 85/2/5
f 87/2/5 84/2/5 83/2/5
f 88/2/5 84/2/5 87/2/5
f 91/1/5 90/1/5 89/1/5
f 92/1/5 90/1/5 91/1/5
f 98/2/5 94/2/5 93/2/5
f 99/2/5 94/2/5 98/2/5
f 100/2/5 96/2/5 95/2/5
f 101/2/5 96/2/5 100/2/5
f 103/2/5 99/2/5 98/2/5
f 103/2/5 102/2/5 101/2/5
f 103/2/5 101/2/5 100/2/5
f 103/2/5 100/2/5 99/2/5
f 103/2/5 98/2/5 97/2/5
f 104/2/5 102/2/5 103/2/5
f 105/2/5 103/2/5 97/2/5
f 106/2/5 102/2/5 104/2/5
f 107/2/5 105/2/5 97/2/5
f 107/2/5 106/2/5 105/2/5
f 108/2/5 102/2/5 106/2/5
f 108/2/5 106/2/5 107/2/5
f 109/2/6 110/2/6 114/2/6
f 114/2/6 110/2/6 115/2/6
f 111/2/6 112/2/6 116/2/6
f 116/2/6 112/2/6 117/2/6
f 114/2/6 115/2/6 119/2/6
f 117/2/6 118/2/6 119/2/6
f 116/2/6 117/2/6 119/2/6
f 115/2/6 116/2/6 119/2/6
f 113/2/6 114/2/6 119/2/6
f 119/2/6 118/2/6 120/2/6
