# MagicaVoxel @ Ephtracy

# group
g crate 2-2

# material
mtllib crate 2-2.mtl
usemtl palette

# normals
vn -1 0 0
vn 1 0 0
vn 0 0 1
vn 0 0 -1
vn 0 -1 0
vn 0 1 0

# texcoords
vt 0.306641 0.5
vt 0.966797 0.5
vt 0.982422 0.5
vt 0.990234 0.5

# verts
v -40 1 18
v -40 1 -18
v -40 2 19
v -40 2 18
v -40 2 -18
v -40 2 -19
v -40 4 19
v -40 4 18
v -40 4 -18
v -40 4 -19
v -40 5 18
v -40 5 -18
v -39 0 19
v -39 0 -19
v -39 1 19
v -39 1 18
v -39 1 -18
v -39 1 -19
v -39 2 20
v -39 2 19
v -39 2 18
v -39 2 -18
v -39 2 -19
v -39 2 -20
v -39 4 20
v -39 4 19
v -39 4 18
v -39 4 -18
v -39 4 -19
v -39 4 -20
v -39 5 19
v -39 5 18
v -39 5 -18
v -39 5 -19
v -39 7 18
v -39 7 -18
v -38 1 20
v -38 1 19
v -38 1 -19
v -38 1 -20
v -38 2 20
v -38 2 19
v -38 2 -19
v -38 2 -20
v -38 4 20
v -38 4 19
v -38 4 -19
v -38 4 -20
v -38 5 20
v -38 5 19
v -38 5 18
v -38 5 -18
v -38 5 -19
v -38 5 -20
v -38 7 19
v -38 7 18
v -38 7 17
v -38 7 -17
v -38 7 -18
v -38 7 -19
v -38 8 17
v -38 8 -17
v -37 7 18
v -37 7 17
v -37 7 -17
v -37 7 -18
v -37 8 18
v -37 8 17
v -37 8 -17
v -37 8 -18
v -36 8 15
v -36 8 -15
v -36 9 15
v -36 9 -15
v -35 8 16
v -35 8 15
v -35 8 -15
v -35 8 -16
v -35 9 16
v -35 9 15
v -35 9 -15
v -35 9 -16
v -19 8 14
v -19 8 1
v -19 8 -1
v -19 8 -14
v -19 9 14
v -19 9 1
v -19 9 -1
v -19 9 -14
v -4 2 -20
v -4 2 -21
v -4 4 -20
v -4 4 -21
v -3 1 -20
v -3 1 -21
v -3 2 -20
v -3 2 -21
v -1 8 14
v -1 8 1
v -1 8 -1
v -1 8 -14
v -1 9 14
v -1 9 1
v -1 9 -1
v -1 9 -14
v 3 2 -20
v 3 2 -21
v 3 4 -20
v 3 4 -21
v 17 8 14
v 17 8 1
v 17 8 -1
v 17 8 -14
v 17 9 14
v 17 9 1
v 17 9 -1
v 17 9 -14
v 34 8 14
v 34 8 1
v 34 8 -1
v 34 8 -14
v 34 9 14
v 34 9 1
v 34 9 -1
v 34 9 -14
v 37 5 18
v 37 5 17
v 37 5 -17
v 37 5 -18
v 37 6 18
v 37 6 17
v 37 6 -17
v 37 6 -18
v 38 0 18
v 38 0 -18
v 38 1 18
v 38 1 -18
v 38 5 18
v 38 5 17
v 38 5 -17
v 38 5 -18
v 38 6 17
v 38 6 -17
v -38 0 18
v -38 0 -18
v -38 1 18
v -38 1 -18
v -38 5 18
v -38 5 17
v -38 5 -17
v -38 5 -18
v -38 6 17
v -38 6 -17
v -37 5 18
v -37 5 17
v -37 5 -17
v -37 5 -18
v -37 6 18
v -37 6 17
v -37 6 -17
v -37 6 -18
v -34 8 14
v -34 8 1
v -34 8 -1
v -34 8 -14
v -34 9 14
v -34 9 1
v -34 9 -1
v -34 9 -14
v -17 8 14
v -17 8 1
v -17 8 -1
v -17 8 -14
v -17 9 14
v -17 9 1
v -17 9 -1
v -17 9 -14
v -3 2 -20
v -3 2 -21
v -3 4 -20
v -3 4 -21
v 1 8 14
v 1 8 1
v 1 8 -1
v 1 8 -14
v 1 9 14
v 1 9 1
v 1 9 -1
v 1 9 -14
v 3 1 -20
v 3 1 -21
v 3 2 -20
v 3 2 -21
v 4 2 -20
v 4 2 -21
v 4 4 -20
v 4 4 -21
v 19 8 14
v 19 8 1
v 19 8 -1
v 19 8 -14
v 19 9 14
v 19 9 1
v 19 9 -1
v 19 9 -14
v 35 8 16
v 35 8 15
v 35 8 -15
v 35 8 -16
v 35 9 16
v 35 9 15
v 35 9 -15
v 35 9 -16
v 36 8 15
v 36 8 -15
v 36 9 15
v 36 9 -15
v 37 7 18
v 37 7 17
v 37 7 -17
v 37 7 -18
v 37 8 18
v 37 8 17
v 37 8 -17
v 37 8 -18
v 38 1 20
v 38 1 19
v 38 1 -19
v 38 1 -20
v 38 2 20
v 38 2 19
v 38 2 -19
v 38 2 -20
v 38 4 20
v 38 4 19
v 38 4 -19
v 38 4 -20
v 38 5 20
v 38 5 19
v 38 5 18
v 38 5 -18
v 38 5 -19
v 38 5 -20
v 38 7 19
v 38 7 18
v 38 7 17
v 38 7 -17
v 38 7 -18
v 38 7 -19
v 38 8 17
v 38 8 -17
v 39 0 19
v 39 0 -19
v 39 1 19
v 39 1 18
v 39 1 -18
v 39 1 -19
v 39 2 20
v 39 2 19
v 39 2 18
v 39 2 -18
v 39 2 -19
v 39 2 -20
v 39 4 20
v 39 4 19
v 39 4 18
v 39 4 -18
v 39 4 -19
v 39 4 -20
v 39 5 19
v 39 5 18
v 39 5 -18
v 39 5 -19
v 39 7 18
v 39 7 -18
v 40 1 18
v 40 1 -18
v 40 2 19
v 40 2 18
v 40 2 -18
v 40 2 -19
v 40 4 19
v 40 4 18
v 40 4 -18
v 40 4 -19
v 40 5 18
v 40 5 -18
v -39 2 20
v -39 4 20
v -38 1 20
v -38 2 20
v -38 4 20
v -38 5 20
v 38 1 20
v 38 2 20
v 38 4 20
v 38 5 20
v 39 2 20
v 39 4 20
v -40 2 19
v -40 4 19
v -39 0 19
v -39 1 19
v -39 2 19
v -39 4 19
v -39 5 19
v -38 1 19
v -38 2 19
v -38 4 19
v -38 5 19
v -38 7 19
v 38 1 19
v 38 2 19
v 38 4 19
v 38 5 19
v 38 7 19
v 39 0 19
v 39 1 19
v 39 2 19
v 39 4 19
v 39 5 19
v 40 2 19
v 40 4 19
v -40 1 18
v -40 2 18
v -40 4 18
v -40 5 18
v -39 1 18
v -39 2 18
v -39 4 18
v -39 5 18
v -39 7 18
v -38 5 18
v -38 7 18
v -37 7 18
v -37 8 18
v 37 7 18
v 37 8 18
v 38 5 18
v 38 7 18
v 39 1 18
v 39 2 18
v 39 4 18
v 39 5 18
v 39 7 18
v 40 1 18
v 40 2 18
v 40 4 18
v 40 5 18
v -38 7 17
v -38 8 17
v -37 7 17
v -37 8 17
v 37 7 17
v 37 8 17
v 38 7 17
v 38 8 17
v -35 8 16
v -35 9 16
v 35 8 16
v 35 9 16
v -36 8 15
v -36 9 15
v -35 8 15
v -35 9 15
v 35 8 15
v 35 9 15
v 36 8 15
v 36 9 15
v -34 8 1
v -34 9 1
v -19 8 1
v -19 9 1
v -17 8 1
v -17 9 1
v -1 8 1
v -1 9 1
v 1 8 1
v 1 9 1
v 17 8 1
v 17 9 1
v 19 8 1
v 19 9 1
v 34 8 1
v 34 9 1
v -34 8 -14
v -34 9 -14
v -19 8 -14
v -19 9 -14
v -17 8 -14
v -17 9 -14
v -1 8 -14
v -1 9 -14
v 1 8 -14
v 1 9 -14
v 17 8 -14
v 17 9 -14
v 19 8 -14
v 19 9 -14
v 34 8 -14
v 34 9 -14
v -38 5 -17
v -38 6 -17
v -37 5 -17
v -37 6 -17
v 37 5 -17
v 37 6 -17
v 38 5 -17
v 38 6 -17
v -38 0 -18
v -38 1 -18
v -38 5 -18
v -37 5 -18
v -37 6 -18
v 37 5 -18
v 37 6 -18
v 38 0 -18
v 38 1 -18
v 38 5 -18
v -38 0 18
v -38 1 18
v -38 5 18
v -37 5 18
v -37 6 18
v 37 5 18
v 37 6 18
v 38 0 18
v 38 1 18
v 38 5 18
v -38 5 17
v -38 6 17
v -37 5 17
v -37 6 17
v 37 5 17
v 37 6 17
v 38 5 17
v 38 6 17
v -34 8 14
v -34 9 14
v -19 8 14
v -19 9 14
v -17 8 14
v -17 9 14
v -1 8 14
v -1 9 14
v 1 8 14
v 1 9 14
v 17 8 14
v 17 9 14
v 19 8 14
v 19 9 14
v 34 8 14
v 34 9 14
v -34 8 -1
v -34 9 -1
v -19 8 -1
v -19 9 -1
v -17 8 -1
v -17 9 -1
v -1 8 -1
v -1 9 -1
v 1 8 -1
v 1 9 -1
v 17 8 -1
v 17 9 -1
v 19 8 -1
v 19 9 -1
v 34 8 -1
v 34 9 -1
v -36 8 -15
v -36 9 -15
v -35 8 -15
v -35 9 -15
v 35 8 -15
v 35 9 -15
v 36 8 -15
v 36 9 -15
v -35 8 -16
v -35 9 -16
v 35 8 -16
v 35 9 -16
v -38 7 -17
v -38 8 -17
v -37 7 -17
v -37 8 -17
v 37 7 -17
v 37 8 -17
v 38 7 -17
v 38 8 -17
v -40 1 -18
v -40 2 -18
v -40 4 -18
v -40 5 -18
v -39 1 -18
v -39 2 -18
v -39 4 -18
v -39 5 -18
v -39 7 -18
v -38 5 -18
v -38 7 -18
v -37 7 -18
v -37 8 -18
v 37 7 -18
v 37 8 -18
v 38 5 -18
v 38 7 -18
v 39 1 -18
v 39 2 -18
v 39 4 -18
v 39 5 -18
v 39 7 -18
v 40 1 -18
v 40 2 -18
v 40 4 -18
v 40 5 -18
v -40 2 -19
v -40 4 -19
v -39 0 -19
v -39 1 -19
v -39 2 -19
v -39 4 -19
v -39 5 -19
v -38 1 -19
v -38 2 -19
v -38 4 -19
v -38 5 -19
v -38 7 -19
v 38 1 -19
v 38 2 -19
v 38 4 -19
v 38 5 -19
v 38 7 -19
v 39 0 -19
v 39 1 -19
v 39 2 -19
v 39 4 -19
v 39 5 -19
v 40 2 -19
v 40 4 -19
v -39 2 -20
v -39 4 -20
v -38 1 -20
v -38 2 -20
v -38 4 -20
v -38 5 -20
v -4 2 -20
v -4 4 -20
v -3 1 -20
v -3 2 -20
v -3 4 -20
v 3 1 -20
v 3 2 -20
v 3 4 -20
v 4 2 -20
v 4 4 -20
v 38 1 -20
v 38 2 -20
v 38 4 -20
v 38 5 -20
v 39 2 -20
v 39 4 -20
v -4 2 -21
v -4 4 -21
v -3 1 -21
v -3 2 -21
v -3 4 -21
v 3 1 -21
v 3 2 -21
v 3 4 -21
v 4 2 -21
v 4 4 -21
v -39 0 19
v 39 0 19
v -38 0 18
v 38 0 18
v -38 0 -18
v 38 0 -18
v -39 0 -19
v 39 0 -19
v -38 1 20
v 38 1 20
v -38 1 19
v 38 1 19
v -40 1 18
v -39 1 18
v 39 1 18
v 40 1 18
v -40 1 -18
v -39 1 -18
v 39 1 -18
v 40 1 -18
v -38 1 -19
v 38 1 -19
v -38 1 -20
v -3 1 -20
v 3 1 -20
v 38 1 -20
v -3 1 -21
v 3 1 -21
v -39 2 20
v -38 2 20
v 38 2 20
v 39 2 20
v -40 2 19
v -39 2 19
v -38 2 19
v 38 2 19
v 39 2 19
v 40 2 19
v -40 2 18
v -39 2 18
v 39 2 18
v 40 2 18
v -40 2 -18
v -39 2 -18
v 39 2 -18
v 40 2 -18
v -40 2 -19
v -39 2 -19
v -38 2 -19
v 38 2 -19
v 39 2 -19
v 40 2 -19
v -39 2 -20
v -38 2 -20
v -4 2 -20
v -3 2 -20
v 3 2 -20
v 4 2 -20
v 38 2 -20
v 39 2 -20
v -4 2 -21
v -3 2 -21
v 3 2 -21
v 4 2 -21
v -38 5 18
v -37 5 18
v 37 5 18
v 38 5 18
v -38 5 17
v -37 5 17
v 37 5 17
v 38 5 17
v -38 5 -17
v -37 5 -17
v 37 5 -17
v 38 5 -17
v -38 5 -18
v -37 5 -18
v 37 5 -18
v 38 5 -18
v -37 6 18
v 37 6 18
v -38 6 17
v -37 6 17
v 37 6 17
v 38 6 17
v -38 6 -17
v -37 6 -17
v 37 6 -17
v 38 6 -17
v -37 6 -18
v 37 6 -18
v -3 2 -20
v 3 2 -20
v -3 2 -21
v 3 2 -21
v -39 4 20
v -38 4 20
v 38 4 20
v 39 4 20
v -40 4 19
v -39 4 19
v -38 4 19
v 38 4 19
v 39 4 19
v 40 4 19
v -40 4 18
v -39 4 18
v 39 4 18
v 40 4 18
v -40 4 -18
v -39 4 -18
v 39 4 -18
v 40 4 -18
v -40 4 -19
v -39 4 -19
v -38 4 -19
v 38 4 -19
v 39 4 -19
v 40 4 -19
v -39 4 -20
v -38 4 -20
v -4 4 -20
v -3 4 -20
v 3 4 -20
v 4 4 -20
v 38 4 -20
v 39 4 -20
v -4 4 -21
v -3 4 -21
v 3 4 -21
v 4 4 -21
v -38 5 20
v 38 5 20
v -39 5 19
v -38 5 19
v 38 5 19
v 39 5 19
v -40 5 18
v -39 5 18
v -38 5 18
v 38 5 18
v 39 5 18
v 40 5 18
v -40 5 -18
v -39 5 -18
v -38 5 -18
v 38 5 -18
v 39 5 -18
v 40 5 -18
v -39 5 -19
v -38 5 -19
v 38 5 -19
v 39 5 -19
v -38 5 -20
v 38 5 -20
v -38 7 19
v 38 7 19
v -39 7 18
v -38 7 18
v -37 7 18
v 37 7 18
v 38 7 18
v 39 7 18
v -38 7 17
v -37 7 17
v 37 7 17
v 38 7 17
v -38 7 -17
v -37 7 -17
v 37 7 -17
v 38 7 -17
v -39 7 -18
v -38 7 -18
v -37 7 -18
v 37 7 -18
v 38 7 -18
v 39 7 -18
v -38 7 -19
v 38 7 -19
v -37 8 18
v 37 8 18
v -38 8 17
v -37 8 17
v 37 8 17
v 38 8 17
v -35 8 16
v 35 8 16
v -36 8 15
v -35 8 15
v 35 8 15
v 36 8 15
v -34 8 14
v -19 8 14
v -17 8 14
v -1 8 14
v 1 8 14
v 17 8 14
v 19 8 14
v 34 8 14
v -34 8 1
v -19 8 1
v -17 8 1
v -1 8 1
v 1 8 1
v 17 8 1
v 19 8 1
v 34 8 1
v -34 8 -1
v -19 8 -1
v -17 8 -1
v -1 8 -1
v 1 8 -1
v 17 8 -1
v 19 8 -1
v 34 8 -1
v -34 8 -14
v -19 8 -14
v -17 8 -14
v -1 8 -14
v 1 8 -14
v 17 8 -14
v 19 8 -14
v 34 8 -14
v -36 8 -15
v -35 8 -15
v 35 8 -15
v 36 8 -15
v -35 8 -16
v 35 8 -16
v -38 8 -17
v -37 8 -17
v 37 8 -17
v 38 8 -17
v -37 8 -18
v 37 8 -18
v -35 9 16
v 35 9 16
v -36 9 15
v -35 9 15
v 35 9 15
v 36 9 15
v -34 9 14
v -19 9 14
v -17 9 14
v -1 9 14
v 1 9 14
v 17 9 14
v 19 9 14
v 34 9 14
v -34 9 1
v -19 9 1
v -17 9 1
v -1 9 1
v 1 9 1
v 17 9 1
v 19 9 1
v 34 9 1
v -34 9 -1
v -19 9 -1
v -17 9 -1
v -1 9 -1
v 1 9 -1
v 17 9 -1
v 19 9 -1
v 34 9 -1
v -34 9 -14
v -19 9 -14
v -17 9 -14
v -1 9 -14
v 1 9 -14
v 17 9 -14
v 19 9 -14
v 34 9 -14
v -36 9 -15
v -35 9 -15
v 35 9 -15
v 36 9 -15
v -35 9 -16
v 35 9 -16

# faces
f 4/3/1 2/3/1 1/3/1
f 5/3/1 2/3/1 4/3/1
f 7/3/1 4/3/1 3/3/1
f 7/3/1 6/3/1 5/3/1
f 7/3/1 5/3/1 4/3/1
f 8/3/1 6/3/1 7/3/1
f 9/3/1 6/3/1 8/3/1
f 10/3/1 6/3/1 9/3/1
f 11/3/1 9/3/1 8/3/1
f 12/3/1 9/3/1 11/3/1
f 15/4/1 14/4/1 13/4/1
f 16/4/1 14/4/1 15/4/1
f 17/4/1 14/4/1 16/4/1
f 18/4/1 14/4/1 17/4/1
f 20/3/1 16/3/1 15/3/1
f 21/3/1 16/3/1 20/3/1
f 22/3/1 18/3/1 17/3/1
f 23/3/1 18/3/1 22/3/1
f 25/3/1 20/3/1 19/3/1
f 26/3/1 20/3/1 25/3/1
f 29/3/1 24/3/1 23/3/1
f 30/3/1 24/3/1 29/3/1
f 31/3/1 27/3/1 26/3/1
f 32/3/1 27/3/1 31/3/1
f 33/3/1 29/3/1 28/3/1
f 34/3/1 29/3/1 33/3/1
f 35/3/1 33/3/1 32/3/1
f 36/3/1 33/3/1 35/3/1
f 41/3/1 38/3/1 37/3/1
f 42/3/1 38/3/1 41/3/1
f 43/3/1 40/3/1 39/3/1
f 44/3/1 40/3/1 43/3/1
f 49/3/1 46/3/1 45/3/1
f 50/3/1 46/3/1 49/3/1
f 53/3/1 48/3/1 47/3/1
f 54/3/1 48/3/1 53/3/1
f 55/3/1 51/3/1 50/3/1
f 56/3/1 51/3/1 55/3/1
f 59/3/1 53/3/1 52/3/1
f 60/3/1 53/3/1 59/3/1
f 61/3/1 58/3/1 57/3/1
f 62/3/1 58/3/1 61/3/1
f 67/3/1 64/3/1 63/3/1
f 68/3/1 64/3/1 67/3/1
f 69/3/1 66/3/1 65/3/1
f 70/3/1 66/3/1 69/3/1
f 73/3/1 72/3/1 71/3/1
f 74/3/1 72/3/1 73/3/1
f 79/3/1 76/3/1 75/3/1
f 80/3/1 76/3/1 79/3/1
f 81/3/1 78/3/1 77/3/1
f 82/3/1 78/3/1 81/3/1
f 87/3/1 84/3/1 83/3/1
f 88/3/1 84/3/1 87/3/1
f 89/3/1 86/3/1 85/3/1
f 90/3/1 86/3/1 89/3/1
f 93/2/1 92/2/1 91/2/1
f 94/2/1 92/2/1 93/2/1
f 97/2/1 96/2/1 95/2/1
f 98/2/1 96/2/1 97/2/1
f 103/3/1 100/3/1 99/3/1
f 104/3/1 100/3/1 103/3/1
f 105/3/1 102/3/1 101/3/1
f 106/3/1 102/3/1 105/3/1
f 109/2/1 108/2/1 107/2/1
f 110/2/1 108/2/1 109/2/1
f 115/3/1 112/3/1 111/3/1
f 116/3/1 112/3/1 115/3/1
f 117/3/1 114/3/1 113/3/1
f 118/3/1 114/3/1 117/3/1
f 123/3/1 120/3/1 119/3/1
f 124/3/1 120/3/1 123/3/1
f 125/3/1 122/3/1 121/3/1
f 126/3/1 122/3/1 125/3/1
f 131/3/1 128/3/1 127/3/1
f 132/3/1 128/3/1 131/3/1
f 133/3/1 130/3/1 129/3/1
f 134/3/1 130/3/1 133/3/1
f 137/4/1 136/4/1 135/4/1
f 138/4/1 136/4/1 137/4/1
f 139/3/1 138/3/1 137/3/1
f 140/3/1 138/3/1 139/3/1
f 141/3/1 138/3/1 140/3/1
f 142/3/1 138/3/1 141/3/1
f 143/3/1 141/3/1 140/3/1
f 144/3/1 141/3/1 143/3/1
f 145/4/2 146/4/2 147/4/2
f 147/4/2 146/4/2 148/4/2
f 147/3/2 148/3/2 149/3/2
f 149/3/2 148/3/2 150/3/2
f 150/3/2 148/3/2 151/3/2
f 151/3/2 148/3/2 152/3/2
f 150/3/2 151/3/2 153/3/2
f 153/3/2 151/3/2 154/3/2
f 155/3/2 156/3/2 159/3/2
f 159/3/2 156/3/2 160/3/2
f 157/3/2 158/3/2 161/3/2
f 161/3/2 158/3/2 162/3/2
f 163/3/2 164/3/2 167/3/2
f 167/3/2 164/3/2 168/3/2
f 165/3/2 166/3/2 169/3/2
f 169/3/2 166/3/2 170/3/2
f 171/3/2 172/3/2 175/3/2
f 175/3/2 172/3/2 176/3/2
f 173/3/2 174/3/2 177/3/2
f 177/3/2 174/3/2 178/3/2
f 179/2/2 180/2/2 181/2/2
f 181/2/2 180/2/2 182/2/2
f 183/3/2 184/3/2 187/3/2
f 187/3/2 184/3/2 188/3/2
f 185/3/2 186/3/2 189/3/2
f 189/3/2 186/3/2 190/3/2
f 191/2/2 192/2/2 193/2/2
f 193/2/2 192/2/2 194/2/2
f 195/2/2 196/2/2 197/2/2
f 197/2/2 196/2/2 198/2/2
f 199/3/2 200/3/2 203/3/2
f 203/3/2 200/3/2 204/3/2
f 201/3/2 202/3/2 205/3/2
f 205/3/2 202/3/2 206/3/2
f 207/3/2 208/3/2 211/3/2
f 211/3/2 208/3/2 212/3/2
f 209/3/2 210/3/2 213/3/2
f 213/3/2 210/3/2 214/3/2
f 215/3/2 216/3/2 217/3/2
f 217/3/2 216/3/2 218/3/2
f 219/3/2 220/3/2 223/3/2
f 223/3/2 220/3/2 224/3/2
f 221/3/2 222/3/2 225/3/2
f 225/3/2 222/3/2 226/3/2
f 227/3/2 228/3/2 231/3/2
f 231/3/2 228/3/2 232/3/2
f 229/3/2 230/3/2 233/3/2
f 233/3/2 230/3/2 234/3/2
f 235/3/2 236/3/2 239/3/2
f 239/3/2 236/3/2 240/3/2
f 237/3/2 238/3/2 243/3/2
f 243/3/2 238/3/2 244/3/2
f 240/3/2 241/3/2 245/3/2
f 245/3/2 241/3/2 246/3/2
f 242/3/2 243/3/2 249/3/2
f 249/3/2 243/3/2 250/3/2
f 247/3/2 248/3/2 251/3/2
f 251/3/2 248/3/2 252/3/2
f 253/4/2 254/4/2 255/4/2
f 255/4/2 254/4/2 256/4/2
f 256/4/2 254/4/2 257/4/2
f 257/4/2 254/4/2 258/4/2
f 255/3/2 256/3/2 260/3/2
f 260/3/2 256/3/2 261/3/2
f 257/3/2 258/3/2 262/3/2
f 262/3/2 258/3/2 263/3/2
f 259/3/2 260/3/2 265/3/2
f 265/3/2 260/3/2 266/3/2
f 263/3/2 264/3/2 269/3/2
f 269/3/2 264/3/2 270/3/2
f 266/3/2 267/3/2 271/3/2
f 271/3/2 267/3/2 272/3/2
f 268/3/2 269/3/2 273/3/2
f 273/3/2 269/3/2 274/3/2
f 272/3/2 273/3/2 275/3/2
f 275/3/2 273/3/2 276/3/2
f 277/3/2 278/3/2 280/3/2
f 280/3/2 278/3/2 281/3/2
f 279/3/2 280/3/2 283/3/2
f 281/3/2 282/3/2 283/3/2
f 280/3/2 281/3/2 283/3/2
f 283/3/2 282/3/2 284/3/2
f 284/3/2 282/3/2 285/3/2
f 285/3/2 282/3/2 286/3/2
f 284/3/2 285/3/2 287/3/2
f 287/3/2 285/3/2 288/3/2
f 292/3/3 290/3/3 289/3/3
f 293/3/3 290/3/3 292/3/3
f 295/3/3 292/3/3 291/3/3
f 295/3/3 294/3/3 293/3/3
f 295/3/3 293/3/3 292/3/3
f 296/3/3 294/3/3 295/3/3
f 297/3/3 294/3/3 296/3/3
f 298/3/3 294/3/3 297/3/3
f 299/3/3 297/3/3 296/3/3
f 300/3/3 297/3/3 299/3/3
f 305/3/3 302/3/3 301/3/3
f 306/3/3 302/3/3 305/3/3
f 308/4/3 304/4/3 303/4/3
f 308/3/3 305/3/3 304/3/3
f 309/3/3 305/3/3 308/3/3
f 310/3/3 307/3/3 306/3/3
f 311/3/3 307/3/3 310/3/3
f 313/4/3 308/4/3 303/4/3
f 316/3/3 312/3/3 311/3/3
f 317/3/3 312/3/3 316/3/3
f 318/4/3 313/4/3 303/4/3
f 319/3/3 314/3/3 313/3/3
f 319/4/3 313/4/3 318/4/3
f 320/3/3 314/3/3 319/3/3
f 321/3/3 316/3/3 315/3/3
f 322/3/3 316/3/3 321/3/3
f 323/3/3 321/3/3 320/3/3
f 324/3/3 321/3/3 323/3/3
f 329/3/3 326/3/3 325/3/3
f 330/3/3 326/3/3 329/3/3
f 331/3/3 328/3/3 327/3/3
f 332/3/3 328/3/3 331/3/3
f 334/3/3 333/3/3 332/3/3
f 335/3/3 333/3/3 334/3/3
f 338/3/3 337/3/3 336/3/3
f 339/3/3 337/3/3 338/3/3
f 345/3/3 341/3/3 340/3/3
f 346/3/3 341/3/3 345/3/3
f 347/3/3 343/3/3 342/3/3
f 348/3/3 343/3/3 347/3/3
f 349/3/3 345/3/3 344/3/3
f 350/3/3 345/3/3 349/3/3
f 353/3/3 352/3/3 351/3/3
f 354/3/3 352/3/3 353/3/3
f 357/3/3 356/3/3 355/3/3
f 358/3/3 356/3/3 357/3/3
f 361/3/3 360/3/3 359/3/3
f 362/3/3 360/3/3 361/3/3
f 365/3/3 364/3/3 363/3/3
f 366/3/3 364/3/3 365/3/3
f 369/3/3 368/3/3 367/3/3
f 370/3/3 368/3/3 369/3/3
f 373/3/3 372/3/3 371/3/3
f 374/3/3 372/3/3 373/3/3
f 377/3/3 376/3/3 375/3/3
f 378/3/3 376/3/3 377/3/3
f 381/3/3 380/3/3 379/3/3
f 382/3/3 380/3/3 381/3/3
f 385/3/3 384/3/3 383/3/3
f 386/3/3 384/3/3 385/3/3
f 389/3/3 388/3/3 387/3/3
f 390/3/3 388/3/3 389/3/3
f 393/3/3 392/3/3 391/3/3
f 394/3/3 392/3/3 393/3/3
f 397/3/3 396/3/3 395/3/3
f 398/3/3 396/3/3 397/3/3
f 401/3/3 400/3/3 399/3/3
f 402/3/3 400/3/3 401/3/3
f 405/3/3 404/3/3 403/3/3
f 406/3/3 404/3/3 405/3/3
f 409/3/3 408/3/3 407/3/3
f 410/3/3 408/3/3 409/3/3
f 414/3/3 413/3/3 412/3/3
f 416/3/3 414/3/3 412/3/3
f 416/3/3 415/3/3 414/3/3
f 417/3/3 415/3/3 416/3/3
f 418/4/3 412/4/3 411/4/3
f 419/3/3 416/3/3 412/3/3
f 419/4/3 412/4/3 418/4/3
f 420/3/3 416/3/3 419/3/3
f 422/3/4 423/3/4 424/3/4
f 422/3/4 424/3/4 426/3/4
f 424/3/4 425/3/4 426/3/4
f 426/3/4 425/3/4 427/3/4
f 421/4/4 422/4/4 428/4/4
f 422/3/4 426/3/4 429/3/4
f 428/4/4 422/4/4 429/4/4
f 429/3/4 426/3/4 430/3/4
f 431/3/4 432/3/4 433/3/4
f 433/3/4 432/3/4 434/3/4
f 435/3/4 436/3/4 437/3/4
f 437/3/4 436/3/4 438/3/4
f 439/3/4 440/3/4 441/3/4
f 441/3/4 440/3/4 442/3/4
f 443/3/4 444/3/4 445/3/4
f 445/3/4 444/3/4 446/3/4
f 447/3/4 448/3/4 449/3/4
f 449/3/4 448/3/4 450/3/4
f 451/3/4 452/3/4 453/3/4
f 453/3/4 452/3/4 454/3/4
f 455/3/4 456/3/4 457/3/4
f 457/3/4 456/3/4 458/3/4
f 459/3/4 460/3/4 461/3/4
f 461/3/4 460/3/4 462/3/4
f 463/3/4 464/3/4 465/3/4
f 465/3/4 464/3/4 466/3/4
f 467/3/4 468/3/4 469/3/4
f 469/3/4 468/3/4 470/3/4
f 471/3/4 472/3/4 473/3/4
f 473/3/4 472/3/4 474/3/4
f 475/3/4 476/3/4 477/3/4
f 477/3/4 476/3/4 478/3/4
f 479/3/4 480/3/4 481/3/4
f 481/3/4 480/3/4 482/3/4
f 483/3/4 484/3/4 485/3/4
f 485/3/4 484/3/4 486/3/4
f 487/3/4 488/3/4 489/3/4
f 489/3/4 488/3/4 490/3/4
f 491/3/4 492/3/4 495/3/4
f 495/3/4 492/3/4 496/3/4
f 493/3/4 494/3/4 497/3/4
f 497/3/4 494/3/4 498/3/4
f 498/3/4 499/3/4 500/3/4
f 500/3/4 499/3/4 501/3/4
f 502/3/4 503/3/4 504/3/4
f 504/3/4 503/3/4 505/3/4
f 506/3/4 507/3/4 511/3/4
f 511/3/4 507/3/4 512/3/4
f 508/3/4 509/3/4 513/3/4
f 513/3/4 509/3/4 514/3/4
f 510/3/4 511/3/4 515/3/4
f 515/3/4 511/3/4 516/3/4
f 517/3/4 518/3/4 521/3/4
f 521/3/4 518/3/4 522/3/4
f 519/4/4 520/4/4 524/4/4
f 520/3/4 521/3/4 524/3/4
f 524/3/4 521/3/4 525/3/4
f 522/3/4 523/3/4 526/3/4
f 526/3/4 523/3/4 527/3/4
f 519/4/4 524/4/4 529/4/4
f 527/3/4 528/3/4 532/3/4
f 532/3/4 528/3/4 533/3/4
f 519/4/4 529/4/4 534/4/4
f 529/3/4 530/3/4 535/3/4
f 534/4/4 529/4/4 535/4/4
f 535/3/4 530/3/4 536/3/4
f 531/3/4 532/3/4 537/3/4
f 537/3/4 532/3/4 538/3/4
f 536/3/4 537/3/4 539/3/4
f 539/3/4 537/3/4 540/3/4
f 541/3/4 542/3/4 544/3/4
f 544/3/4 542/3/4 545/3/4
f 543/3/4 544/3/4 547/3/4
f 545/3/4 546/3/4 547/3/4
f 544/3/4 545/3/4 547/3/4
f 547/3/4 546/3/4 548/3/4
f 543/3/4 547/3/4 549/3/4
f 549/3/4 547/3/4 550/3/4
f 548/3/4 546/3/4 551/3/4
f 550/3/4 551/3/4 553/3/4
f 551/3/4 546/3/4 554/3/4
f 553/3/4 551/3/4 554/3/4
f 552/3/4 553/3/4 555/3/4
f 554/3/4 546/3/4 556/3/4
f 552/3/4 555/3/4 557/3/4
f 555/3/4 556/3/4 557/3/4
f 557/3/4 556/3/4 558/3/4
f 556/3/4 546/3/4 559/3/4
f 558/3/4 556/3/4 559/3/4
f 559/3/4 546/3/4 560/3/4
f 558/3/4 559/3/4 561/3/4
f 561/3/4 559/3/4 562/3/4
f 563/2/4 564/2/4 566/2/4
f 566/2/4 564/2/4 567/2/4
f 565/2/4 566/2/4 568/2/4
f 568/2/4 566/2/4 569/2/4
f 569/2/4 570/2/4 571/2/4
f 571/2/4 570/2/4 572/2/4
f 575/4/5 574/4/5 573/4/5
f 576/4/5 574/4/5 575/4/5
f 577/4/5 575/4/5 573/4/5
f 578/4/5 574/4/5 576/4/5
f 579/4/5 577/4/5 573/4/5
f 579/4/5 578/4/5 577/4/5
f 580/4/5 574/4/5 578/4/5
f 580/4/5 578/4/5 579/4/5
f 583/3/5 582/3/5 581/3/5
f 584/3/5 582/3/5 583/3/5
f 589/3/5 586/3/5 585/3/5
f 590/3/5 586/3/5 589/3/5
f 591/3/5 588/3/5 587/3/5
f 592/3/5 588/3/5 591/3/5
f 595/3/5 594/3/5 593/3/5
f 596/3/5 594/3/5 595/3/5
f 597/3/5 594/3/5 596/3/5
f 598/3/5 594/3/5 597/3/5
f 599/2/5 597/2/5 596/2/5
f 600/2/5 597/2/5 599/2/5
f 606/3/5 602/3/5 601/3/5
f 607/3/5 602/3/5 606/3/5
f 608/3/5 604/3/5 603/3/5
f 609/3/5 604/3/5 608/3/5
f 611/3/5 606/3/5 605/3/5
f 612/3/5 606/3/5 611/3/5
f 613/3/5 610/3/5 609/3/5
f 614/3/5 610/3/5 613/3/5
f 619/3/5 616/3/5 615/3/5
f 620/3/5 616/3/5 619/3/5
f 623/3/5 618/3/5 617/3/5
f 624/3/5 618/3/5 623/3/5
f 625/3/5 621/3/5 620/3/5
f 626/3/5 621/3/5 625/3/5
f 631/3/5 623/3/5 622/3/5
f 632/3/5 623/3/5 631/3/5
f 633/2/5 628/2/5 627/2/5
f 634/2/5 628/2/5 633/2/5
f 635/2/5 630/2/5 629/2/5
f 636/2/5 630/2/5 635/2/5
f 641/3/5 638/3/5 637/3/5
f 642/3/5 638/3/5 641/3/5
f 643/3/5 640/3/5 639/3/5
f 644/3/5 640/3/5 643/3/5
f 649/3/5 646/3/5 645/3/5
f 650/3/5 646/3/5 649/3/5
f 651/3/5 648/3/5 647/3/5
f 652/3/5 648/3/5 651/3/5
f 656/3/5 654/3/5 653/3/5
f 657/3/5 654/3/5 656/3/5
f 659/3/5 656/3/5 655/3/5
f 659/3/5 658/3/5 657/3/5
f 659/3/5 657/3/5 656/3/5
f 660/3/5 658/3/5 659/3/5
f 661/3/5 658/3/5 660/3/5
f 662/3/5 658/3/5 661/3/5
f 663/3/5 661/3/5 660/3/5
f 664/3/5 661/3/5 663/3/5
f 665/2/6 666/2/6 667/2/6
f 667/2/6 666/2/6 668/2/6
f 669/3/6 670/3/6 674/3/6
f 674/3/6 670/3/6 675/3/6
f 671/3/6 672/3/6 676/3/6
f 676/3/6 672/3/6 677/3/6
f 673/3/6 674/3/6 679/3/6
f 679/3/6 674/3/6 680/3/6
f 677/3/6 678/3/6 681/3/6
f 681/3/6 678/3/6 682/3/6
f 683/3/6 684/3/6 687/3/6
f 687/3/6 684/3/6 688/3/6
f 685/3/6 686/3/6 691/3/6
f 691/3/6 686/3/6 692/3/6
f 688/3/6 689/3/6 693/3/6
f 693/3/6 689/3/6 694/3/6
f 690/3/6 691/3/6 699/3/6
f 699/3/6 691/3/6 700/3/6
f 695/2/6 696/2/6 701/2/6
f 701/2/6 696/2/6 702/2/6
f 697/2/6 698/2/6 703/2/6
f 703/2/6 698/2/6 704/2/6
f 705/3/6 706/3/6 708/3/6
f 708/3/6 706/3/6 709/3/6
f 707/3/6 708/3/6 712/3/6
f 712/3/6 708/3/6 713/3/6
f 709/3/6 710/3/6 714/3/6
f 714/3/6 710/3/6 715/3/6
f 711/3/6 712/3/6 717/3/6
f 717/3/6 712/3/6 718/3/6
f 715/3/6 716/3/6 721/3/6
f 721/3/6 716/3/6 722/3/6
f 718/3/6 719/3/6 723/3/6
f 723/3/6 719/3/6 724/3/6
f 720/3/6 721/3/6 725/3/6
f 725/3/6 721/3/6 726/3/6
f 724/3/6 725/3/6 727/3/6
f 727/3/6 725/3/6 728/3/6
f 729/3/6 730/3/6 732/3/6
f 732/3/6 730/3/6 733/3/6
f 733/3/6 730/3/6 734/3/6
f 734/3/6 730/3/6 735/3/6
f 731/3/6 732/3/6 737/3/6
f 732/3/6 733/3/6 737/3/6
f 737/3/6 733/3/6 738/3/6
f 735/3/6 736/3/6 739/3/6
f 734/3/6 735/3/6 739/3/6
f 739/3/6 736/3/6 740/3/6
f 731/3/6 737/3/6 741/3/6
f 740/3/6 736/3/6 744/3/6
f 741/3/6 742/3/6 745/3/6
f 731/3/6 741/3/6 745/3/6
f 745/3/6 742/3/6 746/3/6
f 746/3/6 742/3/6 747/3/6
f 743/3/6 744/3/6 748/3/6
f 744/3/6 736/3/6 749/3/6
f 748/3/6 744/3/6 749/3/6
f 749/3/6 736/3/6 750/3/6
f 746/3/6 747/3/6 751/3/6
f 747/3/6 748/3/6 751/3/6
f 748/3/6 749/3/6 751/3/6
f 751/3/6 749/3/6 752/3/6
f 753/3/6 754/3/6 756/3/6
f 756/3/6 754/3/6 757/3/6
f 755/3/6 756/3/6 759/3/6
f 757/3/6 758/3/6 759/3/6
f 756/3/6 757/3/6 759/3/6
f 759/3/6 758/3/6 760/3/6
f 755/3/6 759/3/6 761/3/6
f 761/3/6 759/3/6 762/3/6
f 760/3/6 758/3/6 763/3/6
f 763/3/6 758/3/6 764/3/6
f 765/2/6 766/2/6 773/2/6
f 773/2/6 766/2/6 774/2/6
f 767/2/6 768/2/6 775/2/6
f 775/2/6 768/2/6 776/2/6
f 769/2/6 770/2/6 777/2/6
f 777/2/6 770/2/6 778/2/6
f 771/2/6 772/2/6 779/2/6
f 779/2/6 772/2/6 780/2/6
f 781/2/6 782/2/6 789/2/6
f 789/2/6 782/2/6 790/2/6
f 783/2/6 784/2/6 791/2/6
f 791/2/6 784/2/6 792/2/6
f 785/2/6 786/2/6 793/2/6
f 793/2/6 786/2/6 794/2/6
f 787/2/6 788/2/6 795/2/6
f 795/2/6 788/2/6 796/2/6
f 755/3/6 761/3/6 797/3/6
f 764/3/6 758/3/6 800/3/6
f 797/3/6 798/3/6 801/3/6
f 799/3/6 800/3/6 802/3/6
f 797/3/6 801/3/6 803/3/6
f 801/3/6 802/3/6 803/3/6
f 755/3/6 797/3/6 803/3/6
f 803/3/6 802/3/6 804/3/6
f 802/3/6 800/3/6 805/3/6
f 804/3/6 802/3/6 805/3/6
f 800/3/6 758/3/6 805/3/6
f 805/3/6 758/3/6 806/3/6
f 804/3/6 805/3/6 807/3/6
f 807/3/6 805/3/6 808/3/6
f 809/3/6 810/3/6 812/3/6
f 812/3/6 810/3/6 813/3/6
f 811/3/6 812/3/6 815/3/6
f 813/3/6 814/3/6 815/3/6
f 812/3/6 813/3/6 815/3/6
f 815/3/6 814/3/6 816/3/6
f 816/3/6 814/3/6 817/3/6
f 817/3/6 814/3/6 818/3/6
f 818/3/6 814/3/6 819/3/6
f 819/3/6 814/3/6 820/3/6
f 820/3/6 814/3/6 821/3/6
f 821/3/6 814/3/6 822/3/6
f 811/3/6 815/3/6 823/3/6
f 816/3/6 817/3/6 824/3/6
f 824/3/6 817/3/6 825/3/6
f 818/3/6 819/3/6 826/3/6
f 826/3/6 819/3/6 827/3/6
f 820/3/6 821/3/6 828/3/6
f 828/3/6 821/3/6 829/3/6
f 822/3/6 814/3/6 830/3/6
f 828/3/6 829/3/6 831/3/6
f 829/3/6 830/3/6 831/3/6
f 826/3/6 827/3/6 831/3/6
f 811/3/6 823/3/6 831/3/6
f 827/3/6 828/3/6 831/3/6
f 824/3/6 825/3/6 831/3/6
f 825/3/6 826/3/6 831/3/6
f 823/3/6 824/3/6 831/3/6
f 831/3/6 830/3/6 832/3/6
f 832/3/6 830/3/6 833/3/6
f 833/3/6 830/3/6 834/3/6
f 834/3/6 830/3/6 835/3/6
f 835/3/6 830/3/6 836/3/6
f 836/3/6 830/3/6 837/3/6
f 830/3/6 814/3/6 838/3/6
f 837/3/6 830/3/6 838/3/6
f 811/3/6 831/3/6 839/3/6
f 832/3/6 833/3/6 840/3/6
f 840/3/6 833/3/6 841/3/6
f 834/3/6 835/3/6 842/3/6
f 842/3/6 835/3/6 843/3/6
f 836/3/6 837/3/6 844/3/6
f 844/3/6 837/3/6 845/3/6
f 838/3/6 814/3/6 846/3/6
f 842/3/6 843/3/6 847/3/6
f 845/3/6 846/3/6 847/3/6
f 844/3/6 845/3/6 847/3/6
f 840/3/6 841/3/6 847/3/6
f 843/3/6 844/3/6 847/3/6
f 811/3/6 839/3/6 847/3/6
f 841/3/6 842/3/6 847/3/6
f 839/3/6 840/3/6 847/3/6
f 847/3/6 846/3/6 848/3/6
f 846/3/6 814/3/6 849/3/6
f 848/3/6 846/3/6 849/3/6
f 849/3/6 814/3/6 850/3/6
f 848/3/6 849/3/6 851/3/6
f 851/3/6 849/3/6 852/3/6
