# MagicaVoxel @ Ephtracy

# group
g platform-1-door-1

# material
mtllib platform-1-door-1.mtl
usemtl palette

# normals
vn -1 0 0
vn 1 0 0
vn 0 0 1
vn 0 0 -1
vn 0 -1 0
vn 0 1 0

# texcoords
vt 0.974609 0.5
vt 0.982422 0.5

# verts
v 0 1 1
v 0 1 -1
v 0 22 1
v 0 22 -1
v 1 1 2
v 1 1 1
v 1 1 -1
v 1 1 -2
v 1 21 -1
v 1 21 -2
v 1 22 2
v 1 22 1
v 2 21 -1
v 2 21 -2
v 2 22 -1
v 2 22 -2
v 8 2 2
v 8 2 1
v 8 2 -1
v 8 2 -2
v 8 6 2
v 8 6 1
v 8 6 -1
v 8 6 -2
v 8 13 2
v 8 13 1
v 8 13 -1
v 8 13 -2
v 8 18 2
v 8 18 1
v 8 18 -1
v 8 18 -2
v 13 2 2
v 13 2 1
v 13 2 -1
v 13 2 -2
v 13 6 2
v 13 6 1
v 13 6 -1
v 13 6 -2
v 13 13 2
v 13 13 1
v 13 13 -1
v 13 13 -2
v 13 18 2
v 13 18 1
v 13 18 -1
v 13 18 -2
v 15 17 2
v 15 17 1
v 15 17 -1
v 15 17 -2
v 15 18 2
v 15 18 1
v 15 18 -1
v 15 18 -2
v 17 2 2
v 17 2 1
v 17 2 -1
v 17 2 -2
v 17 3 2
v 17 3 1
v 17 3 -1
v 17 3 -2
v 17 16 2
v 17 16 1
v 17 16 -1
v 17 16 -2
v 17 17 2
v 17 17 1
v 17 17 -1
v 17 17 -2
v 18 3 2
v 18 3 1
v 18 3 -1
v 18 3 -2
v 18 5 2
v 18 5 1
v 18 5 -1
v 18 5 -2
v 18 14 2
v 18 14 1
v 18 14 -1
v 18 14 -2
v 18 16 2
v 18 16 1
v 18 16 -1
v 18 16 -2
v 19 5 2
v 19 5 1
v 19 5 -1
v 19 5 -2
v 19 6 2
v 19 6 1
v 19 6 -1
v 19 6 -2
v 19 7 2
v 19 7 1
v 19 7 -1
v 19 7 -2
v 19 9 2
v 19 9 1
v 19 9 -1
v 19 9 -2
v 19 10 2
v 19 10 1
v 19 10 -1
v 19 10 -2
v 19 12 2
v 19 12 1
v 19 12 -1
v 19 12 -2
v 19 13 2
v 19 13 1
v 19 13 -1
v 19 13 -2
v 19 14 2
v 19 14 1
v 19 14 -1
v 19 14 -2
v 4 4 2
v 4 4 1
v 4 4 -1
v 4 4 -2
v 4 6 2
v 4 6 1
v 4 6 -1
v 4 6 -2
v 4 7 2
v 4 7 1
v 4 7 -1
v 4 7 -2
v 4 9 2
v 4 9 1
v 4 9 -1
v 4 9 -2
v 4 10 2
v 4 10 1
v 4 10 -1
v 4 10 -2
v 4 12 2
v 4 12 1
v 4 12 -1
v 4 12 -2
v 4 13 2
v 4 13 1
v 4 13 -1
v 4 13 -2
v 4 18 2
v 4 18 1
v 4 18 -1
v 4 18 -2
v 5 3 2
v 5 3 1
v 5 3 -1
v 5 3 -2
v 5 4 2
v 5 4 1
v 5 4 -1
v 5 4 -2
v 6 2 2
v 6 2 1
v 6 2 -1
v 6 2 -2
v 6 3 2
v 6 3 1
v 6 3 -1
v 6 3 -2
v 6 21 2
v 6 21 -2
v 6 22 2
v 6 22 -2
v 9 2 2
v 9 2 1
v 9 2 -1
v 9 2 -2
v 9 6 2
v 9 6 1
v 9 6 -1
v 9 6 -2
v 9 13 2
v 9 13 1
v 9 13 -1
v 9 13 -2
v 9 18 2
v 9 18 1
v 9 18 -1
v 9 18 -2
v 14 2 2
v 14 2 1
v 14 2 -1
v 14 2 -2
v 14 6 2
v 14 6 1
v 14 6 -1
v 14 6 -2
v 14 13 2
v 14 13 1
v 14 13 -1
v 14 13 -2
v 14 18 2
v 14 18 1
v 14 18 -1
v 14 18 -2
v 14 20 2
v 14 20 -2
v 14 21 2
v 14 21 -2
v 22 1 2
v 22 1 -2
v 22 20 2
v 22 20 -2
v 1 1 2
v 1 22 2
v 2 1 2
v 2 22 2
v 4 4 2
v 4 6 2
v 4 7 2
v 4 9 2
v 4 10 2
v 4 12 2
v 4 13 2
v 4 18 2
v 5 3 2
v 5 4 2
v 6 2 2
v 6 3 2
v 6 21 2
v 6 22 2
v 8 2 2
v 8 6 2
v 8 13 2
v 8 18 2
v 9 2 2
v 9 6 2
v 9 13 2
v 9 18 2
v 13 2 2
v 13 6 2
v 13 13 2
v 13 18 2
v 14 2 2
v 14 6 2
v 14 13 2
v 14 18 2
v 14 20 2
v 14 21 2
v 15 17 2
v 15 18 2
v 17 2 2
v 17 3 2
v 17 16 2
v 17 17 2
v 18 3 2
v 18 5 2
v 18 14 2
v 18 16 2
v 19 5 2
v 19 6 2
v 19 7 2
v 19 9 2
v 19 10 2
v 19 12 2
v 19 13 2
v 19 14 2
v 22 1 2
v 22 20 2
v 0 1 1
v 0 22 1
v 1 1 1
v 1 22 1
v 4 4 1
v 4 6 1
v 4 7 1
v 4 9 1
v 4 10 1
v 4 12 1
v 4 13 1
v 4 18 1
v 5 3 1
v 5 4 1
v 6 2 1
v 6 3 1
v 8 2 1
v 8 6 1
v 8 13 1
v 8 18 1
v 9 2 1
v 9 6 1
v 9 13 1
v 9 18 1
v 13 2 1
v 13 6 1
v 13 13 1
v 13 18 1
v 14 2 1
v 14 6 1
v 14 13 1
v 14 18 1
v 15 17 1
v 15 18 1
v 17 2 1
v 17 3 1
v 17 16 1
v 17 17 1
v 18 3 1
v 18 5 1
v 18 14 1
v 18 16 1
v 19 5 1
v 19 6 1
v 19 7 1
v 19 9 1
v 19 10 1
v 19 12 1
v 19 13 1
v 19 14 1
v 0 1 -1
v 0 22 -1
v 1 1 -1
v 1 21 -1
v 2 21 -1
v 2 22 -1
v 4 4 -1
v 4 6 -1
v 4 7 -1
v 4 9 -1
v 4 10 -1
v 4 12 -1
v 4 13 -1
v 4 18 -1
v 5 3 -1
v 5 4 -1
v 6 2 -1
v 6 3 -1
v 8 2 -1
v 8 6 -1
v 8 13 -1
v 8 18 -1
v 9 2 -1
v 9 6 -1
v 9 13 -1
v 9 18 -1
v 13 2 -1
v 13 6 -1
v 13 13 -1
v 13 18 -1
v 14 2 -1
v 14 6 -1
v 14 13 -1
v 14 18 -1
v 15 17 -1
v 15 18 -1
v 17 2 -1
v 17 3 -1
v 17 16 -1
v 17 17 -1
v 18 3 -1
v 18 5 -1
v 18 14 -1
v 18 16 -1
v 19 5 -1
v 19 6 -1
v 19 7 -1
v 19 9 -1
v 19 10 -1
v 19 12 -1
v 19 13 -1
v 19 14 -1
v 1 1 -2
v 1 21 -2
v 2 1 -2
v 2 21 -2
v 2 22 -2
v 4 4 -2
v 4 6 -2
v 4 7 -2
v 4 9 -2
v 4 10 -2
v 4 12 -2
v 4 13 -2
v 4 18 -2
v 5 3 -2
v 5 4 -2
v 6 2 -2
v 6 3 -2
v 6 21 -2
v 6 22 -2
v 8 2 -2
v 8 6 -2
v 8 13 -2
v 8 18 -2
v 9 2 -2
v 9 6 -2
v 9 13 -2
v 9 18 -2
v 13 2 -2
v 13 6 -2
v 13 13 -2
v 13 18 -2
v 14 2 -2
v 14 6 -2
v 14 13 -2
v 14 18 -2
v 14 20 -2
v 14 21 -2
v 15 17 -2
v 15 18 -2
v 17 2 -2
v 17 3 -2
v 17 16 -2
v 17 17 -2
v 18 3 -2
v 18 5 -2
v 18 14 -2
v 18 16 -2
v 19 5 -2
v 19 6 -2
v 19 7 -2
v 19 9 -2
v 19 10 -2
v 19 12 -2
v 19 13 -2
v 19 14 -2
v 22 1 -2
v 22 20 -2
v 1 1 2
v 2 1 2
v 22 1 2
v 0 1 1
v 1 1 1
v 0 1 -1
v 1 1 -1
v 1 1 -2
v 2 1 -2
v 22 1 -2
v 4 6 2
v 8 6 2
v 9 6 2
v 13 6 2
v 14 6 2
v 19 6 2
v 4 6 1
v 8 6 1
v 9 6 1
v 13 6 1
v 14 6 1
v 19 6 1
v 4 6 -1
v 8 6 -1
v 9 6 -1
v 13 6 -1
v 14 6 -1
v 19 6 -1
v 4 6 -2
v 8 6 -2
v 9 6 -2
v 13 6 -2
v 14 6 -2
v 19 6 -2
v 4 9 2
v 19 9 2
v 4 9 1
v 19 9 1
v 4 9 -1
v 19 9 -1
v 4 9 -2
v 19 9 -2
v 4 12 2
v 19 12 2
v 4 12 1
v 19 12 1
v 4 12 -1
v 19 12 -1
v 4 12 -2
v 19 12 -2
v 18 14 2
v 19 14 2
v 18 14 1
v 19 14 1
v 18 14 -1
v 19 14 -1
v 18 14 -2
v 19 14 -2
v 17 16 2
v 18 16 2
v 17 16 1
v 18 16 1
v 17 16 -1
v 18 16 -1
v 17 16 -2
v 18 16 -2
v 15 17 2
v 17 17 2
v 15 17 1
v 17 17 1
v 15 17 -1
v 17 17 -1
v 15 17 -2
v 17 17 -2
v 4 18 2
v 8 18 2
v 9 18 2
v 13 18 2
v 14 18 2
v 15 18 2
v 4 18 1
v 8 18 1
v 9 18 1
v 13 18 1
v 14 18 1
v 15 18 1
v 4 18 -1
v 8 18 -1
v 9 18 -1
v 13 18 -1
v 14 18 -1
v 15 18 -1
v 4 18 -2
v 8 18 -2
v 9 18 -2
v 13 18 -2
v 14 18 -2
v 15 18 -2
v 6 2 2
v 8 2 2
v 9 2 2
v 13 2 2
v 14 2 2
v 17 2 2
v 6 2 1
v 8 2 1
v 9 2 1
v 13 2 1
v 14 2 1
v 17 2 1
v 6 2 -1
v 8 2 -1
v 9 2 -1
v 13 2 -1
v 14 2 -1
v 17 2 -1
v 6 2 -2
v 8 2 -2
v 9 2 -2
v 13 2 -2
v 14 2 -2
v 17 2 -2
v 5 3 2
v 6 3 2
v 17 3 2
v 18 3 2
v 5 3 1
v 6 3 1
v 17 3 1
v 18 3 1
v 5 3 -1
v 6 3 -1
v 17 3 -1
v 18 3 -1
v 5 3 -2
v 6 3 -2
v 17 3 -2
v 18 3 -2
v 4 4 2
v 5 4 2
v 4 4 1
v 5 4 1
v 4 4 -1
v 5 4 -1
v 4 4 -2
v 5 4 -2
v 18 5 2
v 19 5 2
v 18 5 1
v 19 5 1
v 18 5 -1
v 19 5 -1
v 18 5 -2
v 19 5 -2
v 4 7 2
v 19 7 2
v 4 7 1
v 19 7 1
v 4 7 -1
v 19 7 -1
v 4 7 -2
v 19 7 -2
v 4 10 2
v 19 10 2
v 4 10 1
v 19 10 1
v 4 10 -1
v 19 10 -1
v 4 10 -2
v 19 10 -2
v 4 13 2
v 8 13 2
v 9 13 2
v 13 13 2
v 14 13 2
v 19 13 2
v 4 13 1
v 8 13 1
v 9 13 1
v 13 13 1
v 14 13 1
v 19 13 1
v 4 13 -1
v 8 13 -1
v 9 13 -1
v 13 13 -1
v 14 13 -1
v 19 13 -1
v 4 13 -2
v 8 13 -2
v 9 13 -2
v 13 13 -2
v 14 13 -2
v 19 13 -2
v 14 20 2
v 22 20 2
v 14 20 -2
v 22 20 -2
v 6 21 2
v 14 21 2
v 1 21 -1
v 2 21 -1
v 1 21 -2
v 2 21 -2
v 6 21 -2
v 14 21 -2
v 1 22 2
v 2 22 2
v 6 22 2
v 0 22 1
v 1 22 1
v 2 22 1
v 0 22 -1
v 2 22 -1
v 2 22 -2
v 6 22 -2

# faces
f 3/2/1 2/2/1 1/2/1
f 4/2/1 2/2/1 3/2/1
f 9/1/1 8/1/1 7/1/1
f 10/1/1 8/1/1 9/1/1
f 11/1/1 6/1/1 5/1/1
f 12/1/1 6/1/1 11/1/1
f 15/2/1 14/2/1 13/2/1
f 16/2/1 14/2/1 15/2/1
f 21/1/1 18/1/1 17/1/1
f 22/1/1 18/1/1 21/1/1
f 23/1/1 20/1/1 19/1/1
f 24/1/1 20/1/1 23/1/1
f 29/1/1 26/1/1 25/1/1
f 30/1/1 26/1/1 29/1/1
f 31/1/1 28/1/1 27/1/1
f 32/1/1 28/1/1 31/1/1
f 37/1/1 34/1/1 33/1/1
f 38/1/1 34/1/1 37/1/1
f 39/1/1 36/1/1 35/1/1
f 40/1/1 36/1/1 39/1/1
f 45/1/1 42/1/1 41/1/1
f 46/1/1 42/1/1 45/1/1
f 47/1/1 44/1/1 43/1/1
f 48/1/1 44/1/1 47/1/1
f 53/2/1 50/2/1 49/2/1
f 54/2/1 50/2/1 53/2/1
f 55/2/1 52/2/1 51/2/1
f 56/2/1 52/2/1 55/2/1
f 61/2/1 58/2/1 57/2/1
f 62/2/1 58/2/1 61/2/1
f 63/2/1 60/2/1 59/2/1
f 64/2/1 60/2/1 63/2/1
f 69/2/1 66/2/1 65/2/1
f 70/2/1 66/2/1 69/2/1
f 71/2/1 68/2/1 67/2/1
f 72/2/1 68/2/1 71/2/1
f 77/2/1 74/2/1 73/2/1
f 78/2/1 74/2/1 77/2/1
f 79/2/1 76/2/1 75/2/1
f 80/2/1 76/2/1 79/2/1
f 85/2/1 82/2/1 81/2/1
f 86/2/1 82/2/1 85/2/1
f 87/2/1 84/2/1 83/2/1
f 88/2/1 84/2/1 87/2/1
f 93/2/1 90/2/1 89/2/1
f 94/2/1 90/2/1 93/2/1
f 95/2/1 92/2/1 91/2/1
f 96/2/1 92/2/1 95/2/1
f 101/2/1 98/2/1 97/2/1
f 102/2/1 98/2/1 101/2/1
f 103/2/1 100/2/1 99/2/1
f 104/2/1 100/2/1 103/2/1
f 109/2/1 106/2/1 105/2/1
f 110/2/1 106/2/1 109/2/1
f 111/2/1 108/2/1 107/2/1
f 112/2/1 108/2/1 111/2/1
f 117/2/1 114/2/1 113/2/1
f 118/2/1 114/2/1 117/2/1
f 119/2/1 116/2/1 115/2/1
f 120/2/1 116/2/1 119/2/1
f 121/2/2 122/2/2 125/2/2
f 125/2/2 122/2/2 126/2/2
f 123/2/2 124/2/2 127/2/2
f 127/2/2 124/2/2 128/2/2
f 129/2/2 130/2/2 133/2/2
f 133/2/2 130/2/2 134/2/2
f 131/2/2 132/2/2 135/2/2
f 135/2/2 132/2/2 136/2/2
f 137/2/2 138/2/2 141/2/2
f 141/2/2 138/2/2 142/2/2
f 139/2/2 140/2/2 143/2/2
f 143/2/2 140/2/2 144/2/2
f 145/2/2 146/2/2 149/2/2
f 149/2/2 146/2/2 150/2/2
f 147/2/2 148/2/2 151/2/2
f 151/2/2 148/2/2 152/2/2
f 153/2/2 154/2/2 157/2/2
f 157/2/2 154/2/2 158/2/2
f 155/2/2 156/2/2 159/2/2
f 159/2/2 156/2/2 160/2/2
f 161/2/2 162/2/2 165/2/2
f 165/2/2 162/2/2 166/2/2
f 163/2/2 164/2/2 167/2/2
f 167/2/2 164/2/2 168/2/2
f 169/2/2 170/2/2 171/2/2
f 171/2/2 170/2/2 172/2/2
f 173/1/2 174/1/2 177/1/2
f 177/1/2 174/1/2 178/1/2
f 175/1/2 176/1/2 179/1/2
f 179/1/2 176/1/2 180/1/2
f 181/1/2 182/1/2 185/1/2
f 185/1/2 182/1/2 186/1/2
f 183/1/2 184/1/2 187/1/2
f 187/1/2 184/1/2 188/1/2
f 189/1/2 190/1/2 193/1/2
f 193/1/2 190/1/2 194/1/2
f 191/1/2 192/1/2 195/1/2
f 195/1/2 192/1/2 196/1/2
f 197/1/2 198/1/2 201/1/2
f 201/1/2 198/1/2 202/1/2
f 199/1/2 200/1/2 203/1/2
f 203/1/2 200/1/2 204/1/2
f 205/2/2 206/2/2 207/2/2
f 207/2/2 206/2/2 208/2/2
f 209/2/2 210/2/2 211/2/2
f 211/2/2 210/2/2 212/2/2
f 215/1/3 214/1/3 213/1/3
f 216/1/3 214/1/3 215/1/3
f 217/2/3 216/2/3 215/2/3
f 218/2/3 216/2/3 217/2/3
f 219/2/3 216/2/3 218/2/3
f 220/2/3 216/2/3 219/2/3
f 221/2/3 216/2/3 220/2/3
f 222/2/3 216/2/3 221/2/3
f 223/2/3 216/2/3 222/2/3
f 224/2/3 216/2/3 223/2/3
f 225/2/3 217/2/3 215/2/3
f 226/2/3 217/2/3 225/2/3
f 227/2/3 225/2/3 215/2/3
f 228/2/3 225/2/3 227/2/3
f 229/2/3 216/2/3 224/2/3
f 230/2/3 216/2/3 229/2/3
f 231/2/3 227/2/3 215/2/3
f 232/1/3 219/1/3 218/1/3
f 233/1/3 223/1/3 222/1/3
f 234/2/3 229/2/3 224/2/3
f 235/1/3 232/1/3 231/1/3
f 235/2/3 231/2/3 215/2/3
f 236/1/3 219/1/3 232/1/3
f 236/1/3 232/1/3 235/1/3
f 237/1/3 234/1/3 233/1/3
f 237/1/3 233/1/3 222/1/3
f 238/2/3 229/2/3 234/2/3
f 238/1/3 234/1/3 237/1/3
f 239/2/3 235/2/3 215/2/3
f 240/1/3 219/1/3 236/1/3
f 241/1/3 237/1/3 222/1/3
f 242/2/3 229/2/3 238/2/3
f 243/2/3 239/2/3 215/2/3
f 243/1/3 240/1/3 239/1/3
f 244/1/3 219/1/3 240/1/3
f 244/1/3 240/1/3 243/1/3
f 245/1/3 242/1/3 241/1/3
f 245/1/3 241/1/3 222/1/3
f 246/2/3 229/2/3 242/2/3
f 246/1/3 242/1/3 245/1/3
f 247/2/3 229/2/3 246/2/3
f 248/2/3 229/2/3 247/2/3
f 250/2/3 247/2/3 246/2/3
f 251/2/3 243/2/3 215/2/3
f 254/2/3 250/2/3 249/2/3
f 255/2/3 252/2/3 251/2/3
f 258/2/3 254/2/3 253/2/3
f 259/2/3 256/2/3 255/2/3
f 260/1/3 219/1/3 244/1/3
f 261/1/3 219/1/3 260/1/3
f 262/1/3 221/1/3 220/1/3
f 263/1/3 221/1/3 262/1/3
f 264/1/3 245/1/3 222/1/3
f 265/1/3 245/1/3 264/1/3
f 266/2/3 258/2/3 257/2/3
f 267/2/3 259/2/3 255/2/3
f 267/2/3 266/2/3 265/2/3
f 267/2/3 263/2/3 262/2/3
f 267/2/3 261/2/3 260/2/3
f 267/2/3 264/2/3 263/2/3
f 267/2/3 265/2/3 264/2/3
f 267/2/3 262/2/3 261/2/3
f 267/2/3 251/2/3 215/2/3
f 267/2/3 260/2/3 259/2/3
f 267/2/3 255/2/3 251/2/3
f 268/2/3 258/2/3 266/2/3
f 268/2/3 266/2/3 267/2/3
f 268/2/3 247/2/3 250/2/3
f 268/2/3 250/2/3 254/2/3
f 268/2/3 254/2/3 258/2/3
f 271/2/3 270/2/3 269/2/3
f 272/2/3 270/2/3 271/2/3
f 282/2/3 274/2/3 273/2/3
f 284/2/3 282/2/3 281/2/3
f 285/2/3 284/2/3 283/2/3
f 286/2/3 274/2/3 282/2/3
f 286/2/3 284/2/3 285/2/3
f 286/2/3 282/2/3 284/2/3
f 287/2/3 280/2/3 279/2/3
f 288/2/3 280/2/3 287/2/3
f 293/2/3 290/2/3 289/2/3
f 294/2/3 290/2/3 293/2/3
f 295/2/3 292/2/3 291/2/3
f 296/2/3 292/2/3 295/2/3
f 301/2/3 300/2/3 299/2/3
f 302/2/3 300/2/3 301/2/3
f 303/2/3 298/2/3 297/2/3
f 304/2/3 298/2/3 303/2/3
f 305/2/3 301/2/3 299/2/3
f 306/2/3 301/2/3 305/2/3
f 307/2/3 298/2/3 304/2/3
f 308/2/3 298/2/3 307/2/3
f 309/2/3 305/2/3 299/2/3
f 310/2/3 305/2/3 309/2/3
f 311/2/3 298/2/3 308/2/3
f 312/2/3 298/2/3 311/2/3
f 313/2/3 276/2/3 275/2/3
f 314/2/3 276/2/3 313/2/3
f 315/2/3 278/2/3 277/2/3
f 316/2/3 278/2/3 315/2/3
f 317/2/3 309/2/3 299/2/3
f 318/2/3 309/2/3 317/2/3
f 319/2/4 320/2/4 321/2/4
f 321/2/4 320/2/4 322/2/4
f 322/2/4 320/2/4 323/2/4
f 323/2/4 320/2/4 324/2/4
f 325/2/4 326/2/4 334/2/4
f 333/2/4 334/2/4 336/2/4
f 335/2/4 336/2/4 337/2/4
f 334/2/4 326/2/4 338/2/4
f 337/2/4 336/2/4 338/2/4
f 336/2/4 334/2/4 338/2/4
f 331/2/4 332/2/4 339/2/4
f 339/2/4 332/2/4 340/2/4
f 341/2/4 342/2/4 345/2/4
f 345/2/4 342/2/4 346/2/4
f 343/2/4 344/2/4 347/2/4
f 347/2/4 344/2/4 348/2/4
f 351/2/4 352/2/4 353/2/4
f 353/2/4 352/2/4 354/2/4
f 349/2/4 350/2/4 355/2/4
f 355/2/4 350/2/4 356/2/4
f 351/2/4 353/2/4 357/2/4
f 357/2/4 353/2/4 358/2/4
f 356/2/4 350/2/4 359/2/4
f 359/2/4 350/2/4 360/2/4
f 351/2/4 357/2/4 361/2/4
f 361/2/4 357/2/4 362/2/4
f 360/2/4 350/2/4 363/2/4
f 363/2/4 350/2/4 364/2/4
f 327/2/4 328/2/4 365/2/4
f 365/2/4 328/2/4 366/2/4
f 329/2/4 330/2/4 367/2/4
f 367/2/4 330/2/4 368/2/4
f 351/2/4 361/2/4 369/2/4
f 369/2/4 361/2/4 370/2/4
f 371/1/4 372/1/4 373/1/4
f 373/1/4 372/1/4 374/1/4
f 373/2/4 374/2/4 376/2/4
f 374/2/4 375/2/4 376/2/4
f 376/2/4 375/2/4 377/2/4
f 377/2/4 375/2/4 378/2/4
f 378/2/4 375/2/4 379/2/4
f 379/2/4 375/2/4 380/2/4
f 380/2/4 375/2/4 381/2/4
f 381/2/4 375/2/4 382/2/4
f 382/2/4 375/2/4 383/2/4
f 373/2/4 376/2/4 384/2/4
f 384/2/4 376/2/4 385/2/4
f 373/2/4 384/2/4 386/2/4
f 386/2/4 384/2/4 387/2/4
f 383/2/4 375/2/4 388/2/4
f 388/2/4 375/2/4 389/2/4
f 373/2/4 386/2/4 390/2/4
f 377/1/4 378/1/4 391/1/4
f 381/1/4 382/1/4 392/1/4
f 383/2/4 388/2/4 393/2/4
f 390/1/4 391/1/4 394/1/4
f 373/2/4 390/2/4 394/2/4
f 391/1/4 378/1/4 395/1/4
f 394/1/4 391/1/4 395/1/4
f 392/1/4 393/1/4 396/1/4
f 381/1/4 392/1/4 396/1/4
f 393/2/4 388/2/4 397/2/4
f 396/1/4 393/1/4 397/1/4
f 373/2/4 394/2/4 398/2/4
f 395/1/4 378/1/4 399/1/4
f 381/1/4 396/1/4 400/1/4
f 397/2/4 388/2/4 401/2/4
f 373/2/4 398/2/4 402/2/4
f 398/1/4 399/1/4 402/1/4
f 399/1/4 378/1/4 403/1/4
f 402/1/4 399/1/4 403/1/4
f 400/1/4 401/1/4 404/1/4
f 381/1/4 400/1/4 404/1/4
f 401/2/4 388/2/4 405/2/4
f 404/1/4 401/1/4 405/1/4
f 405/2/4 388/2/4 406/2/4
f 406/2/4 388/2/4 407/2/4
f 405/2/4 406/2/4 409/2/4
f 373/2/4 402/2/4 410/2/4
f 408/2/4 409/2/4 413/2/4
f 410/2/4 411/2/4 414/2/4
f 412/2/4 413/2/4 417/2/4
f 414/2/4 415/2/4 418/2/4
f 403/1/4 378/1/4 419/1/4
f 419/1/4 378/1/4 420/1/4
f 379/1/4 380/1/4 421/1/4
f 421/1/4 380/1/4 422/1/4
f 381/1/4 404/1/4 423/1/4
f 423/1/4 404/1/4 424/1/4
f 416/2/4 417/2/4 425/2/4
f 414/2/4 418/2/4 426/2/4
f 424/2/4 425/2/4 426/2/4
f 421/2/4 422/2/4 426/2/4
f 419/2/4 420/2/4 426/2/4
f 422/2/4 423/2/4 426/2/4
f 423/2/4 424/2/4 426/2/4
f 420/2/4 421/2/4 426/2/4
f 373/2/4 410/2/4 426/2/4
f 418/2/4 419/2/4 426/2/4
f 410/2/4 414/2/4 426/2/4
f 425/2/4 417/2/4 427/2/4
f 426/2/4 425/2/4 427/2/4
f 409/2/4 406/2/4 427/2/4
f 413/2/4 409/2/4 427/2/4
f 417/2/4 413/2/4 427/2/4
f 432/1/5 429/1/5 428/1/5
f 433/2/5 432/2/5 431/2/5
f 434/1/5 429/1/5 432/1/5
f 434/2/5 432/2/5 433/2/5
f 435/1/5 429/1/5 434/1/5
f 436/2/5 430/2/5 429/2/5
f 436/1/5 429/1/5 435/1/5
f 437/2/5 430/2/5 436/2/5
f 444/1/5 439/1/5 438/1/5
f 445/1/5 439/1/5 444/1/5
f 446/1/5 441/1/5 440/1/5
f 447/1/5 441/1/5 446/1/5
f 448/1/5 443/1/5 442/1/5
f 449/1/5 443/1/5 448/1/5
f 456/1/5 451/1/5 450/1/5
f 457/1/5 451/1/5 456/1/5
f 458/1/5 453/1/5 452/1/5
f 459/1/5 453/1/5 458/1/5
f 460/1/5 455/1/5 454/1/5
f 461/1/5 455/1/5 460/1/5
f 464/1/5 463/1/5 462/1/5
f 465/1/5 463/1/5 464/1/5
f 468/1/5 467/1/5 466/1/5
f 469/1/5 467/1/5 468/1/5
f 472/1/5 471/1/5 470/1/5
f 473/1/5 471/1/5 472/1/5
f 476/1/5 475/1/5 474/1/5
f 477/1/5 475/1/5 476/1/5
f 480/2/5 479/2/5 478/2/5
f 481/2/5 479/2/5 480/2/5
f 484/2/5 483/2/5 482/2/5
f 485/2/5 483/2/5 484/2/5
f 488/2/5 487/2/5 486/2/5
f 489/2/5 487/2/5 488/2/5
f 492/2/5 491/2/5 490/2/5
f 493/2/5 491/2/5 492/2/5
f 496/2/5 495/2/5 494/2/5
f 497/2/5 495/2/5 496/2/5
f 500/2/5 499/2/5 498/2/5
f 501/2/5 499/2/5 500/2/5
f 508/2/5 503/2/5 502/2/5
f 509/2/5 503/2/5 508/2/5
f 510/2/5 505/2/5 504/2/5
f 511/2/5 505/2/5 510/2/5
f 512/2/5 507/2/5 506/2/5
f 513/2/5 507/2/5 512/2/5
f 520/2/5 515/2/5 514/2/5
f 521/2/5 515/2/5 520/2/5
f 522/2/5 517/2/5 516/2/5
f 523/2/5 517/2/5 522/2/5
f 524/2/5 519/2/5 518/2/5
f 525/2/5 519/2/5 524/2/5
f 526/2/6 527/2/6 532/2/6
f 532/2/6 527/2/6 533/2/6
f 528/2/6 529/2/6 534/2/6
f 534/2/6 529/2/6 535/2/6
f 530/2/6 531/2/6 536/2/6
f 536/2/6 531/2/6 537/2/6
f 538/2/6 539/2/6 544/2/6
f 544/2/6 539/2/6 545/2/6
f 540/2/6 541/2/6 546/2/6
f 546/2/6 541/2/6 547/2/6
f 542/2/6 543/2/6 548/2/6
f 548/2/6 543/2/6 549/2/6
f 550/2/6 551/2/6 554/2/6
f 554/2/6 551/2/6 555/2/6
f 552/2/6 553/2/6 556/2/6
f 556/2/6 553/2/6 557/2/6
f 558/2/6 559/2/6 562/2/6
f 562/2/6 559/2/6 563/2/6
f 560/2/6 561/2/6 564/2/6
f 564/2/6 561/2/6 565/2/6
f 566/2/6 567/2/6 568/2/6
f 568/2/6 567/2/6 569/2/6
f 570/2/6 571/2/6 572/2/6
f 572/2/6 571/2/6 573/2/6
f 574/2/6 575/2/6 576/2/6
f 576/2/6 575/2/6 577/2/6
f 578/2/6 579/2/6 580/2/6
f 580/2/6 579/2/6 581/2/6
f 582/1/6 583/1/6 584/1/6
f 584/1/6 583/1/6 585/1/6
f 586/1/6 587/1/6 588/1/6
f 588/1/6 587/1/6 589/1/6
f 590/1/6 591/1/6 592/1/6
f 592/1/6 591/1/6 593/1/6
f 594/1/6 595/1/6 596/1/6
f 596/1/6 595/1/6 597/1/6
f 598/1/6 599/1/6 604/1/6
f 604/1/6 599/1/6 605/1/6
f 600/1/6 601/1/6 606/1/6
f 606/1/6 601/1/6 607/1/6
f 602/1/6 603/1/6 608/1/6
f 608/1/6 603/1/6 609/1/6
f 610/1/6 611/1/6 616/1/6
f 616/1/6 611/1/6 617/1/6
f 612/1/6 613/1/6 618/1/6
f 618/1/6 613/1/6 619/1/6
f 614/1/6 615/1/6 620/1/6
f 620/1/6 615/1/6 621/1/6
f 622/2/6 623/2/6 624/2/6
f 624/2/6 623/2/6 625/2/6
f 628/1/6 629/1/6 630/1/6
f 630/1/6 629/1/6 631/1/6
f 626/2/6 627/2/6 632/2/6
f 632/2/6 627/2/6 633/2/6
f 634/1/6 635/1/6 638/1/6
f 635/2/6 636/2/6 639/2/6
f 638/1/6 635/1/6 639/1/6
f 637/2/6 638/2/6 640/2/6
f 638/2/6 639/2/6 640/2/6
f 639/2/6 636/2/6 641/2/6
f 640/2/6 639/2/6 641/2/6
f 641/2/6 636/2/6 642/2/6
f 642/2/6 636/2/6 643/2/6
