# MagicaVoxel @ Ephtracy

# group
g switch-0

# material
mtllib switch-0.mtl
usemtl palette

# normals
vn -1 0 0
vn 1 0 0
vn 0 0 1
vn 0 0 -1
vn 0 -1 0
vn 0 1 0

# texcoords
vt 0.306641 0.5
vt 0.982422 0.5

# verts
v -7 0 2
v -7 0 -3
v -7 3 2
v -7 3 -3
v -6 0 4
v -6 0 2
v -6 0 -3
v -6 0 -5
v -6 3 4
v -6 3 2
v -6 3 -3
v -6 3 -5
v -5 0 5
v -5 0 4
v -5 0 -5
v -5 0 -6
v -5 3 5
v -5 3 4
v -5 3 2
v -5 3 -3
v -5 3 -5
v -5 3 -6
v -5 5 2
v -5 5 -3
v -4 0 6
v -4 0 5
v -4 0 -6
v -4 0 -7
v -4 3 6
v -4 3 5
v -4 3 3
v -4 3 2
v -4 3 -3
v -4 3 -4
v -4 3 -6
v -4 3 -7
v -4 5 3
v -4 5 2
v -4 5 -3
v -4 5 -4
v -4 6 2
v -4 6 -3
v -3 3 4
v -3 3 3
v -3 3 -4
v -3 3 -5
v -3 5 4
v -3 5 3
v -3 5 2
v -3 5 -3
v -3 5 -4
v -3 5 -5
v -3 6 3
v -3 6 2
v -3 6 -3
v -3 6 -4
v -2 0 7
v -2 0 6
v -2 0 -7
v -2 0 -8
v -2 3 7
v -2 3 6
v -2 3 5
v -2 3 4
v -2 3 -5
v -2 3 -6
v -2 3 -7
v -2 3 -8
v -2 5 5
v -2 5 4
v -2 5 3
v -2 5 -4
v -2 5 -5
v -2 5 -6
v -2 6 4
v -2 6 3
v -2 6 -4
v -2 6 -5
v 3 5 3
v 3 5 2
v 3 5 -3
v 3 5 -4
v 3 6 3
v 3 6 2
v 3 6 -3
v 3 6 -4
v 4 5 2
v 4 5 -3
v 4 6 2
v 4 6 -3
v -3 5 2
v -3 5 -3
v -3 6 2
v -3 6 -3
v -2 5 3
v -2 5 2
v -2 5 -3
v -2 5 -4
v -2 6 3
v -2 6 2
v -2 6 -3
v -2 6 -4
v 3 0 7
v 3 0 6
v 3 0 -7
v 3 0 -8
v 3 3 7
v 3 3 6
v 3 3 5
v 3 3 4
v 3 3 -5
v 3 3 -6
v 3 3 -7
v 3 3 -8
v 3 5 5
v 3 5 4
v 3 5 3
v 3 5 -4
v 3 5 -5
v 3 5 -6
v 3 6 4
v 3 6 3
v 3 6 -4
v 3 6 -5
v 4 3 4
v 4 3 3
v 4 3 -4
v 4 3 -5
v 4 5 4
v 4 5 3
v 4 5 2
v 4 5 -3
v 4 5 -4
v 4 5 -5
v 4 6 3
v 4 6 2
v 4 6 -3
v 4 6 -4
v 5 0 6
v 5 0 5
v 5 0 -6
v 5 0 -7
v 5 3 6
v 5 3 5
v 5 3 3
v 5 3 2
v 5 3 -3
v 5 3 -4
v 5 3 -6
v 5 3 -7
v 5 5 3
v 5 5 2
v 5 5 -3
v 5 5 -4
v 5 6 2
v 5 6 -3
v 6 0 5
v 6 0 4
v 6 0 -5
v 6 0 -6
v 6 3 5
v 6 3 4
v 6 3 2
v 6 3 -3
v 6 3 -5
v 6 3 -6
v 6 5 2
v 6 5 -3
v 7 0 4
v 7 0 2
v 7 0 -3
v 7 0 -5
v 7 3 4
v 7 3 2
v 7 3 -3
v 7 3 -5
v 8 0 2
v 8 0 -3
v 8 3 2
v 8 3 -3
v -2 0 7
v -2 3 7
v 3 0 7
v 3 3 7
v -4 0 6
v -4 3 6
v -2 0 6
v -2 3 6
v 3 0 6
v 3 3 6
v 5 0 6
v 5 3 6
v -5 0 5
v -5 3 5
v -4 0 5
v -4 3 5
v -2 3 5
v -2 5 5
v 3 3 5
v 3 5 5
v 5 0 5
v 5 3 5
v 6 0 5
v 6 3 5
v -6 0 4
v -6 3 4
v -5 0 4
v -5 3 4
v -3 3 4
v -3 5 4
v -2 3 4
v -2 5 4
v -2 6 4
v 3 3 4
v 3 5 4
v 3 6 4
v 4 3 4
v 4 5 4
v 6 0 4
v 6 3 4
v 7 0 4
v 7 3 4
v -4 3 3
v -4 5 3
v -3 3 3
v -3 5 3
v -3 6 3
v -2 5 3
v -2 6 3
v 3 5 3
v 3 6 3
v 4 3 3
v 4 5 3
v 4 6 3
v 5 3 3
v 5 5 3
v -7 0 2
v -7 3 2
v -6 0 2
v -6 3 2
v -5 3 2
v -5 5 2
v -4 3 2
v -4 5 2
v -4 6 2
v -3 5 2
v -3 6 2
v 4 5 2
v 4 6 2
v 5 3 2
v 5 5 2
v 5 6 2
v 6 3 2
v 6 5 2
v 7 0 2
v 7 3 2
v 8 0 2
v 8 3 2
v -3 5 -3
v -3 6 -3
v -2 5 -3
v -2 6 -3
v 3 5 -3
v 3 6 -3
v 4 5 -3
v 4 6 -3
v -2 5 -4
v -2 6 -4
v 3 5 -4
v 3 6 -4
v -2 5 3
v -2 6 3
v 3 5 3
v 3 6 3
v -3 5 2
v -3 6 2
v -2 5 2
v -2 6 2
v 3 5 2
v 3 6 2
v 4 5 2
v 4 6 2
v -7 0 -3
v -7 3 -3
v -6 0 -3
v -6 3 -3
v -5 3 -3
v -5 5 -3
v -4 3 -3
v -4 5 -3
v -4 6 -3
v -3 5 -3
v -3 6 -3
v 4 5 -3
v 4 6 -3
v 5 3 -3
v 5 5 -3
v 5 6 -3
v 6 3 -3
v 6 5 -3
v 7 0 -3
v 7 3 -3
v 8 0 -3
v 8 3 -3
v -4 3 -4
v -4 5 -4
v -3 3 -4
v -3 5 -4
v -3 6 -4
v -2 5 -4
v -2 6 -4
v 3 5 -4
v 3 6 -4
v 4 3 -4
v 4 5 -4
v 4 6 -4
v 5 3 -4
v 5 5 -4
v -6 0 -5
v -6 3 -5
v -5 0 -5
v -5 3 -5
v -3 3 -5
v -3 5 -5
v -2 3 -5
v -2 5 -5
v -2 6 -5
v 3 3 -5
v 3 5 -5
v 3 6 -5
v 4 3 -5
v 4 5 -5
v 6 0 -5
v 6 3 -5
v 7 0 -5
v 7 3 -5
v -5 0 -6
v -5 3 -6
v -4 0 -6
v -4 3 -6
v -2 3 -6
v -2 5 -6
v 3 3 -6
v 3 5 -6
v 5 0 -6
v 5 3 -6
v 6 0 -6
v 6 3 -6
v -4 0 -7
v -4 3 -7
v -2 0 -7
v -2 3 -7
v 3 0 -7
v 3 3 -7
v 5 0 -7
v 5 3 -7
v -2 0 -8
v -2 3 -8
v 3 0 -8
v 3 3 -8
v -2 0 7
v 3 0 7
v -4 0 6
v -2 0 6
v 3 0 6
v 5 0 6
v -5 0 5
v -4 0 5
v 5 0 5
v 6 0 5
v -6 0 4
v -5 0 4
v 6 0 4
v 7 0 4
v -7 0 2
v -6 0 2
v 7 0 2
v 8 0 2
v -7 0 -3
v -6 0 -3
v 7 0 -3
v 8 0 -3
v -6 0 -5
v -5 0 -5
v 6 0 -5
v 7 0 -5
v -5 0 -6
v -4 0 -6
v 5 0 -6
v 6 0 -6
v -4 0 -7
v -2 0 -7
v 3 0 -7
v 5 0 -7
v -2 0 -8
v 3 0 -8
v -2 3 7
v 3 3 7
v -4 3 6
v -2 3 6
v 3 3 6
v 5 3 6
v -5 3 5
v -4 3 5
v -2 3 5
v 3 3 5
v 5 3 5
v 6 3 5
v -6 3 4
v -5 3 4
v -3 3 4
v -2 3 4
v 3 3 4
v 4 3 4
v 6 3 4
v 7 3 4
v -4 3 3
v -3 3 3
v 4 3 3
v 5 3 3
v -7 3 2
v -6 3 2
v -5 3 2
v -4 3 2
v 5 3 2
v 6 3 2
v 7 3 2
v 8 3 2
v -7 3 -3
v -6 3 -3
v -5 3 -3
v -4 3 -3
v 5 3 -3
v 6 3 -3
v 7 3 -3
v 8 3 -3
v -4 3 -4
v -3 3 -4
v 4 3 -4
v 5 3 -4
v -6 3 -5
v -5 3 -5
v -3 3 -5
v -2 3 -5
v 3 3 -5
v 4 3 -5
v 6 3 -5
v 7 3 -5
v -5 3 -6
v -4 3 -6
v -2 3 -6
v 3 3 -6
v 5 3 -6
v 6 3 -6
v -4 3 -7
v -2 3 -7
v 3 3 -7
v 5 3 -7
v -2 3 -8
v 3 3 -8
v -2 5 5
v 3 5 5
v -3 5 4
v -2 5 4
v 3 5 4
v 4 5 4
v -4 5 3
v -3 5 3
v -2 5 3
v 3 5 3
v 4 5 3
v 5 5 3
v -5 5 2
v -4 5 2
v -3 5 2
v -2 5 2
v 3 5 2
v 4 5 2
v 5 5 2
v 6 5 2
v -5 5 -3
v -4 5 -3
v -3 5 -3
v -2 5 -3
v 3 5 -3
v 4 5 -3
v 5 5 -3
v 6 5 -3
v -4 5 -4
v -3 5 -4
v -2 5 -4
v 3 5 -4
v 4 5 -4
v 5 5 -4
v -3 5 -5
v -2 5 -5
v 3 5 -5
v 4 5 -5
v -2 5 -6
v 3 5 -6
v -2 6 4
v 3 6 4
v -3 6 3
v -2 6 3
v 3 6 3
v 4 6 3
v -4 6 2
v -3 6 2
v -2 6 2
v 3 6 2
v 4 6 2
v 5 6 2
v -4 6 -3
v -3 6 -3
v -2 6 -3
v 3 6 -3
v 4 6 -3
v 5 6 -3
v -3 6 -4
v -2 6 -4
v 3 6 -4
v 4 6 -4
v -2 6 -5
v 3 6 -5

# faces
f 3/2/1 2/2/1 1/2/1
f 4/2/1 2/2/1 3/2/1
f 9/2/1 6/2/1 5/2/1
f 10/2/1 6/2/1 9/2/1
f 11/2/1 8/2/1 7/2/1
f 12/2/1 8/2/1 11/2/1
f 17/2/1 14/2/1 13/2/1
f 18/2/1 14/2/1 17/2/1
f 21/2/1 16/2/1 15/2/1
f 22/2/1 16/2/1 21/2/1
f 23/2/1 20/2/1 19/2/1
f 24/2/1 20/2/1 23/2/1
f 29/2/1 26/2/1 25/2/1
f 30/2/1 26/2/1 29/2/1
f 35/2/1 28/2/1 27/2/1
f 36/2/1 28/2/1 35/2/1
f 37/2/1 32/2/1 31/2/1
f 38/2/1 32/2/1 37/2/1
f 39/2/1 34/2/1 33/2/1
f 40/2/1 34/2/1 39/2/1
f 41/2/1 39/2/1 38/2/1
f 42/2/1 39/2/1 41/2/1
f 47/2/1 44/2/1 43/2/1
f 48/2/1 44/2/1 47/2/1
f 51/2/1 46/2/1 45/2/1
f 52/2/1 46/2/1 51/2/1
f 53/2/1 49/2/1 48/2/1
f 54/2/1 49/2/1 53/2/1
f 55/2/1 51/2/1 50/2/1
f 56/2/1 51/2/1 55/2/1
f 61/2/1 58/2/1 57/2/1
f 62/2/1 58/2/1 61/2/1
f 67/2/1 60/2/1 59/2/1
f 68/2/1 60/2/1 67/2/1
f 69/2/1 64/2/1 63/2/1
f 70/2/1 64/2/1 69/2/1
f 73/2/1 66/2/1 65/2/1
f 74/2/1 66/2/1 73/2/1
f 75/2/1 71/2/1 70/2/1
f 76/2/1 71/2/1 75/2/1
f 77/2/1 73/2/1 72/2/1
f 78/2/1 73/2/1 77/2/1
f 83/2/1 80/2/1 79/2/1
f 84/2/1 80/2/1 83/2/1
f 85/2/1 82/2/1 81/2/1
f 86/2/1 82/2/1 85/2/1
f 89/2/1 88/2/1 87/2/1
f 90/2/1 88/2/1 89/2/1
f 91/2/2 92/2/2 93/2/2
f 93/2/2 92/2/2 94/2/2
f 95/2/2 96/2/2 99/2/2
f 99/2/2 96/2/2 100/2/2
f 97/2/2 98/2/2 101/2/2
f 101/2/2 98/2/2 102/2/2
f 103/2/2 104/2/2 107/2/2
f 107/2/2 104/2/2 108/2/2
f 105/2/2 106/2/2 113/2/2
f 113/2/2 106/2/2 114/2/2
f 109/2/2 110/2/2 115/2/2
f 115/2/2 110/2/2 116/2/2
f 111/2/2 112/2/2 119/2/2
f 119/2/2 112/2/2 120/2/2
f 116/2/2 117/2/2 121/2/2
f 121/2/2 117/2/2 122/2/2
f 118/2/2 119/2/2 123/2/2
f 123/2/2 119/2/2 124/2/2
f 125/2/2 126/2/2 129/2/2
f 129/2/2 126/2/2 130/2/2
f 127/2/2 128/2/2 133/2/2
f 133/2/2 128/2/2 134/2/2
f 130/2/2 131/2/2 135/2/2
f 135/2/2 131/2/2 136/2/2
f 132/2/2 133/2/2 137/2/2
f 137/2/2 133/2/2 138/2/2
f 139/2/2 140/2/2 143/2/2
f 143/2/2 140/2/2 144/2/2
f 141/2/2 142/2/2 149/2/2
f 149/2/2 142/2/2 150/2/2
f 145/2/2 146/2/2 151/2/2
f 151/2/2 146/2/2 152/2/2
f 147/2/2 148/2/2 153/2/2
f 153/2/2 148/2/2 154/2/2
f 152/2/2 153/2/2 155/2/2
f 155/2/2 153/2/2 156/2/2
f 157/2/2 158/2/2 161/2/2
f 161/2/2 158/2/2 162/2/2
f 159/2/2 160/2/2 165/2/2
f 165/2/2 160/2/2 166/2/2
f 163/2/2 164/2/2 167/2/2
f 167/2/2 164/2/2 168/2/2
f 169/2/2 170/2/2 173/2/2
f 173/2/2 170/2/2 174/2/2
f 171/2/2 172/2/2 175/2/2
f 175/2/2 172/2/2 176/2/2
f 177/2/2 178/2/2 179/2/2
f 179/2/2 178/2/2 180/2/2
f 183/2/3 182/2/3 181/2/3
f 184/2/3 182/2/3 183/2/3
f 187/2/3 186/2/3 185/2/3
f 188/2/3 186/2/3 187/2/3
f 191/2/3 190/2/3 189/2/3
f 192/2/3 190/2/3 191/2/3
f 195/2/3 194/2/3 193/2/3
f 196/2/3 194/2/3 195/2/3
f 199/2/3 198/2/3 197/2/3
f 200/2/3 198/2/3 199/2/3
f 203/2/3 202/2/3 201/2/3
f 204/2/3 202/2/3 203/2/3
f 207/2/3 206/2/3 205/2/3
f 208/2/3 206/2/3 207/2/3
f 211/2/3 210/2/3 209/2/3
f 212/2/3 210/2/3 211/2/3
f 215/2/3 213/2/3 212/2/3
f 216/2/3 213/2/3 215/2/3
f 217/2/3 215/2/3 214/2/3
f 218/2/3 215/2/3 217/2/3
f 221/2/3 220/2/3 219/2/3
f 222/2/3 220/2/3 221/2/3
f 225/2/3 224/2/3 223/2/3
f 226/2/3 224/2/3 225/2/3
f 228/2/3 227/2/3 226/2/3
f 229/2/3 227/2/3 228/2/3
f 233/2/3 231/2/3 230/2/3
f 234/2/3 231/2/3 233/2/3
f 235/2/3 233/2/3 232/2/3
f 236/2/3 233/2/3 235/2/3
f 239/2/3 238/2/3 237/2/3
f 240/2/3 238/2/3 239/2/3
f 243/2/3 242/2/3 241/2/3
f 244/2/3 242/2/3 243/2/3
f 246/2/3 245/2/3 244/2/3
f 247/2/3 245/2/3 246/2/3
f 251/2/3 249/2/3 248/2/3
f 252/2/3 249/2/3 251/2/3
f 253/2/3 251/2/3 250/2/3
f 254/2/3 251/2/3 253/2/3
f 257/2/3 256/2/3 255/2/3
f 258/2/3 256/2/3 257/2/3
f 261/2/3 260/2/3 259/2/3
f 262/2/3 260/2/3 261/2/3
f 265/2/3 264/2/3 263/2/3
f 266/2/3 264/2/3 265/2/3
f 269/2/3 268/2/3 267/2/3
f 270/2/3 268/2/3 269/2/3
f 271/2/4 272/2/4 273/2/4
f 273/2/4 272/2/4 274/2/4
f 275/2/4 276/2/4 277/2/4
f 277/2/4 276/2/4 278/2/4
f 279/2/4 280/2/4 281/2/4
f 281/2/4 280/2/4 282/2/4
f 283/2/4 284/2/4 285/2/4
f 285/2/4 284/2/4 286/2/4
f 287/2/4 288/2/4 289/2/4
f 289/2/4 288/2/4 290/2/4
f 290/2/4 291/2/4 292/2/4
f 292/2/4 291/2/4 293/2/4
f 294/2/4 295/2/4 297/2/4
f 297/2/4 295/2/4 298/2/4
f 296/2/4 297/2/4 299/2/4
f 299/2/4 297/2/4 300/2/4
f 301/2/4 302/2/4 303/2/4
f 303/2/4 302/2/4 304/2/4
f 305/2/4 306/2/4 307/2/4
f 307/2/4 306/2/4 308/2/4
f 308/2/4 309/2/4 310/2/4
f 310/2/4 309/2/4 311/2/4
f 312/2/4 313/2/4 315/2/4
f 315/2/4 313/2/4 316/2/4
f 314/2/4 315/2/4 317/2/4
f 317/2/4 315/2/4 318/2/4
f 319/2/4 320/2/4 321/2/4
f 321/2/4 320/2/4 322/2/4
f 323/2/4 324/2/4 325/2/4
f 325/2/4 324/2/4 326/2/4
f 326/2/4 327/2/4 329/2/4
f 329/2/4 327/2/4 330/2/4
f 328/2/4 329/2/4 331/2/4
f 331/2/4 329/2/4 332/2/4
f 333/2/4 334/2/4 335/2/4
f 335/2/4 334/2/4 336/2/4
f 337/2/4 338/2/4 339/2/4
f 339/2/4 338/2/4 340/2/4
f 341/2/4 342/2/4 343/2/4
f 343/2/4 342/2/4 344/2/4
f 345/2/4 346/2/4 347/2/4
f 347/2/4 346/2/4 348/2/4
f 349/2/4 350/2/4 351/2/4
f 351/2/4 350/2/4 352/2/4
f 353/2/4 354/2/4 355/2/4
f 355/2/4 354/2/4 356/2/4
f 357/2/4 358/2/4 359/2/4
f 359/2/4 358/2/4 360/2/4
f 364/2/5 362/2/5 361/2/5
f 365/2/5 362/2/5 364/2/5
f 368/2/5 364/2/5 363/2/5
f 368/2/5 366/2/5 365/2/5
f 368/2/5 365/2/5 364/2/5
f 369/2/5 366/2/5 368/2/5
f 372/2/5 368/2/5 367/2/5
f 372/2/5 370/2/5 369/2/5
f 372/2/5 369/2/5 368/2/5
f 373/2/5 370/2/5 372/2/5
f 376/2/5 372/2/5 371/2/5
f 376/2/5 374/2/5 373/2/5
f 376/2/5 373/2/5 372/2/5
f 377/2/5 374/2/5 376/2/5
f 379/2/5 376/2/5 375/2/5
f 379/2/5 378/2/5 377/2/5
f 379/2/5 377/2/5 376/2/5
f 380/2/5 378/2/5 379/2/5
f 381/2/5 378/2/5 380/2/5
f 382/2/5 378/2/5 381/2/5
f 383/2/5 381/2/5 380/2/5
f 384/2/5 381/2/5 383/2/5
f 385/2/5 381/2/5 384/2/5
f 386/2/5 381/2/5 385/2/5
f 387/2/5 385/2/5 384/2/5
f 388/2/5 385/2/5 387/2/5
f 389/2/5 385/2/5 388/2/5
f 390/2/5 385/2/5 389/2/5
f 391/2/5 389/2/5 388/2/5
f 392/2/5 389/2/5 391/2/5
f 393/2/5 389/2/5 392/2/5
f 394/2/5 389/2/5 393/2/5
f 395/2/5 393/2/5 392/2/5
f 396/2/5 393/2/5 395/2/5
f 397/2/6 398/2/6 400/2/6
f 400/2/6 398/2/6 401/2/6
f 399/2/6 400/2/6 404/2/6
f 401/2/6 402/2/6 404/2/6
f 400/2/6 401/2/6 404/2/6
f 404/2/6 402/2/6 405/2/6
f 405/2/6 402/2/6 406/2/6
f 406/2/6 402/2/6 407/2/6
f 403/2/6 404/2/6 410/2/6
f 404/2/6 405/2/6 410/2/6
f 410/2/6 405/2/6 411/2/6
f 411/2/6 405/2/6 412/2/6
f 406/2/6 407/2/6 413/2/6
f 407/2/6 408/2/6 413/2/6
f 413/2/6 408/2/6 414/2/6
f 414/2/6 408/2/6 415/2/6
f 410/2/6 411/2/6 417/2/6
f 409/2/6 410/2/6 417/2/6
f 417/2/6 411/2/6 418/2/6
f 415/2/6 416/2/6 419/2/6
f 414/2/6 415/2/6 419/2/6
f 419/2/6 416/2/6 420/2/6
f 409/2/6 417/2/6 422/2/6
f 422/2/6 417/2/6 423/2/6
f 423/2/6 417/2/6 424/2/6
f 420/2/6 416/2/6 425/2/6
f 425/2/6 416/2/6 426/2/6
f 426/2/6 416/2/6 427/2/6
f 421/2/6 422/2/6 429/2/6
f 422/2/6 423/2/6 429/2/6
f 429/2/6 423/2/6 430/2/6
f 430/2/6 423/2/6 431/2/6
f 427/2/6 428/2/6 434/2/6
f 426/2/6 427/2/6 434/2/6
f 434/2/6 428/2/6 435/2/6
f 435/2/6 428/2/6 436/2/6
f 431/2/6 432/2/6 437/2/6
f 430/2/6 431/2/6 437/2/6
f 434/2/6 435/2/6 440/2/6
f 433/2/6 434/2/6 440/2/6
f 437/2/6 438/2/6 441/2/6
f 430/2/6 437/2/6 441/2/6
f 441/2/6 438/2/6 442/2/6
f 442/2/6 438/2/6 443/2/6
f 439/2/6 440/2/6 446/2/6
f 440/2/6 435/2/6 447/2/6
f 446/2/6 440/2/6 447/2/6
f 447/2/6 435/2/6 448/2/6
f 443/2/6 444/2/6 449/2/6
f 442/2/6 443/2/6 449/2/6
f 449/2/6 444/2/6 450/2/6
f 450/2/6 444/2/6 451/2/6
f 445/2/6 446/2/6 452/2/6
f 446/2/6 447/2/6 452/2/6
f 452/2/6 447/2/6 453/2/6
f 453/2/6 447/2/6 454/2/6
f 450/2/6 451/2/6 455/2/6
f 452/2/6 453/2/6 455/2/6
f 451/2/6 452/2/6 455/2/6
f 455/2/6 453/2/6 456/2/6
f 456/2/6 453/2/6 457/2/6
f 457/2/6 453/2/6 458/2/6
f 456/2/6 457/2/6 459/2/6
f 459/2/6 457/2/6 460/2/6
f 461/2/6 462/2/6 464/2/6
f 464/2/6 462/2/6 465/2/6
f 463/2/6 464/2/6 468/2/6
f 468/2/6 464/2/6 469/2/6
f 465/2/6 466/2/6 470/2/6
f 470/2/6 466/2/6 471/2/6
f 467/2/6 468/2/6 474/2/6
f 474/2/6 468/2/6 475/2/6
f 469/2/6 470/2/6 476/2/6
f 476/2/6 470/2/6 477/2/6
f 471/2/6 472/2/6 478/2/6
f 478/2/6 472/2/6 479/2/6
f 473/2/6 474/2/6 481/2/6
f 481/2/6 474/2/6 482/2/6
f 476/2/6 477/2/6 483/2/6
f 477/2/6 478/2/6 483/2/6
f 475/2/6 476/2/6 483/2/6
f 483/2/6 478/2/6 484/2/6
f 484/2/6 478/2/6 485/2/6
f 485/2/6 478/2/6 486/2/6
f 479/2/6 480/2/6 487/2/6
f 487/2/6 480/2/6 488/2/6
f 482/2/6 483/2/6 489/2/6
f 489/2/6 483/2/6 490/2/6
f 484/2/6 485/2/6 491/2/6
f 491/2/6 485/2/6 492/2/6
f 486/2/6 487/2/6 493/2/6
f 493/2/6 487/2/6 494/2/6
f 490/2/6 491/2/6 495/2/6
f 495/2/6 491/2/6 496/2/6
f 492/2/6 493/2/6 497/2/6
f 497/2/6 493/2/6 498/2/6
f 496/2/6 497/2/6 499/2/6
f 499/2/6 497/2/6 500/2/6
f 501/2/6 502/2/6 504/2/6
f 504/2/6 502/2/6 505/2/6
f 503/2/6 504/2/6 508/2/6
f 508/2/6 504/2/6 509/2/6
f 505/2/6 506/2/6 510/2/6
f 510/2/6 506/2/6 511/2/6
f 507/2/6 508/2/6 513/2/6
f 513/2/6 508/2/6 514/2/6
f 511/2/6 512/2/6 517/2/6
f 517/2/6 512/2/6 518/2/6
f 514/2/6 515/2/6 519/2/6
f 519/2/6 515/2/6 520/2/6
f 516/2/6 517/2/6 521/2/6
f 521/2/6 517/2/6 522/2/6
f 520/2/6 521/2/6 523/2/6
f 523/2/6 521/2/6 524/2/6
