# MagicaVoxel @ Ephtracy

# group
g Power Station & Cell-0

# material
mtllib Power Station & Cell-0.mtl
usemtl palette

# normals
vn -1 0 0
vn 1 0 0
vn 0 0 1
vn 0 0 -1
vn 0 -1 0
vn 0 1 0

# texcoords
vt 0.0214844 0.5
vt 0.306641 0.5
vt 0.841797 0.5
vt 0.958984 0.5

# verts
v -20 0 20
v -20 0 -20
v -20 40 20
v -20 40 -20
v -18 15 3
v -18 15 -2
v -18 16 5
v -18 16 3
v -18 16 -2
v -18 16 -4
v -18 17 6
v -18 17 5
v -18 17 -4
v -18 17 -5
v -18 19 7
v -18 19 6
v -18 19 -5
v -18 19 -6
v -18 21 1
v -18 21 -0
v -18 22 1
v -18 22 -0
v -18 24 7
v -18 24 6
v -18 24 -5
v -18 24 -6
v -18 26 6
v -18 26 5
v -18 26 -4
v -18 26 -5
v -18 27 5
v -18 27 3
v -18 27 -2
v -18 27 -4
v -18 28 3
v -18 28 -2
v -17 21 1
v -17 21 -0
v -17 22 1
v -17 22 -0
v -14 11 4
v -14 11 -3
v -14 12 6
v -14 12 4
v -14 12 -3
v -14 12 -5
v -14 13 7
v -14 13 6
v -14 13 -5
v -14 13 -6
v -14 14 8
v -14 14 7
v -14 14 -6
v -14 14 -7
v -14 15 9
v -14 15 8
v -14 15 3
v -14 15 -2
v -14 15 -7
v -14 15 -8
v -14 16 10
v -14 16 9
v -14 16 5
v -14 16 3
v -14 16 -2
v -14 16 -4
v -14 16 -8
v -14 16 -9
v -14 17 6
v -14 17 5
v -14 17 -4
v -14 17 -5
v -14 18 11
v -14 18 10
v -14 18 -9
v -14 18 -10
v -14 19 7
v -14 19 6
v -14 19 -5
v -14 19 -6
v -14 24 7
v -14 24 6
v -14 24 -5
v -14 24 -6
v -14 25 11
v -14 25 10
v -14 25 -9
v -14 25 -10
v -14 26 6
v -14 26 5
v -14 26 -4
v -14 26 -5
v -14 27 10
v -14 27 9
v -14 27 5
v -14 27 3
v -14 27 -2
v -14 27 -4
v -14 27 -8
v -14 27 -9
v -14 28 9
v -14 28 8
v -14 28 3
v -14 28 -2
v -14 28 -7
v -14 28 -8
v -14 29 8
v -14 29 7
v -14 29 -6
v -14 29 -7
v -14 30 7
v -14 30 6
v -14 30 -5
v -14 30 -6
v -14 31 6
v -14 31 4
v -14 31 -3
v -14 31 -5
v -14 32 4
v -14 32 -3
v 20 0 20
v 20 0 -20
v 20 11 4
v 20 11 -3
v 20 12 6
v 20 12 4
v 20 12 -3
v 20 12 -5
v 20 13 7
v 20 13 6
v 20 13 -5
v 20 13 -6
v 20 14 8
v 20 14 7
v 20 14 -6
v 20 14 -7
v 20 15 9
v 20 15 8
v 20 15 -7
v 20 15 -8
v 20 16 10
v 20 16 9
v 20 16 -8
v 20 16 -9
v 20 18 11
v 20 18 10
v 20 18 -9
v 20 18 -10
v 20 25 11
v 20 25 10
v 20 25 -9
v 20 25 -10
v 20 27 10
v 20 27 9
v 20 27 -8
v 20 27 -9
v 20 28 9
v 20 28 8
v 20 28 -7
v 20 28 -8
v 20 29 8
v 20 29 7
v 20 29 -6
v 20 29 -7
v 20 30 7
v 20 30 6
v 20 30 -5
v 20 30 -6
v 20 31 6
v 20 31 4
v 20 31 -3
v 20 31 -5
v 20 32 4
v 20 32 -3
v 20 40 20
v 20 40 -20
v -20 0 20
v -20 40 20
v 20 0 20
v 20 40 20
v -18 21 1
v -18 22 1
v -17 21 1
v -17 22 1
v -18 15 -2
v -18 16 -2
v -18 27 -2
v -18 28 -2
v -14 15 -2
v -14 16 -2
v -14 27 -2
v -14 28 -2
v -14 11 -3
v -14 12 -3
v -14 31 -3
v -14 32 -3
v 19 11 -3
v 19 32 -3
v 20 11 -3
v 20 12 -3
v 20 31 -3
v 20 32 -3
v -18 16 -4
v -18 17 -4
v -18 26 -4
v -18 27 -4
v -14 16 -4
v -14 17 -4
v -14 26 -4
v -14 27 -4
v -18 17 -5
v -18 19 -5
v -18 24 -5
v -18 26 -5
v -14 12 -5
v -14 13 -5
v -14 17 -5
v -14 19 -5
v -14 24 -5
v -14 26 -5
v -14 30 -5
v -14 31 -5
v 20 12 -5
v 20 13 -5
v 20 30 -5
v 20 31 -5
v -18 19 -6
v -18 24 -6
v -14 13 -6
v -14 14 -6
v -14 19 -6
v -14 24 -6
v -14 29 -6
v -14 30 -6
v 20 13 -6
v 20 14 -6
v 20 29 -6
v 20 30 -6
v -14 14 -7
v -14 15 -7
v -14 28 -7
v -14 29 -7
v 20 14 -7
v 20 15 -7
v 20 28 -7
v 20 29 -7
v -14 15 -8
v -14 16 -8
v -14 27 -8
v -14 28 -8
v 20 15 -8
v 20 16 -8
v 20 27 -8
v 20 28 -8
v -14 16 -9
v -14 18 -9
v -14 25 -9
v -14 27 -9
v 20 16 -9
v 20 18 -9
v 20 25 -9
v 20 27 -9
v -14 18 -10
v -14 25 -10
v 19 18 -10
v 19 25 -10
v 20 18 -10
v 20 25 -10
v -14 18 11
v -14 25 11
v 19 18 11
v 19 25 11
v 20 18 11
v 20 25 11
v -14 16 10
v -14 18 10
v -14 25 10
v -14 27 10
v 20 16 10
v 20 18 10
v 20 25 10
v 20 27 10
v -14 15 9
v -14 16 9
v -14 27 9
v -14 28 9
v 20 15 9
v 20 16 9
v 20 27 9
v 20 28 9
v -14 14 8
v -14 15 8
v -14 28 8
v -14 29 8
v 20 14 8
v 20 15 8
v 20 28 8
v 20 29 8
v -18 19 7
v -18 24 7
v -14 13 7
v -14 14 7
v -14 19 7
v -14 24 7
v -14 29 7
v -14 30 7
v 20 13 7
v 20 14 7
v 20 29 7
v 20 30 7
v -18 17 6
v -18 19 6
v -18 24 6
v -18 26 6
v -14 12 6
v -14 13 6
v -14 17 6
v -14 19 6
v -14 24 6
v -14 26 6
v -14 30 6
v -14 31 6
v 20 12 6
v 20 13 6
v 20 30 6
v 20 31 6
v -18 16 5
v -18 17 5
v -18 26 5
v -18 27 5
v -14 16 5
v -14 17 5
v -14 26 5
v -14 27 5
v -14 11 4
v -14 12 4
v -14 31 4
v -14 32 4
v 19 11 4
v 19 32 4
v 20 11 4
v 20 12 4
v 20 31 4
v 20 32 4
v -18 15 3
v -18 16 3
v -18 27 3
v -18 28 3
v -14 15 3
v -14 16 3
v -14 27 3
v -14 28 3
v -18 21 -0
v -18 22 -0
v -17 21 -0
v -17 22 -0
v -20 0 -20
v -20 40 -20
v 20 0 -20
v 20 40 -20
v -20 0 20
v 20 0 20
v -20 0 -20
v 20 0 -20
v -18 21 1
v -17 21 1
v -18 21 -0
v -17 21 -0
v -18 24 7
v -14 24 7
v -18 24 6
v -14 24 6
v -18 24 -5
v -14 24 -5
v -18 24 -6
v -14 24 -6
v -14 25 11
v 19 25 11
v 20 25 11
v -14 25 10
v 20 25 10
v -14 25 -9
v 20 25 -9
v -14 25 -10
v 19 25 -10
v 20 25 -10
v -18 26 6
v -14 26 6
v -18 26 5
v -14 26 5
v -18 26 -4
v -14 26 -4
v -18 26 -5
v -14 26 -5
v -14 27 10
v 20 27 10
v -14 27 9
v 20 27 9
v -18 27 5
v -14 27 5
v -18 27 3
v -14 27 3
v -18 27 -2
v -14 27 -2
v -18 27 -4
v -14 27 -4
v -14 27 -8
v 20 27 -8
v -14 27 -9
v 20 27 -9
v -14 28 9
v 20 28 9
v -14 28 8
v 20 28 8
v -18 28 3
v -14 28 3
v -18 28 -2
v -14 28 -2
v -14 28 -7
v 20 28 -7
v -14 28 -8
v 20 28 -8
v -14 29 8
v 20 29 8
v -14 29 7
v 20 29 7
v -14 29 -6
v 20 29 -6
v -14 29 -7
v 20 29 -7
v -14 30 7
v 20 30 7
v -14 30 6
v 20 30 6
v -14 30 -5
v 20 30 -5
v -14 30 -6
v 20 30 -6
v -14 31 6
v 20 31 6
v -14 31 4
v 20 31 4
v -14 31 -3
v 20 31 -3
v -14 31 -5
v 20 31 -5
v -14 32 4
v 19 32 4
v 20 32 4
v -14 32 -3
v 19 32 -3
v 20 32 -3
v -14 11 4
v 19 11 4
v 20 11 4
v -14 11 -3
v 19 11 -3
v 20 11 -3
v -14 12 6
v 20 12 6
v -14 12 4
v 20 12 4
v -14 12 -3
v 20 12 -3
v -14 12 -5
v 20 12 -5
v -14 13 7
v 20 13 7
v -14 13 6
v 20 13 6
v -14 13 -5
v 20 13 -5
v -14 13 -6
v 20 13 -6
v -14 14 8
v 20 14 8
v -14 14 7
v 20 14 7
v -14 14 -6
v 20 14 -6
v -14 14 -7
v 20 14 -7
v -14 15 9
v 20 15 9
v -14 15 8
v 20 15 8
v -18 15 3
v -14 15 3
v -18 15 -2
v -14 15 -2
v -14 15 -7
v 20 15 -7
v -14 15 -8
v 20 15 -8
v -14 16 10
v 20 16 10
v -14 16 9
v 20 16 9
v -18 16 5
v -14 16 5
v -18 16 3
v -14 16 3
v -18 16 -2
v -14 16 -2
v -18 16 -4
v -14 16 -4
v -14 16 -8
v 20 16 -8
v -14 16 -9
v 20 16 -9
v -18 17 6
v -14 17 6
v -18 17 5
v -14 17 5
v -18 17 -4
v -14 17 -4
v -18 17 -5
v -14 17 -5
v -14 18 11
v 19 18 11
v 20 18 11
v -14 18 10
v 20 18 10
v -14 18 -9
v 20 18 -9
v -14 18 -10
v 19 18 -10
v 20 18 -10
v -18 19 7
v -14 19 7
v -18 19 6
v -14 19 6
v -18 19 -5
v -14 19 -5
v -18 19 -6
v -14 19 -6
v -18 22 1
v -17 22 1
v -18 22 -0
v -17 22 -0
v -20 40 20
v 20 40 20
v -20 40 -20
v 20 40 -20

# faces
f 3/4/1 2/4/1 1/4/1
f 4/4/1 2/4/1 3/4/1
f 5/3/2 6/3/2 8/3/2
f 8/3/2 6/3/2 9/3/2
f 7/3/2 8/3/2 12/3/2
f 9/3/2 10/3/2 12/3/2
f 8/3/2 9/3/2 12/3/2
f 12/3/2 10/3/2 13/3/2
f 11/3/2 12/3/2 16/3/2
f 13/3/2 14/3/2 16/3/2
f 12/3/2 13/3/2 16/3/2
f 16/3/2 14/3/2 17/3/2
f 15/3/2 16/3/2 19/3/2
f 17/3/2 18/3/2 19/3/2
f 16/3/2 17/3/2 19/3/2
f 19/3/2 18/3/2 20/3/2
f 15/3/2 19/3/2 21/3/2
f 20/3/2 18/3/2 22/3/2
f 15/3/2 21/3/2 23/3/2
f 21/3/2 22/3/2 23/3/2
f 23/3/2 22/3/2 24/3/2
f 22/3/2 18/3/2 25/3/2
f 24/3/2 22/3/2 25/3/2
f 25/3/2 18/3/2 26/3/2
f 24/3/2 25/3/2 27/3/2
f 27/3/2 25/3/2 28/3/2
f 28/3/2 25/3/2 29/3/2
f 29/3/2 25/3/2 30/3/2
f 28/3/2 29/3/2 31/3/2
f 31/3/2 29/3/2 32/3/2
f 32/3/2 29/3/2 33/3/2
f 33/3/2 29/3/2 34/3/2
f 32/3/2 33/3/2 35/3/2
f 35/3/2 33/3/2 36/3/2
f 37/3/2 38/3/2 39/3/2
f 39/3/2 38/3/2 40/3/2
f 41/4/2 42/4/2 44/4/2
f 44/4/2 42/4/2 45/4/2
f 43/4/2 44/4/2 48/4/2
f 45/4/2 46/4/2 48/4/2
f 44/4/2 45/4/2 48/4/2
f 48/4/2 46/4/2 49/4/2
f 47/4/2 48/4/2 52/4/2
f 49/4/2 50/4/2 52/4/2
f 48/4/2 49/4/2 52/4/2
f 52/4/2 50/4/2 53/4/2
f 51/4/2 52/4/2 56/4/2
f 53/4/2 54/4/2 56/4/2
f 52/4/2 53/4/2 56/4/2
f 56/4/2 54/4/2 57/4/2
f 57/4/2 54/4/2 58/4/2
f 58/4/2 54/4/2 59/4/2
f 55/4/2 56/4/2 62/4/2
f 56/4/2 57/4/2 62/4/2
f 62/4/2 57/4/2 63/4/2
f 63/4/2 57/4/2 64/4/2
f 58/4/2 59/4/2 65/4/2
f 59/4/2 60/4/2 65/4/2
f 65/4/2 60/4/2 66/4/2
f 66/4/2 60/4/2 67/4/2
f 62/4/2 63/4/2 69/4/2
f 61/4/2 62/4/2 69/4/2
f 69/4/2 63/4/2 70/4/2
f 67/4/2 68/4/2 71/4/2
f 66/4/2 67/4/2 71/4/2
f 71/4/2 68/4/2 72/4/2
f 61/4/2 69/4/2 74/4/2
f 72/4/2 68/4/2 75/4/2
f 73/4/2 74/4/2 77/4/2
f 74/4/2 69/4/2 77/4/2
f 77/4/2 69/4/2 78/4/2
f 75/4/2 76/4/2 79/4/2
f 72/4/2 75/4/2 79/4/2
f 79/4/2 76/4/2 80/4/2
f 73/4/2 77/4/2 81/4/2
f 80/4/2 76/4/2 84/4/2
f 81/4/2 82/4/2 85/4/2
f 73/4/2 81/4/2 85/4/2
f 85/4/2 82/4/2 86/4/2
f 83/4/2 84/4/2 87/4/2
f 84/4/2 76/4/2 87/4/2
f 87/4/2 76/4/2 88/4/2
f 86/4/2 82/4/2 89/4/2
f 83/4/2 87/4/2 92/4/2
f 89/4/2 90/4/2 93/4/2
f 86/4/2 89/4/2 93/4/2
f 93/4/2 90/4/2 94/4/2
f 94/4/2 90/4/2 95/4/2
f 91/4/2 92/4/2 98/4/2
f 92/4/2 87/4/2 99/4/2
f 98/4/2 92/4/2 99/4/2
f 99/4/2 87/4/2 100/4/2
f 95/4/2 96/4/2 101/4/2
f 94/4/2 95/4/2 101/4/2
f 101/4/2 96/4/2 102/4/2
f 102/4/2 96/4/2 103/4/2
f 97/4/2 98/4/2 104/4/2
f 98/4/2 99/4/2 104/4/2
f 104/4/2 99/4/2 105/4/2
f 105/4/2 99/4/2 106/4/2
f 102/4/2 103/4/2 107/4/2
f 104/4/2 105/4/2 107/4/2
f 103/4/2 104/4/2 107/4/2
f 107/4/2 105/4/2 108/4/2
f 108/4/2 105/4/2 109/4/2
f 109/4/2 105/4/2 110/4/2
f 108/4/2 109/4/2 111/4/2
f 111/4/2 109/4/2 112/4/2
f 112/4/2 109/4/2 113/4/2
f 113/4/2 109/4/2 114/4/2
f 112/4/2 113/4/2 115/4/2
f 115/4/2 113/4/2 116/4/2
f 116/4/2 113/4/2 117/4/2
f 117/4/2 113/4/2 118/4/2
f 116/4/2 117/4/2 119/4/2
f 119/4/2 117/4/2 120/4/2
f 121/4/2 122/4/2 123/4/2
f 123/4/2 122/4/2 124/4/2
f 121/4/2 123/4/2 125/4/2
f 125/4/2 123/4/2 126/4/2
f 124/4/2 122/4/2 127/4/2
f 127/4/2 122/4/2 128/4/2
f 121/4/2 125/4/2 129/4/2
f 129/4/2 125/4/2 130/4/2
f 128/4/2 122/4/2 131/4/2
f 131/4/2 122/4/2 132/4/2
f 121/4/2 129/4/2 133/4/2
f 133/4/2 129/4/2 134/4/2
f 132/4/2 122/4/2 135/4/2
f 135/4/2 122/4/2 136/4/2
f 121/4/2 133/4/2 137/4/2
f 137/4/2 133/4/2 138/4/2
f 136/4/2 122/4/2 139/4/2
f 139/4/2 122/4/2 140/4/2
f 121/4/2 137/4/2 141/4/2
f 141/4/2 137/4/2 142/4/2
f 140/4/2 122/4/2 143/4/2
f 143/4/2 122/4/2 144/4/2
f 121/4/2 141/4/2 145/4/2
f 145/4/2 141/4/2 146/4/2
f 144/4/2 122/4/2 147/4/2
f 147/4/2 122/4/2 148/4/2
f 121/4/2 145/4/2 149/4/2
f 148/4/2 122/4/2 152/4/2
f 149/4/2 150/4/2 153/4/2
f 151/4/2 152/4/2 156/4/2
f 153/4/2 154/4/2 157/4/2
f 155/4/2 156/4/2 160/4/2
f 157/4/2 158/4/2 161/4/2
f 159/4/2 160/4/2 164/4/2
f 161/4/2 162/4/2 165/4/2
f 163/4/2 164/4/2 168/4/2
f 165/4/2 166/4/2 169/4/2
f 167/4/2 168/4/2 172/4/2
f 169/4/2 170/4/2 173/4/2
f 171/4/2 172/4/2 174/4/2
f 169/4/2 173/4/2 175/4/2
f 173/4/2 174/4/2 175/4/2
f 121/4/2 149/4/2 175/4/2
f 149/4/2 153/4/2 175/4/2
f 153/4/2 157/4/2 175/4/2
f 157/4/2 161/4/2 175/4/2
f 165/4/2 169/4/2 175/4/2
f 161/4/2 165/4/2 175/4/2
f 174/4/2 172/4/2 176/4/2
f 175/4/2 174/4/2 176/4/2
f 152/4/2 122/4/2 176/4/2
f 172/4/2 168/4/2 176/4/2
f 164/4/2 160/4/2 176/4/2
f 156/4/2 152/4/2 176/4/2
f 168/4/2 164/4/2 176/4/2
f 160/4/2 156/4/2 176/4/2
f 179/4/3 178/4/3 177/4/3
f 180/4/3 178/4/3 179/4/3
f 183/3/3 182/3/3 181/3/3
f 184/3/3 182/3/3 183/3/3
f 189/4/3 186/4/3 185/4/3
f 190/4/3 186/4/3 189/4/3
f 191/4/3 188/4/3 187/4/3
f 192/4/3 188/4/3 191/4/3
f 197/4/3 194/4/3 193/4/3
f 198/4/3 196/4/3 195/4/3
f 199/4/3 194/4/3 197/4/3
f 200/4/3 194/4/3 199/4/3
f 201/4/3 198/4/3 195/4/3
f 202/4/3 198/4/3 201/4/3
f 207/4/3 204/4/3 203/4/3
f 208/4/3 204/4/3 207/4/3
f 209/4/3 206/4/3 205/4/3
f 210/4/3 206/4/3 209/4/3
f 217/4/3 212/4/3 211/4/3
f 218/4/3 212/4/3 217/4/3
f 219/4/3 214/4/3 213/4/3
f 220/4/3 214/4/3 219/4/3
f 223/4/3 216/4/3 215/4/3
f 224/4/3 216/4/3 223/4/3
f 225/4/3 222/4/3 221/4/3
f 226/4/3 222/4/3 225/4/3
f 231/4/3 228/4/3 227/4/3
f 232/4/3 228/4/3 231/4/3
f 235/4/3 230/4/3 229/4/3
f 236/4/3 230/4/3 235/4/3
f 237/4/3 234/4/3 233/4/3
f 238/4/3 234/4/3 237/4/3
f 243/4/3 240/4/3 239/4/3
f 244/4/3 240/4/3 243/4/3
f 245/4/3 242/4/3 241/4/3
f 246/4/3 242/4/3 245/4/3
f 251/4/3 248/4/3 247/4/3
f 252/4/3 248/4/3 251/4/3
f 253/4/3 250/4/3 249/4/3
f 254/4/3 250/4/3 253/4/3
f 259/4/3 256/4/3 255/4/3
f 260/4/3 256/4/3 259/4/3
f 261/4/3 258/4/3 257/4/3
f 262/4/3 258/4/3 261/4/3
f 265/1/3 264/1/3 263/1/3
f 266/1/3 264/1/3 265/1/3
f 267/4/3 266/4/3 265/4/3
f 268/4/3 266/4/3 267/4/3
f 269/1/4 270/1/4 271/1/4
f 271/1/4 270/1/4 272/1/4
f 271/4/4 272/4/4 273/4/4
f 273/4/4 272/4/4 274/4/4
f 275/4/4 276/4/4 279/4/4
f 279/4/4 276/4/4 280/4/4
f 277/4/4 278/4/4 281/4/4
f 281/4/4 278/4/4 282/4/4
f 283/4/4 284/4/4 287/4/4
f 287/4/4 284/4/4 288/4/4
f 285/4/4 286/4/4 289/4/4
f 289/4/4 286/4/4 290/4/4
f 291/4/4 292/4/4 295/4/4
f 295/4/4 292/4/4 296/4/4
f 293/4/4 294/4/4 297/4/4
f 297/4/4 294/4/4 298/4/4
f 299/4/4 300/4/4 303/4/4
f 303/4/4 300/4/4 304/4/4
f 301/4/4 302/4/4 307/4/4
f 307/4/4 302/4/4 308/4/4
f 305/4/4 306/4/4 309/4/4
f 309/4/4 306/4/4 310/4/4
f 311/4/4 312/4/4 317/4/4
f 317/4/4 312/4/4 318/4/4
f 313/4/4 314/4/4 319/4/4
f 319/4/4 314/4/4 320/4/4
f 315/4/4 316/4/4 323/4/4
f 323/4/4 316/4/4 324/4/4
f 321/4/4 322/4/4 325/4/4
f 325/4/4 322/4/4 326/4/4
f 327/4/4 328/4/4 331/4/4
f 331/4/4 328/4/4 332/4/4
f 329/4/4 330/4/4 333/4/4
f 333/4/4 330/4/4 334/4/4
f 335/4/4 336/4/4 339/4/4
f 337/4/4 338/4/4 340/4/4
f 339/4/4 336/4/4 341/4/4
f 341/4/4 336/4/4 342/4/4
f 337/4/4 340/4/4 343/4/4
f 343/4/4 340/4/4 344/4/4
f 345/4/4 346/4/4 349/4/4
f 349/4/4 346/4/4 350/4/4
f 347/4/4 348/4/4 351/4/4
f 351/4/4 348/4/4 352/4/4
f 353/3/4 354/3/4 355/3/4
f 355/3/4 354/3/4 356/3/4
f 357/4/4 358/4/4 359/4/4
f 359/4/4 358/4/4 360/4/4
f 363/4/5 362/4/5 361/4/5
f 364/4/5 362/4/5 363/4/5
f 367/3/5 366/3/5 365/3/5
f 368/3/5 366/3/5 367/3/5
f 371/4/5 370/4/5 369/4/5
f 372/4/5 370/4/5 371/4/5
f 375/4/5 374/4/5 373/4/5
f 376/4/5 374/4/5 375/4/5
f 380/4/5 378/4/5 377/4/5
f 380/4/5 379/4/5 378/4/5
f 381/4/5 379/4/5 380/4/5
f 384/4/5 383/4/5 382/4/5
f 385/4/5 383/4/5 384/4/5
f 386/4/5 383/4/5 385/4/5
f 389/4/5 388/4/5 387/4/5
f 390/4/5 388/4/5 389/4/5
f 393/4/5 392/4/5 391/4/5
f 394/4/5 392/4/5 393/4/5
f 397/4/5 396/4/5 395/4/5
f 398/4/5 396/4/5 397/4/5
f 401/4/5 400/4/5 399/4/5
f 402/4/5 400/4/5 401/4/5
f 405/4/5 404/4/5 403/4/5
f 406/4/5 404/4/5 405/4/5
f 409/4/5 408/4/5 407/4/5
f 410/4/5 408/4/5 409/4/5
f 413/4/5 412/4/5 411/4/5
f 414/4/5 412/4/5 413/4/5
f 417/4/5 416/4/5 415/4/5
f 418/4/5 416/4/5 417/4/5
f 421/4/5 420/4/5 419/4/5
f 422/4/5 420/4/5 421/4/5
f 425/4/5 424/4/5 423/4/5
f 426/4/5 424/4/5 425/4/5
f 429/4/5 428/4/5 427/4/5
f 430/4/5 428/4/5 429/4/5
f 433/4/5 432/4/5 431/4/5
f 434/4/5 432/4/5 433/4/5
f 437/4/5 436/4/5 435/4/5
f 438/4/5 436/4/5 437/4/5
f 441/4/5 440/4/5 439/4/5
f 442/4/5 440/4/5 441/4/5
f 445/4/5 444/4/5 443/4/5
f 446/4/5 444/4/5 445/4/5
f 450/1/5 448/1/5 447/1/5
f 451/4/5 449/4/5 448/4/5
f 451/1/5 448/1/5 450/1/5
f 452/4/5 449/4/5 451/4/5
f 453/1/6 454/1/6 456/1/6
f 454/4/6 455/4/6 457/4/6
f 456/1/6 454/1/6 457/1/6
f 457/4/6 455/4/6 458/4/6
f 459/4/6 460/4/6 461/4/6
f 461/4/6 460/4/6 462/4/6
f 463/4/6 464/4/6 465/4/6
f 465/4/6 464/4/6 466/4/6
f 467/4/6 468/4/6 469/4/6
f 469/4/6 468/4/6 470/4/6
f 471/4/6 472/4/6 473/4/6
f 473/4/6 472/4/6 474/4/6
f 475/4/6 476/4/6 477/4/6
f 477/4/6 476/4/6 478/4/6
f 479/4/6 480/4/6 481/4/6
f 481/4/6 480/4/6 482/4/6
f 483/4/6 484/4/6 485/4/6
f 485/4/6 484/4/6 486/4/6
f 487/4/6 488/4/6 489/4/6
f 489/4/6 488/4/6 490/4/6
f 491/4/6 492/4/6 493/4/6
f 493/4/6 492/4/6 494/4/6
f 495/4/6 496/4/6 497/4/6
f 497/4/6 496/4/6 498/4/6
f 499/4/6 500/4/6 501/4/6
f 501/4/6 500/4/6 502/4/6
f 503/4/6 504/4/6 505/4/6
f 505/4/6 504/4/6 506/4/6
f 507/4/6 508/4/6 509/4/6
f 509/4/6 508/4/6 510/4/6
f 511/4/6 512/4/6 513/4/6
f 513/4/6 512/4/6 514/4/6
f 515/4/6 516/4/6 517/4/6
f 517/4/6 516/4/6 518/4/6
f 519/4/6 520/4/6 522/4/6
f 520/4/6 521/4/6 522/4/6
f 522/4/6 521/4/6 523/4/6
f 524/4/6 525/4/6 526/4/6
f 526/4/6 525/4/6 527/4/6
f 527/4/6 525/4/6 528/4/6
f 529/4/6 530/4/6 531/4/6
f 531/4/6 530/4/6 532/4/6
f 533/4/6 534/4/6 535/4/6
f 535/4/6 534/4/6 536/4/6
f 537/3/6 538/3/6 539/3/6
f 539/3/6 538/3/6 540/3/6
f 541/4/6 542/4/6 543/4/6
f 543/4/6 542/4/6 544/4/6
