# MagicaVoxel @ Ephtracy

# group
g blank-other16bit-cart

# material
mtllib blank-other16bit-cart.mtl
usemtl palette

# normals
vn -1 0 0
vn 1 0 0
vn 0 0 1
vn 0 0 -1
vn 0 -1 0
vn 0 1 0

# texcoords
vt 0.396484 0.5
vt 0.974609 0.5
vt 0.978516 0.5
vt 0.986328 0.5
vt 0.990234 0.5
vt 0.994141 0.5

# verts
v -20 0 3
v -20 0 -4
v -20 25 3
v -20 25 -4
v -19 25 3
v -19 25 -4
v -19 26 3
v -19 26 -4
v -18 0 -4
v -18 0 -5
v -18 26 -4
v -18 26 -5
v -17 0 4
v -17 0 3
v -17 26 4
v -17 26 3
v -16 1 -1
v -16 1 -2
v -16 5 -1
v -16 5 -2
v -12 0 5
v -12 0 4
v -12 4 5
v -12 4 4
v -12 13 5
v -12 13 4
v -12 26 5
v -12 26 4
v 18 0 2
v 18 0 -4
v 18 5 2
v 18 5 -4
v -18 0 2
v -18 0 -4
v -18 5 2
v -18 5 -4
v 12 0 5
v 12 0 4
v 12 4 5
v 12 4 4
v 12 13 5
v 12 13 4
v 12 26 5
v 12 26 4
v 16 1 -1
v 16 1 -2
v 16 5 -1
v 16 5 -2
v 18 0 4
v 18 0 3
v 18 0 -4
v 18 0 -5
v 18 26 4
v 18 26 3
v 18 26 -4
v 18 26 -5
v 19 24 3
v 19 24 -4
v 19 26 3
v 19 26 -4
v 20 0 3
v 20 0 -4
v 20 24 3
v 20 24 -4
v -12 0 5
v -12 4 5
v -12 13 5
v -12 26 5
v -10 7 5
v -10 10 5
v -9 8 5
v -9 9 5
v -7 10 5
v -7 11 5
v -6 9 5
v -6 10 5
v -4 6 5
v -4 7 5
v -3 7 5
v -3 8 5
v 3 7 5
v 3 8 5
v 4 6 5
v 4 7 5
v 6 9 5
v 6 10 5
v 7 10 5
v 7 11 5
v 9 8 5
v 9 9 5
v 10 7 5
v 10 10 5
v 12 0 5
v 12 4 5
v 12 13 5
v 12 26 5
v -17 0 4
v -17 26 4
v -16 4 4
v -16 13 4
v -16 26 4
v -12 0 4
v -12 4 4
v -12 13 4
v -12 26 4
v 12 0 4
v 12 4 4
v 12 13 4
v 12 26 4
v 17 4 4
v 17 13 4
v 17 26 4
v 18 0 4
v 18 26 4
v -20 0 3
v -20 25 3
v -19 25 3
v -19 26 3
v -17 0 3
v -17 26 3
v 18 0 3
v 18 26 3
v 19 24 3
v 19 26 3
v 20 0 3
v 20 24 3
v -16 1 -1
v -16 5 -1
v -14 1 -1
v -14 2 -1
v -11 1 -1
v -11 2 -1
v -10 1 -1
v -10 2 -1
v -8 1 -1
v -8 2 -1
v -7 1 -1
v -7 2 -1
v -5 1 -1
v -5 2 -1
v -4 1 -1
v -4 2 -1
v 1 1 -1
v 1 2 -1
v 2 1 -1
v 2 2 -1
v 7 1 -1
v 7 2 -1
v 8 1 -1
v 8 2 -1
v 10 1 -1
v 10 2 -1
v 11 1 -1
v 11 2 -1
v 14 1 -1
v 14 2 -1
v 16 1 -1
v 16 5 -1
v -18 0 -4
v -18 5 -4
v 18 0 -4
v 18 5 -4
v -18 0 2
v -18 5 2
v 18 0 2
v 18 5 2
v -16 1 -2
v -16 5 -2
v -14 1 -2
v -14 2 -2
v -11 1 -2
v -11 2 -2
v -10 1 -2
v -10 2 -2
v -8 1 -2
v -8 2 -2
v -7 1 -2
v -7 2 -2
v -5 1 -2
v -5 2 -2
v -4 1 -2
v -4 2 -2
v 1 1 -2
v 1 2 -2
v 2 1 -2
v 2 2 -2
v 7 1 -2
v 7 2 -2
v 8 1 -2
v 8 2 -2
v 10 1 -2
v 10 2 -2
v 11 1 -2
v 11 2 -2
v 14 1 -2
v 14 2 -2
v 16 1 -2
v 16 5 -2
v -20 0 -4
v -20 25 -4
v -19 25 -4
v -19 26 -4
v -18 0 -4
v -18 26 -4
v 18 0 -4
v 18 26 -4
v 19 24 -4
v 19 26 -4
v 20 0 -4
v 20 24 -4
v -18 0 -5
v -18 26 -5
v -16 21 -5
v -16 26 -5
v -15 10 -5
v -15 16 -5
v -14 9 -5
v -14 10 -5
v -14 16 -5
v -14 17 -5
v 15 9 -5
v 15 10 -5
v 15 16 -5
v 15 17 -5
v 16 10 -5
v 16 16 -5
v 17 21 -5
v 17 26 -5
v 18 0 -5
v 18 26 -5
v -12 0 5
v 12 0 5
v -17 0 4
v -12 0 4
v 12 0 4
v 18 0 4
v -20 0 3
v -17 0 3
v 18 0 3
v 20 0 3
v -18 0 2
v 18 0 2
v -20 0 -4
v -18 0 -4
v 18 0 -4
v 20 0 -4
v -18 0 -5
v 18 0 -5
v -16 1 -1
v -14 1 -1
v -11 1 -1
v -10 1 -1
v -8 1 -1
v -7 1 -1
v -5 1 -1
v -4 1 -1
v 1 1 -1
v 2 1 -1
v 7 1 -1
v 8 1 -1
v 10 1 -1
v 11 1 -1
v 14 1 -1
v 16 1 -1
v -16 1 -2
v -14 1 -2
v -11 1 -2
v -10 1 -2
v -8 1 -2
v -7 1 -2
v -5 1 -2
v -4 1 -2
v 1 1 -2
v 2 1 -2
v 7 1 -2
v 8 1 -2
v 10 1 -2
v 11 1 -2
v 14 1 -2
v 16 1 -2
v -18 5 2
v 18 5 2
v -16 5 -1
v 16 5 -1
v -16 5 -2
v 16 5 -2
v -18 5 -4
v 18 5 -4
v 19 24 3
v 20 24 3
v 19 24 -4
v 20 24 -4
v -20 25 3
v -19 25 3
v -20 25 -4
v -19 25 -4
v -12 26 5
v 12 26 5
v -17 26 4
v -16 26 4
v -12 26 4
v 12 26 4
v 17 26 4
v 18 26 4
v -19 26 3
v -17 26 3
v 18 26 3
v 19 26 3
v -19 26 -4
v -18 26 -4
v 18 26 -4
v 19 26 -4
v -18 26 -5
v -16 26 -5
v 17 26 -5
v 18 26 -5

# faces
f 3/5/1 2/5/1 1/5/1
f 4/5/1 2/5/1 3/5/1
f 7/5/1 6/5/1 5/5/1
f 8/5/1 6/5/1 7/5/1
f 11/5/1 10/5/1 9/5/1
f 12/5/1 10/5/1 11/5/1
f 15/5/1 14/5/1 13/5/1
f 16/5/1 14/5/1 15/5/1
f 19/4/1 18/4/1 17/4/1
f 20/4/1 18/4/1 19/4/1
f 23/5/1 22/5/1 21/5/1
f 24/5/1 22/5/1 23/5/1
f 25/6/1 24/6/1 23/6/1
f 26/6/1 24/6/1 25/6/1
f 27/3/1 26/3/1 25/3/1
f 28/3/1 26/3/1 27/3/1
f 31/5/1 30/5/1 29/5/1
f 32/5/1 30/5/1 31/5/1
f 33/5/2 34/5/2 35/5/2
f 35/5/2 34/5/2 36/5/2
f 37/5/2 38/5/2 39/5/2
f 39/5/2 38/5/2 40/5/2
f 39/6/2 40/6/2 41/6/2
f 41/6/2 40/6/2 42/6/2
f 41/3/2 42/3/2 43/3/2
f 43/3/2 42/3/2 44/3/2
f 45/4/2 46/4/2 47/4/2
f 47/4/2 46/4/2 48/4/2
f 49/5/2 50/5/2 53/5/2
f 53/5/2 50/5/2 54/5/2
f 51/5/2 52/5/2 55/5/2
f 55/5/2 52/5/2 56/5/2
f 57/5/2 58/5/2 59/5/2
f 59/5/2 58/5/2 60/5/2
f 61/5/2 62/5/2 63/5/2
f 63/5/2 62/5/2 64/5/2
f 69/6/3 67/6/3 66/6/3
f 70/6/3 67/6/3 69/6/3
f 71/2/3 70/2/3 69/2/3
f 72/2/3 70/2/3 71/2/3
f 73/6/3 67/6/3 70/6/3
f 73/2/3 70/2/3 72/2/3
f 74/6/3 67/6/3 73/6/3
f 75/4/3 72/4/3 71/4/3
f 75/2/3 73/2/3 72/2/3
f 75/2/3 74/2/3 73/2/3
f 76/2/3 74/2/3 75/2/3
f 77/6/3 69/6/3 66/6/3
f 78/2/3 71/2/3 69/2/3
f 78/6/3 69/6/3 77/6/3
f 79/2/3 78/2/3 77/2/3
f 79/2/3 71/2/3 78/2/3
f 80/4/3 75/4/3 71/4/3
f 80/2/3 71/2/3 79/2/3
f 80/4/3 76/4/3 75/4/3
f 81/2/3 79/2/3 77/2/3
f 81/4/3 80/4/3 79/4/3
f 82/4/3 76/4/3 80/4/3
f 82/4/3 80/4/3 81/4/3
f 83/6/3 77/6/3 66/6/3
f 83/2/3 81/2/3 77/2/3
f 83/2/3 82/2/3 81/2/3
f 84/2/3 82/2/3 83/2/3
f 85/4/3 76/4/3 82/4/3
f 86/2/3 74/2/3 76/2/3
f 86/4/3 76/4/3 85/4/3
f 87/2/3 86/2/3 85/2/3
f 87/2/3 74/2/3 86/2/3
f 88/6/3 67/6/3 74/6/3
f 88/2/3 74/2/3 87/2/3
f 89/4/3 85/4/3 82/4/3
f 89/2/3 82/2/3 84/2/3
f 90/2/3 87/2/3 85/2/3
f 90/4/3 85/4/3 89/4/3
f 91/2/3 89/2/3 84/2/3
f 91/6/3 84/6/3 83/6/3
f 91/2/3 90/2/3 89/2/3
f 92/2/3 87/2/3 90/2/3
f 92/2/3 90/2/3 91/2/3
f 92/6/3 88/6/3 87/6/3
f 93/5/3 66/5/3 65/5/3
f 94/6/3 91/6/3 83/6/3
f 94/5/3 66/5/3 93/5/3
f 94/6/3 83/6/3 66/6/3
f 94/6/3 92/6/3 91/6/3
f 95/6/3 88/6/3 92/6/3
f 95/6/3 92/6/3 94/6/3
f 95/3/3 68/3/3 67/3/3
f 95/6/3 67/6/3 88/6/3
f 96/3/3 68/3/3 95/3/3
f 99/5/3 98/5/3 97/5/3
f 100/5/3 98/5/3 99/5/3
f 101/5/3 98/5/3 100/5/3
f 102/5/3 99/5/3 97/5/3
f 103/6/3 100/6/3 99/6/3
f 103/5/3 99/5/3 102/5/3
f 104/3/3 101/3/3 100/3/3
f 104/6/3 100/6/3 103/6/3
f 105/3/3 101/3/3 104/3/3
f 110/5/3 107/5/3 106/5/3
f 110/6/3 108/6/3 107/6/3
f 111/3/3 109/3/3 108/3/3
f 111/6/3 108/6/3 110/6/3
f 112/3/3 109/3/3 111/3/3
f 113/5/3 110/5/3 106/5/3
f 113/5/3 111/5/3 110/5/3
f 113/5/3 112/5/3 111/5/3
f 114/5/3 112/5/3 113/5/3
f 117/5/3 116/5/3 115/5/3
f 119/5/3 117/5/3 115/5/3
f 119/5/3 118/5/3 117/5/3
f 120/5/3 118/5/3 119/5/3
f 123/5/3 122/5/3 121/5/3
f 124/5/3 122/5/3 123/5/3
f 125/5/3 123/5/3 121/5/3
f 126/5/3 123/5/3 125/5/3
f 129/4/3 128/4/3 127/4/3
f 130/4/3 128/4/3 129/4/3
f 131/1/3 130/1/3 129/1/3
f 132/4/3 128/4/3 130/4/3
f 132/1/3 130/1/3 131/1/3
f 133/4/3 132/4/3 131/4/3
f 134/4/3 128/4/3 132/4/3
f 134/4/3 132/4/3 133/4/3
f 135/1/3 134/1/3 133/1/3
f 136/4/3 128/4/3 134/4/3
f 136/1/3 134/1/3 135/1/3
f 137/4/3 136/4/3 135/4/3
f 138/4/3 128/4/3 136/4/3
f 138/4/3 136/4/3 137/4/3
f 139/1/3 138/1/3 137/1/3
f 140/4/3 128/4/3 138/4/3
f 140/1/3 138/1/3 139/1/3
f 141/4/3 140/4/3 139/4/3
f 142/4/3 128/4/3 140/4/3
f 142/4/3 140/4/3 141/4/3
f 143/1/3 142/1/3 141/1/3
f 144/4/3 128/4/3 142/4/3
f 144/1/3 142/1/3 143/1/3
f 145/4/3 144/4/3 143/4/3
f 146/4/3 128/4/3 144/4/3
f 146/4/3 144/4/3 145/4/3
f 147/1/3 146/1/3 145/1/3
f 148/4/3 128/4/3 146/4/3
f 148/1/3 146/1/3 147/1/3
f 149/4/3 148/4/3 147/4/3
f 150/4/3 128/4/3 148/4/3
f 150/4/3 148/4/3 149/4/3
f 151/1/3 150/1/3 149/1/3
f 152/4/3 128/4/3 150/4/3
f 152/1/3 150/1/3 151/1/3
f 153/4/3 152/4/3 151/4/3
f 154/4/3 128/4/3 152/4/3
f 154/4/3 152/4/3 153/4/3
f 155/1/3 154/1/3 153/1/3
f 156/4/3 128/4/3 154/4/3
f 156/1/3 154/1/3 155/1/3
f 157/4/3 156/4/3 155/4/3
f 158/4/3 128/4/3 156/4/3
f 158/4/3 156/4/3 157/4/3
f 161/5/3 160/5/3 159/5/3
f 162/5/3 160/5/3 161/5/3
f 163/5/4 164/5/4 165/5/4
f 165/5/4 164/5/4 166/5/4
f 167/4/4 168/4/4 169/4/4
f 169/4/4 168/4/4 170/4/4
f 169/1/4 170/1/4 171/1/4
f 170/4/4 168/4/4 172/4/4
f 171/1/4 170/1/4 172/1/4
f 171/4/4 172/4/4 173/4/4
f 172/4/4 168/4/4 174/4/4
f 173/4/4 172/4/4 174/4/4
f 173/1/4 174/1/4 175/1/4
f 174/4/4 168/4/4 176/4/4
f 175/1/4 174/1/4 176/1/4
f 175/4/4 176/4/4 177/4/4
f 176/4/4 168/4/4 178/4/4
f 177/4/4 176/4/4 178/4/4
f 177/1/4 178/1/4 179/1/4
f 178/4/4 168/4/4 180/4/4
f 179/1/4 178/1/4 180/1/4
f 179/4/4 180/4/4 181/4/4
f 180/4/4 168/4/4 182/4/4
f 181/4/4 180/4/4 182/4/4
f 181/1/4 182/1/4 183/1/4
f 182/4/4 168/4/4 184/4/4
f 183/1/4 182/1/4 184/1/4
f 183/4/4 184/4/4 185/4/4
f 184/4/4 168/4/4 186/4/4
f 185/4/4 184/4/4 186/4/4
f 185/1/4 186/1/4 187/1/4
f 186/4/4 168/4/4 188/4/4
f 187/1/4 186/1/4 188/1/4
f 187/4/4 188/4/4 189/4/4
f 188/4/4 168/4/4 190/4/4
f 189/4/4 188/4/4 190/4/4
f 189/1/4 190/1/4 191/1/4
f 190/4/4 168/4/4 192/4/4
f 191/1/4 190/1/4 192/1/4
f 191/4/4 192/4/4 193/4/4
f 192/4/4 168/4/4 194/4/4
f 193/4/4 192/4/4 194/4/4
f 193/1/4 194/1/4 195/1/4
f 194/4/4 168/4/4 196/4/4
f 195/1/4 194/1/4 196/1/4
f 195/4/4 196/4/4 197/4/4
f 196/4/4 168/4/4 198/4/4
f 197/4/4 196/4/4 198/4/4
f 199/5/4 200/5/4 201/5/4
f 199/5/4 201/5/4 203/5/4
f 201/5/4 202/5/4 203/5/4
f 203/5/4 202/5/4 204/5/4
f 205/5/4 206/5/4 207/5/4
f 207/5/4 206/5/4 208/5/4
f 205/5/4 207/5/4 209/5/4
f 209/5/4 207/5/4 210/5/4
f 211/5/4 212/5/4 213/5/4
f 213/5/4 212/5/4 214/5/4
f 211/5/4 213/5/4 215/5/4
f 215/5/4 213/5/4 216/5/4
f 211/5/4 215/5/4 217/5/4
f 215/6/4 216/6/4 218/6/4
f 217/5/4 215/5/4 218/5/4
f 216/5/4 213/5/4 219/5/4
f 218/6/4 216/6/4 219/6/4
f 219/5/4 213/5/4 220/5/4
f 217/6/4 218/6/4 221/6/4
f 211/5/4 217/5/4 221/5/4
f 219/6/4 220/6/4 221/6/4
f 218/6/4 219/6/4 221/6/4
f 221/6/4 220/6/4 222/6/4
f 222/6/4 220/6/4 223/6/4
f 220/5/4 213/5/4 224/5/4
f 223/6/4 220/6/4 224/6/4
f 222/6/4 223/6/4 225/6/4
f 221/5/4 222/5/4 225/5/4
f 223/5/4 224/5/4 226/5/4
f 225/6/4 223/6/4 226/6/4
f 213/3/4 214/3/4 227/3/4
f 226/5/4 224/5/4 227/5/4
f 225/5/4 226/5/4 227/5/4
f 224/5/4 213/5/4 227/5/4
f 227/3/4 214/3/4 228/3/4
f 221/5/4 225/5/4 229/5/4
f 211/5/4 221/5/4 229/5/4
f 227/5/4 228/5/4 229/5/4
f 225/5/4 227/5/4 229/5/4
f 229/5/4 228/5/4 230/5/4
f 234/5/5 232/5/5 231/5/5
f 235/5/5 232/5/5 234/5/5
f 238/5/5 234/5/5 233/5/5
f 238/5/5 236/5/5 235/5/5
f 238/5/5 235/5/5 234/5/5
f 239/5/5 236/5/5 238/5/5
f 241/5/5 238/5/5 237/5/5
f 241/5/5 240/5/5 239/5/5
f 241/5/5 239/5/5 238/5/5
f 242/5/5 240/5/5 241/5/5
f 243/5/5 241/5/5 237/5/5
f 244/5/5 241/5/5 243/5/5
f 245/5/5 240/5/5 242/5/5
f 246/5/5 240/5/5 245/5/5
f 247/5/5 245/5/5 244/5/5
f 248/5/5 245/5/5 247/5/5
f 265/4/5 250/4/5 249/4/5
f 266/1/5 251/1/5 250/1/5
f 266/4/5 250/4/5 265/4/5
f 267/4/5 252/4/5 251/4/5
f 267/1/5 251/1/5 266/1/5
f 268/1/5 253/1/5 252/1/5
f 268/4/5 252/4/5 267/4/5
f 269/4/5 254/4/5 253/4/5
f 269/1/5 253/1/5 268/1/5
f 270/1/5 255/1/5 254/1/5
f 270/4/5 254/4/5 269/4/5
f 271/4/5 256/4/5 255/4/5
f 271/1/5 255/1/5 270/1/5
f 272/1/5 257/1/5 256/1/5
f 272/4/5 256/4/5 271/4/5
f 273/4/5 258/4/5 257/4/5
f 273/1/5 257/1/5 272/1/5
f 274/1/5 259/1/5 258/1/5
f 274/4/5 258/4/5 273/4/5
f 275/4/5 260/4/5 259/4/5
f 275/1/5 259/1/5 274/1/5
f 276/1/5 261/1/5 260/1/5
f 276/4/5 260/4/5 275/4/5
f 277/4/5 262/4/5 261/4/5
f 277/1/5 261/1/5 276/1/5
f 278/1/5 263/1/5 262/1/5
f 278/4/5 262/4/5 277/4/5
f 279/4/5 264/4/5 263/4/5
f 279/1/5 263/1/5 278/1/5
f 280/4/5 264/4/5 279/4/5
f 283/5/5 282/5/5 281/5/5
f 284/5/5 282/5/5 283/5/5
f 285/5/5 283/5/5 281/5/5
f 286/5/5 282/5/5 284/5/5
f 287/5/5 285/5/5 281/5/5
f 287/5/5 286/5/5 285/5/5
f 288/5/5 282/5/5 286/5/5
f 288/5/5 286/5/5 287/5/5
f 289/5/6 290/5/6 291/5/6
f 291/5/6 290/5/6 292/5/6
f 293/5/6 294/5/6 295/5/6
f 295/5/6 294/5/6 296/5/6
f 297/3/6 298/3/6 301/3/6
f 301/3/6 298/3/6 302/3/6
f 299/5/6 300/5/6 306/5/6
f 303/5/6 304/5/6 307/5/6
f 305/5/6 306/5/6 309/5/6
f 309/5/6 306/5/6 310/5/6
f 307/5/6 308/5/6 311/5/6
f 303/5/6 307/5/6 311/5/6
f 311/5/6 308/5/6 312/5/6
f 310/5/6 306/5/6 313/5/6
f 300/3/6 301/3/6 314/3/6
f 313/5/6 306/5/6 314/5/6
f 301/3/6 302/3/6 314/3/6
f 302/3/6 303/3/6 314/3/6
f 306/5/6 300/5/6 314/5/6
f 303/5/6 311/5/6 315/5/6
f 314/3/6 303/3/6 315/3/6
f 315/5/6 311/5/6 316/5/6
