# MagicaVoxel @ Ephtracy

# group
g blank-other16bit-cart

# material
mtllib blank-other16bit-cart.mtl
usemtl palette

# normals
vn -1 0 0
vn 1 0 0
vn 0 0 1
vn 0 0 -1
vn 0 -1 0
vn 0 1 0

# texcoords
vt 0.00585938 0.5
vt 0.0136719 0.5
vt 0.396484 0.5
vt 0.779297 0.5
vt 0.939453 0.5
vt 0.974609 0.5
vt 0.978516 0.5
vt 0.986328 0.5
vt 0.990234 0.5
vt 0.994141 0.5

# verts
v -20 0 3
v -20 0 -4
v -20 25 3
v -20 25 -4
v -19 25 3
v -19 25 -4
v -19 26 3
v -19 26 -4
v -18 0 -4
v -18 0 -5
v -18 26 -4
v -18 26 -5
v -17 0 4
v -17 0 3
v -17 26 4
v -17 26 3
v -16 1 -1
v -16 1 -2
v -16 5 -1
v -16 5 -2
v -12 0 5
v -12 0 4
v -12 4 5
v -12 4 4
v -12 13 5
v -12 13 4
v -12 15 5
v -12 15 4
v -12 26 5
v -12 26 4
v 18 0 2
v 18 0 -4
v 18 5 2
v 18 5 -4
v -18 0 2
v -18 0 -4
v -18 5 2
v -18 5 -4
v 12 0 5
v 12 0 4
v 12 4 5
v 12 4 4
v 12 13 5
v 12 13 4
v 12 16 4
v 12 18 5
v 12 18 4
v 12 26 5
v 12 26 4
v 16 1 -1
v 16 1 -2
v 16 5 -1
v 16 5 -2
v 18 0 4
v 18 0 3
v 18 0 -4
v 18 0 -5
v 18 26 4
v 18 26 3
v 18 26 -4
v 18 26 -5
v 19 24 3
v 19 24 -4
v 19 26 3
v 19 26 -4
v 20 0 3
v 20 0 -4
v 20 24 3
v 20 24 -4
v -12 0 5
v -12 4 5
v -12 13 5
v -12 15 5
v -12 26 5
v -11 15 5
v -11 16 5
v -11 20 5
v -11 21 5
v -11 25 5
v -10 7 5
v -10 10 5
v -10 16 5
v -10 18 5
v -10 19 5
v -10 20 5
v -10 22 5
v -10 25 5
v -9 8 5
v -9 9 5
v -9 16 5
v -9 18 5
v -9 19 5
v -9 20 5
v -9 21 5
v -9 22 5
v -8 15 5
v -8 16 5
v -8 20 5
v -8 21 5
v -8 25 5
v -7 10 5
v -7 11 5
v -7 16 5
v -7 20 5
v -7 21 5
v -7 25 5
v -6 9 5
v -6 10 5
v -6 17 5
v -6 19 5
v -6 21 5
v -6 25 5
v -5 13 5
v -5 14 5
v -5 15 5
v -5 17 5
v -5 19 5
v -5 22 5
v -5 24 5
v -4 6 5
v -4 7 5
v -4 16 5
v -4 20 5
v -4 22 5
v -4 23 5
v -4 24 5
v -4 25 5
v -3 7 5
v -3 8 5
v -3 16 5
v -3 20 5
v -3 21 5
v -3 23 5
v -2 17 5
v -2 20 5
v -2 21 5
v -2 25 5
v -1 17 5
v -1 20 5
v -1 21 5
v -1 23 5
v -1 24 5
v -1 25 5
v 0 16 5
v 0 20 5
v 0 21 5
v 0 23 5
v 0 24 5
v 0 25 5
v 1 13 5
v 1 14 5
v 1 16 5
v 1 17 5
v 1 18 5
v 1 20 5
v 1 21 5
v 1 25 5
v 2 14 5
v 2 15 5
v 2 17 5
v 2 18 5
v 2 19 5
v 2 24 5
v 2 25 5
v 3 7 5
v 3 8 5
v 3 16 5
v 3 18 5
v 3 19 5
v 3 20 5
v 3 21 5
v 3 24 5
v 4 6 5
v 4 7 5
v 4 16 5
v 4 20 5
v 4 21 5
v 4 24 5
v 5 17 5
v 5 18 5
v 5 24 5
v 5 25 5
v 6 9 5
v 6 10 5
v 6 16 5
v 6 17 5
v 6 18 5
v 6 20 5
v 7 10 5
v 7 11 5
v 7 15 5
v 7 16 5
v 8 16 5
v 8 21 5
v 9 8 5
v 9 9 5
v 9 16 5
v 9 17 5
v 9 18 5
v 9 20 5
v 9 21 5
v 9 22 5
v 9 26 5
v 10 7 5
v 10 10 5
v 10 16 5
v 10 17 5
v 10 18 5
v 10 20 5
v 10 22 5
v 10 26 5
v 11 18 5
v 11 22 5
v 12 0 5
v 12 4 5
v 12 13 5
v 12 18 5
v 12 26 5
v -17 0 4
v -17 26 4
v -16 4 4
v -16 13 4
v -16 14 4
v -16 26 4
v -15 13 4
v -15 14 4
v -15 15 4
v -12 0 4
v -12 4 4
v -12 13 4
v -12 15 4
v -12 26 4
v 12 0 4
v 12 4 4
v 12 13 4
v 12 16 4
v 12 18 4
v 12 26 4
v 14 15 4
v 14 16 4
v 17 4 4
v 17 13 4
v 17 15 4
v 17 26 4
v 18 0 4
v 18 26 4
v -20 0 3
v -20 25 3
v -19 25 3
v -19 26 3
v -17 0 3
v -17 26 3
v 18 0 3
v 18 26 3
v 19 24 3
v 19 26 3
v 20 0 3
v 20 24 3
v -16 1 -1
v -16 5 -1
v -14 1 -1
v -14 2 -1
v -11 1 -1
v -11 2 -1
v -10 1 -1
v -10 2 -1
v -8 1 -1
v -8 2 -1
v -7 1 -1
v -7 2 -1
v -5 1 -1
v -5 2 -1
v -4 1 -1
v -4 2 -1
v 1 1 -1
v 1 2 -1
v 2 1 -1
v 2 2 -1
v 7 1 -1
v 7 2 -1
v 8 1 -1
v 8 2 -1
v 10 1 -1
v 10 2 -1
v 11 1 -1
v 11 2 -1
v 14 1 -1
v 14 2 -1
v 16 1 -1
v 16 5 -1
v -18 0 -4
v -18 5 -4
v 18 0 -4
v 18 5 -4
v -18 0 2
v -18 5 2
v 18 0 2
v 18 5 2
v -16 1 -2
v -16 5 -2
v -14 1 -2
v -14 2 -2
v -11 1 -2
v -11 2 -2
v -10 1 -2
v -10 2 -2
v -8 1 -2
v -8 2 -2
v -7 1 -2
v -7 2 -2
v -5 1 -2
v -5 2 -2
v -4 1 -2
v -4 2 -2
v 1 1 -2
v 1 2 -2
v 2 1 -2
v 2 2 -2
v 7 1 -2
v 7 2 -2
v 8 1 -2
v 8 2 -2
v 10 1 -2
v 10 2 -2
v 11 1 -2
v 11 2 -2
v 14 1 -2
v 14 2 -2
v 16 1 -2
v 16 5 -2
v -20 0 -4
v -20 25 -4
v -19 25 -4
v -19 26 -4
v -18 0 -4
v -18 26 -4
v 18 0 -4
v 18 26 -4
v 19 24 -4
v 19 26 -4
v 20 0 -4
v 20 24 -4
v -18 0 -5
v -18 26 -5
v -16 21 -5
v -16 26 -5
v -15 10 -5
v -15 16 -5
v -14 9 -5
v -14 10 -5
v -14 16 -5
v -14 17 -5
v 9 21 -5
v 9 26 -5
v 10 21 -5
v 10 26 -5
v 15 9 -5
v 15 10 -5
v 15 16 -5
v 15 17 -5
v 16 10 -5
v 16 16 -5
v 17 21 -5
v 17 26 -5
v 18 0 -5
v 18 26 -5
v -12 0 5
v 12 0 5
v -17 0 4
v -12 0 4
v 12 0 4
v 18 0 4
v -20 0 3
v -17 0 3
v 18 0 3
v 20 0 3
v -18 0 2
v 18 0 2
v -20 0 -4
v -18 0 -4
v 18 0 -4
v 20 0 -4
v -18 0 -5
v 18 0 -5
v -16 1 -1
v -14 1 -1
v -11 1 -1
v -10 1 -1
v -8 1 -1
v -7 1 -1
v -5 1 -1
v -4 1 -1
v 1 1 -1
v 2 1 -1
v 7 1 -1
v 8 1 -1
v 10 1 -1
v 11 1 -1
v 14 1 -1
v 16 1 -1
v -16 1 -2
v -14 1 -2
v -11 1 -2
v -10 1 -2
v -8 1 -2
v -7 1 -2
v -5 1 -2
v -4 1 -2
v 1 1 -2
v 2 1 -2
v 7 1 -2
v 8 1 -2
v 10 1 -2
v 11 1 -2
v 14 1 -2
v 16 1 -2
v -18 5 2
v 18 5 2
v -16 5 -1
v 16 5 -1
v -16 5 -2
v 16 5 -2
v -18 5 -4
v 18 5 -4
v 19 24 3
v 20 24 3
v 19 24 -4
v 20 24 -4
v -20 25 3
v -19 25 3
v -20 25 -4
v -19 25 -4
v -12 26 5
v 9 26 5
v 10 26 5
v 12 26 5
v -17 26 4
v -16 26 4
v -12 26 4
v 12 26 4
v 17 26 4
v 18 26 4
v -19 26 3
v -17 26 3
v 18 26 3
v 19 26 3
v -19 26 -4
v -18 26 -4
v 18 26 -4
v 19 26 -4
v -18 26 -5
v -16 26 -5
v 9 26 -5
v 10 26 -5
v 17 26 -5
v 18 26 -5

# faces
f 3/9/1 2/9/1 1/9/1
f 4/9/1 2/9/1 3/9/1
f 7/9/1 6/9/1 5/9/1
f 8/9/1 6/9/1 7/9/1
f 11/9/1 10/9/1 9/9/1
f 12/9/1 10/9/1 11/9/1
f 15/9/1 14/9/1 13/9/1
f 16/9/1 14/9/1 15/9/1
f 19/8/1 18/8/1 17/8/1
f 20/8/1 18/8/1 19/8/1
f 23/9/1 22/9/1 21/9/1
f 24/9/1 22/9/1 23/9/1
f 25/10/1 24/10/1 23/10/1
f 26/10/1 24/10/1 25/10/1
f 27/4/1 26/4/1 25/4/1
f 28/4/1 26/4/1 27/4/1
f 29/8/1 28/8/1 27/8/1
f 30/8/1 28/8/1 29/8/1
f 33/9/1 32/9/1 31/9/1
f 34/9/1 32/9/1 33/9/1
f 35/9/2 36/9/2 37/9/2
f 37/9/2 36/9/2 38/9/2
f 39/9/2 40/9/2 41/9/2
f 41/9/2 40/9/2 42/9/2
f 41/10/2 42/10/2 43/10/2
f 43/10/2 42/10/2 44/10/2
f 43/4/2 44/4/2 45/4/2
f 43/4/2 45/4/2 46/4/2
f 46/4/2 45/4/2 47/4/2
f 46/8/2 47/8/2 48/8/2
f 48/8/2 47/8/2 49/8/2
f 50/8/2 51/8/2 52/8/2
f 52/8/2 51/8/2 53/8/2
f 54/9/2 55/9/2 58/9/2
f 58/9/2 55/9/2 59/9/2
f 56/9/2 57/9/2 60/9/2
f 60/9/2 57/9/2 61/9/2
f 62/9/2 63/9/2 64/9/2
f 64/9/2 63/9/2 65/9/2
f 66/9/2 67/9/2 68/9/2
f 68/9/2 67/9/2 69/9/2
f 75/4/3 73/4/3 72/4/3
f 75/8/3 74/8/3 73/8/3
f 76/8/3 74/8/3 75/8/3
f 77/8/3 74/8/3 76/8/3
f 78/8/3 74/8/3 77/8/3
f 79/8/3 74/8/3 78/8/3
f 80/10/3 72/10/3 71/10/3
f 81/10/3 72/10/3 80/10/3
f 82/4/3 76/4/3 75/4/3
f 82/2/3 77/2/3 76/2/3
f 83/2/3 77/2/3 82/2/3
f 84/2/3 77/2/3 83/2/3
f 85/8/3 78/8/3 77/8/3
f 85/2/3 77/2/3 84/2/3
f 86/1/3 79/1/3 78/1/3
f 87/8/3 74/8/3 79/8/3
f 87/1/3 79/1/3 86/1/3
f 88/6/3 81/6/3 80/6/3
f 89/6/3 81/6/3 88/6/3
f 90/4/3 82/4/3 75/4/3
f 90/8/3 83/8/3 82/8/3
f 91/2/3 84/2/3 83/2/3
f 91/8/3 83/8/3 90/8/3
f 92/8/3 85/8/3 84/8/3
f 92/2/3 84/2/3 91/2/3
f 93/8/3 78/8/3 85/8/3
f 93/8/3 85/8/3 92/8/3
f 94/1/3 86/1/3 78/1/3
f 94/8/3 78/8/3 93/8/3
f 95/8/3 87/8/3 86/8/3
f 95/1/3 86/1/3 94/1/3
f 96/4/3 75/4/3 72/4/3
f 96/4/3 90/4/3 75/4/3
f 97/2/3 93/2/3 92/2/3
f 97/4/3 90/4/3 96/4/3
f 97/2/3 92/2/3 91/2/3
f 97/2/3 91/2/3 90/2/3
f 98/8/3 95/8/3 94/8/3
f 98/2/3 93/2/3 97/2/3
f 98/8/3 94/8/3 93/8/3
f 99/8/3 95/8/3 98/8/3
f 100/8/3 87/8/3 95/8/3
f 100/8/3 95/8/3 99/8/3
f 100/8/3 74/8/3 87/8/3
f 101/10/3 72/10/3 81/10/3
f 101/6/3 81/6/3 89/6/3
f 102/10/3 72/10/3 101/10/3
f 103/8/3 99/8/3 98/8/3
f 103/8/3 98/8/3 97/8/3
f 103/8/3 97/8/3 96/8/3
f 104/8/3 99/8/3 103/8/3
f 105/1/3 100/1/3 99/1/3
f 105/8/3 99/8/3 104/8/3
f 106/8/3 74/8/3 100/8/3
f 106/1/3 100/1/3 105/1/3
f 107/6/3 102/6/3 101/6/3
f 107/6/3 101/6/3 89/6/3
f 107/8/3 89/8/3 88/8/3
f 108/6/3 102/6/3 107/6/3
f 109/2/3 104/2/3 103/2/3
f 110/2/3 104/2/3 109/2/3
f 111/8/3 105/8/3 104/8/3
f 111/8/3 106/8/3 105/8/3
f 112/8/3 74/8/3 106/8/3
f 112/8/3 106/8/3 111/8/3
f 113/4/3 96/4/3 72/4/3
f 113/10/3 72/10/3 102/10/3
f 114/4/3 96/4/3 113/4/3
f 115/8/3 103/8/3 96/8/3
f 115/4/3 96/4/3 114/4/3
f 116/8/3 110/8/3 109/8/3
f 116/2/3 109/2/3 103/2/3
f 117/2/3 104/2/3 110/2/3
f 117/8/3 110/8/3 116/8/3
f 118/1/3 112/1/3 111/1/3
f 119/1/3 112/1/3 118/1/3
f 120/10/3 80/10/3 71/10/3
f 121/6/3 88/6/3 80/6/3
f 121/10/3 80/10/3 120/10/3
f 122/2/3 116/2/3 103/2/3
f 122/8/3 103/8/3 115/8/3
f 122/8/3 115/8/3 114/8/3
f 122/2/3 117/2/3 116/2/3
f 123/2/3 104/2/3 117/2/3
f 123/2/3 117/2/3 122/2/3
f 123/8/3 111/8/3 104/8/3
f 124/1/3 118/1/3 111/1/3
f 124/8/3 119/8/3 118/8/3
f 125/8/3 119/8/3 124/8/3
f 126/1/3 112/1/3 119/1/3
f 126/8/3 119/8/3 125/8/3
f 127/8/3 74/8/3 112/8/3
f 127/1/3 112/1/3 126/1/3
f 128/6/3 88/6/3 121/6/3
f 128/6/3 121/6/3 120/6/3
f 129/8/3 107/8/3 88/8/3
f 129/6/3 88/6/3 128/6/3
f 129/8/3 108/8/3 107/8/3
f 130/8/3 122/8/3 114/8/3
f 130/8/3 123/8/3 122/8/3
f 131/8/3 111/8/3 123/8/3
f 131/8/3 123/8/3 130/8/3
f 132/1/3 125/1/3 124/1/3
f 132/8/3 111/8/3 131/8/3
f 132/1/3 124/1/3 111/1/3
f 133/8/3 126/8/3 125/8/3
f 133/1/3 125/1/3 132/1/3
f 133/8/3 127/8/3 126/8/3
f 134/2/3 131/2/3 130/2/3
f 135/8/3 132/8/3 131/8/3
f 135/2/3 131/2/3 134/2/3
f 135/8/3 133/8/3 132/8/3
f 136/8/3 133/8/3 135/8/3
f 137/8/3 74/8/3 127/8/3
f 137/8/3 133/8/3 136/8/3
f 137/8/3 127/8/3 133/8/3
f 138/2/3 134/2/3 130/2/3
f 138/8/3 136/8/3 135/8/3
f 138/8/3 135/8/3 134/8/3
f 139/8/3 136/8/3 138/8/3
f 140/1/3 137/1/3 136/1/3
f 140/8/3 136/8/3 139/8/3
f 141/1/3 137/1/3 140/1/3
f 142/1/3 137/1/3 141/1/3
f 143/8/3 74/8/3 137/8/3
f 143/1/3 137/1/3 142/1/3
f 144/2/3 139/2/3 138/2/3
f 144/8/3 130/8/3 114/8/3
f 144/2/3 138/2/3 130/2/3
f 145/8/3 141/8/3 140/8/3
f 145/2/3 139/2/3 144/2/3
f 145/8/3 140/8/3 139/8/3
f 146/8/3 141/8/3 145/8/3
f 147/1/3 142/1/3 141/1/3
f 147/8/3 141/8/3 146/8/3
f 148/8/3 143/8/3 142/8/3
f 148/1/3 142/1/3 147/1/3
f 149/8/3 74/8/3 143/8/3
f 149/8/3 143/8/3 148/8/3
f 150/10/3 113/10/3 102/10/3
f 150/5/3 114/5/3 113/5/3
f 151/8/3 146/8/3 145/8/3
f 151/5/3 114/5/3 150/5/3
f 151/8/3 144/8/3 114/8/3
f 151/8/3 145/8/3 144/8/3
f 152/8/3 146/8/3 151/8/3
f 153/8/3 146/8/3 152/8/3
f 154/8/3 146/8/3 153/8/3
f 155/8/3 146/8/3 154/8/3
f 156/1/3 148/1/3 147/1/3
f 156/8/3 146/8/3 155/8/3
f 156/1/3 147/1/3 146/1/3
f 156/1/3 149/1/3 148/1/3
f 157/8/3 74/8/3 149/8/3
f 157/1/3 149/1/3 156/1/3
f 158/4/3 151/4/3 150/4/3
f 158/8/3 152/8/3 151/8/3
f 159/8/3 152/8/3 158/8/3
f 160/8/3 154/8/3 153/8/3
f 160/2/3 153/2/3 152/2/3
f 161/2/3 155/2/3 154/2/3
f 161/8/3 154/8/3 160/8/3
f 162/2/3 155/2/3 161/2/3
f 163/8/3 156/8/3 155/8/3
f 163/8/3 157/8/3 156/8/3
f 164/8/3 74/8/3 157/8/3
f 164/8/3 157/8/3 163/8/3
f 165/8/3 129/8/3 128/8/3
f 165/6/3 128/6/3 120/6/3
f 166/8/3 108/8/3 129/8/3
f 166/8/3 129/8/3 165/8/3
f 167/2/3 160/2/3 152/2/3
f 167/8/3 152/8/3 159/8/3
f 167/2/3 161/2/3 160/2/3
f 168/8/3 162/8/3 161/8/3
f 168/2/3 161/2/3 167/2/3
f 169/2/3 155/2/3 162/2/3
f 169/8/3 162/8/3 168/8/3
f 170/8/3 163/8/3 155/8/3
f 170/2/3 155/2/3 169/2/3
f 171/8/3 163/8/3 170/8/3
f 172/1/3 164/1/3 163/1/3
f 172/8/3 163/8/3 171/8/3
f 173/6/3 165/6/3 120/6/3
f 173/6/3 166/6/3 165/6/3
f 173/10/3 120/10/3 71/10/3
f 174/6/3 166/6/3 173/6/3
f 175/8/3 170/8/3 169/8/3
f 175/8/3 168/8/3 167/8/3
f 175/8/3 171/8/3 170/8/3
f 175/8/3 169/8/3 168/8/3
f 175/8/3 167/8/3 159/8/3
f 176/8/3 171/8/3 175/8/3
f 177/1/3 172/1/3 171/1/3
f 177/8/3 171/8/3 176/8/3
f 178/1/3 164/1/3 172/1/3
f 178/1/3 172/1/3 177/1/3
f 179/2/3 176/2/3 175/2/3
f 180/2/3 176/2/3 179/2/3
f 181/8/3 177/8/3 176/8/3
f 181/1/3 164/1/3 178/1/3
f 181/8/3 178/8/3 177/8/3
f 182/8/3 74/8/3 164/8/3
f 182/1/3 164/1/3 181/1/3
f 183/8/3 108/8/3 166/8/3
f 184/6/3 102/6/3 108/6/3
f 184/8/3 108/8/3 183/8/3
f 185/8/3 175/8/3 159/8/3
f 185/2/3 179/2/3 175/2/3
f 186/8/3 180/8/3 179/8/3
f 186/2/3 179/2/3 185/2/3
f 187/2/3 176/2/3 180/2/3
f 187/8/3 180/8/3 186/8/3
f 188/8/3 181/8/3 176/8/3
f 188/2/3 176/2/3 187/2/3
f 188/8/3 182/8/3 181/8/3
f 189/6/3 102/6/3 184/6/3
f 189/6/3 184/6/3 183/6/3
f 190/10/3 150/10/3 102/10/3
f 190/6/3 102/6/3 189/6/3
f 191/8/3 186/8/3 185/8/3
f 191/8/3 185/8/3 159/8/3
f 191/8/3 187/8/3 186/8/3
f 191/8/3 188/8/3 187/8/3
f 191/4/3 159/4/3 158/4/3
f 192/8/3 188/8/3 191/8/3
f 193/4/3 192/4/3 191/4/3
f 193/8/3 188/8/3 192/8/3
f 194/8/3 182/8/3 188/8/3
f 194/8/3 188/8/3 193/8/3
f 195/6/3 166/6/3 174/6/3
f 195/8/3 183/8/3 166/8/3
f 196/6/3 189/6/3 183/6/3
f 196/8/3 183/8/3 195/8/3
f 197/4/3 193/4/3 191/4/3
f 197/4/3 194/4/3 193/4/3
f 198/4/3 194/4/3 197/4/3
f 199/4/3 194/4/3 198/4/3
f 200/4/3 194/4/3 199/4/3
f 201/8/3 182/8/3 194/8/3
f 201/4/3 194/4/3 200/4/3
f 202/8/3 182/8/3 201/8/3
f 203/8/3 74/8/3 182/8/3
f 203/8/3 182/8/3 202/8/3
f 204/6/3 195/6/3 174/6/3
f 204/10/3 174/10/3 173/10/3
f 204/6/3 196/6/3 195/6/3
f 205/10/3 190/10/3 189/10/3
f 205/6/3 196/6/3 204/6/3
f 205/6/3 189/6/3 196/6/3
f 206/4/3 197/4/3 191/4/3
f 206/8/3 198/8/3 197/8/3
f 207/4/3 199/4/3 198/4/3
f 207/8/3 198/8/3 206/8/3
f 208/8/3 200/8/3 199/8/3
f 208/4/3 199/4/3 207/4/3
f 209/4/3 202/4/3 201/4/3
f 209/8/3 200/8/3 208/8/3
f 209/4/3 201/4/3 200/4/3
f 210/1/3 203/1/3 202/1/3
f 210/4/3 202/4/3 209/4/3
f 211/1/3 203/1/3 210/1/3
f 212/4/3 208/4/3 207/4/3
f 212/4/3 207/4/3 206/4/3
f 212/4/3 209/4/3 208/4/3
f 212/4/3 210/4/3 209/4/3
f 213/8/3 211/8/3 210/8/3
f 213/4/3 210/4/3 212/4/3
f 214/9/3 71/9/3 70/9/3
f 215/10/3 204/10/3 173/10/3
f 215/9/3 71/9/3 214/9/3
f 215/10/3 205/10/3 204/10/3
f 215/10/3 173/10/3 71/10/3
f 216/10/3 150/10/3 190/10/3
f 216/10/3 205/10/3 215/10/3
f 216/4/3 206/4/3 191/4/3
f 216/4/3 191/4/3 158/4/3
f 216/4/3 158/4/3 150/4/3
f 216/4/3 212/4/3 206/4/3
f 216/10/3 190/10/3 205/10/3
f 217/8/3 213/8/3 212/8/3
f 217/4/3 212/4/3 216/4/3
f 218/8/3 211/8/3 213/8/3
f 218/8/3 213/8/3 217/8/3
f 221/9/3 220/9/3 219/9/3
f 222/9/3 220/9/3 221/9/3
f 223/9/3 220/9/3 222/9/3
f 224/9/3 220/9/3 223/9/3
f 225/10/3 222/10/3 221/10/3
f 225/5/3 223/5/3 222/5/3
f 226/8/3 224/8/3 223/8/3
f 226/5/3 223/5/3 225/5/3
f 227/8/3 224/8/3 226/8/3
f 228/9/3 221/9/3 219/9/3
f 229/10/3 225/10/3 221/10/3
f 229/9/3 221/9/3 228/9/3
f 230/4/3 226/4/3 225/4/3
f 230/10/3 225/10/3 229/10/3
f 230/4/3 227/4/3 226/4/3
f 231/8/3 224/8/3 227/8/3
f 231/4/3 227/4/3 230/4/3
f 232/8/3 224/8/3 231/8/3
f 239/4/3 236/4/3 235/4/3
f 240/8/3 238/8/3 237/8/3
f 240/4/3 236/4/3 239/4/3
f 240/8/3 237/8/3 236/8/3
f 241/9/3 234/9/3 233/9/3
f 241/10/3 235/10/3 234/10/3
f 242/4/3 239/4/3 235/4/3
f 242/10/3 235/10/3 241/10/3
f 243/8/3 240/8/3 239/8/3
f 243/4/3 239/4/3 242/4/3
f 244/8/3 238/8/3 240/8/3
f 244/8/3 240/8/3 243/8/3
f 245/9/3 243/9/3 242/9/3
f 245/9/3 242/9/3 241/9/3
f 245/9/3 244/9/3 243/9/3
f 245/9/3 241/9/3 233/9/3
f 246/9/3 244/9/3 245/9/3
f 249/9/3 248/9/3 247/9/3
f 251/9/3 249/9/3 247/9/3
f 251/9/3 250/9/3 249/9/3
f 252/9/3 250/9/3 251/9/3
f 255/9/3 254/9/3 253/9/3
f 256/9/3 254/9/3 255/9/3
f 257/9/3 255/9/3 253/9/3
f 258/9/3 255/9/3 257/9/3
f 261/8/3 260/8/3 259/8/3
f 262/8/3 260/8/3 261/8/3
f 263/3/3 262/3/3 261/3/3
f 264/8/3 260/8/3 262/8/3
f 264/3/3 262/3/3 263/3/3
f 265/8/3 264/8/3 263/8/3
f 266/8/3 260/8/3 264/8/3
f 266/8/3 264/8/3 265/8/3
f 267/3/3 266/3/3 265/3/3
f 268/8/3 260/8/3 266/8/3
f 268/3/3 266/3/3 267/3/3
f 269/8/3 268/8/3 267/8/3
f 270/8/3 260/8/3 268/8/3
f 270/8/3 268/8/3 269/8/3
f 271/3/3 270/3/3 269/3/3
f 272/8/3 260/8/3 270/8/3
f 272/3/3 270/3/3 271/3/3
f 273/8/3 272/8/3 271/8/3
f 274/8/3 260/8/3 272/8/3
f 274/8/3 272/8/3 273/8/3
f 275/3/3 274/3/3 273/3/3
f 276/8/3 260/8/3 274/8/3
f 276/3/3 274/3/3 275/3/3
f 277/8/3 276/8/3 275/8/3
f 278/8/3 260/8/3 276/8/3
f 278/8/3 276/8/3 277/8/3
f 279/3/3 278/3/3 277/3/3
f 280/8/3 260/8/3 278/8/3
f 280/3/3 278/3/3 279/3/3
f 281/8/3 280/8/3 279/8/3
f 282/8/3 260/8/3 280/8/3
f 282/8/3 280/8/3 281/8/3
f 283/3/3 282/3/3 281/3/3
f 284/8/3 260/8/3 282/8/3
f 284/3/3 282/3/3 283/3/3
f 285/8/3 284/8/3 283/8/3
f 286/8/3 260/8/3 284/8/3
f 286/8/3 284/8/3 285/8/3
f 287/3/3 286/3/3 285/3/3
f 288/8/3 260/8/3 286/8/3
f 288/3/3 286/3/3 287/3/3
f 289/8/3 288/8/3 287/8/3
f 290/8/3 260/8/3 288/8/3
f 290/8/3 288/8/3 289/8/3
f 293/9/3 292/9/3 291/9/3
f 294/9/3 292/9/3 293/9/3
f 295/9/4 296/9/4 297/9/4
f 297/9/4 296/9/4 298/9/4
f 299/8/4 300/8/4 301/8/4
f 301/8/4 300/8/4 302/8/4
f 301/3/4 302/3/4 303/3/4
f 302/8/4 300/8/4 304/8/4
f 303/3/4 302/3/4 304/3/4
f 303/8/4 304/8/4 305/8/4
f 304/8/4 300/8/4 306/8/4
f 305/8/4 304/8/4 306/8/4
f 305/3/4 306/3/4 307/3/4
f 306/8/4 300/8/4 308/8/4
f 307/3/4 306/3/4 308/3/4
f 307/8/4 308/8/4 309/8/4
f 308/8/4 300/8/4 310/8/4
f 309/8/4 308/8/4 310/8/4
f 309/3/4 310/3/4 311/3/4
f 310/8/4 300/8/4 312/8/4
f 311/3/4 310/3/4 312/3/4
f 311/8/4 312/8/4 313/8/4
f 312/8/4 300/8/4 314/8/4
f 313/8/4 312/8/4 314/8/4
f 313/3/4 314/3/4 315/3/4
f 314/8/4 300/8/4 316/8/4
f 315/3/4 314/3/4 316/3/4
f 315/8/4 316/8/4 317/8/4
f 316/8/4 300/8/4 318/8/4
f 317/8/4 316/8/4 318/8/4
f 317/3/4 318/3/4 319/3/4
f 318/8/4 300/8/4 320/8/4
f 319/3/4 318/3/4 320/3/4
f 319/8/4 320/8/4 321/8/4
f 320/8/4 300/8/4 322/8/4
f 321/8/4 320/8/4 322/8/4
f 321/3/4 322/3/4 323/3/4
f 322/8/4 300/8/4 324/8/4
f 323/3/4 322/3/4 324/3/4
f 323/8/4 324/8/4 325/8/4
f 324/8/4 300/8/4 326/8/4
f 325/8/4 324/8/4 326/8/4
f 325/3/4 326/3/4 327/3/4
f 326/8/4 300/8/4 328/8/4
f 327/3/4 326/3/4 328/3/4
f 327/8/4 328/8/4 329/8/4
f 328/8/4 300/8/4 330/8/4
f 329/8/4 328/8/4 330/8/4
f 331/9/4 332/9/4 333/9/4
f 331/9/4 333/9/4 335/9/4
f 333/9/4 334/9/4 335/9/4
f 335/9/4 334/9/4 336/9/4
f 337/9/4 338/9/4 339/9/4
f 339/9/4 338/9/4 340/9/4
f 337/9/4 339/9/4 341/9/4
f 341/9/4 339/9/4 342/9/4
f 343/9/4 344/9/4 345/9/4
f 345/9/4 344/9/4 346/9/4
f 343/9/4 345/9/4 347/9/4
f 347/9/4 345/9/4 348/9/4
f 343/9/4 347/9/4 349/9/4
f 347/10/4 348/10/4 350/10/4
f 349/9/4 347/9/4 350/9/4
f 348/9/4 345/9/4 351/9/4
f 350/10/4 348/10/4 351/10/4
f 351/9/4 345/9/4 352/9/4
f 345/8/4 346/8/4 353/8/4
f 352/9/4 345/9/4 353/9/4
f 353/8/4 346/8/4 354/8/4
f 352/9/4 353/9/4 355/9/4
f 353/1/4 354/1/4 355/1/4
f 355/1/4 354/1/4 356/1/4
f 351/10/4 352/10/4 357/10/4
f 349/10/4 350/10/4 357/10/4
f 343/9/4 349/9/4 357/9/4
f 350/10/4 351/10/4 357/10/4
f 357/10/4 352/10/4 358/10/4
f 358/10/4 352/10/4 359/10/4
f 352/9/4 355/9/4 360/9/4
f 359/10/4 352/10/4 360/10/4
f 358/10/4 359/10/4 361/10/4
f 357/9/4 358/9/4 361/9/4
f 359/9/4 360/9/4 362/9/4
f 361/10/4 359/10/4 362/10/4
f 355/8/4 356/8/4 363/8/4
f 362/9/4 360/9/4 363/9/4
f 361/9/4 362/9/4 363/9/4
f 360/9/4 355/9/4 363/9/4
f 363/8/4 356/8/4 364/8/4
f 357/9/4 361/9/4 365/9/4
f 343/9/4 357/9/4 365/9/4
f 363/9/4 364/9/4 365/9/4
f 361/9/4 363/9/4 365/9/4
f 365/9/4 364/9/4 366/9/4
f 370/9/5 368/9/5 367/9/5
f 371/9/5 368/9/5 370/9/5
f 374/9/5 370/9/5 369/9/5
f 374/9/5 372/9/5 371/9/5
f 374/9/5 371/9/5 370/9/5
f 375/9/5 372/9/5 374/9/5
f 377/9/5 374/9/5 373/9/5
f 377/9/5 376/9/5 375/9/5
f 377/9/5 375/9/5 374/9/5
f 378/9/5 376/9/5 377/9/5
f 379/9/5 377/9/5 373/9/5
f 380/9/5 377/9/5 379/9/5
f 381/9/5 376/9/5 378/9/5
f 382/9/5 376/9/5 381/9/5
f 383/9/5 381/9/5 380/9/5
f 384/9/5 381/9/5 383/9/5
f 401/8/5 386/8/5 385/8/5
f 402/3/5 387/3/5 386/3/5
f 402/8/5 386/8/5 401/8/5
f 403/8/5 388/8/5 387/8/5
f 403/3/5 387/3/5 402/3/5
f 404/3/5 389/3/5 388/3/5
f 404/8/5 388/8/5 403/8/5
f 405/8/5 390/8/5 389/8/5
f 405/3/5 389/3/5 404/3/5
f 406/3/5 391/3/5 390/3/5
f 406/8/5 390/8/5 405/8/5
f 407/8/5 392/8/5 391/8/5
f 407/3/5 391/3/5 406/3/5
f 408/3/5 393/3/5 392/3/5
f 408/8/5 392/8/5 407/8/5
f 409/8/5 394/8/5 393/8/5
f 409/3/5 393/3/5 408/3/5
f 410/3/5 395/3/5 394/3/5
f 410/8/5 394/8/5 409/8/5
f 411/8/5 396/8/5 395/8/5
f 411/3/5 395/3/5 410/3/5
f 412/3/5 397/3/5 396/3/5
f 412/8/5 396/8/5 411/8/5
f 413/8/5 398/8/5 397/8/5
f 413/3/5 397/3/5 412/3/5
f 414/3/5 399/3/5 398/3/5
f 414/8/5 398/8/5 413/8/5
f 415/8/5 400/8/5 399/8/5
f 415/3/5 399/3/5 414/3/5
f 416/8/5 400/8/5 415/8/5
f 419/9/5 418/9/5 417/9/5
f 420/9/5 418/9/5 419/9/5
f 421/9/5 419/9/5 417/9/5
f 422/9/5 418/9/5 420/9/5
f 423/9/5 421/9/5 417/9/5
f 423/9/5 422/9/5 421/9/5
f 424/9/5 418/9/5 422/9/5
f 424/9/5 422/9/5 423/9/5
f 425/9/6 426/9/6 427/9/6
f 427/9/6 426/9/6 428/9/6
f 429/9/6 430/9/6 431/9/6
f 431/9/6 430/9/6 432/9/6
f 433/8/6 434/8/6 439/8/6
f 435/8/6 436/8/6 440/8/6
f 437/9/6 438/9/6 444/9/6
f 441/9/6 442/9/6 445/9/6
f 443/9/6 444/9/6 447/9/6
f 447/9/6 444/9/6 448/9/6
f 445/9/6 446/9/6 449/9/6
f 441/9/6 445/9/6 449/9/6
f 449/9/6 446/9/6 450/9/6
f 448/9/6 444/9/6 451/9/6
f 438/8/6 439/8/6 452/8/6
f 451/9/6 444/9/6 452/9/6
f 444/9/6 438/9/6 452/9/6
f 434/1/6 435/1/6 453/1/6
f 452/8/6 439/8/6 453/8/6
f 439/8/6 434/8/6 453/8/6
f 435/8/6 440/8/6 454/8/6
f 453/1/6 435/1/6 454/1/6
f 440/8/6 441/8/6 454/8/6
f 441/9/6 449/9/6 455/9/6
f 454/8/6 441/8/6 455/8/6
f 455/9/6 449/9/6 456/9/6
