# MagicaVoxel @ Ephtracy

# group
g blank-16bit-cart

# material
mtllib blank-16bit-cart.mtl
usemtl palette

# normals
vn -1 0 0
vn 1 0 0
vn 0 0 1
vn 0 0 -1
vn 0 -1 0
vn 0 1 0

# texcoords
vt 0.0917969 0.5
vt 0.966797 0.5
vt 0.970703 0.5
vt 0.974609 0.5
vt 0.978516 0.5
vt 0.982422 0.5

# verts
v -20 0 3
v -20 0 -4
v -20 4 3
v -20 4 2
v -20 5 3
v -20 5 2
v -20 8 3
v -20 8 2
v -20 9 3
v -20 9 2
v -20 13 3
v -20 13 2
v -20 14 3
v -20 14 2
v -20 18 3
v -20 18 2
v -20 19 3
v -20 19 2
v -20 23 3
v -20 23 2
v -20 24 3
v -20 24 2
v -20 28 3
v -20 28 -4
v -19 0 -4
v -19 0 -5
v -19 28 -4
v -19 28 -5
v -16 3 -4
v -16 3 -5
v -16 5 -4
v -16 5 -5
v -15 0 -0
v -15 0 -1
v -15 3 -0
v -15 3 -1
v -13 0 4
v -13 0 3
v -13 4 3
v -13 4 2
v -13 5 3
v -13 5 2
v -13 8 3
v -13 8 2
v -13 9 3
v -13 9 2
v -13 13 3
v -13 13 2
v -13 14 3
v -13 14 2
v -13 18 3
v -13 18 2
v -13 19 3
v -13 19 2
v -13 23 3
v -13 23 2
v -13 24 3
v -13 24 2
v -13 28 4
v -13 28 3
v -12 0 -4
v -12 0 -5
v -12 28 -4
v -12 28 -5
v -9 0 -0
v -9 0 -1
v -9 2 -0
v -9 2 -1
v 4 3 3
v 4 3 2
v 4 4 2
v 4 7 2
v 4 7 1
v 4 12 3
v 4 12 1
v 10 0 -0
v 10 0 -1
v 10 2 -0
v 10 2 -1
v 12 0 4
v 12 0 3
v 12 12 4
v 12 12 3
v 14 0 -4
v 14 0 -5
v 14 28 -4
v 14 28 -5
v 18 0 2
v 18 0 -3
v 18 3 2
v 18 3 -3
v 18 3 -4
v 18 3 -5
v 18 5 -4
v 18 5 -5
v -18 0 2
v -18 0 -3
v -18 3 2
v -18 3 -3
v -18 3 -4
v -18 3 -5
v -18 5 -4
v -18 5 -5
v -14 0 -4
v -14 0 -5
v -14 28 -4
v -14 28 -5
v -12 0 4
v -12 0 3
v -12 12 4
v -12 12 3
v -10 0 -0
v -10 0 -1
v -10 2 -0
v -10 2 -1
v -4 3 3
v -4 3 2
v -4 4 2
v -4 7 2
v -4 7 1
v -4 12 3
v -4 12 1
v 9 0 -0
v 9 0 -1
v 9 2 -0
v 9 2 -1
v 12 0 -4
v 12 0 -5
v 12 28 -4
v 12 28 -5
v 13 0 4
v 13 0 3
v 13 4 3
v 13 4 2
v 13 5 3
v 13 5 2
v 13 8 3
v 13 8 2
v 13 9 3
v 13 9 2
v 13 13 3
v 13 13 2
v 13 14 3
v 13 14 2
v 13 18 3
v 13 18 2
v 13 19 3
v 13 19 2
v 13 23 3
v 13 23 2
v 13 24 3
v 13 24 2
v 13 28 4
v 13 28 3
v 15 0 -0
v 15 0 -1
v 15 3 -0
v 15 3 -1
v 16 3 -4
v 16 3 -5
v 16 5 -4
v 16 5 -5
v 19 0 -4
v 19 0 -5
v 19 28 -4
v 19 28 -5
v 20 0 3
v 20 0 -4
v 20 4 3
v 20 4 2
v 20 5 3
v 20 5 2
v 20 8 3
v 20 8 2
v 20 9 3
v 20 9 2
v 20 13 3
v 20 13 2
v 20 14 3
v 20 14 2
v 20 18 3
v 20 18 2
v 20 19 3
v 20 19 2
v 20 23 3
v 20 23 2
v 20 24 3
v 20 24 2
v 20 28 3
v 20 28 -4
v -13 0 4
v -13 28 4
v -12 0 4
v -12 12 4
v -12 13 4
v -12 28 4
v 12 0 4
v 12 12 4
v 12 13 4
v 12 28 4
v 13 0 4
v 13 28 4
v -20 0 3
v -20 4 3
v -20 5 3
v -20 8 3
v -20 9 3
v -20 13 3
v -20 14 3
v -20 18 3
v -20 19 3
v -20 23 3
v -20 24 3
v -20 28 3
v -13 0 3
v -13 4 3
v -13 5 3
v -13 8 3
v -13 9 3
v -13 13 3
v -13 14 3
v -13 18 3
v -13 19 3
v -13 23 3
v -13 24 3
v -13 28 3
v -12 0 3
v -12 12 3
v -4 3 3
v -4 12 3
v 4 3 3
v 4 12 3
v 12 0 3
v 12 12 3
v 13 0 3
v 13 4 3
v 13 5 3
v 13 8 3
v 13 9 3
v 13 13 3
v 13 14 3
v 13 18 3
v 13 19 3
v 13 23 3
v 13 24 3
v 13 28 3
v 20 0 3
v 20 4 3
v 20 5 3
v 20 8 3
v 20 9 3
v 20 13 3
v 20 14 3
v 20 18 3
v 20 19 3
v 20 23 3
v 20 24 3
v 20 28 3
v -20 4 2
v -20 5 2
v -20 8 2
v -20 9 2
v -20 13 2
v -20 14 2
v -20 18 2
v -20 19 2
v -20 23 2
v -20 24 2
v -13 4 2
v -13 5 2
v -13 8 2
v -13 9 2
v -13 13 2
v -13 14 2
v -13 18 2
v -13 19 2
v -13 23 2
v -13 24 2
v -4 3 2
v -4 4 2
v -4 7 2
v 4 3 2
v 4 4 2
v 4 7 2
v 13 4 2
v 13 5 2
v 13 8 2
v 13 9 2
v 13 13 2
v 13 14 2
v 13 18 2
v 13 19 2
v 13 23 2
v 13 24 2
v 20 4 2
v 20 5 2
v 20 8 2
v 20 9 2
v 20 13 2
v 20 14 2
v 20 18 2
v 20 19 2
v 20 23 2
v 20 24 2
v -4 7 1
v -4 12 1
v 4 7 1
v 4 12 1
v -15 0 -0
v -15 3 -0
v -14 0 -0
v -14 1 -0
v -11 0 -0
v -11 1 -0
v -10 0 -0
v -10 2 -0
v -9 0 -0
v -9 2 -0
v -8 0 -0
v -8 1 -0
v -6 0 -0
v -6 1 -0
v -5 0 -0
v -5 1 -0
v -3 0 -0
v -3 1 -0
v -2 0 -0
v -2 1 -0
v 0 0 -0
v 0 1 -0
v 1 0 -0
v 1 1 -0
v 3 0 -0
v 3 1 -0
v 4 0 -0
v 4 1 -0
v 6 0 -0
v 6 1 -0
v 7 0 -0
v 7 1 -0
v 8 0 -0
v 8 1 -0
v 9 0 -0
v 9 2 -0
v 10 0 -0
v 10 2 -0
v 11 0 -0
v 11 1 -0
v 14 0 -0
v 14 1 -0
v 15 0 -0
v 15 3 -0
v -18 0 -3
v -18 3 -3
v 18 0 -3
v 18 3 -3
v -18 0 2
v -18 3 2
v 18 0 2
v 18 3 2
v -15 0 -1
v -15 3 -1
v -14 0 -1
v -14 1 -1
v -11 0 -1
v -11 1 -1
v -10 0 -1
v -10 2 -1
v -9 0 -1
v -9 2 -1
v -8 0 -1
v -8 1 -1
v -6 0 -1
v -6 1 -1
v -5 0 -1
v -5 1 -1
v -3 0 -1
v -3 1 -1
v -2 0 -1
v -2 1 -1
v 0 0 -1
v 0 1 -1
v 1 0 -1
v 1 1 -1
v 3 0 -1
v 3 1 -1
v 4 0 -1
v 4 1 -1
v 6 0 -1
v 6 1 -1
v 7 0 -1
v 7 1 -1
v 8 0 -1
v 8 1 -1
v 9 0 -1
v 9 2 -1
v 10 0 -1
v 10 2 -1
v 11 0 -1
v 11 1 -1
v 14 0 -1
v 14 1 -1
v 15 0 -1
v 15 3 -1
v -20 0 -4
v -20 28 -4
v -19 0 -4
v -19 28 -4
v -18 3 -4
v -18 5 -4
v -16 3 -4
v -16 5 -4
v -14 0 -4
v -14 28 -4
v -12 0 -4
v -12 28 -4
v 12 0 -4
v 12 28 -4
v 14 0 -4
v 14 28 -4
v 16 3 -4
v 16 5 -4
v 18 3 -4
v 18 5 -4
v 19 0 -4
v 19 28 -4
v 20 0 -4
v 20 28 -4
v -19 0 -5
v -19 28 -5
v -18 3 -5
v -18 5 -5
v -16 3 -5
v -16 5 -5
v -14 0 -5
v -14 28 -5
v -12 0 -5
v -12 28 -5
v -10 15 -5
v -10 23 -5
v 10 15 -5
v 10 23 -5
v 12 0 -5
v 12 28 -5
v 14 0 -5
v 14 28 -5
v 16 3 -5
v 16 5 -5
v 18 3 -5
v 18 5 -5
v 19 0 -5
v 19 28 -5
v -13 0 4
v -12 0 4
v 12 0 4
v 13 0 4
v -20 0 3
v -13 0 3
v -12 0 3
v 12 0 3
v 13 0 3
v 20 0 3
v -18 0 2
v 18 0 2
v -15 0 -0
v -14 0 -0
v -11 0 -0
v -10 0 -0
v -9 0 -0
v -8 0 -0
v -6 0 -0
v -5 0 -0
v -3 0 -0
v -2 0 -0
v 0 0 -0
v 1 0 -0
v 3 0 -0
v 4 0 -0
v 6 0 -0
v 7 0 -0
v 8 0 -0
v 9 0 -0
v 10 0 -0
v 11 0 -0
v 14 0 -0
v 15 0 -0
v -15 0 -1
v -14 0 -1
v -11 0 -1
v -10 0 -1
v -9 0 -1
v -8 0 -1
v -6 0 -1
v -5 0 -1
v -3 0 -1
v -2 0 -1
v 0 0 -1
v 1 0 -1
v 3 0 -1
v 4 0 -1
v 6 0 -1
v 7 0 -1
v 8 0 -1
v 9 0 -1
v 10 0 -1
v 11 0 -1
v 14 0 -1
v 15 0 -1
v -18 0 -3
v 18 0 -3
v -20 0 -4
v -19 0 -4
v -14 0 -4
v -12 0 -4
v 12 0 -4
v 14 0 -4
v 19 0 -4
v 20 0 -4
v -19 0 -5
v -14 0 -5
v -12 0 -5
v 12 0 -5
v 14 0 -5
v 19 0 -5
v -10 2 -0
v -9 2 -0
v 9 2 -0
v 10 2 -0
v -10 2 -1
v -9 2 -1
v 9 2 -1
v 10 2 -1
v -18 3 2
v 18 3 2
v -15 3 -0
v 15 3 -0
v -15 3 -1
v 15 3 -1
v -18 3 -3
v 18 3 -3
v -20 5 3
v -13 5 3
v 13 5 3
v 20 5 3
v -20 5 2
v -13 5 2
v 13 5 2
v 20 5 2
v -18 5 -4
v -16 5 -4
v 16 5 -4
v 18 5 -4
v -18 5 -5
v -16 5 -5
v 16 5 -5
v 18 5 -5
v -20 9 3
v -13 9 3
v 13 9 3
v 20 9 3
v -20 9 2
v -13 9 2
v 13 9 2
v 20 9 2
v -12 12 4
v 12 12 4
v -12 12 3
v -4 12 3
v 4 12 3
v 12 12 3
v -4 12 1
v 4 12 1
v -20 14 3
v -13 14 3
v 13 14 3
v 20 14 3
v -20 14 2
v -13 14 2
v 13 14 2
v 20 14 2
v -20 19 3
v -13 19 3
v 13 19 3
v 20 19 3
v -20 19 2
v -13 19 2
v 13 19 2
v 20 19 2
v -20 24 3
v -13 24 3
v 13 24 3
v 20 24 3
v -20 24 2
v -13 24 2
v 13 24 2
v 20 24 2
v -4 3 3
v 4 3 3
v -4 3 2
v 4 3 2
v -18 3 -4
v -16 3 -4
v 16 3 -4
v 18 3 -4
v -18 3 -5
v -16 3 -5
v 16 3 -5
v 18 3 -5
v -20 4 3
v -13 4 3
v 13 4 3
v 20 4 3
v -20 4 2
v -13 4 2
v 13 4 2
v 20 4 2
v -4 7 2
v 4 7 2
v -4 7 1
v 4 7 1
v -20 8 3
v -13 8 3
v 13 8 3
v 20 8 3
v -20 8 2
v -13 8 2
v 13 8 2
v 20 8 2
v -20 13 3
v -13 13 3
v 13 13 3
v 20 13 3
v -20 13 2
v -13 13 2
v 13 13 2
v 20 13 2
v -20 18 3
v -13 18 3
v 13 18 3
v 20 18 3
v -20 18 2
v -13 18 2
v 13 18 2
v 20 18 2
v -20 23 3
v -13 23 3
v 13 23 3
v 20 23 3
v -20 23 2
v -13 23 2
v 13 23 2
v 20 23 2
v -13 28 4
v -12 28 4
v 12 28 4
v 13 28 4
v -20 28 3
v -13 28 3
v 13 28 3
v 20 28 3
v -12 28 -3
v 12 28 -3
v -20 28 -4
v -19 28 -4
v -14 28 -4
v -12 28 -4
v 12 28 -4
v 14 28 -4
v 19 28 -4
v 20 28 -4
v -19 28 -5
v -14 28 -5
v -12 28 -5
v 12 28 -5
v 14 28 -5
v 19 28 -5

# faces
f 3/5/1 2/5/1 1/5/1
f 4/5/1 2/5/1 3/5/1
f 6/5/1 2/5/1 4/5/1
f 7/5/1 6/5/1 5/5/1
f 8/5/1 2/5/1 6/5/1
f 8/5/1 6/5/1 7/5/1
f 10/5/1 2/5/1 8/5/1
f 11/5/1 10/5/1 9/5/1
f 12/5/1 2/5/1 10/5/1
f 12/5/1 10/5/1 11/5/1
f 14/5/1 2/5/1 12/5/1
f 15/5/1 14/5/1 13/5/1
f 16/5/1 2/5/1 14/5/1
f 16/5/1 14/5/1 15/5/1
f 18/5/1 2/5/1 16/5/1
f 19/5/1 18/5/1 17/5/1
f 20/5/1 2/5/1 18/5/1
f 20/5/1 18/5/1 19/5/1
f 22/5/1 2/5/1 20/5/1
f 23/5/1 22/5/1 21/5/1
f 24/5/1 2/5/1 22/5/1
f 24/5/1 22/5/1 23/5/1
f 27/5/1 26/5/1 25/5/1
f 28/5/1 26/5/1 27/5/1
f 31/5/1 30/5/1 29/5/1
f 32/5/1 30/5/1 31/5/1
f 35/2/1 34/2/1 33/2/1
f 36/2/1 34/2/1 35/2/1
f 39/5/1 38/5/1 37/5/1
f 41/5/1 39/5/1 37/5/1
f 41/5/1 40/5/1 39/5/1
f 42/5/1 40/5/1 41/5/1
f 43/5/1 41/5/1 37/5/1
f 45/5/1 43/5/1 37/5/1
f 45/5/1 44/5/1 43/5/1
f 46/5/1 44/5/1 45/5/1
f 47/5/1 45/5/1 37/5/1
f 49/5/1 47/5/1 37/5/1
f 49/5/1 48/5/1 47/5/1
f 50/5/1 48/5/1 49/5/1
f 51/5/1 49/5/1 37/5/1
f 53/5/1 51/5/1 37/5/1
f 53/5/1 52/5/1 51/5/1
f 54/5/1 52/5/1 53/5/1
f 55/5/1 53/5/1 37/5/1
f 57/5/1 55/5/1 37/5/1
f 57/5/1 56/5/1 55/5/1
f 58/5/1 56/5/1 57/5/1
f 59/5/1 57/5/1 37/5/1
f 60/5/1 57/5/1 59/5/1
f 63/5/1 62/5/1 61/5/1
f 64/5/1 62/5/1 63/5/1
f 67/2/1 66/2/1 65/2/1
f 68/2/1 66/2/1 67/2/1
f 71/5/1 70/5/1 69/5/1
f 72/5/1 71/5/1 69/5/1
f 74/5/1 72/5/1 69/5/1
f 74/5/1 73/5/1 72/5/1
f 75/5/1 73/5/1 74/5/1
f 78/2/1 77/2/1 76/2/1
f 79/2/1 77/2/1 78/2/1
f 82/5/1 81/5/1 80/5/1
f 83/5/1 81/5/1 82/5/1
f 86/5/1 85/5/1 84/5/1
f 87/5/1 85/5/1 86/5/1
f 90/5/1 89/5/1 88/5/1
f 91/5/1 89/5/1 90/5/1
f 94/5/1 93/5/1 92/5/1
f 95/5/1 93/5/1 94/5/1
f 96/5/2 97/5/2 98/5/2
f 98/5/2 97/5/2 99/5/2
f 100/5/2 101/5/2 102/5/2
f 102/5/2 101/5/2 103/5/2
f 104/5/2 105/5/2 106/5/2
f 106/5/2 105/5/2 107/5/2
f 108/5/2 109/5/2 110/5/2
f 110/5/2 109/5/2 111/5/2
f 112/2/2 113/2/2 114/2/2
f 114/2/2 113/2/2 115/2/2
f 116/5/2 117/5/2 118/5/2
f 116/5/2 118/5/2 119/5/2
f 116/5/2 119/5/2 121/5/2
f 119/5/2 120/5/2 121/5/2
f 121/5/2 120/5/2 122/5/2
f 123/2/2 124/2/2 125/2/2
f 125/2/2 124/2/2 126/2/2
f 127/5/2 128/5/2 129/5/2
f 129/5/2 128/5/2 130/5/2
f 131/5/2 132/5/2 133/5/2
f 131/5/2 133/5/2 135/5/2
f 133/5/2 134/5/2 135/5/2
f 135/5/2 134/5/2 136/5/2
f 131/5/2 135/5/2 137/5/2
f 131/5/2 137/5/2 139/5/2
f 137/5/2 138/5/2 139/5/2
f 139/5/2 138/5/2 140/5/2
f 131/5/2 139/5/2 141/5/2
f 131/5/2 141/5/2 143/5/2
f 141/5/2 142/5/2 143/5/2
f 143/5/2 142/5/2 144/5/2
f 131/5/2 143/5/2 145/5/2
f 131/5/2 145/5/2 147/5/2
f 145/5/2 146/5/2 147/5/2
f 147/5/2 146/5/2 148/5/2
f 131/5/2 147/5/2 149/5/2
f 131/5/2 149/5/2 151/5/2
f 149/5/2 150/5/2 151/5/2
f 151/5/2 150/5/2 152/5/2
f 131/5/2 151/5/2 153/5/2
f 153/5/2 151/5/2 154/5/2
f 155/2/2 156/2/2 157/2/2
f 157/2/2 156/2/2 158/2/2
f 159/5/2 160/5/2 161/5/2
f 161/5/2 160/5/2 162/5/2
f 163/5/2 164/5/2 165/5/2
f 165/5/2 164/5/2 166/5/2
f 167/5/2 168/5/2 169/5/2
f 169/5/2 168/5/2 170/5/2
f 170/5/2 168/5/2 172/5/2
f 171/5/2 172/5/2 173/5/2
f 172/5/2 168/5/2 174/5/2
f 173/5/2 172/5/2 174/5/2
f 174/5/2 168/5/2 176/5/2
f 175/5/2 176/5/2 177/5/2
f 176/5/2 168/5/2 178/5/2
f 177/5/2 176/5/2 178/5/2
f 178/5/2 168/5/2 180/5/2
f 179/5/2 180/5/2 181/5/2
f 180/5/2 168/5/2 182/5/2
f 181/5/2 180/5/2 182/5/2
f 182/5/2 168/5/2 184/5/2
f 183/5/2 184/5/2 185/5/2
f 184/5/2 168/5/2 186/5/2
f 185/5/2 184/5/2 186/5/2
f 186/5/2 168/5/2 188/5/2
f 187/5/2 188/5/2 189/5/2
f 188/5/2 168/5/2 190/5/2
f 189/5/2 188/5/2 190/5/2
f 193/5/3 192/5/3 191/5/3
f 194/5/3 192/5/3 193/5/3
f 195/5/3 192/5/3 194/5/3
f 196/5/3 192/5/3 195/5/3
f 198/5/3 195/5/3 194/5/3
f 199/3/3 196/3/3 195/3/3
f 199/5/3 195/5/3 198/5/3
f 200/3/3 196/3/3 199/3/3
f 201/5/3 198/5/3 197/5/3
f 201/5/3 199/5/3 198/5/3
f 201/5/3 200/5/3 199/5/3
f 202/5/3 200/5/3 201/5/3
f 215/5/3 204/5/3 203/5/3
f 216/5/3 204/5/3 215/5/3
f 217/5/3 206/5/3 205/5/3
f 218/5/3 206/5/3 217/5/3
f 219/5/3 208/5/3 207/5/3
f 220/5/3 208/5/3 219/5/3
f 221/5/3 210/5/3 209/5/3
f 222/5/3 210/5/3 221/5/3
f 223/5/3 212/5/3 211/5/3
f 224/5/3 212/5/3 223/5/3
f 225/5/3 214/5/3 213/5/3
f 226/5/3 214/5/3 225/5/3
f 229/5/3 228/5/3 227/5/3
f 230/5/3 228/5/3 229/5/3
f 231/5/3 229/5/3 227/5/3
f 233/5/3 231/5/3 227/5/3
f 233/5/3 232/5/3 231/5/3
f 234/5/3 232/5/3 233/5/3
f 247/5/3 236/5/3 235/5/3
f 248/5/3 236/5/3 247/5/3
f 249/5/3 238/5/3 237/5/3
f 250/5/3 238/5/3 249/5/3
f 251/5/3 240/5/3 239/5/3
f 252/5/3 240/5/3 251/5/3
f 253/5/3 242/5/3 241/5/3
f 254/5/3 242/5/3 253/5/3
f 255/5/3 244/5/3 243/5/3
f 256/5/3 244/5/3 255/5/3
f 257/5/3 246/5/3 245/5/3
f 258/5/3 246/5/3 257/5/3
f 269/5/3 260/5/3 259/5/3
f 270/5/3 260/5/3 269/5/3
f 271/5/3 262/5/3 261/5/3
f 272/5/3 262/5/3 271/5/3
f 273/5/3 264/5/3 263/5/3
f 274/5/3 264/5/3 273/5/3
f 275/5/3 266/5/3 265/5/3
f 276/5/3 266/5/3 275/5/3
f 277/5/3 268/5/3 267/5/3
f 278/5/3 268/5/3 277/5/3
f 282/6/3 280/6/3 279/6/3
f 283/5/3 281/5/3 280/5/3
f 283/6/3 280/6/3 282/6/3
f 284/5/3 281/5/3 283/5/3
f 295/5/3 286/5/3 285/5/3
f 296/5/3 286/5/3 295/5/3
f 297/5/3 288/5/3 287/5/3
f 298/5/3 288/5/3 297/5/3
f 299/5/3 290/5/3 289/5/3
f 300/5/3 290/5/3 299/5/3
f 301/5/3 292/5/3 291/5/3
f 302/5/3 292/5/3 301/5/3
f 303/5/3 294/5/3 293/5/3
f 304/5/3 294/5/3 303/5/3
f 307/5/3 306/5/3 305/5/3
f 308/5/3 306/5/3 307/5/3
f 311/2/3 310/2/3 309/2/3
f 312/2/3 310/2/3 311/2/3
f 313/1/3 312/1/3 311/1/3
f 314/2/3 310/2/3 312/2/3
f 314/1/3 312/1/3 313/1/3
f 315/2/3 314/2/3 313/2/3
f 316/2/3 310/2/3 314/2/3
f 316/2/3 314/2/3 315/2/3
f 318/2/3 310/2/3 316/2/3
f 319/2/3 318/2/3 317/2/3
f 320/2/3 318/2/3 319/2/3
f 321/1/3 320/1/3 319/1/3
f 322/2/3 318/2/3 320/2/3
f 322/1/3 320/1/3 321/1/3
f 323/2/3 322/2/3 321/2/3
f 324/2/3 318/2/3 322/2/3
f 324/2/3 322/2/3 323/2/3
f 325/1/3 324/1/3 323/1/3
f 326/2/3 318/2/3 324/2/3
f 326/1/3 324/1/3 325/1/3
f 327/2/3 326/2/3 325/2/3
f 328/2/3 318/2/3 326/2/3
f 328/2/3 326/2/3 327/2/3
f 329/1/3 328/1/3 327/1/3
f 330/2/3 318/2/3 328/2/3
f 330/1/3 328/1/3 329/1/3
f 331/2/3 330/2/3 329/2/3
f 332/2/3 318/2/3 330/2/3
f 332/2/3 330/2/3 331/2/3
f 333/1/3 332/1/3 331/1/3
f 334/2/3 318/2/3 332/2/3
f 334/1/3 332/1/3 333/1/3
f 335/2/3 334/2/3 333/2/3
f 336/2/3 318/2/3 334/2/3
f 336/2/3 334/2/3 335/2/3
f 337/1/3 336/1/3 335/1/3
f 338/2/3 318/2/3 336/2/3
f 338/1/3 336/1/3 337/1/3
f 339/2/3 338/2/3 337/2/3
f 340/2/3 318/2/3 338/2/3
f 340/2/3 338/2/3 339/2/3
f 341/1/3 340/1/3 339/1/3
f 342/2/3 318/2/3 340/2/3
f 342/1/3 340/1/3 341/1/3
f 343/2/3 342/2/3 341/2/3
f 344/2/3 310/2/3 318/2/3
f 344/2/3 342/2/3 343/2/3
f 344/2/3 318/2/3 342/2/3
f 346/2/3 310/2/3 344/2/3
f 347/2/3 346/2/3 345/2/3
f 348/2/3 346/2/3 347/2/3
f 349/1/3 348/1/3 347/1/3
f 350/2/3 346/2/3 348/2/3
f 350/1/3 348/1/3 349/1/3
f 351/2/3 350/2/3 349/2/3
f 352/2/3 310/2/3 346/2/3
f 352/2/3 350/2/3 351/2/3
f 352/2/3 346/2/3 350/2/3
f 355/5/3 354/5/3 353/5/3
f 356/5/3 354/5/3 355/5/3
f 357/5/4 358/5/4 359/5/4
f 359/5/4 358/5/4 360/5/4
f 361/2/4 362/2/4 363/2/4
f 363/2/4 362/2/4 364/2/4
f 363/1/4 364/1/4 365/1/4
f 364/2/4 362/2/4 366/2/4
f 365/1/4 364/1/4 366/1/4
f 365/2/4 366/2/4 367/2/4
f 366/2/4 362/2/4 368/2/4
f 367/2/4 366/2/4 368/2/4
f 368/2/4 362/2/4 370/2/4
f 369/2/4 370/2/4 371/2/4
f 371/2/4 370/2/4 372/2/4
f 371/1/4 372/1/4 373/1/4
f 372/2/4 370/2/4 374/2/4
f 373/1/4 372/1/4 374/1/4
f 373/2/4 374/2/4 375/2/4
f 374/2/4 370/2/4 376/2/4
f 375/2/4 374/2/4 376/2/4
f 375/1/4 376/1/4 377/1/4
f 376/2/4 370/2/4 378/2/4
f 377/1/4 376/1/4 378/1/4
f 377/2/4 378/2/4 379/2/4
f 378/2/4 370/2/4 380/2/4
f 379/2/4 378/2/4 380/2/4
f 379/1/4 380/1/4 381/1/4
f 380/2/4 370/2/4 382/2/4
f 381/1/4 380/1/4 382/1/4
f 381/2/4 382/2/4 383/2/4
f 382/2/4 370/2/4 384/2/4
f 383/2/4 382/2/4 384/2/4
f 383/1/4 384/1/4 385/1/4
f 384/2/4 370/2/4 386/2/4
f 385/1/4 384/1/4 386/1/4
f 385/2/4 386/2/4 387/2/4
f 386/2/4 370/2/4 388/2/4
f 387/2/4 386/2/4 388/2/4
f 387/1/4 388/1/4 389/1/4
f 388/2/4 370/2/4 390/2/4
f 389/1/4 388/1/4 390/1/4
f 389/2/4 390/2/4 391/2/4
f 390/2/4 370/2/4 392/2/4
f 391/2/4 390/2/4 392/2/4
f 391/1/4 392/1/4 393/1/4
f 392/2/4 370/2/4 394/2/4
f 393/1/4 392/1/4 394/1/4
f 393/2/4 394/2/4 395/2/4
f 370/2/4 362/2/4 396/2/4
f 395/2/4 394/2/4 396/2/4
f 394/2/4 370/2/4 396/2/4
f 396/2/4 362/2/4 398/2/4
f 397/2/4 398/2/4 399/2/4
f 399/2/4 398/2/4 400/2/4
f 399/1/4 400/1/4 401/1/4
f 400/2/4 398/2/4 402/2/4
f 401/1/4 400/1/4 402/1/4
f 401/2/4 402/2/4 403/2/4
f 398/2/4 362/2/4 404/2/4
f 403/2/4 402/2/4 404/2/4
f 402/2/4 398/2/4 404/2/4
f 405/5/4 406/5/4 407/5/4
f 407/5/4 406/5/4 408/5/4
f 409/2/4 410/2/4 411/2/4
f 411/2/4 410/2/4 412/2/4
f 413/5/4 414/5/4 415/5/4
f 415/5/4 414/5/4 416/5/4
f 417/5/4 418/5/4 419/5/4
f 419/5/4 418/5/4 420/5/4
f 421/2/4 422/2/4 423/2/4
f 423/2/4 422/2/4 424/2/4
f 425/5/4 426/5/4 427/5/4
f 427/5/4 426/5/4 428/5/4
f 429/5/4 430/5/4 431/5/4
f 431/5/4 430/5/4 432/5/4
f 429/5/4 431/5/4 433/5/4
f 432/5/4 430/5/4 434/5/4
f 429/5/4 433/5/4 435/5/4
f 433/5/4 434/5/4 435/5/4
f 434/5/4 430/5/4 436/5/4
f 435/5/4 434/5/4 436/5/4
f 437/5/4 438/5/4 439/5/4
f 439/5/4 438/5/4 440/5/4
f 437/5/4 439/5/4 441/5/4
f 439/4/4 440/4/4 441/4/4
f 440/5/4 438/5/4 442/5/4
f 441/4/4 440/4/4 442/4/4
f 437/5/4 441/5/4 443/5/4
f 441/5/4 442/5/4 443/5/4
f 442/5/4 438/5/4 444/5/4
f 443/5/4 442/5/4 444/5/4
f 445/5/4 446/5/4 447/5/4
f 447/5/4 446/5/4 448/5/4
f 445/5/4 447/5/4 449/5/4
f 448/5/4 446/5/4 450/5/4
f 445/5/4 449/5/4 451/5/4
f 449/5/4 450/5/4 451/5/4
f 450/5/4 446/5/4 452/5/4
f 451/5/4 450/5/4 452/5/4
f 458/5/5 454/5/5 453/5/5
f 459/5/5 454/5/5 458/5/5
f 460/5/5 456/5/5 455/5/5
f 461/5/5 456/5/5 460/5/5
f 463/5/5 459/5/5 458/5/5
f 463/5/5 462/5/5 461/5/5
f 463/5/5 461/5/5 460/5/5
f 463/5/5 460/5/5 459/5/5
f 463/5/5 458/5/5 457/5/5
f 464/5/5 462/5/5 463/5/5
f 487/2/5 466/2/5 465/2/5
f 488/1/5 467/1/5 466/1/5
f 488/2/5 466/2/5 487/2/5
f 489/2/5 468/2/5 467/2/5
f 489/1/5 467/1/5 488/1/5
f 490/2/5 468/2/5 489/2/5
f 491/2/5 470/2/5 469/2/5
f 492/1/5 471/1/5 470/1/5
f 492/2/5 470/2/5 491/2/5
f 493/2/5 472/2/5 471/2/5
f 493/1/5 471/1/5 492/1/5
f 494/1/5 473/1/5 472/1/5
f 494/2/5 472/2/5 493/2/5
f 495/2/5 474/2/5 473/2/5
f 495/1/5 473/1/5 494/1/5
f 496/1/5 475/1/5 474/1/5
f 496/2/5 474/2/5 495/2/5
f 497/2/5 476/2/5 475/2/5
f 497/1/5 475/1/5 496/1/5
f 498/1/5 477/1/5 476/1/5
f 498/2/5 476/2/5 497/2/5
f 499/2/5 478/2/5 477/2/5
f 499/1/5 477/1/5 498/1/5
f 500/1/5 479/1/5 478/1/5
f 500/2/5 478/2/5 499/2/5
f 501/2/5 480/2/5 479/2/5
f 501/1/5 479/1/5 500/1/5
f 502/1/5 481/1/5 480/1/5
f 502/2/5 480/2/5 501/2/5
f 503/2/5 482/2/5 481/2/5
f 503/1/5 481/1/5 502/1/5
f 504/2/5 482/2/5 503/2/5
f 505/2/5 484/2/5 483/2/5
f 506/1/5 485/1/5 484/1/5
f 506/2/5 484/2/5 505/2/5
f 507/2/5 486/2/5 485/2/5
f 507/1/5 485/1/5 506/1/5
f 508/2/5 486/2/5 507/2/5
f 509/5/5 463/5/5 457/5/5
f 510/5/5 462/5/5 464/5/5
f 511/5/5 509/5/5 457/5/5
f 511/5/5 510/5/5 509/5/5
f 512/5/5 510/5/5 511/5/5
f 513/5/5 510/5/5 512/5/5
f 514/5/5 510/5/5 513/5/5
f 515/5/5 510/5/5 514/5/5
f 516/5/5 510/5/5 515/5/5
f 517/5/5 462/5/5 510/5/5
f 517/5/5 510/5/5 516/5/5
f 518/5/5 462/5/5 517/5/5
f 519/5/5 513/5/5 512/5/5
f 520/5/5 513/5/5 519/5/5
f 521/5/5 515/5/5 514/5/5
f 522/5/5 515/5/5 521/5/5
f 523/5/5 517/5/5 516/5/5
f 524/5/5 517/5/5 523/5/5
f 529/2/5 526/2/5 525/2/5
f 530/2/5 526/2/5 529/2/5
f 531/2/5 528/2/5 527/2/5
f 532/2/5 528/2/5 531/2/5
f 535/6/5 534/6/5 533/6/5
f 536/6/5 534/6/5 535/6/5
f 537/6/5 535/6/5 533/6/5
f 538/6/5 534/6/5 536/6/5
f 539/6/5 537/6/5 533/6/5
f 539/6/5 538/6/5 537/6/5
f 540/6/5 534/6/5 538/6/5
f 540/6/5 538/6/5 539/6/5
f 545/5/5 542/5/5 541/5/5
f 546/5/5 542/5/5 545/5/5
f 547/5/5 544/5/5 543/5/5
f 548/5/5 544/5/5 547/5/5
f 553/5/5 550/5/5 549/5/5
f 554/5/5 550/5/5 553/5/5
f 555/5/5 552/5/5 551/5/5
f 556/5/5 552/5/5 555/5/5
f 561/5/5 558/5/5 557/5/5
f 562/5/5 558/5/5 561/5/5
f 563/5/5 560/5/5 559/5/5
f 564/5/5 560/5/5 563/5/5
f 567/5/5 566/5/5 565/5/5
f 568/5/5 566/5/5 567/5/5
f 569/5/5 566/5/5 568/5/5
f 570/5/5 566/5/5 569/5/5
f 571/5/5 569/5/5 568/5/5
f 572/5/5 569/5/5 571/5/5
f 577/5/5 574/5/5 573/5/5
f 578/5/5 574/5/5 577/5/5
f 579/5/5 576/5/5 575/5/5
f 580/5/5 576/5/5 579/5/5
f 585/5/5 582/5/5 581/5/5
f 586/5/5 582/5/5 585/5/5
f 587/5/5 584/5/5 583/5/5
f 588/5/5 584/5/5 587/5/5
f 593/5/5 590/5/5 589/5/5
f 594/5/5 590/5/5 593/5/5
f 595/5/5 592/5/5 591/5/5
f 596/5/5 592/5/5 595/5/5
f 597/5/6 598/5/6 599/5/6
f 599/5/6 598/5/6 600/5/6
f 601/5/6 602/5/6 605/5/6
f 605/5/6 602/5/6 606/5/6
f 603/5/6 604/5/6 607/5/6
f 607/5/6 604/5/6 608/5/6
f 609/5/6 610/5/6 613/5/6
f 613/5/6 610/5/6 614/5/6
f 611/5/6 612/5/6 615/5/6
f 615/5/6 612/5/6 616/5/6
f 617/5/6 618/5/6 619/5/6
f 619/5/6 618/5/6 620/5/6
f 621/5/6 622/5/6 625/5/6
f 625/5/6 622/5/6 626/5/6
f 623/5/6 624/5/6 627/5/6
f 627/5/6 624/5/6 628/5/6
f 629/5/6 630/5/6 633/5/6
f 633/5/6 630/5/6 634/5/6
f 631/5/6 632/5/6 635/5/6
f 635/5/6 632/5/6 636/5/6
f 637/5/6 638/5/6 641/5/6
f 641/5/6 638/5/6 642/5/6
f 639/5/6 640/5/6 643/5/6
f 643/5/6 640/5/6 644/5/6
f 645/5/6 646/5/6 649/5/6
f 649/5/6 646/5/6 650/5/6
f 647/5/6 648/5/6 651/5/6
f 651/5/6 648/5/6 652/5/6
f 653/5/6 654/5/6 658/5/6
f 655/5/6 656/5/6 659/5/6
f 657/5/6 658/5/6 661/5/6
f 654/3/6 655/3/6 661/3/6
f 658/5/6 654/5/6 661/5/6
f 659/5/6 660/5/6 662/5/6
f 661/3/6 655/3/6 662/3/6
f 655/5/6 659/5/6 662/5/6
f 657/5/6 661/5/6 663/5/6
f 661/5/6 662/5/6 663/5/6
f 663/5/6 662/5/6 664/5/6
f 664/5/6 662/5/6 665/5/6
f 665/5/6 662/5/6 666/5/6
f 662/5/6 660/5/6 667/5/6
f 666/5/6 662/5/6 667/5/6
f 667/5/6 660/5/6 668/5/6
f 668/5/6 660/5/6 669/5/6
f 669/5/6 660/5/6 670/5/6
f 664/5/6 665/5/6 671/5/6
f 671/5/6 665/5/6 672/5/6
f 666/5/6 667/5/6 673/5/6
f 673/5/6 667/5/6 674/5/6
f 668/5/6 669/5/6 675/5/6
f 675/5/6 669/5/6 676/5/6
