# MagicaVoxel @ Ephtracy

# group
g disc-5inch

# material
mtllib disc-5inch.mtl
usemtl palette

# normals
vn -1 0 0
vn 1 0 0
vn 0 0 1
vn 0 0 -1
vn 0 -1 0
vn 0 1 0

# texcoords
vt 0.939453 0.5
vt 0.966797 0.5
vt 0.970703 0.5
vt 0.986328 0.5
vt 0.990234 0.5

# verts
v -25 0 0.5
v -25 0 -0.5
v -25 50 0.5
v -25 50 -0.5
v -6 0 0.5
v -6 0 -0.5
v -6 1 0.5
v -6 1 -0.5
v 3 32 0.5
v 3 32 -0.5
v 3 33 0.5
v 3 33 -0.5
v 5 21 0.5
v 5 21 -0.5
v 5 22 0.5
v 5 22 -0.5
v 5 31 0.5
v 5 31 -0.5
v 5 32 0.5
v 5 32 -0.5
v 6 22 0.5
v 6 22 -0.5
v 6 24 0.5
v 6 24 -0.5
v 6 29 0.5
v 6 29 -0.5
v 6 31 0.5
v 6 31 -0.5
v 7 24 0.5
v 7 24 -0.5
v 7 29 0.5
v 7 29 -0.5
v 8 0 0.5
v 8 0 -0.5
v 8 1 0.5
v 8 1 -0.5
v -7 0 0.5
v -7 0 -0.5
v -7 1 0.5
v -7 1 -0.5
v -6 24 0.5
v -6 24 -0.5
v -6 29 0.5
v -6 29 -0.5
v -5 22 0.5
v -5 22 -0.5
v -5 24 0.5
v -5 24 -0.5
v -5 29 0.5
v -5 29 -0.5
v -5 31 0.5
v -5 31 -0.5
v -4 21 0.5
v -4 21 -0.5
v -4 22 0.5
v -4 22 -0.5
v -4 31 0.5
v -4 31 -0.5
v -4 32 0.5
v -4 32 -0.5
v -2 32 0.5
v -2 32 -0.5
v -2 33 0.5
v -2 33 -0.5
v 7 0 0.5
v 7 0 -0.5
v 7 1 0.5
v 7 1 -0.5
v 23 36 0.5
v 23 36 -0.5
v 23 38 0.5
v 23 38 -0.5
v 25 0 0.5
v 25 0 -0.5
v 25 36 0.5
v 25 36 -0.5
v 25 38 0.5
v 25 38 -0.5
v 25 50 0.5
v 25 50 -0.5
v -25 0 0.5
v -25 50 0.5
v -23 39 0.5
v -23 48 0.5
v -19 39 0.5
v -19 48 0.5
v -17 42 0.5
v -17 43 0.5
v -17 45 0.5
v -17 46 0.5
v -7 0 0.5
v -7 1 0.5
v -7 24 0.5
v -7 29 0.5
v -6 0 0.5
v -6 1 0.5
v -6 22 0.5
v -6 24 0.5
v -6 29 0.5
v -6 31 0.5
v -5 21 0.5
v -5 22 0.5
v -5 24 0.5
v -5 29 0.5
v -5 31 0.5
v -5 32 0.5
v -4 20 0.5
v -4 21 0.5
v -4 22 0.5
v -4 31 0.5
v -4 32 0.5
v -4 33 0.5
v -3 2 0.5
v -3 14 0.5
v -2 1 0.5
v -2 2 0.5
v -2 14 0.5
v -2 15 0.5
v -2 19 0.5
v -2 20 0.5
v -2 21 0.5
v -2 32 0.5
v -2 33 0.5
v -2 34 0.5
v 2 42 0.5
v 2 43 0.5
v 2 45 0.5
v 2 46 0.5
v 3 1 0.5
v 3 2 0.5
v 3 14 0.5
v 3 15 0.5
v 3 19 0.5
v 3 20 0.5
v 3 21 0.5
v 3 32 0.5
v 3 33 0.5
v 3 34 0.5
v 4 2 0.5
v 4 14 0.5
v 4 39 0.5
v 4 48 0.5
v 5 20 0.5
v 5 21 0.5
v 5 22 0.5
v 5 31 0.5
v 5 32 0.5
v 5 33 0.5
v 6 21 0.5
v 6 22 0.5
v 6 24 0.5
v 6 29 0.5
v 6 31 0.5
v 6 32 0.5
v 7 0 0.5
v 7 1 0.5
v 7 22 0.5
v 7 24 0.5
v 7 29 0.5
v 7 31 0.5
v 8 0 0.5
v 8 1 0.5
v 8 24 0.5
v 8 29 0.5
v 9 19 0.5
v 9 21 0.5
v 11 19 0.5
v 11 21 0.5
v 23 36 0.5
v 23 38 0.5
v 25 0 0.5
v 25 36 0.5
v 25 38 0.5
v 25 50 0.5
v -25 0 -0.5
v -25 50 -0.5
v -23 39 -0.5
v -23 48 -0.5
v -19 39 -0.5
v -19 48 -0.5
v -17 42 -0.5
v -17 43 -0.5
v -17 45 -0.5
v -17 46 -0.5
v -7 0 -0.5
v -7 1 -0.5
v -7 24 -0.5
v -7 29 -0.5
v -6 0 -0.5
v -6 1 -0.5
v -6 22 -0.5
v -6 24 -0.5
v -6 29 -0.5
v -6 31 -0.5
v -5 21 -0.5
v -5 22 -0.5
v -5 24 -0.5
v -5 29 -0.5
v -5 31 -0.5
v -5 32 -0.5
v -4 20 -0.5
v -4 21 -0.5
v -4 22 -0.5
v -4 31 -0.5
v -4 32 -0.5
v -4 33 -0.5
v -3 2 -0.5
v -3 14 -0.5
v -2 1 -0.5
v -2 2 -0.5
v -2 14 -0.5
v -2 15 -0.5
v -2 19 -0.5
v -2 20 -0.5
v -2 21 -0.5
v -2 32 -0.5
v -2 33 -0.5
v -2 34 -0.5
v 2 42 -0.5
v 2 43 -0.5
v 2 45 -0.5
v 2 46 -0.5
v 3 1 -0.5
v 3 2 -0.5
v 3 14 -0.5
v 3 15 -0.5
v 3 19 -0.5
v 3 20 -0.5
v 3 21 -0.5
v 3 32 -0.5
v 3 33 -0.5
v 3 34 -0.5
v 4 2 -0.5
v 4 14 -0.5
v 4 39 -0.5
v 4 48 -0.5
v 5 20 -0.5
v 5 21 -0.5
v 5 22 -0.5
v 5 31 -0.5
v 5 32 -0.5
v 5 33 -0.5
v 6 21 -0.5
v 6 22 -0.5
v 6 24 -0.5
v 6 29 -0.5
v 6 31 -0.5
v 6 32 -0.5
v 7 0 -0.5
v 7 1 -0.5
v 7 22 -0.5
v 7 24 -0.5
v 7 29 -0.5
v 7 31 -0.5
v 8 0 -0.5
v 8 1 -0.5
v 8 24 -0.5
v 8 29 -0.5
v 9 19 -0.5
v 9 21 -0.5
v 11 19 -0.5
v 11 21 -0.5
v 23 36 -0.5
v 23 38 -0.5
v 25 0 -0.5
v 25 36 -0.5
v 25 38 -0.5
v 25 50 -0.5
v -25 0 0.5
v -7 0 0.5
v -6 0 0.5
v 7 0 0.5
v 8 0 0.5
v 25 0 0.5
v -25 0 -0.5
v -7 0 -0.5
v -6 0 -0.5
v 7 0 -0.5
v 8 0 -0.5
v 25 0 -0.5
v -7 1 0.5
v -6 1 0.5
v 7 1 0.5
v 8 1 0.5
v -7 1 -0.5
v -6 1 -0.5
v 7 1 -0.5
v 8 1 -0.5
v -6 29 0.5
v -5 29 0.5
v 6 29 0.5
v 7 29 0.5
v -6 29 -0.5
v -5 29 -0.5
v 6 29 -0.5
v 7 29 -0.5
v -5 31 0.5
v -4 31 0.5
v 5 31 0.5
v 6 31 0.5
v -5 31 -0.5
v -4 31 -0.5
v 5 31 -0.5
v 6 31 -0.5
v -4 32 0.5
v -2 32 0.5
v 3 32 0.5
v 5 32 0.5
v -4 32 -0.5
v -2 32 -0.5
v 3 32 -0.5
v 5 32 -0.5
v -2 33 0.5
v 3 33 0.5
v -2 33 -0.5
v 3 33 -0.5
v 23 38 0.5
v 25 38 0.5
v 23 38 -0.5
v 25 38 -0.5
v -4 21 0.5
v -2 21 0.5
v 3 21 0.5
v 5 21 0.5
v -4 21 -0.5
v -2 21 -0.5
v 3 21 -0.5
v 5 21 -0.5
v -5 22 0.5
v -4 22 0.5
v 5 22 0.5
v 6 22 0.5
v -5 22 -0.5
v -4 22 -0.5
v 5 22 -0.5
v 6 22 -0.5
v -6 24 0.5
v -5 24 0.5
v 6 24 0.5
v 7 24 0.5
v -6 24 -0.5
v -5 24 -0.5
v 6 24 -0.5
v 7 24 -0.5
v 23 36 0.5
v 25 36 0.5
v 23 36 -0.5
v 25 36 -0.5
v -25 50 0.5
v 25 50 0.5
v -25 50 -0.5
v 25 50 -0.5

# faces
f 3/5/1 2/5/1 1/5/1
f 4/5/1 2/5/1 3/5/1
f 7/5/1 6/5/1 5/5/1
f 8/5/1 6/5/1 7/5/1
f 11/4/1 10/4/1 9/4/1
f 12/4/1 10/4/1 11/4/1
f 15/4/1 14/4/1 13/4/1
f 16/4/1 14/4/1 15/4/1
f 19/4/1 18/4/1 17/4/1
f 20/4/1 18/4/1 19/4/1
f 23/4/1 22/4/1 21/4/1
f 24/4/1 22/4/1 23/4/1
f 27/4/1 26/4/1 25/4/1
f 28/4/1 26/4/1 27/4/1
f 31/4/1 30/4/1 29/4/1
f 32/4/1 30/4/1 31/4/1
f 35/5/1 34/5/1 33/5/1
f 36/5/1 34/5/1 35/5/1
f 37/5/2 38/5/2 39/5/2
f 39/5/2 38/5/2 40/5/2
f 41/4/2 42/4/2 43/4/2
f 43/4/2 42/4/2 44/4/2
f 45/4/2 46/4/2 47/4/2
f 47/4/2 46/4/2 48/4/2
f 49/4/2 50/4/2 51/4/2
f 51/4/2 50/4/2 52/4/2
f 53/4/2 54/4/2 55/4/2
f 55/4/2 54/4/2 56/4/2
f 57/4/2 58/4/2 59/4/2
f 59/4/2 58/4/2 60/4/2
f 61/4/2 62/4/2 63/4/2
f 63/4/2 62/4/2 64/4/2
f 65/5/2 66/5/2 67/5/2
f 67/5/2 66/5/2 68/5/2
f 69/5/2 70/5/2 71/5/2
f 71/5/2 70/5/2 72/5/2
f 73/5/2 74/5/2 75/5/2
f 75/5/2 74/5/2 76/5/2
f 77/5/2 78/5/2 79/5/2
f 79/5/2 78/5/2 80/5/2
f 83/5/3 82/5/3 81/5/3
f 84/5/3 82/5/3 83/5/3
f 85/5/3 83/5/3 81/5/3
f 85/1/3 84/1/3 83/1/3
f 86/5/3 82/5/3 84/5/3
f 86/1/3 84/1/3 85/1/3
f 87/2/3 86/2/3 85/2/3
f 88/2/3 86/2/3 87/2/3
f 89/2/3 86/2/3 88/2/3
f 90/2/3 86/2/3 89/2/3
f 91/5/3 85/5/3 81/5/3
f 92/5/3 85/5/3 91/5/3
f 93/5/3 85/5/3 92/5/3
f 94/5/3 85/5/3 93/5/3
f 96/5/3 93/5/3 92/5/3
f 97/5/3 93/5/3 96/5/3
f 98/4/3 94/4/3 93/4/3
f 98/5/3 93/5/3 97/5/3
f 99/5/3 85/5/3 94/5/3
f 99/4/3 94/4/3 98/4/3
f 100/5/3 85/5/3 99/5/3
f 101/5/3 97/5/3 96/5/3
f 101/5/3 96/5/3 95/5/3
f 102/4/3 98/4/3 97/4/3
f 102/5/3 97/5/3 101/5/3
f 103/4/3 98/4/3 102/4/3
f 104/4/3 100/4/3 99/4/3
f 105/5/3 85/5/3 100/5/3
f 105/4/3 100/4/3 104/4/3
f 106/5/3 85/5/3 105/5/3
f 107/5/3 101/5/3 95/5/3
f 108/4/3 102/4/3 101/4/3
f 108/5/3 101/5/3 107/5/3
f 109/4/3 102/4/3 108/4/3
f 110/4/3 106/4/3 105/4/3
f 111/5/3 85/5/3 106/5/3
f 111/4/3 106/4/3 110/4/3
f 112/5/3 85/5/3 111/5/3
f 113/5/3 107/5/3 95/5/3
f 114/5/3 107/5/3 113/5/3
f 115/5/3 113/5/3 95/5/3
f 116/4/3 114/4/3 113/4/3
f 116/5/3 113/5/3 115/5/3
f 117/5/3 107/5/3 114/5/3
f 117/4/3 114/4/3 116/4/3
f 118/5/3 107/5/3 117/5/3
f 119/5/3 107/5/3 118/5/3
f 120/4/3 108/4/3 107/4/3
f 120/5/3 107/5/3 119/5/3
f 121/4/3 108/4/3 120/4/3
f 122/4/3 112/4/3 111/4/3
f 123/5/3 85/5/3 112/5/3
f 123/4/3 112/4/3 122/4/3
f 124/5/3 85/5/3 123/5/3
f 125/2/3 87/2/3 85/2/3
f 125/3/3 88/3/3 87/3/3
f 126/2/3 89/2/3 88/2/3
f 126/3/3 88/3/3 125/3/3
f 127/3/3 90/3/3 89/3/3
f 127/2/3 89/2/3 126/2/3
f 128/2/3 86/2/3 90/2/3
f 128/3/3 90/3/3 127/3/3
f 129/4/3 116/4/3 115/4/3
f 129/5/3 115/5/3 95/5/3
f 129/4/3 117/4/3 116/4/3
f 129/4/3 118/4/3 117/4/3
f 130/4/3 118/4/3 129/4/3
f 131/4/3 118/4/3 130/4/3
f 132/5/3 119/5/3 118/5/3
f 132/4/3 118/4/3 131/4/3
f 133/4/3 120/4/3 119/4/3
f 133/5/3 119/5/3 132/5/3
f 134/5/3 121/5/3 120/5/3
f 134/4/3 120/4/3 133/4/3
f 135/5/3 121/5/3 134/5/3
f 137/4/3 124/4/3 123/4/3
f 138/5/3 85/5/3 124/5/3
f 138/4/3 124/4/3 137/4/3
f 139/4/3 131/4/3 130/4/3
f 139/5/3 130/5/3 129/5/3
f 140/5/3 133/5/3 132/5/3
f 140/4/3 131/4/3 139/4/3
f 140/5/3 132/5/3 131/5/3
f 140/5/3 134/5/3 133/5/3
f 141/2/3 127/2/3 126/2/3
f 141/2/3 125/2/3 85/2/3
f 141/2/3 126/2/3 125/2/3
f 141/5/3 138/5/3 137/5/3
f 141/5/3 85/5/3 138/5/3
f 141/2/3 128/2/3 127/2/3
f 142/5/3 82/5/3 86/5/3
f 142/2/3 128/2/3 141/2/3
f 142/2/3 86/2/3 128/2/3
f 143/5/3 134/5/3 140/5/3
f 143/4/3 135/4/3 134/4/3
f 143/5/3 140/5/3 139/5/3
f 144/4/3 135/4/3 143/4/3
f 147/4/3 137/4/3 136/4/3
f 148/5/3 141/5/3 137/5/3
f 148/5/3 142/5/3 141/5/3
f 148/4/3 137/4/3 147/4/3
f 149/4/3 145/4/3 144/4/3
f 149/5/3 144/5/3 143/5/3
f 150/4/3 145/4/3 149/4/3
f 153/4/3 147/4/3 146/4/3
f 154/5/3 148/5/3 147/5/3
f 154/4/3 147/4/3 153/4/3
f 155/5/3 129/5/3 95/5/3
f 155/5/3 139/5/3 129/5/3
f 155/5/3 143/5/3 139/5/3
f 155/5/3 149/5/3 143/5/3
f 155/5/3 150/5/3 149/5/3
f 156/5/3 150/5/3 155/5/3
f 157/4/3 151/4/3 150/4/3
f 157/5/3 150/5/3 156/5/3
f 158/4/3 151/4/3 157/4/3
f 159/4/3 153/4/3 152/4/3
f 160/5/3 154/5/3 153/5/3
f 160/4/3 153/4/3 159/4/3
f 162/5/3 158/5/3 157/5/3
f 162/5/3 157/5/3 156/5/3
f 163/4/3 159/4/3 158/4/3
f 163/5/3 158/5/3 162/5/3
f 164/5/3 160/5/3 159/5/3
f 164/4/3 159/4/3 163/4/3
f 165/5/3 162/5/3 161/5/3
f 165/5/3 163/5/3 162/5/3
f 165/5/3 164/5/3 163/5/3
f 166/5/3 164/5/3 165/5/3
f 167/5/3 165/5/3 161/5/3
f 167/4/3 166/4/3 165/4/3
f 168/5/3 164/5/3 166/5/3
f 168/4/3 166/4/3 167/4/3
f 169/5/3 154/5/3 160/5/3
f 169/5/3 164/5/3 168/5/3
f 169/5/3 168/5/3 167/5/3
f 169/5/3 142/5/3 148/5/3
f 169/5/3 148/5/3 154/5/3
f 169/5/3 160/5/3 164/5/3
f 170/5/3 142/5/3 169/5/3
f 171/5/3 167/5/3 161/5/3
f 171/5/3 169/5/3 167/5/3
f 172/5/3 169/5/3 171/5/3
f 173/5/3 142/5/3 170/5/3
f 174/5/3 82/5/3 142/5/3
f 174/5/3 142/5/3 173/5/3
f 175/5/4 176/5/4 177/5/4
f 177/5/4 176/5/4 178/5/4
f 175/5/4 177/5/4 179/5/4
f 177/1/4 178/1/4 179/1/4
f 178/5/4 176/5/4 180/5/4
f 179/1/4 178/1/4 180/1/4
f 179/2/4 180/2/4 181/2/4
f 181/2/4 180/2/4 182/2/4
f 182/2/4 180/2/4 183/2/4
f 183/2/4 180/2/4 184/2/4
f 175/5/4 179/5/4 185/5/4
f 185/5/4 179/5/4 186/5/4
f 186/5/4 179/5/4 187/5/4
f 187/5/4 179/5/4 188/5/4
f 186/5/4 187/5/4 190/5/4
f 190/5/4 187/5/4 191/5/4
f 187/4/4 188/4/4 192/4/4
f 191/5/4 187/5/4 192/5/4
f 188/5/4 179/5/4 193/5/4
f 192/4/4 188/4/4 193/4/4
f 193/5/4 179/5/4 194/5/4
f 190/5/4 191/5/4 195/5/4
f 189/5/4 190/5/4 195/5/4
f 191/4/4 192/4/4 196/4/4
f 195/5/4 191/5/4 196/5/4
f 196/4/4 192/4/4 197/4/4
f 193/4/4 194/4/4 198/4/4
f 194/5/4 179/5/4 199/5/4
f 198/4/4 194/4/4 199/4/4
f 199/5/4 179/5/4 200/5/4
f 189/5/4 195/5/4 201/5/4
f 195/4/4 196/4/4 202/4/4
f 201/5/4 195/5/4 202/5/4
f 202/4/4 196/4/4 203/4/4
f 199/4/4 200/4/4 204/4/4
f 200/5/4 179/5/4 205/5/4
f 204/4/4 200/4/4 205/4/4
f 205/5/4 179/5/4 206/5/4
f 189/5/4 201/5/4 207/5/4
f 207/5/4 201/5/4 208/5/4
f 189/5/4 207/5/4 209/5/4
f 207/4/4 208/4/4 210/4/4
f 209/5/4 207/5/4 210/5/4
f 208/5/4 201/5/4 211/5/4
f 210/4/4 208/4/4 211/4/4
f 211/5/4 201/5/4 212/5/4
f 212/5/4 201/5/4 213/5/4
f 201/4/4 202/4/4 214/4/4
f 213/5/4 201/5/4 214/5/4
f 214/4/4 202/4/4 215/4/4
f 205/4/4 206/4/4 216/4/4
f 206/5/4 179/5/4 217/5/4
f 216/4/4 206/4/4 217/4/4
f 217/5/4 179/5/4 218/5/4
f 179/2/4 181/2/4 219/2/4
f 181/3/4 182/3/4 219/3/4
f 182/2/4 183/2/4 220/2/4
f 219/3/4 182/3/4 220/3/4
f 183/3/4 184/3/4 221/3/4
f 220/2/4 183/2/4 221/2/4
f 184/2/4 180/2/4 222/2/4
f 221/3/4 184/3/4 222/3/4
f 209/4/4 210/4/4 223/4/4
f 189/5/4 209/5/4 223/5/4
f 210/4/4 211/4/4 223/4/4
f 211/4/4 212/4/4 223/4/4
f 223/4/4 212/4/4 224/4/4
f 224/4/4 212/4/4 225/4/4
f 212/5/4 213/5/4 226/5/4
f 225/4/4 212/4/4 226/4/4
f 213/4/4 214/4/4 227/4/4
f 226/5/4 213/5/4 227/5/4
f 214/5/4 215/5/4 228/5/4
f 227/4/4 214/4/4 228/4/4
f 228/5/4 215/5/4 229/5/4
f 217/4/4 218/4/4 231/4/4
f 218/5/4 179/5/4 232/5/4
f 231/4/4 218/4/4 232/4/4
f 224/4/4 225/4/4 233/4/4
f 223/5/4 224/5/4 233/5/4
f 226/5/4 227/5/4 234/5/4
f 233/4/4 225/4/4 234/4/4
f 225/5/4 226/5/4 234/5/4
f 227/5/4 228/5/4 234/5/4
f 220/2/4 221/2/4 235/2/4
f 179/2/4 219/2/4 235/2/4
f 219/2/4 220/2/4 235/2/4
f 231/5/4 232/5/4 235/5/4
f 232/5/4 179/5/4 235/5/4
f 221/2/4 222/2/4 235/2/4
f 180/5/4 176/5/4 236/5/4
f 235/2/4 222/2/4 236/2/4
f 222/2/4 180/2/4 236/2/4
f 234/5/4 228/5/4 237/5/4
f 228/4/4 229/4/4 237/4/4
f 233/5/4 234/5/4 237/5/4
f 237/4/4 229/4/4 238/4/4
f 230/4/4 231/4/4 241/4/4
f 231/5/4 235/5/4 242/5/4
f 235/5/4 236/5/4 242/5/4
f 241/4/4 231/4/4 242/4/4
f 238/4/4 239/4/4 243/4/4
f 237/5/4 238/5/4 243/5/4
f 243/4/4 239/4/4 244/4/4
f 240/4/4 241/4/4 247/4/4
f 241/5/4 242/5/4 248/5/4
f 247/4/4 241/4/4 248/4/4
f 189/5/4 223/5/4 249/5/4
f 223/5/4 233/5/4 249/5/4
f 233/5/4 237/5/4 249/5/4
f 237/5/4 243/5/4 249/5/4
f 243/5/4 244/5/4 249/5/4
f 249/5/4 244/5/4 250/5/4
f 244/4/4 245/4/4 251/4/4
f 250/5/4 244/5/4 251/5/4
f 251/4/4 245/4/4 252/4/4
f 246/4/4 247/4/4 253/4/4
f 247/5/4 248/5/4 254/5/4
f 253/4/4 247/4/4 254/4/4
f 251/5/4 252/5/4 256/5/4
f 250/5/4 251/5/4 256/5/4
f 252/4/4 253/4/4 257/4/4
f 256/5/4 252/5/4 257/5/4
f 253/5/4 254/5/4 258/5/4
f 257/4/4 253/4/4 258/4/4
f 255/5/4 256/5/4 259/5/4
f 256/5/4 257/5/4 259/5/4
f 257/5/4 258/5/4 259/5/4
f 259/5/4 258/5/4 260/5/4
f 255/5/4 259/5/4 261/5/4
f 259/4/4 260/4/4 261/4/4
f 260/5/4 258/5/4 262/5/4
f 261/4/4 260/4/4 262/4/4
f 254/5/4 248/5/4 263/5/4
f 262/5/4 258/5/4 263/5/4
f 261/5/4 262/5/4 263/5/4
f 242/5/4 236/5/4 263/5/4
f 248/5/4 242/5/4 263/5/4
f 258/5/4 254/5/4 263/5/4
f 263/5/4 236/5/4 264/5/4
f 255/5/4 261/5/4 265/5/4
f 261/5/4 263/5/4 265/5/4
f 265/5/4 263/5/4 266/5/4
f 264/5/4 236/5/4 267/5/4
f 236/5/4 176/5/4 268/5/4
f 267/5/4 236/5/4 268/5/4
f 275/5/5 270/5/5 269/5/5
f 276/5/5 270/5/5 275/5/5
f 277/5/5 272/5/5 271/5/5
f 278/5/5 272/5/5 277/5/5
f 279/5/5 274/5/5 273/5/5
f 280/5/5 274/5/5 279/5/5
f 285/5/5 282/5/5 281/5/5
f 286/5/5 282/5/5 285/5/5
f 287/5/5 284/5/5 283/5/5
f 288/5/5 284/5/5 287/5/5
f 293/4/5 290/4/5 289/4/5
f 294/4/5 290/4/5 293/4/5
f 295/4/5 292/4/5 291/4/5
f 296/4/5 292/4/5 295/4/5
f 301/4/5 298/4/5 297/4/5
f 302/4/5 298/4/5 301/4/5
f 303/4/5 300/4/5 299/4/5
f 304/4/5 300/4/5 303/4/5
f 309/4/5 306/4/5 305/4/5
f 310/4/5 306/4/5 309/4/5
f 311/4/5 308/4/5 307/4/5
f 312/4/5 308/4/5 311/4/5
f 315/4/5 314/4/5 313/4/5
f 316/4/5 314/4/5 315/4/5
f 319/5/5 318/5/5 317/5/5
f 320/5/5 318/5/5 319/5/5
f 321/4/6 322/4/6 325/4/6
f 322/5/6 323/5/6 326/5/6
f 325/4/6 322/4/6 326/4/6
f 323/4/6 324/4/6 327/4/6
f 326/5/6 323/5/6 327/5/6
f 327/4/6 324/4/6 328/4/6
f 329/4/6 330/4/6 333/4/6
f 333/4/6 330/4/6 334/4/6
f 331/4/6 332/4/6 335/4/6
f 335/4/6 332/4/6 336/4/6
f 337/4/6 338/4/6 341/4/6
f 341/4/6 338/4/6 342/4/6
f 339/4/6 340/4/6 343/4/6
f 343/4/6 340/4/6 344/4/6
f 345/5/6 346/5/6 347/5/6
f 347/5/6 346/5/6 348/5/6
f 349/5/6 350/5/6 351/5/6
f 351/5/6 350/5/6 352/5/6
