# MagicaVoxel @ Ephtracy

# group
g disc-5inch

# material
mtllib disc-5inch.mtl
usemtl palette

# normals
vn -1 0 0
vn 1 0 0
vn 0 0 1
vn 0 0 -1
vn 0 -1 0
vn 0 1 0

# texcoords
vt 0.861328 0.5
vt 0.958984 0.5
vt 0.978516 0.5
vt 0.986328 0.5
vt 0.990234 0.5
vt 0.994141 0.5

# verts
v -25 0 0.5
v -25 0 -0.5
v -25 50 0.5
v -25 50 -0.5
v -6 0 0.5
v -6 0 -0.5
v -6 1 0.5
v -6 1 -0.5
v 3 20 0.5
v 3 20 -0.5
v 3 21 0.5
v 3 21 -0.5
v 3 32 0.5
v 3 32 -0.5
v 3 33 0.5
v 3 33 -0.5
v 5 21 0.5
v 5 21 -0.5
v 5 22 0.5
v 5 22 -0.5
v 5 31 0.5
v 5 31 -0.5
v 5 32 0.5
v 5 32 -0.5
v 6 22 0.5
v 6 22 -0.5
v 6 24 0.5
v 6 24 -0.5
v 6 29 0.5
v 6 29 -0.5
v 6 31 0.5
v 6 31 -0.5
v 7 24 0.5
v 7 24 -0.5
v 7 29 0.5
v 7 29 -0.5
v 8 0 0.5
v 8 0 -0.5
v 8 1 0.5
v 8 1 -0.5
v -7 0 0.5
v -7 0 -0.5
v -7 1 0.5
v -7 1 -0.5
v -6 24 0.5
v -6 24 -0.5
v -6 29 0.5
v -6 29 -0.5
v -5 22 0.5
v -5 22 -0.5
v -5 24 0.5
v -5 24 -0.5
v -5 29 0.5
v -5 29 -0.5
v -5 31 0.5
v -5 31 -0.5
v -4 21 0.5
v -4 21 -0.5
v -4 22 0.5
v -4 22 -0.5
v -4 31 0.5
v -4 31 -0.5
v -4 32 0.5
v -4 32 -0.5
v -2 20 0.5
v -2 20 -0.5
v -2 21 0.5
v -2 21 -0.5
v -2 32 0.5
v -2 32 -0.5
v -2 33 0.5
v -2 33 -0.5
v 7 0 0.5
v 7 0 -0.5
v 7 1 0.5
v 7 1 -0.5
v 23 36 0.5
v 23 36 -0.5
v 23 38 0.5
v 23 38 -0.5
v 25 0 0.5
v 25 0 -0.5
v 25 36 0.5
v 25 36 -0.5
v 25 38 0.5
v 25 38 -0.5
v 25 50 0.5
v 25 50 -0.5
v -25 0 0.5
v -25 50 0.5
v -23 39 0.5
v -23 48 0.5
v -19 39 0.5
v -19 48 0.5
v -18 43 0.5
v -18 47 0.5
v -17 40 0.5
v -17 42 0.5
v -17 43 0.5
v -17 45 0.5
v -16 45 0.5
v -16 47 0.5
v -15 41 0.5
v -15 42 0.5
v -15 43 0.5
v -15 47 0.5
v -14 40 0.5
v -14 41 0.5
v -14 44 0.5
v -14 47 0.5
v -13 43 0.5
v -13 44 0.5
v -12 40 0.5
v -12 41 0.5
v -12 43 0.5
v -12 47 0.5
v -11 41 0.5
v -11 42 0.5
v -11 43 0.5
v -11 45 0.5
v -10 43 0.5
v -10 45 0.5
v -9 43 0.5
v -9 47 0.5
v -8 41 0.5
v -8 42 0.5
v -8 46 0.5
v -8 47 0.5
v -7 0 0.5
v -7 1 0.5
v -7 24 0.5
v -7 29 0.5
v -7 40 0.5
v -7 41 0.5
v -7 43 0.5
v -7 46 0.5
v -6 0 0.5
v -6 1 0.5
v -6 22 0.5
v -6 24 0.5
v -6 29 0.5
v -6 31 0.5
v -6 43 0.5
v -6 46 0.5
v -5 21 0.5
v -5 22 0.5
v -5 24 0.5
v -5 29 0.5
v -5 31 0.5
v -5 32 0.5
v -5 46 0.5
v -5 47 0.5
v -4 20 0.5
v -4 21 0.5
v -4 22 0.5
v -4 31 0.5
v -4 32 0.5
v -4 33 0.5
v -4 40 0.5
v -4 42 0.5
v -4 44 0.5
v -4 45 0.5
v -3 2 0.5
v -3 14 0.5
v -3 41 0.5
v -3 42 0.5
v -2 1 0.5
v -2 2 0.5
v -2 14 0.5
v -2 15 0.5
v -2 19 0.5
v -2 20 0.5
v -2 21 0.5
v -2 32 0.5
v -2 33 0.5
v -2 34 0.5
v -2 41 0.5
v -2 42 0.5
v -2 44 0.5
v -2 45 0.5
v -1 43 0.5
v -1 45 0.5
v -1 46 0.5
v -1 47 0.5
v 0 41 0.5
v 0 42 0.5
v 0 43 0.5
v 0 45 0.5
v 0 46 0.5
v 0 47 0.5
v 1 43 0.5
v 1 45 0.5
v 1 46 0.5
v 1 47 0.5
v 2 40 0.5
v 2 41 0.5
v 2 43 0.5
v 2 45 0.5
v 2 46 0.5
v 2 47 0.5
v 3 1 0.5
v 3 2 0.5
v 3 14 0.5
v 3 15 0.5
v 3 19 0.5
v 3 20 0.5
v 3 21 0.5
v 3 32 0.5
v 3 33 0.5
v 3 34 0.5
v 4 2 0.5
v 4 14 0.5
v 4 39 0.5
v 4 48 0.5
v 5 20 0.5
v 5 21 0.5
v 5 22 0.5
v 5 31 0.5
v 5 32 0.5
v 5 33 0.5
v 6 21 0.5
v 6 22 0.5
v 6 24 0.5
v 6 29 0.5
v 6 31 0.5
v 6 32 0.5
v 7 0 0.5
v 7 1 0.5
v 7 22 0.5
v 7 24 0.5
v 7 29 0.5
v 7 31 0.5
v 8 0 0.5
v 8 1 0.5
v 8 24 0.5
v 8 29 0.5
v 9 19 0.5
v 9 21 0.5
v 11 19 0.5
v 11 21 0.5
v 23 36 0.5
v 23 38 0.5
v 25 0 0.5
v 25 36 0.5
v 25 38 0.5
v 25 50 0.5
v -25 0 -0.5
v -25 50 -0.5
v -23 39 -0.5
v -23 48 -0.5
v -19 39 -0.5
v -19 48 -0.5
v -18 43 -0.5
v -18 47 -0.5
v -17 40 -0.5
v -17 42 -0.5
v -17 43 -0.5
v -17 45 -0.5
v -16 45 -0.5
v -16 47 -0.5
v -15 41 -0.5
v -15 42 -0.5
v -15 43 -0.5
v -15 47 -0.5
v -14 40 -0.5
v -14 41 -0.5
v -14 44 -0.5
v -14 47 -0.5
v -13 43 -0.5
v -13 44 -0.5
v -12 40 -0.5
v -12 41 -0.5
v -12 43 -0.5
v -12 47 -0.5
v -11 41 -0.5
v -11 42 -0.5
v -11 43 -0.5
v -11 45 -0.5
v -10 43 -0.5
v -10 45 -0.5
v -9 43 -0.5
v -9 47 -0.5
v -8 41 -0.5
v -8 42 -0.5
v -8 46 -0.5
v -8 47 -0.5
v -7 0 -0.5
v -7 1 -0.5
v -7 24 -0.5
v -7 29 -0.5
v -7 40 -0.5
v -7 41 -0.5
v -7 43 -0.5
v -7 46 -0.5
v -6 0 -0.5
v -6 1 -0.5
v -6 22 -0.5
v -6 24 -0.5
v -6 29 -0.5
v -6 31 -0.5
v -6 43 -0.5
v -6 46 -0.5
v -5 21 -0.5
v -5 22 -0.5
v -5 24 -0.5
v -5 29 -0.5
v -5 31 -0.5
v -5 32 -0.5
v -5 46 -0.5
v -5 47 -0.5
v -4 20 -0.5
v -4 21 -0.5
v -4 22 -0.5
v -4 31 -0.5
v -4 32 -0.5
v -4 33 -0.5
v -4 40 -0.5
v -4 42 -0.5
v -4 44 -0.5
v -4 45 -0.5
v -3 2 -0.5
v -3 14 -0.5
v -3 41 -0.5
v -3 42 -0.5
v -2 1 -0.5
v -2 2 -0.5
v -2 14 -0.5
v -2 15 -0.5
v -2 19 -0.5
v -2 20 -0.5
v -2 21 -0.5
v -2 32 -0.5
v -2 33 -0.5
v -2 34 -0.5
v -2 41 -0.5
v -2 42 -0.5
v -2 44 -0.5
v -2 45 -0.5
v -1 43 -0.5
v -1 45 -0.5
v -1 46 -0.5
v -1 47 -0.5
v 0 41 -0.5
v 0 42 -0.5
v 0 43 -0.5
v 0 45 -0.5
v 0 46 -0.5
v 0 47 -0.5
v 1 43 -0.5
v 1 45 -0.5
v 1 46 -0.5
v 1 47 -0.5
v 2 40 -0.5
v 2 41 -0.5
v 2 43 -0.5
v 2 45 -0.5
v 2 46 -0.5
v 2 47 -0.5
v 3 1 -0.5
v 3 2 -0.5
v 3 14 -0.5
v 3 15 -0.5
v 3 19 -0.5
v 3 20 -0.5
v 3 21 -0.5
v 3 32 -0.5
v 3 33 -0.5
v 3 34 -0.5
v 4 2 -0.5
v 4 14 -0.5
v 4 39 -0.5
v 4 48 -0.5
v 5 20 -0.5
v 5 21 -0.5
v 5 22 -0.5
v 5 31 -0.5
v 5 32 -0.5
v 5 33 -0.5
v 6 21 -0.5
v 6 22 -0.5
v 6 24 -0.5
v 6 29 -0.5
v 6 31 -0.5
v 6 32 -0.5
v 7 0 -0.5
v 7 1 -0.5
v 7 22 -0.5
v 7 24 -0.5
v 7 29 -0.5
v 7 31 -0.5
v 8 0 -0.5
v 8 1 -0.5
v 8 24 -0.5
v 8 29 -0.5
v 9 19 -0.5
v 9 21 -0.5
v 11 19 -0.5
v 11 21 -0.5
v 23 36 -0.5
v 23 38 -0.5
v 25 0 -0.5
v 25 36 -0.5
v 25 38 -0.5
v 25 50 -0.5
v -25 0 0.5
v -7 0 0.5
v -6 0 0.5
v 7 0 0.5
v 8 0 0.5
v 25 0 0.5
v -25 0 -0.5
v -7 0 -0.5
v -6 0 -0.5
v 7 0 -0.5
v 8 0 -0.5
v 25 0 -0.5
v -7 1 0.5
v -6 1 0.5
v 7 1 0.5
v 8 1 0.5
v -7 1 -0.5
v -6 1 -0.5
v 7 1 -0.5
v 8 1 -0.5
v -6 29 0.5
v -5 29 0.5
v 6 29 0.5
v 7 29 0.5
v -6 29 -0.5
v -5 29 -0.5
v 6 29 -0.5
v 7 29 -0.5
v -5 31 0.5
v -4 31 0.5
v 5 31 0.5
v 6 31 0.5
v -5 31 -0.5
v -4 31 -0.5
v 5 31 -0.5
v 6 31 -0.5
v -4 32 0.5
v -2 32 0.5
v 3 32 0.5
v 5 32 0.5
v -4 32 -0.5
v -2 32 -0.5
v 3 32 -0.5
v 5 32 -0.5
v -2 33 0.5
v 3 33 0.5
v -2 33 -0.5
v 3 33 -0.5
v 23 38 0.5
v 25 38 0.5
v 23 38 -0.5
v 25 38 -0.5
v -2 20 0.5
v 3 20 0.5
v -2 20 -0.5
v 3 20 -0.5
v -4 21 0.5
v -2 21 0.5
v 3 21 0.5
v 5 21 0.5
v -4 21 -0.5
v -2 21 -0.5
v 3 21 -0.5
v 5 21 -0.5
v -5 22 0.5
v -4 22 0.5
v 5 22 0.5
v 6 22 0.5
v -5 22 -0.5
v -4 22 -0.5
v 5 22 -0.5
v 6 22 -0.5
v -6 24 0.5
v -5 24 0.5
v 6 24 0.5
v 7 24 0.5
v -6 24 -0.5
v -5 24 -0.5
v 6 24 -0.5
v 7 24 -0.5
v 23 36 0.5
v 25 36 0.5
v 23 36 -0.5
v 25 36 -0.5
v -25 50 0.5
v 25 50 0.5
v -25 50 -0.5
v 25 50 -0.5

# faces
f 3/5/1 2/5/1 1/5/1
f 4/5/1 2/5/1 3/5/1
f 7/5/1 6/5/1 5/5/1
f 8/5/1 6/5/1 7/5/1
f 11/4/1 10/4/1 9/4/1
f 12/4/1 10/4/1 11/4/1
f 15/4/1 14/4/1 13/4/1
f 16/4/1 14/4/1 15/4/1
f 19/4/1 18/4/1 17/4/1
f 20/4/1 18/4/1 19/4/1
f 23/4/1 22/4/1 21/4/1
f 24/4/1 22/4/1 23/4/1
f 27/4/1 26/4/1 25/4/1
f 28/4/1 26/4/1 27/4/1
f 31/4/1 30/4/1 29/4/1
f 32/4/1 30/4/1 31/4/1
f 35/4/1 34/4/1 33/4/1
f 36/4/1 34/4/1 35/4/1
f 39/5/1 38/5/1 37/5/1
f 40/5/1 38/5/1 39/5/1
f 41/5/2 42/5/2 43/5/2
f 43/5/2 42/5/2 44/5/2
f 45/4/2 46/4/2 47/4/2
f 47/4/2 46/4/2 48/4/2
f 49/4/2 50/4/2 51/4/2
f 51/4/2 50/4/2 52/4/2
f 53/4/2 54/4/2 55/4/2
f 55/4/2 54/4/2 56/4/2
f 57/4/2 58/4/2 59/4/2
f 59/4/2 58/4/2 60/4/2
f 61/4/2 62/4/2 63/4/2
f 63/4/2 62/4/2 64/4/2
f 65/4/2 66/4/2 67/4/2
f 67/4/2 66/4/2 68/4/2
f 69/4/2 70/4/2 71/4/2
f 71/4/2 70/4/2 72/4/2
f 73/5/2 74/5/2 75/5/2
f 75/5/2 74/5/2 76/5/2
f 77/5/2 78/5/2 79/5/2
f 79/5/2 78/5/2 80/5/2
f 81/5/2 82/5/2 83/5/2
f 83/5/2 82/5/2 84/5/2
f 85/5/2 86/5/2 87/5/2
f 87/5/2 86/5/2 88/5/2
f 91/5/3 90/5/3 89/5/3
f 92/5/3 90/5/3 91/5/3
f 93/5/3 91/5/3 89/5/3
f 93/1/3 92/1/3 91/1/3
f 94/5/3 90/5/3 92/5/3
f 94/1/3 92/1/3 93/1/3
f 95/6/3 94/6/3 93/6/3
f 96/6/3 94/6/3 95/6/3
f 97/6/3 95/6/3 93/6/3
f 98/6/3 95/6/3 97/6/3
f 99/2/3 96/2/3 95/2/3
f 99/6/3 95/6/3 98/6/3
f 100/2/3 96/2/3 99/2/3
f 101/6/3 99/6/3 98/6/3
f 101/2/3 96/2/3 100/2/3
f 101/6/3 100/6/3 99/6/3
f 102/6/3 94/6/3 96/6/3
f 102/2/3 96/2/3 101/2/3
f 103/3/3 98/3/3 97/3/3
f 104/6/3 101/6/3 98/6/3
f 104/3/3 98/3/3 103/3/3
f 104/6/3 102/6/3 101/6/3
f 105/6/3 102/6/3 104/6/3
f 106/6/3 94/6/3 102/6/3
f 106/6/3 102/6/3 105/6/3
f 107/3/3 103/3/3 97/3/3
f 107/6/3 97/6/3 93/6/3
f 108/6/3 105/6/3 104/6/3
f 108/3/3 103/3/3 107/3/3
f 108/6/3 104/6/3 103/6/3
f 109/2/3 106/2/3 105/2/3
f 110/6/3 94/6/3 106/6/3
f 110/2/3 106/2/3 109/2/3
f 111/2/3 109/2/3 105/2/3
f 111/6/3 105/6/3 108/6/3
f 111/6/3 108/6/3 107/6/3
f 112/6/3 110/6/3 109/6/3
f 112/2/3 109/2/3 111/2/3
f 113/6/3 107/6/3 93/6/3
f 113/6/3 111/6/3 107/6/3
f 113/6/3 112/6/3 111/6/3
f 114/6/3 112/6/3 113/6/3
f 115/6/3 112/6/3 114/6/3
f 116/6/3 94/6/3 110/6/3
f 116/6/3 112/6/3 115/6/3
f 116/6/3 110/6/3 112/6/3
f 117/6/3 115/6/3 114/6/3
f 117/3/3 114/3/3 113/3/3
f 118/6/3 115/6/3 117/6/3
f 119/2/3 116/2/3 115/2/3
f 119/6/3 115/6/3 118/6/3
f 120/2/3 116/2/3 119/2/3
f 121/6/3 119/6/3 118/6/3
f 121/6/3 120/6/3 119/6/3
f 122/2/3 116/2/3 120/2/3
f 122/6/3 120/6/3 121/6/3
f 123/6/3 121/6/3 118/6/3
f 123/2/3 122/2/3 121/2/3
f 124/6/3 94/6/3 116/6/3
f 124/2/3 122/2/3 123/2/3
f 124/2/3 116/2/3 122/2/3
f 125/3/3 118/3/3 117/3/3
f 125/3/3 117/3/3 113/3/3
f 126/6/3 123/6/3 118/6/3
f 126/3/3 118/3/3 125/3/3
f 126/6/3 124/6/3 123/6/3
f 127/6/3 124/6/3 126/6/3
f 128/6/3 94/6/3 124/6/3
f 128/6/3 124/6/3 127/6/3
f 129/5/3 93/5/3 89/5/3
f 130/5/3 93/5/3 129/5/3
f 131/5/3 93/5/3 130/5/3
f 132/5/3 93/5/3 131/5/3
f 133/3/3 125/3/3 113/3/3
f 133/6/3 113/6/3 93/6/3
f 134/6/3 127/6/3 126/6/3
f 134/3/3 125/3/3 133/3/3
f 134/6/3 126/6/3 125/6/3
f 135/6/3 127/6/3 134/6/3
f 136/2/3 128/2/3 127/2/3
f 136/6/3 127/6/3 135/6/3
f 138/5/3 131/5/3 130/5/3
f 139/5/3 131/5/3 138/5/3
f 140/4/3 132/4/3 131/4/3
f 140/5/3 131/5/3 139/5/3
f 141/5/3 93/5/3 132/5/3
f 141/4/3 132/4/3 140/4/3
f 142/5/3 93/5/3 141/5/3
f 143/2/3 136/2/3 135/2/3
f 143/6/3 135/6/3 134/6/3
f 143/6/3 134/6/3 133/6/3
f 144/2/3 128/2/3 136/2/3
f 144/2/3 136/2/3 143/2/3
f 145/5/3 139/5/3 138/5/3
f 145/5/3 138/5/3 137/5/3
f 146/4/3 140/4/3 139/4/3
f 146/5/3 139/5/3 145/5/3
f 147/4/3 140/4/3 146/4/3
f 148/4/3 142/4/3 141/4/3
f 149/5/3 93/5/3 142/5/3
f 149/4/3 142/4/3 148/4/3
f 150/5/3 93/5/3 149/5/3
f 151/2/3 128/2/3 144/2/3
f 151/6/3 144/6/3 143/6/3
f 152/6/3 94/6/3 128/6/3
f 152/2/3 128/2/3 151/2/3
f 153/5/3 145/5/3 137/5/3
f 154/4/3 146/4/3 145/4/3
f 154/5/3 145/5/3 153/5/3
f 155/4/3 146/4/3 154/4/3
f 156/4/3 150/4/3 149/4/3
f 157/5/3 93/5/3 150/5/3
f 157/4/3 150/4/3 156/4/3
f 158/5/3 93/5/3 157/5/3
f 159/6/3 151/6/3 143/6/3
f 159/6/3 133/6/3 93/6/3
f 159/6/3 152/6/3 151/6/3
f 159/6/3 143/6/3 133/6/3
f 160/6/3 152/6/3 159/6/3
f 161/6/3 152/6/3 160/6/3
f 162/6/3 152/6/3 161/6/3
f 163/5/3 153/5/3 137/5/3
f 164/5/3 153/5/3 163/5/3
f 165/3/3 160/3/3 159/3/3
f 166/6/3 161/6/3 160/6/3
f 166/3/3 160/3/3 165/3/3
f 167/5/3 163/5/3 137/5/3
f 168/4/3 164/4/3 163/4/3
f 168/5/3 163/5/3 167/5/3
f 169/5/3 153/5/3 164/5/3
f 169/4/3 164/4/3 168/4/3
f 170/5/3 153/5/3 169/5/3
f 171/5/3 153/5/3 170/5/3
f 172/4/3 154/4/3 153/4/3
f 172/5/3 153/5/3 171/5/3
f 173/4/3 154/4/3 172/4/3
f 174/4/3 158/4/3 157/4/3
f 175/5/3 93/5/3 158/5/3
f 175/4/3 158/4/3 174/4/3
f 176/5/3 93/5/3 175/5/3
f 177/3/3 165/3/3 159/3/3
f 177/6/3 166/6/3 165/6/3
f 178/6/3 161/6/3 166/6/3
f 178/6/3 166/6/3 177/6/3
f 179/2/3 162/2/3 161/2/3
f 179/6/3 161/6/3 178/6/3
f 180/6/3 152/6/3 162/6/3
f 180/2/3 162/2/3 179/2/3
f 181/6/3 179/6/3 178/6/3
f 181/6/3 180/6/3 179/6/3
f 182/6/3 152/6/3 180/6/3
f 182/6/3 180/6/3 181/6/3
f 183/6/3 152/6/3 182/6/3
f 184/6/3 94/6/3 152/6/3
f 184/6/3 152/6/3 183/6/3
f 185/3/3 178/3/3 177/3/3
f 185/3/3 177/3/3 159/3/3
f 186/6/3 181/6/3 178/6/3
f 186/3/3 178/3/3 185/3/3
f 187/2/3 182/2/3 181/2/3
f 187/6/3 181/6/3 186/6/3
f 188/6/3 183/6/3 182/6/3
f 188/2/3 182/2/3 187/2/3
f 189/2/3 184/2/3 183/2/3
f 189/6/3 183/6/3 188/6/3
f 190/6/3 94/6/3 184/6/3
f 190/2/3 184/2/3 189/2/3
f 191/6/3 187/6/3 186/6/3
f 191/6/3 188/6/3 187/6/3
f 191/6/3 186/6/3 185/6/3
f 192/2/3 189/2/3 188/2/3
f 192/6/3 188/6/3 191/6/3
f 193/6/3 190/6/3 189/6/3
f 193/2/3 189/2/3 192/2/3
f 194/6/3 94/6/3 190/6/3
f 194/6/3 190/6/3 193/6/3
f 195/3/3 185/3/3 159/3/3
f 195/6/3 159/6/3 93/6/3
f 196/6/3 191/6/3 185/6/3
f 196/3/3 185/3/3 195/3/3
f 197/2/3 192/2/3 191/2/3
f 197/6/3 191/6/3 196/6/3
f 198/6/3 193/6/3 192/6/3
f 198/2/3 192/2/3 197/2/3
f 199/2/3 194/2/3 193/2/3
f 199/6/3 193/6/3 198/6/3
f 200/6/3 94/6/3 194/6/3
f 200/2/3 194/2/3 199/2/3
f 201/4/3 168/4/3 167/4/3
f 201/5/3 167/5/3 137/5/3
f 201/4/3 169/4/3 168/4/3
f 201/4/3 170/4/3 169/4/3
f 202/4/3 170/4/3 201/4/3
f 203/4/3 170/4/3 202/4/3
f 204/5/3 171/5/3 170/5/3
f 204/4/3 170/4/3 203/4/3
f 205/4/3 172/4/3 171/4/3
f 205/5/3 171/5/3 204/5/3
f 206/4/3 172/4/3 205/4/3
f 209/4/3 176/4/3 175/4/3
f 210/5/3 93/5/3 176/5/3
f 210/4/3 176/4/3 209/4/3
f 211/4/3 203/4/3 202/4/3
f 211/5/3 202/5/3 201/5/3
f 212/5/3 204/5/3 203/5/3
f 212/4/3 203/4/3 211/4/3
f 212/5/3 205/5/3 204/5/3
f 212/5/3 206/5/3 205/5/3
f 213/6/3 197/6/3 196/6/3
f 213/6/3 199/6/3 198/6/3
f 213/5/3 93/5/3 210/5/3
f 213/6/3 195/6/3 93/6/3
f 213/5/3 210/5/3 209/5/3
f 213/6/3 198/6/3 197/6/3
f 213/6/3 196/6/3 195/6/3
f 213/6/3 200/6/3 199/6/3
f 214/5/3 90/5/3 94/5/3
f 214/6/3 200/6/3 213/6/3
f 214/6/3 94/6/3 200/6/3
f 215/5/3 206/5/3 212/5/3
f 215/5/3 212/5/3 211/5/3
f 215/4/3 207/4/3 206/4/3
f 216/4/3 207/4/3 215/4/3
f 219/4/3 209/4/3 208/4/3
f 220/5/3 213/5/3 209/5/3
f 220/5/3 214/5/3 213/5/3
f 220/4/3 209/4/3 219/4/3
f 221/4/3 217/4/3 216/4/3
f 221/5/3 216/5/3 215/5/3
f 222/4/3 217/4/3 221/4/3
f 225/4/3 219/4/3 218/4/3
f 226/5/3 220/5/3 219/5/3
f 226/4/3 219/4/3 225/4/3
f 227/5/3 211/5/3 201/5/3
f 227/5/3 201/5/3 137/5/3
f 227/5/3 215/5/3 211/5/3
f 227/5/3 221/5/3 215/5/3
f 227/5/3 222/5/3 221/5/3
f 228/5/3 222/5/3 227/5/3
f 229/4/3 223/4/3 222/4/3
f 229/5/3 222/5/3 228/5/3
f 230/4/3 223/4/3 229/4/3
f 231/4/3 225/4/3 224/4/3
f 232/5/3 226/5/3 225/5/3
f 232/4/3 225/4/3 231/4/3
f 234/5/3 230/5/3 229/5/3
f 234/5/3 229/5/3 228/5/3
f 235/4/3 231/4/3 230/4/3
f 235/5/3 230/5/3 234/5/3
f 236/5/3 232/5/3 231/5/3
f 236/4/3 231/4/3 235/4/3
f 237/5/3 234/5/3 233/5/3
f 237/5/3 235/5/3 234/5/3
f 237/5/3 236/5/3 235/5/3
f 238/5/3 236/5/3 237/5/3
f 239/5/3 237/5/3 233/5/3
f 239/4/3 238/4/3 237/4/3
f 240/5/3 236/5/3 238/5/3
f 240/4/3 238/4/3 239/4/3
f 241/5/3 226/5/3 232/5/3
f 241/5/3 236/5/3 240/5/3
f 241/5/3 240/5/3 239/5/3
f 241/5/3 220/5/3 226/5/3
f 241/5/3 232/5/3 236/5/3
f 241/5/3 214/5/3 220/5/3
f 242/5/3 214/5/3 241/5/3
f 243/5/3 239/5/3 233/5/3
f 243/5/3 241/5/3 239/5/3
f 244/5/3 241/5/3 243/5/3
f 245/5/3 214/5/3 242/5/3
f 246/5/3 90/5/3 214/5/3
f 246/5/3 214/5/3 245/5/3
f 247/5/4 248/5/4 249/5/4
f 249/5/4 248/5/4 250/5/4
f 247/5/4 249/5/4 251/5/4
f 249/1/4 250/1/4 251/1/4
f 250/5/4 248/5/4 252/5/4
f 251/1/4 250/1/4 252/1/4
f 251/6/4 252/6/4 253/6/4
f 253/6/4 252/6/4 254/6/4
f 251/6/4 253/6/4 255/6/4
f 255/6/4 253/6/4 256/6/4
f 253/2/4 254/2/4 257/2/4
f 256/6/4 253/6/4 257/6/4
f 257/2/4 254/2/4 258/2/4
f 256/6/4 257/6/4 259/6/4
f 258/2/4 254/2/4 259/2/4
f 257/6/4 258/6/4 259/6/4
f 254/6/4 252/6/4 260/6/4
f 259/2/4 254/2/4 260/2/4
f 255/3/4 256/3/4 261/3/4
f 256/6/4 259/6/4 262/6/4
f 261/3/4 256/3/4 262/3/4
f 259/6/4 260/6/4 262/6/4
f 262/6/4 260/6/4 263/6/4
f 260/6/4 252/6/4 264/6/4
f 263/6/4 260/6/4 264/6/4
f 255/3/4 261/3/4 265/3/4
f 251/6/4 255/6/4 265/6/4
f 262/6/4 263/6/4 266/6/4
f 265/3/4 261/3/4 266/3/4
f 261/6/4 262/6/4 266/6/4
f 263/2/4 264/2/4 267/2/4
f 264/6/4 252/6/4 268/6/4
f 267/2/4 264/2/4 268/2/4
f 263/2/4 267/2/4 269/2/4
f 266/6/4 263/6/4 269/6/4
f 265/6/4 266/6/4 269/6/4
f 267/6/4 268/6/4 270/6/4
f 269/2/4 267/2/4 270/2/4
f 251/6/4 265/6/4 271/6/4
f 265/6/4 269/6/4 271/6/4
f 269/6/4 270/6/4 271/6/4
f 271/6/4 270/6/4 272/6/4
f 272/6/4 270/6/4 273/6/4
f 268/6/4 252/6/4 274/6/4
f 273/6/4 270/6/4 274/6/4
f 270/6/4 268/6/4 274/6/4
f 272/6/4 273/6/4 275/6/4
f 271/3/4 272/3/4 275/3/4
f 275/6/4 273/6/4 276/6/4
f 273/2/4 274/2/4 277/2/4
f 276/6/4 273/6/4 277/6/4
f 277/2/4 274/2/4 278/2/4
f 276/6/4 277/6/4 279/6/4
f 277/6/4 278/6/4 279/6/4
f 278/2/4 274/2/4 280/2/4
f 279/6/4 278/6/4 280/6/4
f 276/6/4 279/6/4 281/6/4
f 279/2/4 280/2/4 281/2/4
f 274/6/4 252/6/4 282/6/4
f 281/2/4 280/2/4 282/2/4
f 280/2/4 274/2/4 282/2/4
f 275/3/4 276/3/4 283/3/4
f 271/3/4 275/3/4 283/3/4
f 276/6/4 281/6/4 284/6/4
f 283/3/4 276/3/4 284/3/4
f 281/6/4 282/6/4 284/6/4
f 284/6/4 282/6/4 285/6/4
f 282/6/4 252/6/4 286/6/4
f 285/6/4 282/6/4 286/6/4
f 247/5/4 251/5/4 287/5/4
f 287/5/4 251/5/4 288/5/4
f 288/5/4 251/5/4 289/5/4
f 289/5/4 251/5/4 290/5/4
f 271/3/4 283/3/4 291/3/4
f 251/6/4 271/6/4 291/6/4
f 284/6/4 285/6/4 292/6/4
f 291/3/4 283/3/4 292/3/4
f 283/6/4 284/6/4 292/6/4
f 292/6/4 285/6/4 293/6/4
f 285/2/4 286/2/4 294/2/4
f 293/6/4 285/6/4 294/6/4
f 288/5/4 289/5/4 296/5/4
f 296/5/4 289/5/4 297/5/4
f 289/4/4 290/4/4 298/4/4
f 297/5/4 289/5/4 298/5/4
f 290/5/4 251/5/4 299/5/4
f 298/4/4 290/4/4 299/4/4
f 299/5/4 251/5/4 300/5/4
f 293/2/4 294/2/4 301/2/4
f 292/6/4 293/6/4 301/6/4
f 291/6/4 292/6/4 301/6/4
f 294/2/4 286/2/4 302/2/4
f 301/2/4 294/2/4 302/2/4
f 296/5/4 297/5/4 303/5/4
f 295/5/4 296/5/4 303/5/4
f 297/4/4 298/4/4 304/4/4
f 303/5/4 297/5/4 304/5/4
f 304/4/4 298/4/4 305/4/4
f 299/4/4 300/4/4 306/4/4
f 300/5/4 251/5/4 307/5/4
f 306/4/4 300/4/4 307/4/4
f 307/5/4 251/5/4 308/5/4
f 302/2/4 286/2/4 309/2/4
f 301/6/4 302/6/4 309/6/4
f 286/6/4 252/6/4 310/6/4
f 309/2/4 286/2/4 310/2/4
f 295/5/4 303/5/4 311/5/4
f 303/4/4 304/4/4 312/4/4
f 311/5/4 303/5/4 312/5/4
f 312/4/4 304/4/4 313/4/4
f 307/4/4 308/4/4 314/4/4
f 308/5/4 251/5/4 315/5/4
f 314/4/4 308/4/4 315/4/4
f 315/5/4 251/5/4 316/5/4
f 301/6/4 309/6/4 317/6/4
f 251/6/4 291/6/4 317/6/4
f 309/6/4 310/6/4 317/6/4
f 291/6/4 301/6/4 317/6/4
f 317/6/4 310/6/4 318/6/4
f 318/6/4 310/6/4 319/6/4
f 319/6/4 310/6/4 320/6/4
f 295/5/4 311/5/4 321/5/4
f 321/5/4 311/5/4 322/5/4
f 317/3/4 318/3/4 323/3/4
f 318/6/4 319/6/4 324/6/4
f 323/3/4 318/3/4 324/3/4
f 295/5/4 321/5/4 325/5/4
f 321/4/4 322/4/4 326/4/4
f 325/5/4 321/5/4 326/5/4
f 322/5/4 311/5/4 327/5/4
f 326/4/4 322/4/4 327/4/4
f 327/5/4 311/5/4 328/5/4
f 328/5/4 311/5/4 329/5/4
f 311/4/4 312/4/4 330/4/4
f 329/5/4 311/5/4 330/5/4
f 330/4/4 312/4/4 331/4/4
f 315/4/4 316/4/4 332/4/4
f 316/5/4 251/5/4 333/5/4
f 332/4/4 316/4/4 333/4/4
f 333/5/4 251/5/4 334/5/4
f 317/3/4 323/3/4 335/3/4
f 323/6/4 324/6/4 335/6/4
f 324/6/4 319/6/4 336/6/4
f 335/6/4 324/6/4 336/6/4
f 319/2/4 320/2/4 337/2/4
f 336/6/4 319/6/4 337/6/4
f 320/6/4 310/6/4 338/6/4
f 337/2/4 320/2/4 338/2/4
f 336/6/4 337/6/4 339/6/4
f 337/6/4 338/6/4 339/6/4
f 338/6/4 310/6/4 340/6/4
f 339/6/4 338/6/4 340/6/4
f 340/6/4 310/6/4 341/6/4
f 310/6/4 252/6/4 342/6/4
f 341/6/4 310/6/4 342/6/4
f 335/3/4 336/3/4 343/3/4
f 317/3/4 335/3/4 343/3/4
f 336/6/4 339/6/4 344/6/4
f 343/3/4 336/3/4 344/3/4
f 339/2/4 340/2/4 345/2/4
f 344/6/4 339/6/4 345/6/4
f 340/6/4 341/6/4 346/6/4
f 345/2/4 340/2/4 346/2/4
f 341/2/4 342/2/4 347/2/4
f 346/6/4 341/6/4 347/6/4
f 342/6/4 252/6/4 348/6/4
f 347/2/4 342/2/4 348/2/4
f 344/6/4 345/6/4 349/6/4
f 345/6/4 346/6/4 349/6/4
f 343/6/4 344/6/4 349/6/4
f 346/2/4 347/2/4 350/2/4
f 349/6/4 346/6/4 350/6/4
f 347/6/4 348/6/4 351/6/4
f 350/2/4 347/2/4 351/2/4
f 348/6/4 252/6/4 352/6/4
f 351/6/4 348/6/4 352/6/4
f 317/3/4 343/3/4 353/3/4
f 251/6/4 317/6/4 353/6/4
f 343/6/4 349/6/4 354/6/4
f 353/3/4 343/3/4 354/3/4
f 349/2/4 350/2/4 355/2/4
f 354/6/4 349/6/4 355/6/4
f 350/6/4 351/6/4 356/6/4
f 355/2/4 350/2/4 356/2/4
f 351/2/4 352/2/4 357/2/4
f 356/6/4 351/6/4 357/6/4
f 352/6/4 252/6/4 358/6/4
f 357/2/4 352/2/4 358/2/4
f 325/4/4 326/4/4 359/4/4
f 295/5/4 325/5/4 359/5/4
f 326/4/4 327/4/4 359/4/4
f 327/4/4 328/4/4 359/4/4
f 359/4/4 328/4/4 360/4/4
f 360/4/4 328/4/4 361/4/4
f 328/5/4 329/5/4 362/5/4
f 361/4/4 328/4/4 362/4/4
f 329/4/4 330/4/4 363/4/4
f 362/5/4 329/5/4 363/5/4
f 363/4/4 330/4/4 364/4/4
f 333/4/4 334/4/4 367/4/4
f 334/5/4 251/5/4 368/5/4
f 367/4/4 334/4/4 368/4/4
f 360/4/4 361/4/4 369/4/4
f 359/5/4 360/5/4 369/5/4
f 361/5/4 362/5/4 370/5/4
f 369/4/4 361/4/4 370/4/4
f 362/5/4 363/5/4 370/5/4
f 363/5/4 364/5/4 370/5/4
f 354/6/4 355/6/4 371/6/4
f 356/6/4 357/6/4 371/6/4
f 368/5/4 251/5/4 371/5/4
f 251/6/4 353/6/4 371/6/4
f 367/5/4 368/5/4 371/5/4
f 355/6/4 356/6/4 371/6/4
f 353/6/4 354/6/4 371/6/4
f 357/6/4 358/6/4 371/6/4
f 252/5/4 248/5/4 372/5/4
f 371/6/4 358/6/4 372/6/4
f 358/6/4 252/6/4 372/6/4
f 370/5/4 364/5/4 373/5/4
f 369/5/4 370/5/4 373/5/4
f 364/4/4 365/4/4 373/4/4
f 373/4/4 365/4/4 374/4/4
f 366/4/4 367/4/4 377/4/4
f 367/5/4 371/5/4 378/5/4
f 371/5/4 372/5/4 378/5/4
f 377/4/4 367/4/4 378/4/4
f 374/4/4 375/4/4 379/4/4
f 373/5/4 374/5/4 379/5/4
f 379/4/4 375/4/4 380/4/4
f 376/4/4 377/4/4 383/4/4
f 377/5/4 378/5/4 384/5/4
f 383/4/4 377/4/4 384/4/4
f 359/5/4 369/5/4 385/5/4
f 295/5/4 359/5/4 385/5/4
f 369/5/4 373/5/4 385/5/4
f 373/5/4 379/5/4 385/5/4
f 379/5/4 380/5/4 385/5/4
f 385/5/4 380/5/4 386/5/4
f 380/4/4 381/4/4 387/4/4
f 386/5/4 380/5/4 387/5/4
f 387/4/4 381/4/4 388/4/4
f 382/4/4 383/4/4 389/4/4
f 383/5/4 384/5/4 390/5/4
f 389/4/4 383/4/4 390/4/4
f 387/5/4 388/5/4 392/5/4
f 386/5/4 387/5/4 392/5/4
f 388/4/4 389/4/4 393/4/4
f 392/5/4 388/5/4 393/5/4
f 389/5/4 390/5/4 394/5/4
f 393/4/4 389/4/4 394/4/4
f 391/5/4 392/5/4 395/5/4
f 392/5/4 393/5/4 395/5/4
f 393/5/4 394/5/4 395/5/4
f 395/5/4 394/5/4 396/5/4
f 391/5/4 395/5/4 397/5/4
f 395/4/4 396/4/4 397/4/4
f 396/5/4 394/5/4 398/5/4
f 397/4/4 396/4/4 398/4/4
f 390/5/4 384/5/4 399/5/4
f 398/5/4 394/5/4 399/5/4
f 397/5/4 398/5/4 399/5/4
f 384/5/4 378/5/4 399/5/4
f 394/5/4 390/5/4 399/5/4
f 378/5/4 372/5/4 399/5/4
f 399/5/4 372/5/4 400/5/4
f 391/5/4 397/5/4 401/5/4
f 397/5/4 399/5/4 401/5/4
f 401/5/4 399/5/4 402/5/4
f 400/5/4 372/5/4 403/5/4
f 372/5/4 248/5/4 404/5/4
f 403/5/4 372/5/4 404/5/4
f 411/5/5 406/5/5 405/5/5
f 412/5/5 406/5/5 411/5/5
f 413/5/5 408/5/5 407/5/5
f 414/5/5 408/5/5 413/5/5
f 415/5/5 410/5/5 409/5/5
f 416/5/5 410/5/5 415/5/5
f 421/5/5 418/5/5 417/5/5
f 422/5/5 418/5/5 421/5/5
f 423/5/5 420/5/5 419/5/5
f 424/5/5 420/5/5 423/5/5
f 429/4/5 426/4/5 425/4/5
f 430/4/5 426/4/5 429/4/5
f 431/4/5 428/4/5 427/4/5
f 432/4/5 428/4/5 431/4/5
f 437/4/5 434/4/5 433/4/5
f 438/4/5 434/4/5 437/4/5
f 439/4/5 436/4/5 435/4/5
f 440/4/5 436/4/5 439/4/5
f 445/4/5 442/4/5 441/4/5
f 446/4/5 442/4/5 445/4/5
f 447/4/5 444/4/5 443/4/5
f 448/4/5 444/4/5 447/4/5
f 451/4/5 450/4/5 449/4/5
f 452/4/5 450/4/5 451/4/5
f 455/5/5 454/5/5 453/5/5
f 456/5/5 454/5/5 455/5/5
f 457/4/6 458/4/6 459/4/6
f 459/4/6 458/4/6 460/4/6
f 461/4/6 462/4/6 465/4/6
f 465/4/6 462/4/6 466/4/6
f 463/4/6 464/4/6 467/4/6
f 467/4/6 464/4/6 468/4/6
f 469/4/6 470/4/6 473/4/6
f 473/4/6 470/4/6 474/4/6
f 471/4/6 472/4/6 475/4/6
f 475/4/6 472/4/6 476/4/6
f 477/4/6 478/4/6 481/4/6
f 481/4/6 478/4/6 482/4/6
f 479/4/6 480/4/6 483/4/6
f 483/4/6 480/4/6 484/4/6
f 485/5/6 486/5/6 487/5/6
f 487/5/6 486/5/6 488/5/6
f 489/5/6 490/5/6 491/5/6
f 491/5/6 490/5/6 492/5/6
