# MagicaVoxel @ Ephtracy

# group
g disc-100mb

# material
mtllib disc-100mb.mtl
usemtl palette

# normals
vn -1 0 0
vn 1 0 0
vn 0 0 1
vn 0 0 -1
vn 0 -1 0
vn 0 1 0

# texcoords
vt 0.681641 0.5
vt 0.853516 0.5
vt 0.962891 0.5
vt 0.970703 0.5
vt 0.974609 0.5
vt 0.978516 0.5
vt 0.990234 0.5

# verts
v -15 3 1
v -15 3 -2
v -15 29 1
v -15 29 -2
v -14 2 1
v -14 2 -2
v -14 3 1
v -14 3 -2
v -13 1 1
v -13 1 -2
v -13 2 1
v -13 2 -2
v -12 0 2
v -12 0 -2
v -12 1 1
v -12 1 -2
v -12 29 1
v -12 29 -2
v -12 30 2
v -12 30 -2
v -5 0 1
v -5 0 -0
v -5 0 -1
v -5 0 -2
v -5 1 -1
v -5 1 -2
v -5 3 1
v -5 3 -0
v 11 0 2
v 11 0 1
v 11 3 1
v 11 28 1
v 11 28 -0
v 11 29 -0
v 11 29 -1
v 11 30 2
v 11 30 -1
v -11 0 2
v -11 0 -0
v -11 0 -1
v -11 0 -2
v -11 1 -1
v -11 1 -2
v -11 3 1
v -11 3 -0
v -11 28 1
v -11 28 -0
v -11 29 -0
v -11 29 -1
v -11 30 2
v -11 30 -1
v 12 0 2
v 12 0 1
v 12 29 1
v 12 29 -2
v 12 30 2
v 12 30 -2
v 13 0 1
v 13 0 -2
v 13 1 1
v 13 1 -2
v 14 1 1
v 14 1 -2
v 14 2 1
v 14 2 -2
v 15 2 1
v 15 2 -2
v 15 29 1
v 15 29 -2
v -12 0 2
v -12 30 2
v -11 0 2
v -11 30 2
v 11 0 2
v 11 30 2
v 12 0 2
v 12 30 2
v -15 3 1
v -15 29 1
v -14 2 1
v -14 3 1
v -13 1 1
v -13 2 1
v -12 1 1
v -12 29 1
v -11 3 1
v -11 28 1
v -10 13 1
v -10 17 1
v -10 27 1
v -9 14 1
v -9 16 1
v -9 18 1
v -9 19 1
v -9 21 1
v -9 22 1
v -9 24 1
v -9 25 1
v -8 14 1
v -8 16 1
v -5 0 1
v -5 3 1
v -5 14 1
v -5 16 1
v 9 18 1
v 9 19 1
v 9 21 1
v 9 22 1
v 9 24 1
v 9 25 1
v 10 13 1
v 10 17 1
v 10 27 1
v 11 0 1
v 11 3 1
v 11 28 1
v 12 0 1
v 12 29 1
v 13 0 1
v 13 1 1
v 14 1 1
v 14 2 1
v 15 2 1
v 15 29 1
v -11 0 -0
v -11 3 -0
v -11 28 -0
v -11 29 -0
v -5 0 -0
v -5 3 -0
v 11 28 -0
v 11 29 -0
v -11 29 -1
v -11 30 -1
v 11 29 -1
v 11 30 -1
v -11 0 -1
v -11 1 -1
v -5 0 -1
v -5 1 -1
v -15 3 -2
v -15 29 -2
v -14 2 -2
v -14 3 -2
v -13 1 -2
v -13 2 -2
v -12 0 -2
v -12 1 -2
v -12 29 -2
v -12 30 -2
v -11 0 -2
v -11 1 -2
v -5 0 -2
v -5 1 -2
v 11 0 -2
v 11 1 -2
v 12 29 -2
v 12 30 -2
v 13 0 -2
v 13 1 -2
v 14 1 -2
v 14 2 -2
v 15 2 -2
v 15 29 -2
v -12 0 2
v -11 0 2
v 11 0 2
v 12 0 2
v -5 0 1
v 11 0 1
v 12 0 1
v 13 0 1
v -11 0 -0
v -5 0 -0
v 4 0 -0
v 9 0 -0
v -11 0 -1
v -5 0 -1
v 4 0 -1
v 9 0 -1
v -12 0 -2
v -11 0 -2
v -5 0 -2
v 11 0 -2
v 13 0 -2
v -13 1 1
v -12 1 1
v 13 1 1
v 14 1 1
v -11 1 -1
v -5 1 -1
v -13 1 -2
v -12 1 -2
v -11 1 -2
v -5 1 -2
v 13 1 -2
v 14 1 -2
v -14 2 1
v -13 2 1
v 14 2 1
v 15 2 1
v -14 2 -2
v -13 2 -2
v 14 2 -2
v 15 2 -2
v -15 3 1
v -14 3 1
v -11 3 1
v -5 3 1
v -11 3 -0
v -5 3 -0
v -15 3 -2
v -14 3 -2
v -11 28 1
v 11 28 1
v -11 28 -0
v 11 28 -0
v -15 29 1
v -12 29 1
v 12 29 1
v 15 29 1
v -11 29 -0
v 11 29 -0
v -11 29 -1
v 11 29 -1
v -15 29 -2
v -12 29 -2
v 12 29 -2
v 15 29 -2
v -12 30 2
v -11 30 2
v 11 30 2
v 12 30 2
v -11 30 -1
v 11 30 -1
v -12 30 -2
v 12 30 -2

# faces
f 3/7/1 2/7/1 1/7/1
f 4/7/1 2/7/1 3/7/1
f 7/7/1 6/7/1 5/7/1
f 8/7/1 6/7/1 7/7/1
f 11/7/1 10/7/1 9/7/1
f 12/7/1 10/7/1 11/7/1
f 15/7/1 14/7/1 13/7/1
f 16/7/1 14/7/1 15/7/1
f 17/7/1 15/7/1 13/7/1
f 19/7/1 17/7/1 13/7/1
f 19/7/1 18/7/1 17/7/1
f 20/7/1 18/7/1 19/7/1
f 25/5/1 24/5/1 23/5/1
f 26/5/1 24/5/1 25/5/1
f 27/5/1 22/5/1 21/5/1
f 28/5/1 22/5/1 27/5/1
f 31/7/1 30/7/1 29/7/1
f 32/7/1 31/7/1 29/7/1
f 34/7/1 33/7/1 32/7/1
f 36/7/1 32/7/1 29/7/1
f 36/7/1 35/7/1 34/7/1
f 36/7/1 34/7/1 32/7/1
f 37/7/1 35/7/1 36/7/1
f 40/7/2 41/7/2 42/7/2
f 42/7/2 41/7/2 43/7/2
f 38/7/2 39/7/2 44/7/2
f 44/7/2 39/7/2 45/7/2
f 38/7/2 44/7/2 46/7/2
f 46/7/2 47/7/2 48/7/2
f 46/7/2 48/7/2 50/7/2
f 48/7/2 49/7/2 50/7/2
f 38/7/2 46/7/2 50/7/2
f 50/7/2 49/7/2 51/7/2
f 52/7/2 53/7/2 54/7/2
f 52/7/2 54/7/2 56/7/2
f 54/7/2 55/7/2 56/7/2
f 56/7/2 55/7/2 57/7/2
f 58/7/2 59/7/2 60/7/2
f 60/7/2 59/7/2 61/7/2
f 62/7/2 63/7/2 64/7/2
f 64/7/2 63/7/2 65/7/2
f 66/7/2 67/7/2 68/7/2
f 68/7/2 67/7/2 69/7/2
f 72/7/3 71/7/3 70/7/3
f 73/7/3 71/7/3 72/7/3
f 76/7/3 75/7/3 74/7/3
f 77/7/3 75/7/3 76/7/3
f 81/7/3 79/7/3 78/7/3
f 83/7/3 81/7/3 80/7/3
f 84/7/3 83/7/3 82/7/3
f 85/7/3 79/7/3 81/7/3
f 85/7/3 83/7/3 84/7/3
f 85/7/3 81/7/3 83/7/3
f 88/7/3 87/7/3 86/7/3
f 89/7/3 87/7/3 88/7/3
f 90/7/3 87/7/3 89/7/3
f 91/1/3 89/1/3 88/1/3
f 92/1/3 89/1/3 91/1/3
f 93/4/3 90/4/3 89/4/3
f 94/4/3 90/4/3 93/4/3
f 95/4/3 90/4/3 94/4/3
f 96/4/3 90/4/3 95/4/3
f 97/4/3 90/4/3 96/4/3
f 98/4/3 90/4/3 97/4/3
f 99/1/3 91/1/3 88/1/3
f 99/2/3 92/2/3 91/2/3
f 100/1/3 89/1/3 92/1/3
f 100/2/3 92/2/3 99/2/3
f 102/7/3 88/7/3 86/7/3
f 103/1/3 99/1/3 88/1/3
f 103/3/3 100/3/3 99/3/3
f 104/1/3 89/1/3 100/1/3
f 104/3/3 100/3/3 103/3/3
f 105/4/3 93/4/3 89/4/3
f 105/6/3 94/6/3 93/6/3
f 106/4/3 95/4/3 94/4/3
f 106/6/3 94/6/3 105/6/3
f 107/6/3 96/6/3 95/6/3
f 107/4/3 95/4/3 106/4/3
f 108/4/3 97/4/3 96/4/3
f 108/6/3 96/6/3 107/6/3
f 109/6/3 98/6/3 97/6/3
f 109/4/3 97/4/3 108/4/3
f 110/4/3 90/4/3 98/4/3
f 110/6/3 98/6/3 109/6/3
f 111/1/3 103/1/3 88/1/3
f 111/1/3 104/1/3 103/1/3
f 111/7/3 88/7/3 102/7/3
f 112/4/3 109/4/3 108/4/3
f 112/1/3 104/1/3 111/1/3
f 112/4/3 108/4/3 107/4/3
f 112/1/3 89/1/3 104/1/3
f 112/4/3 107/4/3 106/4/3
f 112/4/3 106/4/3 105/4/3
f 112/4/3 105/4/3 89/4/3
f 112/4/3 110/4/3 109/4/3
f 113/4/3 90/4/3 110/4/3
f 113/4/3 110/4/3 112/4/3
f 113/7/3 87/7/3 90/7/3
f 114/5/3 102/5/3 101/5/3
f 115/7/3 112/7/3 111/7/3
f 115/5/3 102/5/3 114/5/3
f 115/7/3 111/7/3 102/7/3
f 115/7/3 113/7/3 112/7/3
f 116/7/3 87/7/3 113/7/3
f 116/7/3 113/7/3 115/7/3
f 119/7/3 118/7/3 117/7/3
f 120/7/3 118/7/3 119/7/3
f 121/7/3 118/7/3 120/7/3
f 122/7/3 118/7/3 121/7/3
f 123/7/3 118/7/3 122/7/3
f 124/7/3 118/7/3 123/7/3
f 129/7/3 126/7/3 125/7/3
f 130/7/3 126/7/3 129/7/3
f 131/7/3 128/7/3 127/7/3
f 132/7/3 128/7/3 131/7/3
f 135/7/3 134/7/3 133/7/3
f 136/7/3 134/7/3 135/7/3
f 137/7/4 138/7/4 139/7/4
f 139/7/4 138/7/4 140/7/4
f 141/7/4 142/7/4 144/7/4
f 143/7/4 144/7/4 146/7/4
f 145/7/4 146/7/4 148/7/4
f 144/7/4 142/7/4 149/7/4
f 146/7/4 144/7/4 149/7/4
f 148/7/4 146/7/4 149/7/4
f 147/7/4 148/7/4 151/7/4
f 149/7/4 150/7/4 151/7/4
f 148/7/4 149/7/4 151/7/4
f 151/7/4 150/7/4 152/7/4
f 152/7/4 150/7/4 154/7/4
f 153/5/4 154/5/4 155/5/4
f 154/7/4 150/7/4 156/7/4
f 155/5/4 154/5/4 156/5/4
f 155/7/4 156/7/4 157/7/4
f 156/7/4 150/7/4 157/7/4
f 157/7/4 150/7/4 158/7/4
f 155/7/4 157/7/4 159/7/4
f 159/7/4 157/7/4 160/7/4
f 160/7/4 157/7/4 161/7/4
f 161/7/4 157/7/4 162/7/4
f 162/7/4 157/7/4 163/7/4
f 163/7/4 157/7/4 164/7/4
f 170/7/5 168/7/5 167/7/5
f 171/7/5 168/7/5 170/7/5
f 173/7/5 166/7/5 165/7/5
f 174/5/5 170/5/5 169/5/5
f 175/5/5 170/5/5 174/5/5
f 176/5/5 170/5/5 175/5/5
f 177/7/5 173/7/5 165/7/5
f 177/7/5 174/7/5 173/7/5
f 178/5/5 175/5/5 174/5/5
f 178/7/5 174/7/5 177/7/5
f 179/7/5 176/7/5 175/7/5
f 179/5/5 175/5/5 178/5/5
f 180/5/5 170/5/5 176/5/5
f 180/7/5 176/7/5 179/7/5
f 181/7/5 177/7/5 165/7/5
f 182/7/5 177/7/5 181/7/5
f 183/5/5 179/5/5 178/5/5
f 183/5/5 180/5/5 179/5/5
f 184/7/5 172/7/5 171/7/5
f 184/5/5 180/5/5 183/5/5
f 184/7/5 171/7/5 170/7/5
f 184/5/5 170/5/5 180/5/5
f 185/7/5 172/7/5 184/7/5
f 192/7/5 187/7/5 186/7/5
f 193/7/5 187/7/5 192/7/5
f 194/7/5 191/7/5 190/7/5
f 195/7/5 191/7/5 194/7/5
f 196/7/5 189/7/5 188/7/5
f 197/7/5 189/7/5 196/7/5
f 202/7/5 199/7/5 198/7/5
f 203/7/5 199/7/5 202/7/5
f 204/7/5 201/7/5 200/7/5
f 205/7/5 201/7/5 204/7/5
f 210/7/5 209/7/5 208/7/5
f 211/7/5 209/7/5 210/7/5
f 212/7/5 207/7/5 206/7/5
f 213/7/5 207/7/5 212/7/5
f 214/7/6 215/7/6 216/7/6
f 216/7/6 215/7/6 217/7/6
f 222/7/6 223/7/6 224/7/6
f 224/7/6 223/7/6 225/7/6
f 218/7/6 219/7/6 226/7/6
f 226/7/6 219/7/6 227/7/6
f 220/7/6 221/7/6 228/7/6
f 228/7/6 221/7/6 229/7/6
f 230/7/6 231/7/6 234/7/6
f 232/7/6 233/7/6 235/7/6
f 230/7/6 234/7/6 236/7/6
f 234/7/6 235/7/6 236/7/6
f 235/7/6 233/7/6 237/7/6
f 236/7/6 235/7/6 237/7/6
