# MagicaVoxel @ Ephtracy

# group
g flash_drive

# material
mtllib flash_drive.mtl
usemtl palette

# normals
vn -1 0 0
vn 1 0 0
vn 0 0 1
vn 0 0 -1
vn 0 -1 0
vn 0 1 0

# texcoords
vt 0.0644531 0.5
vt 0.587891 0.5
vt 0.841797 0.5
vt 0.955078 0.5
vt 0.966797 0.5

# verts
v -2 1 9
v -2 1 -15
v -2 2 7
v -2 2 4
v -2 2 -0
v -2 2 -1
v -2 2 -2
v -2 2 -5
v -2 2 -6
v -2 2 -7
v -2 2 -9
v -2 2 -10
v -2 2 -11
v -2 2 -14
v -2 3 6
v -2 3 4
v -2 3 -2
v -2 3 -3
v -2 3 -4
v -2 3 -5
v -2 3 -12
v -2 3 -14
v -2 4 6
v -2 4 4
v -2 4 2
v -2 4 -0
v -2 4 -7
v -2 4 -9
v -2 4 -12
v -2 4 -14
v -2 5 7
v -2 5 5
v -2 5 4
v -2 5 3
v -2 5 2
v -2 5 -0
v -2 5 -1
v -2 5 -3
v -2 5 -4
v -2 5 -6
v -2 5 -7
v -2 5 -9
v -2 5 -10
v -2 5 -11
v -2 5 -13
v -2 5 -14
v -2 7 7
v -2 7 5
v -2 7 3
v -2 7 2
v -2 7 -0
v -2 7 -2
v -2 7 -3
v -2 7 -4
v -2 7 -5
v -2 7 -11
v -2 7 -13
v -2 8 7
v -2 8 4
v -2 8 2
v -2 8 -1
v -2 8 -2
v -2 8 -5
v -2 8 -6
v -2 8 -7
v -2 8 -9
v -2 8 -10
v -2 8 -11
v -2 8 -14
v -2 9 9
v -2 9 -15
v -1 2 15
v -1 2 9
v -1 3 13
v -1 3 12
v -1 4 13
v -1 4 12
v -1 6 13
v -1 6 12
v -1 7 13
v -1 7 12
v -1 8 15
v -1 8 9
v 1 2 15
v 1 2 9
v 1 3 13
v 1 3 12
v 1 4 13
v 1 4 12
v 1 6 13
v 1 6 12
v 1 7 13
v 1 7 12
v 1 8 15
v 1 8 9
v 2 1 9
v 2 1 -15
v 2 2 8
v 2 2 4
v 2 2 3
v 2 2 -1
v 2 2 -4
v 2 2 -7
v 2 2 -9
v 2 2 -13
v 2 3 8
v 2 3 7
v 2 3 6
v 2 3 4
v 2 3 3
v 2 3 -0
v 2 3 -3
v 2 3 -4
v 2 3 -7
v 2 3 -8
v 2 3 -10
v 2 3 -12
v 2 4 7
v 2 4 6
v 2 4 5
v 2 4 3
v 2 4 -0
v 2 4 -5
v 2 4 -7
v 2 4 -10
v 2 4 -12
v 2 4 -13
v 2 5 6
v 2 5 5
v 2 5 4
v 2 5 2
v 2 5 -1
v 2 5 -5
v 2 5 -8
v 2 5 -10
v 2 5 -12
v 2 5 -13
v 2 6 8
v 2 6 7
v 2 6 -7
v 2 6 -8
v 2 7 8
v 2 7 7
v 2 7 5
v 2 7 4
v 2 7 2
v 2 7 -1
v 2 7 -3
v 2 7 -4
v 2 7 -7
v 2 7 -8
v 2 7 -10
v 2 7 -12
v 2 7 -13
v 2 8 7
v 2 8 5
v 2 8 3
v 2 8 -1
v 2 8 -4
v 2 8 -7
v 2 8 -9
v 2 8 -12
v 2 9 9
v 2 9 -15
v -1 2 15
v -1 8 15
v 1 2 15
v 1 8 15
v -2 1 9
v -2 9 9
v -1 2 9
v -1 8 9
v 1 2 9
v 1 8 9
v 2 1 9
v 2 9 9
v -2 1 -15
v -2 9 -15
v 2 1 -15
v 2 9 -15
v -2 1 9
v 2 1 9
v -2 1 -15
v 2 1 -15
v -1 2 15
v 1 2 15
v -1 2 9
v 1 2 9
v -1 8 15
v 1 8 15
v -1 8 9
v 1 8 9
v -2 9 9
v 2 9 9
v -2 9 -15
v 2 9 -15

# faces
f 3/4/1 2/4/1 1/4/1
f 4/4/1 2/4/1 3/4/1
f 5/4/1 2/4/1 4/4/1
f 6/4/1 2/4/1 5/4/1
f 7/4/1 2/4/1 6/4/1
f 8/4/1 2/4/1 7/4/1
f 9/4/1 2/4/1 8/4/1
f 10/4/1 2/4/1 9/4/1
f 11/4/1 2/4/1 10/4/1
f 12/4/1 2/4/1 11/4/1
f 13/4/1 2/4/1 12/4/1
f 14/4/1 2/4/1 13/4/1
f 15/1/1 4/1/1 3/1/1
f 16/4/1 5/4/1 4/4/1
f 16/1/1 4/1/1 15/1/1
f 17/4/1 7/4/1 6/4/1
f 17/1/1 8/1/1 7/1/1
f 18/1/1 8/1/1 17/1/1
f 19/1/1 8/1/1 18/1/1
f 20/4/1 9/4/1 8/4/1
f 20/1/1 8/1/1 19/1/1
f 21/1/1 14/1/1 13/1/1
f 22/4/1 2/4/1 14/4/1
f 22/1/1 14/1/1 21/1/1
f 23/1/1 15/1/1 3/1/1
f 23/4/1 16/4/1 15/4/1
f 24/4/1 5/4/1 16/4/1
f 24/4/1 16/4/1 23/4/1
f 25/4/1 5/4/1 24/4/1
f 26/1/1 6/1/1 5/1/1
f 26/4/1 5/4/1 25/4/1
f 27/1/1 10/1/1 9/1/1
f 27/4/1 11/4/1 10/4/1
f 28/1/1 12/1/1 11/1/1
f 28/4/1 11/4/1 27/4/1
f 29/1/1 21/1/1 13/1/1
f 29/4/1 22/4/1 21/4/1
f 30/4/1 2/4/1 22/4/1
f 30/4/1 22/4/1 29/4/1
f 31/4/1 3/4/1 1/4/1
f 31/1/1 23/1/1 3/1/1
f 31/1/1 24/1/1 23/1/1
f 32/1/1 24/1/1 31/1/1
f 33/4/1 25/4/1 24/4/1
f 33/1/1 24/1/1 32/1/1
f 34/4/1 25/4/1 33/4/1
f 35/1/1 26/1/1 25/1/1
f 35/4/1 25/4/1 34/4/1
f 36/1/1 6/1/1 26/1/1
f 36/1/1 26/1/1 35/1/1
f 37/4/1 17/4/1 6/4/1
f 37/1/1 6/1/1 36/1/1
f 37/4/1 18/4/1 17/4/1
f 38/1/1 19/1/1 18/1/1
f 38/4/1 18/4/1 37/4/1
f 39/4/1 20/4/1 19/4/1
f 39/1/1 19/1/1 38/1/1
f 40/1/1 28/1/1 27/1/1
f 40/4/1 20/4/1 39/4/1
f 40/1/1 27/1/1 9/1/1
f 40/4/1 9/4/1 20/4/1
f 41/1/1 28/1/1 40/1/1
f 42/1/1 12/1/1 28/1/1
f 42/1/1 28/1/1 41/1/1
f 43/4/1 13/4/1 12/4/1
f 43/1/1 12/1/1 42/1/1
f 44/1/1 29/1/1 13/1/1
f 44/4/1 13/4/1 43/4/1
f 44/1/1 30/1/1 29/1/1
f 45/1/1 30/1/1 44/1/1
f 46/4/1 2/4/1 30/4/1
f 46/1/1 30/1/1 45/1/1
f 47/4/1 32/4/1 31/4/1
f 47/4/1 31/4/1 1/4/1
f 48/2/1 33/2/1 32/2/1
f 48/4/1 32/4/1 47/4/1
f 49/2/1 35/2/1 34/2/1
f 49/4/1 34/4/1 33/4/1
f 50/4/1 36/4/1 35/4/1
f 50/2/1 35/2/1 49/2/1
f 51/2/1 37/2/1 36/2/1
f 51/4/1 36/4/1 50/4/1
f 52/4/1 38/4/1 37/4/1
f 53/2/1 39/2/1 38/2/1
f 53/4/1 38/4/1 52/4/1
f 54/4/1 40/4/1 39/4/1
f 54/2/1 39/2/1 53/2/1
f 55/4/1 40/4/1 54/4/1
f 56/4/1 45/4/1 44/4/1
f 56/4/1 44/4/1 43/4/1
f 57/2/1 46/2/1 45/2/1
f 57/4/1 45/4/1 56/4/1
f 58/2/1 48/2/1 47/2/1
f 58/4/1 47/4/1 1/4/1
f 59/4/1 50/4/1 49/4/1
f 59/2/1 48/2/1 58/2/1
f 59/2/1 33/2/1 48/2/1
f 59/4/1 49/4/1 33/4/1
f 60/2/1 51/2/1 50/2/1
f 60/4/1 50/4/1 59/4/1
f 61/4/1 52/4/1 37/4/1
f 61/2/1 51/2/1 60/2/1
f 61/2/1 37/2/1 51/2/1
f 62/2/1 53/2/1 52/2/1
f 62/4/1 52/4/1 61/4/1
f 62/2/1 54/2/1 53/2/1
f 62/2/1 55/2/1 54/2/1
f 63/4/1 40/4/1 55/4/1
f 63/2/1 55/2/1 62/2/1
f 64/2/1 41/2/1 40/2/1
f 64/4/1 40/4/1 63/4/1
f 65/4/1 42/4/1 41/4/1
f 65/2/1 41/2/1 64/2/1
f 66/2/1 43/2/1 42/2/1
f 66/4/1 42/4/1 65/4/1
f 67/4/1 56/4/1 43/4/1
f 67/2/1 43/2/1 66/2/1
f 68/2/1 57/2/1 56/2/1
f 68/4/1 56/4/1 67/4/1
f 69/4/1 2/4/1 46/4/1
f 69/2/1 57/2/1 68/2/1
f 69/2/1 46/2/1 57/2/1
f 70/4/1 62/4/1 61/4/1
f 70/4/1 63/4/1 62/4/1
f 70/4/1 69/4/1 68/4/1
f 70/4/1 64/4/1 63/4/1
f 70/4/1 66/4/1 65/4/1
f 70/4/1 59/4/1 58/4/1
f 70/4/1 67/4/1 66/4/1
f 70/4/1 58/4/1 1/4/1
f 70/4/1 60/4/1 59/4/1
f 70/4/1 61/4/1 60/4/1
f 70/4/1 68/4/1 67/4/1
f 70/4/1 65/4/1 64/4/1
f 71/4/1 2/4/1 69/4/1
f 71/4/1 69/4/1 70/4/1
f 74/5/1 73/5/1 72/5/1
f 75/5/1 73/5/1 74/5/1
f 76/5/1 74/5/1 72/5/1
f 76/4/1 75/4/1 74/4/1
f 77/5/1 73/5/1 75/5/1
f 77/4/1 75/4/1 76/4/1
f 78/5/1 76/5/1 72/5/1
f 78/5/1 77/5/1 76/5/1
f 79/5/1 73/5/1 77/5/1
f 79/5/1 77/5/1 78/5/1
f 80/5/1 78/5/1 72/5/1
f 80/4/1 79/4/1 78/4/1
f 81/5/1 73/5/1 79/5/1
f 81/4/1 79/4/1 80/4/1
f 82/5/1 80/5/1 72/5/1
f 82/5/1 81/5/1 80/5/1
f 83/5/1 73/5/1 81/5/1
f 83/5/1 81/5/1 82/5/1
f 84/5/2 85/5/2 86/5/2
f 86/5/2 85/5/2 87/5/2
f 84/5/2 86/5/2 88/5/2
f 86/4/2 87/4/2 88/4/2
f 87/5/2 85/5/2 89/5/2
f 88/4/2 87/4/2 89/4/2
f 84/5/2 88/5/2 90/5/2
f 88/5/2 89/5/2 90/5/2
f 89/5/2 85/5/2 91/5/2
f 90/5/2 89/5/2 91/5/2
f 84/5/2 90/5/2 92/5/2
f 90/4/2 91/4/2 92/4/2
f 91/5/2 85/5/2 93/5/2
f 92/4/2 91/4/2 93/4/2
f 84/5/2 92/5/2 94/5/2
f 92/5/2 93/5/2 94/5/2
f 93/5/2 85/5/2 95/5/2
f 94/5/2 93/5/2 95/5/2
f 96/4/2 97/4/2 98/4/2
f 98/4/2 97/4/2 99/4/2
f 99/4/2 97/4/2 100/4/2
f 100/4/2 97/4/2 101/4/2
f 101/4/2 97/4/2 102/4/2
f 102/4/2 97/4/2 103/4/2
f 103/4/2 97/4/2 104/4/2
f 104/4/2 97/4/2 105/4/2
f 96/4/2 98/4/2 106/4/2
f 98/3/2 99/3/2 106/3/2
f 106/3/2 99/3/2 107/3/2
f 107/3/2 99/3/2 108/3/2
f 99/4/2 100/4/2 109/4/2
f 108/3/2 99/3/2 109/3/2
f 100/3/2 101/3/2 110/3/2
f 109/4/2 100/4/2 110/4/2
f 110/3/2 101/3/2 111/3/2
f 101/4/2 102/4/2 112/4/2
f 102/3/2 103/3/2 113/3/2
f 112/4/2 102/4/2 113/4/2
f 103/4/2 104/4/2 114/4/2
f 113/3/2 103/3/2 114/3/2
f 114/4/2 104/4/2 115/4/2
f 104/3/2 105/3/2 116/3/2
f 116/3/2 105/3/2 117/3/2
f 107/3/2 108/3/2 118/3/2
f 106/4/2 107/4/2 118/4/2
f 108/4/2 109/4/2 119/4/2
f 118/3/2 108/3/2 119/3/2
f 109/4/2 110/4/2 119/4/2
f 110/4/2 111/4/2 119/4/2
f 119/4/2 111/4/2 120/4/2
f 120/4/2 111/4/2 121/4/2
f 111/3/2 101/3/2 122/3/2
f 121/4/2 111/4/2 122/4/2
f 113/4/2 114/4/2 123/4/2
f 114/3/2 115/3/2 124/3/2
f 123/4/2 114/4/2 124/4/2
f 116/4/2 117/4/2 125/4/2
f 104/3/2 116/3/2 125/3/2
f 117/3/2 105/3/2 126/3/2
f 125/4/2 117/4/2 126/4/2
f 105/4/2 97/4/2 127/4/2
f 126/3/2 105/3/2 127/3/2
f 118/4/2 119/4/2 128/4/2
f 119/3/2 120/3/2 128/3/2
f 120/4/2 121/4/2 129/4/2
f 128/3/2 120/3/2 129/3/2
f 129/4/2 121/4/2 130/4/2
f 121/3/2 122/3/2 131/3/2
f 101/4/2 112/4/2 132/4/2
f 131/3/2 122/3/2 132/3/2
f 122/3/2 101/3/2 132/3/2
f 123/3/2 124/3/2 133/3/2
f 113/4/2 123/4/2 133/4/2
f 115/4/2 104/4/2 134/4/2
f 133/3/2 124/3/2 134/3/2
f 124/3/2 115/3/2 134/3/2
f 125/3/2 126/3/2 135/3/2
f 104/3/2 125/3/2 135/3/2
f 126/4/2 127/4/2 136/4/2
f 135/3/2 126/3/2 136/3/2
f 127/4/2 97/4/2 137/4/2
f 136/4/2 127/4/2 137/4/2
f 106/4/2 118/4/2 138/4/2
f 118/4/2 128/4/2 138/4/2
f 96/4/2 106/4/2 138/4/2
f 128/4/2 129/4/2 138/4/2
f 138/4/2 129/4/2 139/4/2
f 133/4/2 134/4/2 140/4/2
f 134/4/2 104/4/2 141/4/2
f 140/4/2 134/4/2 141/4/2
f 96/4/2 138/4/2 142/4/2
f 138/3/2 139/3/2 142/3/2
f 139/4/2 129/4/2 143/4/2
f 142/3/2 139/3/2 143/3/2
f 129/3/2 130/3/2 144/3/2
f 143/4/2 129/4/2 144/4/2
f 130/4/2 121/4/2 145/4/2
f 144/3/2 130/3/2 145/3/2
f 121/3/2 131/3/2 146/3/2
f 131/4/2 132/4/2 146/4/2
f 132/4/2 112/4/2 147/4/2
f 146/4/2 132/4/2 147/4/2
f 112/3/2 113/3/2 148/3/2
f 147/4/2 112/4/2 148/4/2
f 133/4/2 140/4/2 149/4/2
f 148/3/2 113/3/2 149/3/2
f 113/4/2 133/4/2 149/4/2
f 140/3/2 141/3/2 150/3/2
f 149/4/2 140/4/2 150/4/2
f 141/4/2 104/4/2 151/4/2
f 150/3/2 141/3/2 151/3/2
f 104/3/2 135/3/2 152/3/2
f 135/4/2 136/4/2 152/4/2
f 136/3/2 137/3/2 153/3/2
f 152/4/2 136/4/2 153/4/2
f 137/4/2 97/4/2 154/4/2
f 153/3/2 137/3/2 154/3/2
f 143/3/2 144/3/2 155/3/2
f 142/4/2 143/4/2 155/4/2
f 144/4/2 145/4/2 156/4/2
f 155/3/2 144/3/2 156/3/2
f 145/4/2 121/4/2 157/4/2
f 156/4/2 145/4/2 157/4/2
f 146/3/2 147/3/2 157/3/2
f 121/3/2 146/3/2 157/3/2
f 147/4/2 148/4/2 158/4/2
f 157/3/2 147/3/2 158/3/2
f 148/4/2 149/4/2 158/4/2
f 149/3/2 150/3/2 159/3/2
f 158/4/2 149/4/2 159/4/2
f 150/4/2 151/4/2 160/4/2
f 159/3/2 150/3/2 160/3/2
f 152/3/2 153/3/2 161/3/2
f 160/4/2 151/4/2 161/4/2
f 104/3/2 152/3/2 161/3/2
f 151/4/2 104/4/2 161/4/2
f 153/4/2 154/4/2 162/4/2
f 161/3/2 153/3/2 162/3/2
f 156/4/2 157/4/2 163/4/2
f 160/4/2 161/4/2 163/4/2
f 161/4/2 162/4/2 163/4/2
f 158/4/2 159/4/2 163/4/2
f 96/4/2 142/4/2 163/4/2
f 157/4/2 158/4/2 163/4/2
f 155/4/2 156/4/2 163/4/2
f 142/4/2 155/4/2 163/4/2
f 159/4/2 160/4/2 163/4/2
f 162/4/2 154/4/2 164/4/2
f 163/4/2 162/4/2 164/4/2
f 154/4/2 97/4/2 164/4/2
f 167/5/3 166/5/3 165/5/3
f 168/5/3 166/5/3 167/5/3
f 171/4/3 170/4/3 169/4/3
f 172/4/3 170/4/3 171/4/3
f 173/4/3 171/4/3 169/4/3
f 174/4/3 170/4/3 172/4/3
f 175/4/3 173/4/3 169/4/3
f 175/4/3 174/4/3 173/4/3
f 176/4/3 170/4/3 174/4/3
f 176/4/3 174/4/3 175/4/3
f 177/4/4 178/4/4 179/4/4
f 179/4/4 178/4/4 180/4/4
f 183/4/5 182/4/5 181/4/5
f 184/4/5 182/4/5 183/4/5
f 187/5/5 186/5/5 185/5/5
f 188/5/5 186/5/5 187/5/5
f 189/5/6 190/5/6 191/5/6
f 191/5/6 190/5/6 192/5/6
f 193/4/6 194/4/6 195/4/6
f 195/4/6 194/4/6 196/4/6
