# MagicaVoxel @ Ephtracy

# group
g gear-like-cart

# material
mtllib gear-like-cart.mtl
usemtl palette

# normals
vn -1 0 0
vn 1 0 0
vn 0 0 1
vn 0 0 -1
vn 0 -1 0
vn 0 1 0

# texcoords
vt 0.0175781 0.5
vt 0.123047 0.5
vt 0.259766 0.5
vt 0.423828 0.5
vt 0.775391 0.5
vt 0.779297 0.5
vt 0.802734 0.5
vt 0.958984 0.5
vt 0.962891 0.5
vt 0.966797 0.5
vt 0.970703 0.5
vt 0.974609 0.5
vt 0.982422 0.5
vt 0.986328 0.5
vt 0.990234 0.5

# verts
v -20 0 1
v -20 0 -2
v -20 26 2
v -20 26 1
v -20 40 2
v -20 40 -2
v 9 2 1
v 9 2 -0
v 9 7 1
v 9 7 -0
v 14 33 2
v 14 33 1
v 14 35 2
v 14 35 1
v 16 32 2
v 16 32 -0
v 16 33 2
v 16 33 -0
v 18 10 1
v 18 10 -0
v 18 14 -0
v 18 19 -0
v 18 22 -0
v 18 23 -0
v 18 25 -0
v 18 26 2
v 18 26 1
v 18 32 2
v 18 32 -0
v 19 0 -0
v 19 0 -1
v 19 2 -0
v 19 2 -1
v -19 0 -0
v -19 0 -1
v -19 2 -0
v -19 2 -1
v -18 10 1
v -18 10 -0
v -18 26 2
v -18 26 1
v -18 32 2
v -18 32 -0
v -16 32 2
v -16 32 -0
v -16 33 2
v -16 33 -0
v -14 33 2
v -14 33 1
v -14 35 2
v -14 35 1
v -11 2 1
v -11 2 -0
v -11 7 1
v -11 7 -0
v 20 0 1
v 20 0 -2
v 20 26 2
v 20 26 1
v 20 40 2
v 20 40 -2
v -20 26 2
v -20 40 2
v -18 26 2
v -18 32 2
v -16 32 2
v -16 33 2
v -14 33 2
v -14 35 2
v 14 33 2
v 14 35 2
v 16 32 2
v 16 33 2
v 18 26 2
v 18 32 2
v 20 26 2
v 20 40 2
v -20 0 1
v -20 26 1
v -18 10 1
v -18 26 1
v -14 33 1
v -14 35 1
v -11 2 1
v -11 7 1
v 9 2 1
v 9 7 1
v 14 33 1
v 14 35 1
v 18 10 1
v 18 26 1
v 20 0 1
v 20 26 1
v -18 10 -0
v -18 32 -0
v -17 12 -0
v -17 13 -0
v -17 15 -0
v -17 17 -0
v -17 20 -0
v -17 21 -0
v -17 24 -0
v -17 25 -0
v -17 29 -0
v -17 30 -0
v -16 15 -0
v -16 17 -0
v -16 19 -0
v -16 22 -0
v -16 24 -0
v -16 25 -0
v -16 27 -0
v -16 29 -0
v -16 30 -0
v -16 32 -0
v -16 33 -0
v -15 11 -0
v -15 12 -0
v -15 13 -0
v -15 16 -0
v -15 17 -0
v -15 19 -0
v -15 22 -0
v -15 24 -0
v -15 26 -0
v -15 27 -0
v -15 29 -0
v -14 11 -0
v -14 12 -0
v -14 13 -0
v -14 16 -0
v -14 20 -0
v -14 21 -0
v -14 26 -0
v -14 27 -0
v -13 14 -0
v -13 19 -0
v -13 22 -0
v -13 23 -0
v -13 25 -0
v -13 33 -0
v -12 12 -0
v -12 13 -0
v -11 2 -0
v -11 7 -0
v -11 14 -0
v -11 19 -0
v -11 23 -0
v -11 25 -0
v -11 27 -0
v -10 12 -0
v -10 13 -0
v -10 14 -0
v -10 19 -0
v -10 21 -0
v -9 12 -0
v -9 13 -0
v -9 14 -0
v -9 21 -0
v -9 22 -0
v -9 25 -0
v -9 27 -0
v -9 29 -0
v -7 3 -0
v -7 4 -0
v -7 14 -0
v -7 27 -0
v -7 29 -0
v -6 3 -0
v -6 4 -0
v -6 6 -0
v -5 4 -0
v -5 6 -0
v -5 12 -0
v -5 13 -0
v -4 5 -0
v -4 6 -0
v -4 20 -0
v -4 25 -0
v -3 3 -0
v -3 5 -0
v -3 6 -0
v -3 14 -0
v -3 16 -0
v -3 19 -0
v -3 20 -0
v -3 25 -0
v -3 26 -0
v -2 3 -0
v -2 5 -0
v -2 11 -0
v -2 12 -0
v -2 16 -0
v -2 17 -0
v -2 18 -0
v -2 19 -0
v -2 20 -0
v -2 24 -0
v -2 25 -0
v -2 26 -0
v -1 3 -0
v -1 6 -0
v -1 11 -0
v -1 12 -0
v -1 13 -0
v -1 18 -0
v -1 19 -0
v -1 23 -0
v -1 24 -0
v -1 25 -0
v 0 4 -0
v 0 6 -0
v 0 17 -0
v 0 19 -0
v 0 20 -0
v 0 21 -0
v 0 23 -0
v 0 24 -0
v 0 25 -0
v 0 26 -0
v 1 3 -0
v 1 4 -0
v 1 12 -0
v 1 13 -0
v 1 19 -0
v 1 20 -0
v 1 21 -0
v 1 22 -0
v 1 23 -0
v 1 25 -0
v 1 26 -0
v 1 28 -0
v 1 31 -0
v 2 3 -0
v 2 4 -0
v 2 11 -0
v 2 13 -0
v 2 19 -0
v 2 21 -0
v 2 22 -0
v 2 23 -0
v 2 24 -0
v 2 26 -0
v 2 27 -0
v 2 31 -0
v 2 32 -0
v 3 3 -0
v 3 4 -0
v 3 6 -0
v 3 11 -0
v 3 13 -0
v 3 19 -0
v 3 21 -0
v 3 22 -0
v 3 23 -0
v 3 24 -0
v 3 26 -0
v 3 27 -0
v 3 31 -0
v 3 32 -0
v 4 3 -0
v 4 4 -0
v 4 5 -0
v 4 6 -0
v 4 11 -0
v 4 13 -0
v 4 19 -0
v 4 20 -0
v 4 21 -0
v 4 22 -0
v 4 23 -0
v 4 25 -0
v 4 26 -0
v 4 28 -0
v 4 31 -0
v 5 3 -0
v 5 5 -0
v 5 11 -0
v 5 13 -0
v 5 17 -0
v 5 19 -0
v 5 20 -0
v 5 21 -0
v 5 23 -0
v 5 24 -0
v 5 25 -0
v 5 26 -0
v 6 11 -0
v 6 13 -0
v 6 18 -0
v 6 19 -0
v 6 23 -0
v 6 24 -0
v 6 25 -0
v 7 12 -0
v 7 13 -0
v 7 16 -0
v 7 17 -0
v 7 18 -0
v 7 19 -0
v 7 20 -0
v 7 24 -0
v 7 25 -0
v 7 26 -0
v 8 11 -0
v 8 12 -0
v 8 14 -0
v 8 16 -0
v 8 19 -0
v 8 20 -0
v 8 25 -0
v 8 26 -0
v 9 2 -0
v 9 7 -0
v 9 20 -0
v 9 25 -0
v 12 14 -0
v 12 27 -0
v 12 29 -0
v 14 14 -0
v 14 21 -0
v 14 22 -0
v 14 25 -0
v 14 27 -0
v 14 29 -0
v 15 14 -0
v 15 19 -0
v 15 21 -0
v 16 14 -0
v 16 19 -0
v 16 23 -0
v 16 25 -0
v 16 27 -0
v 16 32 -0
v 16 33 -0
v 18 10 -0
v 18 14 -0
v 18 19 -0
v 18 22 -0
v 18 23 -0
v 18 25 -0
v 18 32 -0
v -19 0 -1
v -19 2 -1
v 19 0 -1
v 19 2 -1
v -19 0 -0
v -19 2 -0
v 19 0 -0
v 19 2 -0
v -20 0 -2
v -20 40 -2
v -18 10 -2
v -18 32 -2
v -16 32 -2
v -16 33 -2
v 16 32 -2
v 16 33 -2
v 18 10 -2
v 18 32 -2
v 20 0 -2
v 20 40 -2
v -20 0 1
v 20 0 1
v -19 0 -0
v 19 0 -0
v -19 0 -1
v 19 0 -1
v -20 0 -2
v 20 0 -2
v -19 2 -0
v 19 2 -0
v -19 2 -1
v 19 2 -1
v -11 7 1
v 9 7 1
v -11 7 -0
v 9 7 -0
v -20 26 2
v -18 26 2
v 18 26 2
v 20 26 2
v -20 26 1
v -18 26 1
v 18 26 1
v 20 26 1
v -18 32 2
v -16 32 2
v 16 32 2
v 18 32 2
v -18 32 -0
v -16 32 -0
v 16 32 -0
v 18 32 -0
v -16 33 2
v -14 33 2
v 14 33 2
v 16 33 2
v -14 33 1
v 14 33 1
v -16 33 -0
v -13 33 -0
v 16 33 -0
v -14 35 2
v 14 35 2
v -14 35 1
v 14 35 1
v -11 2 1
v 9 2 1
v -11 2 -0
v 9 2 -0
v -18 10 1
v 18 10 1
v -18 10 -0
v 18 10 -0
v -20 40 2
v 20 40 2
v -20 40 -2
v 20 40 -2

# faces
f 4/14/1 2/14/1 1/14/1
f 5/14/1 4/14/1 3/14/1
f 6/14/1 2/14/1 4/14/1
f 6/14/1 4/14/1 5/14/1
f 9/14/1 8/14/1 7/14/1
f 10/14/1 8/14/1 9/14/1
f 13/14/1 12/14/1 11/14/1
f 14/14/1 12/14/1 13/14/1
f 17/14/1 16/14/1 15/14/1
f 18/14/1 16/14/1 17/14/1
f 21/14/1 20/14/1 19/14/1
f 22/14/1 21/14/1 19/14/1
f 23/14/1 22/14/1 19/14/1
f 24/14/1 23/14/1 19/14/1
f 25/14/1 24/14/1 19/14/1
f 27/14/1 25/14/1 19/14/1
f 28/14/1 27/14/1 26/14/1
f 29/14/1 25/14/1 27/14/1
f 29/14/1 27/14/1 28/14/1
f 32/14/1 31/14/1 30/14/1
f 33/14/1 31/14/1 32/14/1
f 34/14/2 35/14/2 36/14/2
f 36/14/2 35/14/2 37/14/2
f 38/14/2 39/14/2 41/14/2
f 40/14/2 41/14/2 42/14/2
f 41/14/2 39/14/2 43/14/2
f 42/14/2 41/14/2 43/14/2
f 44/14/2 45/14/2 46/14/2
f 46/14/2 45/14/2 47/14/2
f 48/14/2 49/14/2 50/14/2
f 50/14/2 49/14/2 51/14/2
f 52/14/2 53/14/2 54/14/2
f 54/14/2 53/14/2 55/14/2
f 56/14/2 57/14/2 59/14/2
f 58/14/2 59/14/2 60/14/2
f 59/14/2 57/14/2 61/14/2
f 60/14/2 59/14/2 61/14/2
f 64/14/3 63/14/3 62/14/3
f 65/14/3 63/14/3 64/14/3
f 66/14/3 63/14/3 65/14/3
f 67/14/3 63/14/3 66/14/3
f 68/14/3 63/14/3 67/14/3
f 69/14/3 63/14/3 68/14/3
f 71/14/3 63/14/3 69/14/3
f 73/14/3 71/14/3 70/14/3
f 75/14/3 73/14/3 72/14/3
f 76/14/3 75/14/3 74/14/3
f 77/14/3 63/14/3 71/14/3
f 77/14/3 75/14/3 76/14/3
f 77/14/3 71/14/3 73/14/3
f 77/14/3 73/14/3 75/14/3
f 80/14/3 79/14/3 78/14/3
f 81/14/3 79/14/3 80/14/3
f 84/14/3 80/14/3 78/14/3
f 85/14/3 80/14/3 84/14/3
f 86/14/3 84/14/3 78/14/3
f 87/14/3 80/14/3 85/14/3
f 88/14/3 83/14/3 82/14/3
f 89/14/3 83/14/3 88/14/3
f 90/14/3 87/14/3 86/14/3
f 90/14/3 80/14/3 87/14/3
f 92/14/3 86/14/3 78/14/3
f 92/14/3 91/14/3 90/14/3
f 92/14/3 90/14/3 86/14/3
f 93/14/3 91/14/3 92/14/3
f 96/2/3 95/2/3 94/2/3
f 97/2/3 95/2/3 96/2/3
f 98/2/3 95/2/3 97/2/3
f 99/2/3 95/2/3 98/2/3
f 100/2/3 95/2/3 99/2/3
f 101/2/3 95/2/3 100/2/3
f 102/2/3 95/2/3 101/2/3
f 103/2/3 95/2/3 102/2/3
f 104/2/3 95/2/3 103/2/3
f 105/2/3 95/2/3 104/2/3
f 106/2/3 98/2/3 97/2/3
f 106/11/3 99/11/3 98/11/3
f 107/2/3 100/2/3 99/2/3
f 107/11/3 99/11/3 106/11/3
f 108/2/3 100/2/3 107/2/3
f 109/2/3 102/2/3 101/2/3
f 110/11/3 103/11/3 102/11/3
f 110/2/3 102/2/3 109/2/3
f 111/2/3 104/2/3 103/2/3
f 111/11/3 103/11/3 110/11/3
f 112/2/3 104/2/3 111/2/3
f 113/11/3 105/11/3 104/11/3
f 113/2/3 104/2/3 112/2/3
f 114/2/3 95/2/3 105/2/3
f 114/11/3 105/11/3 113/11/3
f 115/2/3 95/2/3 114/2/3
f 117/2/3 96/2/3 94/2/3
f 118/11/3 97/11/3 96/11/3
f 118/2/3 96/2/3 117/2/3
f 119/2/3 106/2/3 97/2/3
f 119/11/3 97/11/3 118/11/3
f 119/2/3 107/2/3 106/2/3
f 120/2/3 107/2/3 119/2/3
f 121/11/3 108/11/3 107/11/3
f 121/2/3 107/2/3 120/2/3
f 122/2/3 100/2/3 108/2/3
f 122/11/3 108/11/3 121/11/3
f 123/2/3 109/2/3 101/2/3
f 123/11/3 110/11/3 109/11/3
f 124/2/3 112/2/3 111/2/3
f 124/11/3 110/11/3 123/11/3
f 124/2/3 111/2/3 110/2/3
f 125/2/3 112/2/3 124/2/3
f 126/11/3 113/11/3 112/11/3
f 126/2/3 112/2/3 125/2/3
f 127/2/3 116/2/3 115/2/3
f 127/11/3 113/11/3 126/11/3
f 127/2/3 115/2/3 114/2/3
f 127/2/3 114/2/3 113/2/3
f 128/2/3 117/2/3 94/2/3
f 128/11/3 118/11/3 117/11/3
f 129/2/3 119/2/3 118/2/3
f 129/11/3 118/11/3 128/11/3
f 130/11/3 120/11/3 119/11/3
f 130/2/3 119/2/3 129/2/3
f 131/2/3 121/2/3 120/2/3
f 131/11/3 120/11/3 130/11/3
f 131/2/3 122/2/3 121/2/3
f 132/11/3 101/11/3 100/11/3
f 132/2/3 122/2/3 131/2/3
f 132/2/3 100/2/3 122/2/3
f 133/2/3 125/2/3 124/2/3
f 133/11/3 101/11/3 132/11/3
f 133/2/3 123/2/3 101/2/3
f 133/2/3 124/2/3 123/2/3
f 134/11/3 126/11/3 125/11/3
f 134/2/3 125/2/3 133/2/3
f 135/2/3 127/2/3 126/2/3
f 135/11/3 126/11/3 134/11/3
f 136/2/3 133/2/3 132/2/3
f 136/2/3 132/2/3 131/2/3
f 136/2/3 135/2/3 134/2/3
f 136/2/3 129/2/3 128/2/3
f 136/2/3 130/2/3 129/2/3
f 136/2/3 131/2/3 130/2/3
f 136/2/3 134/2/3 133/2/3
f 137/2/3 135/2/3 136/2/3
f 138/2/3 135/2/3 137/2/3
f 139/2/3 135/2/3 138/2/3
f 140/2/3 135/2/3 139/2/3
f 141/2/3 127/2/3 135/2/3
f 141/2/3 135/2/3 140/2/3
f 141/2/3 116/2/3 127/2/3
f 142/2/3 136/2/3 128/2/3
f 143/2/3 136/2/3 142/2/3
f 146/10/3 137/10/3 136/10/3
f 146/2/3 136/2/3 143/2/3
f 147/6/3 138/6/3 137/6/3
f 147/10/3 137/10/3 146/10/3
f 148/8/3 140/8/3 139/8/3
f 148/11/3 139/11/3 138/11/3
f 149/11/3 141/11/3 140/11/3
f 149/8/3 140/8/3 148/8/3
f 150/11/3 141/11/3 149/11/3
f 151/2/3 142/2/3 128/2/3
f 151/13/3 143/13/3 142/13/3
f 152/2/3 146/2/3 143/2/3
f 152/13/3 143/13/3 151/13/3
f 153/11/3 147/11/3 146/11/3
f 153/2/3 146/2/3 152/2/3
f 154/6/3 138/6/3 147/6/3
f 154/11/3 147/11/3 153/11/3
f 155/6/3 138/6/3 154/6/3
f 156/2/3 153/2/3 152/2/3
f 156/2/3 152/2/3 151/2/3
f 156/2/3 151/2/3 128/2/3
f 157/2/3 153/2/3 156/2/3
f 158/5/3 155/5/3 154/5/3
f 158/2/3 153/2/3 157/2/3
f 158/5/3 154/5/3 153/5/3
f 159/6/3 138/6/3 155/6/3
f 159/5/3 155/5/3 158/5/3
f 160/11/3 148/11/3 138/11/3
f 160/6/3 138/6/3 159/6/3
f 160/11/3 149/11/3 148/11/3
f 161/8/3 150/8/3 149/8/3
f 161/11/3 149/11/3 160/11/3
f 162/11/3 141/11/3 150/11/3
f 162/8/3 150/8/3 161/8/3
f 163/11/3 141/11/3 162/11/3
f 164/14/3 145/14/3 144/14/3
f 165/14/3 145/14/3 164/14/3
f 166/2/3 158/2/3 157/2/3
f 166/10/3 159/10/3 158/10/3
f 166/10/3 161/10/3 160/10/3
f 166/10/3 160/10/3 159/10/3
f 166/10/3 162/10/3 161/10/3
f 167/8/3 163/8/3 162/8/3
f 167/10/3 162/10/3 166/10/3
f 168/11/3 141/11/3 163/11/3
f 168/8/3 163/8/3 167/8/3
f 169/15/3 165/15/3 164/15/3
f 169/14/3 164/14/3 144/14/3
f 170/14/3 145/14/3 165/14/3
f 170/15/3 165/15/3 169/15/3
f 171/14/3 145/14/3 170/14/3
f 172/14/3 170/14/3 169/14/3
f 172/15/3 171/15/3 170/15/3
f 173/14/3 145/14/3 171/14/3
f 173/15/3 171/15/3 172/15/3
f 174/13/3 157/13/3 156/13/3
f 174/2/3 156/2/3 128/2/3
f 175/2/3 166/2/3 157/2/3
f 175/13/3 157/13/3 174/13/3
f 176/14/3 173/14/3 172/14/3
f 177/14/3 145/14/3 173/14/3
f 177/14/3 173/14/3 176/14/3
f 178/11/3 167/11/3 166/11/3
f 178/11/3 168/11/3 167/11/3
f 179/11/3 168/11/3 178/11/3
f 180/14/3 169/14/3 144/14/3
f 180/14/3 176/14/3 172/14/3
f 180/14/3 172/14/3 169/14/3
f 181/15/3 177/15/3 176/15/3
f 181/14/3 176/14/3 180/14/3
f 182/14/3 145/14/3 177/14/3
f 182/15/3 177/15/3 181/15/3
f 183/2/3 166/2/3 175/2/3
f 183/11/3 178/11/3 166/11/3
f 183/2/3 175/2/3 174/2/3
f 184/11/3 178/11/3 183/11/3
f 185/11/3 178/11/3 184/11/3
f 186/8/3 179/8/3 178/8/3
f 186/11/3 178/11/3 185/11/3
f 187/11/3 168/11/3 179/11/3
f 187/8/3 179/8/3 186/8/3
f 188/11/3 168/11/3 187/11/3
f 189/15/3 181/15/3 180/15/3
f 189/14/3 180/14/3 144/14/3
f 190/14/3 182/14/3 181/14/3
f 190/15/3 181/15/3 189/15/3
f 191/2/3 128/2/3 94/2/3
f 191/2/3 174/2/3 128/2/3
f 191/2/3 183/2/3 174/2/3
f 192/2/3 183/2/3 191/2/3
f 193/11/3 185/11/3 184/11/3
f 193/3/3 184/3/3 183/3/3
f 194/11/3 185/11/3 193/11/3
f 195/11/3 185/11/3 194/11/3
f 196/8/3 186/8/3 185/8/3
f 196/11/3 185/11/3 195/11/3
f 197/9/3 187/9/3 186/9/3
f 197/8/3 186/8/3 196/8/3
f 198/9/3 187/9/3 197/9/3
f 199/8/3 188/8/3 187/8/3
f 199/9/3 187/9/3 198/9/3
f 200/11/3 168/11/3 188/11/3
f 200/8/3 188/8/3 199/8/3
f 201/14/3 190/14/3 189/14/3
f 201/14/3 189/14/3 144/14/3
f 202/14/3 182/14/3 190/14/3
f 202/14/3 190/14/3 201/14/3
f 202/14/3 145/14/3 182/14/3
f 203/7/3 192/7/3 191/7/3
f 203/2/3 191/2/3 94/2/3
f 204/2/3 183/2/3 192/2/3
f 204/7/3 192/7/3 203/7/3
f 205/2/3 183/2/3 204/2/3
f 206/11/3 195/11/3 194/11/3
f 206/8/3 196/8/3 195/8/3
f 207/9/3 197/9/3 196/9/3
f 207/8/3 196/8/3 206/8/3
f 207/9/3 198/9/3 197/9/3
f 208/9/3 198/9/3 207/9/3
f 209/8/3 199/8/3 198/8/3
f 209/9/3 198/9/3 208/9/3
f 210/11/3 200/11/3 199/11/3
f 210/8/3 199/8/3 209/8/3
f 211/15/3 202/15/3 201/15/3
f 212/14/3 145/14/3 202/14/3
f 212/15/3 202/15/3 211/15/3
f 213/11/3 206/11/3 194/11/3
f 213/3/3 194/3/3 193/3/3
f 213/11/3 207/11/3 206/11/3
f 214/9/3 208/9/3 207/9/3
f 214/11/3 207/11/3 213/11/3
f 215/9/3 208/9/3 214/9/3
f 216/9/3 208/9/3 215/9/3
f 217/8/3 209/8/3 208/8/3
f 217/9/3 208/9/3 216/9/3
f 218/11/3 210/11/3 209/11/3
f 218/8/3 209/8/3 217/8/3
f 219/11/3 200/11/3 210/11/3
f 219/11/3 210/11/3 218/11/3
f 220/11/3 168/11/3 200/11/3
f 220/11/3 200/11/3 219/11/3
f 221/14/3 201/14/3 144/14/3
f 221/15/3 211/15/3 201/15/3
f 222/14/3 212/14/3 211/14/3
f 222/15/3 211/15/3 221/15/3
f 223/2/3 204/2/3 203/2/3
f 223/7/3 205/7/3 204/7/3
f 224/2/3 183/2/3 205/2/3
f 224/7/3 205/7/3 223/7/3
f 225/9/3 214/9/3 213/9/3
f 225/11/3 215/11/3 214/11/3
f 226/9/3 216/9/3 215/9/3
f 226/11/3 215/11/3 225/11/3
f 227/8/3 217/8/3 216/8/3
f 227/9/3 216/9/3 226/9/3
f 228/8/3 217/8/3 227/8/3
f 229/11/3 219/11/3 218/11/3
f 229/8/3 217/8/3 228/8/3
f 229/11/3 218/11/3 217/11/3
f 230/4/3 220/4/3 219/4/3
f 230/11/3 219/11/3 229/11/3
f 231/11/3 168/11/3 220/11/3
f 231/4/3 220/4/3 230/4/3
f 232/11/3 168/11/3 231/11/3
f 233/11/3 141/11/3 168/11/3
f 233/11/3 168/11/3 232/11/3
f 234/14/3 222/14/3 221/14/3
f 234/14/3 221/14/3 144/14/3
f 235/14/3 212/14/3 222/14/3
f 235/14/3 222/14/3 234/14/3
f 236/2/3 223/2/3 203/2/3
f 236/2/3 203/2/3 94/2/3
f 236/2/3 224/2/3 223/2/3
f 237/2/3 183/2/3 224/2/3
f 237/2/3 224/2/3 236/2/3
f 238/9/3 228/9/3 227/9/3
f 238/9/3 225/9/3 213/9/3
f 238/9/3 227/9/3 226/9/3
f 238/9/3 226/9/3 225/9/3
f 239/9/3 228/9/3 238/9/3
f 240/1/3 230/1/3 229/1/3
f 240/9/3 228/9/3 239/9/3
f 240/1/3 229/1/3 228/1/3
f 241/1/3 230/1/3 240/1/3
f 242/1/3 230/1/3 241/1/3
f 243/11/3 232/11/3 231/11/3
f 243/11/3 231/11/3 230/11/3
f 244/11/3 232/11/3 243/11/3
f 245/11/3 141/11/3 233/11/3
f 245/4/3 233/4/3 232/4/3
f 246/11/3 141/11/3 245/11/3
f 247/15/3 235/15/3 234/15/3
f 247/14/3 234/14/3 144/14/3
f 248/14/3 212/14/3 235/14/3
f 248/15/3 235/15/3 247/15/3
f 249/14/3 145/14/3 212/14/3
f 249/14/3 212/14/3 248/14/3
f 250/7/3 237/7/3 236/7/3
f 250/2/3 236/2/3 94/2/3
f 251/2/3 183/2/3 237/2/3
f 251/7/3 237/7/3 250/7/3
f 252/15/3 239/15/3 238/15/3
f 252/9/3 238/9/3 213/9/3
f 253/9/3 240/9/3 239/9/3
f 253/15/3 239/15/3 252/15/3
f 254/13/3 241/13/3 240/13/3
f 254/9/3 240/9/3 253/9/3
f 255/15/3 242/15/3 241/15/3
f 255/13/3 241/13/3 254/13/3
f 256/1/3 230/1/3 242/1/3
f 256/15/3 242/15/3 255/15/3
f 257/4/3 244/4/3 243/4/3
f 257/11/3 243/11/3 230/11/3
f 258/11/3 232/11/3 244/11/3
f 258/4/3 244/4/3 257/4/3
f 259/4/3 246/4/3 245/4/3
f 259/4/3 245/4/3 232/4/3
f 260/11/3 141/11/3 246/11/3
f 260/4/3 246/4/3 259/4/3
f 261/14/3 247/14/3 144/14/3
f 261/14/3 248/14/3 247/14/3
f 262/15/3 249/15/3 248/15/3
f 262/14/3 248/14/3 261/14/3
f 263/15/3 249/15/3 262/15/3
f 264/14/3 145/14/3 249/14/3
f 264/15/3 249/15/3 263/15/3
f 265/2/3 250/2/3 94/2/3
f 265/2/3 251/2/3 250/2/3
f 266/2/3 183/2/3 251/2/3
f 266/2/3 251/2/3 265/2/3
f 267/9/3 254/9/3 253/9/3
f 267/9/3 252/9/3 213/9/3
f 267/9/3 253/9/3 252/9/3
f 268/9/3 254/9/3 267/9/3
f 269/9/3 254/9/3 268/9/3
f 270/1/3 255/1/3 254/1/3
f 270/9/3 254/9/3 269/9/3
f 270/1/3 256/1/3 255/1/3
f 271/1/3 256/1/3 270/1/3
f 272/11/3 257/11/3 230/11/3
f 272/1/3 256/1/3 271/1/3
f 272/1/3 230/1/3 256/1/3
f 272/11/3 258/11/3 257/11/3
f 273/11/3 258/11/3 272/11/3
f 274/4/3 259/4/3 232/4/3
f 274/11/3 258/11/3 273/11/3
f 274/11/3 232/11/3 258/11/3
f 275/11/3 260/11/3 259/11/3
f 275/4/3 259/4/3 274/4/3
f 276/15/3 263/15/3 262/15/3
f 276/14/3 261/14/3 144/14/3
f 276/15/3 262/15/3 261/15/3
f 277/14/3 264/14/3 263/14/3
f 277/15/3 263/15/3 276/15/3
f 278/2/3 265/2/3 94/2/3
f 278/7/3 266/7/3 265/7/3
f 279/2/3 183/2/3 266/2/3
f 279/7/3 266/7/3 278/7/3
f 280/3/3 213/3/3 193/3/3
f 280/9/3 267/9/3 213/9/3
f 281/11/3 268/11/3 267/11/3
f 281/9/3 267/9/3 280/9/3
f 282/9/3 269/9/3 268/9/3
f 282/11/3 268/11/3 281/11/3
f 283/8/3 271/8/3 270/8/3
f 283/9/3 269/9/3 282/9/3
f 283/8/3 270/8/3 269/8/3
f 284/11/3 272/11/3 271/11/3
f 284/8/3 271/8/3 283/8/3
f 285/11/3 272/11/3 284/11/3
f 286/4/3 273/4/3 272/4/3
f 286/11/3 272/11/3 285/11/3
f 287/11/3 274/11/3 273/11/3
f 287/4/3 273/4/3 286/4/3
f 287/11/3 275/11/3 274/11/3
f 288/2/3 278/2/3 94/2/3
f 288/2/3 279/2/3 278/2/3
f 289/2/3 183/2/3 279/2/3
f 289/2/3 279/2/3 288/2/3
f 290/11/3 281/11/3 280/11/3
f 291/9/3 283/9/3 282/9/3
f 291/11/3 281/11/3 290/11/3
f 291/9/3 282/9/3 281/9/3
f 291/9/3 284/9/3 283/9/3
f 292/8/3 285/8/3 284/8/3
f 292/9/3 284/9/3 291/9/3
f 293/11/3 286/11/3 285/11/3
f 293/8/3 285/8/3 292/8/3
f 293/11/3 287/11/3 286/11/3
f 294/11/3 287/11/3 293/11/3
f 295/7/3 289/7/3 288/7/3
f 296/2/3 183/2/3 289/2/3
f 296/7/3 289/7/3 295/7/3
f 297/3/3 193/3/3 183/3/3
f 297/3/3 280/3/3 193/3/3
f 298/11/3 290/11/3 280/11/3
f 298/3/3 280/3/3 297/3/3
f 299/8/3 291/8/3 290/8/3
f 299/11/3 290/11/3 298/11/3
f 300/9/3 292/9/3 291/9/3
f 300/8/3 291/8/3 299/8/3
f 300/9/3 293/9/3 292/9/3
f 301/9/3 293/9/3 300/9/3
f 302/8/3 294/8/3 293/8/3
f 302/9/3 293/9/3 301/9/3
f 303/11/3 287/11/3 294/11/3
f 303/8/3 294/8/3 302/8/3
f 304/11/3 275/11/3 287/11/3
f 304/11/3 287/11/3 303/11/3
f 305/2/3 288/2/3 94/2/3
f 305/7/3 295/7/3 288/7/3
f 306/2/3 296/2/3 295/2/3
f 306/7/3 295/7/3 305/7/3
f 307/3/3 297/3/3 183/3/3
f 307/2/3 296/2/3 306/2/3
f 307/2/3 183/2/3 296/2/3
f 308/11/3 298/11/3 297/11/3
f 308/3/3 297/3/3 307/3/3
f 308/11/3 299/11/3 298/11/3
f 308/11/3 300/11/3 299/11/3
f 309/8/3 301/8/3 300/8/3
f 309/11/3 300/11/3 308/11/3
f 310/9/3 302/9/3 301/9/3
f 310/8/3 301/8/3 309/8/3
f 310/9/3 303/9/3 302/9/3
f 311/8/3 304/8/3 303/8/3
f 311/9/3 303/9/3 310/9/3
f 312/11/3 275/11/3 304/11/3
f 312/8/3 304/8/3 311/8/3
f 313/14/3 276/14/3 144/14/3
f 313/14/3 277/14/3 276/14/3
f 314/14/3 264/14/3 277/14/3
f 314/14/3 277/14/3 313/14/3
f 314/14/3 145/14/3 264/14/3
f 315/8/3 311/8/3 310/8/3
f 315/11/3 308/11/3 307/11/3
f 315/11/3 310/11/3 309/11/3
f 315/11/3 309/11/3 308/11/3
f 316/11/3 312/11/3 311/11/3
f 316/8/3 311/8/3 315/8/3
f 317/2/3 307/2/3 306/2/3
f 317/11/3 316/11/3 315/11/3
f 317/2/3 306/2/3 305/2/3
f 317/11/3 315/11/3 307/11/3
f 318/11/3 312/11/3 316/11/3
f 318/11/3 316/11/3 317/11/3
f 318/11/3 275/11/3 312/11/3
f 319/11/3 275/11/3 318/11/3
f 320/2/3 317/2/3 305/2/3
f 320/10/3 318/10/3 317/10/3
f 321/10/3 318/10/3 320/10/3
f 322/10/3 318/10/3 321/10/3
f 323/10/3 318/10/3 322/10/3
f 324/8/3 319/8/3 318/8/3
f 324/10/3 318/10/3 323/10/3
f 325/11/3 275/11/3 319/11/3
f 325/8/3 319/8/3 324/8/3
f 326/2/3 320/2/3 305/2/3
f 326/5/3 321/5/3 320/5/3
f 327/5/3 321/5/3 326/5/3
f 328/6/3 322/6/3 321/6/3
f 328/5/3 321/5/3 327/5/3
f 329/11/3 327/11/3 326/11/3
f 329/2/3 326/2/3 305/2/3
f 330/6/3 328/6/3 327/6/3
f 330/11/3 327/11/3 329/11/3
f 331/11/3 323/11/3 322/11/3
f 332/8/3 324/8/3 323/8/3
f 332/11/3 323/11/3 331/11/3
f 333/11/3 325/11/3 324/11/3
f 333/8/3 324/8/3 332/8/3
f 334/11/3 141/11/3 260/11/3
f 334/11/3 325/11/3 333/11/3
f 334/11/3 260/11/3 275/11/3
f 334/11/3 275/11/3 325/11/3
f 335/11/3 141/11/3 334/11/3
f 336/2/3 305/2/3 94/2/3
f 336/2/3 329/2/3 305/2/3
f 337/10/3 330/10/3 329/10/3
f 337/2/3 329/2/3 336/2/3
f 338/6/3 328/6/3 330/6/3
f 338/10/3 330/10/3 337/10/3
f 339/11/3 331/11/3 322/11/3
f 339/6/3 328/6/3 338/6/3
f 339/6/3 322/6/3 328/6/3
f 340/8/3 332/8/3 331/8/3
f 340/11/3 331/11/3 339/11/3
f 341/11/3 333/11/3 332/11/3
f 341/8/3 332/8/3 340/8/3
f 341/11/3 334/11/3 333/11/3
f 342/11/3 334/11/3 341/11/3
f 345/14/3 344/14/3 343/14/3
f 346/14/3 344/14/3 345/14/3
f 347/14/4 348/14/4 349/14/4
f 349/14/4 348/14/4 350/14/4
f 351/14/4 352/14/4 353/14/4
f 353/14/4 352/14/4 354/14/4
f 353/2/4 354/2/4 355/2/4
f 354/14/4 352/14/4 355/14/4
f 355/14/4 352/14/4 356/14/4
f 353/2/4 355/2/4 357/2/4
f 355/2/4 356/2/4 357/2/4
f 356/14/4 352/14/4 358/14/4
f 357/2/4 356/2/4 358/2/4
f 351/14/4 353/14/4 359/14/4
f 353/2/4 357/2/4 359/2/4
f 357/14/4 358/14/4 360/14/4
f 359/2/4 357/2/4 360/2/4
f 351/14/4 359/14/4 361/14/4
f 359/14/4 360/14/4 361/14/4
f 358/14/4 352/14/4 362/14/4
f 361/14/4 360/14/4 362/14/4
f 360/14/4 358/14/4 362/14/4
f 365/14/5 364/14/5 363/14/5
f 366/14/5 364/14/5 365/14/5
f 367/14/5 365/14/5 363/14/5
f 368/14/5 364/14/5 366/14/5
f 369/14/5 367/14/5 363/14/5
f 369/14/5 368/14/5 367/14/5
f 370/14/5 364/14/5 368/14/5
f 370/14/5 368/14/5 369/14/5
f 373/14/5 372/14/5 371/14/5
f 374/14/5 372/14/5 373/14/5
f 377/14/5 376/14/5 375/14/5
f 378/14/5 376/14/5 377/14/5
f 383/14/5 380/14/5 379/14/5
f 384/14/5 380/14/5 383/14/5
f 385/14/5 382/14/5 381/14/5
f 386/14/5 382/14/5 385/14/5
f 391/14/5 388/14/5 387/14/5
f 392/14/5 388/14/5 391/14/5
f 393/14/5 390/14/5 389/14/5
f 394/14/5 390/14/5 393/14/5
f 399/14/5 396/14/5 395/14/5
f 400/14/5 398/14/5 397/14/5
f 401/14/5 399/14/5 395/14/5
f 401/14/5 400/14/5 399/14/5
f 402/14/5 400/14/5 401/14/5
f 403/14/5 398/14/5 400/14/5
f 403/14/5 400/14/5 402/14/5
f 406/14/5 405/14/5 404/14/5
f 407/14/5 405/14/5 406/14/5
f 408/14/6 409/14/6 410/14/6
f 410/14/6 409/14/6 411/14/6
f 412/14/6 413/14/6 414/14/6
f 414/14/6 413/14/6 415/14/6
f 416/14/6 417/14/6 418/14/6
f 418/14/6 417/14/6 419/14/6
