# MagicaVoxel @ Ephtracy

# group
g gear-like-cart

# material
mtllib gear-like-cart.mtl
usemtl palette

# normals
vn -1 0 0
vn 1 0 0
vn 0 0 1
vn 0 0 -1
vn 0 -1 0
vn 0 1 0

# texcoords
vt 0.123047 0.5
vt 0.802734 0.5
vt 0.970703 0.5
vt 0.974609 0.5
vt 0.982422 0.5
vt 0.986328 0.5
vt 0.990234 0.5

# verts
v -20 0 1
v -20 0 -2
v -20 26 2
v -20 26 1
v -20 40 2
v -20 40 -2
v 9 2 1
v 9 2 -0
v 9 7 1
v 9 7 -0
v 14 33 2
v 14 33 1
v 14 35 2
v 14 35 1
v 16 32 2
v 16 32 -0
v 16 33 2
v 16 33 -0
v 18 10 1
v 18 10 -0
v 18 14 -0
v 18 26 2
v 18 26 1
v 18 32 2
v 18 32 -0
v 19 0 -0
v 19 0 -1
v 19 2 -0
v 19 2 -1
v -19 0 -0
v -19 0 -1
v -19 2 -0
v -19 2 -1
v -18 10 1
v -18 10 -0
v -18 26 2
v -18 26 1
v -18 32 2
v -18 32 -0
v -16 32 2
v -16 32 -0
v -16 33 2
v -16 33 -0
v -14 33 2
v -14 33 1
v -14 35 2
v -14 35 1
v -11 2 1
v -11 2 -0
v -11 7 1
v -11 7 -0
v 20 0 1
v 20 0 -2
v 20 26 2
v 20 26 1
v 20 40 2
v 20 40 -2
v -20 26 2
v -20 40 2
v -18 26 2
v -18 32 2
v -16 32 2
v -16 33 2
v -14 33 2
v -14 35 2
v 14 33 2
v 14 35 2
v 16 32 2
v 16 33 2
v 18 26 2
v 18 32 2
v 20 26 2
v 20 40 2
v -20 0 1
v -20 26 1
v -18 10 1
v -18 26 1
v -14 33 1
v -14 35 1
v -11 2 1
v -11 7 1
v 9 2 1
v 9 7 1
v 14 33 1
v 14 35 1
v 18 10 1
v 18 26 1
v 20 0 1
v 20 26 1
v -18 10 -0
v -18 32 -0
v -17 12 -0
v -17 13 -0
v -17 15 -0
v -17 17 -0
v -17 20 -0
v -17 21 -0
v -17 24 -0
v -17 25 -0
v -17 29 -0
v -17 30 -0
v -16 15 -0
v -16 17 -0
v -16 19 -0
v -16 22 -0
v -16 24 -0
v -16 25 -0
v -16 27 -0
v -16 29 -0
v -16 30 -0
v -16 32 -0
v -16 33 -0
v -15 11 -0
v -15 12 -0
v -15 13 -0
v -15 16 -0
v -15 17 -0
v -15 19 -0
v -15 22 -0
v -15 24 -0
v -15 26 -0
v -15 27 -0
v -15 29 -0
v -14 11 -0
v -14 12 -0
v -14 13 -0
v -14 16 -0
v -14 20 -0
v -14 21 -0
v -14 26 -0
v -14 27 -0
v -13 14 -0
v -13 33 -0
v -12 12 -0
v -12 13 -0
v -11 2 -0
v -11 7 -0
v -10 12 -0
v -10 13 -0
v -9 12 -0
v -9 13 -0
v -7 3 -0
v -7 4 -0
v -6 3 -0
v -6 4 -0
v -6 6 -0
v -5 4 -0
v -5 6 -0
v -5 12 -0
v -5 13 -0
v -4 5 -0
v -4 6 -0
v -3 3 -0
v -3 5 -0
v -3 6 -0
v -2 3 -0
v -2 5 -0
v -2 11 -0
v -2 12 -0
v -1 3 -0
v -1 6 -0
v -1 11 -0
v -1 12 -0
v -1 13 -0
v 0 4 -0
v 0 6 -0
v 1 3 -0
v 1 4 -0
v 1 12 -0
v 1 13 -0
v 2 3 -0
v 2 4 -0
v 2 11 -0
v 2 13 -0
v 3 3 -0
v 3 4 -0
v 3 6 -0
v 3 11 -0
v 3 13 -0
v 4 3 -0
v 4 4 -0
v 4 5 -0
v 4 6 -0
v 4 11 -0
v 4 13 -0
v 5 3 -0
v 5 5 -0
v 5 11 -0
v 5 13 -0
v 6 11 -0
v 6 13 -0
v 7 12 -0
v 7 13 -0
v 8 11 -0
v 8 12 -0
v 9 2 -0
v 9 7 -0
v 16 32 -0
v 16 33 -0
v 18 10 -0
v 18 14 -0
v 18 32 -0
v -19 0 -1
v -19 2 -1
v 19 0 -1
v 19 2 -1
v -19 0 -0
v -19 2 -0
v 19 0 -0
v 19 2 -0
v -20 0 -2
v -20 40 -2
v -18 10 -2
v -18 32 -2
v -16 32 -2
v -16 33 -2
v 16 32 -2
v 16 33 -2
v 18 10 -2
v 18 32 -2
v 20 0 -2
v 20 40 -2
v -20 0 1
v 20 0 1
v -19 0 -0
v 19 0 -0
v -19 0 -1
v 19 0 -1
v -20 0 -2
v 20 0 -2
v -19 2 -0
v 19 2 -0
v -19 2 -1
v 19 2 -1
v -11 7 1
v 9 7 1
v -11 7 -0
v 9 7 -0
v -20 26 2
v -18 26 2
v 18 26 2
v 20 26 2
v -20 26 1
v -18 26 1
v 18 26 1
v 20 26 1
v -18 32 2
v -16 32 2
v 16 32 2
v 18 32 2
v -18 32 -0
v -16 32 -0
v 16 32 -0
v 18 32 -0
v -16 33 2
v -14 33 2
v 14 33 2
v 16 33 2
v -14 33 1
v 14 33 1
v -16 33 -0
v -13 33 -0
v 16 33 -0
v -14 35 2
v 14 35 2
v -14 35 1
v 14 35 1
v -11 2 1
v 9 2 1
v -11 2 -0
v 9 2 -0
v -18 10 1
v 18 10 1
v -18 10 -0
v 18 10 -0
v -20 40 2
v 20 40 2
v -20 40 -2
v 20 40 -2

# faces
f 4/6/1 2/6/1 1/6/1
f 5/6/1 4/6/1 3/6/1
f 6/6/1 2/6/1 4/6/1
f 6/6/1 4/6/1 5/6/1
f 9/6/1 8/6/1 7/6/1
f 10/6/1 8/6/1 9/6/1
f 13/6/1 12/6/1 11/6/1
f 14/6/1 12/6/1 13/6/1
f 17/6/1 16/6/1 15/6/1
f 18/6/1 16/6/1 17/6/1
f 21/6/1 20/6/1 19/6/1
f 23/6/1 21/6/1 19/6/1
f 24/6/1 23/6/1 22/6/1
f 25/6/1 21/6/1 23/6/1
f 25/6/1 23/6/1 24/6/1
f 28/6/1 27/6/1 26/6/1
f 29/6/1 27/6/1 28/6/1
f 30/6/2 31/6/2 32/6/2
f 32/6/2 31/6/2 33/6/2
f 34/6/2 35/6/2 37/6/2
f 36/6/2 37/6/2 38/6/2
f 37/6/2 35/6/2 39/6/2
f 38/6/2 37/6/2 39/6/2
f 40/6/2 41/6/2 42/6/2
f 42/6/2 41/6/2 43/6/2
f 44/6/2 45/6/2 46/6/2
f 46/6/2 45/6/2 47/6/2
f 48/6/2 49/6/2 50/6/2
f 50/6/2 49/6/2 51/6/2
f 52/6/2 53/6/2 55/6/2
f 54/6/2 55/6/2 56/6/2
f 55/6/2 53/6/2 57/6/2
f 56/6/2 55/6/2 57/6/2
f 60/6/3 59/6/3 58/6/3
f 61/6/3 59/6/3 60/6/3
f 62/6/3 59/6/3 61/6/3
f 63/6/3 59/6/3 62/6/3
f 64/6/3 59/6/3 63/6/3
f 65/6/3 59/6/3 64/6/3
f 67/6/3 59/6/3 65/6/3
f 69/6/3 67/6/3 66/6/3
f 71/6/3 69/6/3 68/6/3
f 72/6/3 71/6/3 70/6/3
f 73/6/3 59/6/3 67/6/3
f 73/6/3 71/6/3 72/6/3
f 73/6/3 67/6/3 69/6/3
f 73/6/3 69/6/3 71/6/3
f 76/6/3 75/6/3 74/6/3
f 77/6/3 75/6/3 76/6/3
f 80/6/3 76/6/3 74/6/3
f 81/6/3 76/6/3 80/6/3
f 82/6/3 80/6/3 74/6/3
f 83/6/3 76/6/3 81/6/3
f 84/6/3 79/6/3 78/6/3
f 85/6/3 79/6/3 84/6/3
f 86/6/3 83/6/3 82/6/3
f 86/6/3 76/6/3 83/6/3
f 88/6/3 82/6/3 74/6/3
f 88/6/3 87/6/3 86/6/3
f 88/6/3 86/6/3 82/6/3
f 89/6/3 87/6/3 88/6/3
f 92/1/3 91/1/3 90/1/3
f 93/1/3 91/1/3 92/1/3
f 94/1/3 91/1/3 93/1/3
f 95/1/3 91/1/3 94/1/3
f 96/1/3 91/1/3 95/1/3
f 97/1/3 91/1/3 96/1/3
f 98/1/3 91/1/3 97/1/3
f 99/1/3 91/1/3 98/1/3
f 100/1/3 91/1/3 99/1/3
f 101/1/3 91/1/3 100/1/3
f 102/1/3 94/1/3 93/1/3
f 102/3/3 95/3/3 94/3/3
f 103/1/3 96/1/3 95/1/3
f 103/3/3 95/3/3 102/3/3
f 104/1/3 96/1/3 103/1/3
f 105/1/3 98/1/3 97/1/3
f 106/3/3 99/3/3 98/3/3
f 106/1/3 98/1/3 105/1/3
f 107/1/3 100/1/3 99/1/3
f 107/3/3 99/3/3 106/3/3
f 108/1/3 100/1/3 107/1/3
f 109/3/3 101/3/3 100/3/3
f 109/1/3 100/1/3 108/1/3
f 110/1/3 91/1/3 101/1/3
f 110/3/3 101/3/3 109/3/3
f 111/1/3 91/1/3 110/1/3
f 113/1/3 92/1/3 90/1/3
f 114/3/3 93/3/3 92/3/3
f 114/1/3 92/1/3 113/1/3
f 115/1/3 102/1/3 93/1/3
f 115/3/3 93/3/3 114/3/3
f 115/1/3 103/1/3 102/1/3
f 116/1/3 103/1/3 115/1/3
f 117/3/3 104/3/3 103/3/3
f 117/1/3 103/1/3 116/1/3
f 118/1/3 96/1/3 104/1/3
f 118/3/3 104/3/3 117/3/3
f 119/1/3 105/1/3 97/1/3
f 119/3/3 106/3/3 105/3/3
f 120/1/3 108/1/3 107/1/3
f 120/3/3 106/3/3 119/3/3
f 120/1/3 107/1/3 106/1/3
f 121/1/3 108/1/3 120/1/3
f 122/3/3 109/3/3 108/3/3
f 122/1/3 108/1/3 121/1/3
f 123/1/3 112/1/3 111/1/3
f 123/3/3 109/3/3 122/3/3
f 123/1/3 111/1/3 110/1/3
f 123/1/3 110/1/3 109/1/3
f 124/1/3 113/1/3 90/1/3
f 124/3/3 114/3/3 113/3/3
f 125/1/3 115/1/3 114/1/3
f 125/3/3 114/3/3 124/3/3
f 126/3/3 116/3/3 115/3/3
f 126/1/3 115/1/3 125/1/3
f 127/1/3 117/1/3 116/1/3
f 127/3/3 116/3/3 126/3/3
f 127/1/3 118/1/3 117/1/3
f 128/3/3 97/3/3 96/3/3
f 128/1/3 118/1/3 127/1/3
f 128/1/3 96/1/3 118/1/3
f 129/1/3 121/1/3 120/1/3
f 129/3/3 97/3/3 128/3/3
f 129/1/3 119/1/3 97/1/3
f 129/1/3 120/1/3 119/1/3
f 130/3/3 122/3/3 121/3/3
f 130/1/3 121/1/3 129/1/3
f 131/1/3 123/1/3 122/1/3
f 131/3/3 122/3/3 130/3/3
f 132/1/3 129/1/3 128/1/3
f 132/1/3 128/1/3 127/1/3
f 132/1/3 131/1/3 130/1/3
f 132/1/3 125/1/3 124/1/3
f 132/1/3 126/1/3 125/1/3
f 132/1/3 127/1/3 126/1/3
f 132/1/3 130/1/3 129/1/3
f 133/1/3 123/1/3 131/1/3
f 133/1/3 131/1/3 132/1/3
f 133/1/3 112/1/3 123/1/3
f 134/1/3 132/1/3 124/1/3
f 135/1/3 132/1/3 134/1/3
f 138/1/3 134/1/3 124/1/3
f 138/5/3 135/5/3 134/5/3
f 139/1/3 132/1/3 135/1/3
f 139/5/3 135/5/3 138/5/3
f 140/1/3 138/1/3 124/1/3
f 140/1/3 139/1/3 138/1/3
f 141/1/3 132/1/3 139/1/3
f 141/1/3 139/1/3 140/1/3
f 142/6/3 137/6/3 136/6/3
f 143/6/3 137/6/3 142/6/3
f 144/6/3 142/6/3 136/6/3
f 144/7/3 143/7/3 142/7/3
f 145/6/3 137/6/3 143/6/3
f 145/7/3 143/7/3 144/7/3
f 146/6/3 137/6/3 145/6/3
f 147/6/3 145/6/3 144/6/3
f 147/7/3 146/7/3 145/7/3
f 148/6/3 137/6/3 146/6/3
f 148/7/3 146/7/3 147/7/3
f 149/1/3 140/1/3 124/1/3
f 149/5/3 141/5/3 140/5/3
f 150/1/3 132/1/3 141/1/3
f 150/5/3 141/5/3 149/5/3
f 151/6/3 148/6/3 147/6/3
f 152/6/3 137/6/3 148/6/3
f 152/6/3 148/6/3 151/6/3
f 153/6/3 151/6/3 147/6/3
f 153/6/3 144/6/3 136/6/3
f 153/6/3 147/6/3 144/6/3
f 154/7/3 152/7/3 151/7/3
f 154/6/3 151/6/3 153/6/3
f 155/6/3 137/6/3 152/6/3
f 155/7/3 152/7/3 154/7/3
f 156/7/3 154/7/3 153/7/3
f 156/6/3 153/6/3 136/6/3
f 157/6/3 155/6/3 154/6/3
f 157/7/3 154/7/3 156/7/3
f 158/1/3 124/1/3 90/1/3
f 158/1/3 149/1/3 124/1/3
f 158/1/3 150/1/3 149/1/3
f 159/1/3 150/1/3 158/1/3
f 160/6/3 157/6/3 156/6/3
f 160/6/3 156/6/3 136/6/3
f 161/6/3 155/6/3 157/6/3
f 161/6/3 157/6/3 160/6/3
f 161/6/3 137/6/3 155/6/3
f 162/1/3 158/1/3 90/1/3
f 162/2/3 159/2/3 158/2/3
f 163/1/3 150/1/3 159/1/3
f 163/2/3 159/2/3 162/2/3
f 164/1/3 132/1/3 150/1/3
f 164/1/3 150/1/3 163/1/3
f 165/7/3 161/7/3 160/7/3
f 166/6/3 137/6/3 161/6/3
f 166/7/3 161/7/3 165/7/3
f 167/6/3 160/6/3 136/6/3
f 167/7/3 165/7/3 160/7/3
f 168/6/3 166/6/3 165/6/3
f 168/7/3 165/7/3 167/7/3
f 169/1/3 163/1/3 162/1/3
f 169/2/3 164/2/3 163/2/3
f 170/1/3 132/1/3 164/1/3
f 170/2/3 164/2/3 169/2/3
f 171/6/3 167/6/3 136/6/3
f 171/6/3 168/6/3 167/6/3
f 172/6/3 166/6/3 168/6/3
f 172/6/3 168/6/3 171/6/3
f 173/1/3 162/1/3 90/1/3
f 173/1/3 169/1/3 162/1/3
f 173/1/3 170/1/3 169/1/3
f 174/1/3 132/1/3 170/1/3
f 174/1/3 170/1/3 173/1/3
f 175/6/3 171/6/3 136/6/3
f 175/7/3 172/7/3 171/7/3
f 176/6/3 166/6/3 172/6/3
f 176/7/3 172/7/3 175/7/3
f 177/6/3 137/6/3 166/6/3
f 177/6/3 166/6/3 176/6/3
f 178/1/3 173/1/3 90/1/3
f 178/2/3 174/2/3 173/2/3
f 179/1/3 132/1/3 174/1/3
f 179/2/3 174/2/3 178/2/3
f 180/6/3 176/6/3 175/6/3
f 180/6/3 175/6/3 136/6/3
f 181/7/3 177/7/3 176/7/3
f 181/6/3 176/6/3 180/6/3
f 182/7/3 177/7/3 181/7/3
f 183/6/3 137/6/3 177/6/3
f 183/7/3 177/7/3 182/7/3
f 184/1/3 179/1/3 178/1/3
f 184/1/3 178/1/3 90/1/3
f 185/1/3 132/1/3 179/1/3
f 185/1/3 179/1/3 184/1/3
f 186/7/3 182/7/3 181/7/3
f 186/6/3 180/6/3 136/6/3
f 186/7/3 181/7/3 180/7/3
f 187/6/3 183/6/3 182/6/3
f 187/7/3 182/7/3 186/7/3
f 188/1/3 184/1/3 90/1/3
f 188/2/3 185/2/3 184/2/3
f 189/1/3 132/1/3 185/1/3
f 189/2/3 185/2/3 188/2/3
f 190/1/3 188/1/3 90/1/3
f 190/1/3 189/1/3 188/1/3
f 191/1/3 132/1/3 189/1/3
f 191/1/3 189/1/3 190/1/3
f 192/2/3 191/2/3 190/2/3
f 193/1/3 132/1/3 191/1/3
f 193/2/3 191/2/3 192/2/3
f 194/1/3 190/1/3 90/1/3
f 194/2/3 192/2/3 190/2/3
f 195/1/3 193/1/3 192/1/3
f 195/2/3 192/2/3 194/2/3
f 196/6/3 186/6/3 136/6/3
f 196/6/3 187/6/3 186/6/3
f 197/6/3 183/6/3 187/6/3
f 197/6/3 187/6/3 196/6/3
f 197/6/3 137/6/3 183/6/3
f 198/3/3 133/3/3 132/3/3
f 199/3/3 133/3/3 198/3/3
f 200/1/3 195/1/3 194/1/3
f 200/1/3 194/1/3 90/1/3
f 201/3/3 198/3/3 132/3/3
f 201/1/3 195/1/3 200/1/3
f 201/1/3 132/1/3 193/1/3
f 201/1/3 193/1/3 195/1/3
f 202/3/3 198/3/3 201/3/3
f 205/6/3 204/6/3 203/6/3
f 206/6/3 204/6/3 205/6/3
f 207/6/4 208/6/4 209/6/4
f 209/6/4 208/6/4 210/6/4
f 211/6/4 212/6/4 213/6/4
f 213/6/4 212/6/4 214/6/4
f 213/1/4 214/1/4 215/1/4
f 214/6/4 212/6/4 215/6/4
f 215/6/4 212/6/4 216/6/4
f 213/1/4 215/1/4 217/1/4
f 215/1/4 216/1/4 217/1/4
f 216/6/4 212/6/4 218/6/4
f 217/1/4 216/1/4 218/1/4
f 211/6/4 213/6/4 219/6/4
f 213/1/4 217/1/4 219/1/4
f 217/6/4 218/6/4 220/6/4
f 219/1/4 217/1/4 220/1/4
f 211/6/4 219/6/4 221/6/4
f 219/6/4 220/6/4 221/6/4
f 218/6/4 212/6/4 222/6/4
f 221/6/4 220/6/4 222/6/4
f 220/6/4 218/6/4 222/6/4
f 225/6/5 224/6/5 223/6/5
f 226/6/5 224/6/5 225/6/5
f 227/6/5 225/6/5 223/6/5
f 228/6/5 224/6/5 226/6/5
f 229/6/5 227/6/5 223/6/5
f 229/6/5 228/6/5 227/6/5
f 230/6/5 224/6/5 228/6/5
f 230/6/5 228/6/5 229/6/5
f 233/6/5 232/6/5 231/6/5
f 234/6/5 232/6/5 233/6/5
f 237/6/5 236/6/5 235/6/5
f 238/6/5 236/6/5 237/6/5
f 243/6/5 240/6/5 239/6/5
f 244/6/5 240/6/5 243/6/5
f 245/6/5 242/6/5 241/6/5
f 246/6/5 242/6/5 245/6/5
f 251/6/5 248/6/5 247/6/5
f 252/6/5 248/6/5 251/6/5
f 253/6/5 250/6/5 249/6/5
f 254/6/5 250/6/5 253/6/5
f 259/6/5 256/6/5 255/6/5
f 260/6/5 258/6/5 257/6/5
f 261/6/5 259/6/5 255/6/5
f 261/6/5 260/6/5 259/6/5
f 262/6/5 260/6/5 261/6/5
f 263/6/5 258/6/5 260/6/5
f 263/6/5 260/6/5 262/6/5
f 266/6/5 265/6/5 264/6/5
f 267/6/5 265/6/5 266/6/5
f 268/6/6 269/6/6 270/6/6
f 270/6/6 269/6/6 271/6/6
f 272/6/6 273/6/6 274/6/6
f 274/6/6 273/6/6 275/6/6
f 276/6/6 277/6/6 278/6/6
f 278/6/6 277/6/6 279/6/6
