# MagicaVoxel @ Ephtracy

# group
g generic-floppy

# material
mtllib generic-floppy.mtl
usemtl palette

# normals
vn -1 0 0
vn 1 0 0
vn 0 0 1
vn 0 0 -1
vn 0 -1 0
vn 0 1 0

# texcoords
vt 0.775391 0.5
vt 0.830078 0.5
vt 0.833984 0.5
vt 0.841797 0.5
vt 0.861328 0.5
vt 0.935547 0.5
vt 0.978516 0.5
vt 0.986328 0.5
vt 0.994141 0.5

# verts
v -15 0 1
v -15 0 -1
v -15 30 1
v -15 30 -1
v -12 27 1
v -12 27 -1
v -12 29 1
v -12 29 -1
v -4 0 1
v -4 0 -0
v -4 12 1
v -4 12 -0
v -14 27 1
v -14 27 -1
v -14 29 1
v -14 29 -1
v -10 0 1
v -10 0 -0
v -10 12 1
v -10 12 -0
v 15 0 1
v 15 0 -1
v 15 30 1
v 15 30 -1
v -15 0 1
v -15 30 1
v -14 27 1
v -14 29 1
v -12 27 1
v -12 29 1
v -10 0 1
v -10 12 1
v -10 16 1
v -10 30 1
v -9 18 1
v -9 19 1
v -9 22 1
v -9 23 1
v -8 18 1
v -8 19 1
v -8 22 1
v -8 23 1
v -8 24 1
v -8 25 1
v -8 28 1
v -8 29 1
v -7 22 1
v -7 23 1
v -7 24 1
v -7 25 1
v -7 28 1
v -7 29 1
v -6 17 1
v -6 18 1
v -6 19 1
v -6 21 1
v -6 22 1
v -5 17 1
v -5 18 1
v -5 19 1
v -5 21 1
v -5 22 1
v -4 0 1
v -4 12 1
v -4 18 1
v -4 19 1
v -4 24 1
v -4 25 1
v -4 28 1
v -4 29 1
v -3 21 1
v -3 22 1
v -3 23 1
v -3 24 1
v -3 25 1
v -3 28 1
v -3 29 1
v -2 19 1
v -2 20 1
v -2 21 1
v -2 24 1
v -2 25 1
v -2 28 1
v -2 29 1
v -1 19 1
v -1 20 1
v -1 21 1
v -1 22 1
v -1 23 1
v -1 24 1
v -1 25 1
v -1 28 1
v -1 29 1
v 0 17 1
v 0 19 1
v 0 21 1
v 0 22 1
v 1 17 1
v 1 19 1
v 1 21 1
v 1 22 1
v 2 19 1
v 2 20 1
v 2 21 1
v 2 22 1
v 2 23 1
v 2 24 1
v 2 25 1
v 2 28 1
v 2 29 1
v 3 19 1
v 3 20 1
v 3 21 1
v 3 24 1
v 3 25 1
v 3 28 1
v 3 29 1
v 4 21 1
v 4 22 1
v 4 23 1
v 4 24 1
v 4 25 1
v 4 28 1
v 4 29 1
v 5 18 1
v 5 19 1
v 5 24 1
v 5 25 1
v 5 28 1
v 5 29 1
v 6 2 1
v 6 10 1
v 6 17 1
v 6 18 1
v 6 19 1
v 6 21 1
v 6 22 1
v 7 17 1
v 7 18 1
v 7 19 1
v 7 21 1
v 7 22 1
v 8 22 1
v 8 23 1
v 8 24 1
v 8 25 1
v 8 28 1
v 8 29 1
v 9 18 1
v 9 19 1
v 9 22 1
v 9 23 1
v 9 24 1
v 9 25 1
v 9 28 1
v 9 29 1
v 10 2 1
v 10 10 1
v 10 18 1
v 10 19 1
v 10 22 1
v 10 23 1
v 11 16 1
v 11 30 1
v 12 0 1
v 12 12 1
v 15 0 1
v 15 30 1
v -10 0 -0
v -10 12 -0
v -4 0 -0
v -4 12 -0
v -15 0 -1
v -15 30 -1
v -14 27 -1
v -14 29 -1
v -12 27 -1
v -12 29 -1
v -10 26 -1
v -10 30 -1
v -4 0 -1
v -4 12 -1
v 6 2 -1
v 6 10 -1
v 10 2 -1
v 10 10 -1
v 11 26 -1
v 11 30 -1
v 12 0 -1
v 12 12 -1
v 15 0 -1
v 15 30 -1
v -15 0 1
v -10 0 1
v -4 0 1
v 12 0 1
v 15 0 1
v -10 0 -0
v -4 0 -0
v -15 0 -1
v -4 0 -1
v 12 0 -1
v 15 0 -1
v -10 12 1
v -4 12 1
v -10 12 -0
v -4 12 -0
v -14 29 1
v -12 29 1
v -14 29 -1
v -12 29 -1
v -14 27 1
v -12 27 1
v -14 27 -1
v -12 27 -1
v -15 30 1
v -10 30 1
v 11 30 1
v 15 30 1
v -15 30 -1
v -10 30 -1
v 11 30 -1
v 15 30 -1

# faces
f 3/6/1 2/6/1 1/6/1
f 4/6/1 2/6/1 3/6/1
f 7/6/1 6/6/1 5/6/1
f 8/6/1 6/6/1 7/6/1
f 11/7/1 10/7/1 9/7/1
f 12/7/1 10/7/1 11/7/1
f 13/6/2 14/6/2 15/6/2
f 15/6/2 14/6/2 16/6/2
f 17/6/2 18/6/2 19/6/2
f 19/6/2 18/6/2 20/6/2
f 21/6/2 22/6/2 23/6/2
f 23/6/2 22/6/2 24/6/2
f 27/6/3 26/6/3 25/6/3
f 28/6/3 26/6/3 27/6/3
f 29/6/3 27/6/3 25/6/3
f 30/6/3 26/6/3 28/6/3
f 31/6/3 29/6/3 25/6/3
f 31/6/3 30/6/3 29/6/3
f 32/6/3 30/6/3 31/6/3
f 33/6/3 30/6/3 32/6/3
f 34/6/3 26/6/3 30/6/3
f 34/6/3 30/6/3 33/6/3
f 35/9/3 34/9/3 33/9/3
f 36/9/3 34/9/3 35/9/3
f 37/9/3 34/9/3 36/9/3
f 38/9/3 34/9/3 37/9/3
f 39/9/3 35/9/3 33/9/3
f 39/1/3 36/1/3 35/1/3
f 40/2/3 37/2/3 36/2/3
f 40/1/3 36/1/3 39/1/3
f 41/1/3 38/1/3 37/1/3
f 41/2/3 37/2/3 40/2/3
f 42/9/3 34/9/3 38/9/3
f 42/1/3 38/1/3 41/1/3
f 43/9/3 34/9/3 42/9/3
f 44/9/3 34/9/3 43/9/3
f 45/9/3 34/9/3 44/9/3
f 46/9/3 34/9/3 45/9/3
f 47/9/3 41/9/3 40/9/3
f 47/2/3 42/2/3 41/2/3
f 48/9/3 43/9/3 42/9/3
f 48/2/3 42/2/3 47/2/3
f 49/4/3 44/4/3 43/4/3
f 49/9/3 43/9/3 48/9/3
f 50/5/3 45/5/3 44/5/3
f 50/4/3 44/4/3 49/4/3
f 51/4/3 46/4/3 45/4/3
f 51/5/3 45/5/3 50/5/3
f 52/9/3 34/9/3 46/9/3
f 52/4/3 46/4/3 51/4/3
f 53/9/3 39/9/3 33/9/3
f 54/2/3 40/2/3 39/2/3
f 54/9/3 39/9/3 53/9/3
f 55/9/3 47/9/3 40/9/3
f 55/2/3 40/2/3 54/2/3
f 55/9/3 48/9/3 47/9/3
f 55/9/3 49/9/3 48/9/3
f 56/9/3 49/9/3 55/9/3
f 57/9/3 49/9/3 56/9/3
f 58/9/3 53/9/3 33/9/3
f 58/2/3 54/2/3 53/2/3
f 59/1/3 55/1/3 54/1/3
f 59/2/3 54/2/3 58/2/3
f 60/2/3 56/2/3 55/2/3
f 60/1/3 55/1/3 59/1/3
f 61/1/3 57/1/3 56/1/3
f 61/2/3 56/2/3 60/2/3
f 62/9/3 49/9/3 57/9/3
f 62/1/3 57/1/3 61/1/3
f 64/6/3 33/6/3 32/6/3
f 65/2/3 60/2/3 59/2/3
f 65/9/3 59/9/3 58/9/3
f 66/9/3 61/9/3 60/9/3
f 66/2/3 60/2/3 65/2/3
f 67/9/3 49/9/3 62/9/3
f 67/5/3 50/5/3 49/5/3
f 68/8/3 51/8/3 50/8/3
f 68/5/3 50/5/3 67/5/3
f 69/5/3 52/5/3 51/5/3
f 69/8/3 51/8/3 68/8/3
f 70/9/3 34/9/3 52/9/3
f 70/5/3 52/5/3 69/5/3
f 71/9/3 61/9/3 66/9/3
f 71/9/3 66/9/3 65/9/3
f 71/2/3 62/2/3 61/2/3
f 72/9/3 67/9/3 62/9/3
f 72/2/3 62/2/3 71/2/3
f 73/9/3 67/9/3 72/9/3
f 74/4/3 68/4/3 67/4/3
f 74/9/3 67/9/3 73/9/3
f 75/5/3 69/5/3 68/5/3
f 75/4/3 68/4/3 74/4/3
f 76/4/3 70/4/3 69/4/3
f 76/5/3 69/5/3 75/5/3
f 77/9/3 34/9/3 70/9/3
f 77/4/3 70/4/3 76/4/3
f 78/9/3 71/9/3 65/9/3
f 79/9/3 71/9/3 78/9/3
f 80/3/3 73/3/3 72/3/3
f 80/9/3 71/9/3 79/9/3
f 80/3/3 72/3/3 71/3/3
f 81/9/3 76/9/3 75/9/3
f 81/9/3 74/9/3 73/9/3
f 81/9/3 75/9/3 74/9/3
f 81/9/3 77/9/3 76/9/3
f 82/9/3 77/9/3 81/9/3
f 83/9/3 77/9/3 82/9/3
f 84/9/3 34/9/3 77/9/3
f 84/9/3 77/9/3 83/9/3
f 85/9/3 78/9/3 65/9/3
f 85/3/3 79/3/3 78/3/3
f 86/2/3 80/2/3 79/2/3
f 86/3/3 79/3/3 85/3/3
f 87/3/3 73/3/3 80/3/3
f 87/2/3 80/2/3 86/2/3
f 88/3/3 73/3/3 87/3/3
f 89/9/3 81/9/3 73/9/3
f 89/3/3 73/3/3 88/3/3
f 90/4/3 82/4/3 81/4/3
f 90/9/3 81/9/3 89/9/3
f 91/5/3 83/5/3 82/5/3
f 91/4/3 82/4/3 90/4/3
f 92/4/3 84/4/3 83/4/3
f 92/5/3 83/5/3 91/5/3
f 93/9/3 34/9/3 84/9/3
f 93/4/3 84/4/3 92/4/3
f 94/9/3 65/9/3 58/9/3
f 94/9/3 85/9/3 65/9/3
f 94/9/3 58/9/3 33/9/3
f 95/2/3 86/2/3 85/2/3
f 95/9/3 85/9/3 94/9/3
f 95/2/3 87/2/3 86/2/3
f 95/2/3 88/2/3 87/2/3
f 96/2/3 88/2/3 95/2/3
f 97/9/3 90/9/3 89/9/3
f 97/2/3 88/2/3 96/2/3
f 97/9/3 89/9/3 88/9/3
f 98/9/3 94/9/3 33/9/3
f 98/3/3 95/3/3 94/3/3
f 99/2/3 96/2/3 95/2/3
f 99/3/3 95/3/3 98/3/3
f 100/9/3 97/9/3 96/9/3
f 100/2/3 96/2/3 99/2/3
f 101/9/3 90/9/3 97/9/3
f 101/9/3 97/9/3 100/9/3
f 102/2/3 100/2/3 99/2/3
f 102/9/3 99/9/3 98/9/3
f 102/2/3 101/2/3 100/2/3
f 103/2/3 101/2/3 102/2/3
f 104/2/3 101/2/3 103/2/3
f 105/9/3 90/9/3 101/9/3
f 105/2/3 101/2/3 104/2/3
f 106/9/3 90/9/3 105/9/3
f 107/5/3 91/5/3 90/5/3
f 107/9/3 90/9/3 106/9/3
f 108/8/3 92/8/3 91/8/3
f 108/5/3 91/5/3 107/5/3
f 109/5/3 93/5/3 92/5/3
f 109/8/3 92/8/3 108/8/3
f 110/9/3 34/9/3 93/9/3
f 110/5/3 93/5/3 109/5/3
f 111/9/3 102/9/3 98/9/3
f 111/3/3 103/3/3 102/3/3
f 112/2/3 104/2/3 103/2/3
f 112/3/3 103/3/3 111/3/3
f 113/3/3 106/3/3 105/3/3
f 113/2/3 104/2/3 112/2/3
f 113/3/3 105/3/3 104/3/3
f 114/4/3 108/4/3 107/4/3
f 114/9/3 107/9/3 106/9/3
f 115/5/3 109/5/3 108/5/3
f 115/4/3 108/4/3 114/4/3
f 116/4/3 110/4/3 109/4/3
f 116/5/3 109/5/3 115/5/3
f 117/9/3 34/9/3 110/9/3
f 117/4/3 110/4/3 116/4/3
f 118/3/3 106/3/3 113/3/3
f 118/9/3 113/9/3 112/9/3
f 118/9/3 112/9/3 111/9/3
f 119/3/3 106/3/3 118/3/3
f 120/9/3 114/9/3 106/9/3
f 120/3/3 106/3/3 119/3/3
f 120/9/3 117/9/3 116/9/3
f 120/9/3 115/9/3 114/9/3
f 120/9/3 116/9/3 115/9/3
f 121/9/3 117/9/3 120/9/3
f 122/9/3 117/9/3 121/9/3
f 123/9/3 117/9/3 122/9/3
f 124/9/3 34/9/3 117/9/3
f 124/9/3 117/9/3 123/9/3
f 125/9/3 111/9/3 98/9/3
f 125/9/3 118/9/3 111/9/3
f 126/9/3 118/9/3 125/9/3
f 127/9/3 120/9/3 119/9/3
f 127/9/3 121/9/3 120/9/3
f 127/4/3 122/4/3 121/4/3
f 128/5/3 123/5/3 122/5/3
f 128/4/3 122/4/3 127/4/3
f 129/4/3 124/4/3 123/4/3
f 129/5/3 123/5/3 128/5/3
f 130/9/3 34/9/3 124/9/3
f 130/4/3 124/4/3 129/4/3
f 131/7/3 64/7/3 63/7/3
f 132/7/3 64/7/3 131/7/3
f 133/9/3 98/9/3 33/9/3
f 133/9/3 125/9/3 98/9/3
f 134/2/3 126/2/3 125/2/3
f 134/9/3 125/9/3 133/9/3
f 135/9/3 118/9/3 126/9/3
f 135/2/3 126/2/3 134/2/3
f 136/2/3 119/2/3 118/2/3
f 136/9/3 118/9/3 135/9/3
f 137/9/3 127/9/3 119/9/3
f 137/2/3 119/2/3 136/2/3
f 138/2/3 134/2/3 133/2/3
f 138/9/3 133/9/3 33/9/3
f 139/1/3 135/1/3 134/1/3
f 139/2/3 134/2/3 138/2/3
f 140/2/3 136/2/3 135/2/3
f 140/1/3 135/1/3 139/1/3
f 141/1/3 137/1/3 136/1/3
f 141/2/3 136/2/3 140/2/3
f 142/9/3 127/9/3 137/9/3
f 142/1/3 137/1/3 141/1/3
f 143/9/3 141/9/3 140/9/3
f 143/9/3 127/9/3 142/9/3
f 143/9/3 142/9/3 141/9/3
f 144/9/3 127/9/3 143/9/3
f 145/5/3 128/5/3 127/5/3
f 145/9/3 127/9/3 144/9/3
f 146/8/3 129/8/3 128/8/3
f 146/5/3 128/5/3 145/5/3
f 147/5/3 130/5/3 129/5/3
f 147/8/3 129/8/3 146/8/3
f 148/9/3 34/9/3 130/9/3
f 148/5/3 130/5/3 147/5/3
f 149/9/3 139/9/3 138/9/3
f 149/2/3 140/2/3 139/2/3
f 150/9/3 143/9/3 140/9/3
f 150/2/3 140/2/3 149/2/3
f 151/2/3 144/2/3 143/2/3
f 151/9/3 143/9/3 150/9/3
f 152/9/3 145/9/3 144/9/3
f 152/2/3 144/2/3 151/2/3
f 153/4/3 146/4/3 145/4/3
f 153/9/3 145/9/3 152/9/3
f 154/5/3 147/5/3 146/5/3
f 154/4/3 146/4/3 153/4/3
f 155/4/3 148/4/3 147/4/3
f 155/5/3 147/5/3 154/5/3
f 156/9/3 34/9/3 148/9/3
f 156/4/3 148/4/3 155/4/3
f 157/7/3 131/7/3 63/7/3
f 157/6/3 132/6/3 131/6/3
f 158/7/3 64/7/3 132/7/3
f 158/6/3 132/6/3 157/6/3
f 159/1/3 150/1/3 149/1/3
f 159/9/3 149/9/3 138/9/3
f 160/2/3 151/2/3 150/2/3
f 160/1/3 150/1/3 159/1/3
f 161/1/3 152/1/3 151/1/3
f 161/2/3 151/2/3 160/2/3
f 162/9/3 155/9/3 154/9/3
f 162/1/3 152/1/3 161/1/3
f 162/9/3 153/9/3 152/9/3
f 162/9/3 154/9/3 153/9/3
f 162/9/3 156/9/3 155/9/3
f 163/9/3 159/9/3 138/9/3
f 163/9/3 138/9/3 33/9/3
f 163/9/3 162/9/3 161/9/3
f 163/9/3 160/9/3 159/9/3
f 163/9/3 161/9/3 160/9/3
f 163/6/3 33/6/3 64/6/3
f 164/9/3 156/9/3 162/9/3
f 164/9/3 162/9/3 163/9/3
f 164/9/3 34/9/3 156/9/3
f 165/7/3 157/7/3 63/7/3
f 165/7/3 158/7/3 157/7/3
f 166/6/3 163/6/3 64/6/3
f 166/7/3 158/7/3 165/7/3
f 166/6/3 164/6/3 163/6/3
f 166/7/3 64/7/3 158/7/3
f 167/6/3 166/6/3 165/6/3
f 168/6/3 164/6/3 166/6/3
f 168/6/3 166/6/3 167/6/3
f 171/6/3 170/6/3 169/6/3
f 172/6/3 170/6/3 171/6/3
f 173/6/4 174/6/4 175/6/4
f 175/6/4 174/6/4 176/6/4
f 173/6/4 175/6/4 177/6/4
f 176/6/4 174/6/4 178/6/4
f 173/6/4 177/6/4 179/6/4
f 177/6/4 178/6/4 179/6/4
f 178/6/4 174/6/4 180/6/4
f 179/6/4 178/6/4 180/6/4
f 173/6/4 179/6/4 181/6/4
f 181/6/4 179/6/4 182/6/4
f 181/7/4 182/7/4 183/7/4
f 183/7/4 182/7/4 184/7/4
f 181/7/4 183/7/4 185/7/4
f 183/6/4 184/6/4 185/6/4
f 184/7/4 182/7/4 186/7/4
f 185/6/4 184/6/4 186/6/4
f 179/9/4 180/9/4 187/9/4
f 182/6/4 179/6/4 187/6/4
f 187/9/4 180/9/4 188/9/4
f 185/7/4 186/7/4 189/7/4
f 181/7/4 185/7/4 189/7/4
f 186/7/4 182/7/4 190/7/4
f 189/7/4 186/7/4 190/7/4
f 187/6/4 188/6/4 190/6/4
f 182/6/4 187/6/4 190/6/4
f 189/6/4 190/6/4 191/6/4
f 190/6/4 188/6/4 192/6/4
f 191/6/4 190/6/4 192/6/4
f 198/6/5 194/6/5 193/6/5
f 199/7/5 196/7/5 195/7/5
f 200/6/5 198/6/5 193/6/5
f 200/6/5 199/6/5 198/6/5
f 201/7/5 196/7/5 199/7/5
f 201/6/5 199/6/5 200/6/5
f 202/6/5 197/6/5 196/6/5
f 202/7/5 196/7/5 201/7/5
f 203/6/5 197/6/5 202/6/5
f 206/6/5 205/6/5 204/6/5
f 207/6/5 205/6/5 206/6/5
f 210/6/5 209/6/5 208/6/5
f 211/6/5 209/6/5 210/6/5
f 212/6/6 213/6/6 214/6/6
f 214/6/6 213/6/6 215/6/6
f 216/6/6 217/6/6 220/6/6
f 217/9/6 218/9/6 221/9/6
f 220/6/6 217/6/6 221/6/6
f 218/6/6 219/6/6 222/6/6
f 221/9/6 218/9/6 222/9/6
f 222/6/6 219/6/6 223/6/6
