# MagicaVoxel @ Ephtracy

# group
g generic-floppy

# material
mtllib generic-floppy.mtl
usemtl palette

# normals
vn -1 0 0
vn 1 0 0
vn 0 0 1
vn 0 0 -1
vn 0 -1 0
vn 0 1 0

# texcoords
vt 0.935547 0.5
vt 0.970703 0.5
vt 0.978516 0.5

# verts
v -15 0 1
v -15 0 -1
v -15 30 1
v -15 30 -1
v -12 27 1
v -12 27 -1
v -12 29 1
v -12 29 -1
v -4 0 1
v -4 0 -0
v -4 12 1
v -4 12 -0
v -14 27 1
v -14 27 -1
v -14 29 1
v -14 29 -1
v -10 0 1
v -10 0 -0
v -10 12 1
v -10 12 -0
v 15 0 1
v 15 0 -1
v 15 30 1
v 15 30 -1
v -15 0 1
v -15 30 1
v -14 27 1
v -14 29 1
v -12 27 1
v -12 29 1
v -10 0 1
v -10 12 1
v -10 16 1
v -10 30 1
v -4 0 1
v -4 12 1
v 6 2 1
v 6 10 1
v 10 2 1
v 10 10 1
v 11 16 1
v 11 30 1
v 12 0 1
v 12 12 1
v 15 0 1
v 15 30 1
v -10 0 -0
v -10 12 -0
v -4 0 -0
v -4 12 -0
v -15 0 -1
v -15 30 -1
v -14 27 -1
v -14 29 -1
v -12 27 -1
v -12 29 -1
v -10 26 -1
v -10 30 -1
v -4 0 -1
v -4 12 -1
v 6 2 -1
v 6 10 -1
v 10 2 -1
v 10 10 -1
v 11 26 -1
v 11 30 -1
v 12 0 -1
v 12 12 -1
v 15 0 -1
v 15 30 -1
v -15 0 1
v -10 0 1
v -4 0 1
v 12 0 1
v 15 0 1
v -10 0 -0
v -4 0 -0
v -15 0 -1
v -4 0 -1
v 12 0 -1
v 15 0 -1
v -10 12 1
v -4 12 1
v -10 12 -0
v -4 12 -0
v -14 29 1
v -12 29 1
v -14 29 -1
v -12 29 -1
v -14 27 1
v -12 27 1
v -14 27 -1
v -12 27 -1
v -15 30 1
v -10 30 1
v 11 30 1
v 15 30 1
v -15 30 -1
v -10 30 -1
v 11 30 -1
v 15 30 -1

# faces
f 3/1/1 2/1/1 1/1/1
f 4/1/1 2/1/1 3/1/1
f 7/1/1 6/1/1 5/1/1
f 8/1/1 6/1/1 7/1/1
f 11/3/1 10/3/1 9/3/1
f 12/3/1 10/3/1 11/3/1
f 13/1/2 14/1/2 15/1/2
f 15/1/2 14/1/2 16/1/2
f 17/1/2 18/1/2 19/1/2
f 19/1/2 18/1/2 20/1/2
f 21/1/2 22/1/2 23/1/2
f 23/1/2 22/1/2 24/1/2
f 27/1/3 26/1/3 25/1/3
f 28/1/3 26/1/3 27/1/3
f 29/1/3 27/1/3 25/1/3
f 30/1/3 26/1/3 28/1/3
f 31/1/3 29/1/3 25/1/3
f 31/1/3 30/1/3 29/1/3
f 32/1/3 30/1/3 31/1/3
f 33/1/3 30/1/3 32/1/3
f 34/1/3 26/1/3 30/1/3
f 34/1/3 30/1/3 33/1/3
f 36/1/3 33/1/3 32/1/3
f 37/3/3 36/3/3 35/3/3
f 38/3/3 36/3/3 37/3/3
f 39/3/3 37/3/3 35/3/3
f 39/1/3 38/1/3 37/1/3
f 40/3/3 36/3/3 38/3/3
f 40/1/3 38/1/3 39/1/3
f 41/2/3 34/2/3 33/2/3
f 41/1/3 33/1/3 36/1/3
f 42/2/3 34/2/3 41/2/3
f 43/3/3 40/3/3 39/3/3
f 43/3/3 39/3/3 35/3/3
f 44/3/3 36/3/3 40/3/3
f 44/3/3 40/3/3 43/3/3
f 44/1/3 42/1/3 41/1/3
f 44/1/3 41/1/3 36/1/3
f 45/1/3 44/1/3 43/1/3
f 46/1/3 42/1/3 44/1/3
f 46/1/3 44/1/3 45/1/3
f 49/1/3 48/1/3 47/1/3
f 50/1/3 48/1/3 49/1/3
f 51/1/4 52/1/4 53/1/4
f 53/1/4 52/1/4 54/1/4
f 51/1/4 53/1/4 55/1/4
f 54/1/4 52/1/4 56/1/4
f 51/1/4 55/1/4 57/1/4
f 55/1/4 56/1/4 57/1/4
f 56/1/4 52/1/4 58/1/4
f 57/1/4 56/1/4 58/1/4
f 51/1/4 57/1/4 59/1/4
f 59/1/4 57/1/4 60/1/4
f 59/3/4 60/3/4 61/3/4
f 61/3/4 60/3/4 62/3/4
f 59/3/4 61/3/4 63/3/4
f 61/1/4 62/1/4 63/1/4
f 62/3/4 60/3/4 64/3/4
f 63/1/4 62/1/4 64/1/4
f 57/2/4 58/2/4 65/2/4
f 60/1/4 57/1/4 65/1/4
f 65/2/4 58/2/4 66/2/4
f 63/3/4 64/3/4 67/3/4
f 59/3/4 63/3/4 67/3/4
f 64/3/4 60/3/4 68/3/4
f 67/3/4 64/3/4 68/3/4
f 65/1/4 66/1/4 68/1/4
f 60/1/4 65/1/4 68/1/4
f 67/1/4 68/1/4 69/1/4
f 68/1/4 66/1/4 70/1/4
f 69/1/4 68/1/4 70/1/4
f 76/1/5 72/1/5 71/1/5
f 77/3/5 74/3/5 73/3/5
f 78/1/5 76/1/5 71/1/5
f 78/1/5 77/1/5 76/1/5
f 79/3/5 74/3/5 77/3/5
f 79/1/5 77/1/5 78/1/5
f 80/1/5 75/1/5 74/1/5
f 80/3/5 74/3/5 79/3/5
f 81/1/5 75/1/5 80/1/5
f 84/1/5 83/1/5 82/1/5
f 85/1/5 83/1/5 84/1/5
f 88/1/5 87/1/5 86/1/5
f 89/1/5 87/1/5 88/1/5
f 90/1/6 91/1/6 92/1/6
f 92/1/6 91/1/6 93/1/6
f 94/1/6 95/1/6 98/1/6
f 95/2/6 96/2/6 99/2/6
f 98/1/6 95/1/6 99/1/6
f 96/1/6 97/1/6 100/1/6
f 99/2/6 96/2/6 100/2/6
f 100/1/6 97/1/6 101/1/6
