# MagicaVoxel @ Ephtracy

# group
g micro-sd

# material
mtllib micro-sd.mtl
usemtl palette

# normals
vn -1 0 0
vn 1 0 0
vn 0 0 1
vn 0 0 -1
vn 0 -1 0
vn 0 1 0

# texcoords
vt 0.0214844 0.5
vt 0.978516 0.5
vt 0.982422 0.5
vt 0.990234 0.5

# verts
v -8.5 0 1
v -8.5 0 -1
v -8.5 1 1
v -8.5 1 -0
v -8.5 7 -0
v -8.5 7 -1
v -8.5 10 -0
v -8.5 10 -1
v -8.5 12 -0
v -8.5 12 -1
v -7.5 7 -0
v -7.5 7 -1
v -7.5 8 -0
v -7.5 8 -1
v -7.5 12 -0
v -7.5 12 -1
v -7.5 13 -0
v -7.5 13 -1
v -6.5 8 -0
v -6.5 8 -1
v -6.5 10 -0
v -6.5 10 -1
v -6.5 13 -0
v -6.5 13 -1
v -6.5 25 -0
v -6.5 25 -1
v 8.5 0 1
v 8.5 0 -1
v 8.5 1 1
v 8.5 1 -0
v 8.5 25 -0
v 8.5 25 -1
v -8.5 0 1
v -8.5 1 1
v 8.5 0 1
v 8.5 1 1
v -8.5 1 -0
v -8.5 7 -0
v -8.5 10 -0
v -8.5 12 -0
v -7.5 7 -0
v -7.5 8 -0
v -7.5 12 -0
v -7.5 13 -0
v -6.5 8 -0
v -6.5 10 -0
v -6.5 13 -0
v -6.5 25 -0
v -5.5 17 -0
v -5.5 24 -0
v -4.5 3 -0
v -4.5 5 -0
v -4.5 6 -0
v -4.5 8 -0
v -4.5 9 -0
v -4.5 10 -0
v -4.5 11 -0
v -4.5 12 -0
v -4.5 13 -0
v -4.5 14 -0
v -4.5 17 -0
v -4.5 24 -0
v -3.5 4 -0
v -3.5 5 -0
v -3.5 6 -0
v -3.5 7 -0
v -3.5 8 -0
v -3.5 9 -0
v -3.5 10 -0
v -3.5 11 -0
v -3.5 12 -0
v -3.5 13 -0
v -3.5 14 -0
v -3.5 15 -0
v -3.5 17 -0
v -3.5 24 -0
v -2.5 3 -0
v -2.5 4 -0
v -2.5 5 -0
v -2.5 6 -0
v -2.5 7 -0
v -2.5 8 -0
v -2.5 9 -0
v -2.5 11 -0
v -2.5 12 -0
v -2.5 13 -0
v -2.5 14 -0
v -2.5 15 -0
v -2.5 17 -0
v -2.5 24 -0
v -1.5 17 -0
v -1.5 24 -0
v -0.5 5 -0
v -0.5 6 -0
v -0.5 7 -0
v -0.5 8 -0
v -0.5 9 -0
v -0.5 17 -0
v -0.5 24 -0
v 0.5 5 -0
v 0.5 6 -0
v 0.5 7 -0
v 0.5 8 -0
v 0.5 9 -0
v 0.5 10 -0
v 0.5 17 -0
v 0.5 24 -0
v 1.5 5 -0
v 1.5 6 -0
v 1.5 9 -0
v 1.5 10 -0
v 1.5 17 -0
v 1.5 24 -0
v 2.5 5 -0
v 2.5 6 -0
v 2.5 7 -0
v 2.5 8 -0
v 2.5 9 -0
v 2.5 10 -0
v 2.5 12 -0
v 2.5 14 -0
v 2.5 17 -0
v 2.5 24 -0
v 3.5 5 -0
v 3.5 6 -0
v 3.5 7 -0
v 3.5 8 -0
v 3.5 9 -0
v 3.5 10 -0
v 3.5 12 -0
v 3.5 13 -0
v 3.5 14 -0
v 3.5 17 -0
v 3.5 24 -0
v 4.5 6 -0
v 4.5 7 -0
v 4.5 8 -0
v 4.5 9 -0
v 4.5 13 -0
v 4.5 14 -0
v 4.5 17 -0
v 4.5 24 -0
v 5.5 17 -0
v 5.5 24 -0
v 6.5 2 -0
v 6.5 3 -0
v 6.5 4 -0
v 6.5 17 -0
v 6.5 24 -0
v 7.5 2 -0
v 7.5 3 -0
v 7.5 4 -0
v 7.5 17 -0
v 7.5 24 -0
v 8.5 1 -0
v 8.5 25 -0
v -8.5 0 -1
v -8.5 7 -1
v -8.5 10 -1
v -8.5 12 -1
v -7.5 7 -1
v -7.5 8 -1
v -7.5 12 -1
v -7.5 13 -1
v -6.5 8 -1
v -6.5 10 -1
v -6.5 13 -1
v -6.5 25 -1
v -5.5 17 -1
v -5.5 24 -1
v -4.5 3 -1
v -4.5 5 -1
v -4.5 6 -1
v -4.5 8 -1
v -4.5 9 -1
v -4.5 10 -1
v -4.5 11 -1
v -4.5 12 -1
v -4.5 13 -1
v -4.5 14 -1
v -4.5 17 -1
v -4.5 24 -1
v -3.5 4 -1
v -3.5 5 -1
v -3.5 6 -1
v -3.5 7 -1
v -3.5 8 -1
v -3.5 9 -1
v -3.5 10 -1
v -3.5 11 -1
v -3.5 12 -1
v -3.5 13 -1
v -3.5 14 -1
v -3.5 15 -1
v -3.5 17 -1
v -3.5 24 -1
v -2.5 3 -1
v -2.5 4 -1
v -2.5 5 -1
v -2.5 6 -1
v -2.5 7 -1
v -2.5 8 -1
v -2.5 9 -1
v -2.5 11 -1
v -2.5 12 -1
v -2.5 13 -1
v -2.5 14 -1
v -2.5 15 -1
v -2.5 17 -1
v -2.5 24 -1
v -1.5 17 -1
v -1.5 24 -1
v -0.5 5 -1
v -0.5 6 -1
v -0.5 7 -1
v -0.5 8 -1
v -0.5 9 -1
v -0.5 17 -1
v -0.5 24 -1
v 0.5 5 -1
v 0.5 6 -1
v 0.5 7 -1
v 0.5 8 -1
v 0.5 9 -1
v 0.5 10 -1
v 0.5 17 -1
v 0.5 24 -1
v 1.5 5 -1
v 1.5 6 -1
v 1.5 9 -1
v 1.5 10 -1
v 1.5 17 -1
v 1.5 24 -1
v 2.5 5 -1
v 2.5 6 -1
v 2.5 7 -1
v 2.5 8 -1
v 2.5 9 -1
v 2.5 10 -1
v 2.5 12 -1
v 2.5 14 -1
v 2.5 17 -1
v 2.5 24 -1
v 3.5 5 -1
v 3.5 6 -1
v 3.5 7 -1
v 3.5 8 -1
v 3.5 9 -1
v 3.5 10 -1
v 3.5 12 -1
v 3.5 13 -1
v 3.5 14 -1
v 3.5 17 -1
v 3.5 24 -1
v 4.5 6 -1
v 4.5 7 -1
v 4.5 8 -1
v 4.5 9 -1
v 4.5 13 -1
v 4.5 14 -1
v 4.5 17 -1
v 4.5 24 -1
v 5.5 17 -1
v 5.5 24 -1
v 6.5 2 -1
v 6.5 3 -1
v 6.5 4 -1
v 6.5 17 -1
v 6.5 24 -1
v 7.5 2 -1
v 7.5 3 -1
v 7.5 4 -1
v 7.5 17 -1
v 7.5 24 -1
v 8.5 0 -1
v 8.5 25 -1
v -8.5 0 1
v 8.5 0 1
v -8.5 0 -1
v 8.5 0 -1
v -8.5 10 -0
v -6.5 10 -0
v -8.5 10 -1
v -6.5 10 -1
v -8.5 1 1
v 8.5 1 1
v -8.5 1 -0
v 8.5 1 -0
v -8.5 7 -0
v -7.5 7 -0
v -8.5 7 -1
v -7.5 7 -1
v -7.5 8 -0
v -6.5 8 -0
v -7.5 8 -1
v -6.5 8 -1
v -8.5 12 -0
v -7.5 12 -0
v -8.5 12 -1
v -7.5 12 -1
v -7.5 13 -0
v -6.5 13 -0
v -7.5 13 -1
v -6.5 13 -1
v -6.5 25 -0
v 8.5 25 -0
v -6.5 25 -1
v 8.5 25 -1

# faces
f 3/4/1 2/4/1 1/4/1
f 4/4/1 2/4/1 3/4/1
f 5/4/1 2/4/1 4/4/1
f 6/4/1 2/4/1 5/4/1
f 9/4/1 8/4/1 7/4/1
f 10/4/1 8/4/1 9/4/1
f 13/4/1 12/4/1 11/4/1
f 14/4/1 12/4/1 13/4/1
f 17/4/1 16/4/1 15/4/1
f 18/4/1 16/4/1 17/4/1
f 21/4/1 20/4/1 19/4/1
f 22/4/1 20/4/1 21/4/1
f 25/4/1 24/4/1 23/4/1
f 26/4/1 24/4/1 25/4/1
f 27/4/2 28/4/2 29/4/2
f 29/4/2 28/4/2 30/4/2
f 30/4/2 28/4/2 31/4/2
f 31/4/2 28/4/2 32/4/2
f 35/4/3 34/4/3 33/4/3
f 36/4/3 34/4/3 35/4/3
f 41/4/3 38/4/3 37/4/3
f 43/4/3 40/4/3 39/4/3
f 45/4/3 42/4/3 41/4/3
f 46/4/3 44/4/3 43/4/3
f 46/4/3 43/4/3 39/4/3
f 47/4/3 44/4/3 46/4/3
f 49/4/3 46/4/3 45/4/3
f 49/4/3 48/4/3 47/4/3
f 49/4/3 47/4/3 46/4/3
f 50/4/3 48/4/3 49/4/3
f 51/4/3 45/4/3 41/4/3
f 51/4/3 41/4/3 37/4/3
f 51/4/3 49/4/3 45/4/3
f 52/4/3 49/4/3 51/4/3
f 53/4/3 49/4/3 52/4/3
f 54/4/3 49/4/3 53/4/3
f 55/4/3 49/4/3 54/4/3
f 56/4/3 49/4/3 55/4/3
f 57/4/3 49/4/3 56/4/3
f 58/4/3 49/4/3 57/4/3
f 59/4/3 49/4/3 58/4/3
f 60/4/3 49/4/3 59/4/3
f 61/1/3 50/1/3 49/1/3
f 61/4/3 49/4/3 60/4/3
f 62/4/3 48/4/3 50/4/3
f 62/1/3 50/1/3 61/1/3
f 63/2/3 52/2/3 51/2/3
f 64/4/3 53/4/3 52/4/3
f 64/2/3 52/2/3 63/2/3
f 65/2/3 54/2/3 53/2/3
f 65/4/3 53/4/3 64/4/3
f 66/2/3 54/2/3 65/2/3
f 67/4/3 55/4/3 54/4/3
f 67/2/3 54/2/3 66/2/3
f 68/2/3 56/2/3 55/2/3
f 68/4/3 55/4/3 67/4/3
f 69/3/3 57/3/3 56/3/3
f 69/2/3 56/2/3 68/2/3
f 70/2/3 58/2/3 57/2/3
f 70/3/3 57/3/3 69/3/3
f 71/3/3 59/3/3 58/3/3
f 71/2/3 58/2/3 70/2/3
f 72/2/3 60/2/3 59/2/3
f 72/3/3 59/3/3 71/3/3
f 73/4/3 61/4/3 60/4/3
f 73/2/3 60/2/3 72/2/3
f 73/4/3 62/4/3 61/4/3
f 74/4/3 62/4/3 73/4/3
f 75/4/3 62/4/3 74/4/3
f 76/4/3 48/4/3 62/4/3
f 76/4/3 62/4/3 75/4/3
f 77/4/3 51/4/3 37/4/3
f 77/2/3 63/2/3 51/2/3
f 78/4/3 64/4/3 63/4/3
f 78/2/3 63/2/3 77/2/3
f 79/2/3 65/2/3 64/2/3
f 79/4/3 64/4/3 78/4/3
f 80/3/3 66/3/3 65/3/3
f 80/2/3 65/2/3 79/2/3
f 81/2/3 67/2/3 66/2/3
f 81/3/3 66/3/3 80/3/3
f 82/3/3 68/3/3 67/3/3
f 82/2/3 67/2/3 81/2/3
f 83/2/3 69/2/3 68/2/3
f 83/3/3 68/3/3 82/3/3
f 83/2/3 70/2/3 69/2/3
f 84/3/3 71/3/3 70/3/3
f 84/2/3 70/2/3 83/2/3
f 85/4/3 72/4/3 71/4/3
f 85/3/3 71/3/3 84/3/3
f 86/2/3 73/2/3 72/2/3
f 86/4/3 72/4/3 85/4/3
f 87/3/3 74/3/3 73/3/3
f 87/2/3 73/2/3 86/2/3
f 88/4/3 75/4/3 74/4/3
f 88/3/3 74/3/3 87/3/3
f 89/1/3 76/1/3 75/1/3
f 89/4/3 75/4/3 88/4/3
f 90/4/3 48/4/3 76/4/3
f 90/1/3 76/1/3 89/1/3
f 91/4/3 84/4/3 83/4/3
f 91/4/3 83/4/3 82/4/3
f 91/4/3 90/4/3 89/4/3
f 91/4/3 85/4/3 84/4/3
f 91/4/3 78/4/3 77/4/3
f 91/4/3 86/4/3 85/4/3
f 91/4/3 82/4/3 81/4/3
f 91/4/3 81/4/3 80/4/3
f 91/4/3 80/4/3 79/4/3
f 91/4/3 79/4/3 78/4/3
f 91/4/3 89/4/3 88/4/3
f 91/4/3 88/4/3 87/4/3
f 91/4/3 87/4/3 86/4/3
f 92/4/3 48/4/3 90/4/3
f 92/4/3 90/4/3 91/4/3
f 93/4/3 91/4/3 77/4/3
f 94/4/3 91/4/3 93/4/3
f 95/4/3 91/4/3 94/4/3
f 96/4/3 91/4/3 95/4/3
f 97/4/3 91/4/3 96/4/3
f 98/1/3 92/1/3 91/1/3
f 98/4/3 91/4/3 97/4/3
f 99/4/3 48/4/3 92/4/3
f 99/1/3 92/1/3 98/1/3
f 100/4/3 93/4/3 77/4/3
f 100/2/3 94/2/3 93/2/3
f 101/4/3 95/4/3 94/4/3
f 101/2/3 94/2/3 100/2/3
f 102/2/3 96/2/3 95/2/3
f 102/4/3 95/4/3 101/4/3
f 103/3/3 97/3/3 96/3/3
f 103/2/3 96/2/3 102/2/3
f 104/4/3 98/4/3 97/4/3
f 104/3/3 97/3/3 103/3/3
f 104/4/3 99/4/3 98/4/3
f 105/4/3 99/4/3 104/4/3
f 106/4/3 99/4/3 105/4/3
f 107/4/3 48/4/3 99/4/3
f 107/4/3 99/4/3 106/4/3
f 108/3/3 102/3/3 101/3/3
f 108/3/3 101/3/3 100/3/3
f 108/4/3 100/4/3 77/4/3
f 109/3/3 102/3/3 108/3/3
f 110/2/3 103/2/3 102/2/3
f 110/2/3 105/2/3 104/2/3
f 110/2/3 104/2/3 103/2/3
f 111/4/3 106/4/3 105/4/3
f 111/2/3 105/2/3 110/2/3
f 112/1/3 107/1/3 106/1/3
f 112/4/3 106/4/3 111/4/3
f 113/4/3 48/4/3 107/4/3
f 113/1/3 107/1/3 112/1/3
f 114/4/3 109/4/3 108/4/3
f 114/4/3 108/4/3 77/4/3
f 115/3/3 102/3/3 109/3/3
f 115/4/3 109/4/3 114/4/3
f 116/2/3 110/2/3 102/2/3
f 116/3/3 102/3/3 115/3/3
f 117/2/3 110/2/3 116/2/3
f 118/4/3 112/4/3 111/4/3
f 118/2/3 110/2/3 117/2/3
f 118/4/3 111/4/3 110/4/3
f 118/4/3 113/4/3 112/4/3
f 119/4/3 113/4/3 118/4/3
f 120/4/3 113/4/3 119/4/3
f 121/4/3 113/4/3 120/4/3
f 122/4/3 113/4/3 121/4/3
f 123/4/3 48/4/3 113/4/3
f 123/4/3 113/4/3 122/4/3
f 124/4/3 114/4/3 77/4/3
f 124/2/3 117/2/3 116/2/3
f 124/2/3 115/2/3 114/2/3
f 124/2/3 116/2/3 115/2/3
f 125/2/3 117/2/3 124/2/3
f 126/2/3 117/2/3 125/2/3
f 127/4/3 118/4/3 117/4/3
f 127/2/3 117/2/3 126/2/3
f 128/3/3 119/3/3 118/3/3
f 128/4/3 118/4/3 127/4/3
f 129/4/3 120/4/3 119/4/3
f 129/3/3 119/3/3 128/3/3
f 130/2/3 121/2/3 120/2/3
f 130/4/3 120/4/3 129/4/3
f 131/2/3 121/2/3 130/2/3
f 132/4/3 122/4/3 121/4/3
f 132/2/3 121/2/3 131/2/3
f 133/1/3 123/1/3 122/1/3
f 133/4/3 122/4/3 132/4/3
f 134/4/3 48/4/3 123/4/3
f 134/1/3 123/1/3 133/1/3
f 135/3/3 126/3/3 125/3/3
f 135/4/3 125/4/3 124/4/3
f 136/4/3 127/4/3 126/4/3
f 136/3/3 126/3/3 135/3/3
f 137/3/3 128/3/3 127/3/3
f 137/4/3 127/4/3 136/4/3
f 138/4/3 129/4/3 128/4/3
f 138/3/3 128/3/3 137/3/3
f 138/4/3 131/4/3 130/4/3
f 138/4/3 130/4/3 129/4/3
f 139/3/3 132/3/3 131/3/3
f 139/4/3 131/4/3 138/4/3
f 140/4/3 133/4/3 132/4/3
f 140/3/3 132/3/3 139/3/3
f 140/4/3 134/4/3 133/4/3
f 141/4/3 134/4/3 140/4/3
f 142/4/3 48/4/3 134/4/3
f 142/4/3 134/4/3 141/4/3
f 143/4/3 139/4/3 138/4/3
f 143/4/3 138/4/3 137/4/3
f 143/1/3 142/1/3 141/1/3
f 143/4/3 140/4/3 139/4/3
f 143/4/3 137/4/3 136/4/3
f 143/4/3 141/4/3 140/4/3
f 143/4/3 136/4/3 135/4/3
f 144/4/3 48/4/3 142/4/3
f 144/1/3 142/1/3 143/1/3
f 145/4/3 143/4/3 135/4/3
f 145/4/3 77/4/3 37/4/3
f 145/4/3 144/4/3 143/4/3
f 145/4/3 124/4/3 77/4/3
f 145/4/3 135/4/3 124/4/3
f 146/4/3 144/4/3 145/4/3
f 147/4/3 144/4/3 146/4/3
f 148/4/3 144/4/3 147/4/3
f 149/4/3 48/4/3 144/4/3
f 149/4/3 144/4/3 148/4/3
f 150/4/3 145/4/3 37/4/3
f 150/2/3 146/2/3 145/2/3
f 151/3/3 147/3/3 146/3/3
f 151/2/3 146/2/3 150/2/3
f 152/4/3 148/4/3 147/4/3
f 152/3/3 147/3/3 151/3/3
f 153/1/3 149/1/3 148/1/3
f 153/4/3 148/4/3 152/4/3
f 154/4/3 48/4/3 149/4/3
f 154/1/3 149/1/3 153/1/3
f 155/4/3 151/4/3 150/4/3
f 155/4/3 153/4/3 152/4/3
f 155/4/3 154/4/3 153/4/3
f 155/4/3 150/4/3 37/4/3
f 155/4/3 152/4/3 151/4/3
f 156/4/3 48/4/3 154/4/3
f 156/4/3 154/4/3 155/4/3
f 157/4/4 158/4/4 161/4/4
f 159/4/4 160/4/4 163/4/4
f 161/4/4 162/4/4 165/4/4
f 163/4/4 164/4/4 166/4/4
f 159/4/4 163/4/4 166/4/4
f 166/4/4 164/4/4 167/4/4
f 165/4/4 166/4/4 169/4/4
f 167/4/4 168/4/4 169/4/4
f 166/4/4 167/4/4 169/4/4
f 169/4/4 168/4/4 170/4/4
f 161/4/4 165/4/4 171/4/4
f 157/4/4 161/4/4 171/4/4
f 165/4/4 169/4/4 171/4/4
f 171/4/4 169/4/4 172/4/4
f 172/4/4 169/4/4 173/4/4
f 173/4/4 169/4/4 174/4/4
f 174/4/4 169/4/4 175/4/4
f 175/4/4 169/4/4 176/4/4
f 176/4/4 169/4/4 177/4/4
f 177/4/4 169/4/4 178/4/4
f 178/4/4 169/4/4 179/4/4
f 179/4/4 169/4/4 180/4/4
f 169/1/4 170/1/4 181/1/4
f 180/4/4 169/4/4 181/4/4
f 170/4/4 168/4/4 182/4/4
f 181/1/4 170/1/4 182/1/4
f 171/2/4 172/2/4 183/2/4
f 172/4/4 173/4/4 184/4/4
f 183/2/4 172/2/4 184/2/4
f 173/2/4 174/2/4 185/2/4
f 184/4/4 173/4/4 185/4/4
f 185/2/4 174/2/4 186/2/4
f 174/4/4 175/4/4 187/4/4
f 186/2/4 174/2/4 187/2/4
f 175/2/4 176/2/4 188/2/4
f 187/4/4 175/4/4 188/4/4
f 176/3/4 177/3/4 189/3/4
f 188/2/4 176/2/4 189/2/4
f 177/2/4 178/2/4 190/2/4
f 189/3/4 177/3/4 190/3/4
f 178/3/4 179/3/4 191/3/4
f 190/2/4 178/2/4 191/2/4
f 179/2/4 180/2/4 192/2/4
f 191/3/4 179/3/4 192/3/4
f 180/4/4 181/4/4 193/4/4
f 192/2/4 180/2/4 193/2/4
f 181/4/4 182/4/4 193/4/4
f 193/4/4 182/4/4 194/4/4
f 194/4/4 182/4/4 195/4/4
f 182/4/4 168/4/4 196/4/4
f 195/4/4 182/4/4 196/4/4
f 157/4/4 171/4/4 197/4/4
f 171/2/4 183/2/4 197/2/4
f 183/4/4 184/4/4 198/4/4
f 197/2/4 183/2/4 198/2/4
f 184/2/4 185/2/4 199/2/4
f 198/4/4 184/4/4 199/4/4
f 185/3/4 186/3/4 200/3/4
f 199/2/4 185/2/4 200/2/4
f 186/2/4 187/2/4 201/2/4
f 200/3/4 186/3/4 201/3/4
f 187/3/4 188/3/4 202/3/4
f 201/2/4 187/2/4 202/2/4
f 188/2/4 189/2/4 203/2/4
f 202/3/4 188/3/4 203/3/4
f 189/2/4 190/2/4 203/2/4
f 190/3/4 191/3/4 204/3/4
f 203/2/4 190/2/4 204/2/4
f 191/4/4 192/4/4 205/4/4
f 204/3/4 191/3/4 205/3/4
f 192/2/4 193/2/4 206/2/4
f 205/4/4 192/4/4 206/4/4
f 193/3/4 194/3/4 207/3/4
f 206/2/4 193/2/4 207/2/4
f 194/4/4 195/4/4 208/4/4
f 207/3/4 194/3/4 208/3/4
f 195/1/4 196/1/4 209/1/4
f 208/4/4 195/4/4 209/4/4
f 196/4/4 168/4/4 210/4/4
f 209/1/4 196/1/4 210/1/4
f 203/4/4 204/4/4 211/4/4
f 202/4/4 203/4/4 211/4/4
f 209/4/4 210/4/4 211/4/4
f 204/4/4 205/4/4 211/4/4
f 197/4/4 198/4/4 211/4/4
f 205/4/4 206/4/4 211/4/4
f 201/4/4 202/4/4 211/4/4
f 200/4/4 201/4/4 211/4/4
f 199/4/4 200/4/4 211/4/4
f 198/4/4 199/4/4 211/4/4
f 208/4/4 209/4/4 211/4/4
f 207/4/4 208/4/4 211/4/4
f 206/4/4 207/4/4 211/4/4
f 210/4/4 168/4/4 212/4/4
f 211/4/4 210/4/4 212/4/4
f 197/4/4 211/4/4 213/4/4
f 213/4/4 211/4/4 214/4/4
f 214/4/4 211/4/4 215/4/4
f 215/4/4 211/4/4 216/4/4
f 216/4/4 211/4/4 217/4/4
f 211/1/4 212/1/4 218/1/4
f 217/4/4 211/4/4 218/4/4
f 212/4/4 168/4/4 219/4/4
f 218/1/4 212/1/4 219/1/4
f 197/4/4 213/4/4 220/4/4
f 213/2/4 214/2/4 220/2/4
f 214/4/4 215/4/4 221/4/4
f 220/2/4 214/2/4 221/2/4
f 215/2/4 216/2/4 222/2/4
f 221/4/4 215/4/4 222/4/4
f 216/3/4 217/3/4 223/3/4
f 222/2/4 216/2/4 223/2/4
f 217/4/4 218/4/4 224/4/4
f 223/3/4 217/3/4 224/3/4
f 218/4/4 219/4/4 224/4/4
f 224/4/4 219/4/4 225/4/4
f 225/4/4 219/4/4 226/4/4
f 219/4/4 168/4/4 227/4/4
f 226/4/4 219/4/4 227/4/4
f 221/3/4 222/3/4 228/3/4
f 220/3/4 221/3/4 228/3/4
f 197/4/4 220/4/4 228/4/4
f 228/3/4 222/3/4 229/3/4
f 222/2/4 223/2/4 230/2/4
f 224/2/4 225/2/4 230/2/4
f 223/2/4 224/2/4 230/2/4
f 225/4/4 226/4/4 231/4/4
f 230/2/4 225/2/4 231/2/4
f 226/1/4 227/1/4 232/1/4
f 231/4/4 226/4/4 232/4/4
f 227/4/4 168/4/4 233/4/4
f 232/1/4 227/1/4 233/1/4
f 228/4/4 229/4/4 234/4/4
f 197/4/4 228/4/4 234/4/4
f 229/3/4 222/3/4 235/3/4
f 234/4/4 229/4/4 235/4/4
f 222/2/4 230/2/4 236/2/4
f 235/3/4 222/3/4 236/3/4
f 236/2/4 230/2/4 237/2/4
f 231/4/4 232/4/4 238/4/4
f 237/2/4 230/2/4 238/2/4
f 230/4/4 231/4/4 238/4/4
f 232/4/4 233/4/4 238/4/4
f 238/4/4 233/4/4 239/4/4
f 239/4/4 233/4/4 240/4/4
f 240/4/4 233/4/4 241/4/4
f 241/4/4 233/4/4 242/4/4
f 233/4/4 168/4/4 243/4/4
f 242/4/4 233/4/4 243/4/4
f 197/4/4 234/4/4 244/4/4
f 236/2/4 237/2/4 244/2/4
f 234/2/4 235/2/4 244/2/4
f 235/2/4 236/2/4 244/2/4
f 244/2/4 237/2/4 245/2/4
f 245/2/4 237/2/4 246/2/4
f 237/4/4 238/4/4 247/4/4
f 246/2/4 237/2/4 247/2/4
f 238/3/4 239/3/4 248/3/4
f 247/4/4 238/4/4 248/4/4
f 239/4/4 240/4/4 249/4/4
f 248/3/4 239/3/4 249/3/4
f 240/2/4 241/2/4 250/2/4
f 249/4/4 240/4/4 250/4/4
f 250/2/4 241/2/4 251/2/4
f 241/4/4 242/4/4 252/4/4
f 251/2/4 241/2/4 252/2/4
f 242/1/4 243/1/4 253/1/4
f 252/4/4 242/4/4 253/4/4
f 243/4/4 168/4/4 254/4/4
f 253/1/4 243/1/4 254/1/4
f 245/3/4 246/3/4 255/3/4
f 244/4/4 245/4/4 255/4/4
f 246/4/4 247/4/4 256/4/4
f 255/3/4 246/3/4 256/3/4
f 247/3/4 248/3/4 257/3/4
f 256/4/4 247/4/4 257/4/4
f 248/4/4 249/4/4 258/4/4
f 257/3/4 248/3/4 258/3/4
f 250/4/4 251/4/4 258/4/4
f 249/4/4 250/4/4 258/4/4
f 251/3/4 252/3/4 259/3/4
f 258/4/4 251/4/4 259/4/4
f 252/4/4 253/4/4 260/4/4
f 259/3/4 252/3/4 260/3/4
f 253/4/4 254/4/4 260/4/4
f 260/4/4 254/4/4 261/4/4
f 254/4/4 168/4/4 262/4/4
f 261/4/4 254/4/4 262/4/4
f 258/4/4 259/4/4 263/4/4
f 257/4/4 258/4/4 263/4/4
f 261/1/4 262/1/4 263/1/4
f 259/4/4 260/4/4 263/4/4
f 256/4/4 257/4/4 263/4/4
f 260/4/4 261/4/4 263/4/4
f 255/4/4 256/4/4 263/4/4
f 262/4/4 168/4/4 264/4/4
f 263/1/4 262/1/4 264/1/4
f 255/4/4 263/4/4 265/4/4
f 157/4/4 197/4/4 265/4/4
f 263/4/4 264/4/4 265/4/4
f 197/4/4 244/4/4 265/4/4
f 244/4/4 255/4/4 265/4/4
f 265/4/4 264/4/4 266/4/4
f 266/4/4 264/4/4 267/4/4
f 267/4/4 264/4/4 268/4/4
f 264/4/4 168/4/4 269/4/4
f 268/4/4 264/4/4 269/4/4
f 157/4/4 265/4/4 270/4/4
f 265/2/4 266/2/4 270/2/4
f 266/3/4 267/3/4 271/3/4
f 270/2/4 266/2/4 271/2/4
f 267/4/4 268/4/4 272/4/4
f 271/3/4 267/3/4 272/3/4
f 268/1/4 269/1/4 273/1/4
f 272/4/4 268/4/4 273/4/4
f 269/4/4 168/4/4 274/4/4
f 273/1/4 269/1/4 274/1/4
f 270/4/4 271/4/4 275/4/4
f 272/4/4 273/4/4 275/4/4
f 273/4/4 274/4/4 275/4/4
f 157/4/4 270/4/4 275/4/4
f 271/4/4 272/4/4 275/4/4
f 274/4/4 168/4/4 276/4/4
f 275/4/4 274/4/4 276/4/4
f 279/4/5 278/4/5 277/4/5
f 280/4/5 278/4/5 279/4/5
f 283/4/5 282/4/5 281/4/5
f 284/4/5 282/4/5 283/4/5
f 285/4/6 286/4/6 287/4/6
f 287/4/6 286/4/6 288/4/6
f 289/4/6 290/4/6 291/4/6
f 291/4/6 290/4/6 292/4/6
f 293/4/6 294/4/6 295/4/6
f 295/4/6 294/4/6 296/4/6
f 297/4/6 298/4/6 299/4/6
f 299/4/6 298/4/6 300/4/6
f 301/4/6 302/4/6 303/4/6
f 303/4/6 302/4/6 304/4/6
f 305/4/6 306/4/6 307/4/6
f 307/4/6 306/4/6 308/4/6
