# MagicaVoxel @ Ephtracy

# group
g Mansion_Hallway

# material
mtllib Mansion_Hallway.mtl
usemtl palette

# normals
vn -1 0 0
vn 1 0 0
vn 0 0 1
vn 0 0 -1
vn 0 -1 0
vn 0 1 0

# texcoords
vt 0.537109 0.5

# verts
v 2 0 8
v 2 0 -12
v 2 5 8
v 2 5 -12
v 6 1 7
v 6 1 5
v 6 1 4
v 6 1 -8
v 6 4 5
v 6 4 4
v 6 5 7
v 6 5 -8
v 3 1 7
v 3 1 -11
v 3 5 7
v 3 5 -11
v 7 0 8
v 7 0 7
v 7 0 2
v 7 0 -7
v 7 1 6
v 7 1 5
v 7 1 4
v 7 1 3
v 7 4 5
v 7 4 4
v 7 5 8
v 7 5 7
v 7 5 6
v 7 5 3
v 7 5 2
v 7 5 -7
v 20 0 7
v 20 0 2
v 20 0 -7
v 20 0 -12
v 20 1 6
v 20 1 3
v 20 1 -8
v 20 1 -11
v 20 5 7
v 20 5 6
v 20 5 3
v 20 5 2
v 20 5 -7
v 20 5 -8
v 20 5 -11
v 20 5 -12
v 2 0 8
v 2 5 8
v 7 0 8
v 7 5 8
v 7 0 7
v 7 5 7
v 20 0 7
v 20 5 7
v 6 1 4
v 6 4 4
v 7 1 4
v 7 4 4
v 7 1 3
v 7 5 3
v 20 1 3
v 20 5 3
v 7 0 -7
v 7 5 -7
v 20 0 -7
v 20 5 -7
v 3 1 -11
v 3 5 -11
v 20 1 -11
v 20 5 -11
v 3 1 7
v 3 5 7
v 6 1 7
v 6 5 7
v 7 1 6
v 7 5 6
v 20 1 6
v 20 5 6
v 6 1 5
v 6 4 5
v 7 1 5
v 7 4 5
v 7 0 2
v 7 5 2
v 20 0 2
v 20 5 2
v 6 1 -8
v 6 5 -8
v 20 1 -8
v 20 5 -8
v 2 0 -12
v 2 5 -12
v 20 0 -12
v 20 5 -12
v 2 0 8
v 7 0 8
v 7 0 7
v 20 0 7
v 7 0 2
v 20 0 2
v 7 0 -7
v 20 0 -7
v 2 0 -12
v 20 0 -12
v 6 4 5
v 7 4 5
v 6 4 4
v 7 4 4
v 3 1 7
v 6 1 7
v 7 1 6
v 20 1 6
v 6 1 5
v 7 1 5
v 6 1 4
v 7 1 4
v 7 1 3
v 20 1 3
v 6 1 -8
v 20 1 -8
v 3 1 -11
v 20 1 -11
v 2 5 8
v 7 5 8
v 3 5 7
v 6 5 7
v 7 5 7
v 20 5 7
v 7 5 6
v 20 5 6
v 7 5 3
v 20 5 3
v 7 5 2
v 20 5 2
v 7 5 -7
v 20 5 -7
v 6 5 -8
v 20 5 -8
v 3 5 -11
v 20 5 -11
v 2 5 -12
v 20 5 -12

# faces
f 3/1/1 2/1/1 1/1/1
f 4/1/1 2/1/1 3/1/1
f 9/1/1 6/1/1 5/1/1
f 10/1/1 8/1/1 7/1/1
f 11/1/1 9/1/1 5/1/1
f 11/1/1 10/1/1 9/1/1
f 12/1/1 8/1/1 10/1/1
f 12/1/1 10/1/1 11/1/1
f 13/1/2 14/1/2 15/1/2
f 15/1/2 14/1/2 16/1/2
f 21/1/2 22/1/2 25/1/2
f 23/1/2 24/1/2 26/1/2
f 17/1/2 18/1/2 27/1/2
f 27/1/2 18/1/2 28/1/2
f 25/1/2 26/1/2 29/1/2
f 21/1/2 25/1/2 29/1/2
f 26/1/2 24/1/2 30/1/2
f 29/1/2 26/1/2 30/1/2
f 19/1/2 20/1/2 31/1/2
f 31/1/2 20/1/2 32/1/2
f 33/1/2 34/1/2 37/1/2
f 37/1/2 34/1/2 38/1/2
f 35/1/2 36/1/2 39/1/2
f 39/1/2 36/1/2 40/1/2
f 33/1/2 37/1/2 41/1/2
f 41/1/2 37/1/2 42/1/2
f 38/1/2 34/1/2 43/1/2
f 43/1/2 34/1/2 44/1/2
f 35/1/2 39/1/2 45/1/2
f 45/1/2 39/1/2 46/1/2
f 40/1/2 36/1/2 47/1/2
f 47/1/2 36/1/2 48/1/2
f 51/1/3 50/1/3 49/1/3
f 52/1/3 50/1/3 51/1/3
f 55/1/3 54/1/3 53/1/3
f 56/1/3 54/1/3 55/1/3
f 59/1/3 58/1/3 57/1/3
f 60/1/3 58/1/3 59/1/3
f 63/1/3 62/1/3 61/1/3
f 64/1/3 62/1/3 63/1/3
f 67/1/3 66/1/3 65/1/3
f 68/1/3 66/1/3 67/1/3
f 71/1/3 70/1/3 69/1/3
f 72/1/3 70/1/3 71/1/3
f 73/1/4 74/1/4 75/1/4
f 75/1/4 74/1/4 76/1/4
f 77/1/4 78/1/4 79/1/4
f 79/1/4 78/1/4 80/1/4
f 81/1/4 82/1/4 83/1/4
f 83/1/4 82/1/4 84/1/4
f 85/1/4 86/1/4 87/1/4
f 87/1/4 86/1/4 88/1/4
f 89/1/4 90/1/4 91/1/4
f 91/1/4 90/1/4 92/1/4
f 93/1/4 94/1/4 95/1/4
f 95/1/4 94/1/4 96/1/4
f 99/1/5 98/1/5 97/1/5
f 101/1/5 99/1/5 97/1/5
f 101/1/5 100/1/5 99/1/5
f 102/1/5 100/1/5 101/1/5
f 103/1/5 101/1/5 97/1/5
f 105/1/5 103/1/5 97/1/5
f 105/1/5 104/1/5 103/1/5
f 106/1/5 104/1/5 105/1/5
f 109/1/5 108/1/5 107/1/5
f 110/1/5 108/1/5 109/1/5
f 111/1/6 112/1/6 115/1/6
f 113/1/6 114/1/6 116/1/6
f 111/1/6 115/1/6 117/1/6
f 115/1/6 116/1/6 117/1/6
f 116/1/6 114/1/6 118/1/6
f 117/1/6 116/1/6 118/1/6
f 118/1/6 114/1/6 119/1/6
f 119/1/6 114/1/6 120/1/6
f 111/1/6 117/1/6 121/1/6
f 111/1/6 121/1/6 123/1/6
f 121/1/6 122/1/6 123/1/6
f 123/1/6 122/1/6 124/1/6
f 125/1/6 126/1/6 127/1/6
f 127/1/6 126/1/6 128/1/6
f 128/1/6 126/1/6 129/1/6
f 129/1/6 130/1/6 131/1/6
f 128/1/6 129/1/6 131/1/6
f 131/1/6 130/1/6 132/1/6
f 128/1/6 131/1/6 133/1/6
f 128/1/6 133/1/6 135/1/6
f 133/1/6 134/1/6 135/1/6
f 135/1/6 134/1/6 136/1/6
f 128/1/6 135/1/6 137/1/6
f 128/1/6 137/1/6 139/1/6
f 137/1/6 138/1/6 139/1/6
f 139/1/6 138/1/6 140/1/6
f 125/1/6 127/1/6 141/1/6
f 125/1/6 141/1/6 143/1/6
f 141/1/6 142/1/6 143/1/6
f 143/1/6 142/1/6 144/1/6
