# MagicaVoxel @ Ephtracy

# group
g sliding_door_red_switch

# material
mtllib sliding_door_red_switch.mtl
usemtl palette

# normals
vn -1 0 0
vn 1 0 0
vn 0 0 1
vn 0 0 -1
vn 0 -1 0
vn 0 1 0

# texcoords
vt 0.982422 0.5
vt 0.986328 0.5
vt 0.990234 0.5

# verts
v -6 2 2
v -6 2 -1
v -6 14 2
v -6 14 -1
v -5 0 2
v -5 0 -1
v -5 2 2
v -5 2 -1
v -5 14 2
v -5 14 -1
v -5 16 2
v -5 16 -1
v 4 1 2
v 4 1 1
v 4 2 2
v 4 2 1
v 4 14 2
v 4 14 1
v 4 15 2
v 4 15 1
v 5 2 2
v 5 2 1
v 5 14 2
v 5 14 1
v -5 2 2
v -5 2 1
v -5 14 2
v -5 14 1
v -4 1 2
v -4 1 1
v -4 2 2
v -4 2 1
v -4 14 2
v -4 14 1
v -4 15 2
v -4 15 1
v 5 0 2
v 5 0 -1
v 5 2 2
v 5 2 -1
v 5 14 2
v 5 14 -1
v 5 16 2
v 5 16 -1
v 6 2 2
v 6 2 -1
v 6 14 2
v 6 14 -1
v -6 2 2
v -6 14 2
v -5 0 2
v -5 2 2
v -5 14 2
v -5 16 2
v -4 1 2
v -4 2 2
v -4 14 2
v -4 15 2
v 4 1 2
v 4 2 2
v 4 14 2
v 4 15 2
v 5 0 2
v 5 2 2
v 5 14 2
v 5 16 2
v 6 2 2
v 6 14 2
v -5 2 1
v -5 14 1
v -4 1 1
v -4 2 1
v -4 3 1
v -4 13 1
v -4 14 1
v -4 15 1
v -3 2 1
v -3 3 1
v -3 13 1
v -3 14 1
v 3 2 1
v 3 3 1
v 3 13 1
v 3 14 1
v 4 1 1
v 4 2 1
v 4 3 1
v 4 13 1
v 4 14 1
v 4 15 1
v 5 2 1
v 5 14 1
v -6 2 -1
v -6 14 -1
v -5 0 -1
v -5 2 -1
v -5 14 -1
v -5 16 -1
v 5 0 -1
v 5 2 -1
v 5 14 -1
v 5 16 -1
v 6 2 -1
v 6 14 -1
v -5 0 2
v 5 0 2
v -5 0 -1
v 5 0 -1
v -6 2 2
v -5 2 2
v 5 2 2
v 6 2 2
v -6 2 -1
v -5 2 -1
v 5 2 -1
v 6 2 -1
v -5 14 2
v -4 14 2
v 4 14 2
v 5 14 2
v -5 14 1
v -4 14 1
v 4 14 1
v 5 14 1
v -4 15 2
v 4 15 2
v -4 15 1
v 4 15 1
v -4 1 2
v 4 1 2
v -4 1 1
v 4 1 1
v -5 2 2
v -4 2 2
v 4 2 2
v 5 2 2
v -5 2 1
v -4 2 1
v 4 2 1
v 5 2 1
v -6 14 2
v -5 14 2
v 5 14 2
v 6 14 2
v -6 14 -1
v -5 14 -1
v 5 14 -1
v 6 14 -1
v -5 16 2
v 5 16 2
v -5 16 -1
v 5 16 -1

# faces
f 3/3/1 2/3/1 1/3/1
f 4/3/1 2/3/1 3/3/1
f 7/3/1 6/3/1 5/3/1
f 8/3/1 6/3/1 7/3/1
f 11/3/1 10/3/1 9/3/1
f 12/3/1 10/3/1 11/3/1
f 15/3/1 14/3/1 13/3/1
f 16/3/1 14/3/1 15/3/1
f 19/3/1 18/3/1 17/3/1
f 20/3/1 18/3/1 19/3/1
f 23/3/1 22/3/1 21/3/1
f 24/3/1 22/3/1 23/3/1
f 25/3/2 26/3/2 27/3/2
f 27/3/2 26/3/2 28/3/2
f 29/3/2 30/3/2 31/3/2
f 31/3/2 30/3/2 32/3/2
f 33/3/2 34/3/2 35/3/2
f 35/3/2 34/3/2 36/3/2
f 37/3/2 38/3/2 39/3/2
f 39/3/2 38/3/2 40/3/2
f 41/3/2 42/3/2 43/3/2
f 43/3/2 42/3/2 44/3/2
f 45/3/2 46/3/2 47/3/2
f 47/3/2 46/3/2 48/3/2
f 52/3/3 50/3/3 49/3/3
f 53/3/3 50/3/3 52/3/3
f 55/3/3 52/3/3 51/3/3
f 56/3/3 52/3/3 55/3/3
f 57/3/3 54/3/3 53/3/3
f 58/3/3 54/3/3 57/3/3
f 59/3/3 55/3/3 51/3/3
f 62/3/3 54/3/3 58/3/3
f 63/3/3 60/3/3 59/3/3
f 63/3/3 59/3/3 51/3/3
f 64/3/3 60/3/3 63/3/3
f 65/3/3 62/3/3 61/3/3
f 66/3/3 54/3/3 62/3/3
f 66/3/3 62/3/3 65/3/3
f 67/3/3 65/3/3 64/3/3
f 68/3/3 65/3/3 67/3/3
f 72/1/3 70/1/3 69/1/3
f 73/1/3 70/1/3 72/1/3
f 74/1/3 70/1/3 73/1/3
f 75/1/3 70/1/3 74/1/3
f 77/1/3 72/1/3 71/1/3
f 77/1/3 73/1/3 72/1/3
f 78/2/3 74/2/3 73/2/3
f 78/1/3 73/1/3 77/1/3
f 79/1/3 76/1/3 75/1/3
f 79/2/3 74/2/3 78/2/3
f 79/1/3 75/1/3 74/1/3
f 80/1/3 76/1/3 79/1/3
f 81/2/3 78/2/3 77/2/3
f 81/1/3 77/1/3 71/1/3
f 81/2/3 80/2/3 79/2/3
f 81/2/3 79/2/3 78/2/3
f 82/2/3 80/2/3 81/2/3
f 83/2/3 80/2/3 82/2/3
f 84/1/3 76/1/3 80/1/3
f 84/2/3 80/2/3 83/2/3
f 85/1/3 81/1/3 71/1/3
f 85/1/3 82/1/3 81/1/3
f 86/1/3 82/1/3 85/1/3
f 87/2/3 83/2/3 82/2/3
f 87/1/3 82/1/3 86/1/3
f 88/1/3 84/1/3 83/1/3
f 88/2/3 83/2/3 87/2/3
f 89/1/3 76/1/3 84/1/3
f 89/1/3 84/1/3 88/1/3
f 90/1/3 76/1/3 89/1/3
f 91/1/3 88/1/3 87/1/3
f 91/1/3 89/1/3 88/1/3
f 91/1/3 87/1/3 86/1/3
f 92/1/3 89/1/3 91/1/3
f 93/3/4 94/3/4 96/3/4
f 96/3/4 94/3/4 97/3/4
f 95/3/4 96/3/4 99/3/4
f 97/3/4 98/3/4 99/3/4
f 96/3/4 97/3/4 99/3/4
f 99/3/4 98/3/4 100/3/4
f 100/3/4 98/3/4 101/3/4
f 101/3/4 98/3/4 102/3/4
f 100/3/4 101/3/4 103/3/4
f 103/3/4 101/3/4 104/3/4
f 107/3/5 106/3/5 105/3/5
f 108/3/5 106/3/5 107/3/5
f 113/3/5 110/3/5 109/3/5
f 114/3/5 110/3/5 113/3/5
f 115/3/5 112/3/5 111/3/5
f 116/3/5 112/3/5 115/3/5
f 121/3/5 118/3/5 117/3/5
f 122/3/5 118/3/5 121/3/5
f 123/3/5 120/3/5 119/3/5
f 124/3/5 120/3/5 123/3/5
f 127/3/5 126/3/5 125/3/5
f 128/3/5 126/3/5 127/3/5
f 129/3/6 130/3/6 131/3/6
f 131/3/6 130/3/6 132/3/6
f 133/3/6 134/3/6 137/3/6
f 137/3/6 134/3/6 138/3/6
f 135/3/6 136/3/6 139/3/6
f 139/3/6 136/3/6 140/3/6
f 141/3/6 142/3/6 145/3/6
f 145/3/6 142/3/6 146/3/6
f 143/3/6 144/3/6 147/3/6
f 147/3/6 144/3/6 148/3/6
f 149/3/6 150/3/6 151/3/6
f 151/3/6 150/3/6 152/3/6
