# MagicaVoxel @ Ephtracy

# group
g sliding_door_red

# material
mtllib sliding_door_red.mtl
usemtl palette

# normals
vn -1 0 0
vn 1 0 0
vn 0 0 1
vn 0 0 -1
vn 0 -1 0
vn 0 1 0

# texcoords
vt 0.904297 0.5
vt 0.966797 0.5
vt 0.974609 0.5
vt 0.978516 0.5
vt 0.982422 0.5

# verts
v -10 0 1
v -10 0 -1
v -10 32 1
v -10 32 -1
v -9 0 2
v -9 0 1
v -9 0 -1
v -9 0 -2
v -9 32 1
v -9 32 -1
v -9 33 2
v -9 33 -2
v -8 33 2
v -8 33 -2
v -8 34 2
v -8 34 -2
v -7 34 1
v -7 34 -1
v -7 35 1
v -7 35 -1
v -2 2 2
v -2 2 -2
v -2 4 2
v -2 4 -0
v -2 4 -1
v -2 4 -2
v 1 11 2
v 1 11 1
v 1 11 -1
v 1 11 -2
v 1 12 2
v 1 12 1
v 1 12 -1
v 1 12 -2
v 1 18 2
v 1 18 1
v 1 18 -1
v 1 18 -2
v 1 19 2
v 1 19 1
v 1 19 -1
v 1 19 -2
v 2 12 2
v 2 12 1
v 2 12 -1
v 2 12 -2
v 2 13 2
v 2 13 1
v 2 13 -1
v 2 13 -2
v 2 17 2
v 2 17 1
v 2 17 -1
v 2 17 -2
v 2 18 2
v 2 18 1
v 2 18 -1
v 2 18 -2
v 3 2 2
v 3 2 -2
v 3 4 2
v 3 4 -0
v 3 4 -1
v 3 4 -2
v 3 13 2
v 3 13 1
v 3 13 -1
v 3 13 -2
v 3 14 2
v 3 14 1
v 3 14 -1
v 3 14 -2
v 3 16 2
v 3 16 1
v 3 16 -1
v 3 16 -2
v 3 17 2
v 3 17 1
v 3 17 -1
v 3 17 -2
v 4 14 2
v 4 14 1
v 4 14 -1
v 4 14 -2
v 4 16 2
v 4 16 1
v 4 16 -1
v 4 16 -2
v 4 26 2
v 4 26 -2
v 4 29 2
v 4 29 -2
v -4 14 2
v -4 14 1
v -4 14 -1
v -4 14 -2
v -4 16 2
v -4 16 1
v -4 16 -1
v -4 16 -2
v -4 26 2
v -4 26 -2
v -4 29 2
v -4 29 -2
v -3 2 2
v -3 2 -2
v -3 4 2
v -3 4 -0
v -3 4 -1
v -3 4 -2
v -3 13 2
v -3 13 1
v -3 13 -1
v -3 13 -2
v -3 14 2
v -3 14 1
v -3 14 -1
v -3 14 -2
v -3 16 2
v -3 16 1
v -3 16 -1
v -3 16 -2
v -3 17 2
v -3 17 1
v -3 17 -1
v -3 17 -2
v -2 12 2
v -2 12 1
v -2 12 -1
v -2 12 -2
v -2 13 2
v -2 13 1
v -2 13 -1
v -2 13 -2
v -2 17 2
v -2 17 1
v -2 17 -1
v -2 17 -2
v -2 18 2
v -2 18 1
v -2 18 -1
v -2 18 -2
v -1 11 2
v -1 11 1
v -1 11 -1
v -1 11 -2
v -1 12 2
v -1 12 1
v -1 12 -1
v -1 12 -2
v -1 18 2
v -1 18 1
v -1 18 -1
v -1 18 -2
v -1 19 2
v -1 19 1
v -1 19 -1
v -1 19 -2
v 2 2 2
v 2 2 -2
v 2 4 2
v 2 4 -0
v 2 4 -1
v 2 4 -2
v 7 34 1
v 7 34 -1
v 7 35 1
v 7 35 -1
v 8 33 2
v 8 33 -2
v 8 34 2
v 8 34 -2
v 9 0 2
v 9 0 1
v 9 0 -1
v 9 0 -2
v 9 32 1
v 9 32 -1
v 9 33 2
v 9 33 -2
v 10 0 1
v 10 0 -1
v 10 32 1
v 10 32 -1
v -9 0 2
v -9 33 2
v -8 0 2
v -8 32 2
v -8 33 2
v -8 34 2
v -7 32 2
v -7 33 2
v -5 14 2
v -5 16 2
v -5 25 2
v -5 30 2
v -4 1 2
v -4 5 2
v -4 6 2
v -4 7 2
v -4 13 2
v -4 14 2
v -4 16 2
v -4 17 2
v -4 23 2
v -4 24 2
v -4 26 2
v -4 29 2
v -3 2 2
v -3 4 2
v -3 8 2
v -3 9 2
v -3 12 2
v -3 13 2
v -3 14 2
v -3 16 2
v -3 17 2
v -3 18 2
v -3 21 2
v -3 22 2
v -2 2 2
v -2 4 2
v -2 11 2
v -2 12 2
v -2 13 2
v -2 17 2
v -2 18 2
v -2 19 2
v -1 1 2
v -1 5 2
v -1 10 2
v -1 11 2
v -1 12 2
v -1 18 2
v -1 19 2
v -1 20 2
v 1 1 2
v 1 5 2
v 1 10 2
v 1 11 2
v 1 12 2
v 1 18 2
v 1 19 2
v 1 20 2
v 2 2 2
v 2 4 2
v 2 11 2
v 2 12 2
v 2 13 2
v 2 17 2
v 2 18 2
v 2 19 2
v 3 2 2
v 3 4 2
v 3 8 2
v 3 9 2
v 3 12 2
v 3 13 2
v 3 14 2
v 3 16 2
v 3 17 2
v 3 18 2
v 3 21 2
v 3 22 2
v 4 1 2
v 4 5 2
v 4 6 2
v 4 7 2
v 4 13 2
v 4 14 2
v 4 16 2
v 4 17 2
v 4 23 2
v 4 24 2
v 4 26 2
v 4 29 2
v 5 14 2
v 5 16 2
v 5 25 2
v 5 30 2
v 7 32 2
v 7 33 2
v 8 0 2
v 8 32 2
v 8 33 2
v 8 34 2
v 9 0 2
v 9 33 2
v -10 0 1
v -10 32 1
v -9 0 1
v -9 32 1
v -7 34 1
v -7 35 1
v -4 14 1
v -4 16 1
v -3 13 1
v -3 14 1
v -3 16 1
v -3 17 1
v -2 12 1
v -2 13 1
v -2 17 1
v -2 18 1
v -1 11 1
v -1 12 1
v -1 18 1
v -1 19 1
v 1 11 1
v 1 12 1
v 1 18 1
v 1 19 1
v 2 12 1
v 2 13 1
v 2 17 1
v 2 18 1
v 3 13 1
v 3 14 1
v 3 16 1
v 3 17 1
v 4 14 1
v 4 16 1
v 7 34 1
v 7 35 1
v 9 0 1
v 9 32 1
v 10 0 1
v 10 32 1
v -10 0 -1
v -10 32 -1
v -9 0 -1
v -9 32 -1
v -7 34 -1
v -7 35 -1
v -4 14 -1
v -4 16 -1
v -3 13 -1
v -3 14 -1
v -3 16 -1
v -3 17 -1
v -2 12 -1
v -2 13 -1
v -2 17 -1
v -2 18 -1
v -1 11 -1
v -1 12 -1
v -1 18 -1
v -1 19 -1
v 1 11 -1
v 1 12 -1
v 1 18 -1
v 1 19 -1
v 2 12 -1
v 2 13 -1
v 2 17 -1
v 2 18 -1
v 3 13 -1
v 3 14 -1
v 3 16 -1
v 3 17 -1
v 4 14 -1
v 4 16 -1
v 7 34 -1
v 7 35 -1
v 9 0 -1
v 9 32 -1
v 10 0 -1
v 10 32 -1
v -9 0 -2
v -9 33 -2
v -8 0 -2
v -8 32 -2
v -8 33 -2
v -8 34 -2
v -7 32 -2
v -7 33 -2
v -5 14 -2
v -5 16 -2
v -5 25 -2
v -5 30 -2
v -4 1 -2
v -4 5 -2
v -4 6 -2
v -4 7 -2
v -4 13 -2
v -4 14 -2
v -4 16 -2
v -4 17 -2
v -4 23 -2
v -4 24 -2
v -4 26 -2
v -4 29 -2
v -3 2 -2
v -3 4 -2
v -3 8 -2
v -3 9 -2
v -3 12 -2
v -3 13 -2
v -3 14 -2
v -3 16 -2
v -3 17 -2
v -3 18 -2
v -3 21 -2
v -3 22 -2
v -2 2 -2
v -2 4 -2
v -2 11 -2
v -2 12 -2
v -2 13 -2
v -2 17 -2
v -2 18 -2
v -2 19 -2
v -1 1 -2
v -1 5 -2
v -1 10 -2
v -1 11 -2
v -1 12 -2
v -1 18 -2
v -1 19 -2
v -1 20 -2
v 1 1 -2
v 1 5 -2
v 1 10 -2
v 1 11 -2
v 1 12 -2
v 1 18 -2
v 1 19 -2
v 1 20 -2
v 2 2 -2
v 2 4 -2
v 2 11 -2
v 2 12 -2
v 2 13 -2
v 2 17 -2
v 2 18 -2
v 2 19 -2
v 3 2 -2
v 3 4 -2
v 3 8 -2
v 3 9 -2
v 3 12 -2
v 3 13 -2
v 3 14 -2
v 3 16 -2
v 3 17 -2
v 3 18 -2
v 3 21 -2
v 3 22 -2
v 4 1 -2
v 4 5 -2
v 4 6 -2
v 4 7 -2
v 4 13 -2
v 4 14 -2
v 4 16 -2
v 4 17 -2
v 4 23 -2
v 4 24 -2
v 4 26 -2
v 4 29 -2
v 5 14 -2
v 5 16 -2
v 5 25 -2
v 5 30 -2
v 7 32 -2
v 7 33 -2
v 8 0 -2
v 8 32 -2
v 8 33 -2
v 8 34 -2
v 9 0 -2
v 9 33 -2
v -9 0 2
v -8 0 2
v 8 0 2
v 9 0 2
v -10 0 1
v -9 0 1
v 9 0 1
v 10 0 1
v -9 0 -0
v -8 0 -0
v 8 0 -0
v 9 0 -0
v -10 0 -1
v -9 0 -1
v -8 0 -1
v 8 0 -1
v 9 0 -1
v 10 0 -1
v -9 0 -2
v -8 0 -2
v 8 0 -2
v 9 0 -2
v -3 4 2
v -2 4 2
v 2 4 2
v 3 4 2
v -3 4 -0
v -2 4 -0
v 2 4 -0
v 3 4 -0
v -3 4 -1
v -2 4 -1
v 2 4 -1
v 3 4 -1
v -3 4 -2
v -2 4 -2
v 2 4 -2
v 3 4 -2
v -4 16 2
v -3 16 2
v 3 16 2
v 4 16 2
v -4 16 1
v -3 16 1
v 3 16 1
v 4 16 1
v -4 16 -1
v -3 16 -1
v 3 16 -1
v 4 16 -1
v -4 16 -2
v -3 16 -2
v 3 16 -2
v 4 16 -2
v -3 17 2
v -2 17 2
v 2 17 2
v 3 17 2
v -3 17 1
v -2 17 1
v 2 17 1
v 3 17 1
v -3 17 -1
v -2 17 -1
v 2 17 -1
v 3 17 -1
v -3 17 -2
v -2 17 -2
v 2 17 -2
v 3 17 -2
v -2 18 2
v -1 18 2
v 1 18 2
v 2 18 2
v -2 18 1
v -1 18 1
v 1 18 1
v 2 18 1
v -2 18 -1
v -1 18 -1
v 1 18 -1
v 2 18 -1
v -2 18 -2
v -1 18 -2
v 1 18 -2
v 2 18 -2
v -1 19 2
v 1 19 2
v -1 19 1
v 1 19 1
v -1 19 -1
v 1 19 -1
v -1 19 -2
v 1 19 -2
v -4 29 2
v 4 29 2
v -4 29 -2
v 4 29 -2
v -3 2 2
v -2 2 2
v 2 2 2
v 3 2 2
v -3 2 -2
v -2 2 -2
v 2 2 -2
v 3 2 -2
v -1 11 2
v 1 11 2
v -1 11 1
v 1 11 1
v -1 11 -1
v 1 11 -1
v -1 11 -2
v 1 11 -2
v -2 12 2
v -1 12 2
v 1 12 2
v 2 12 2
v -2 12 1
v -1 12 1
v 1 12 1
v 2 12 1
v -2 12 -1
v -1 12 -1
v 1 12 -1
v 2 12 -1
v -2 12 -2
v -1 12 -2
v 1 12 -2
v 2 12 -2
v -3 13 2
v -2 13 2
v 2 13 2
v 3 13 2
v -3 13 1
v -2 13 1
v 2 13 1
v 3 13 1
v -3 13 -1
v -2 13 -1
v 2 13 -1
v 3 13 -1
v -3 13 -2
v -2 13 -2
v 2 13 -2
v 3 13 -2
v -4 14 2
v -3 14 2
v 3 14 2
v 4 14 2
v -4 14 1
v -3 14 1
v 3 14 1
v 4 14 1
v -4 14 -1
v -3 14 -1
v 3 14 -1
v 4 14 -1
v -4 14 -2
v -3 14 -2
v 3 14 -2
v 4 14 -2
v -4 26 2
v 4 26 2
v -4 26 -2
v 4 26 -2
v -10 32 1
v -9 32 1
v 9 32 1
v 10 32 1
v -10 32 -1
v -9 32 -1
v 9 32 -1
v 10 32 -1
v -9 33 2
v -8 33 2
v 8 33 2
v 9 33 2
v -9 33 -2
v -8 33 -2
v 8 33 -2
v 9 33 -2
v -8 34 2
v 8 34 2
v -7 34 1
v 7 34 1
v -7 34 -1
v 7 34 -1
v -8 34 -2
v 8 34 -2
v -7 35 1
v 7 35 1
v -7 35 -1
v 7 35 -1

# faces
f 3/2/1 2/2/1 1/2/1
f 4/2/1 2/2/1 3/2/1
f 9/2/1 6/2/1 5/2/1
f 10/2/1 8/2/1 7/2/1
f 11/2/1 9/2/1 5/2/1
f 11/2/1 10/2/1 9/2/1
f 12/2/1 8/2/1 10/2/1
f 12/2/1 10/2/1 11/2/1
f 15/2/1 14/2/1 13/2/1
f 16/2/1 14/2/1 15/2/1
f 19/2/1 18/2/1 17/2/1
f 20/2/1 18/2/1 19/2/1
f 23/5/1 22/5/1 21/5/1
f 24/5/1 22/5/1 23/5/1
f 25/5/1 22/5/1 24/5/1
f 26/5/1 22/5/1 25/5/1
f 31/1/1 28/1/1 27/1/1
f 32/1/1 28/1/1 31/1/1
f 33/1/1 30/1/1 29/1/1
f 34/1/1 30/1/1 33/1/1
f 39/1/1 36/1/1 35/1/1
f 40/1/1 36/1/1 39/1/1
f 41/1/1 38/1/1 37/1/1
f 42/1/1 38/1/1 41/1/1
f 47/1/1 44/1/1 43/1/1
f 48/1/1 44/1/1 47/1/1
f 49/1/1 46/1/1 45/1/1
f 50/1/1 46/1/1 49/1/1
f 55/1/1 52/1/1 51/1/1
f 56/1/1 52/1/1 55/1/1
f 57/1/1 54/1/1 53/1/1
f 58/1/1 54/1/1 57/1/1
f 61/5/1 60/5/1 59/5/1
f 62/5/1 60/5/1 61/5/1
f 63/5/1 60/5/1 62/5/1
f 64/5/1 60/5/1 63/5/1
f 69/1/1 66/1/1 65/1/1
f 70/1/1 66/1/1 69/1/1
f 71/1/1 68/1/1 67/1/1
f 72/1/1 68/1/1 71/1/1
f 77/1/1 74/1/1 73/1/1
f 78/1/1 74/1/1 77/1/1
f 79/1/1 76/1/1 75/1/1
f 80/1/1 76/1/1 79/1/1
f 85/1/1 82/1/1 81/1/1
f 86/1/1 82/1/1 85/1/1
f 87/1/1 84/1/1 83/1/1
f 88/1/1 84/1/1 87/1/1
f 91/5/1 90/5/1 89/5/1
f 92/5/1 90/5/1 91/5/1
f 93/1/2 94/1/2 97/1/2
f 97/1/2 94/1/2 98/1/2
f 95/1/2 96/1/2 99/1/2
f 99/1/2 96/1/2 100/1/2
f 101/5/2 102/5/2 103/5/2
f 103/5/2 102/5/2 104/5/2
f 105/5/2 106/5/2 107/5/2
f 107/5/2 106/5/2 108/5/2
f 108/5/2 106/5/2 109/5/2
f 109/5/2 106/5/2 110/5/2
f 111/1/2 112/1/2 115/1/2
f 115/1/2 112/1/2 116/1/2
f 113/1/2 114/1/2 117/1/2
f 117/1/2 114/1/2 118/1/2
f 119/1/2 120/1/2 123/1/2
f 123/1/2 120/1/2 124/1/2
f 121/1/2 122/1/2 125/1/2
f 125/1/2 122/1/2 126/1/2
f 127/1/2 128/1/2 131/1/2
f 131/1/2 128/1/2 132/1/2
f 129/1/2 130/1/2 133/1/2
f 133/1/2 130/1/2 134/1/2
f 135/1/2 136/1/2 139/1/2
f 139/1/2 136/1/2 140/1/2
f 137/1/2 138/1/2 141/1/2
f 141/1/2 138/1/2 142/1/2
f 143/1/2 144/1/2 147/1/2
f 147/1/2 144/1/2 148/1/2
f 145/1/2 146/1/2 149/1/2
f 149/1/2 146/1/2 150/1/2
f 151/1/2 152/1/2 155/1/2
f 155/1/2 152/1/2 156/1/2
f 153/1/2 154/1/2 157/1/2
f 157/1/2 154/1/2 158/1/2
f 159/5/2 160/5/2 161/5/2
f 161/5/2 160/5/2 162/5/2
f 162/5/2 160/5/2 163/5/2
f 163/5/2 160/5/2 164/5/2
f 165/2/2 166/2/2 167/2/2
f 167/2/2 166/2/2 168/2/2
f 169/2/2 170/2/2 171/2/2
f 171/2/2 170/2/2 172/2/2
f 173/2/2 174/2/2 177/2/2
f 175/2/2 176/2/2 178/2/2
f 173/2/2 177/2/2 179/2/2
f 177/2/2 178/2/2 179/2/2
f 178/2/2 176/2/2 180/2/2
f 179/2/2 178/2/2 180/2/2
f 181/2/2 182/2/2 183/2/2
f 183/2/2 182/2/2 184/2/2
f 187/2/3 186/2/3 185/2/3
f 188/2/3 186/2/3 187/2/3
f 189/2/3 186/2/3 188/2/3
f 191/4/3 188/4/3 187/4/3
f 191/2/3 190/2/3 189/2/3
f 191/2/3 189/2/3 188/2/3
f 192/2/3 190/2/3 191/2/3
f 193/4/3 191/4/3 187/4/3
f 193/4/3 192/4/3 191/4/3
f 194/4/3 192/4/3 193/4/3
f 195/4/3 192/4/3 194/4/3
f 196/4/3 192/4/3 195/4/3
f 197/4/3 193/4/3 187/4/3
f 198/4/3 193/4/3 197/4/3
f 199/4/3 193/4/3 198/4/3
f 200/4/3 193/4/3 199/4/3
f 201/4/3 193/4/3 200/4/3
f 202/1/3 194/1/3 193/1/3
f 202/4/3 193/4/3 201/4/3
f 203/4/3 195/4/3 194/4/3
f 203/1/3 194/1/3 202/1/3
f 204/4/3 195/4/3 203/4/3
f 205/4/3 195/4/3 204/4/3
f 206/4/3 195/4/3 205/4/3
f 207/5/3 196/5/3 195/5/3
f 208/5/3 196/5/3 207/5/3
f 209/5/3 198/5/3 197/5/3
f 210/5/3 198/5/3 209/5/3
f 211/4/3 201/4/3 200/4/3
f 212/4/3 201/4/3 211/4/3
f 213/4/3 201/4/3 212/4/3
f 214/1/3 202/1/3 201/1/3
f 214/4/3 201/4/3 213/4/3
f 215/1/3 202/1/3 214/1/3
f 216/1/3 204/1/3 203/1/3
f 217/4/3 205/4/3 204/4/3
f 217/1/3 204/1/3 216/1/3
f 218/4/3 205/4/3 217/4/3
f 219/4/3 205/4/3 218/4/3
f 220/4/3 205/4/3 219/4/3
f 221/5/3 209/5/3 197/5/3
f 222/5/3 198/5/3 210/5/3
f 223/4/3 213/4/3 212/4/3
f 224/1/3 214/1/3 213/1/3
f 224/4/3 213/4/3 223/4/3
f 225/1/3 214/1/3 224/1/3
f 226/1/3 218/1/3 217/1/3
f 227/4/3 219/4/3 218/4/3
f 227/1/3 218/1/3 226/1/3
f 228/4/3 219/4/3 227/4/3
f 229/5/3 221/5/3 197/5/3
f 229/5/3 222/5/3 221/5/3
f 229/4/3 197/4/3 187/4/3
f 230/4/3 199/4/3 198/4/3
f 230/5/3 222/5/3 229/5/3
f 230/5/3 198/5/3 222/5/3
f 231/4/3 223/4/3 212/4/3
f 232/1/3 224/1/3 223/1/3
f 232/4/3 223/4/3 231/4/3
f 233/1/3 224/1/3 232/1/3
f 234/1/3 228/1/3 227/1/3
f 235/4/3 219/4/3 228/4/3
f 235/1/3 228/1/3 234/1/3
f 236/4/3 219/4/3 235/4/3
f 237/4/3 229/4/3 187/4/3
f 237/4/3 230/4/3 229/4/3
f 238/4/3 199/4/3 230/4/3
f 238/4/3 230/4/3 237/4/3
f 239/4/3 231/4/3 212/4/3
f 239/1/3 232/1/3 231/1/3
f 240/1/3 232/1/3 239/1/3
f 243/1/3 236/1/3 235/1/3
f 244/4/3 219/4/3 236/4/3
f 244/1/3 236/1/3 243/1/3
f 245/5/3 238/5/3 237/5/3
f 246/5/3 238/5/3 245/5/3
f 247/1/3 241/1/3 240/1/3
f 247/4/3 240/4/3 239/4/3
f 248/1/3 241/1/3 247/1/3
f 251/1/3 243/1/3 242/1/3
f 252/4/3 244/4/3 243/4/3
f 252/1/3 243/1/3 251/1/3
f 253/5/3 245/5/3 237/5/3
f 254/5/3 238/5/3 246/5/3
f 255/4/3 211/4/3 200/4/3
f 255/5/3 212/5/3 211/5/3
f 256/4/3 239/4/3 212/4/3
f 256/5/3 212/5/3 255/5/3
f 256/4/3 247/4/3 239/4/3
f 256/4/3 248/4/3 247/4/3
f 257/1/3 249/1/3 248/1/3
f 257/4/3 248/4/3 256/4/3
f 258/1/3 249/1/3 257/1/3
f 261/1/3 251/1/3 250/1/3
f 262/4/3 252/4/3 251/4/3
f 262/1/3 251/1/3 261/1/3
f 263/5/3 220/5/3 219/5/3
f 263/4/3 252/4/3 262/4/3
f 263/4/3 219/4/3 244/4/3
f 263/4/3 244/4/3 252/4/3
f 264/4/3 205/4/3 220/4/3
f 264/5/3 220/5/3 263/5/3
f 265/5/3 253/5/3 237/5/3
f 265/5/3 254/5/3 253/5/3
f 265/4/3 237/4/3 187/4/3
f 266/4/3 199/4/3 238/4/3
f 266/5/3 254/5/3 265/5/3
f 266/5/3 238/5/3 254/5/3
f 267/5/3 200/5/3 199/5/3
f 267/4/3 199/4/3 266/4/3
f 268/4/3 256/4/3 255/4/3
f 268/5/3 200/5/3 267/5/3
f 268/4/3 257/4/3 256/4/3
f 268/4/3 255/4/3 200/4/3
f 268/4/3 258/4/3 257/4/3
f 269/1/3 259/1/3 258/1/3
f 269/4/3 258/4/3 268/4/3
f 270/1/3 259/1/3 269/1/3
f 271/1/3 261/1/3 260/1/3
f 272/4/3 263/4/3 262/4/3
f 272/4/3 262/4/3 261/4/3
f 272/1/3 261/1/3 271/1/3
f 272/4/3 264/4/3 263/4/3
f 273/4/3 205/4/3 264/4/3
f 273/4/3 264/4/3 272/4/3
f 273/5/3 206/5/3 205/5/3
f 274/4/3 195/4/3 206/4/3
f 274/5/3 206/5/3 273/5/3
f 275/5/3 207/5/3 195/5/3
f 276/5/3 196/5/3 208/5/3
f 277/4/3 267/4/3 266/4/3
f 277/4/3 266/4/3 265/4/3
f 277/1/3 271/1/3 270/1/3
f 277/4/3 269/4/3 268/4/3
f 277/4/3 270/4/3 269/4/3
f 277/4/3 268/4/3 267/4/3
f 278/4/3 273/4/3 272/4/3
f 278/1/3 271/1/3 277/1/3
f 278/4/3 272/4/3 271/4/3
f 278/4/3 274/4/3 273/4/3
f 279/5/3 276/5/3 275/5/3
f 279/4/3 274/4/3 278/4/3
f 279/5/3 275/5/3 195/5/3
f 279/4/3 195/4/3 274/4/3
f 280/4/3 192/4/3 196/4/3
f 280/5/3 276/5/3 279/5/3
f 280/5/3 196/5/3 276/5/3
f 281/4/3 279/4/3 278/4/3
f 281/4/3 192/4/3 280/4/3
f 281/4/3 280/4/3 279/4/3
f 281/4/3 278/4/3 277/4/3
f 282/2/3 190/2/3 192/2/3
f 282/4/3 192/4/3 281/4/3
f 283/4/3 281/4/3 277/4/3
f 283/4/3 277/4/3 265/4/3
f 283/4/3 265/4/3 187/4/3
f 284/2/3 282/2/3 281/2/3
f 284/4/3 281/4/3 283/4/3
f 285/2/3 190/2/3 282/2/3
f 285/2/3 282/2/3 284/2/3
f 286/2/3 190/2/3 285/2/3
f 287/2/3 284/2/3 283/2/3
f 287/2/3 285/2/3 284/2/3
f 288/2/3 285/2/3 287/2/3
f 291/2/3 290/2/3 289/2/3
f 292/2/3 290/2/3 291/2/3
f 298/3/3 296/3/3 295/3/3
f 299/3/3 296/3/3 298/3/3
f 302/3/3 298/3/3 297/3/3
f 302/3/3 300/3/3 299/3/3
f 302/3/3 299/3/3 298/3/3
f 303/3/3 300/3/3 302/3/3
f 306/3/3 302/3/3 301/3/3
f 306/3/3 304/3/3 303/3/3
f 306/3/3 303/3/3 302/3/3
f 307/3/3 304/3/3 306/3/3
f 309/3/3 306/3/3 305/3/3
f 309/3/3 308/3/3 307/3/3
f 309/3/3 307/3/3 306/3/3
f 310/3/3 308/3/3 309/3/3
f 311/3/3 308/3/3 310/3/3
f 312/3/3 308/3/3 311/3/3
f 313/3/3 311/3/3 310/3/3
f 314/3/3 311/3/3 313/3/3
f 315/3/3 311/3/3 314/3/3
f 316/3/3 311/3/3 315/3/3
f 317/3/3 315/3/3 314/3/3
f 318/3/3 315/3/3 317/3/3
f 319/3/3 315/3/3 318/3/3
f 320/3/3 315/3/3 319/3/3
f 321/3/3 319/3/3 318/3/3
f 322/3/3 319/3/3 321/3/3
f 323/2/3 294/2/3 293/2/3
f 324/2/3 294/2/3 323/2/3
f 327/2/3 326/2/3 325/2/3
f 328/2/3 326/2/3 327/2/3
f 329/2/4 330/2/4 331/2/4
f 331/2/4 330/2/4 332/2/4
f 335/3/4 336/3/4 338/3/4
f 338/3/4 336/3/4 339/3/4
f 337/3/4 338/3/4 342/3/4
f 339/3/4 340/3/4 342/3/4
f 338/3/4 339/3/4 342/3/4
f 342/3/4 340/3/4 343/3/4
f 341/3/4 342/3/4 346/3/4
f 343/3/4 344/3/4 346/3/4
f 342/3/4 343/3/4 346/3/4
f 346/3/4 344/3/4 347/3/4
f 345/3/4 346/3/4 349/3/4
f 347/3/4 348/3/4 349/3/4
f 346/3/4 347/3/4 349/3/4
f 349/3/4 348/3/4 350/3/4
f 350/3/4 348/3/4 351/3/4
f 351/3/4 348/3/4 352/3/4
f 350/3/4 351/3/4 353/3/4
f 353/3/4 351/3/4 354/3/4
f 354/3/4 351/3/4 355/3/4
f 355/3/4 351/3/4 356/3/4
f 354/3/4 355/3/4 357/3/4
f 357/3/4 355/3/4 358/3/4
f 358/3/4 355/3/4 359/3/4
f 359/3/4 355/3/4 360/3/4
f 358/3/4 359/3/4 361/3/4
f 361/3/4 359/3/4 362/3/4
f 333/2/4 334/2/4 363/2/4
f 363/2/4 334/2/4 364/2/4
f 365/2/4 366/2/4 367/2/4
f 367/2/4 366/2/4 368/2/4
f 369/2/4 370/2/4 371/2/4
f 371/2/4 370/2/4 372/2/4
f 372/2/4 370/2/4 373/2/4
f 371/4/4 372/4/4 375/4/4
f 373/2/4 374/2/4 375/2/4
f 372/2/4 373/2/4 375/2/4
f 375/2/4 374/2/4 376/2/4
f 371/4/4 375/4/4 377/4/4
f 375/4/4 376/4/4 377/4/4
f 377/4/4 376/4/4 378/4/4
f 378/4/4 376/4/4 379/4/4
f 379/4/4 376/4/4 380/4/4
f 371/4/4 377/4/4 381/4/4
f 381/4/4 377/4/4 382/4/4
f 382/4/4 377/4/4 383/4/4
f 383/4/4 377/4/4 384/4/4
f 384/4/4 377/4/4 385/4/4
f 377/1/4 378/1/4 386/1/4
f 385/4/4 377/4/4 386/4/4
f 378/4/4 379/4/4 387/4/4
f 386/1/4 378/1/4 387/1/4
f 387/4/4 379/4/4 388/4/4
f 388/4/4 379/4/4 389/4/4
f 389/4/4 379/4/4 390/4/4
f 379/5/4 380/5/4 391/5/4
f 391/5/4 380/5/4 392/5/4
f 381/5/4 382/5/4 393/5/4
f 393/5/4 382/5/4 394/5/4
f 384/4/4 385/4/4 395/4/4
f 395/4/4 385/4/4 396/4/4
f 396/4/4 385/4/4 397/4/4
f 385/1/4 386/1/4 398/1/4
f 397/4/4 385/4/4 398/4/4
f 398/1/4 386/1/4 399/1/4
f 387/1/4 388/1/4 400/1/4
f 388/4/4 389/4/4 401/4/4
f 400/1/4 388/1/4 401/1/4
f 401/4/4 389/4/4 402/4/4
f 402/4/4 389/4/4 403/4/4
f 403/4/4 389/4/4 404/4/4
f 381/5/4 393/5/4 405/5/4
f 394/5/4 382/5/4 406/5/4
f 396/4/4 397/4/4 407/4/4
f 397/1/4 398/1/4 408/1/4
f 407/4/4 397/4/4 408/4/4
f 408/1/4 398/1/4 409/1/4
f 401/1/4 402/1/4 410/1/4
f 402/4/4 403/4/4 411/4/4
f 410/1/4 402/1/4 411/1/4
f 411/4/4 403/4/4 412/4/4
f 381/5/4 405/5/4 413/5/4
f 405/5/4 406/5/4 413/5/4
f 371/4/4 381/4/4 413/4/4
f 382/4/4 383/4/4 414/4/4
f 413/5/4 406/5/4 414/5/4
f 406/5/4 382/5/4 414/5/4
f 396/4/4 407/4/4 415/4/4
f 407/1/4 408/1/4 416/1/4
f 415/4/4 407/4/4 416/4/4
f 416/1/4 408/1/4 417/1/4
f 411/1/4 412/1/4 418/1/4
f 412/4/4 403/4/4 419/4/4
f 418/1/4 412/1/4 419/1/4
f 419/4/4 403/4/4 420/4/4
f 371/4/4 413/4/4 421/4/4
f 413/4/4 414/4/4 421/4/4
f 414/4/4 383/4/4 422/4/4
f 421/4/4 414/4/4 422/4/4
f 396/4/4 415/4/4 423/4/4
f 415/1/4 416/1/4 423/1/4
f 423/1/4 416/1/4 424/1/4
f 419/1/4 420/1/4 427/1/4
f 420/4/4 403/4/4 428/4/4
f 427/1/4 420/1/4 428/1/4
f 421/5/4 422/5/4 429/5/4
f 429/5/4 422/5/4 430/5/4
f 424/1/4 425/1/4 431/1/4
f 423/4/4 424/4/4 431/4/4
f 431/1/4 425/1/4 432/1/4
f 426/1/4 427/1/4 435/1/4
f 427/4/4 428/4/4 436/4/4
f 435/1/4 427/1/4 436/1/4
f 421/5/4 429/5/4 437/5/4
f 430/5/4 422/5/4 438/5/4
f 384/4/4 395/4/4 439/4/4
f 395/5/4 396/5/4 439/5/4
f 396/4/4 423/4/4 440/4/4
f 439/5/4 396/5/4 440/5/4
f 423/4/4 431/4/4 440/4/4
f 431/4/4 432/4/4 440/4/4
f 432/1/4 433/1/4 441/1/4
f 440/4/4 432/4/4 441/4/4
f 441/1/4 433/1/4 442/1/4
f 434/1/4 435/1/4 445/1/4
f 435/4/4 436/4/4 446/4/4
f 445/1/4 435/1/4 446/1/4
f 403/5/4 404/5/4 447/5/4
f 446/4/4 436/4/4 447/4/4
f 428/4/4 403/4/4 447/4/4
f 436/4/4 428/4/4 447/4/4
f 404/4/4 389/4/4 448/4/4
f 447/5/4 404/5/4 448/5/4
f 421/5/4 437/5/4 449/5/4
f 437/5/4 438/5/4 449/5/4
f 371/4/4 421/4/4 449/4/4
f 422/4/4 383/4/4 450/4/4
f 449/5/4 438/5/4 450/5/4
f 438/5/4 422/5/4 450/5/4
f 383/5/4 384/5/4 451/5/4
f 450/4/4 383/4/4 451/4/4
f 439/4/4 440/4/4 452/4/4
f 451/5/4 384/5/4 452/5/4
f 440/4/4 441/4/4 452/4/4
f 384/4/4 439/4/4 452/4/4
f 441/4/4 442/4/4 452/4/4
f 442/1/4 443/1/4 453/1/4
f 452/4/4 442/4/4 453/4/4
f 453/1/4 443/1/4 454/1/4
f 444/1/4 445/1/4 455/1/4
f 446/4/4 447/4/4 456/4/4
f 445/4/4 446/4/4 456/4/4
f 455/1/4 445/1/4 456/1/4
f 447/4/4 448/4/4 456/4/4
f 448/4/4 389/4/4 457/4/4
f 456/4/4 448/4/4 457/4/4
f 389/5/4 390/5/4 457/5/4
f 390/4/4 379/4/4 458/4/4
f 457/5/4 390/5/4 458/5/4
f 379/5/4 391/5/4 459/5/4
f 392/5/4 380/5/4 460/5/4
f 450/4/4 451/4/4 461/4/4
f 449/4/4 450/4/4 461/4/4
f 454/1/4 455/1/4 461/1/4
f 452/4/4 453/4/4 461/4/4
f 453/4/4 454/4/4 461/4/4
f 451/4/4 452/4/4 461/4/4
f 456/4/4 457/4/4 462/4/4
f 461/1/4 455/1/4 462/1/4
f 455/4/4 456/4/4 462/4/4
f 457/4/4 458/4/4 462/4/4
f 459/5/4 460/5/4 463/5/4
f 462/4/4 458/4/4 463/4/4
f 379/5/4 459/5/4 463/5/4
f 458/4/4 379/4/4 463/4/4
f 380/4/4 376/4/4 464/4/4
f 463/5/4 460/5/4 464/5/4
f 460/5/4 380/5/4 464/5/4
f 462/4/4 463/4/4 465/4/4
f 464/4/4 376/4/4 465/4/4
f 463/4/4 464/4/4 465/4/4
f 461/4/4 462/4/4 465/4/4
f 376/2/4 374/2/4 466/2/4
f 465/4/4 376/4/4 466/4/4
f 461/4/4 465/4/4 467/4/4
f 449/4/4 461/4/4 467/4/4
f 371/4/4 449/4/4 467/4/4
f 465/2/4 466/2/4 468/2/4
f 467/4/4 465/4/4 468/4/4
f 466/2/4 374/2/4 469/2/4
f 468/2/4 466/2/4 469/2/4
f 469/2/4 374/2/4 470/2/4
f 467/2/4 468/2/4 471/2/4
f 468/2/4 469/2/4 471/2/4
f 471/2/4 469/2/4 472/2/4
f 478/2/5 474/2/5 473/2/5
f 479/2/5 476/2/5 475/2/5
f 481/2/5 478/2/5 477/2/5
f 481/2/5 474/2/5 478/2/5
f 482/4/5 475/4/5 474/4/5
f 482/2/5 474/2/5 481/2/5
f 483/2/5 480/2/5 479/2/5
f 483/4/5 475/4/5 482/4/5
f 483/2/5 479/2/5 475/2/5
f 484/2/5 480/2/5 483/2/5
f 485/2/5 481/2/5 477/2/5
f 486/4/5 482/4/5 481/4/5
f 486/2/5 481/2/5 485/2/5
f 486/4/5 483/4/5 482/4/5
f 486/4/5 484/4/5 483/4/5
f 487/4/5 484/4/5 486/4/5
f 488/4/5 484/4/5 487/4/5
f 489/2/5 480/2/5 484/2/5
f 489/4/5 484/4/5 488/4/5
f 490/2/5 480/2/5 489/2/5
f 491/2/5 487/2/5 486/2/5
f 492/4/5 488/4/5 487/4/5
f 492/2/5 487/2/5 491/2/5
f 493/2/5 489/2/5 488/2/5
f 493/4/5 488/4/5 492/4/5
f 494/2/5 489/2/5 493/2/5
f 499/5/5 496/5/5 495/5/5
f 500/5/5 496/5/5 499/5/5
f 501/5/5 498/5/5 497/5/5
f 502/5/5 498/5/5 501/5/5
f 503/2/5 500/2/5 499/2/5
f 504/2/5 500/2/5 503/2/5
f 505/2/5 502/2/5 501/2/5
f 506/2/5 502/2/5 505/2/5
f 507/5/5 504/5/5 503/5/5
f 508/5/5 504/5/5 507/5/5
f 509/5/5 506/5/5 505/5/5
f 510/5/5 506/5/5 509/5/5
f 515/1/5 512/1/5 511/1/5
f 516/1/5 512/1/5 515/1/5
f 517/1/5 514/1/5 513/1/5
f 518/1/5 514/1/5 517/1/5
f 523/1/5 520/1/5 519/1/5
f 524/1/5 520/1/5 523/1/5
f 525/1/5 522/1/5 521/1/5
f 526/1/5 522/1/5 525/1/5
f 531/1/5 528/1/5 527/1/5
f 532/1/5 528/1/5 531/1/5
f 533/1/5 530/1/5 529/1/5
f 534/1/5 530/1/5 533/1/5
f 539/1/5 536/1/5 535/1/5
f 540/1/5 536/1/5 539/1/5
f 541/1/5 538/1/5 537/1/5
f 542/1/5 538/1/5 541/1/5
f 547/1/5 544/1/5 543/1/5
f 548/1/5 544/1/5 547/1/5
f 549/1/5 546/1/5 545/1/5
f 550/1/5 546/1/5 549/1/5
f 555/1/5 552/1/5 551/1/5
f 556/1/5 552/1/5 555/1/5
f 557/1/5 554/1/5 553/1/5
f 558/1/5 554/1/5 557/1/5
f 561/1/5 560/1/5 559/1/5
f 562/1/5 560/1/5 561/1/5
f 565/1/5 564/1/5 563/1/5
f 566/1/5 564/1/5 565/1/5
f 569/5/5 568/5/5 567/5/5
f 570/5/5 568/5/5 569/5/5
f 571/5/6 572/5/6 575/5/6
f 575/5/6 572/5/6 576/5/6
f 573/5/6 574/5/6 577/5/6
f 577/5/6 574/5/6 578/5/6
f 579/1/6 580/1/6 581/1/6
f 581/1/6 580/1/6 582/1/6
f 583/1/6 584/1/6 585/1/6
f 585/1/6 584/1/6 586/1/6
f 587/1/6 588/1/6 591/1/6
f 591/1/6 588/1/6 592/1/6
f 589/1/6 590/1/6 593/1/6
f 593/1/6 590/1/6 594/1/6
f 595/1/6 596/1/6 599/1/6
f 599/1/6 596/1/6 600/1/6
f 597/1/6 598/1/6 601/1/6
f 601/1/6 598/1/6 602/1/6
f 603/1/6 604/1/6 607/1/6
f 607/1/6 604/1/6 608/1/6
f 605/1/6 606/1/6 609/1/6
f 609/1/6 606/1/6 610/1/6
f 611/1/6 612/1/6 615/1/6
f 615/1/6 612/1/6 616/1/6
f 613/1/6 614/1/6 617/1/6
f 617/1/6 614/1/6 618/1/6
f 619/1/6 620/1/6 623/1/6
f 623/1/6 620/1/6 624/1/6
f 621/1/6 622/1/6 625/1/6
f 625/1/6 622/1/6 626/1/6
f 627/1/6 628/1/6 631/1/6
f 631/1/6 628/1/6 632/1/6
f 629/1/6 630/1/6 633/1/6
f 633/1/6 630/1/6 634/1/6
f 635/5/6 636/5/6 637/5/6
f 637/5/6 636/5/6 638/5/6
f 639/2/6 640/2/6 643/2/6
f 643/2/6 640/2/6 644/2/6
f 641/2/6 642/2/6 645/2/6
f 645/2/6 642/2/6 646/2/6
f 647/2/6 648/2/6 651/2/6
f 651/2/6 648/2/6 652/2/6
f 649/2/6 650/2/6 653/2/6
f 653/2/6 650/2/6 654/2/6
f 655/2/6 656/2/6 657/2/6
f 657/2/6 656/2/6 658/2/6
f 655/2/6 657/2/6 659/2/6
f 658/2/6 656/2/6 660/2/6
f 655/2/6 659/2/6 661/2/6
f 659/2/6 660/2/6 661/2/6
f 660/2/6 656/2/6 662/2/6
f 661/2/6 660/2/6 662/2/6
f 663/2/6 664/2/6 665/2/6
f 665/2/6 664/2/6 666/2/6
