# MagicaVoxel @ Ephtracy

# group
g bridge_section

# material
mtllib bridge_section.mtl
usemtl palette

# normals
vn -1 0 0
vn 1 0 0
vn 0 0 1
vn 0 0 -1
vn 0 -1 0
vn 0 1 0

# texcoords
vt 0.0332031 0.5
vt 0.537109 0.5
vt 0.986328 0.5

# verts
v -5 0 3
v -5 0 2
v -5 0 -2
v -5 0 -3
v -5 5 3
v -5 5 2
v -5 5 -2
v -5 5 -3
v -5 7 3
v -5 7 2
v -5 7 -2
v -5 7 -3
v -5 8 2
v -5 8 -2
v -5 10 3
v -5 10 2
v -5 10 -2
v -5 10 -3
v -4 5 3
v -4 5 2
v -4 5 -2
v -4 5 -3
v -4 7 3
v -4 7 2
v -4 7 -2
v -4 7 -3
v 2 5 3
v 2 5 2
v 2 5 -2
v 2 5 -3
v 2 6 3
v 2 6 2
v 2 6 -2
v 2 6 -3
v 3 4 3
v 3 4 2
v 3 4 -2
v 3 4 -3
v 3 5 3
v 3 5 2
v 3 5 -2
v 3 5 -3
v 4 0 3
v 4 0 2
v 4 0 -2
v 4 0 -3
v 4 4 3
v 4 4 2
v 4 4 -2
v 4 4 -3
v 4 9 3
v 4 9 2
v 4 9 -2
v 4 9 -3
v 4 10 3
v 4 10 2
v 4 10 -2
v 4 10 -3
v -4 0 3
v -4 0 2
v -4 0 -2
v -4 0 -3
v -4 4 3
v -4 4 2
v -4 4 -2
v -4 4 -3
v -4 9 3
v -4 9 2
v -4 9 -2
v -4 9 -3
v -4 10 3
v -4 10 2
v -4 10 -2
v -4 10 -3
v -3 4 3
v -3 4 2
v -3 4 -2
v -3 4 -3
v -3 5 3
v -3 5 2
v -3 5 -2
v -3 5 -3
v -2 5 3
v -2 5 2
v -2 5 -2
v -2 5 -3
v -2 6 3
v -2 6 2
v -2 6 -2
v -2 6 -3
v 4 5 3
v 4 5 2
v 4 5 -2
v 4 5 -3
v 4 7 3
v 4 7 2
v 4 7 -2
v 4 7 -3
v 5 0 3
v 5 0 2
v 5 0 -2
v 5 0 -3
v 5 5 3
v 5 5 2
v 5 5 -2
v 5 5 -3
v 5 7 3
v 5 7 2
v 5 7 -2
v 5 7 -3
v 5 8 2
v 5 8 -2
v 5 10 3
v 5 10 2
v 5 10 -2
v 5 10 -3
v -5 0 3
v -5 5 3
v -5 7 3
v -5 10 3
v -4 0 3
v -4 4 3
v -4 5 3
v -4 7 3
v -4 9 3
v -4 10 3
v -3 4 3
v -3 5 3
v -2 5 3
v -2 6 3
v 2 5 3
v 2 6 3
v 3 4 3
v 3 5 3
v 4 0 3
v 4 4 3
v 4 5 3
v 4 7 3
v 4 9 3
v 4 10 3
v 5 0 3
v 5 5 3
v 5 7 3
v 5 10 3
v -5 0 -2
v -5 5 -2
v -5 8 -2
v -5 10 -2
v -4 0 -2
v -4 4 -2
v -4 5 -2
v -4 7 -2
v -4 9 -2
v -4 10 -2
v -3 4 -2
v -3 5 -2
v -2 5 -2
v -2 6 -2
v 2 5 -2
v 2 6 -2
v 3 4 -2
v 3 5 -2
v 4 0 -2
v 4 4 -2
v 4 5 -2
v 4 7 -2
v 4 9 -2
v 4 10 -2
v 5 0 -2
v 5 5 -2
v 5 8 -2
v 5 10 -2
v -5 0 2
v -5 5 2
v -5 8 2
v -5 10 2
v -4 0 2
v -4 4 2
v -4 5 2
v -4 7 2
v -4 9 2
v -4 10 2
v -3 4 2
v -3 5 2
v -2 5 2
v -2 6 2
v 2 5 2
v 2 6 2
v 3 4 2
v 3 5 2
v 4 0 2
v 4 4 2
v 4 5 2
v 4 7 2
v 4 9 2
v 4 10 2
v 5 0 2
v 5 5 2
v 5 8 2
v 5 10 2
v -5 0 -3
v -5 5 -3
v -5 7 -3
v -5 10 -3
v -4 0 -3
v -4 4 -3
v -4 5 -3
v -4 7 -3
v -4 9 -3
v -4 10 -3
v -3 4 -3
v -3 5 -3
v -2 5 -3
v -2 6 -3
v 2 5 -3
v 2 6 -3
v 3 4 -3
v 3 5 -3
v 4 0 -3
v 4 4 -3
v 4 5 -3
v 4 7 -3
v 4 9 -3
v 4 10 -3
v 5 0 -3
v 5 5 -3
v 5 7 -3
v 5 10 -3
v -5 0 3
v -4 0 3
v 4 0 3
v 5 0 3
v -5 0 2
v -4 0 2
v 4 0 2
v 5 0 2
v -5 0 -2
v -4 0 -2
v 4 0 -2
v 5 0 -2
v -5 0 -3
v -4 0 -3
v 4 0 -3
v 5 0 -3
v -4 4 3
v -3 4 3
v 3 4 3
v 4 4 3
v -4 4 2
v -3 4 2
v 3 4 2
v 4 4 2
v -4 4 -2
v -3 4 -2
v 3 4 -2
v 4 4 -2
v -4 4 -3
v -3 4 -3
v 3 4 -3
v 4 4 -3
v -3 5 3
v -2 5 3
v 2 5 3
v 3 5 3
v -3 5 2
v -2 5 2
v 2 5 2
v 3 5 2
v -3 5 -2
v -2 5 -2
v 2 5 -2
v 3 5 -2
v -3 5 -3
v -2 5 -3
v 2 5 -3
v 3 5 -3
v -2 6 3
v 2 6 3
v -2 6 2
v 2 6 2
v -2 6 -2
v 2 6 -2
v -2 6 -3
v 2 6 -3
v -5 7 3
v -4 7 3
v 4 7 3
v 5 7 3
v -5 7 2
v -4 7 2
v 4 7 2
v 5 7 2
v -5 7 -2
v -4 7 -2
v 4 7 -2
v 5 7 -2
v -5 7 -3
v -4 7 -3
v 4 7 -3
v 5 7 -3
v -5 5 3
v -4 5 3
v 4 5 3
v 5 5 3
v -5 5 2
v -4 5 2
v 4 5 2
v 5 5 2
v -5 5 -2
v -4 5 -2
v 4 5 -2
v 5 5 -2
v -5 5 -3
v -4 5 -3
v 4 5 -3
v 5 5 -3
v -5 8 2
v 5 8 2
v -5 8 -2
v 5 8 -2
v -4 9 3
v 4 9 3
v -4 9 2
v 4 9 2
v -4 9 -2
v 4 9 -2
v -4 9 -3
v 4 9 -3
v -5 10 3
v -4 10 3
v 4 10 3
v 5 10 3
v -5 10 2
v -4 10 2
v 4 10 2
v 5 10 2
v -5 10 -2
v -4 10 -2
v 4 10 -2
v 5 10 -2
v -5 10 -3
v -4 10 -3
v 4 10 -3
v 5 10 -3

# faces
f 5/3/1 2/3/1 1/3/1
f 6/3/1 2/3/1 5/3/1
f 7/3/1 4/3/1 3/3/1
f 8/3/1 4/3/1 7/3/1
f 13/2/1 10/2/1 9/2/1
f 13/1/1 11/1/1 10/1/1
f 14/2/1 12/2/1 11/2/1
f 14/1/1 11/1/1 13/1/1
f 15/2/1 13/2/1 9/2/1
f 16/2/1 13/2/1 15/2/1
f 17/2/1 12/2/1 14/2/1
f 18/2/1 12/2/1 17/2/1
f 23/3/1 20/3/1 19/3/1
f 24/3/1 20/3/1 23/3/1
f 25/3/1 22/3/1 21/3/1
f 26/3/1 22/3/1 25/3/1
f 31/3/1 28/3/1 27/3/1
f 32/3/1 28/3/1 31/3/1
f 33/3/1 30/3/1 29/3/1
f 34/3/1 30/3/1 33/3/1
f 39/3/1 36/3/1 35/3/1
f 40/3/1 36/3/1 39/3/1
f 41/3/1 38/3/1 37/3/1
f 42/3/1 38/3/1 41/3/1
f 47/3/1 44/3/1 43/3/1
f 48/3/1 44/3/1 47/3/1
f 49/3/1 46/3/1 45/3/1
f 50/3/1 46/3/1 49/3/1
f 55/2/1 52/2/1 51/2/1
f 56/2/1 52/2/1 55/2/1
f 57/2/1 54/2/1 53/2/1
f 58/2/1 54/2/1 57/2/1
f 59/3/2 60/3/2 63/3/2
f 63/3/2 60/3/2 64/3/2
f 61/3/2 62/3/2 65/3/2
f 65/3/2 62/3/2 66/3/2
f 67/2/2 68/2/2 71/2/2
f 71/2/2 68/2/2 72/2/2
f 69/2/2 70/2/2 73/2/2
f 73/2/2 70/2/2 74/2/2
f 75/3/2 76/3/2 79/3/2
f 79/3/2 76/3/2 80/3/2
f 77/3/2 78/3/2 81/3/2
f 81/3/2 78/3/2 82/3/2
f 83/3/2 84/3/2 87/3/2
f 87/3/2 84/3/2 88/3/2
f 85/3/2 86/3/2 89/3/2
f 89/3/2 86/3/2 90/3/2
f 91/3/2 92/3/2 95/3/2
f 95/3/2 92/3/2 96/3/2
f 93/3/2 94/3/2 97/3/2
f 97/3/2 94/3/2 98/3/2
f 99/3/2 100/3/2 103/3/2
f 103/3/2 100/3/2 104/3/2
f 101/3/2 102/3/2 105/3/2
f 105/3/2 102/3/2 106/3/2
f 107/2/2 108/2/2 111/2/2
f 108/1/2 109/1/2 111/1/2
f 109/2/2 110/2/2 112/2/2
f 111/1/2 109/1/2 112/1/2
f 107/2/2 111/2/2 113/2/2
f 113/2/2 111/2/2 114/2/2
f 112/2/2 110/2/2 115/2/2
f 115/2/2 110/2/2 116/2/2
f 121/3/3 118/3/3 117/3/3
f 122/3/3 118/3/3 121/3/3
f 123/3/3 118/3/3 122/3/3
f 124/2/3 120/2/3 119/2/3
f 125/2/3 120/2/3 124/2/3
f 126/2/3 120/2/3 125/2/3
f 127/3/3 123/3/3 122/3/3
f 127/3/3 124/3/3 123/3/3
f 128/3/3 124/3/3 127/3/3
f 129/3/3 124/3/3 128/3/3
f 130/3/3 124/3/3 129/3/3
f 132/3/3 124/3/3 130/3/3
f 134/3/3 132/3/3 131/3/3
f 136/3/3 134/3/3 133/3/3
f 137/3/3 132/3/3 134/3/3
f 137/3/3 134/3/3 136/3/3
f 138/2/3 125/2/3 124/2/3
f 138/3/3 132/3/3 137/3/3
f 138/3/3 124/3/3 132/3/3
f 139/2/3 125/2/3 138/2/3
f 141/3/3 137/3/3 136/3/3
f 141/3/3 136/3/3 135/3/3
f 142/3/3 137/3/3 141/3/3
f 143/2/3 140/2/3 139/2/3
f 143/2/3 139/2/3 138/2/3
f 144/2/3 140/2/3 143/2/3
f 149/3/3 146/3/3 145/3/3
f 150/3/3 146/3/3 149/3/3
f 151/3/3 146/3/3 150/3/3
f 153/2/3 148/2/3 147/2/3
f 154/2/3 148/2/3 153/2/3
f 155/3/3 152/3/3 151/3/3
f 155/3/3 151/3/3 150/3/3
f 156/3/3 152/3/3 155/3/3
f 157/3/3 152/3/3 156/3/3
f 158/3/3 152/3/3 157/3/3
f 160/3/3 152/3/3 158/3/3
f 162/3/3 160/3/3 159/3/3
f 164/3/3 162/3/3 161/3/3
f 165/3/3 160/3/3 162/3/3
f 165/3/3 162/3/3 164/3/3
f 166/3/3 152/3/3 160/3/3
f 166/3/3 160/3/3 165/3/3
f 167/2/3 153/2/3 147/2/3
f 169/3/3 165/3/3 164/3/3
f 169/3/3 164/3/3 163/3/3
f 170/3/3 165/3/3 169/3/3
f 171/2/3 168/2/3 167/2/3
f 171/2/3 167/2/3 147/2/3
f 172/2/3 168/2/3 171/2/3
f 173/3/4 174/3/4 177/3/4
f 177/3/4 174/3/4 178/3/4
f 178/3/4 174/3/4 179/3/4
f 175/2/4 176/2/4 181/2/4
f 181/2/4 176/2/4 182/2/4
f 179/3/4 180/3/4 183/3/4
f 178/3/4 179/3/4 183/3/4
f 183/3/4 180/3/4 184/3/4
f 184/3/4 180/3/4 185/3/4
f 185/3/4 180/3/4 186/3/4
f 186/3/4 180/3/4 188/3/4
f 187/3/4 188/3/4 190/3/4
f 189/3/4 190/3/4 192/3/4
f 190/3/4 188/3/4 193/3/4
f 192/3/4 190/3/4 193/3/4
f 188/3/4 180/3/4 194/3/4
f 193/3/4 188/3/4 194/3/4
f 175/2/4 181/2/4 195/2/4
f 192/3/4 193/3/4 197/3/4
f 191/3/4 192/3/4 197/3/4
f 197/3/4 193/3/4 198/3/4
f 195/2/4 196/2/4 199/2/4
f 175/2/4 195/2/4 199/2/4
f 199/2/4 196/2/4 200/2/4
f 201/3/4 202/3/4 205/3/4
f 205/3/4 202/3/4 206/3/4
f 206/3/4 202/3/4 207/3/4
f 203/2/4 204/2/4 208/2/4
f 208/2/4 204/2/4 209/2/4
f 209/2/4 204/2/4 210/2/4
f 206/3/4 207/3/4 211/3/4
f 207/3/4 208/3/4 211/3/4
f 211/3/4 208/3/4 212/3/4
f 212/3/4 208/3/4 213/3/4
f 213/3/4 208/3/4 214/3/4
f 214/3/4 208/3/4 216/3/4
f 215/3/4 216/3/4 218/3/4
f 217/3/4 218/3/4 220/3/4
f 218/3/4 216/3/4 221/3/4
f 220/3/4 218/3/4 221/3/4
f 208/2/4 209/2/4 222/2/4
f 221/3/4 216/3/4 222/3/4
f 216/3/4 208/3/4 222/3/4
f 222/2/4 209/2/4 223/2/4
f 220/3/4 221/3/4 225/3/4
f 219/3/4 220/3/4 225/3/4
f 225/3/4 221/3/4 226/3/4
f 223/2/4 224/2/4 227/2/4
f 222/2/4 223/2/4 227/2/4
f 227/2/4 224/2/4 228/2/4
f 233/3/5 230/3/5 229/3/5
f 234/3/5 230/3/5 233/3/5
f 235/3/5 232/3/5 231/3/5
f 236/3/5 232/3/5 235/3/5
f 241/3/5 238/3/5 237/3/5
f 242/3/5 238/3/5 241/3/5
f 243/3/5 240/3/5 239/3/5
f 244/3/5 240/3/5 243/3/5
f 249/3/5 246/3/5 245/3/5
f 250/3/5 246/3/5 249/3/5
f 251/3/5 248/3/5 247/3/5
f 252/3/5 248/3/5 251/3/5
f 257/3/5 254/3/5 253/3/5
f 258/3/5 254/3/5 257/3/5
f 259/3/5 256/3/5 255/3/5
f 260/3/5 256/3/5 259/3/5
f 265/3/5 262/3/5 261/3/5
f 266/3/5 262/3/5 265/3/5
f 267/3/5 264/3/5 263/3/5
f 268/3/5 264/3/5 267/3/5
f 273/3/5 270/3/5 269/3/5
f 274/3/5 270/3/5 273/3/5
f 275/3/5 272/3/5 271/3/5
f 276/3/5 272/3/5 275/3/5
f 279/3/5 278/3/5 277/3/5
f 280/3/5 278/3/5 279/3/5
f 283/3/5 282/3/5 281/3/5
f 284/3/5 282/3/5 283/3/5
f 289/2/5 286/2/5 285/2/5
f 290/2/5 286/2/5 289/2/5
f 291/2/5 288/2/5 287/2/5
f 292/2/5 288/2/5 291/2/5
f 293/1/5 290/1/5 289/1/5
f 293/1/5 291/1/5 290/1/5
f 293/1/5 292/1/5 291/1/5
f 294/1/5 292/1/5 293/1/5
f 295/1/5 292/1/5 294/1/5
f 296/1/5 292/1/5 295/1/5
f 297/2/5 294/2/5 293/2/5
f 298/2/5 294/2/5 297/2/5
f 299/2/5 296/2/5 295/2/5
f 300/2/5 296/2/5 299/2/5
f 301/3/6 302/3/6 305/3/6
f 305/3/6 302/3/6 306/3/6
f 303/3/6 304/3/6 307/3/6
f 307/3/6 304/3/6 308/3/6
f 309/3/6 310/3/6 313/3/6
f 313/3/6 310/3/6 314/3/6
f 311/3/6 312/3/6 315/3/6
f 315/3/6 312/3/6 316/3/6
f 317/1/6 318/1/6 319/1/6
f 319/1/6 318/1/6 320/1/6
f 321/2/6 322/2/6 323/2/6
f 323/2/6 322/2/6 324/2/6
f 325/2/6 326/2/6 327/2/6
f 327/2/6 326/2/6 328/2/6
f 329/2/6 330/2/6 333/2/6
f 333/2/6 330/2/6 334/2/6
f 331/2/6 332/2/6 335/2/6
f 335/2/6 332/2/6 336/2/6
f 337/2/6 338/2/6 341/2/6
f 341/2/6 338/2/6 342/2/6
f 339/2/6 340/2/6 343/2/6
f 343/2/6 340/2/6 344/2/6
