# MagicaVoxel @ Ephtracy

# group
g dig_site

# material
mtllib dig_site.mtl
usemtl palette

# normals
vn -1 0 0
vn 1 0 0
vn 0 0 1
vn 0 0 -1
vn 0 -1 0
vn 0 1 0

# texcoords
vt 0.970703 0.5

# verts
v -50 0 50
v -50 0 -50
v -50 1 3
v -50 1 -3
v -50 9 3
v -50 9 -3
v -50 99 50
v -50 99 -50
v -48 93 -47
v -48 93 -48
v -48 94 -47
v -48 94 -48
v -47 93 -46
v -47 93 -47
v -47 94 -46
v -47 94 -47
v -46 93 -45
v -46 93 -46
v -46 94 -45
v -46 94 -46
v -45 93 -43
v -45 93 -45
v -45 94 -43
v -45 94 -45
v -44 93 -42
v -44 93 -43
v -44 94 -42
v -44 94 -43
v -43 93 -41
v -43 93 -42
v -43 94 -41
v -43 94 -42
v -42 93 -40
v -42 93 -41
v -42 94 -40
v -42 94 -41
v -41 90 -23
v -41 90 -36
v -41 91 49
v -41 91 48
v -41 91 -36
v -41 91 -38
v -41 92 -38
v -41 92 -40
v -41 94 -40
v -41 94 -49
v -41 95 -41
v -41 95 -49
v -41 98 49
v -41 98 48
v -41 99 -23
v -41 99 -41
v -39 95 -41
v -39 95 -49
v -39 96 -41
v -39 96 -49
v -37 96 -41
v -37 96 -49
v -37 97 -41
v -37 97 -49
v -36 90 19
v -36 90 16
v -36 90 -0
v -36 90 -7
v -36 100 19
v -36 100 16
v -36 100 -0
v -36 100 -7
v -35 90 20
v -35 90 19
v -35 90 16
v -35 90 15
v -35 90 2
v -35 90 -0
v -35 90 -7
v -35 90 -9
v -35 100 20
v -35 100 19
v -35 100 16
v -35 100 15
v -35 100 2
v -35 100 -0
v -35 100 -7
v -35 100 -9
v -34 90 21
v -34 90 20
v -34 90 15
v -34 90 14
v -34 90 3
v -34 90 2
v -34 90 -9
v -34 90 -10
v -34 100 21
v -34 100 20
v -34 100 15
v -34 100 14
v -34 100 3
v -34 100 2
v -34 100 -9
v -34 100 -10
v -33 90 4
v -33 90 3
v -33 90 -10
v -33 90 -11
v -33 100 4
v -33 100 3
v -33 100 -10
v -33 100 -11
v -32 90 18
v -32 90 17
v -32 90 5
v -32 90 4
v -32 90 -11
v -32 90 -12
v -32 100 18
v -32 100 17
v -32 100 5
v -32 100 4
v -32 100 -11
v -32 100 -12
v -30 90 6
v -30 90 5
v -30 90 -12
v -30 90 -13
v -30 100 6
v -30 100 5
v -30 100 -12
v -30 100 -13
v -26 90 -3
v -26 90 -4
v -26 100 -3
v -26 100 -4
v 49 1 49
v 49 1 -49
v 49 19 49
v 49 19 -49
v 49 20 49
v 49 20 -49
v 49 89 49
v 49 89 -49
v 49 90 49
v 49 90 -49
v 49 99 49
v 49 99 -49
v -49 1 49
v -49 1 3
v -49 1 -3
v -49 1 -49
v -49 9 3
v -49 9 -3
v -49 19 49
v -49 19 -49
v -49 20 49
v -49 20 -49
v -49 89 49
v -49 89 -49
v -49 90 48
v -49 90 -36
v -49 91 -36
v -49 91 -38
v -49 92 -38
v -49 92 -40
v -49 93 -40
v -49 93 -48
v -49 94 -48
v -49 94 -49
v -49 99 48
v -49 99 -49
v -48 91 49
v -48 91 48
v -48 98 49
v -48 98 48
v -40 90 49
v -40 90 48
v -40 90 -23
v -40 90 -40
v -40 99 49
v -40 99 48
v -40 99 -23
v -40 99 -40
v -33 90 18
v -33 90 17
v -33 100 18
v -33 100 17
v -31 90 21
v -31 90 20
v -31 90 15
v -31 90 14
v -31 100 21
v -31 100 20
v -31 100 15
v -31 100 14
v -30 90 20
v -30 90 19
v -30 90 16
v -30 90 15
v -30 90 -40
v -30 90 -49
v -30 97 -41
v -30 97 -49
v -30 99 -40
v -30 99 -41
v -30 100 20
v -30 100 19
v -30 100 16
v -30 100 15
v -29 90 19
v -29 90 16
v -29 100 19
v -29 100 16
v -27 90 -3
v -27 90 -4
v -27 100 -3
v -27 100 -4
v -23 90 6
v -23 90 5
v -23 90 -12
v -23 90 -13
v -23 100 6
v -23 100 5
v -23 100 -12
v -23 100 -13
v -21 90 5
v -21 90 4
v -21 90 -11
v -21 90 -12
v -21 100 5
v -21 100 4
v -21 100 -11
v -21 100 -12
v -20 90 4
v -20 90 3
v -20 90 -10
v -20 90 -11
v -20 100 4
v -20 100 3
v -20 100 -10
v -20 100 -11
v -19 90 3
v -19 90 2
v -19 90 -9
v -19 90 -10
v -19 100 3
v -19 100 2
v -19 100 -9
v -19 100 -10
v -18 90 2
v -18 90 -0
v -18 90 -7
v -18 90 -9
v -18 100 2
v -18 100 -0
v -18 100 -7
v -18 100 -9
v -17 90 -0
v -17 90 -7
v -17 92 -0
v -17 92 -7
v -17 93 -1
v -17 93 -6
v -17 98 -1
v -17 98 -6
v -17 99 -0
v -17 99 -7
v -17 100 -0
v -17 100 -7
v -16 92 -0
v -16 92 -7
v -16 93 -1
v -16 93 -6
v -16 98 -1
v -16 98 -6
v -16 99 -0
v -16 99 -7
v 50 0 50
v 50 0 -50
v 50 99 50
v 50 99 -50
v -50 0 50
v -50 99 50
v 50 0 50
v 50 99 50
v -34 90 21
v -34 100 21
v -31 90 21
v -31 100 21
v -35 90 20
v -35 100 20
v -34 90 20
v -34 100 20
v -31 90 20
v -31 100 20
v -30 90 20
v -30 100 20
v -36 90 19
v -36 100 19
v -35 90 19
v -35 100 19
v -30 90 19
v -30 100 19
v -29 90 19
v -29 100 19
v -33 90 17
v -33 100 17
v -32 90 17
v -32 100 17
v -30 90 6
v -30 100 6
v -23 90 6
v -23 100 6
v -32 90 5
v -32 100 5
v -30 90 5
v -30 100 5
v -23 90 5
v -23 100 5
v -21 90 5
v -21 100 5
v -33 90 4
v -33 100 4
v -32 90 4
v -32 100 4
v -21 90 4
v -21 100 4
v -20 90 4
v -20 100 4
v -34 90 3
v -34 100 3
v -33 90 3
v -33 100 3
v -20 90 3
v -20 100 3
v -19 90 3
v -19 100 3
v -35 90 2
v -35 100 2
v -34 90 2
v -34 100 2
v -19 90 2
v -19 100 2
v -18 90 2
v -18 100 2
v -36 90 -0
v -36 100 -0
v -35 90 -0
v -35 100 -0
v -18 90 -0
v -18 100 -0
v -17 90 -0
v -17 92 -0
v -17 99 -0
v -17 100 -0
v -16 92 -0
v -16 99 -0
v -50 1 -3
v -50 9 -3
v -49 1 -3
v -49 9 -3
v -27 90 -4
v -27 100 -4
v -26 90 -4
v -26 100 -4
v -17 93 -6
v -17 98 -6
v -16 93 -6
v -16 98 -6
v -41 90 -23
v -41 99 -23
v -40 90 -23
v -40 99 -23
v -49 90 -36
v -49 91 -36
v -41 90 -36
v -41 91 -36
v -49 91 -38
v -49 92 -38
v -41 91 -38
v -41 92 -38
v -49 92 -40
v -49 93 -40
v -42 93 -40
v -42 94 -40
v -41 92 -40
v -41 94 -40
v -40 90 -40
v -40 99 -40
v -30 90 -40
v -30 99 -40
v -43 93 -41
v -43 94 -41
v -42 93 -41
v -42 94 -41
v -44 93 -42
v -44 94 -42
v -43 93 -42
v -43 94 -42
v -45 93 -43
v -45 94 -43
v -44 93 -43
v -44 94 -43
v -46 93 -45
v -46 94 -45
v -45 93 -45
v -45 94 -45
v -47 93 -46
v -47 94 -46
v -46 93 -46
v -46 94 -46
v -48 93 -47
v -48 94 -47
v -47 93 -47
v -47 94 -47
v -49 93 -48
v -49 94 -48
v -48 93 -48
v -48 94 -48
v -49 1 -49
v -49 19 -49
v -49 20 -49
v -49 89 -49
v -49 94 -49
v -49 99 -49
v -41 94 -49
v -41 95 -49
v -39 95 -49
v -39 96 -49
v -37 96 -49
v -37 97 -49
v -30 90 -49
v -30 97 -49
v 49 1 -49
v 49 19 -49
v 49 20 -49
v 49 89 -49
v 49 90 -49
v 49 99 -49
v -49 1 49
v -49 19 49
v -49 20 49
v -49 89 49
v -48 91 49
v -48 98 49
v -41 91 49
v -41 98 49
v -40 90 49
v -40 99 49
v 49 1 49
v 49 19 49
v 49 20 49
v 49 89 49
v 49 90 49
v 49 99 49
v -49 90 48
v -49 99 48
v -48 91 48
v -48 98 48
v -41 91 48
v -41 98 48
v -40 90 48
v -40 99 48
v -33 90 18
v -33 100 18
v -32 90 18
v -32 100 18
v -36 90 16
v -36 100 16
v -35 90 16
v -35 100 16
v -30 90 16
v -30 100 16
v -29 90 16
v -29 100 16
v -35 90 15
v -35 100 15
v -34 90 15
v -34 100 15
v -31 90 15
v -31 100 15
v -30 90 15
v -30 100 15
v -34 90 14
v -34 100 14
v -31 90 14
v -31 100 14
v -50 1 3
v -50 9 3
v -49 1 3
v -49 9 3
v -17 93 -1
v -17 98 -1
v -16 93 -1
v -16 98 -1
v -27 90 -3
v -27 100 -3
v -26 90 -3
v -26 100 -3
v -36 90 -7
v -36 100 -7
v -35 90 -7
v -35 100 -7
v -18 90 -7
v -18 100 -7
v -17 90 -7
v -17 92 -7
v -17 99 -7
v -17 100 -7
v -16 92 -7
v -16 99 -7
v -35 90 -9
v -35 100 -9
v -34 90 -9
v -34 100 -9
v -19 90 -9
v -19 100 -9
v -18 90 -9
v -18 100 -9
v -34 90 -10
v -34 100 -10
v -33 90 -10
v -33 100 -10
v -20 90 -10
v -20 100 -10
v -19 90 -10
v -19 100 -10
v -33 90 -11
v -33 100 -11
v -32 90 -11
v -32 100 -11
v -21 90 -11
v -21 100 -11
v -20 90 -11
v -20 100 -11
v -32 90 -12
v -32 100 -12
v -30 90 -12
v -30 100 -12
v -23 90 -12
v -23 100 -12
v -21 90 -12
v -21 100 -12
v -30 90 -13
v -30 100 -13
v -23 90 -13
v -23 100 -13
v -41 95 -41
v -41 99 -41
v -39 95 -41
v -39 96 -41
v -37 96 -41
v -37 97 -41
v -30 97 -41
v -30 99 -41
v -50 0 -50
v -50 99 -50
v 50 0 -50
v 50 99 -50
v -50 0 50
v 50 0 50
v -50 0 -50
v 50 0 -50
v -50 9 3
v -49 9 3
v -50 9 -3
v -49 9 -3
v -49 19 49
v 49 19 49
v -49 19 -49
v 49 19 -49
v -49 89 49
v 49 89 49
v -49 89 -49
v 49 89 -49
v -17 92 -0
v -16 92 -0
v -17 92 -7
v -16 92 -7
v -48 98 49
v -41 98 49
v -48 98 48
v -41 98 48
v -17 98 -1
v -16 98 -1
v -17 98 -6
v -16 98 -6
v -49 1 49
v 49 1 49
v -50 1 3
v -49 1 3
v -50 1 -3
v -49 1 -3
v -49 1 -49
v 49 1 -49
v -49 20 49
v 49 20 49
v -49 20 -49
v 49 20 -49
v -40 90 49
v 49 90 49
v -49 90 48
v -40 90 48
v -34 90 21
v -31 90 21
v -35 90 20
v -34 90 20
v -31 90 20
v -30 90 20
v -36 90 19
v -35 90 19
v -30 90 19
v -29 90 19
v -33 90 18
v -32 90 18
v -33 90 17
v -32 90 17
v -36 90 16
v -35 90 16
v -30 90 16
v -29 90 16
v -35 90 15
v -34 90 15
v -31 90 15
v -30 90 15
v -34 90 14
v -31 90 14
v -30 90 6
v -23 90 6
v -32 90 5
v -30 90 5
v -23 90 5
v -21 90 5
v -33 90 4
v -32 90 4
v -21 90 4
v -20 90 4
v -34 90 3
v -33 90 3
v -20 90 3
v -19 90 3
v -35 90 2
v -34 90 2
v -19 90 2
v -18 90 2
v -36 90 -0
v -35 90 -0
v -18 90 -0
v -17 90 -0
v -27 90 -3
v -26 90 -3
v -27 90 -4
v -26 90 -4
v -36 90 -7
v -35 90 -7
v -18 90 -7
v -17 90 -7
v -35 90 -9
v -34 90 -9
v -19 90 -9
v -18 90 -9
v -34 90 -10
v -33 90 -10
v -20 90 -10
v -19 90 -10
v -33 90 -11
v -32 90 -11
v -21 90 -11
v -20 90 -11
v -32 90 -12
v -30 90 -12
v -23 90 -12
v -21 90 -12
v -30 90 -13
v -23 90 -13
v -41 90 -23
v -40 90 -23
v -49 90 -36
v -41 90 -36
v -40 90 -40
v -30 90 -40
v -30 90 -49
v 49 90 -49
v -48 91 49
v -41 91 49
v -48 91 48
v -41 91 48
v -49 91 -36
v -41 91 -36
v -49 91 -38
v -41 91 -38
v -49 92 -38
v -41 92 -38
v -49 92 -40
v -41 92 -40
v -17 93 -1
v -16 93 -1
v -17 93 -6
v -16 93 -6
v -49 93 -40
v -42 93 -40
v -43 93 -41
v -42 93 -41
v -44 93 -42
v -43 93 -42
v -45 93 -43
v -44 93 -43
v -46 93 -45
v -45 93 -45
v -47 93 -46
v -46 93 -46
v -48 93 -47
v -47 93 -47
v -49 93 -48
v -48 93 -48
v -42 94 -40
v -41 94 -40
v -43 94 -41
v -42 94 -41
v -44 94 -42
v -43 94 -42
v -45 94 -43
v -44 94 -43
v -46 94 -45
v -45 94 -45
v -47 94 -46
v -46 94 -46
v -48 94 -47
v -47 94 -47
v -49 94 -48
v -48 94 -48
v -49 94 -49
v -41 94 -49
v -41 95 -41
v -39 95 -41
v -41 95 -49
v -39 95 -49
v -39 96 -41
v -37 96 -41
v -39 96 -49
v -37 96 -49
v -37 97 -41
v -30 97 -41
v -37 97 -49
v -30 97 -49
v -50 99 50
v 50 99 50
v -40 99 49
v 49 99 49
v -49 99 48
v -40 99 48
v -17 99 -0
v -16 99 -0
v -17 99 -7
v -16 99 -7
v -41 99 -23
v -40 99 -23
v -40 99 -40
v -30 99 -40
v -41 99 -41
v -30 99 -41
v -49 99 -49
v 49 99 -49
v -50 99 -50
v 50 99 -50
v -34 100 21
v -31 100 21
v -35 100 20
v -34 100 20
v -31 100 20
v -30 100 20
v -36 100 19
v -35 100 19
v -30 100 19
v -29 100 19
v -33 100 18
v -32 100 18
v -33 100 17
v -32 100 17
v -36 100 16
v -35 100 16
v -30 100 16
v -29 100 16
v -35 100 15
v -34 100 15
v -31 100 15
v -30 100 15
v -34 100 14
v -31 100 14
v -30 100 6
v -23 100 6
v -32 100 5
v -30 100 5
v -23 100 5
v -21 100 5
v -33 100 4
v -32 100 4
v -21 100 4
v -20 100 4
v -34 100 3
v -33 100 3
v -20 100 3
v -19 100 3
v -35 100 2
v -34 100 2
v -19 100 2
v -18 100 2
v -36 100 -0
v -35 100 -0
v -18 100 -0
v -17 100 -0
v -27 100 -3
v -26 100 -3
v -27 100 -4
v -26 100 -4
v -36 100 -7
v -35 100 -7
v -18 100 -7
v -17 100 -7
v -35 100 -9
v -34 100 -9
v -19 100 -9
v -18 100 -9
v -34 100 -10
v -33 100 -10
v -20 100 -10
v -19 100 -10
v -33 100 -11
v -32 100 -11
v -21 100 -11
v -20 100 -11
v -32 100 -12
v -30 100 -12
v -23 100 -12
v -21 100 -12
v -30 100 -13
v -23 100 -13

# faces
f 3/1/1 2/1/1 1/1/1
f 4/1/1 2/1/1 3/1/1
f 5/1/1 3/1/1 1/1/1
f 6/1/1 2/1/1 4/1/1
f 7/1/1 5/1/1 1/1/1
f 7/1/1 6/1/1 5/1/1
f 8/1/1 2/1/1 6/1/1
f 8/1/1 6/1/1 7/1/1
f 11/1/1 10/1/1 9/1/1
f 12/1/1 10/1/1 11/1/1
f 15/1/1 14/1/1 13/1/1
f 16/1/1 14/1/1 15/1/1
f 19/1/1 18/1/1 17/1/1
f 20/1/1 18/1/1 19/1/1
f 23/1/1 22/1/1 21/1/1
f 24/1/1 22/1/1 23/1/1
f 27/1/1 26/1/1 25/1/1
f 28/1/1 26/1/1 27/1/1
f 31/1/1 30/1/1 29/1/1
f 32/1/1 30/1/1 31/1/1
f 35/1/1 34/1/1 33/1/1
f 36/1/1 34/1/1 35/1/1
f 41/1/1 38/1/1 37/1/1
f 43/1/1 42/1/1 41/1/1
f 45/1/1 44/1/1 43/1/1
f 47/1/1 46/1/1 45/1/1
f 48/1/1 46/1/1 47/1/1
f 49/1/1 40/1/1 39/1/1
f 50/1/1 40/1/1 49/1/1
f 51/1/1 41/1/1 37/1/1
f 51/1/1 43/1/1 41/1/1
f 51/1/1 47/1/1 45/1/1
f 51/1/1 45/1/1 43/1/1
f 52/1/1 47/1/1 51/1/1
f 55/1/1 54/1/1 53/1/1
f 56/1/1 54/1/1 55/1/1
f 59/1/1 58/1/1 57/1/1
f 60/1/1 58/1/1 59/1/1
f 65/1/1 62/1/1 61/1/1
f 66/1/1 62/1/1 65/1/1
f 67/1/1 64/1/1 63/1/1
f 68/1/1 64/1/1 67/1/1
f 77/1/1 70/1/1 69/1/1
f 78/1/1 70/1/1 77/1/1
f 79/1/1 72/1/1 71/1/1
f 80/1/1 72/1/1 79/1/1
f 81/1/1 74/1/1 73/1/1
f 82/1/1 74/1/1 81/1/1
f 83/1/1 76/1/1 75/1/1
f 84/1/1 76/1/1 83/1/1
f 93/1/1 86/1/1 85/1/1
f 94/1/1 86/1/1 93/1/1
f 95/1/1 88/1/1 87/1/1
f 96/1/1 88/1/1 95/1/1
f 97/1/1 90/1/1 89/1/1
f 98/1/1 90/1/1 97/1/1
f 99/1/1 92/1/1 91/1/1
f 100/1/1 92/1/1 99/1/1
f 105/1/1 102/1/1 101/1/1
f 106/1/1 102/1/1 105/1/1
f 107/1/1 104/1/1 103/1/1
f 108/1/1 104/1/1 107/1/1
f 115/1/1 110/1/1 109/1/1
f 116/1/1 110/1/1 115/1/1
f 117/1/1 112/1/1 111/1/1
f 118/1/1 112/1/1 117/1/1
f 119/1/1 114/1/1 113/1/1
f 120/1/1 114/1/1 119/1/1
f 125/1/1 122/1/1 121/1/1
f 126/1/1 122/1/1 125/1/1
f 127/1/1 124/1/1 123/1/1
f 128/1/1 124/1/1 127/1/1
f 131/1/1 130/1/1 129/1/1
f 132/1/1 130/1/1 131/1/1
f 135/1/1 134/1/1 133/1/1
f 136/1/1 134/1/1 135/1/1
f 139/1/1 138/1/1 137/1/1
f 140/1/1 138/1/1 139/1/1
f 143/1/1 142/1/1 141/1/1
f 144/1/1 142/1/1 143/1/1
f 145/1/2 146/1/2 149/1/2
f 147/1/2 148/1/2 150/1/2
f 145/1/2 149/1/2 151/1/2
f 149/1/2 150/1/2 151/1/2
f 150/1/2 148/1/2 152/1/2
f 151/1/2 150/1/2 152/1/2
f 153/1/2 154/1/2 155/1/2
f 155/1/2 154/1/2 156/1/2
f 157/1/2 158/1/2 159/1/2
f 159/1/2 160/1/2 161/1/2
f 161/1/2 162/1/2 163/1/2
f 163/1/2 164/1/2 165/1/2
f 157/1/2 159/1/2 167/1/2
f 165/1/2 166/1/2 167/1/2
f 163/1/2 165/1/2 167/1/2
f 161/1/2 163/1/2 167/1/2
f 159/1/2 161/1/2 167/1/2
f 167/1/2 166/1/2 168/1/2
f 169/1/2 170/1/2 171/1/2
f 171/1/2 170/1/2 172/1/2
f 173/1/2 174/1/2 177/1/2
f 177/1/2 174/1/2 178/1/2
f 175/1/2 176/1/2 179/1/2
f 179/1/2 176/1/2 180/1/2
f 181/1/2 182/1/2 183/1/2
f 183/1/2 182/1/2 184/1/2
f 185/1/2 186/1/2 189/1/2
f 189/1/2 186/1/2 190/1/2
f 187/1/2 188/1/2 191/1/2
f 191/1/2 188/1/2 192/1/2
f 197/1/2 198/1/2 199/1/2
f 199/1/2 198/1/2 200/1/2
f 197/1/2 199/1/2 201/1/2
f 201/1/2 199/1/2 202/1/2
f 193/1/2 194/1/2 203/1/2
f 203/1/2 194/1/2 204/1/2
f 195/1/2 196/1/2 205/1/2
f 205/1/2 196/1/2 206/1/2
f 207/1/2 208/1/2 209/1/2
f 209/1/2 208/1/2 210/1/2
f 211/1/2 212/1/2 213/1/2
f 213/1/2 212/1/2 214/1/2
f 215/1/2 216/1/2 219/1/2
f 219/1/2 216/1/2 220/1/2
f 217/1/2 218/1/2 221/1/2
f 221/1/2 218/1/2 222/1/2
f 223/1/2 224/1/2 227/1/2
f 227/1/2 224/1/2 228/1/2
f 225/1/2 226/1/2 229/1/2
f 229/1/2 226/1/2 230/1/2
f 231/1/2 232/1/2 235/1/2
f 235/1/2 232/1/2 236/1/2
f 233/1/2 234/1/2 237/1/2
f 237/1/2 234/1/2 238/1/2
f 239/1/2 240/1/2 243/1/2
f 243/1/2 240/1/2 244/1/2
f 241/1/2 242/1/2 245/1/2
f 245/1/2 242/1/2 246/1/2
f 247/1/2 248/1/2 251/1/2
f 251/1/2 248/1/2 252/1/2
f 249/1/2 250/1/2 253/1/2
f 253/1/2 250/1/2 254/1/2
f 255/1/2 256/1/2 257/1/2
f 257/1/2 256/1/2 258/1/2
f 259/1/2 260/1/2 261/1/2
f 261/1/2 260/1/2 262/1/2
f 263/1/2 264/1/2 265/1/2
f 265/1/2 264/1/2 266/1/2
f 267/1/2 268/1/2 269/1/2
f 269/1/2 268/1/2 270/1/2
f 267/1/2 269/1/2 271/1/2
f 270/1/2 268/1/2 272/1/2
f 267/1/2 271/1/2 273/1/2
f 271/1/2 272/1/2 273/1/2
f 272/1/2 268/1/2 274/1/2
f 273/1/2 272/1/2 274/1/2
f 275/1/2 276/1/2 277/1/2
f 277/1/2 276/1/2 278/1/2
f 281/1/3 280/1/3 279/1/3
f 282/1/3 280/1/3 281/1/3
f 285/1/3 284/1/3 283/1/3
f 286/1/3 284/1/3 285/1/3
f 289/1/3 288/1/3 287/1/3
f 290/1/3 288/1/3 289/1/3
f 293/1/3 292/1/3 291/1/3
f 294/1/3 292/1/3 293/1/3
f 297/1/3 296/1/3 295/1/3
f 298/1/3 296/1/3 297/1/3
f 301/1/3 300/1/3 299/1/3
f 302/1/3 300/1/3 301/1/3
f 305/1/3 304/1/3 303/1/3
f 306/1/3 304/1/3 305/1/3
f 309/1/3 308/1/3 307/1/3
f 310/1/3 308/1/3 309/1/3
f 313/1/3 312/1/3 311/1/3
f 314/1/3 312/1/3 313/1/3
f 317/1/3 316/1/3 315/1/3
f 318/1/3 316/1/3 317/1/3
f 321/1/3 320/1/3 319/1/3
f 322/1/3 320/1/3 321/1/3
f 325/1/3 324/1/3 323/1/3
f 326/1/3 324/1/3 325/1/3
f 329/1/3 328/1/3 327/1/3
f 330/1/3 328/1/3 329/1/3
f 333/1/3 332/1/3 331/1/3
f 334/1/3 332/1/3 333/1/3
f 337/1/3 336/1/3 335/1/3
f 338/1/3 336/1/3 337/1/3
f 341/1/3 340/1/3 339/1/3
f 342/1/3 340/1/3 341/1/3
f 345/1/3 344/1/3 343/1/3
f 346/1/3 344/1/3 345/1/3
f 349/1/3 348/1/3 347/1/3
f 350/1/3 348/1/3 349/1/3
f 351/1/3 348/1/3 350/1/3
f 352/1/3 348/1/3 351/1/3
f 353/1/3 351/1/3 350/1/3
f 354/1/3 351/1/3 353/1/3
f 357/1/3 356/1/3 355/1/3
f 358/1/3 356/1/3 357/1/3
f 361/1/3 360/1/3 359/1/3
f 362/1/3 360/1/3 361/1/3
f 365/1/3 364/1/3 363/1/3
f 366/1/3 364/1/3 365/1/3
f 369/1/3 368/1/3 367/1/3
f 370/1/3 368/1/3 369/1/3
f 373/1/3 372/1/3 371/1/3
f 374/1/3 372/1/3 373/1/3
f 377/1/3 376/1/3 375/1/3
f 378/1/3 376/1/3 377/1/3
f 381/1/3 380/1/3 379/1/3
f 383/1/3 381/1/3 379/1/3
f 383/1/3 382/1/3 381/1/3
f 384/1/3 382/1/3 383/1/3
f 387/1/3 386/1/3 385/1/3
f 388/1/3 386/1/3 387/1/3
f 391/1/3 390/1/3 389/1/3
f 392/1/3 390/1/3 391/1/3
f 395/1/3 394/1/3 393/1/3
f 396/1/3 394/1/3 395/1/3
f 399/1/3 398/1/3 397/1/3
f 400/1/3 398/1/3 399/1/3
f 403/1/3 402/1/3 401/1/3
f 404/1/3 402/1/3 403/1/3
f 407/1/3 406/1/3 405/1/3
f 408/1/3 406/1/3 407/1/3
f 411/1/3 410/1/3 409/1/3
f 412/1/3 410/1/3 411/1/3
f 415/1/3 414/1/3 413/1/3
f 416/1/3 414/1/3 415/1/3
f 423/1/3 422/1/3 421/1/3
f 424/1/3 422/1/3 423/1/3
f 425/1/3 422/1/3 424/1/3
f 426/1/3 422/1/3 425/1/3
f 427/1/3 422/1/3 426/1/3
f 428/1/3 422/1/3 427/1/3
f 430/1/3 422/1/3 428/1/3
f 431/1/3 418/1/3 417/1/3
f 432/1/3 418/1/3 431/1/3
f 433/1/3 420/1/3 419/1/3
f 434/1/3 420/1/3 433/1/3
f 435/1/3 430/1/3 429/1/3
f 436/1/3 422/1/3 430/1/3
f 436/1/3 430/1/3 435/1/3
f 441/1/4 442/1/4 443/1/4
f 443/1/4 442/1/4 444/1/4
f 437/1/4 438/1/4 447/1/4
f 447/1/4 438/1/4 448/1/4
f 439/1/4 440/1/4 449/1/4
f 449/1/4 440/1/4 450/1/4
f 445/1/4 446/1/4 451/1/4
f 451/1/4 446/1/4 452/1/4
f 453/1/4 454/1/4 455/1/4
f 455/1/4 454/1/4 456/1/4
f 453/1/4 455/1/4 457/1/4
f 456/1/4 454/1/4 458/1/4
f 453/1/4 457/1/4 459/1/4
f 457/1/4 458/1/4 459/1/4
f 458/1/4 454/1/4 460/1/4
f 459/1/4 458/1/4 460/1/4
f 461/1/4 462/1/4 463/1/4
f 463/1/4 462/1/4 464/1/4
f 465/1/4 466/1/4 467/1/4
f 467/1/4 466/1/4 468/1/4
f 469/1/4 470/1/4 471/1/4
f 471/1/4 470/1/4 472/1/4
f 473/1/4 474/1/4 475/1/4
f 475/1/4 474/1/4 476/1/4
f 477/1/4 478/1/4 479/1/4
f 479/1/4 478/1/4 480/1/4
f 481/1/4 482/1/4 483/1/4
f 483/1/4 482/1/4 484/1/4
f 485/1/4 486/1/4 487/1/4
f 487/1/4 486/1/4 488/1/4
f 489/1/4 490/1/4 491/1/4
f 491/1/4 490/1/4 492/1/4
f 493/1/4 494/1/4 495/1/4
f 495/1/4 494/1/4 496/1/4
f 497/1/4 498/1/4 499/1/4
f 499/1/4 498/1/4 500/1/4
f 501/1/4 502/1/4 503/1/4
f 503/1/4 502/1/4 504/1/4
f 504/1/4 502/1/4 505/1/4
f 505/1/4 502/1/4 506/1/4
f 504/1/4 505/1/4 507/1/4
f 507/1/4 505/1/4 508/1/4
f 509/1/4 510/1/4 511/1/4
f 511/1/4 510/1/4 512/1/4
f 513/1/4 514/1/4 515/1/4
f 515/1/4 514/1/4 516/1/4
f 517/1/4 518/1/4 519/1/4
f 519/1/4 518/1/4 520/1/4
f 521/1/4 522/1/4 523/1/4
f 523/1/4 522/1/4 524/1/4
f 525/1/4 526/1/4 527/1/4
f 527/1/4 526/1/4 528/1/4
f 529/1/4 530/1/4 531/1/4
f 531/1/4 530/1/4 532/1/4
f 533/1/4 534/1/4 535/1/4
f 535/1/4 534/1/4 536/1/4
f 537/1/4 538/1/4 539/1/4
f 539/1/4 538/1/4 540/1/4
f 541/1/4 542/1/4 543/1/4
f 543/1/4 542/1/4 544/1/4
f 545/1/4 546/1/4 547/1/4
f 547/1/4 546/1/4 548/1/4
f 548/1/4 546/1/4 549/1/4
f 549/1/4 546/1/4 550/1/4
f 550/1/4 546/1/4 551/1/4
f 551/1/4 546/1/4 552/1/4
f 553/1/4 554/1/4 555/1/4
f 555/1/4 554/1/4 556/1/4
f 559/1/5 558/1/5 557/1/5
f 560/1/5 558/1/5 559/1/5
f 563/1/5 562/1/5 561/1/5
f 564/1/5 562/1/5 563/1/5
f 567/1/5 566/1/5 565/1/5
f 568/1/5 566/1/5 567/1/5
f 571/1/5 570/1/5 569/1/5
f 572/1/5 570/1/5 571/1/5
f 575/1/5 574/1/5 573/1/5
f 576/1/5 574/1/5 575/1/5
f 579/1/5 578/1/5 577/1/5
f 580/1/5 578/1/5 579/1/5
f 583/1/5 582/1/5 581/1/5
f 584/1/5 582/1/5 583/1/5
f 585/1/6 586/1/6 588/1/6
f 587/1/6 588/1/6 589/1/6
f 588/1/6 586/1/6 590/1/6
f 589/1/6 588/1/6 590/1/6
f 590/1/6 586/1/6 591/1/6
f 591/1/6 586/1/6 592/1/6
f 593/1/6 594/1/6 595/1/6
f 595/1/6 594/1/6 596/1/6
f 597/1/6 598/1/6 600/1/6
f 600/1/6 598/1/6 601/1/6
f 599/1/6 600/1/6 601/1/6
f 601/1/6 598/1/6 602/1/6
f 599/1/6 601/1/6 603/1/6
f 603/1/6 601/1/6 604/1/6
f 602/1/6 598/1/6 605/1/6
f 605/1/6 598/1/6 606/1/6
f 599/1/6 603/1/6 607/1/6
f 607/1/6 603/1/6 608/1/6
f 606/1/6 598/1/6 609/1/6
f 609/1/6 598/1/6 610/1/6
f 611/1/6 612/1/6 613/1/6
f 613/1/6 612/1/6 614/1/6
f 599/1/6 607/1/6 615/1/6
f 610/1/6 598/1/6 618/1/6
f 615/1/6 616/1/6 619/1/6
f 617/1/6 618/1/6 622/1/6
f 619/1/6 620/1/6 623/1/6
f 621/1/6 622/1/6 624/1/6
f 622/1/6 618/1/6 625/1/6
f 623/1/6 624/1/6 625/1/6
f 624/1/6 622/1/6 625/1/6
f 618/1/6 598/1/6 626/1/6
f 625/1/6 618/1/6 626/1/6
f 623/1/6 625/1/6 627/1/6
f 627/1/6 625/1/6 628/1/6
f 626/1/6 598/1/6 629/1/6
f 629/1/6 598/1/6 630/1/6
f 623/1/6 627/1/6 631/1/6
f 631/1/6 627/1/6 632/1/6
f 630/1/6 598/1/6 633/1/6
f 633/1/6 598/1/6 634/1/6
f 619/1/6 623/1/6 635/1/6
f 623/1/6 631/1/6 635/1/6
f 635/1/6 631/1/6 636/1/6
f 634/1/6 598/1/6 637/1/6
f 637/1/6 598/1/6 638/1/6
f 615/1/6 619/1/6 639/1/6
f 619/1/6 635/1/6 639/1/6
f 639/1/6 635/1/6 640/1/6
f 638/1/6 598/1/6 641/1/6
f 641/1/6 598/1/6 642/1/6
f 599/1/6 615/1/6 643/1/6
f 615/1/6 639/1/6 643/1/6
f 643/1/6 639/1/6 644/1/6
f 642/1/6 598/1/6 645/1/6
f 645/1/6 598/1/6 646/1/6
f 647/1/6 648/1/6 649/1/6
f 649/1/6 648/1/6 650/1/6
f 599/1/6 643/1/6 651/1/6
f 646/1/6 598/1/6 654/1/6
f 651/1/6 652/1/6 655/1/6
f 653/1/6 654/1/6 658/1/6
f 655/1/6 656/1/6 659/1/6
f 657/1/6 658/1/6 662/1/6
f 659/1/6 660/1/6 663/1/6
f 661/1/6 662/1/6 666/1/6
f 663/1/6 664/1/6 667/1/6
f 665/1/6 666/1/6 670/1/6
f 667/1/6 668/1/6 671/1/6
f 669/1/6 670/1/6 672/1/6
f 599/1/6 651/1/6 673/1/6
f 671/1/6 672/1/6 673/1/6
f 667/1/6 671/1/6 673/1/6
f 651/1/6 655/1/6 673/1/6
f 655/1/6 659/1/6 673/1/6
f 659/1/6 663/1/6 673/1/6
f 663/1/6 667/1/6 673/1/6
f 673/1/6 672/1/6 674/1/6
f 599/1/6 673/1/6 675/1/6
f 675/1/6 673/1/6 676/1/6
f 674/1/6 672/1/6 677/1/6
f 677/1/6 672/1/6 678/1/6
f 678/1/6 672/1/6 679/1/6
f 672/1/6 670/1/6 680/1/6
f 679/1/6 672/1/6 680/1/6
f 654/1/6 598/1/6 680/1/6
f 670/1/6 666/1/6 680/1/6
f 658/1/6 654/1/6 680/1/6
f 662/1/6 658/1/6 680/1/6
f 666/1/6 662/1/6 680/1/6
f 681/1/6 682/1/6 683/1/6
f 683/1/6 682/1/6 684/1/6
f 685/1/6 686/1/6 687/1/6
f 687/1/6 686/1/6 688/1/6
f 689/1/6 690/1/6 691/1/6
f 691/1/6 690/1/6 692/1/6
f 693/1/6 694/1/6 695/1/6
f 695/1/6 694/1/6 696/1/6
f 697/1/6 698/1/6 699/1/6
f 699/1/6 698/1/6 700/1/6
f 697/1/6 699/1/6 701/1/6
f 701/1/6 699/1/6 702/1/6
f 697/1/6 701/1/6 703/1/6
f 703/1/6 701/1/6 704/1/6
f 697/1/6 703/1/6 705/1/6
f 705/1/6 703/1/6 706/1/6
f 697/1/6 705/1/6 707/1/6
f 707/1/6 705/1/6 708/1/6
f 697/1/6 707/1/6 709/1/6
f 709/1/6 707/1/6 710/1/6
f 697/1/6 709/1/6 711/1/6
f 711/1/6 709/1/6 712/1/6
f 713/1/6 714/1/6 716/1/6
f 715/1/6 716/1/6 718/1/6
f 717/1/6 718/1/6 720/1/6
f 719/1/6 720/1/6 722/1/6
f 721/1/6 722/1/6 724/1/6
f 723/1/6 724/1/6 726/1/6
f 725/1/6 726/1/6 728/1/6
f 727/1/6 728/1/6 729/1/6
f 716/1/6 714/1/6 730/1/6
f 729/1/6 728/1/6 730/1/6
f 718/1/6 716/1/6 730/1/6
f 728/1/6 726/1/6 730/1/6
f 720/1/6 718/1/6 730/1/6
f 726/1/6 724/1/6 730/1/6
f 722/1/6 720/1/6 730/1/6
f 724/1/6 722/1/6 730/1/6
f 731/1/6 732/1/6 733/1/6
f 733/1/6 732/1/6 734/1/6
f 735/1/6 736/1/6 737/1/6
f 737/1/6 736/1/6 738/1/6
f 739/1/6 740/1/6 741/1/6
f 741/1/6 740/1/6 742/1/6
f 743/1/6 744/1/6 745/1/6
f 745/1/6 744/1/6 746/1/6
f 743/1/6 745/1/6 747/1/6
f 747/1/6 745/1/6 748/1/6
f 749/1/6 750/1/6 751/1/6
f 751/1/6 750/1/6 752/1/6
f 753/1/6 754/1/6 755/1/6
f 753/1/6 755/1/6 757/1/6
f 755/1/6 756/1/6 757/1/6
f 757/1/6 756/1/6 758/1/6
f 743/1/6 747/1/6 759/1/6
f 746/1/6 744/1/6 760/1/6
f 743/1/6 759/1/6 761/1/6
f 759/1/6 760/1/6 761/1/6
f 760/1/6 744/1/6 762/1/6
f 761/1/6 760/1/6 762/1/6
f 763/1/6 764/1/6 766/1/6
f 766/1/6 764/1/6 767/1/6
f 765/1/6 766/1/6 770/1/6
f 767/1/6 768/1/6 770/1/6
f 766/1/6 767/1/6 770/1/6
f 770/1/6 768/1/6 771/1/6
f 769/1/6 770/1/6 773/1/6
f 771/1/6 772/1/6 773/1/6
f 770/1/6 771/1/6 773/1/6
f 773/1/6 772/1/6 774/1/6
f 769/1/6 773/1/6 775/1/6
f 774/1/6 772/1/6 776/1/6
f 769/1/6 775/1/6 777/1/6
f 775/1/6 776/1/6 777/1/6
f 777/1/6 776/1/6 778/1/6
f 776/1/6 772/1/6 779/1/6
f 778/1/6 776/1/6 779/1/6
f 779/1/6 772/1/6 780/1/6
f 778/1/6 779/1/6 781/1/6
f 781/1/6 779/1/6 782/1/6
f 782/1/6 779/1/6 783/1/6
f 783/1/6 779/1/6 784/1/6
f 782/1/6 783/1/6 785/1/6
f 785/1/6 783/1/6 786/1/6
f 787/1/6 788/1/6 790/1/6
f 790/1/6 788/1/6 791/1/6
f 789/1/6 790/1/6 794/1/6
f 791/1/6 792/1/6 794/1/6
f 790/1/6 791/1/6 794/1/6
f 794/1/6 792/1/6 795/1/6
f 793/1/6 794/1/6 798/1/6
f 795/1/6 796/1/6 798/1/6
f 794/1/6 795/1/6 798/1/6
f 798/1/6 796/1/6 799/1/6
f 797/1/6 798/1/6 802/1/6
f 799/1/6 800/1/6 802/1/6
f 798/1/6 799/1/6 802/1/6
f 802/1/6 800/1/6 803/1/6
f 801/1/6 802/1/6 806/1/6
f 803/1/6 804/1/6 806/1/6
f 802/1/6 803/1/6 806/1/6
f 806/1/6 804/1/6 807/1/6
f 805/1/6 806/1/6 809/1/6
f 807/1/6 808/1/6 809/1/6
f 806/1/6 807/1/6 809/1/6
f 809/1/6 808/1/6 810/1/6
f 805/1/6 809/1/6 811/1/6
f 810/1/6 808/1/6 812/1/6
f 805/1/6 811/1/6 813/1/6
f 811/1/6 812/1/6 813/1/6
f 813/1/6 812/1/6 814/1/6
f 812/1/6 808/1/6 815/1/6
f 814/1/6 812/1/6 815/1/6
f 815/1/6 808/1/6 816/1/6
f 814/1/6 815/1/6 817/1/6
f 817/1/6 815/1/6 818/1/6
f 818/1/6 815/1/6 819/1/6
f 819/1/6 815/1/6 820/1/6
f 818/1/6 819/1/6 821/1/6
f 821/1/6 819/1/6 822/1/6
f 822/1/6 819/1/6 823/1/6
f 823/1/6 819/1/6 824/1/6
f 822/1/6 823/1/6 825/1/6
f 825/1/6 823/1/6 826/1/6
f 826/1/6 823/1/6 827/1/6
f 827/1/6 823/1/6 828/1/6
f 826/1/6 827/1/6 829/1/6
f 829/1/6 827/1/6 830/1/6
f 830/1/6 827/1/6 831/1/6
f 831/1/6 827/1/6 832/1/6
f 830/1/6 831/1/6 833/1/6
f 833/1/6 831/1/6 834/1/6
