# MagicaVoxel @ Ephtracy

# group
g number_plate_2

# material
mtllib number_plate_2.mtl
usemtl palette

# normals
vn -1 0 0
vn 1 0 0
vn 0 0 1
vn 0 0 -1
vn 0 -1 0
vn 0 1 0

# texcoords
vt 0.970703 0.5
vt 0.994141 0.5

# verts
v -1 0 2.5
v -1 0 -2.5
v -1 10 2.5
v -1 10 -2.5
v 0 0 2.5
v 0 0 -2.5
v 0 1 1.5
v 0 1 -1.5
v 0 2 0.5
v 0 2 -1.5
v 0 4 1.5
v 0 4 0.5
v 0 4 -0.5
v 0 5 0.5
v 0 5 -0.5
v 0 5 -1.5
v 0 6 1.5
v 0 6 0.5
v 0 8 1.5
v 0 8 0.5
v 0 8 -0.5
v 0 8 -1.5
v 0 9 0.5
v 0 9 -0.5
v 0 10 2.5
v 0 10 -2.5
v 1 1 1.5
v 1 1 -1.5
v 1 2 0.5
v 1 2 -1.5
v 1 4 1.5
v 1 4 0.5
v 1 4 -0.5
v 1 5 0.5
v 1 5 -0.5
v 1 5 -1.5
v 1 6 1.5
v 1 6 0.5
v 1 8 1.5
v 1 8 0.5
v 1 8 -0.5
v 1 8 -1.5
v 1 9 0.5
v 1 9 -0.5
v -1 0 2.5
v -1 10 2.5
v 0 0 2.5
v 0 10 2.5
v 0 1 1.5
v 0 4 1.5
v 0 6 1.5
v 0 8 1.5
v 1 1 1.5
v 1 4 1.5
v 1 6 1.5
v 1 8 1.5
v 0 4 0.5
v 0 5 0.5
v 0 8 0.5
v 0 9 0.5
v 1 4 0.5
v 1 5 0.5
v 1 8 0.5
v 1 9 0.5
v 0 5 -0.5
v 0 8 -0.5
v 1 5 -0.5
v 1 8 -0.5
v 0 2 0.5
v 0 4 0.5
v 0 6 0.5
v 0 8 0.5
v 1 2 0.5
v 1 4 0.5
v 1 6 0.5
v 1 8 0.5
v 0 4 -0.5
v 0 5 -0.5
v 0 8 -0.5
v 0 9 -0.5
v 1 4 -0.5
v 1 5 -0.5
v 1 8 -0.5
v 1 9 -0.5
v 0 1 -1.5
v 0 2 -1.5
v 0 5 -1.5
v 0 8 -1.5
v 1 1 -1.5
v 1 2 -1.5
v 1 5 -1.5
v 1 8 -1.5
v -1 0 -2.5
v -1 10 -2.5
v 0 0 -2.5
v 0 10 -2.5
v -1 0 2.5
v 0 0 2.5
v -1 0 -2.5
v 0 0 -2.5
v 0 1 1.5
v 1 1 1.5
v 0 1 -1.5
v 1 1 -1.5
v 0 4 0.5
v 1 4 0.5
v 0 4 -0.5
v 1 4 -0.5
v 0 5 -0.5
v 1 5 -0.5
v 0 5 -1.5
v 1 5 -1.5
v 0 6 1.5
v 1 6 1.5
v 0 6 0.5
v 1 6 0.5
v 0 8 0.5
v 1 8 0.5
v 0 8 -0.5
v 1 8 -0.5
v 0 2 0.5
v 1 2 0.5
v 0 2 -1.5
v 1 2 -1.5
v 0 4 1.5
v 1 4 1.5
v 0 4 0.5
v 1 4 0.5
v 0 5 0.5
v 1 5 0.5
v 0 5 -0.5
v 1 5 -0.5
v 0 8 1.5
v 1 8 1.5
v 0 8 0.5
v 1 8 0.5
v 0 8 -0.5
v 1 8 -0.5
v 0 8 -1.5
v 1 8 -1.5
v 0 9 0.5
v 1 9 0.5
v 0 9 -0.5
v 1 9 -0.5
v -1 10 2.5
v 0 10 2.5
v -1 10 -2.5
v 0 10 -2.5

# faces
f 3/1/1 2/1/1 1/1/1
f 4/1/1 2/1/1 3/1/1
f 5/1/2 6/1/2 7/1/2
f 7/1/2 6/1/2 8/1/2
f 8/1/2 6/1/2 10/1/2
f 5/1/2 7/1/2 11/1/2
f 9/1/2 10/1/2 12/1/2
f 12/1/2 10/1/2 13/1/2
f 11/1/2 12/1/2 14/1/2
f 13/1/2 10/1/2 15/1/2
f 10/1/2 6/1/2 16/1/2
f 15/1/2 10/1/2 16/1/2
f 5/1/2 11/1/2 17/1/2
f 14/1/2 15/1/2 17/1/2
f 11/1/2 14/1/2 17/1/2
f 17/1/2 15/1/2 18/1/2
f 5/1/2 17/1/2 19/1/2
f 18/1/2 15/1/2 20/1/2
f 20/1/2 15/1/2 21/1/2
f 16/1/2 6/1/2 22/1/2
f 19/1/2 20/1/2 23/1/2
f 21/1/2 22/1/2 24/1/2
f 19/1/2 23/1/2 25/1/2
f 23/1/2 24/1/2 25/1/2
f 5/1/2 19/1/2 25/1/2
f 24/1/2 22/1/2 26/1/2
f 25/1/2 24/1/2 26/1/2
f 22/1/2 6/1/2 26/1/2
f 27/2/2 28/2/2 29/2/2
f 29/2/2 28/2/2 30/2/2
f 27/2/2 29/2/2 31/2/2
f 31/2/2 29/2/2 32/2/2
f 32/2/2 33/2/2 34/2/2
f 34/2/2 33/2/2 35/2/2
f 37/2/2 38/2/2 39/2/2
f 39/2/2 38/2/2 40/2/2
f 35/2/2 36/2/2 41/2/2
f 41/2/2 36/2/2 42/2/2
f 40/2/2 41/2/2 43/2/2
f 43/2/2 41/2/2 44/2/2
f 47/1/3 46/1/3 45/1/3
f 48/1/3 46/1/3 47/1/3
f 53/2/3 50/2/3 49/2/3
f 54/2/3 50/2/3 53/2/3
f 55/2/3 52/2/3 51/2/3
f 56/2/3 52/2/3 55/2/3
f 61/2/3 58/2/3 57/2/3
f 62/2/3 58/2/3 61/2/3
f 63/2/3 60/2/3 59/2/3
f 64/2/3 60/2/3 63/2/3
f 67/2/3 66/2/3 65/2/3
f 68/2/3 66/2/3 67/2/3
f 69/2/4 70/2/4 73/2/4
f 73/2/4 70/2/4 74/2/4
f 71/2/4 72/2/4 75/2/4
f 75/2/4 72/2/4 76/2/4
f 77/2/4 78/2/4 81/2/4
f 81/2/4 78/2/4 82/2/4
f 79/2/4 80/2/4 83/2/4
f 83/2/4 80/2/4 84/2/4
f 85/2/4 86/2/4 89/2/4
f 89/2/4 86/2/4 90/2/4
f 87/2/4 88/2/4 91/2/4
f 91/2/4 88/2/4 92/2/4
f 93/1/4 94/1/4 95/1/4
f 95/1/4 94/1/4 96/1/4
f 99/1/5 98/1/5 97/1/5
f 100/1/5 98/1/5 99/1/5
f 103/2/5 102/2/5 101/2/5
f 104/2/5 102/2/5 103/2/5
f 107/2/5 106/2/5 105/2/5
f 108/2/5 106/2/5 107/2/5
f 111/2/5 110/2/5 109/2/5
f 112/2/5 110/2/5 111/2/5
f 115/2/5 114/2/5 113/2/5
f 116/2/5 114/2/5 115/2/5
f 119/2/5 118/2/5 117/2/5
f 120/2/5 118/2/5 119/2/5
f 121/2/6 122/2/6 123/2/6
f 123/2/6 122/2/6 124/2/6
f 125/2/6 126/2/6 127/2/6
f 127/2/6 126/2/6 128/2/6
f 129/2/6 130/2/6 131/2/6
f 131/2/6 130/2/6 132/2/6
f 133/2/6 134/2/6 135/2/6
f 135/2/6 134/2/6 136/2/6
f 137/2/6 138/2/6 139/2/6
f 139/2/6 138/2/6 140/2/6
f 141/2/6 142/2/6 143/2/6
f 143/2/6 142/2/6 144/2/6
f 145/1/6 146/1/6 147/1/6
f 147/1/6 146/1/6 148/1/6
