# MagicaVoxel @ Ephtracy

# group
g number_plate_6

# material
mtllib number_plate_6.mtl
usemtl palette

# normals
vn -1 0 0
vn 1 0 0
vn 0 0 1
vn 0 0 -1
vn 0 -1 0
vn 0 1 0

# texcoords
vt 0.970703 0.5
vt 0.994141 0.5

# verts
v -2.5 0 1
v -2.5 0 -0
v -2.5 10 1
v -2.5 10 -0
v -1.5 2 -0
v -1.5 2 -1
v -1.5 5 -0
v -1.5 5 -1
v -1.5 8 -0
v -1.5 8 -1
v -1.5 9 -0
v -1.5 9 -1
v -0.5 1 -0
v -0.5 1 -1
v -0.5 2 -0
v -0.5 2 -1
v -0.5 5 -0
v -0.5 5 -1
v -0.5 6 -0
v -0.5 6 -1
v 0.5 2 -0
v 0.5 2 -1
v 0.5 5 -0
v 0.5 5 -1
v 0.5 6 -0
v 0.5 6 -1
v 0.5 8 -0
v 0.5 8 -1
v -0.5 2 -0
v -0.5 2 -1
v -0.5 5 -0
v -0.5 5 -1
v 0.5 1 -0
v 0.5 1 -1
v 0.5 2 -0
v 0.5 2 -1
v 0.5 8 -0
v 0.5 8 -1
v 0.5 9 -0
v 0.5 9 -1
v 1.5 2 -0
v 1.5 2 -1
v 1.5 8 -0
v 1.5 8 -1
v 2.5 0 1
v 2.5 0 -0
v 2.5 10 1
v 2.5 10 -0
v -2.5 0 1
v -2.5 10 1
v 2.5 0 1
v 2.5 10 1
v -2.5 0 -0
v -2.5 10 -0
v -1.5 2 -0
v -1.5 5 -0
v -1.5 8 -0
v -1.5 9 -0
v -0.5 1 -0
v -0.5 2 -0
v -0.5 5 -0
v -0.5 6 -0
v 0.5 1 -0
v 0.5 2 -0
v 0.5 5 -0
v 0.5 6 -0
v 0.5 8 -0
v 0.5 9 -0
v 1.5 2 -0
v 1.5 8 -0
v 2.5 0 -0
v 2.5 10 -0
v -1.5 2 -1
v -1.5 5 -1
v -1.5 8 -1
v -1.5 9 -1
v -0.5 1 -1
v -0.5 2 -1
v -0.5 5 -1
v -0.5 6 -1
v 0.5 1 -1
v 0.5 2 -1
v 0.5 5 -1
v 0.5 6 -1
v 0.5 8 -1
v 0.5 9 -1
v 1.5 2 -1
v 1.5 8 -1
v -2.5 0 1
v 2.5 0 1
v -2.5 0 -0
v 2.5 0 -0
v -0.5 1 -0
v 0.5 1 -0
v -0.5 1 -1
v 0.5 1 -1
v -1.5 2 -0
v -0.5 2 -0
v 0.5 2 -0
v 1.5 2 -0
v -1.5 2 -1
v -0.5 2 -1
v 0.5 2 -1
v 1.5 2 -1
v -0.5 5 -0
v 0.5 5 -0
v -0.5 5 -1
v 0.5 5 -1
v -1.5 8 -0
v 0.5 8 -0
v -1.5 8 -1
v 0.5 8 -1
v -0.5 2 -0
v 0.5 2 -0
v -0.5 2 -1
v 0.5 2 -1
v -1.5 5 -0
v -0.5 5 -0
v -1.5 5 -1
v -0.5 5 -1
v -0.5 6 -0
v 0.5 6 -0
v -0.5 6 -1
v 0.5 6 -1
v 0.5 8 -0
v 1.5 8 -0
v 0.5 8 -1
v 1.5 8 -1
v -1.5 9 -0
v 0.5 9 -0
v -1.5 9 -1
v 0.5 9 -1
v -2.5 10 1
v 2.5 10 1
v -2.5 10 -0
v 2.5 10 -0

# faces
f 3/1/1 2/1/1 1/1/1
f 4/1/1 2/1/1 3/1/1
f 7/2/1 6/2/1 5/2/1
f 8/2/1 6/2/1 7/2/1
f 11/2/1 10/2/1 9/2/1
f 12/2/1 10/2/1 11/2/1
f 15/2/1 14/2/1 13/2/1
f 16/2/1 14/2/1 15/2/1
f 19/2/1 18/2/1 17/2/1
f 20/2/1 18/2/1 19/2/1
f 23/2/1 22/2/1 21/2/1
f 24/2/1 22/2/1 23/2/1
f 27/2/1 26/2/1 25/2/1
f 28/2/1 26/2/1 27/2/1
f 29/2/2 30/2/2 31/2/2
f 31/2/2 30/2/2 32/2/2
f 33/2/2 34/2/2 35/2/2
f 35/2/2 34/2/2 36/2/2
f 37/2/2 38/2/2 39/2/2
f 39/2/2 38/2/2 40/2/2
f 41/2/2 42/2/2 43/2/2
f 43/2/2 42/2/2 44/2/2
f 45/1/2 46/1/2 47/1/2
f 47/1/2 46/1/2 48/1/2
f 51/1/3 50/1/3 49/1/3
f 52/1/3 50/1/3 51/1/3
f 53/1/4 54/1/4 55/1/4
f 55/1/4 54/1/4 56/1/4
f 56/1/4 54/1/4 57/1/4
f 57/1/4 54/1/4 58/1/4
f 53/1/4 55/1/4 59/1/4
f 59/1/4 55/1/4 60/1/4
f 56/1/4 57/1/4 61/1/4
f 61/1/4 57/1/4 62/1/4
f 53/1/4 59/1/4 63/1/4
f 60/1/4 61/1/4 64/1/4
f 64/1/4 61/1/4 65/1/4
f 62/1/4 57/1/4 66/1/4
f 66/1/4 57/1/4 67/1/4
f 58/1/4 54/1/4 68/1/4
f 63/1/4 64/1/4 69/1/4
f 67/1/4 68/1/4 70/1/4
f 63/1/4 69/1/4 71/1/4
f 69/1/4 70/1/4 71/1/4
f 53/1/4 63/1/4 71/1/4
f 70/1/4 68/1/4 72/1/4
f 71/1/4 70/1/4 72/1/4
f 68/1/4 54/1/4 72/1/4
f 73/2/4 74/2/4 78/2/4
f 78/2/4 74/2/4 79/2/4
f 77/2/4 78/2/4 81/2/4
f 81/2/4 78/2/4 82/2/4
f 79/2/4 80/2/4 83/2/4
f 83/2/4 80/2/4 84/2/4
f 75/2/4 76/2/4 85/2/4
f 85/2/4 76/2/4 86/2/4
f 83/2/4 84/2/4 87/2/4
f 84/2/4 85/2/4 87/2/4
f 82/2/4 83/2/4 87/2/4
f 87/2/4 85/2/4 88/2/4
f 91/1/5 90/1/5 89/1/5
f 92/1/5 90/1/5 91/1/5
f 95/2/5 94/2/5 93/2/5
f 96/2/5 94/2/5 95/2/5
f 101/2/5 98/2/5 97/2/5
f 102/2/5 98/2/5 101/2/5
f 103/2/5 100/2/5 99/2/5
f 104/2/5 100/2/5 103/2/5
f 107/2/5 106/2/5 105/2/5
f 108/2/5 106/2/5 107/2/5
f 111/2/5 110/2/5 109/2/5
f 112/2/5 110/2/5 111/2/5
f 113/2/6 114/2/6 115/2/6
f 115/2/6 114/2/6 116/2/6
f 117/2/6 118/2/6 119/2/6
f 119/2/6 118/2/6 120/2/6
f 121/2/6 122/2/6 123/2/6
f 123/2/6 122/2/6 124/2/6
f 125/2/6 126/2/6 127/2/6
f 127/2/6 126/2/6 128/2/6
f 129/2/6 130/2/6 131/2/6
f 131/2/6 130/2/6 132/2/6
f 133/1/6 134/1/6 135/1/6
f 135/1/6 134/1/6 136/1/6
