# MagicaVoxel @ Ephtracy

# group
g number_plate_6

# material
mtllib number_plate_6.mtl
usemtl palette

# normals
vn -1 0 0
vn 1 0 0
vn 0 0 1
vn 0 0 -1
vn 0 -1 0
vn 0 1 0

# texcoords
vt 0.970703 0.5
vt 0.994141 0.5

# verts
v -1 0 2.5
v -1 0 -2.5
v -1 10 2.5
v -1 10 -2.5
v 0 0 2.5
v 0 0 -2.5
v 0 1 0.5
v 0 1 -0.5
v 0 2 1.5
v 0 2 0.5
v 0 2 -0.5
v 0 2 -1.5
v 0 5 0.5
v 0 5 -0.5
v 0 5 -1.5
v 0 6 0.5
v 0 6 -0.5
v 0 8 1.5
v 0 8 0.5
v 0 8 -1.5
v 0 9 0.5
v 0 9 -1.5
v 0 10 2.5
v 0 10 -2.5
v 1 1 0.5
v 1 1 -0.5
v 1 2 1.5
v 1 2 0.5
v 1 2 -0.5
v 1 2 -1.5
v 1 5 0.5
v 1 5 -0.5
v 1 5 -1.5
v 1 6 0.5
v 1 6 -0.5
v 1 8 1.5
v 1 8 0.5
v 1 8 -1.5
v 1 9 0.5
v 1 9 -1.5
v -1 0 2.5
v -1 10 2.5
v 0 0 2.5
v 0 10 2.5
v 0 2 1.5
v 0 8 1.5
v 1 2 1.5
v 1 8 1.5
v 0 1 0.5
v 0 2 0.5
v 0 8 0.5
v 0 9 0.5
v 1 1 0.5
v 1 2 0.5
v 1 8 0.5
v 1 9 0.5
v 0 2 -0.5
v 0 5 -0.5
v 1 2 -0.5
v 1 5 -0.5
v 0 2 0.5
v 0 5 0.5
v 0 6 0.5
v 0 8 0.5
v 1 2 0.5
v 1 5 0.5
v 1 6 0.5
v 1 8 0.5
v 0 1 -0.5
v 0 2 -0.5
v 0 5 -0.5
v 0 6 -0.5
v 1 1 -0.5
v 1 2 -0.5
v 1 5 -0.5
v 1 6 -0.5
v 0 2 -1.5
v 0 5 -1.5
v 0 8 -1.5
v 0 9 -1.5
v 1 2 -1.5
v 1 5 -1.5
v 1 8 -1.5
v 1 9 -1.5
v -1 0 -2.5
v -1 10 -2.5
v 0 0 -2.5
v 0 10 -2.5
v -1 0 2.5
v 0 0 2.5
v -1 0 -2.5
v 0 0 -2.5
v 0 1 0.5
v 1 1 0.5
v 0 1 -0.5
v 1 1 -0.5
v 0 2 1.5
v 1 2 1.5
v 0 2 0.5
v 1 2 0.5
v 0 2 -0.5
v 1 2 -0.5
v 0 2 -1.5
v 1 2 -1.5
v 0 5 0.5
v 1 5 0.5
v 0 5 -0.5
v 1 5 -0.5
v 0 8 0.5
v 1 8 0.5
v 0 8 -1.5
v 1 8 -1.5
v 0 2 0.5
v 1 2 0.5
v 0 2 -0.5
v 1 2 -0.5
v 0 5 -0.5
v 1 5 -0.5
v 0 5 -1.5
v 1 5 -1.5
v 0 6 0.5
v 1 6 0.5
v 0 6 -0.5
v 1 6 -0.5
v 0 8 1.5
v 1 8 1.5
v 0 8 0.5
v 1 8 0.5
v 0 9 0.5
v 1 9 0.5
v 0 9 -1.5
v 1 9 -1.5
v -1 10 2.5
v 0 10 2.5
v -1 10 -2.5
v 0 10 -2.5

# faces
f 3/1/1 2/1/1 1/1/1
f 4/1/1 2/1/1 3/1/1
f 5/1/2 6/1/2 7/1/2
f 7/1/2 6/1/2 8/1/2
f 5/1/2 7/1/2 9/1/2
f 9/1/2 7/1/2 10/1/2
f 8/1/2 6/1/2 11/1/2
f 11/1/2 6/1/2 12/1/2
f 10/1/2 11/1/2 13/1/2
f 13/1/2 11/1/2 14/1/2
f 12/1/2 6/1/2 15/1/2
f 14/1/2 15/1/2 17/1/2
f 5/1/2 9/1/2 18/1/2
f 16/1/2 17/1/2 19/1/2
f 15/1/2 6/1/2 20/1/2
f 17/1/2 15/1/2 20/1/2
f 19/1/2 17/1/2 20/1/2
f 18/1/2 19/1/2 21/1/2
f 20/1/2 6/1/2 22/1/2
f 18/1/2 21/1/2 23/1/2
f 21/1/2 22/1/2 23/1/2
f 5/1/2 18/1/2 23/1/2
f 22/1/2 6/1/2 24/1/2
f 23/1/2 22/1/2 24/1/2
f 25/2/2 26/2/2 28/2/2
f 28/2/2 26/2/2 29/2/2
f 27/2/2 28/2/2 31/2/2
f 29/2/2 30/2/2 32/2/2
f 32/2/2 30/2/2 33/2/2
f 27/2/2 31/2/2 34/2/2
f 31/2/2 32/2/2 34/2/2
f 34/2/2 32/2/2 35/2/2
f 27/2/2 34/2/2 36/2/2
f 36/2/2 34/2/2 37/2/2
f 37/2/2 38/2/2 39/2/2
f 39/2/2 38/2/2 40/2/2
f 43/1/3 42/1/3 41/1/3
f 44/1/3 42/1/3 43/1/3
f 47/2/3 46/2/3 45/2/3
f 48/2/3 46/2/3 47/2/3
f 53/2/3 50/2/3 49/2/3
f 54/2/3 50/2/3 53/2/3
f 55/2/3 52/2/3 51/2/3
f 56/2/3 52/2/3 55/2/3
f 59/2/3 58/2/3 57/2/3
f 60/2/3 58/2/3 59/2/3
f 61/2/4 62/2/4 65/2/4
f 65/2/4 62/2/4 66/2/4
f 63/2/4 64/2/4 67/2/4
f 67/2/4 64/2/4 68/2/4
f 69/2/4 70/2/4 73/2/4
f 73/2/4 70/2/4 74/2/4
f 71/2/4 72/2/4 75/2/4
f 75/2/4 72/2/4 76/2/4
f 77/2/4 78/2/4 81/2/4
f 81/2/4 78/2/4 82/2/4
f 79/2/4 80/2/4 83/2/4
f 83/2/4 80/2/4 84/2/4
f 85/1/4 86/1/4 87/1/4
f 87/1/4 86/1/4 88/1/4
f 91/1/5 90/1/5 89/1/5
f 92/1/5 90/1/5 91/1/5
f 95/2/5 94/2/5 93/2/5
f 96/2/5 94/2/5 95/2/5
f 99/2/5 98/2/5 97/2/5
f 100/2/5 98/2/5 99/2/5
f 103/2/5 102/2/5 101/2/5
f 104/2/5 102/2/5 103/2/5
f 107/2/5 106/2/5 105/2/5
f 108/2/5 106/2/5 107/2/5
f 111/2/5 110/2/5 109/2/5
f 112/2/5 110/2/5 111/2/5
f 113/2/6 114/2/6 115/2/6
f 115/2/6 114/2/6 116/2/6
f 117/2/6 118/2/6 119/2/6
f 119/2/6 118/2/6 120/2/6
f 121/2/6 122/2/6 123/2/6
f 123/2/6 122/2/6 124/2/6
f 125/2/6 126/2/6 127/2/6
f 127/2/6 126/2/6 128/2/6
f 129/2/6 130/2/6 131/2/6
f 131/2/6 130/2/6 132/2/6
f 133/1/6 134/1/6 135/1/6
f 135/1/6 134/1/6 136/1/6
