# MagicaVoxel @ Ephtracy

# group
g number_plate_0

# material
mtllib number_plate_0.mtl
usemtl palette

# normals
vn -1 0 0
vn 1 0 0
vn 0 0 1
vn 0 0 -1
vn 0 -1 0
vn 0 1 0

# texcoords
vt 0.970703 0.5
vt 0.994141 0.5

# verts
v -2.5 0 1
v -2.5 0 -0
v -2.5 10 1
v -2.5 10 -0
v -1.5 2 -0
v -1.5 2 -1
v -1.5 8 -0
v -1.5 8 -1
v -0.5 1 -0
v -0.5 1 -1
v -0.5 2 -0
v -0.5 2 -1
v -0.5 8 -0
v -0.5 8 -1
v -0.5 9 -0
v -0.5 9 -1
v 0.5 2 -0
v 0.5 2 -1
v 0.5 8 -0
v 0.5 8 -1
v -0.5 2 -0
v -0.5 2 -1
v -0.5 8 -0
v -0.5 8 -1
v 0.5 1 -0
v 0.5 1 -1
v 0.5 2 -0
v 0.5 2 -1
v 0.5 8 -0
v 0.5 8 -1
v 0.5 9 -0
v 0.5 9 -1
v 1.5 2 -0
v 1.5 2 -1
v 1.5 8 -0
v 1.5 8 -1
v 2.5 0 1
v 2.5 0 -0
v 2.5 10 1
v 2.5 10 -0
v -2.5 0 1
v -2.5 10 1
v 2.5 0 1
v 2.5 10 1
v -2.5 0 -0
v -2.5 10 -0
v -1.5 2 -0
v -1.5 8 -0
v -0.5 1 -0
v -0.5 2 -0
v -0.5 8 -0
v -0.5 9 -0
v 0.5 1 -0
v 0.5 2 -0
v 0.5 8 -0
v 0.5 9 -0
v 1.5 2 -0
v 1.5 8 -0
v 2.5 0 -0
v 2.5 10 -0
v -1.5 2 -1
v -1.5 8 -1
v -0.5 1 -1
v -0.5 2 -1
v -0.5 8 -1
v -0.5 9 -1
v 0.5 1 -1
v 0.5 2 -1
v 0.5 8 -1
v 0.5 9 -1
v 1.5 2 -1
v 1.5 8 -1
v -2.5 0 1
v 2.5 0 1
v -2.5 0 -0
v 2.5 0 -0
v -0.5 1 -0
v 0.5 1 -0
v -0.5 1 -1
v 0.5 1 -1
v -1.5 2 -0
v -0.5 2 -0
v 0.5 2 -0
v 1.5 2 -0
v -1.5 2 -1
v -0.5 2 -1
v 0.5 2 -1
v 1.5 2 -1
v -0.5 8 -0
v 0.5 8 -0
v -0.5 8 -1
v 0.5 8 -1
v -0.5 2 -0
v 0.5 2 -0
v -0.5 2 -1
v 0.5 2 -1
v -1.5 8 -0
v -0.5 8 -0
v 0.5 8 -0
v 1.5 8 -0
v -1.5 8 -1
v -0.5 8 -1
v 0.5 8 -1
v 1.5 8 -1
v -0.5 9 -0
v 0.5 9 -0
v -0.5 9 -1
v 0.5 9 -1
v -2.5 10 1
v 2.5 10 1
v -2.5 10 -0
v 2.5 10 -0

# faces
f 3/1/1 2/1/1 1/1/1
f 4/1/1 2/1/1 3/1/1
f 7/2/1 6/2/1 5/2/1
f 8/2/1 6/2/1 7/2/1
f 11/2/1 10/2/1 9/2/1
f 12/2/1 10/2/1 11/2/1
f 15/2/1 14/2/1 13/2/1
f 16/2/1 14/2/1 15/2/1
f 19/2/1 18/2/1 17/2/1
f 20/2/1 18/2/1 19/2/1
f 21/2/2 22/2/2 23/2/2
f 23/2/2 22/2/2 24/2/2
f 25/2/2 26/2/2 27/2/2
f 27/2/2 26/2/2 28/2/2
f 29/2/2 30/2/2 31/2/2
f 31/2/2 30/2/2 32/2/2
f 33/2/2 34/2/2 35/2/2
f 35/2/2 34/2/2 36/2/2
f 37/1/2 38/1/2 39/1/2
f 39/1/2 38/1/2 40/1/2
f 43/1/3 42/1/3 41/1/3
f 44/1/3 42/1/3 43/1/3
f 45/1/4 46/1/4 47/1/4
f 47/1/4 46/1/4 48/1/4
f 45/1/4 47/1/4 49/1/4
f 49/1/4 47/1/4 50/1/4
f 48/1/4 46/1/4 51/1/4
f 51/1/4 46/1/4 52/1/4
f 45/1/4 49/1/4 53/1/4
f 50/1/4 51/1/4 54/1/4
f 54/1/4 51/1/4 55/1/4
f 52/1/4 46/1/4 56/1/4
f 53/1/4 54/1/4 57/1/4
f 55/1/4 56/1/4 58/1/4
f 53/1/4 57/1/4 59/1/4
f 57/1/4 58/1/4 59/1/4
f 45/1/4 53/1/4 59/1/4
f 58/1/4 56/1/4 60/1/4
f 59/1/4 58/1/4 60/1/4
f 56/1/4 46/1/4 60/1/4
f 61/2/4 62/2/4 64/2/4
f 64/2/4 62/2/4 65/2/4
f 63/2/4 64/2/4 67/2/4
f 67/2/4 64/2/4 68/2/4
f 65/2/4 66/2/4 69/2/4
f 69/2/4 66/2/4 70/2/4
f 68/2/4 69/2/4 71/2/4
f 71/2/4 69/2/4 72/2/4
f 75/1/5 74/1/5 73/1/5
f 76/1/5 74/1/5 75/1/5
f 79/2/5 78/2/5 77/2/5
f 80/2/5 78/2/5 79/2/5
f 85/2/5 82/2/5 81/2/5
f 86/2/5 82/2/5 85/2/5
f 87/2/5 84/2/5 83/2/5
f 88/2/5 84/2/5 87/2/5
f 91/2/5 90/2/5 89/2/5
f 92/2/5 90/2/5 91/2/5
f 93/2/6 94/2/6 95/2/6
f 95/2/6 94/2/6 96/2/6
f 97/2/6 98/2/6 101/2/6
f 101/2/6 98/2/6 102/2/6
f 99/2/6 100/2/6 103/2/6
f 103/2/6 100/2/6 104/2/6
f 105/2/6 106/2/6 107/2/6
f 107/2/6 106/2/6 108/2/6
f 109/1/6 110/1/6 111/1/6
f 111/1/6 110/1/6 112/1/6
