# MagicaVoxel @ Ephtracy

# group
g number_plate_5

# material
mtllib number_plate_5.mtl
usemtl palette

# normals
vn -1 0 0
vn 1 0 0
vn 0 0 1
vn 0 0 -1
vn 0 -1 0
vn 0 1 0

# texcoords
vt 0.970703 0.5
vt 0.994141 0.5

# verts
v -2.5 0 1
v -2.5 0 -0
v -2.5 10 1
v -2.5 10 -0
v -1.5 2 -0
v -1.5 2 -1
v -1.5 5 -0
v -1.5 5 -1
v -1.5 8 -0
v -1.5 8 -1
v -1.5 9 -0
v -1.5 9 -1
v -0.5 1 -0
v -0.5 1 -1
v -0.5 2 -0
v -0.5 2 -1
v -0.5 5 -0
v -0.5 5 -1
v -0.5 6 -0
v -0.5 6 -1
v 0.5 2 -0
v 0.5 2 -1
v 0.5 3 -0
v 0.5 3 -1
v 0.5 6 -0
v 0.5 6 -1
v 0.5 8 -0
v 0.5 8 -1
v -0.5 2 -0
v -0.5 2 -1
v -0.5 5 -0
v -0.5 5 -1
v 0.5 1 -0
v 0.5 1 -1
v 0.5 2 -0
v 0.5 2 -1
v 0.5 5 -0
v 0.5 5 -1
v 0.5 6 -0
v 0.5 6 -1
v 1.5 2 -0
v 1.5 2 -1
v 1.5 3 -0
v 1.5 3 -1
v 1.5 6 -0
v 1.5 6 -1
v 1.5 9 -0
v 1.5 9 -1
v 2.5 0 1
v 2.5 0 -0
v 2.5 10 1
v 2.5 10 -0
v -2.5 0 1
v -2.5 10 1
v 2.5 0 1
v 2.5 10 1
v -2.5 0 -0
v -2.5 10 -0
v -1.5 2 -0
v -1.5 5 -0
v -1.5 8 -0
v -1.5 9 -0
v -0.5 1 -0
v -0.5 2 -0
v -0.5 5 -0
v -0.5 6 -0
v 0.5 1 -0
v 0.5 2 -0
v 0.5 3 -0
v 0.5 5 -0
v 0.5 6 -0
v 0.5 8 -0
v 1.5 2 -0
v 1.5 3 -0
v 1.5 6 -0
v 1.5 9 -0
v 2.5 0 -0
v 2.5 10 -0
v -1.5 2 -1
v -1.5 5 -1
v -1.5 8 -1
v -1.5 9 -1
v -0.5 1 -1
v -0.5 2 -1
v -0.5 5 -1
v -0.5 6 -1
v 0.5 1 -1
v 0.5 2 -1
v 0.5 3 -1
v 0.5 5 -1
v 0.5 6 -1
v 0.5 8 -1
v 1.5 2 -1
v 1.5 3 -1
v 1.5 6 -1
v 1.5 9 -1
v -2.5 0 1
v 2.5 0 1
v -2.5 0 -0
v 2.5 0 -0
v -0.5 1 -0
v 0.5 1 -0
v -0.5 1 -1
v 0.5 1 -1
v -1.5 2 -0
v -0.5 2 -0
v 0.5 2 -0
v 1.5 2 -0
v -1.5 2 -1
v -0.5 2 -1
v 0.5 2 -1
v 1.5 2 -1
v -0.5 5 -0
v 0.5 5 -0
v -0.5 5 -1
v 0.5 5 -1
v 0.5 6 -0
v 1.5 6 -0
v 0.5 6 -1
v 1.5 6 -1
v -1.5 8 -0
v 0.5 8 -0
v -1.5 8 -1
v 0.5 8 -1
v -0.5 2 -0
v 0.5 2 -0
v -0.5 2 -1
v 0.5 2 -1
v 0.5 3 -0
v 1.5 3 -0
v 0.5 3 -1
v 1.5 3 -1
v -1.5 5 -0
v -0.5 5 -0
v -1.5 5 -1
v -0.5 5 -1
v -0.5 6 -0
v 0.5 6 -0
v -0.5 6 -1
v 0.5 6 -1
v -1.5 9 -0
v 1.5 9 -0
v -1.5 9 -1
v 1.5 9 -1
v -2.5 10 1
v 2.5 10 1
v -2.5 10 -0
v 2.5 10 -0

# faces
f 3/1/1 2/1/1 1/1/1
f 4/1/1 2/1/1 3/1/1
f 7/2/1 6/2/1 5/2/1
f 8/2/1 6/2/1 7/2/1
f 11/2/1 10/2/1 9/2/1
f 12/2/1 10/2/1 11/2/1
f 15/2/1 14/2/1 13/2/1
f 16/2/1 14/2/1 15/2/1
f 19/2/1 18/2/1 17/2/1
f 20/2/1 18/2/1 19/2/1
f 23/2/1 22/2/1 21/2/1
f 24/2/1 22/2/1 23/2/1
f 27/2/1 26/2/1 25/2/1
f 28/2/1 26/2/1 27/2/1
f 29/2/2 30/2/2 31/2/2
f 31/2/2 30/2/2 32/2/2
f 33/2/2 34/2/2 35/2/2
f 35/2/2 34/2/2 36/2/2
f 37/2/2 38/2/2 39/2/2
f 39/2/2 38/2/2 40/2/2
f 41/2/2 42/2/2 43/2/2
f 43/2/2 42/2/2 44/2/2
f 45/2/2 46/2/2 47/2/2
f 47/2/2 46/2/2 48/2/2
f 49/1/2 50/1/2 51/1/2
f 51/1/2 50/1/2 52/1/2
f 55/1/3 54/1/3 53/1/3
f 56/1/3 54/1/3 55/1/3
f 57/1/4 58/1/4 59/1/4
f 59/1/4 58/1/4 60/1/4
f 60/1/4 58/1/4 61/1/4
f 61/1/4 58/1/4 62/1/4
f 57/1/4 59/1/4 63/1/4
f 63/1/4 59/1/4 64/1/4
f 60/1/4 61/1/4 65/1/4
f 65/1/4 61/1/4 66/1/4
f 57/1/4 63/1/4 67/1/4
f 64/1/4 65/1/4 68/1/4
f 68/1/4 65/1/4 69/1/4
f 69/1/4 65/1/4 70/1/4
f 66/1/4 61/1/4 71/1/4
f 71/1/4 61/1/4 72/1/4
f 67/1/4 68/1/4 73/1/4
f 69/1/4 70/1/4 74/1/4
f 70/1/4 71/1/4 74/1/4
f 74/1/4 71/1/4 75/1/4
f 62/1/4 58/1/4 76/1/4
f 74/1/4 75/1/4 77/1/4
f 75/1/4 76/1/4 77/1/4
f 67/1/4 73/1/4 77/1/4
f 57/1/4 67/1/4 77/1/4
f 73/1/4 74/1/4 77/1/4
f 76/1/4 58/1/4 78/1/4
f 77/1/4 76/1/4 78/1/4
f 79/2/4 80/2/4 84/2/4
f 84/2/4 80/2/4 85/2/4
f 83/2/4 84/2/4 87/2/4
f 87/2/4 84/2/4 88/2/4
f 85/2/4 86/2/4 90/2/4
f 90/2/4 86/2/4 91/2/4
f 81/2/4 82/2/4 92/2/4
f 88/2/4 89/2/4 93/2/4
f 93/2/4 89/2/4 94/2/4
f 91/2/4 92/2/4 95/2/4
f 92/2/4 82/2/4 96/2/4
f 95/2/4 92/2/4 96/2/4
f 99/1/5 98/1/5 97/1/5
f 100/1/5 98/1/5 99/1/5
f 103/2/5 102/2/5 101/2/5
f 104/2/5 102/2/5 103/2/5
f 109/2/5 106/2/5 105/2/5
f 110/2/5 106/2/5 109/2/5
f 111/2/5 108/2/5 107/2/5
f 112/2/5 108/2/5 111/2/5
f 115/2/5 114/2/5 113/2/5
f 116/2/5 114/2/5 115/2/5
f 119/2/5 118/2/5 117/2/5
f 120/2/5 118/2/5 119/2/5
f 123/2/5 122/2/5 121/2/5
f 124/2/5 122/2/5 123/2/5
f 125/2/6 126/2/6 127/2/6
f 127/2/6 126/2/6 128/2/6
f 129/2/6 130/2/6 131/2/6
f 131/2/6 130/2/6 132/2/6
f 133/2/6 134/2/6 135/2/6
f 135/2/6 134/2/6 136/2/6
f 137/2/6 138/2/6 139/2/6
f 139/2/6 138/2/6 140/2/6
f 141/2/6 142/2/6 143/2/6
f 143/2/6 142/2/6 144/2/6
f 145/1/6 146/1/6 147/1/6
f 147/1/6 146/1/6 148/1/6
