# MagicaVoxel @ Ephtracy

# group
g puzzle_pattern_crook

# material
mtllib puzzle_pattern_crook.mtl
usemtl palette

# normals
vn -1 0 0
vn 1 0 0
vn 0 0 1
vn 0 0 -1
vn 0 -1 0
vn 0 1 0

# texcoords
vt 0.927734 0.5
vt 0.962891 0.5
vt 0.994141 0.5

# verts
v -4.5 0 4.5
v -4.5 0 -4.5
v -4.5 1 4.5
v -4.5 1 -4.5
v 4.5 0 4.5
v 4.5 0 -4.5
v 4.5 1 4.5
v 4.5 1 -4.5
v -4.5 0 4.5
v -4.5 1 4.5
v 4.5 0 4.5
v 4.5 1 4.5
v -4.5 0 -4.5
v -4.5 1 -4.5
v 4.5 0 -4.5
v 4.5 1 -4.5
v -4.5 0 4.5
v 4.5 0 4.5
v -3.5 0 3.5
v -1.5 0 3.5
v 1.5 0 3.5
v 3.5 0 3.5
v -1.5 0 2.5
v -0.5 0 2.5
v 0.5 0 2.5
v 1.5 0 2.5
v -0.5 0 0.5
v 0.5 0 0.5
v 1.5 0 0.5
v -2.5 0 -0.5
v -1.5 0 -0.5
v 0.5 0 -0.5
v 1.5 0 -0.5
v 2.5 0 -0.5
v -2.5 0 -2.5
v -1.5 0 -2.5
v 1.5 0 -2.5
v -3.5 0 -3.5
v -1.5 0 -3.5
v 2.5 0 -3.5
v 3.5 0 -3.5
v -4.5 0 -4.5
v 4.5 0 -4.5
v -4.5 1 4.5
v 4.5 1 4.5
v -3.5 1 3.5
v -1.5 1 3.5
v 1.5 1 3.5
v 3.5 1 3.5
v -1.5 1 2.5
v -0.5 1 2.5
v 0.5 1 2.5
v 1.5 1 2.5
v -0.5 1 0.5
v 0.5 1 0.5
v 1.5 1 0.5
v -2.5 1 -0.5
v -1.5 1 -0.5
v 0.5 1 -0.5
v 1.5 1 -0.5
v 2.5 1 -0.5
v -2.5 1 -2.5
v -1.5 1 -2.5
v 1.5 1 -2.5
v -3.5 1 -3.5
v -1.5 1 -3.5
v 2.5 1 -3.5
v 3.5 1 -3.5
v -4.5 1 -4.5
v 4.5 1 -4.5

# faces
f 3/3/1 2/3/1 1/3/1
f 4/3/1 2/3/1 3/3/1
f 5/3/2 6/3/2 7/3/2
f 7/3/2 6/3/2 8/3/2
f 11/3/3 10/3/3 9/3/3
f 12/3/3 10/3/3 11/3/3
f 13/3/4 14/3/4 15/3/4
f 15/3/4 14/3/4 16/3/4
f 19/3/5 18/3/5 17/3/5
f 20/3/5 18/3/5 19/3/5
f 21/3/5 18/3/5 20/3/5
f 22/3/5 18/3/5 21/3/5
f 23/2/5 20/2/5 19/2/5
f 23/1/5 21/1/5 20/1/5
f 24/1/5 21/1/5 23/1/5
f 25/1/5 21/1/5 24/1/5
f 26/2/5 22/2/5 21/2/5
f 26/1/5 21/1/5 25/1/5
f 27/1/5 25/1/5 24/1/5
f 27/2/5 24/2/5 23/2/5
f 28/2/5 26/2/5 25/2/5
f 28/1/5 25/1/5 27/1/5
f 29/2/5 22/2/5 26/2/5
f 29/2/5 26/2/5 28/2/5
f 30/2/5 28/2/5 27/2/5
f 30/2/5 23/2/5 19/2/5
f 30/2/5 27/2/5 23/2/5
f 31/2/5 28/2/5 30/2/5
f 32/1/5 29/1/5 28/1/5
f 32/2/5 28/2/5 31/2/5
f 33/2/5 22/2/5 29/2/5
f 33/1/5 29/1/5 32/1/5
f 34/2/5 22/2/5 33/2/5
f 35/1/5 31/1/5 30/1/5
f 35/2/5 30/2/5 19/2/5
f 36/2/5 32/2/5 31/2/5
f 36/1/5 31/1/5 35/1/5
f 36/2/5 33/2/5 32/2/5
f 37/1/5 34/1/5 33/1/5
f 37/2/5 33/2/5 36/2/5
f 38/3/5 19/3/5 17/3/5
f 38/2/5 35/2/5 19/2/5
f 38/2/5 36/2/5 35/2/5
f 39/1/5 37/1/5 36/1/5
f 39/2/5 36/2/5 38/2/5
f 40/1/5 34/1/5 37/1/5
f 40/1/5 37/1/5 39/1/5
f 40/2/5 22/2/5 34/2/5
f 41/3/5 18/3/5 22/3/5
f 41/2/5 22/2/5 40/2/5
f 42/3/5 39/3/5 38/3/5
f 42/3/5 40/3/5 39/3/5
f 42/3/5 41/3/5 40/3/5
f 42/3/5 38/3/5 17/3/5
f 43/3/5 18/3/5 41/3/5
f 43/3/5 41/3/5 42/3/5
f 44/3/6 45/3/6 46/3/6
f 46/3/6 45/3/6 47/3/6
f 47/3/6 45/3/6 48/3/6
f 48/3/6 45/3/6 49/3/6
f 46/2/6 47/2/6 50/2/6
f 47/1/6 48/1/6 50/1/6
f 50/1/6 48/1/6 51/1/6
f 51/1/6 48/1/6 52/1/6
f 48/2/6 49/2/6 53/2/6
f 52/1/6 48/1/6 53/1/6
f 51/1/6 52/1/6 54/1/6
f 50/2/6 51/2/6 54/2/6
f 52/2/6 53/2/6 55/2/6
f 54/1/6 52/1/6 55/1/6
f 53/2/6 49/2/6 56/2/6
f 55/2/6 53/2/6 56/2/6
f 54/2/6 55/2/6 57/2/6
f 46/2/6 50/2/6 57/2/6
f 50/2/6 54/2/6 57/2/6
f 57/2/6 55/2/6 58/2/6
f 55/1/6 56/1/6 59/1/6
f 58/2/6 55/2/6 59/2/6
f 56/2/6 49/2/6 60/2/6
f 59/1/6 56/1/6 60/1/6
f 60/2/6 49/2/6 61/2/6
f 57/1/6 58/1/6 62/1/6
f 46/2/6 57/2/6 62/2/6
f 58/2/6 59/2/6 63/2/6
f 62/1/6 58/1/6 63/1/6
f 59/2/6 60/2/6 63/2/6
f 60/1/6 61/1/6 64/1/6
f 63/2/6 60/2/6 64/2/6
f 44/3/6 46/3/6 65/3/6
f 46/2/6 62/2/6 65/2/6
f 62/2/6 63/2/6 65/2/6
f 63/1/6 64/1/6 66/1/6
f 65/2/6 63/2/6 66/2/6
f 64/1/6 61/1/6 67/1/6
f 66/1/6 64/1/6 67/1/6
f 61/2/6 49/2/6 67/2/6
f 49/3/6 45/3/6 68/3/6
f 67/2/6 49/2/6 68/2/6
f 65/3/6 66/3/6 69/3/6
f 66/3/6 67/3/6 69/3/6
f 67/3/6 68/3/6 69/3/6
f 44/3/6 65/3/6 69/3/6
f 68/3/6 45/3/6 70/3/6
f 69/3/6 68/3/6 70/3/6
