# MagicaVoxel @ Ephtracy

# group
g puzzle_pattern_keys

# material
mtllib puzzle_pattern_keys.mtl
usemtl palette

# normals
vn -1 0 0
vn 1 0 0
vn 0 0 1
vn 0 0 -1
vn 0 -1 0
vn 0 1 0

# texcoords
vt 0.927734 0.5
vt 0.962891 0.5
vt 0.994141 0.5

# verts
v -4.5 0 4.5
v -4.5 0 -4.5
v -4.5 1 4.5
v -4.5 1 -4.5
v 4.5 0 4.5
v 4.5 0 -4.5
v 4.5 1 4.5
v 4.5 1 -4.5
v -4.5 0 4.5
v -4.5 1 4.5
v 4.5 0 4.5
v 4.5 1 4.5
v -4.5 0 -4.5
v -4.5 1 -4.5
v 4.5 0 -4.5
v 4.5 1 -4.5
v -4.5 0 4.5
v 4.5 0 4.5
v -3.5 0 3.5
v -2.5 0 3.5
v -1.5 0 3.5
v -0.5 0 3.5
v 0.5 0 3.5
v 3.5 0 3.5
v -2.5 0 2.5
v -1.5 0 2.5
v -0.5 0 2.5
v 0.5 0 2.5
v 1.5 0 2.5
v 2.5 0 2.5
v -3.5 0 1.5
v 0.5 0 1.5
v 1.5 0 1.5
v 2.5 0 1.5
v 0.5 0 0.5
v 3.5 0 0.5
v -3.5 0 -0.5
v -0.5 0 -0.5
v 0.5 0 -0.5
v 1.5 0 -0.5
v 2.5 0 -0.5
v 3.5 0 -0.5
v -2.5 0 -1.5
v -1.5 0 -1.5
v -0.5 0 -1.5
v 0.5 0 -1.5
v 1.5 0 -1.5
v 2.5 0 -1.5
v -2.5 0 -2.5
v -1.5 0 -2.5
v -0.5 0 -2.5
v 3.5 0 -2.5
v -3.5 0 -3.5
v -0.5 0 -3.5
v 3.5 0 -3.5
v -4.5 0 -4.5
v 4.5 0 -4.5
v -4.5 1 4.5
v 4.5 1 4.5
v -3.5 1 3.5
v -2.5 1 3.5
v -1.5 1 3.5
v -0.5 1 3.5
v 0.5 1 3.5
v 3.5 1 3.5
v -2.5 1 2.5
v -1.5 1 2.5
v -0.5 1 2.5
v 0.5 1 2.5
v 1.5 1 2.5
v 2.5 1 2.5
v -3.5 1 1.5
v 0.5 1 1.5
v 1.5 1 1.5
v 2.5 1 1.5
v 0.5 1 0.5
v 3.5 1 0.5
v -3.5 1 -0.5
v -0.5 1 -0.5
v 0.5 1 -0.5
v 1.5 1 -0.5
v 2.5 1 -0.5
v 3.5 1 -0.5
v -2.5 1 -1.5
v -1.5 1 -1.5
v -0.5 1 -1.5
v 0.5 1 -1.5
v 1.5 1 -1.5
v 2.5 1 -1.5
v -2.5 1 -2.5
v -1.5 1 -2.5
v -0.5 1 -2.5
v 3.5 1 -2.5
v -3.5 1 -3.5
v -0.5 1 -3.5
v 3.5 1 -3.5
v -4.5 1 -4.5
v 4.5 1 -4.5

# faces
f 3/3/1 2/3/1 1/3/1
f 4/3/1 2/3/1 3/3/1
f 5/3/2 6/3/2 7/3/2
f 7/3/2 6/3/2 8/3/2
f 11/3/3 10/3/3 9/3/3
f 12/3/3 10/3/3 11/3/3
f 13/3/4 14/3/4 15/3/4
f 15/3/4 14/3/4 16/3/4
f 19/3/5 18/3/5 17/3/5
f 20/3/5 18/3/5 19/3/5
f 21/3/5 18/3/5 20/3/5
f 22/3/5 18/3/5 21/3/5
f 23/3/5 18/3/5 22/3/5
f 24/3/5 18/3/5 23/3/5
f 25/1/5 20/1/5 19/1/5
f 25/2/5 21/2/5 20/2/5
f 26/1/5 22/1/5 21/1/5
f 26/2/5 21/2/5 25/2/5
f 27/2/5 23/2/5 22/2/5
f 27/1/5 22/1/5 26/1/5
f 28/1/5 24/1/5 23/1/5
f 28/2/5 23/2/5 27/2/5
f 29/1/5 24/1/5 28/1/5
f 30/1/5 24/1/5 29/1/5
f 31/3/5 19/3/5 17/3/5
f 31/1/5 27/1/5 26/1/5
f 31/1/5 25/1/5 19/1/5
f 31/1/5 29/1/5 28/1/5
f 31/1/5 28/1/5 27/1/5
f 31/1/5 26/1/5 25/1/5
f 32/1/5 29/1/5 31/1/5
f 33/2/5 30/2/5 29/2/5
f 33/1/5 29/1/5 32/1/5
f 34/1/5 24/1/5 30/1/5
f 34/2/5 30/2/5 33/2/5
f 35/1/5 33/1/5 32/1/5
f 35/2/5 32/2/5 31/2/5
f 35/1/5 34/1/5 33/1/5
f 36/1/5 24/1/5 34/1/5
f 36/1/5 34/1/5 35/1/5
f 36/3/5 18/3/5 24/3/5
f 37/2/5 35/2/5 31/2/5
f 37/3/5 31/3/5 17/3/5
f 37/2/5 36/2/5 35/2/5
f 38/2/5 36/2/5 37/2/5
f 39/2/5 36/2/5 38/2/5
f 40/2/5 36/2/5 39/2/5
f 41/2/5 36/2/5 40/2/5
f 42/3/5 18/3/5 36/3/5
f 42/2/5 36/2/5 41/2/5
f 43/1/5 38/1/5 37/1/5
f 44/1/5 38/1/5 43/1/5
f 45/2/5 39/2/5 38/2/5
f 45/1/5 38/1/5 44/1/5
f 46/1/5 40/1/5 39/1/5
f 46/2/5 39/2/5 45/2/5
f 47/2/5 41/2/5 40/2/5
f 47/1/5 40/1/5 46/1/5
f 48/1/5 42/1/5 41/1/5
f 48/2/5 41/2/5 47/2/5
f 49/2/5 44/2/5 43/2/5
f 49/1/5 43/1/5 37/1/5
f 50/1/5 46/1/5 45/1/5
f 50/2/5 44/2/5 49/2/5
f 50/1/5 45/1/5 44/1/5
f 50/1/5 48/1/5 47/1/5
f 50/1/5 47/1/5 46/1/5
f 51/1/5 48/1/5 50/1/5
f 52/3/5 18/3/5 42/3/5
f 52/1/5 48/1/5 51/1/5
f 52/1/5 42/1/5 48/1/5
f 53/1/5 49/1/5 37/1/5
f 53/3/5 37/3/5 17/3/5
f 53/1/5 51/1/5 50/1/5
f 53/1/5 50/1/5 49/1/5
f 54/2/5 52/2/5 51/2/5
f 54/1/5 51/1/5 53/1/5
f 55/3/5 18/3/5 52/3/5
f 55/2/5 52/2/5 54/2/5
f 56/3/5 54/3/5 53/3/5
f 56/3/5 53/3/5 17/3/5
f 56/3/5 55/3/5 54/3/5
f 57/3/5 18/3/5 55/3/5
f 57/3/5 55/3/5 56/3/5
f 58/3/6 59/3/6 60/3/6
f 60/3/6 59/3/6 61/3/6
f 61/3/6 59/3/6 62/3/6
f 62/3/6 59/3/6 63/3/6
f 63/3/6 59/3/6 64/3/6
f 64/3/6 59/3/6 65/3/6
f 60/1/6 61/1/6 66/1/6
f 61/2/6 62/2/6 66/2/6
f 62/1/6 63/1/6 67/1/6
f 66/2/6 62/2/6 67/2/6
f 63/2/6 64/2/6 68/2/6
f 67/1/6 63/1/6 68/1/6
f 64/1/6 65/1/6 69/1/6
f 68/2/6 64/2/6 69/2/6
f 69/1/6 65/1/6 70/1/6
f 70/1/6 65/1/6 71/1/6
f 58/3/6 60/3/6 72/3/6
f 67/1/6 68/1/6 72/1/6
f 60/1/6 66/1/6 72/1/6
f 69/1/6 70/1/6 72/1/6
f 68/1/6 69/1/6 72/1/6
f 66/1/6 67/1/6 72/1/6
f 72/1/6 70/1/6 73/1/6
f 70/2/6 71/2/6 74/2/6
f 73/1/6 70/1/6 74/1/6
f 71/1/6 65/1/6 75/1/6
f 74/2/6 71/2/6 75/2/6
f 73/1/6 74/1/6 76/1/6
f 72/2/6 73/2/6 76/2/6
f 74/1/6 75/1/6 76/1/6
f 75/1/6 65/1/6 77/1/6
f 76/1/6 75/1/6 77/1/6
f 65/3/6 59/3/6 77/3/6
f 72/2/6 76/2/6 78/2/6
f 58/3/6 72/3/6 78/3/6
f 76/2/6 77/2/6 78/2/6
f 78/2/6 77/2/6 79/2/6
f 79/2/6 77/2/6 80/2/6
f 80/2/6 77/2/6 81/2/6
f 81/2/6 77/2/6 82/2/6
f 77/3/6 59/3/6 83/3/6
f 82/2/6 77/2/6 83/2/6
f 78/1/6 79/1/6 84/1/6
f 84/1/6 79/1/6 85/1/6
f 79/2/6 80/2/6 86/2/6
f 85/1/6 79/1/6 86/1/6
f 80/1/6 81/1/6 87/1/6
f 86/2/6 80/2/6 87/2/6
f 81/2/6 82/2/6 88/2/6
f 87/1/6 81/1/6 88/1/6
f 82/1/6 83/1/6 89/1/6
f 88/2/6 82/2/6 89/2/6
f 84/2/6 85/2/6 90/2/6
f 78/1/6 84/1/6 90/1/6
f 86/1/6 87/1/6 91/1/6
f 90/2/6 85/2/6 91/2/6
f 85/1/6 86/1/6 91/1/6
f 88/1/6 89/1/6 91/1/6
f 87/1/6 88/1/6 91/1/6
f 91/1/6 89/1/6 92/1/6
f 83/3/6 59/3/6 93/3/6
f 92/1/6 89/1/6 93/1/6
f 89/1/6 83/1/6 93/1/6
f 78/1/6 90/1/6 94/1/6
f 58/3/6 78/3/6 94/3/6
f 91/1/6 92/1/6 94/1/6
f 90/1/6 91/1/6 94/1/6
f 92/2/6 93/2/6 95/2/6
f 94/1/6 92/1/6 95/1/6
f 93/3/6 59/3/6 96/3/6
f 95/2/6 93/2/6 96/2/6
f 94/3/6 95/3/6 97/3/6
f 58/3/6 94/3/6 97/3/6
f 95/3/6 96/3/6 97/3/6
f 96/3/6 59/3/6 98/3/6
f 97/3/6 96/3/6 98/3/6
