# MagicaVoxel @ Ephtracy

# group
g office-desk

# material
mtllib office-desk.mtl
usemtl palette

# normals
vn -1 0 0
vn 1 0 0
vn 0 0 1
vn 0 0 -1
vn 0 -1 0
vn 0 1 0

# texcoords
vt 0.00585938 0.5
vt 0.306641 0.5

# verts
v -20 0 20
v -20 0 18
v -20 0 -18
v -20 0 -20
v -20 15 18
v -20 15 -18
v -20 16 20
v -20 16 -20
v -20 17 20
v -20 17 -20
v 18 0 20
v 18 0 18
v 18 0 -18
v 18 0 -20
v 18 15 20
v 18 15 19
v 18 15 -19
v 18 15 -20
v 18 16 19
v 18 16 18
v 18 16 -18
v 18 16 -19
v 19 15 18
v 19 15 -18
v 19 16 18
v 19 16 -18
v -19 15 18
v -19 15 -18
v -19 16 18
v -19 16 -18
v -18 0 20
v -18 0 18
v -18 0 -18
v -18 0 -20
v -18 15 20
v -18 15 19
v -18 15 -19
v -18 15 -20
v -18 16 19
v -18 16 18
v -18 16 -18
v -18 16 -19
v 20 0 20
v 20 0 18
v 20 0 -18
v 20 0 -20
v 20 15 18
v 20 15 -18
v 20 16 20
v 20 16 -20
v 20 17 20
v 20 17 -20
v -20 0 20
v -20 16 20
v -20 17 20
v -18 0 20
v -18 15 20
v 18 0 20
v 18 15 20
v 20 0 20
v 20 16 20
v 20 17 20
v -20 0 -18
v -20 15 -18
v -19 15 -18
v -19 16 -18
v -18 0 -18
v -18 16 -18
v 18 0 -18
v 18 16 -18
v 19 15 -18
v 19 16 -18
v 20 0 -18
v 20 15 -18
v -18 15 -19
v -18 16 -19
v 18 15 -19
v 18 16 -19
v -18 15 19
v -18 16 19
v 18 15 19
v 18 16 19
v -20 0 18
v -20 15 18
v -19 15 18
v -19 16 18
v -18 0 18
v -18 16 18
v 18 0 18
v 18 16 18
v 19 15 18
v 19 16 18
v 20 0 18
v 20 15 18
v -20 0 -20
v -20 16 -20
v -20 17 -20
v -18 0 -20
v -18 15 -20
v 18 0 -20
v 18 15 -20
v 20 0 -20
v 20 16 -20
v 20 17 -20
v -20 0 20
v -18 0 20
v 18 0 20
v 20 0 20
v -20 0 18
v -18 0 18
v 18 0 18
v 20 0 18
v -20 0 -18
v -18 0 -18
v 18 0 -18
v 20 0 -18
v -20 0 -20
v -18 0 -20
v 18 0 -20
v 20 0 -20
v -18 15 20
v 18 15 20
v -18 15 19
v 18 15 19
v -20 15 18
v -19 15 18
v 19 15 18
v 20 15 18
v -20 15 -18
v -19 15 -18
v 19 15 -18
v 20 15 -18
v -18 15 -19
v 18 15 -19
v -18 15 -20
v 18 15 -20
v -18 16 19
v 18 16 19
v -19 16 18
v -18 16 18
v 18 16 18
v 19 16 18
v -19 16 -18
v -18 16 -18
v 18 16 -18
v 19 16 -18
v -18 16 -19
v 18 16 -19
v -20 17 20
v 20 17 20
v -20 17 -20
v 20 17 -20

# faces
f 5/2/1 2/2/1 1/2/1
f 6/2/1 4/2/1 3/2/1
f 7/2/1 5/2/1 1/2/1
f 7/2/1 6/2/1 5/2/1
f 8/2/1 4/2/1 6/2/1
f 8/2/1 6/2/1 7/2/1
f 9/1/1 8/1/1 7/1/1
f 10/1/1 8/1/1 9/1/1
f 15/2/1 12/2/1 11/2/1
f 16/2/1 12/2/1 15/2/1
f 17/2/1 14/2/1 13/2/1
f 18/2/1 14/2/1 17/2/1
f 19/2/1 12/2/1 16/2/1
f 20/2/1 12/2/1 19/2/1
f 21/2/1 17/2/1 13/2/1
f 22/2/1 17/2/1 21/2/1
f 25/2/1 24/2/1 23/2/1
f 26/2/1 24/2/1 25/2/1
f 27/2/2 28/2/2 29/2/2
f 29/2/2 28/2/2 30/2/2
f 31/2/2 32/2/2 35/2/2
f 35/2/2 32/2/2 36/2/2
f 33/2/2 34/2/2 37/2/2
f 37/2/2 34/2/2 38/2/2
f 36/2/2 32/2/2 39/2/2
f 39/2/2 32/2/2 40/2/2
f 33/2/2 37/2/2 41/2/2
f 41/2/2 37/2/2 42/2/2
f 43/2/2 44/2/2 47/2/2
f 45/2/2 46/2/2 48/2/2
f 43/2/2 47/2/2 49/2/2
f 47/2/2 48/2/2 49/2/2
f 48/2/2 46/2/2 50/2/2
f 49/2/2 48/2/2 50/2/2
f 49/1/2 50/1/2 51/1/2
f 51/1/2 50/1/2 52/1/2
f 56/2/3 54/2/3 53/2/3
f 57/2/3 54/2/3 56/2/3
f 59/2/3 54/2/3 57/2/3
f 60/2/3 59/2/3 58/2/3
f 61/1/3 55/1/3 54/1/3
f 61/2/3 59/2/3 60/2/3
f 61/2/3 54/2/3 59/2/3
f 62/1/3 55/1/3 61/1/3
f 65/2/3 64/2/3 63/2/3
f 67/2/3 65/2/3 63/2/3
f 67/2/3 66/2/3 65/2/3
f 68/2/3 66/2/3 67/2/3
f 71/2/3 70/2/3 69/2/3
f 72/2/3 70/2/3 71/2/3
f 73/2/3 71/2/3 69/2/3
f 74/2/3 71/2/3 73/2/3
f 77/2/3 76/2/3 75/2/3
f 78/2/3 76/2/3 77/2/3
f 79/2/4 80/2/4 81/2/4
f 81/2/4 80/2/4 82/2/4
f 83/2/4 84/2/4 85/2/4
f 83/2/4 85/2/4 87/2/4
f 85/2/4 86/2/4 87/2/4
f 87/2/4 86/2/4 88/2/4
f 89/2/4 90/2/4 91/2/4
f 91/2/4 90/2/4 92/2/4
f 89/2/4 91/2/4 93/2/4
f 93/2/4 91/2/4 94/2/4
f 95/2/4 96/2/4 98/2/4
f 98/2/4 96/2/4 99/2/4
f 99/2/4 96/2/4 101/2/4
f 100/2/4 101/2/4 102/2/4
f 96/1/4 97/1/4 103/1/4
f 102/2/4 101/2/4 103/2/4
f 101/2/4 96/2/4 103/2/4
f 103/1/4 97/1/4 104/1/4
f 109/2/5 106/2/5 105/2/5
f 110/2/5 106/2/5 109/2/5
f 111/2/5 108/2/5 107/2/5
f 112/2/5 108/2/5 111/2/5
f 117/2/5 114/2/5 113/2/5
f 118/2/5 114/2/5 117/2/5
f 119/2/5 116/2/5 115/2/5
f 120/2/5 116/2/5 119/2/5
f 123/2/5 122/2/5 121/2/5
f 124/2/5 122/2/5 123/2/5
f 129/2/5 126/2/5 125/2/5
f 130/2/5 126/2/5 129/2/5
f 131/2/5 128/2/5 127/2/5
f 132/2/5 128/2/5 131/2/5
f 135/2/5 134/2/5 133/2/5
f 136/2/5 134/2/5 135/2/5
f 140/1/5 138/1/5 137/1/5
f 141/1/5 138/1/5 140/1/5
f 143/1/5 140/1/5 139/1/5
f 143/1/5 142/1/5 141/1/5
f 143/1/5 141/1/5 140/1/5
f 144/1/5 142/1/5 143/1/5
f 145/1/5 142/1/5 144/1/5
f 146/1/5 142/1/5 145/1/5
f 147/1/5 145/1/5 144/1/5
f 148/1/5 145/1/5 147/1/5
f 149/1/6 150/1/6 151/1/6
f 151/1/6 150/1/6 152/1/6
