# MagicaVoxel @ Ephtracy

# group
g ping-pong-table

# material
mtllib ping-pong-table.mtl
usemtl palette

# normals
vn -1 0 0
vn 1 0 0
vn 0 0 1
vn 0 0 -1
vn 0 -1 0
vn 0 1 0

# texcoords
vt 0.349609 0.5
vt 0.841797 0.5
vt 0.896484 0.5
vt 0.958984 0.5
vt 0.962891 0.5
vt 0.974609 0.5
vt 0.990234 0.5

# verts
v -19.5 10 14.5
v -19.5 10 -14.5
v -19.5 11 14.5
v -19.5 11 -14.5
v -18.5 0 14.5
v -18.5 0 13.5
v -18.5 0 -13.5
v -18.5 0 -14.5
v -18.5 10 14.5
v -18.5 10 13.5
v -18.5 10 -13.5
v -18.5 10 -14.5
v -18.5 11 -10.5
v -18.5 11 -11.5
v -18.5 12 -10.5
v -18.5 12 -11.5
v -16.5 11 -9.5
v -16.5 11 -10.5
v -16.5 11 -11.5
v -16.5 11 -12.5
v -16.5 12 -9.5
v -16.5 12 -10.5
v -16.5 12 -11.5
v -16.5 12 -12.5
v -0.5 10 15.5
v -0.5 10 14.5
v -0.5 10 -14.5
v -0.5 10 -15.5
v -0.5 11 14.5
v -0.5 11 13.5
v -0.5 11 0.5
v -0.5 11 -0.5
v -0.5 11 -13.5
v -0.5 11 -14.5
v -0.5 12 13.5
v -0.5 12 -13.5
v -0.5 13 13.5
v -0.5 13 -13.5
v -0.5 14 15.5
v -0.5 14 14.5
v -0.5 14 -14.5
v -0.5 14 -15.5
v 12.5 11 6.5
v 12.5 11 5.5
v 12.5 12 6.5
v 12.5 12 5.5
v 13.5 11 8.5
v 13.5 11 6.5
v 13.5 12 8.5
v 13.5 12 6.5
v 14.5 11 9.5
v 14.5 11 8.5
v 14.5 11 6.5
v 14.5 11 4.5
v 14.5 12 9.5
v 14.5 12 8.5
v 14.5 12 6.5
v 14.5 12 4.5
v 17.5 0 14.5
v 17.5 0 13.5
v 17.5 0 -13.5
v 17.5 0 -14.5
v 17.5 10 14.5
v 17.5 10 13.5
v 17.5 10 -13.5
v 17.5 10 -14.5
v -17.5 0 14.5
v -17.5 0 13.5
v -17.5 0 -13.5
v -17.5 0 -14.5
v -17.5 10 14.5
v -17.5 10 13.5
v -17.5 10 -13.5
v -17.5 10 -14.5
v -14.5 11 -9.5
v -14.5 11 -10.5
v -14.5 11 -11.5
v -14.5 11 -12.5
v -14.5 12 -9.5
v -14.5 12 -10.5
v -14.5 12 -11.5
v -14.5 12 -12.5
v -13.5 11 -10.5
v -13.5 11 -11.5
v -13.5 12 -10.5
v -13.5 12 -11.5
v 0.5 10 15.5
v 0.5 10 14.5
v 0.5 10 -14.5
v 0.5 10 -15.5
v 0.5 11 14.5
v 0.5 11 13.5
v 0.5 11 0.5
v 0.5 11 -0.5
v 0.5 11 -13.5
v 0.5 11 -14.5
v 0.5 12 13.5
v 0.5 12 -13.5
v 0.5 13 13.5
v 0.5 13 -13.5
v 0.5 14 15.5
v 0.5 14 14.5
v 0.5 14 -14.5
v 0.5 14 -15.5
v 13.5 11 6.5
v 13.5 11 5.5
v 13.5 12 6.5
v 13.5 12 5.5
v 15.5 11 9.5
v 15.5 11 8.5
v 15.5 11 6.5
v 15.5 11 4.5
v 15.5 12 9.5
v 15.5 12 8.5
v 15.5 12 6.5
v 15.5 12 4.5
v 16.5 11 8.5
v 16.5 11 6.5
v 16.5 12 8.5
v 16.5 12 6.5
v 18.5 0 14.5
v 18.5 0 13.5
v 18.5 0 -13.5
v 18.5 0 -14.5
v 18.5 10 14.5
v 18.5 10 13.5
v 18.5 10 -13.5
v 18.5 10 -14.5
v 19.5 10 14.5
v 19.5 10 -14.5
v 19.5 11 14.5
v 19.5 11 -14.5
v -0.5 10 15.5
v -0.5 14 15.5
v 0.5 10 15.5
v 0.5 14 15.5
v -19.5 10 14.5
v -19.5 11 14.5
v -18.5 0 14.5
v -18.5 10 14.5
v -17.5 0 14.5
v -17.5 10 14.5
v -0.5 10 14.5
v -0.5 11 14.5
v 0.5 10 14.5
v 0.5 11 14.5
v 17.5 0 14.5
v 17.5 10 14.5
v 18.5 0 14.5
v 18.5 10 14.5
v 19.5 10 14.5
v 19.5 11 14.5
v 14.5 11 9.5
v 14.5 12 9.5
v 15.5 11 9.5
v 15.5 12 9.5
v 13.5 11 8.5
v 13.5 12 8.5
v 14.5 11 8.5
v 14.5 12 8.5
v 15.5 11 8.5
v 15.5 12 8.5
v 16.5 11 8.5
v 16.5 12 8.5
v 12.5 11 6.5
v 12.5 12 6.5
v 13.5 11 6.5
v 13.5 12 6.5
v -16.5 11 -9.5
v -16.5 12 -9.5
v -14.5 11 -9.5
v -14.5 12 -9.5
v -18.5 11 -10.5
v -18.5 12 -10.5
v -16.5 11 -10.5
v -16.5 12 -10.5
v -14.5 11 -10.5
v -14.5 12 -10.5
v -13.5 11 -10.5
v -13.5 12 -10.5
v -18.5 0 -13.5
v -18.5 10 -13.5
v -17.5 0 -13.5
v -17.5 10 -13.5
v 17.5 0 -13.5
v 17.5 10 -13.5
v 18.5 0 -13.5
v 18.5 10 -13.5
v -18.5 0 13.5
v -18.5 10 13.5
v -17.5 0 13.5
v -17.5 10 13.5
v 17.5 0 13.5
v 17.5 10 13.5
v 18.5 0 13.5
v 18.5 10 13.5
v 13.5 11 6.5
v 13.5 12 6.5
v 14.5 11 6.5
v 14.5 12 6.5
v 15.5 11 6.5
v 15.5 12 6.5
v 16.5 11 6.5
v 16.5 12 6.5
v 12.5 11 5.5
v 12.5 12 5.5
v 13.5 11 5.5
v 13.5 12 5.5
v 14.5 11 4.5
v 14.5 12 4.5
v 15.5 11 4.5
v 15.5 12 4.5
v -18.5 11 -11.5
v -18.5 12 -11.5
v -16.5 11 -11.5
v -16.5 12 -11.5
v -14.5 11 -11.5
v -14.5 12 -11.5
v -13.5 11 -11.5
v -13.5 12 -11.5
v -16.5 11 -12.5
v -16.5 12 -12.5
v -14.5 11 -12.5
v -14.5 12 -12.5
v -19.5 10 -14.5
v -19.5 11 -14.5
v -18.5 0 -14.5
v -18.5 10 -14.5
v -17.5 0 -14.5
v -17.5 10 -14.5
v -0.5 10 -14.5
v -0.5 11 -14.5
v 0.5 10 -14.5
v 0.5 11 -14.5
v 17.5 0 -14.5
v 17.5 10 -14.5
v 18.5 0 -14.5
v 18.5 10 -14.5
v 19.5 10 -14.5
v 19.5 11 -14.5
v -0.5 10 -15.5
v -0.5 14 -15.5
v 0.5 10 -15.5
v 0.5 14 -15.5
v -18.5 0 14.5
v -17.5 0 14.5
v 17.5 0 14.5
v 18.5 0 14.5
v -18.5 0 13.5
v -17.5 0 13.5
v 17.5 0 13.5
v 18.5 0 13.5
v -18.5 0 -13.5
v -17.5 0 -13.5
v 17.5 0 -13.5
v 18.5 0 -13.5
v -18.5 0 -14.5
v -17.5 0 -14.5
v 17.5 0 -14.5
v 18.5 0 -14.5
v -0.5 10 15.5
v 0.5 10 15.5
v -19.5 10 14.5
v -18.5 10 14.5
v -17.5 10 14.5
v -0.5 10 14.5
v 0.5 10 14.5
v 17.5 10 14.5
v 18.5 10 14.5
v 19.5 10 14.5
v -18.5 10 13.5
v -17.5 10 13.5
v 17.5 10 13.5
v 18.5 10 13.5
v -18.5 10 0.5
v 18.5 10 0.5
v -18.5 10 -0.5
v 18.5 10 -0.5
v -18.5 10 -13.5
v -17.5 10 -13.5
v 17.5 10 -13.5
v 18.5 10 -13.5
v -19.5 10 -14.5
v -18.5 10 -14.5
v -17.5 10 -14.5
v -0.5 10 -14.5
v 0.5 10 -14.5
v 17.5 10 -14.5
v 18.5 10 -14.5
v 19.5 10 -14.5
v -0.5 10 -15.5
v 0.5 10 -15.5
v -19.5 11 14.5
v -0.5 11 14.5
v 0.5 11 14.5
v 19.5 11 14.5
v -18.5 11 13.5
v -0.5 11 13.5
v 0.5 11 13.5
v 18.5 11 13.5
v 14.5 11 9.5
v 15.5 11 9.5
v 13.5 11 8.5
v 14.5 11 8.5
v 15.5 11 8.5
v 16.5 11 8.5
v 12.5 11 6.5
v 13.5 11 6.5
v 14.5 11 6.5
v 15.5 11 6.5
v 16.5 11 6.5
v 12.5 11 5.5
v 13.5 11 5.5
v 14.5 11 4.5
v 15.5 11 4.5
v -18.5 11 0.5
v -0.5 11 0.5
v 0.5 11 0.5
v 18.5 11 0.5
v -18.5 11 -0.5
v -0.5 11 -0.5
v 0.5 11 -0.5
v 18.5 11 -0.5
v -16.5 11 -9.5
v -14.5 11 -9.5
v -18.5 11 -10.5
v -16.5 11 -10.5
v -14.5 11 -10.5
v -13.5 11 -10.5
v -18.5 11 -11.5
v -16.5 11 -11.5
v -14.5 11 -11.5
v -13.5 11 -11.5
v -16.5 11 -12.5
v -14.5 11 -12.5
v -18.5 11 -13.5
v -0.5 11 -13.5
v 0.5 11 -13.5
v 18.5 11 -13.5
v -19.5 11 -14.5
v -0.5 11 -14.5
v 0.5 11 -14.5
v 19.5 11 -14.5
v 14.5 12 9.5
v 15.5 12 9.5
v 13.5 12 8.5
v 14.5 12 8.5
v 15.5 12 8.5
v 16.5 12 8.5
v 12.5 12 6.5
v 13.5 12 6.5
v 14.5 12 6.5
v 15.5 12 6.5
v 16.5 12 6.5
v 12.5 12 5.5
v 13.5 12 5.5
v 14.5 12 4.5
v 15.5 12 4.5
v -16.5 12 -9.5
v -14.5 12 -9.5
v -18.5 12 -10.5
v -16.5 12 -10.5
v -14.5 12 -10.5
v -13.5 12 -10.5
v -18.5 12 -11.5
v -16.5 12 -11.5
v -14.5 12 -11.5
v -13.5 12 -11.5
v -16.5 12 -12.5
v -14.5 12 -12.5
v -0.5 14 15.5
v 0.5 14 15.5
v -0.5 14 14.5
v 0.5 14 14.5
v -0.5 14 -14.5
v 0.5 14 -14.5
v -0.5 14 -15.5
v 0.5 14 -15.5

# faces
f 3/4/1 2/4/1 1/4/1
f 4/4/1 2/4/1 3/4/1
f 9/7/1 6/7/1 5/7/1
f 10/7/1 6/7/1 9/7/1
f 11/7/1 8/7/1 7/7/1
f 12/7/1 8/7/1 11/7/1
f 15/1/1 14/1/1 13/1/1
f 16/1/1 14/1/1 15/1/1
f 21/2/1 18/2/1 17/2/1
f 22/2/1 18/2/1 21/2/1
f 23/2/1 20/2/1 19/2/1
f 24/2/1 20/2/1 23/2/1
f 29/6/1 26/6/1 25/6/1
f 34/6/1 28/6/1 27/6/1
f 35/4/1 33/4/1 32/4/1
f 35/4/1 34/4/1 33/4/1
f 35/4/1 30/4/1 29/4/1
f 35/4/1 31/4/1 30/4/1
f 35/4/1 32/4/1 31/4/1
f 36/4/1 34/4/1 35/4/1
f 37/4/1 35/4/1 29/4/1
f 37/6/1 36/6/1 35/6/1
f 38/4/1 34/4/1 36/4/1
f 38/6/1 36/6/1 37/6/1
f 39/6/1 29/6/1 25/6/1
f 40/4/1 37/4/1 29/4/1
f 40/6/1 29/6/1 39/6/1
f 40/4/1 38/4/1 37/4/1
f 41/6/1 28/6/1 34/6/1
f 41/4/1 38/4/1 40/4/1
f 41/4/1 34/4/1 38/4/1
f 42/6/1 28/6/1 41/6/1
f 45/5/1 44/5/1 43/5/1
f 46/5/1 44/5/1 45/5/1
f 49/2/1 48/2/1 47/2/1
f 50/2/1 48/2/1 49/2/1
f 55/2/1 52/2/1 51/2/1
f 56/2/1 52/2/1 55/2/1
f 57/1/1 54/1/1 53/1/1
f 58/1/1 54/1/1 57/1/1
f 63/7/1 60/7/1 59/7/1
f 64/7/1 60/7/1 63/7/1
f 65/7/1 62/7/1 61/7/1
f 66/7/1 62/7/1 65/7/1
f 67/7/2 68/7/2 71/7/2
f 71/7/2 68/7/2 72/7/2
f 69/7/2 70/7/2 73/7/2
f 73/7/2 70/7/2 74/7/2
f 75/2/2 76/2/2 79/2/2
f 79/2/2 76/2/2 80/2/2
f 77/2/2 78/2/2 81/2/2
f 81/2/2 78/2/2 82/2/2
f 83/2/2 84/2/2 85/2/2
f 85/2/2 84/2/2 86/2/2
f 87/6/2 88/6/2 91/6/2
f 89/6/2 90/6/2 96/6/2
f 94/4/2 95/4/2 97/4/2
f 95/4/2 96/4/2 97/4/2
f 91/4/2 92/4/2 97/4/2
f 92/4/2 93/4/2 97/4/2
f 93/4/2 94/4/2 97/4/2
f 97/4/2 96/4/2 98/4/2
f 91/4/2 97/4/2 99/4/2
f 97/6/2 98/6/2 99/6/2
f 98/4/2 96/4/2 100/4/2
f 99/6/2 98/6/2 100/6/2
f 87/6/2 91/6/2 101/6/2
f 91/4/2 99/4/2 102/4/2
f 101/6/2 91/6/2 102/6/2
f 99/4/2 100/4/2 102/4/2
f 96/6/2 90/6/2 103/6/2
f 102/4/2 100/4/2 103/4/2
f 100/4/2 96/4/2 103/4/2
f 103/6/2 90/6/2 104/6/2
f 105/5/2 106/5/2 107/5/2
f 107/5/2 106/5/2 108/5/2
f 109/2/2 110/2/2 113/2/2
f 113/2/2 110/2/2 114/2/2
f 111/1/2 112/1/2 115/1/2
f 115/1/2 112/1/2 116/1/2
f 117/2/2 118/2/2 119/2/2
f 119/2/2 118/2/2 120/2/2
f 121/7/2 122/7/2 125/7/2
f 125/7/2 122/7/2 126/7/2
f 123/7/2 124/7/2 127/7/2
f 127/7/2 124/7/2 128/7/2
f 129/4/2 130/4/2 131/4/2
f 131/4/2 130/4/2 132/4/2
f 135/6/3 134/6/3 133/6/3
f 136/6/3 134/6/3 135/6/3
f 140/4/3 138/4/3 137/4/3
f 141/7/3 140/7/3 139/7/3
f 142/4/3 138/4/3 140/4/3
f 142/7/3 140/7/3 141/7/3
f 143/4/3 138/4/3 142/4/3
f 144/4/3 138/4/3 143/4/3
f 148/4/3 146/4/3 145/4/3
f 149/7/3 148/7/3 147/7/3
f 150/4/3 146/4/3 148/4/3
f 150/7/3 148/7/3 149/7/3
f 151/4/3 146/4/3 150/4/3
f 152/4/3 146/4/3 151/4/3
f 155/2/3 154/2/3 153/2/3
f 156/2/3 154/2/3 155/2/3
f 159/2/3 158/2/3 157/2/3
f 160/2/3 158/2/3 159/2/3
f 163/2/3 162/2/3 161/2/3
f 164/2/3 162/2/3 163/2/3
f 167/5/3 166/5/3 165/5/3
f 168/5/3 166/5/3 167/5/3
f 171/2/3 170/2/3 169/2/3
f 172/2/3 170/2/3 171/2/3
f 175/1/3 174/1/3 173/1/3
f 176/1/3 174/1/3 175/1/3
f 179/2/3 178/2/3 177/2/3
f 180/2/3 178/2/3 179/2/3
f 183/7/3 182/7/3 181/7/3
f 184/7/3 182/7/3 183/7/3
f 187/7/3 186/7/3 185/7/3
f 188/7/3 186/7/3 187/7/3
f 189/7/4 190/7/4 191/7/4
f 191/7/4 190/7/4 192/7/4
f 193/7/4 194/7/4 195/7/4
f 195/7/4 194/7/4 196/7/4
f 197/2/4 198/2/4 199/2/4
f 199/2/4 198/2/4 200/2/4
f 201/2/4 202/2/4 203/2/4
f 203/2/4 202/2/4 204/2/4
f 205/5/4 206/5/4 207/5/4
f 207/5/4 206/5/4 208/5/4
f 209/1/4 210/1/4 211/1/4
f 211/1/4 210/1/4 212/1/4
f 213/1/4 214/1/4 215/1/4
f 215/1/4 214/1/4 216/1/4
f 217/2/4 218/2/4 219/2/4
f 219/2/4 218/2/4 220/2/4
f 221/2/4 222/2/4 223/2/4
f 223/2/4 222/2/4 224/2/4
f 225/4/4 226/4/4 228/4/4
f 227/7/4 228/7/4 229/7/4
f 228/4/4 226/4/4 230/4/4
f 229/7/4 228/7/4 230/7/4
f 230/4/4 226/4/4 231/4/4
f 231/4/4 226/4/4 232/4/4
f 233/4/4 234/4/4 236/4/4
f 235/7/4 236/7/4 237/7/4
f 236/4/4 234/4/4 238/4/4
f 237/7/4 236/7/4 238/7/4
f 238/4/4 234/4/4 239/4/4
f 239/4/4 234/4/4 240/4/4
f 241/6/4 242/6/4 243/6/4
f 243/6/4 242/6/4 244/6/4
f 249/7/5 246/7/5 245/7/5
f 250/7/5 246/7/5 249/7/5
f 251/7/5 248/7/5 247/7/5
f 252/7/5 248/7/5 251/7/5
f 257/7/5 254/7/5 253/7/5
f 258/7/5 254/7/5 257/7/5
f 259/7/5 256/7/5 255/7/5
f 260/7/5 256/7/5 259/7/5
f 266/6/5 262/6/5 261/6/5
f 267/6/5 262/6/5 266/6/5
f 271/4/5 264/4/5 263/4/5
f 272/4/5 266/4/5 265/4/5
f 272/4/5 267/4/5 266/4/5
f 272/4/5 268/4/5 267/4/5
f 273/4/5 268/4/5 272/4/5
f 274/4/5 270/4/5 269/4/5
f 275/3/5 273/3/5 272/3/5
f 275/3/5 274/3/5 273/3/5
f 275/4/5 271/4/5 263/4/5
f 275/3/5 272/3/5 271/3/5
f 276/4/5 270/4/5 274/4/5
f 276/3/5 274/3/5 275/3/5
f 277/4/5 275/4/5 263/4/5
f 277/4/5 276/4/5 275/4/5
f 278/4/5 270/4/5 276/4/5
f 278/4/5 276/4/5 277/4/5
f 279/4/5 277/4/5 263/4/5
f 279/3/5 278/3/5 277/3/5
f 280/3/5 278/3/5 279/3/5
f 281/3/5 278/3/5 280/3/5
f 282/4/5 270/4/5 278/4/5
f 282/3/5 278/3/5 281/3/5
f 283/4/5 279/4/5 263/4/5
f 284/4/5 279/4/5 283/4/5
f 285/4/5 281/4/5 280/4/5
f 286/4/5 281/4/5 285/4/5
f 287/4/5 281/4/5 286/4/5
f 288/4/5 281/4/5 287/4/5
f 289/4/5 270/4/5 282/4/5
f 290/4/5 270/4/5 289/4/5
f 291/6/5 287/6/5 286/6/5
f 292/6/5 287/6/5 291/6/5
f 293/4/6 294/4/6 297/4/6
f 297/4/6 294/4/6 298/4/6
f 295/4/6 296/4/6 299/4/6
f 299/4/6 296/4/6 300/4/6
f 299/3/6 300/3/6 301/3/6
f 301/3/6 300/3/6 302/3/6
f 299/3/6 301/3/6 303/3/6
f 303/3/6 301/3/6 304/3/6
f 302/3/6 300/3/6 305/3/6
f 305/3/6 300/3/6 306/3/6
f 299/3/6 303/3/6 307/3/6
f 307/3/6 303/3/6 308/3/6
f 306/3/6 300/3/6 311/3/6
f 299/3/6 307/3/6 312/3/6
f 308/3/6 309/3/6 313/3/6
f 313/3/6 309/3/6 314/3/6
f 312/3/6 313/3/6 314/3/6
f 310/3/6 311/3/6 315/3/6
f 297/3/6 298/3/6 316/3/6
f 293/4/6 297/4/6 316/4/6
f 316/3/6 298/3/6 317/3/6
f 314/3/6 315/3/6 318/3/6
f 299/3/6 312/3/6 318/3/6
f 312/3/6 314/3/6 318/3/6
f 315/3/6 311/3/6 319/3/6
f 318/3/6 315/3/6 319/3/6
f 300/4/6 296/4/6 319/4/6
f 311/3/6 300/3/6 319/3/6
f 316/4/6 317/4/6 320/4/6
f 293/4/6 316/4/6 320/4/6
f 320/4/6 317/4/6 321/4/6
f 318/4/6 319/4/6 322/4/6
f 319/4/6 296/4/6 323/4/6
f 322/4/6 319/4/6 323/4/6
f 320/3/6 321/3/6 324/3/6
f 324/3/6 321/3/6 325/3/6
f 293/4/6 320/4/6 326/4/6
f 320/3/6 324/3/6 326/3/6
f 326/3/6 324/3/6 327/3/6
f 325/3/6 321/3/6 328/3/6
f 328/3/6 321/3/6 329/3/6
f 293/4/6 326/4/6 330/4/6
f 329/3/6 321/3/6 333/3/6
f 330/3/6 331/3/6 334/3/6
f 332/3/6 333/3/6 335/3/6
f 330/3/6 334/3/6 336/3/6
f 334/3/6 335/3/6 336/3/6
f 293/4/6 330/4/6 336/4/6
f 335/3/6 333/3/6 337/3/6
f 336/3/6 335/3/6 337/3/6
f 333/3/6 321/3/6 337/3/6
f 322/3/6 323/3/6 338/3/6
f 323/4/6 296/4/6 339/4/6
f 338/3/6 323/3/6 339/3/6
f 293/4/6 336/4/6 340/4/6
f 336/4/6 337/4/6 340/4/6
f 340/4/6 337/4/6 341/4/6
f 338/4/6 339/4/6 342/4/6
f 339/4/6 296/4/6 343/4/6
f 342/4/6 339/4/6 343/4/6
f 344/2/6 345/2/6 347/2/6
f 347/2/6 345/2/6 348/2/6
f 346/2/6 347/2/6 351/2/6
f 348/2/6 349/2/6 351/2/6
f 347/2/6 348/2/6 351/2/6
f 351/2/6 349/2/6 352/2/6
f 352/2/6 349/2/6 353/2/6
f 353/2/6 349/2/6 354/2/6
f 350/5/6 351/5/6 355/5/6
f 355/5/6 351/5/6 356/5/6
f 352/1/6 353/1/6 357/1/6
f 357/1/6 353/1/6 358/1/6
f 359/2/6 360/2/6 362/2/6
f 362/2/6 360/2/6 363/2/6
f 361/1/6 362/1/6 365/1/6
f 363/2/6 364/2/6 366/2/6
f 365/1/6 362/1/6 366/1/6
f 362/2/6 363/2/6 366/2/6
f 366/2/6 364/2/6 367/2/6
f 367/2/6 364/2/6 368/2/6
f 366/2/6 367/2/6 369/2/6
f 369/2/6 367/2/6 370/2/6
f 371/6/6 372/6/6 373/6/6
f 373/6/6 372/6/6 374/6/6
f 373/4/6 374/4/6 375/4/6
f 375/4/6 374/4/6 376/4/6
f 375/6/6 376/6/6 377/6/6
f 377/6/6 376/6/6 378/6/6
